<svg version="1.1" viewBox="0.0 0.0 192.0 96.0" fill="none" stroke="none" stroke-linecap="square" stroke-miterlimit="10" xmlns:xlink="http://www.w3.org/1999/xlink" xmlns="http://www.w3.org/2000/svg"><clipPath id="p.0"><path d="m0 0l192.0 0l0 96.0l-192.0 0l0 -96.0z" clip-rule="nonzero"/></clipPath><g clip-path="url(#p.0)"><path fill="#000000" fill-opacity="0.0" d="m0 0l192.0 0l0 96.0l-192.0 0z" fill-rule="evenodd"/><path fill="#434343" d="m0 -0.34908137l192.7874 0l0 96.0l-192.7874 0z" fill-rule="evenodd"/><path fill="#000000" fill-opacity="0.0" d="m0 20.8084l71.84252 0l0 49.070866l-71.84252 0z" fill-rule="evenodd"/><path fill="#f3f3f3" d="m9.828125 43.334774l1.65625 -0.140625q0.125 1.0 0.546875 1.640625q0.4375 0.625 1.34375 1.03125q0.90625 0.390625 2.03125 0.390625q1.0 0 1.765625 -0.296875q0.78125 -0.3125 1.15625 -0.828125q0.375 -0.515625 0.375 -1.125q0 -0.625 -0.375 -1.09375q-0.359375 -0.46875 -1.1875 -0.78125q-0.53125 -0.21875 -2.359375 -0.65625q-1.828125 -0.4375 -2.5625 -0.828125q-0.953125 -0.5 -1.421875 -1.234375q-0.453125 -0.734375 -0.453125 -1.640625q0 -1.015625 0.5625 -1.890625q0.578125 -0.875 1.671875 -1.3125q1.09375 -0.453125 2.4375 -0.453125q1.46875 0 2.59375 0.46875q1.125 0.46875 1.734375 1.40625q0.609375 0.921875 0.65625 2.078125l-1.6875 0.125q-0.140625 -1.25 -0.921875 -1.890625q-0.78125 -0.640625 -2.3125 -0.640625q-1.59375 0 -2.328125 0.578125q-0.71875 0.578125 -0.71875 1.40625q0 0.71875 0.515625 1.171875q0.5 0.46875 2.640625 0.953125q2.140625 0.484375 2.9375 0.84375q1.15625 0.53125 1.703125 1.359375q0.5625 0.8125 0.5625 1.875q0 1.0625 -0.609375 2.0q-0.609375 0.9375 -1.75 1.453125q-1.125 0.515625 -2.546875 0.515625q-1.796875 0 -3.015625 -0.515625q-1.21875 -0.53125 -1.90625 -1.578125q-0.6875 -1.0625 -0.734375 -2.390625zm15.860199 8.171875q-1.34375 -1.703125 -2.28125 -3.984375q-0.921875 -2.28125 -0.921875 -4.734375q0 -2.140625 0.6875 -4.125q0.828125 -2.28125 2.515625 -4.546875l1.171875 0q-1.09375 1.875 -1.453125 2.6875q-0.546875 1.234375 -0.859375 2.59375q-0.390625 1.703125 -0.390625 3.40625q0 4.359375 2.703125 8.703125l-1.171875 0zm3.061676 -3.90625l0 -9.609375l1.46875 0l0 1.359375q1.0625 -1.578125 3.0625 -1.578125q0.859375 0 1.59375 0.3125q0.734375 0.3125 1.09375 0.828125q0.359375 0.5 0.5 1.203125q0.09375 0.4375 0.09375 1.578125l0 5.90625l-1.625 0l0 -5.84375q0 -1.0 -0.203125 -1.484375q-0.1875 -0.5 -0.671875 -0.796875q-0.484375 -0.296875 -1.125 -0.296875q-1.046875 0 -1.8125 0.671875q-0.75 0.65625 -0.75 2.5l0 5.25l-1.625 0zm11.384323 3.90625l-1.171875 0q2.703125 -4.34375 2.703125 -8.703125q0 -1.703125 -0.390625 -3.375q-0.3125 -1.359375 -0.859375 -2.609375q-0.359375 -0.8125 -1.453125 -2.703125l1.171875 0q1.6875 2.265625 2.515625 4.546875q0.6875 1.984375 0.6875 4.125q0 2.453125 -0.9375 4.734375q-0.9375 2.28125 -2.265625 3.984375zm18.819626 -11.703125l-8.765625 0l0 -1.515625l8.765625 0l0 1.515625zm0 4.03125l-8.765625 0l0 -1.53125l8.765625 0l0 1.53125z" fill-rule="nonzero"/><path fill="#000000" fill-opacity="0.0" d="m65.92126 41.766403l53.6063 0" fill-rule="evenodd"/><path stroke="#f3f3f3" stroke-width="1.0" stroke-linejoin="round" stroke-linecap="butt" d="m65.92126 41.766403l53.6063 0" fill-rule="evenodd"/><path fill="#000000" fill-opacity="0.0" d="m54.719162 43.04462l74.89763 0l0 45.92126l-74.89763 0z" fill-rule="evenodd"/><path fill="#f3f3f3" d="m70.61539 73.88649q-1.359375 -1.703125 -2.296875 -4.0q-0.9375 -2.296875 -0.9375 -4.765625q0 -2.1562462 0.703125 -4.140621q0.828125 -2.3125 2.53125 -4.59375l1.171875 0q-1.09375 1.890625 -1.453125 2.703125q-0.546875 1.25 -0.875 2.625q-0.390625 1.703125 -0.390625 3.4218712q0 4.375 2.71875 8.75l-1.171875 0zm8.806427 -3.921875l-1.640625 0l0 -10.453121q-0.59375 0.5625 -1.5625 1.140625q-0.953125 0.5625 -1.71875 0.84375l0 -1.59375q1.375 -0.640625 2.40625 -1.5625q1.03125 -0.921875 1.453125 -1.78125l1.0625 0l0 13.406246zm9.199646 -4.015625l0 -1.640625l5.03125 0l0 1.640625l-5.03125 0zm12.239731 4.015625l0 -13.359371l5.046875 0q1.328125 0 2.03125 0.125q0.96875 0.171875 1.640625 0.640625q0.671875 0.453125 1.078125 1.28125q0.40625 0.828125 0.40625 1.828125q0 1.703125 -1.09375 2.890625q-1.078125 1.1718712 -3.921875 1.1718712l-3.421875 0l0 5.421875l-1.765625 0zm1.765625 -6.999996l3.453125 0q1.71875 0 2.4375 -0.640625q0.71875 -0.640625 0.71875 -1.796875q0 -0.84375 -0.421875 -1.4375q-0.421875 -0.59375 -1.125 -0.78125q-0.4375 -0.125 -1.640625 -0.125l-3.421875 0l0 4.78125zm11.552948 10.921871l-1.1875 0q2.734375 -4.375 2.734375 -8.75q0 -1.7187462 -0.390625 -3.3906212q-0.3125 -1.375 -0.875 -2.625q-0.359375 -0.828125 -1.46875 -2.734375l1.1875 0q1.703125 2.28125 2.53125 4.59375q0.6875 1.984375 0.6875 4.140621q0 2.46875 -0.9375 4.765625q-0.9375 2.296875 -2.28125 4.0z" fill-rule="nonzero"/><path fill="#000000" fill-opacity="0.0" d="m147.43307 2.67979l39.842514 0l0 37.76378l-39.842514 0z" fill-rule="evenodd"/><path fill="#f3f3f3" d="m162.57004 26.015789l0 -13.359375l5.046875 0q1.328125 0 2.03125 0.125q0.96875 0.171875 1.640625 0.640625q0.671875 0.453125 1.078125 1.28125q0.40625 0.828125 0.40625 1.828125q0 1.703125 -1.09375 2.890625q-1.078125 1.171875 -3.921875 1.171875l-3.421875 0l0 5.421875l-1.765625 0zm1.765625 -7.0l3.453125 0q1.71875 0 2.4375 -0.640625q0.71875 -0.640625 0.71875 -1.796875q0 -0.84375 -0.421875 -1.4375q-0.421875 -0.59375 -1.125 -0.78125q-0.4375 -0.125 -1.640625 -0.125l-3.421875 0l0 4.78125z" fill-rule="nonzero"/><path fill="#000000" fill-opacity="0.0" d="m118.58268 20.8084l27.496056 0l0 44.40945l-27.496056 0z" fill-rule="evenodd"/><path fill="#f3f3f3" d="m132.25455 45.572147l0 -3.671875l-3.640625 0l0 -1.515625l3.640625 0l0 -3.640625l1.546875 0l0 3.640625l3.640625 0l0 1.515625l-3.640625 0l0 3.671875l-1.546875 0z" fill-rule="nonzero"/><path fill="#000000" fill-opacity="0.0" d="m147.41733 43.0l39.842514 0l0 40.34646l-39.842514 0z" fill-rule="evenodd"/><path fill="#f3f3f3" d="m163.3851 68.128l0 -9.671875l1.46875 0l0 1.375q1.0625 -1.59375 3.078125 -1.59375q0.875 0 1.609375 0.3125q0.734375 0.3125 1.09375 0.828125q0.375 0.5 0.515625 1.203125q0.09375 0.453125 0.09375 1.59375l0 5.953125l-1.640625 0l0 -5.890625q0 -1.0 -0.203125 -1.484375q-0.1875 -0.5 -0.671875 -0.796875q-0.484375 -0.296875 -1.140625 -0.296875q-1.046875 0 -1.8125 0.671875q-0.75 0.65625 -0.75 2.515625l0 5.28125l-1.640625 0z" fill-rule="nonzero"/><path fill="#000000" fill-opacity="0.0" d="m67.67979 4.0052495l51.84252 0l0 37.76378l-51.84252 0z" fill-rule="evenodd"/><path fill="#f3f3f3" d="m95.36632 27.341248l-1.640625 0l0 -10.453125q-0.59375 0.5625 -1.5625 1.140625q-0.953125 0.5625 -1.71875 0.84375l0 -1.59375q1.375 -0.640625 2.40625 -1.5625q1.03125 -0.921875 1.453125 -1.78125l1.0625 0l0 13.40625z" fill-rule="nonzero"/><path fill="#000000" fill-opacity="0.0" d="m147.43307 41.766403l39.842514 0" fill-rule="evenodd"/><path stroke="#f3f3f3" stroke-width="1.0" stroke-linejoin="round" stroke-linecap="butt" d="m147.43307 41.766403l39.842514 0" fill-rule="evenodd"/></g></svg>