<svg version="1.1" viewBox="0.0 0.0 385.5511811023622 249.17322834645668" fill="none" stroke="none" stroke-linecap="square" stroke-miterlimit="10" xmlns:xlink="http://www.w3.org/1999/xlink" xmlns="http://www.w3.org/2000/svg"><clipPath id="p.0"><path d="m0 0l385.55118 0l0 249.17323l-385.55118 0l0 -249.17323z" clip-rule="nonzero"/></clipPath><g clip-path="url(#p.0)"><path fill="#000000" fill-opacity="0.0" d="m0 0l385.55118 0l0 249.17323l-385.55118 0z" fill-rule="evenodd"/><path fill="#434343" d="m-1.5695539 0.005249344l387.1181 0l0 249.16536l-387.1181 0z" fill-rule="evenodd"/><path fill="#fff2cc" d="m28.551182 123.59055l27.767979 -22.708664l83.30393 0l27.76799 22.708664l-27.76799 22.708656l-83.30393 0z" fill-rule="evenodd"/><path stroke="#cc0000" stroke-width="1.0" stroke-linejoin="round" stroke-linecap="butt" d="m28.551182 123.59055l27.767979 -22.708664l83.30393 0l27.76799 22.708664l-27.76799 22.708656l-83.30393 0z" fill-rule="evenodd"/><path fill="#000000" d="m80.66173 115.59367l-1.671875 -0.3125q0.28125 -1.0 0.96875 -1.46875q0.6875 -0.484375 2.03125 -0.484375q1.21875 0 1.8125 0.296875q0.609375 0.28125 0.84375 0.734375q0.25 0.4375 0.25 1.625l-0.015625 2.140625q0 0.90625 0.078125 1.34375q0.09375 0.421875 0.34375 0.921875l-1.8125 0q-0.078125 -0.1875 -0.171875 -0.546875q-0.046875 -0.15625 -0.078125 -0.203125q-0.46875 0.453125 -1.0 0.6875q-0.53125 0.21875 -1.140625 0.21875q-1.0625 0 -1.6875 -0.578125q-0.609375 -0.578125 -0.609375 -1.46875q0 -0.578125 0.28125 -1.03125q0.28125 -0.46875 0.78125 -0.703125q0.515625 -0.25 1.46875 -0.4375q1.28125 -0.234375 1.765625 -0.453125l0 -0.171875q0 -0.53125 -0.265625 -0.75q-0.25 -0.234375 -0.96875 -0.234375q-0.484375 0 -0.765625 0.203125q-0.265625 0.1875 -0.4375 0.671875zm2.4375 1.484375q-0.34375 0.109375 -1.109375 0.28125q-0.765625 0.15625 -1.0 0.3125q-0.359375 0.25 -0.359375 0.640625q0 0.390625 0.28125 0.671875q0.296875 0.28125 0.734375 0.28125q0.5 0 0.953125 -0.328125q0.328125 -0.25 0.4375 -0.609375q0.0625 -0.234375 0.0625 -0.890625l0 -0.359375zm2.9593506 1.34375l1.828125 -0.28125q0.125 0.53125 0.484375 0.8125q0.359375 0.265625 1.0 0.265625q0.703125 0 1.0625 -0.25q0.25 -0.1875 0.25 -0.484375q0 -0.21875 -0.140625 -0.359375q-0.125 -0.125 -0.609375 -0.234375q-2.203125 -0.484375 -2.796875 -0.890625q-0.828125 -0.5625 -0.828125 -1.5625q0 -0.890625 0.703125 -1.5q0.71875 -0.609375 2.203125 -0.609375q1.421875 0 2.109375 0.46875q0.703125 0.453125 0.953125 1.359375l-1.71875 0.3125q-0.109375 -0.40625 -0.421875 -0.609375q-0.3125 -0.21875 -0.890625 -0.21875q-0.71875 0 -1.03125 0.203125q-0.203125 0.140625 -0.203125 0.359375q0 0.203125 0.1875 0.34375q0.234375 0.171875 1.6875 0.515625q1.46875 0.328125 2.0625 0.8125q0.5625 0.484375 0.5625 1.359375q0 0.953125 -0.796875 1.640625q-0.78125 0.671875 -2.34375 0.671875q-1.40625 0 -2.234375 -0.5625q-0.828125 -0.578125 -1.078125 -1.5625zm7.4124756 0l1.828125 -0.28125q0.125 0.53125 0.484375 0.8125q0.359375 0.265625 1.0 0.265625q0.703125 0 1.0625 -0.25q0.25 -0.1875 0.25 -0.484375q0 -0.21875 -0.140625 -0.359375q-0.125 -0.125 -0.609375 -0.234375q-2.203125 -0.484375 -2.796875 -0.890625q-0.828125 -0.5625 -0.828125 -1.5625q0 -0.890625 0.703125 -1.5q0.71875 -0.609375 2.203125 -0.609375q1.421875 0 2.109375 0.46875q0.703125 0.453125 0.953125 1.359375l-1.71875 0.3125q-0.109375 -0.40625 -0.421875 -0.609375q-0.3125 -0.21875 -0.890625 -0.21875q-0.71875 0 -1.03125 0.203125q-0.203125 0.140625 -0.203125 0.359375q0 0.203125 0.1875 0.34375q0.234375 0.171875 1.6875 0.515625q1.46875 0.328125 2.0625 0.8125q0.5625 0.484375 0.5625 1.359375q0 0.953125 -0.796875 1.640625q-0.78125 0.671875 -2.34375 0.671875q-1.40625 0 -2.234375 -0.5625q-0.828125 -0.578125 -1.078125 -1.5625zm12.053101 -0.234375l1.828125 0.3125q-0.34375 1.0 -1.109375 1.53125q-0.765625 0.515625 -1.890625 0.515625q-1.8125 0 -2.671875 -1.171875q-0.6875 -0.953125 -0.6875 -2.390625q0 -1.71875 0.890625 -2.6875q0.90625 -0.96875 2.28125 -0.96875q1.546875 0 2.4375 1.015625q0.890625 1.015625 0.84375 3.125l-4.578125 0q0.015625 0.8125 0.4375 1.265625q0.421875 0.453125 1.0625 0.453125q0.421875 0 0.71875 -0.234375q0.296875 -0.234375 0.4375 -0.765625zm0.109375 -1.84375q-0.015625 -0.796875 -0.40625 -1.203125q-0.390625 -0.421875 -0.953125 -0.421875q-0.59375 0 -0.984375 0.4375q-0.390625 0.4375 -0.390625 1.1875l2.734375 0zm5.0531006 4.046875l-1.828125 0l0 -6.90625l1.703125 0l0 0.984375q0.4375 -0.703125 0.78125 -0.921875q0.34375 -0.21875 0.796875 -0.21875q0.625 0 1.203125 0.34375l-0.5625 1.59375q-0.46875 -0.296875 -0.859375 -0.296875q-0.390625 0 -0.65625 0.21875q-0.265625 0.203125 -0.421875 0.765625q-0.15625 0.546875 -0.15625 2.296875l0 2.140625zm6.608658 -6.90625l0 1.453125l-1.25 0l0 2.78125q0 0.84375 0.03125 0.984375q0.046875 0.140625 0.171875 0.234375q0.125 0.09375 0.3125 0.09375q0.25 0 0.734375 -0.171875l0.15625 1.421875q-0.640625 0.265625 -1.453125 0.265625q-0.484375 0 -0.890625 -0.15625q-0.390625 -0.171875 -0.578125 -0.4375q-0.1875 -0.265625 -0.265625 -0.71875q-0.046875 -0.3125 -0.046875 -1.28125l0 -3.015625l-0.84375 0l0 -1.453125l0.84375 0l0 -1.375l1.828125 -1.078125l0 2.453125l1.25 0z" fill-rule="nonzero"/><path fill="#000000" d="m74.9737 131.51555l-1.796875 0.328125q-0.09375 -0.53125 -0.421875 -0.796875q-0.328125 -0.28125 -0.828125 -0.28125q-0.6875 0 -1.09375 0.46875q-0.40625 0.46875 -0.40625 1.578125q0 1.234375 0.40625 1.75q0.421875 0.5 1.109375 0.5q0.53125 0 0.859375 -0.296875q0.328125 -0.296875 0.46875 -1.03125l1.796875 0.3125q-0.28125 1.234375 -1.078125 1.875q-0.796875 0.625 -2.125 0.625q-1.515625 0 -2.421875 -0.953125q-0.90625 -0.953125 -0.90625 -2.65625q0 -1.703125 0.90625 -2.65625q0.90625 -0.953125 2.453125 -0.953125q1.265625 0 2.0 0.546875q0.75 0.53125 1.078125 1.640625zm0.9593506 1.328125q0 -0.921875 0.453125 -1.765625q0.453125 -0.859375 1.265625 -1.296875q0.828125 -0.453125 1.84375 -0.453125q1.5625 0 2.5625 1.015625q1.015625 1.015625 1.015625 2.578125q0 1.5625 -1.015625 2.59375q-1.015625 1.03125 -2.546875 1.03125q-0.953125 0 -1.8125 -0.421875q-0.859375 -0.4375 -1.3125 -1.265625q-0.453125 -0.828125 -0.453125 -2.015625zm1.875 0.09375q0 1.03125 0.484375 1.578125q0.5 0.546875 1.203125 0.546875q0.71875 0 1.203125 -0.546875q0.484375 -0.546875 0.484375 -1.59375q0 -1.015625 -0.484375 -1.5625q-0.484375 -0.546875 -1.203125 -0.546875q-0.703125 0 -1.203125 0.546875q-0.484375 0.546875 -0.484375 1.578125zm12.985107 3.453125l-1.828125 0l0 -3.53125q0 -1.109375 -0.125 -1.4375q-0.109375 -0.328125 -0.375 -0.515625q-0.265625 -0.1875 -0.640625 -0.1875q-0.46875 0 -0.859375 0.265625q-0.375 0.265625 -0.515625 0.703125q-0.140625 0.421875 -0.140625 1.578125l0 3.125l-1.828125 0l0 -6.90625l1.703125 0l0 1.015625q0.90625 -1.171875 2.28125 -1.171875q0.609375 0 1.109375 0.21875q0.5 0.21875 0.75 0.5625q0.265625 0.328125 0.359375 0.765625q0.109375 0.421875 0.109375 1.21875l0 4.296875zm8.188232 0l-1.703125 0l0 -1.015625q-0.421875 0.59375 -1.0 0.890625q-0.578125 0.28125 -1.15625 0.28125q-1.1875 0 -2.046875 -0.953125q-0.84375 -0.96875 -0.84375 -2.6875q0 -1.75 0.828125 -2.65625q0.828125 -0.921875 2.09375 -0.921875q1.15625 0 2.0 0.953125l0 -3.4375l1.828125 0l0 9.546875zm-4.875 -3.609375q0 1.109375 0.296875 1.609375q0.4375 0.71875 1.234375 0.71875q0.640625 0 1.078125 -0.53125q0.4375 -0.546875 0.4375 -1.609375q0 -1.203125 -0.4375 -1.71875q-0.421875 -0.53125 -1.09375 -0.53125q-0.640625 0 -1.078125 0.515625q-0.4375 0.515625 -0.4375 1.546875zm6.6726074 -4.234375l0 -1.703125l1.828125 0l0 1.703125l-1.828125 0zm0 7.84375l0 -6.90625l1.828125 0l0 6.90625l-1.828125 0zm6.8748627 -6.90625l0 1.453125l-1.25 0l0 2.78125q0 0.84375 0.03125 0.984375q0.046875 0.140625 0.171875 0.234375q0.125 0.09375 0.3125 0.09375q0.25 0 0.734375 -0.171875l0.15625 1.421875q-0.640625 0.265625 -1.453125 0.265625q-0.484375 0 -0.890625 -0.15625q-0.390625 -0.171875 -0.578125 -0.4375q-0.1875 -0.265625 -0.265625 -0.71875q-0.046875 -0.3125 -0.046875 -1.28125l0 -3.015625l-0.84375 0l0 -1.453125l0.84375 0l0 -1.375l1.828125 -1.078125l0 2.453125l1.25 0zm1.2664948 -0.9375l0 -1.703125l1.828125 0l0 1.703125l-1.828125 0zm0 7.84375l0 -6.90625l1.828125 0l0 6.90625l-1.828125 0zm3.2811127 -3.546875q0 -0.921875 0.453125 -1.765625q0.453125 -0.859375 1.265625 -1.296875q0.828125 -0.453125 1.84375 -0.453125q1.5625 0 2.5625 1.015625q1.015625 1.015625 1.015625 2.578125q0 1.5625 -1.015625 2.59375q-1.015625 1.03125 -2.546875 1.03125q-0.953125 0 -1.8125 -0.421875q-0.859375 -0.4375 -1.3125 -1.265625q-0.453125 -0.828125 -0.453125 -2.015625zm1.875 0.09375q0 1.03125 0.484375 1.578125q0.5 0.546875 1.203125 0.546875q0.71875 0 1.203125 -0.546875q0.484375 -0.546875 0.484375 -1.59375q0 -1.015625 -0.484375 -1.5625q-0.484375 -0.546875 -1.203125 -0.546875q-0.703125 0 -1.203125 0.546875q-0.484375 0.546875 -0.484375 1.578125zm12.985107 3.453125l-1.828125 0l0 -3.53125q0 -1.109375 -0.125 -1.4375q-0.109375 -0.328125 -0.375 -0.515625q-0.265625 -0.1875 -0.640625 -0.1875q-0.46875 0 -0.859375 0.265625q-0.375 0.265625 -0.515625 0.703125q-0.140625 0.421875 -0.140625 1.578125l0 3.125l-1.828125 0l0 -6.90625l1.703125 0l0 1.015625q0.90625 -1.171875 2.28125 -1.171875q0.609375 0 1.109375 0.21875q0.5 0.21875 0.75 0.5625q0.265625 0.328125 0.359375 0.765625q0.109375 0.421875 0.109375 1.21875l0 4.296875z" fill-rule="nonzero"/><path fill="#cfe2f3" d="m67.87134 26.328083l60.199585 0l0 0c7.886307 0 14.279419 5.770664 14.279419 12.889133c0 7.118473 -6.393112 12.889133 -14.279419 12.889133l-60.199585 0l0 0c-7.886307 0 -14.279423 -5.7706604 -14.279423 -12.889133c0 -7.118469 6.393116 -12.889133 14.279423 -12.889133z" fill-rule="evenodd"/><path stroke="#999999" stroke-width="1.0" stroke-linejoin="round" stroke-linecap="butt" d="m67.87134 26.328083l60.199585 0l0 0c7.886307 0 14.279419 5.770664 14.279419 12.889133c0 7.118473 -6.393112 12.889133 -14.279419 12.889133l-60.199585 0l0 0c-7.886307 0 -14.279423 -5.7706604 -14.279423 -12.889133c0 -7.118469 6.393116 -12.889133 14.279423 -12.889133z" fill-rule="evenodd"/><path fill="#000000" d="m83.27263 40.90784l1.875 -0.171875q0.171875 0.9375 0.6875 1.390625q0.515625 0.4375 1.390625 0.4375q0.9375 0 1.40625 -0.390625q0.46875 -0.40625 0.46875 -0.921875q0 -0.34375 -0.203125 -0.578125q-0.1875 -0.234375 -0.6875 -0.421875q-0.34375 -0.109375 -1.546875 -0.40625q-1.546875 -0.390625 -2.171875 -0.953125q-0.875 -0.78125 -0.875 -1.921875q0 -0.71875 0.40625 -1.359375q0.421875 -0.640625 1.1875 -0.96875q0.78125 -0.328125 1.890625 -0.328125q1.796875 0 2.703125 0.796875q0.90625 0.78125 0.953125 2.09375l-1.921875 0.078125q-0.125 -0.734375 -0.53125 -1.046875q-0.40625 -0.328125 -1.234375 -0.328125q-0.828125 0 -1.3125 0.34375q-0.296875 0.21875 -0.296875 0.59375q0 0.34375 0.28125 0.578125q0.359375 0.3125 1.765625 0.640625q1.40625 0.328125 2.078125 0.6875q0.6875 0.359375 1.0625 0.96875q0.375 0.609375 0.375 1.515625q0 0.828125 -0.453125 1.546875q-0.453125 0.703125 -1.296875 1.0625q-0.828125 0.34375 -2.0625 0.34375q-1.8125 0 -2.78125 -0.828125q-0.96875 -0.84375 -1.15625 -2.453125zm12.53038 -3.796875l0 1.453125l-1.25 0l0 2.78125q0 0.84375 0.03125 0.984375q0.046875 0.140625 0.171875 0.234375q0.125 0.09375 0.3125 0.09375q0.25 0 0.734375 -0.171875l0.15625 1.421875q-0.640625 0.265625 -1.453125 0.265625q-0.484375 0 -0.890625 -0.15625q-0.390625 -0.171875 -0.578125 -0.4375q-0.1875 -0.265625 -0.265625 -0.71875q-0.046875 -0.3125 -0.046875 -1.28125l0 -3.015625l-0.84375 0l0 -1.453125l0.84375 0l0 -1.375l1.828125 -1.078125l0 2.453125l1.25 0zm2.6414948 2.109375l-1.671875 -0.3125q0.28125 -1.0 0.96875 -1.46875q0.6875 -0.484375 2.03125 -0.484375q1.21875 0 1.8125 0.296875q0.609375 0.28125 0.84375 0.734375q0.25 0.4375 0.25 1.625l-0.015625 2.140625q0 0.90625 0.078125 1.34375q0.09375 0.421875 0.34375 0.921875l-1.8125 0q-0.078125 -0.1875 -0.171875 -0.546875q-0.046875 -0.15625 -0.078125 -0.203125q-0.46875 0.453125 -1.0 0.6875q-0.53125 0.21875 -1.140625 0.21875q-1.0625 0 -1.6875 -0.578125q-0.609375 -0.578125 -0.609375 -1.46875q0 -0.578125 0.28125 -1.03125q0.28125 -0.46875 0.78125 -0.703125q0.515625 -0.25 1.46875 -0.4375q1.28125 -0.234375 1.765625 -0.453125l0 -0.171875q0 -0.53125 -0.265625 -0.75q-0.25 -0.234375 -0.96875 -0.234375q-0.484375 0 -0.765625 0.203125q-0.265625 0.1875 -0.4375 0.671875zm2.4375 1.484375q-0.34375 0.109375 -1.109375 0.28125q-0.765625 0.15625 -1.0 0.3125q-0.359375 0.25 -0.359375 0.640625q0 0.390625 0.28125 0.671875q0.296875 0.28125 0.734375 0.28125q0.5 0 0.953125 -0.328125q0.328125 -0.25 0.4375 -0.609375q0.0625 -0.234375 0.0625 -0.890625l0 -0.359375zm5.3499756 3.3125l-1.828125 0l0 -6.90625l1.703125 0l0 0.984375q0.4375 -0.703125 0.78125 -0.921875q0.34375 -0.21875 0.796875 -0.21875q0.625 0 1.203125 0.34375l-0.5625 1.59375q-0.46875 -0.296875 -0.859375 -0.296875q-0.390625 0 -0.65625 0.21875q-0.265625 0.203125 -0.421875 0.765625q-0.15625 0.546875 -0.15625 2.296875l0 2.140625zm6.608658 -6.90625l0 1.453125l-1.25 0l0 2.78125q0 0.84375 0.03125 0.984375q0.046875 0.140625 0.171875 0.234375q0.125 0.09375 0.3125 0.09375q0.25 0 0.734375 -0.171875l0.15625 1.421875q-0.640625 0.265625 -1.453125 0.265625q-0.484375 0 -0.890625 -0.15625q-0.390625 -0.171875 -0.578125 -0.4375q-0.1875 -0.265625 -0.265625 -0.71875q-0.046875 -0.3125 -0.046875 -1.28125l0 -3.015625l-0.84375 0l0 -1.453125l0.84375 0l0 -1.375l1.828125 -1.078125l0 2.453125l1.25 0z" fill-rule="nonzero"/><path fill="#000000" d="m224.67047 123.5914l21.530197 -24.296227l86.120834 0c11.890808 0 21.530212 10.877792 21.530212 24.296227c0 13.418442 -9.639404 24.296234 -21.530212 24.296234l-86.120834 0z" fill-rule="evenodd"/><path stroke="#000000" stroke-width="1.0" stroke-linejoin="round" stroke-linecap="butt" d="m224.67047 123.5914l21.530197 -24.296227l86.120834 0c11.890808 0 21.530212 10.877792 21.530212 24.296227c0 13.418442 -9.639404 24.296234 -21.530212 24.296234l-86.120834 0z" fill-rule="evenodd"/><path fill="#00ff00" d="m256.16943 120.3914l0 -9.546875l7.078125 0l0 1.625l-5.15625 0l0 2.109375l4.796875 0l0 1.609375l-4.796875 0l0 2.59375l5.328125 0l0 1.609375l-7.25 0zm10.624115 0l-1.828125 0l0 -6.90625l1.703125 0l0 0.984375q0.4375 -0.703125 0.78125 -0.921875q0.34375 -0.21875 0.796875 -0.21875q0.625 0 1.203125 0.34375l-0.5625 1.59375q-0.46875 -0.296875 -0.859375 -0.296875q-0.390625 0 -0.65625 0.21875q-0.265625 0.203125 -0.421875 0.765625q-0.15625 0.546875 -0.15625 2.296875l0 2.140625zm5.186798 0l-1.828125 0l0 -6.90625l1.703125 0l0 0.984375q0.4375 -0.703125 0.78125 -0.921875q0.34375 -0.21875 0.796875 -0.21875q0.625 0 1.203125 0.34375l-0.5625 1.59375q-0.46875 -0.296875 -0.859375 -0.296875q-0.390625 0 -0.65625 0.21875q-0.265625 0.203125 -0.421875 0.765625q-0.15625 0.546875 -0.15625 2.296875l0 2.140625zm3.0148926 -3.546875q0 -0.921875 0.453125 -1.765625q0.453125 -0.859375 1.265625 -1.296875q0.828125 -0.453125 1.84375 -0.453125q1.5625 0 2.5625 1.015625q1.015625 1.015625 1.015625 2.578125q0 1.5625 -1.015625 2.59375q-1.015625 1.03125 -2.546875 1.03125q-0.953125 0 -1.8125 -0.421875q-0.859375 -0.4375 -1.3125 -1.265625q-0.453125 -0.828125 -0.453125 -2.015625zm1.875 0.09375q0 1.03125 0.484375 1.578125q0.5 0.546875 1.203125 0.546875q0.71875 0 1.203125 -0.546875q0.484375 -0.546875 0.484375 -1.59375q0 -1.015625 -0.484375 -1.5625q-0.484375 -0.546875 -1.203125 -0.546875q-0.703125 0 -1.203125 0.546875q-0.484375 0.546875 -0.484375 1.578125zm8.438232 3.453125l-1.828125 0l0 -6.90625l1.703125 0l0 0.984375q0.4375 -0.703125 0.78125 -0.921875q0.34375 -0.21875 0.796875 -0.21875q0.625 0 1.203125 0.34375l-0.5625 1.59375q-0.46875 -0.296875 -0.859375 -0.296875q-0.390625 0 -0.65625 0.21875q-0.265625 0.203125 -0.421875 0.765625q-0.15625 0.546875 -0.15625 2.296875l0 2.140625z" fill-rule="nonzero"/><path fill="#00ff00" d="m256.13818 136.3914l0 -9.546875l2.890625 0l1.734375 6.515625l1.703125 -6.515625l2.890625 0l0 9.546875l-1.78125 0l0 -7.515625l-1.90625 7.515625l-1.84375 0l-1.890625 -7.515625l0 7.515625l-1.796875 0zm15.118042 -2.203125l1.828125 0.3125q-0.34375 1.0 -1.109375 1.53125q-0.765625 0.515625 -1.890625 0.515625q-1.8125 0 -2.671875 -1.171875q-0.6875 -0.953125 -0.6875 -2.390625q0 -1.71875 0.890625 -2.6875q0.90625 -0.96875 2.28125 -0.96875q1.546875 0 2.4375 1.015625q0.890625 1.015625 0.84375 3.125l-4.578125 0q0.015625 0.8125 0.4375 1.265625q0.421875 0.453125 1.0625 0.453125q0.421875 0 0.71875 -0.234375q0.296875 -0.234375 0.4375 -0.765625zm0.109375 -1.84375q-0.015625 -0.796875 -0.40625 -1.203125q-0.390625 -0.421875 -0.953125 -0.421875q-0.59375 0 -0.984375 0.4375q-0.390625 0.4375 -0.390625 1.1875l2.734375 0zm2.6624756 2.078125l1.828125 -0.28125q0.125 0.53125 0.484375 0.8125q0.359375 0.265625 1.0 0.265625q0.703125 0 1.0625 -0.25q0.25 -0.1875 0.25 -0.484375q0 -0.21875 -0.140625 -0.359375q-0.125 -0.125 -0.609375 -0.234375q-2.203125 -0.484375 -2.796875 -0.890625q-0.828125 -0.5625 -0.828125 -1.5625q0 -0.890625 0.703125 -1.5q0.71875 -0.609375 2.203125 -0.609375q1.421875 0 2.109375 0.46875q0.703125 0.453125 0.953125 1.359375l-1.71875 0.3125q-0.109375 -0.40625 -0.421875 -0.609375q-0.3125 -0.21875 -0.890625 -0.21875q-0.71875 0 -1.03125 0.203125q-0.203125 0.140625 -0.203125 0.359375q0 0.203125 0.1875 0.34375q0.234375 0.171875 1.6875 0.515625q1.46875 0.328125 2.0625 0.8125q0.5625 0.484375 0.5625 1.359375q0 0.953125 -0.796875 1.640625q-0.78125 0.671875 -2.34375 0.671875q-1.40625 0 -2.234375 -0.5625q-0.828125 -0.578125 -1.078125 -1.5625zm7.4124756 0l1.828125 -0.28125q0.125 0.53125 0.484375 0.8125q0.359375 0.265625 1.0 0.265625q0.703125 0 1.0625 -0.25q0.25 -0.1875 0.25 -0.484375q0 -0.21875 -0.140625 -0.359375q-0.125 -0.125 -0.609375 -0.234375q-2.203125 -0.484375 -2.796875 -0.890625q-0.828125 -0.5625 -0.828125 -1.5625q0 -0.890625 0.703125 -1.5q0.71875 -0.609375 2.203125 -0.609375q1.421875 0 2.109375 0.46875q0.703125 0.453125 0.953125 1.359375l-1.71875 0.3125q-0.109375 -0.40625 -0.421875 -0.609375q-0.3125 -0.21875 -0.890625 -0.21875q-0.71875 0 -1.03125 0.203125q-0.203125 0.140625 -0.203125 0.359375q0 0.203125 0.1875 0.34375q0.234375 0.171875 1.6875 0.515625q1.46875 0.328125 2.0625 0.8125q0.5625 0.484375 0.5625 1.359375q0 0.953125 -0.796875 1.640625q-0.78125 0.671875 -2.34375 0.671875q-1.40625 0 -2.234375 -0.5625q-0.828125 -0.578125 -1.078125 -1.5625zm9.428101 -2.828125l-1.671875 -0.3125q0.28125 -1.0 0.96875 -1.46875q0.6875 -0.484375 2.03125 -0.484375q1.21875 0 1.8125 0.296875q0.609375 0.28125 0.84375 0.734375q0.25 0.4375 0.25 1.625l-0.015625 2.140625q0 0.90625 0.078125 1.34375q0.09375 0.421875 0.34375 0.921875l-1.8125 0q-0.078125 -0.1875 -0.171875 -0.546875q-0.046875 -0.15625 -0.078125 -0.203125q-0.46875 0.453125 -1.0 0.6875q-0.53125 0.21875 -1.140625 0.21875q-1.0625 0 -1.6875 -0.578125q-0.609375 -0.578125 -0.609375 -1.46875q0 -0.578125 0.28125 -1.03125q0.28125 -0.46875 0.78125 -0.703125q0.515625 -0.25 1.46875 -0.4375q1.28125 -0.234375 1.765625 -0.453125l0 -0.171875q0 -0.53125 -0.265625 -0.75q-0.25 -0.234375 -0.96875 -0.234375q-0.484375 0 -0.765625 0.203125q-0.265625 0.1875 -0.4375 0.671875zm2.4375 1.484375q-0.34375 0.109375 -1.109375 0.28125q-0.765625 0.15625 -1.0 0.3125q-0.359375 0.25 -0.359375 0.640625q0 0.390625 0.28125 0.671875q0.296875 0.28125 0.734375 0.28125q0.5 0 0.953125 -0.328125q0.328125 -0.25 0.4375 -0.609375q0.0625 -0.234375 0.0625 -0.890625l0 -0.359375zm3.4281006 3.765625l2.09375 0.25q0.046875 0.375 0.25 0.5q0.25 0.203125 0.8125 0.203125q0.71875 0 1.078125 -0.21875q0.234375 -0.140625 0.359375 -0.453125q0.078125 -0.234375 0.078125 -0.84375l0 -1.015625q-0.8125 1.125 -2.0625 1.125q-1.390625 0 -2.203125 -1.171875q-0.640625 -0.9375 -0.640625 -2.328125q0 -1.734375 0.828125 -2.640625q0.84375 -0.921875 2.09375 -0.921875q1.28125 0 2.109375 1.125l0 -0.96875l1.703125 0l0 6.203125q0 1.21875 -0.203125 1.8125q-0.1875 0.609375 -0.5625 0.953125q-0.359375 0.359375 -0.96875 0.546875q-0.609375 0.203125 -1.53125 0.203125q-1.765625 0 -2.5 -0.609375q-0.734375 -0.609375 -0.734375 -1.53125q0 -0.09375 0 -0.21875zm1.640625 -4.046875q0 1.09375 0.421875 1.609375q0.4375 0.5 1.046875 0.5q0.671875 0 1.140625 -0.515625q0.46875 -0.53125 0.46875 -1.546875q0 -1.078125 -0.453125 -1.59375q-0.4375 -0.53125 -1.109375 -0.53125q-0.65625 0 -1.09375 0.515625q-0.421875 0.515625 -0.421875 1.5625zm10.672607 1.390625l1.828125 0.3125q-0.34375 1.0 -1.109375 1.53125q-0.765625 0.515625 -1.890625 0.515625q-1.8125 0 -2.671875 -1.171875q-0.6875 -0.953125 -0.6875 -2.390625q0 -1.71875 0.890625 -2.6875q0.90625 -0.96875 2.28125 -0.96875q1.546875 0 2.4375 1.015625q0.890625 1.015625 0.84375 3.125l-4.578125 0q0.015625 0.8125 0.4375 1.265625q0.421875 0.453125 1.0625 0.453125q0.421875 0 0.71875 -0.234375q0.296875 -0.234375 0.4375 -0.765625zm0.109375 -1.84375q-0.015625 -0.796875 -0.40625 -1.203125q-0.390625 -0.421875 -0.953125 -0.421875q-0.59375 0 -0.984375 0.4375q-0.390625 0.4375 -0.390625 1.1875l2.734375 0z" fill-rule="nonzero"/><path fill="#000000" fill-opacity="0.0" d="m97.97113 52.10635l0 48.787403" fill-rule="evenodd"/><path stroke="#9900ff" stroke-width="2.0" stroke-linejoin="round" stroke-linecap="butt" d="m97.97113 52.10635l0 36.787403" fill-rule="evenodd"/><path fill="#9900ff" stroke="#9900ff" stroke-width="2.0" stroke-linecap="butt" d="m94.66766 88.89375l3.3034668 9.076195l3.3034668 -9.076195z" fill-rule="evenodd"/><path fill="#000000" fill-opacity="0.0" d="m167.39108 123.59055l57.291336 0" fill-rule="evenodd"/><path stroke="#9900ff" stroke-width="2.0" stroke-linejoin="round" stroke-linecap="butt" d="m167.39108 123.59055l45.291336 0" fill-rule="evenodd"/><path fill="#9900ff" stroke="#9900ff" stroke-width="2.0" stroke-linecap="butt" d="m212.68242 126.89401l9.076187 -3.3034592l-9.076187 -3.3034668z" fill-rule="evenodd"/><path fill="#cfe2f3" d="m67.87134 181.9703l60.199585 0l0 0c7.886307 0 14.279419 5.7706604 14.279419 12.88913c0 7.118469 -6.393112 12.88913 -14.279419 12.88913l-60.199585 0l0 0c-7.886307 0 -14.279423 -5.7706604 -14.279423 -12.88913c0 -7.118469 6.393116 -12.88913 14.279423 -12.88913z" fill-rule="evenodd"/><path stroke="#999999" stroke-width="1.0" stroke-linejoin="round" stroke-linecap="butt" d="m67.87134 181.9703l60.199585 0l0 0c7.886307 0 14.279419 5.7706604 14.279419 12.88913c0 7.118469 -6.393112 12.88913 -14.279419 12.88913l-60.199585 0l0 0c-7.886307 0 -14.279423 -5.7706604 -14.279423 -12.88913c0 -7.118469 6.393116 -12.88913 14.279423 -12.88913z" fill-rule="evenodd"/><path fill="#000000" d="m76.17705 196.15944l1.859375 0.578125q-0.421875 1.5625 -1.421875 2.328125q-1.0 0.75 -2.53125 0.75q-1.90625 0 -3.140625 -1.296875q-1.21875 -1.296875 -1.21875 -3.546875q0 -2.375 1.234375 -3.6875q1.234375 -1.328125 3.234375 -1.328125q1.75 0 2.84375 1.03125q0.65625 0.609375 0.984375 1.765625l-1.90625 0.453125q-0.171875 -0.75 -0.71875 -1.171875q-0.53125 -0.4375 -1.296875 -0.4375q-1.0625 0 -1.734375 0.765625q-0.65625 0.765625 -0.65625 2.46875q0 1.8125 0.65625 2.578125q0.65625 0.765625 1.6875 0.765625q0.78125 0 1.328125 -0.484375q0.546875 -0.484375 0.796875 -1.53125zm3.0782776 -0.046875q0 -0.921875 0.453125 -1.765625q0.453125 -0.859375 1.265625 -1.296875q0.828125 -0.453125 1.84375 -0.453125q1.5625 0 2.5625 1.015625q1.015625 1.015625 1.015625 2.578125q0 1.5625 -1.015625 2.59375q-1.015625 1.03125 -2.546875 1.03125q-0.953125 0 -1.8125 -0.421875q-0.859375 -0.4375 -1.3125 -1.265625q-0.453125 -0.828125 -0.453125 -2.015625zm1.875 0.09375q0 1.03125 0.484375 1.578125q0.5 0.546875 1.203125 0.546875q0.71875 0 1.203125 -0.546875q0.484375 -0.546875 0.484375 -1.59375q0 -1.015625 -0.484375 -1.5625q-0.484375 -0.546875 -1.203125 -0.546875q-0.703125 0 -1.203125 0.546875q-0.484375 0.546875 -0.484375 1.578125zm12.985107 3.453125l-1.828125 0l0 -3.53125q0 -1.109375 -0.125 -1.4375q-0.109375 -0.328125 -0.375 -0.515625q-0.265625 -0.1875 -0.640625 -0.1875q-0.46875 0 -0.859375 0.265625q-0.375 0.265625 -0.515625 0.703125q-0.140625 0.421875 -0.140625 1.578125l0 3.125l-1.828125 0l0 -6.90625l1.703125 0l0 1.015625q0.90625 -1.171875 2.28125 -1.171875q0.609375 0 1.109375 0.21875q0.5 0.21875 0.75 0.5625q0.265625 0.328125 0.359375 0.765625q0.109375 0.421875 0.109375 1.21875l0 4.296875zm5.0163574 -6.90625l0 1.453125l-1.25 0l0 2.78125q0 0.84375 0.03125 0.984375q0.046875 0.140625 0.171875 0.234375q0.125 0.09375 0.3125 0.09375q0.25 0 0.734375 -0.171875l0.15625 1.421875q-0.640625 0.265625 -1.453125 0.265625q-0.484375 0 -0.890625 -0.15625q-0.390625 -0.171875 -0.578125 -0.4375q-0.1875 -0.265625 -0.265625 -0.71875q-0.046875 -0.3125 -0.046875 -1.28125l0 -3.015625l-0.84375 0l0 -1.453125l0.84375 0l0 -1.375l1.828125 -1.078125l0 2.453125l1.25 0zm1.2664948 -0.9375l0 -1.703125l1.828125 0l0 1.703125l-1.828125 0zm0 7.84375l0 -6.90625l1.828125 0l0 6.90625l-1.828125 0zm9.999863 0l-1.828125 0l0 -3.53125q0 -1.109375 -0.125 -1.4375q-0.109375 -0.328125 -0.375 -0.515625q-0.265625 -0.1875 -0.640625 -0.1875q-0.46875 0 -0.859375 0.265625q-0.375 0.265625 -0.515625 0.703125q-0.140625 0.421875 -0.140625 1.578125l0 3.125l-1.828125 0l0 -6.90625l1.703125 0l0 1.015625q0.90625 -1.171875 2.28125 -1.171875q0.609375 0 1.109375 0.21875q0.5 0.21875 0.75 0.5625q0.265625 0.328125 0.359375 0.765625q0.109375 0.421875 0.109375 1.21875l0 4.296875zm6.3913574 0l0 -1.03125q-0.375 0.546875 -1.0 0.875q-0.609375 0.3125 -1.28125 0.3125q-0.703125 0 -1.265625 -0.296875q-0.546875 -0.3125 -0.796875 -0.859375q-0.234375 -0.5625 -0.234375 -1.53125l0 -4.375l1.828125 0l0 3.171875q0 1.453125 0.09375 1.78125q0.109375 0.328125 0.375 0.53125q0.265625 0.1875 0.671875 0.1875q0.46875 0 0.84375 -0.25q0.375 -0.265625 0.5 -0.640625q0.140625 -0.390625 0.140625 -1.875l0 -2.90625l1.828125 0l0 6.90625l-1.703125 0zm7.5944824 -2.203125l1.828125 0.3125q-0.34375 1.0 -1.109375 1.53125q-0.765625 0.515625 -1.890625 0.515625q-1.8125 0 -2.671875 -1.171875q-0.6875 -0.953125 -0.6875 -2.390625q0 -1.71875 0.890625 -2.6875q0.90625 -0.96875 2.28125 -0.96875q1.546875 0 2.4375 1.015625q0.890625 1.015625 0.84375 3.125l-4.578125 0q0.015625 0.8125 0.4375 1.265625q0.421875 0.453125 1.0625 0.453125q0.421875 0 0.71875 -0.234375q0.296875 -0.234375 0.4375 -0.765625zm0.109375 -1.84375q-0.015625 -0.796875 -0.40625 -1.203125q-0.390625 -0.421875 -0.953125 -0.421875q-0.59375 0 -0.984375 0.4375q-0.390625 0.4375 -0.390625 1.1875l2.734375 0z" fill-rule="nonzero"/><path fill="#cfe2f3" d="m259.1578 179.79128l60.199585 0l0 0c7.8862915 0 14.279419 5.7706604 14.279419 12.88913c0 7.118469 -6.3931274 12.88913 -14.279419 12.88913l-60.199585 0l0 0c-7.886307 0 -14.279419 -5.7706604 -14.279419 -12.88913c0 -7.118469 6.393112 -12.88913 14.279419 -12.88913z" fill-rule="evenodd"/><path stroke="#999999" stroke-width="1.0" stroke-linejoin="round" stroke-linecap="butt" d="m259.1578 179.79128l60.199585 0l0 0c7.8862915 0 14.279419 5.7706604 14.279419 12.88913c0 7.118469 -6.3931274 12.88913 -14.279419 12.88913l-60.199585 0l0 0c-7.886307 0 -14.279419 -5.7706604 -14.279419 -12.88913c0 -7.118469 6.393112 -12.88913 14.279419 -12.88913z" fill-rule="evenodd"/><path fill="#000000" d="m272.4468 197.48041l0 -9.546875l3.09375 0q1.75 0 2.296875 0.15625q0.8125 0.203125 1.359375 0.921875q0.5625 0.71875 0.5625 1.859375q0 0.875 -0.328125 1.484375q-0.3125 0.59375 -0.8125 0.9375q-0.484375 0.34375 -0.984375 0.453125q-0.703125 0.140625 -2.0 0.140625l-1.265625 0l0 3.59375l-1.921875 0zm1.921875 -7.921875l0 2.703125l1.0625 0q1.140625 0 1.515625 -0.140625q0.390625 -0.15625 0.609375 -0.46875q0.21875 -0.328125 0.21875 -0.75q0 -0.515625 -0.3125 -0.859375q-0.296875 -0.34375 -0.765625 -0.421875q-0.34375 -0.0625 -1.390625 -0.0625l-0.9375 0zm8.3272705 3.125l-1.671875 -0.3125q0.28125 -1.0 0.96875 -1.46875q0.6875 -0.484375 2.03125 -0.484375q1.21875 0 1.8125 0.296875q0.609375 0.28125 0.84375 0.734375q0.25 0.4375 0.25 1.625l-0.015625 2.140625q0 0.90625 0.078125 1.34375q0.09375 0.421875 0.34375 0.921875l-1.8125 0q-0.078125 -0.1875 -0.171875 -0.546875q-0.046875 -0.15625 -0.078125 -0.203125q-0.46875 0.453125 -1.0 0.6875q-0.53125 0.21875 -1.140625 0.21875q-1.0625 0 -1.6875 -0.578125q-0.609375 -0.578125 -0.609375 -1.46875q0 -0.578125 0.28125 -1.03125q0.28125 -0.46875 0.78125 -0.703125q0.515625 -0.25 1.46875 -0.4375q1.28125 -0.234375 1.765625 -0.453125l0 -0.171875q0 -0.53125 -0.265625 -0.75q-0.25 -0.234375 -0.96875 -0.234375q-0.484375 0 -0.765625 0.203125q-0.265625 0.1875 -0.4375 0.671875zm2.4375 1.484375q-0.34375 0.109375 -1.109375 0.28125q-0.765625 0.15625 -1.0 0.3125q-0.359375 0.25 -0.359375 0.640625q0 0.390625 0.28125 0.671875q0.296875 0.28125 0.734375 0.28125q0.5 0 0.953125 -0.328125q0.328125 -0.25 0.4375 -0.609375q0.0625 -0.234375 0.0625 -0.890625l0 -0.359375zm9.896851 3.3125l-1.828125 0l0 -3.53125q0 -1.109375 -0.125 -1.4375q-0.109375 -0.328125 -0.375 -0.515625q-0.265625 -0.1875 -0.640625 -0.1875q-0.46875 0 -0.859375 0.265625q-0.375 0.265625 -0.515625 0.703125q-0.140625 0.421875 -0.140625 1.578125l0 3.125l-1.828125 0l0 -6.90625l1.703125 0l0 1.015625q0.90625 -1.171875 2.28125 -1.171875q0.609375 0 1.109375 0.21875q0.5 0.21875 0.75 0.5625q0.265625 0.328125 0.359375 0.765625q0.109375 0.421875 0.109375 1.21875l0 4.296875zm1.8444824 -7.84375l0 -1.703125l1.828125 0l0 1.703125l-1.828125 0zm0 7.84375l0 -6.90625l1.828125 0l0 6.90625l-1.828125 0zm9.734222 -4.875l-1.796875 0.328125q-0.09375 -0.53125 -0.421875 -0.796875q-0.328125 -0.28125 -0.828125 -0.28125q-0.6875 0 -1.09375 0.46875q-0.40625 0.46875 -0.40625 1.578125q0 1.234375 0.40625 1.75q0.421875 0.5 1.109375 0.5q0.53125 0 0.859375 -0.296875q0.328125 -0.296875 0.46875 -1.03125l1.796875 0.3125q-0.28125 1.234375 -1.078125 1.875q-0.796875 0.625 -2.125 0.625q-1.515625 0 -2.421875 -0.953125q-0.90625 -0.953125 -0.90625 -2.65625q0 -1.703125 0.90625 -2.65625q0.90625 -0.953125 2.453125 -0.953125q1.265625 0 2.0 0.546875q0.75 0.53125 1.078125 1.640625z" fill-rule="nonzero"/><path fill="#000000" fill-opacity="0.0" d="m97.97113 146.29921l0 35.685043" fill-rule="evenodd"/><path stroke="#9900ff" stroke-width="2.0" stroke-linejoin="round" stroke-linecap="butt" d="m97.97113 146.29921l0 23.685043" fill-rule="evenodd"/><path fill="#9900ff" stroke="#9900ff" stroke-width="2.0" stroke-linecap="butt" d="m94.66766 169.98425l3.3034668 9.076187l3.3034668 -9.076187z" fill-rule="evenodd"/><path fill="#000000" fill-opacity="0.0" d="m289.26108 147.88763l0 31.905502" fill-rule="evenodd"/><path stroke="#9900ff" stroke-width="2.0" stroke-linejoin="round" stroke-linecap="butt" d="m289.2611 147.88763l0 19.905502" fill-rule="evenodd"/><path fill="#9900ff" stroke="#9900ff" stroke-width="2.0" stroke-linecap="butt" d="m285.95764 167.79314l3.3034668 9.076202l3.3034363 -9.076202z" fill-rule="evenodd"/></g></svg>