<svg version="1.1" viewBox="0.0 0.0 437.09711286089237 546.8661417322835" fill="none" stroke="none" stroke-linecap="square" stroke-miterlimit="10" xmlns:xlink="http://www.w3.org/1999/xlink" xmlns="http://www.w3.org/2000/svg"><clipPath id="p.0"><path d="m0 0l437.0971 0l0 546.86615l-437.0971 0l0 -546.86615z" clip-rule="nonzero"/></clipPath><g clip-path="url(#p.0)"><path fill="#000000" fill-opacity="0.0" d="m0 0l437.0971 0l0 546.86615l-437.0971 0z" fill-rule="evenodd"/><path fill="#434343" d="m0 0l440.0 0l0 548.0315l-440.0 0z" fill-rule="evenodd"/><path fill="#f9cb9c" d="m89.3937 214.29527l256.0522 0c3.9623108 0 7.7623596 1.5740204 10.564117 4.3758087c2.8017883 2.801773 4.375824 6.6018066 4.375824 10.564133l0 74.69786l-270.99213 0z" fill-rule="evenodd"/><path stroke="#e69138" stroke-width="2.0" stroke-linejoin="round" stroke-linecap="butt" d="m89.3937 214.29527l256.0522 0c3.9623108 0 7.7623596 1.5740204 10.564117 4.3758087c2.8017883 2.801773 4.375824 6.6018066 4.375824 10.564133l0 74.69786l-270.99213 0z" fill-rule="evenodd"/><path fill="#000000" d="m151.4859 266.03418l0 -13.35939l5.6875 0q2.140625 0 3.109375 0.359375q0.96875 0.359375 1.546875 1.28125q0.578125 0.921875 0.578125 2.1093903q0 1.5 -0.890625 2.484375q-0.875 0.96875 -2.625 1.234375q0.875 0.5 1.4375 1.125q0.578125 0.609375 1.53125 2.15625l1.640625 2.609375l-3.234375 0l-1.9375 -2.90625q-1.046875 -1.5625 -1.4375 -1.96875q-0.375 -0.40625 -0.8125 -0.546875q-0.421875 -0.15625 -1.34375 -0.15625l-0.546875 0l0 5.578125l-2.703125 0zm2.703125 -7.703125l2.0 0q1.9375 0 2.421875 -0.15625q0.484375 -0.171875 0.75 -0.578125q0.28125 -0.40625 0.28125 -1.0q0 -0.67189026 -0.359375 -1.0781403q-0.359375 -0.421875 -1.015625 -0.53125q-0.328125 -0.046875 -1.96875 -0.046875l-2.109375 0l0 3.3906403zm16.347946 4.625l2.546875 0.421875q-0.484375 1.40625 -1.546875 2.140625q-1.0625 0.734375 -2.65625 0.734375q-2.515625 0 -3.734375 -1.65625q-0.953125 -1.3125 -0.953125 -3.328125q0 -2.40625 1.25 -3.765625q1.265625 -1.359375 3.1875 -1.359375q2.15625 0 3.40625 1.421875q1.25 1.421875 1.1875 4.375l-6.40625 0q0.03125 1.140625 0.609375 1.78125q0.59375 0.625 1.484375 0.625q0.59375 0 1.0 -0.328125q0.421875 -0.328125 0.625 -1.0625zm0.15625 -2.59375q-0.03125 -1.109375 -0.578125 -1.6875q-0.546875 -0.578125 -1.328125 -0.578125q-0.84375 0 -1.390625 0.609375q-0.546875 0.609375 -0.53125 1.65625l3.828125 0zm4.547592 -4.0l2.390625 0l0 1.421875q0.46875 -0.734375 1.25 -1.1875q0.796875 -0.453125 1.765625 -0.453125q1.6875 0 2.859375 1.328125q1.171875 1.3125 1.171875 3.671875q0 2.421875 -1.1875 3.765625q-1.1875 1.34375 -2.859375 1.34375q-0.8125 0 -1.46875 -0.3125q-0.640625 -0.328125 -1.359375 -1.09375l0 4.875l-2.5625 0l0 -13.359375zm2.53125 4.671875q0 1.625 0.640625 2.40625q0.65625 0.78125 1.578125 0.78125q0.90625 0 1.484375 -0.71875q0.59375 -0.71875 0.59375 -2.34375q0 -1.515625 -0.609375 -2.25q-0.609375 -0.75 -1.515625 -0.75q-0.9375 0 -1.5625 0.734375q-0.609375 0.71875 -0.609375 2.140625zm14.536606 1.921875l2.546875 0.421875q-0.484375 1.40625 -1.546875 2.140625q-1.0625 0.734375 -2.65625 0.734375q-2.515625 0 -3.734375 -1.65625q-0.953125 -1.3125 -0.953125 -3.328125q0 -2.40625 1.25 -3.765625q1.265625 -1.359375 3.1875 -1.359375q2.15625 0 3.40625 1.421875q1.25 1.421875 1.1875 4.375l-6.40625 0q0.03125 1.140625 0.609375 1.78125q0.59375 0.625 1.484375 0.625q0.59375 0 1.0 -0.328125q0.421875 -0.328125 0.625 -1.0625zm0.15625 -2.59375q-0.03125 -1.109375 -0.578125 -1.6875q-0.546875 -0.578125 -1.328125 -0.578125q-0.84375 0 -1.390625 0.609375q-0.546875 0.609375 -0.53125 1.65625l3.828125 0zm9.063217 -4.0l0 2.03125l-1.75 0l0 3.90625q0 1.1875 0.046875 1.390625q0.046875 0.1875 0.21875 0.3125q0.1875 0.125 0.4375 0.125q0.359375 0 1.03125 -0.25l0.21875 2.0q-0.890625 0.375 -2.015625 0.375q-0.703125 0 -1.265625 -0.234375q-0.546875 -0.234375 -0.8125 -0.59375q-0.25 -0.375 -0.34375 -1.0q-0.09375 -0.453125 -0.09375 -1.8125l0 -4.21875l-1.171875 0l0 -2.03125l1.171875 0l0 -1.9218903l2.578125 -1.5l0 3.4218903l1.75 0zm1.775177 -1.3125153l0 -2.375l2.5625 0l0 2.375l-2.5625 0zm0 10.98439l0 -9.671875l2.5625 0l0 9.671875l-2.5625 0zm9.620804 -9.671875l0 2.03125l-1.75 0l0 3.90625q0 1.1875 0.046875 1.390625q0.046875 0.1875 0.21875 0.3125q0.1875 0.125 0.4375 0.125q0.359375 0 1.03125 -0.25l0.21875 2.0q-0.890625 0.375 -2.015625 0.375q-0.703125 0 -1.265625 -0.234375q-0.546875 -0.234375 -0.8125 -0.59375q-0.25 -0.375 -0.34375 -1.0q-0.09375 -0.453125 -0.09375 -1.8125l0 -4.21875l-1.171875 0l0 -2.03125l1.171875 0l0 -1.9218903l2.578125 -1.5l0 3.4218903l1.75 0zm1.775177 -1.3125153l0 -2.375l2.5625 0l0 2.375l-2.5625 0zm0 10.98439l0 -9.671875l2.5625 0l0 9.671875l-2.5625 0zm7.839554 0l-3.90625 -9.671875l2.6875 0l1.828125 4.9375l0.53125 1.640625q0.203125 -0.625 0.265625 -0.828125q0.125 -0.40625 0.265625 -0.8125l1.84375 -4.9375l2.625 0l-3.84375 9.671875l-2.296875 0zm13.313217 -3.078125l2.546875 0.421875q-0.484375 1.40625 -1.546875 2.140625q-1.0625 0.734375 -2.65625 0.734375q-2.515625 0 -3.734375 -1.65625q-0.953125 -1.3125 -0.953125 -3.328125q0 -2.40625 1.25 -3.765625q1.265625 -1.359375 3.1875 -1.359375q2.15625 0 3.40625 1.421875q1.25 1.421875 1.1875 4.375l-6.40625 0q0.03125 1.140625 0.609375 1.78125q0.59375 0.625 1.484375 0.625q0.59375 0 1.0 -0.328125q0.421875 -0.328125 0.625 -1.0625zm0.15625 -2.59375q-0.03125 -1.109375 -0.578125 -1.6875q-0.546875 -0.578125 -1.328125 -0.578125q-0.84375 0 -1.390625 0.609375q-0.546875 0.609375 -0.53125 1.65625l3.828125 0zm9.824646 -7.6875153l5.34375 0q1.59375 0 2.359375 0.140625q0.78125 0.125 1.390625 0.546875q0.625 0.421875 1.03125 1.125q0.40623474 0.6875 0.40623474 1.5468903q0 0.9375 -0.49998474 1.734375q-0.5 0.78125 -1.375 1.171875q1.21875 0.359375 1.8749847 1.21875q0.65625 0.84375 0.65625 2.0q0 0.921875 -0.421875 1.78125q-0.421875 0.859375 -1.1562347 1.375q-0.734375 0.515625 -1.796875 0.625q-0.6875 0.078125 -3.265625 0.09375l-4.546875 0l0 -13.35939zm2.703125 2.234375l0 3.0781403l1.765625 0q1.578125 0 1.953125 -0.046875q0.703125 -0.078125 1.09375 -0.46875q0.40625 -0.40625 0.40625 -1.046875q0 -0.62501526 -0.34375 -1.0000153q-0.34375 -0.390625 -1.015625 -0.484375q-0.40625 -0.03125 -2.3125 -0.03125l-1.546875 0zm0 5.2968903l0 3.578125l2.5 0q1.453125 0 1.84375 -0.078125q0.609375 -0.109375 0.984375 -0.53125q0.375 -0.421875 0.375 -1.140625q0 -0.59375 -0.296875 -1.015625q-0.28125 -0.421875 -0.84375 -0.609375q-0.546875 -0.203125 -2.390625 -0.203125l-2.171875 0zm10.754196 5.828125l0 -13.35939l2.5625 0l0 13.35939l-2.5625 0zm4.5895386 -4.96875q0 -1.28125 0.625 -2.46875q0.625 -1.203125 1.78125 -1.828125q1.15625 -0.625 2.578125 -0.625q2.1875 0 3.59375 1.421875q1.40625 1.421875 1.40625 3.609375q0 2.1875 -1.421875 3.640625q-1.421875 1.4375 -3.5625 1.4375q-1.328125 0 -2.546875 -0.59375q-1.203125 -0.609375 -1.828125 -1.765625q-0.625 -1.171875 -0.625 -2.828125zm2.625 0.125q0 1.453125 0.671875 2.21875q0.6875 0.75 1.6875 0.75q1.0 0 1.671875 -0.75q0.6875 -0.765625 0.6875 -2.234375q0 -1.421875 -0.6875 -2.1875q-0.671875 -0.765625 -1.671875 -0.765625q-1.0 0 -1.6875 0.765625q-0.671875 0.765625 -0.671875 2.203125zm17.802246 -1.96875l-2.53125 0.453125q-0.125 -0.75 -0.578125 -1.125q-0.453125 -0.390625 -1.171875 -0.390625q-0.953125 0 -1.53125 0.65625q-0.5625 0.65625 -0.5625 2.203125q0 1.734375 0.578125 2.4375q0.578125 0.703125 1.546875 0.703125q0.734375 0 1.203125 -0.40625q0.46875 -0.421875 0.65625 -1.421875l2.515625 0.421875q-0.390625 1.734375 -1.515625 2.625q-1.109375 0.875 -2.96875 0.875q-2.125 0 -3.390625 -1.328125q-1.25 -1.34375 -1.25 -3.71875q0 -2.390625 1.265625 -3.71875q1.265625 -1.34375 3.421875 -1.34375q1.765625 0 2.796875 0.765625q1.046875 0.75 1.515625 2.3125zm1.8444519 6.8125l0 -13.35939l2.5625 0l0 7.0937653l3.0 -3.40625l3.140625 0l-3.296875 3.53125l3.53125 6.140625l-2.75 0l-2.4375 -4.34375l-1.1875 1.25l0 3.09375l-2.5625 0z" fill-rule="nonzero"/><path fill="#000000" fill-opacity="0.0" d="m224.88971 70.04199l0 55.40158" fill-rule="evenodd"/><path stroke="#b6d7a8" stroke-width="4.0" stroke-linejoin="round" stroke-linecap="butt" d="m224.88971 70.04199l0 31.40158" fill-rule="evenodd"/><path fill="#b6d7a8" stroke="#b6d7a8" stroke-width="4.0" stroke-linecap="butt" d="m218.28278 101.44357l6.6069336 18.15239l6.6069183 -18.15239z" fill-rule="evenodd"/><path fill="#434343" d="m36.505836 365.87646c0 2.6878357 0.8430176 4.743225 2.5290527 6.1661987l-2.182209 0l0 2.9554138l15.347721 0l0 -3.283783l-8.381996 0c-1.9654312 0 -3.2998085 -0.5067444 -4.003124 -1.5202637c-0.70331573 -1.0175781 -1.0549736 -2.2256775 -1.0549736 -3.6243286c0 -0.8756714 0.15736008 -1.6378479 0.47208786 -2.286499c0.3115158 -0.65270996 0.7306137 -1.1067505 1.2572975 -1.3621521c0.52347565 -0.2554016 1.3151093 -0.38311768 2.3749008 -0.38311768l9.335808 0l0 -3.283783l-9.43697 0c-1.2043114 0 -2.047329 0.060821533 -2.5290527 0.18243408c-0.7418518 0.19458008 -1.3825455 0.53512573 -1.9220772 1.0216064c-0.5395317 0.48651123 -0.97468567 1.2202759 -1.3054695 2.201355c-0.33399582 0.9770508 -0.50099564 2.049347 -0.50099564 3.216919z" fill-rule="evenodd"/><path fill="#434343" d="m38.659145 346.35617c0 -1.6175842 0.4897499 -2.9696045 1.4692574 -4.0560913c0.97629166 -1.0905457 2.413437 -1.6358337 4.311428 -1.6358337c2.0136032 0 3.5117645 0.54122925 4.494484 1.6236572c0.9827156 1.082428 1.4740753 2.4385376 1.4740753 4.068268c0 1.6418762 -0.48814774 3.0040588 -1.4644432 4.086487c-0.97950363 1.082428 -2.451973 1.6236572 -4.417408 1.6236572c-1.9654312 0 -3.4346886 -0.54122925 -4.407772 -1.6236572c-0.9730835 -1.082428 -1.4596214 -2.4446106 -1.4596214 -4.086487zm-2.1533089 0c0 2.395935 0.56843567 4.4270325 1.7053032 6.093231c1.3680954 1.9945984 3.4732285 2.9919128 6.315399 2.9919128c2.5916748 0 4.576378 -0.83514404 5.954109 -2.5054321c1.3777275 -1.6743164 2.0665932 -3.8675537 2.0665932 -6.579712c0 -1.6905518 -0.31311798 -3.2493286 -0.9393616 -4.676361c-0.6262398 -1.4310913 -1.5045853 -2.5195923 -2.6350288 -3.265564c-1.1336555 -0.75 -2.6880188 -1.125 -4.663086 -1.125c-2.437523 0 -4.346756 0.8452759 -5.7276955 2.5358276c-1.3841553 1.6905518 -2.076233 3.8675842 -2.076233 6.5310974z" fill-rule="evenodd"/><path fill="#cfe2f3" d="m184.69641 24.687664l80.3866 0l0 0c10.530853 0 19.06781 10.152912 19.06781 22.677166c0 12.524254 -8.536957 22.677162 -19.06781 22.677162l-80.3866 0l0 0c-10.530853 0 -19.067795 -10.152908 -19.067795 -22.677162c0 -12.524254 8.536942 -22.677166 19.067795 -22.677166z" fill-rule="evenodd"/><path stroke="#4a86e8" stroke-width="2.0" stroke-linejoin="round" stroke-linecap="butt" d="m184.69641 24.687664l80.3866 0l0 0c10.530853 0 19.06781 10.152912 19.06781 22.677166c0 12.524254 -8.536957 22.677162 -19.06781 22.677162l-80.3866 0l0 0c-10.530853 0 -19.067795 -10.152908 -19.067795 -22.677162c0 -12.524254 8.536942 -22.677166 19.067795 -22.677166z" fill-rule="evenodd"/><path fill="#000000" d="m195.16359 49.94108l2.625 -0.25q0.234375 1.3125 0.953125 1.9375q0.734375 0.609375 1.96875 0.609375q1.296875 0 1.953125 -0.546875q0.671875 -0.546875 0.671875 -1.28125q0 -0.484375 -0.28125 -0.8125q-0.28125 -0.328125 -0.96875 -0.578125q-0.484375 -0.15625 -2.171875 -0.578125q-2.15625 -0.546875 -3.03125 -1.328125q-1.234375 -1.09375 -1.234375 -2.6875q0 -1.015625 0.578125 -1.90625q0.578125 -0.890625 1.65625 -1.34375q1.09375 -0.46875 2.640625 -0.46875q2.515625 0 3.78125 1.109375q1.28125 1.09375 1.34375 2.9375l-2.703125 0.109375q-0.171875 -1.03125 -0.75 -1.46875q-0.5625 -0.453125 -1.703125 -0.453125q-1.171875 0 -1.84375 0.46875q-0.421875 0.3125 -0.421875 0.84375q0 0.46875 0.40625 0.796875q0.5 0.4375 2.46875 0.90625q1.96875 0.453125 2.90625 0.953125q0.953125 0.5 1.484375 1.359375q0.53125 0.859375 0.53125 2.125q0 1.15625 -0.640625 2.15625q-0.640625 1.0 -1.8125 1.484375q-1.15625 0.484375 -2.890625 0.484375q-2.53125 0 -3.890625 -1.171875q-1.359375 -1.171875 -1.625 -3.40625zm16.131073 4.34375l0 -11.09375l-3.953125 0l0 -2.265625l10.609375 0l0 2.265625l-3.953125 0l0 11.09375l-2.703125 0zm19.057434 0l-2.9375 0l-1.171875 -3.03125l-5.328125 0l-1.109375 3.03125l-2.859375 0l5.203125 -13.359375l2.84375 0l5.359375 13.359375zm-4.96875 -5.28125l-1.84375 -4.953125l-1.796875 4.953125l3.640625 0zm6.394821 5.28125l0 -13.359375l5.6875 0q2.140625 0 3.109375 0.359375q0.96875 0.359375 1.546875 1.28125q0.578125 0.921875 0.578125 2.109375q0 1.5 -0.890625 2.484375q-0.875 0.96875 -2.625 1.234375q0.875 0.5 1.4375 1.125q0.578125 0.609375 1.53125 2.15625l1.640625 2.609375l-3.234375 0l-1.9375 -2.90625q-1.046875 -1.5625 -1.4375 -1.96875q-0.375 -0.40625 -0.8125 -0.546875q-0.421875 -0.15625 -1.34375 -0.15625l-0.546875 0l0 5.578125l-2.703125 0zm2.703125 -7.703125l2.0 0q1.9375 0 2.421875 -0.15625q0.484375 -0.171875 0.75 -0.578125q0.28125 -0.40625 0.28125 -1.0q0 -0.671875 -0.359375 -1.078125q-0.359375 -0.421875 -1.015625 -0.53125q-0.328125 -0.046875 -1.96875 -0.046875l-2.109375 0l0 3.390625zm13.769821 7.703125l0 -11.09375l-3.953125 0l0 -2.265625l10.609375 0l0 2.265625l-3.953125 0l0 11.09375l-2.703125 0z" fill-rule="nonzero"/><path fill="#000000" fill-opacity="0.0" d="m89.3937 406.3937l-24.999825 0l0 -257.5118l137.03133 0" fill-rule="evenodd"/><path stroke="#b6d7a8" stroke-width="3.0" stroke-linejoin="round" stroke-linecap="butt" d="m89.3937 406.3937l-24.999832 0l0 -257.5118l119.031334 0" fill-rule="evenodd"/><path fill="#b6d7a8" stroke="#b6d7a8" stroke-width="3.0" stroke-linecap="butt" d="m183.4252 153.83708l13.614288 -4.955185l-13.614288 -4.9552z" fill-rule="evenodd"/><path fill="#f9cb9c" d="m201.42389 148.89502l0 0c0 -12.959122 10.505447 -23.464577 23.46457 -23.464577l0 0c6.2231903 0 12.191483 2.4721527 16.59195 6.872612c4.4004517 4.400467 6.8726044 10.368774 6.8726044 16.591965l0 0c0 12.959122 -10.505432 23.464554 -23.464554 23.464554l0 0c-12.959122 0 -23.46457 -10.505432 -23.46457 -23.464554z" fill-rule="evenodd"/><path stroke="#e69138" stroke-width="2.0" stroke-linejoin="round" stroke-linecap="butt" d="m201.42389 148.89502l0 0c0 -12.959122 10.505447 -23.464577 23.46457 -23.464577l0 0c6.2231903 0 12.191483 2.4721527 16.59195 6.872612c4.4004517 4.400467 6.8726044 10.368774 6.8726044 16.591965l0 0c0 12.959122 -10.505432 23.464554 -23.464554 23.464554l0 0c-12.959122 0 -23.46457 -10.505432 -23.46457 -23.464554z" fill-rule="evenodd"/><path fill="#000000" fill-opacity="0.0" d="m224.88846 172.35957l0 41.921265" fill-rule="evenodd"/><path stroke="#b6d7a8" stroke-width="4.0" stroke-linejoin="round" stroke-linecap="butt" d="m224.88846 172.35957l0 17.921265" fill-rule="evenodd"/><path fill="#b6d7a8" stroke="#b6d7a8" stroke-width="4.0" stroke-linecap="butt" d="m218.28152 190.28084l6.6069336 18.15239l6.6069183 -18.15239z" fill-rule="evenodd"/><path fill="#f9cb9c" d="m89.3937 406.3937l135.49606 -50.59842l135.49606 50.59842l-135.49606 50.59842z" fill-rule="evenodd"/><path stroke="#e69138" stroke-width="2.0" stroke-linejoin="round" stroke-linecap="butt" d="m89.3937 406.3937l135.49606 -50.59842l135.49606 50.59842l-135.49606 50.59842z" fill-rule="evenodd"/><path fill="#000000" d="m201.23244 402.3137l0 -13.359375l2.5625 0l0 4.8125q1.171875 -1.34375 2.796875 -1.34375q1.765625 0 2.921875 1.28125q1.15625 1.28125 1.15625 3.671875q0 2.484375 -1.1875 3.828125q-1.171875 1.328125 -2.859375 1.328125q-0.828125 0 -1.640625 -0.40625q-0.796875 -0.421875 -1.375 -1.234375l0 1.421875l-2.375 0zm2.53125 -5.046875q0 1.5 0.484375 2.21875q0.65625 1.03125 1.765625 1.03125q0.84375 0 1.4375 -0.71875q0.59375 -0.734375 0.59375 -2.296875q0 -1.65625 -0.609375 -2.390625q-0.59375 -0.734375 -1.53125 -0.734375q-0.921875 0 -1.53125 0.71875q-0.609375 0.71875 -0.609375 2.171875zm11.427231 5.046875l-2.5625 0l0 -9.671875l2.375 0l0 1.375q0.609375 -0.984375 1.09375 -1.28125q0.484375 -0.3125 1.109375 -0.3125q0.875 0 1.6875 0.484375l-0.796875 2.234375q-0.640625 -0.421875 -1.203125 -0.421875q-0.53125 0 -0.90625 0.296875q-0.375 0.296875 -0.59375 1.078125q-0.203125 0.765625 -0.203125 3.234375l0 2.984375zm10.400894 -3.078125l2.546875 0.421875q-0.484375 1.40625 -1.546875 2.140625q-1.0625 0.734375 -2.65625 0.734375q-2.515625 0 -3.734375 -1.65625q-0.953125 -1.3125 -0.953125 -3.328125q0 -2.40625 1.25 -3.765625q1.265625 -1.359375 3.1875 -1.359375q2.15625 0 3.40625 1.421875q1.25 1.421875 1.1875 4.375l-6.40625 0q0.03125 1.140625 0.609375 1.78125q0.59375 0.625 1.484375 0.625q0.59375 0 1.0 -0.328125q0.421875 -0.328125 0.625 -1.0625zm0.15625 -2.59375q-0.03125 -1.109375 -0.578125 -1.6875q-0.546875 -0.578125 -1.328125 -0.578125q-0.84375 0 -1.390625 0.609375q-0.546875 0.609375 -0.53125 1.65625l3.828125 0zm6.531967 -1.046875l-2.328125 -0.421875q0.40625 -1.40625 1.359375 -2.078125q0.953125 -0.671875 2.84375 -0.671875q1.703125 0 2.546875 0.40625q0.84375 0.40625 1.171875 1.03125q0.34375 0.625 0.34375 2.28125l-0.015625 3.0q0 1.265625 0.109375 1.875q0.125 0.609375 0.46875 1.296875l-2.53125 0q-0.109375 -0.25 -0.25 -0.75q-0.0625 -0.234375 -0.09375 -0.3125q-0.65625 0.640625 -1.40625 0.96875q-0.734375 0.3125 -1.59375 0.3125q-1.484375 0 -2.34375 -0.8125q-0.859375 -0.8125 -0.859375 -2.046875q0 -0.828125 0.390625 -1.46875q0.390625 -0.640625 1.09375 -0.96875q0.703125 -0.34375 2.03125 -0.609375q1.796875 -0.328125 2.484375 -0.625l0 -0.25q0 -0.75 -0.359375 -1.0625q-0.359375 -0.3125 -1.375 -0.3125q-0.6875 0 -1.078125 0.28125q-0.375 0.265625 -0.609375 0.9375zm3.421875 2.078125q-0.484375 0.15625 -1.5625 0.390625q-1.0625 0.21875 -1.390625 0.4375q-0.5 0.359375 -0.5 0.90625q0 0.53125 0.40625 0.9375q0.40625 0.390625 1.015625 0.390625q0.703125 0 1.328125 -0.46875q0.46875 -0.34375 0.609375 -0.84375q0.09375 -0.328125 0.09375 -1.25l0 -0.5zm4.953842 4.640625l0 -13.359375l2.5625 0l0 7.09375l3.0 -3.40625l3.140625 0l-3.296875 3.53125l3.53125 6.140625l-2.75 0l-2.4375 -4.34375l-1.1875 1.25l0 3.09375l-2.5625 0z" fill-rule="nonzero"/><path fill="#000000" d="m226.03552 420.8762l-2.328125 0q0 -0.5 0 -0.609375q0 -1.140625 0.359375 -1.859375q0.375 -0.734375 1.5 -1.640625q1.125 -0.921875 1.34375 -1.203125q0.328125 -0.4375 0.328125 -0.984375q0 -0.734375 -0.59375 -1.265625q-0.59375 -0.546875 -1.609375 -0.546875q-0.96875 0 -1.625 0.5625q-0.65625 0.546875 -0.90625 1.6875l-2.34375 -0.28125q0.09375 -1.640625 1.375 -2.765625q1.296875 -1.140625 3.390625 -1.140625q2.203125 0 3.5 1.15625q1.3125 1.140625 1.3125 2.671875q0 0.84375 -0.484375 1.609375q-0.46875 0.75 -2.03125 2.046875q-0.8125 0.6875 -1.015625 1.09375q-0.1875 0.40625 -0.171875 1.46875zm-2.328125 3.4375l0 -2.5625l2.5625 0l0 2.5625l-2.5625 0z" fill-rule="nonzero"/><path fill="#000000" fill-opacity="0.0" d="m224.88977 303.93307l0 51.874023" fill-rule="evenodd"/><path stroke="#b6d7a8" stroke-width="4.0" stroke-linejoin="round" stroke-linecap="butt" d="m224.88977 303.93307l0 27.874023" fill-rule="evenodd"/><path fill="#b6d7a8" stroke="#b6d7a8" stroke-width="4.0" stroke-linecap="butt" d="m218.28284 331.8071l6.6069336 18.152374l6.6069183 -18.152374z" fill-rule="evenodd"/><path fill="#cfe2f3" d="m184.69641 485.23358l80.3866 0l0 0c10.530853 0 19.06781 10.152924 19.06781 22.677185c0 12.524231 -8.536957 22.677185 -19.06781 22.677185l-80.3866 0l0 0c-10.530853 0 -19.067795 -10.152954 -19.067795 -22.677185c0 -12.524261 8.536942 -22.677185 19.067795 -22.677185z" fill-rule="evenodd"/><path stroke="#4a86e8" stroke-width="2.0" stroke-linejoin="round" stroke-linecap="butt" d="m184.69641 485.23358l80.3866 0l0 0c10.530853 0 19.06781 10.152924 19.06781 22.677185c0 12.524231 -8.536957 22.677185 -19.06781 22.677185l-80.3866 0l0 0c-10.530853 0 -19.067795 -10.152954 -19.067795 -22.677185c0 -12.524261 8.536942 -22.677185 19.067795 -22.677185z" fill-rule="evenodd"/><path fill="#000000" d="m200.33293 510.487l2.625 -0.25q0.234375 1.3125 0.953125 1.9375q0.734375 0.609375 1.96875 0.609375q1.296875 0 1.953125 -0.546875q0.671875 -0.546875 0.671875 -1.28125q0 -0.484375 -0.28125 -0.8125q-0.28125 -0.328125 -0.96875 -0.578125q-0.484375 -0.15625 -2.171875 -0.578125q-2.15625 -0.546875 -3.03125 -1.328125q-1.234375 -1.09375 -1.234375 -2.6875q0 -1.015625 0.578125 -1.90625q0.578125 -0.890625 1.65625 -1.34375q1.09375 -0.46875 2.640625 -0.46875q2.515625 0 3.78125 1.109375q1.28125 1.09375 1.34375 2.9375l-2.703125 0.109375q-0.171875 -1.03125 -0.75 -1.46875q-0.5625 -0.453125 -1.703125 -0.453125q-1.171875 0 -1.84375 0.46875q-0.421875 0.3125 -0.421875 0.84375q0 0.46875 0.40625 0.796875q0.5 0.4375 2.46875 0.90625q1.96875 0.453125 2.90625 0.953125q0.953125 0.5 1.484375 1.359375q0.53125 0.859375 0.53125 2.125q0 1.15625 -0.640625 2.15625q-0.640625 1.0 -1.8125 1.484375q-1.15625 0.484375 -2.890625 0.484375q-2.53125 0 -3.890625 -1.171875q-1.359375 -1.171875 -1.625 -3.40625zm16.131073 4.34375l0 -11.09375l-3.953125 0l0 -2.265625l10.609375 0l0 2.265625l-3.953125 0l0 11.09375l-2.703125 0zm7.5118713 -6.59375q0 -2.046875 0.609375 -3.421875q0.453125 -1.03125 1.234375 -1.828125q0.796875 -0.8125 1.734375 -1.203125q1.25 -0.53125 2.875 -0.53125q2.953125 0 4.71875 1.828125q1.78125 1.828125 1.78125 5.09375q0 3.234375 -1.765625 5.0625q-1.75 1.828125 -4.6875 1.828125q-2.984375 0 -4.75 -1.8125q-1.75 -1.828125 -1.75 -5.015625zm2.78125 -0.09375q0 2.265625 1.046875 3.4375q1.046875 1.171875 2.65625 1.171875q1.609375 0 2.640625 -1.15625q1.046875 -1.171875 1.046875 -3.484375q0 -2.296875 -1.015625 -3.421875q-1.0 -1.140625 -2.671875 -1.140625q-1.671875 0 -2.6875 1.15625q-1.015625 1.140625 -1.015625 3.4375zm12.277054 6.6875l0 -13.359375l4.328125 0q2.453125 0 3.203125 0.203125q1.140625 0.296875 1.921875 1.3125q0.78125 1.0 0.78125 2.59375q0 1.234375 -0.453125 2.078125q-0.453125 0.828125 -1.140625 1.3125q-0.6875 0.46875 -1.390625 0.625q-0.96875 0.203125 -2.796875 0.203125l-1.765625 0l0 5.03125l-2.6875 0zm2.6875 -11.09375l0 3.78125l1.484375 0q1.59375 0 2.125 -0.203125q0.546875 -0.203125 0.84375 -0.65625q0.3125 -0.453125 0.3125 -1.03125q0 -0.734375 -0.4375 -1.203125q-0.421875 -0.484375 -1.078125 -0.59375q-0.484375 -0.09375 -1.9375 -0.09375l-1.3125 0z" fill-rule="nonzero"/><path fill="#000000" fill-opacity="0.0" d="m360.38583 406.3937l25.000305 0l0 101.51181l-101.220795 0" fill-rule="evenodd"/><path stroke="#e06666" stroke-width="3.0" stroke-linejoin="round" stroke-linecap="butt" d="m360.38583 406.3937l25.000336 0l0 101.51181l-83.220825 0" fill-rule="evenodd"/><path fill="#e06666" stroke="#e06666" stroke-width="3.0" stroke-linecap="butt" d="m302.16534 502.95032l-13.614288 4.9552l13.614288 4.9552z" fill-rule="evenodd"/><path fill="#e06666" d="m419.91293 406.39496l-15.376617 7.352051c-0.27941895 -0.13378906 -0.49136353 -0.2310791 -0.6358948 -0.29190063c-1.0308838 -0.4621582 -1.6763916 -0.79663086 -1.9365234 -1.0033875c-0.34683228 -0.27972412 -0.61660767 -0.6385193 -0.80929565 -1.076355c-0.19268799 -0.4378357 -0.28903198 -1.0216064 -0.28903198 -1.7513428c0 -0.53512573 0.077056885 -1.161499 0.23123169 -1.8790588l0 0l-2.4423523 0.36486816c-0.21194458 0.77838135 -0.31793213 1.4837952 -0.31793213 2.116211c0 1.0459595 0.20071411 1.9459534 0.60214233 2.7000122c0.39822388 0.75405884 1.0260925 1.4229736 1.8835449 2.0067444c0.6358948 0.4378357 1.7968445 1.0520325 3.4828796 1.8425903l15.607849 7.37027l0 -3.283783l-8.945618 -4.1412354c-1.1368713 -0.52297974 -2.3026428 -0.9729614 -3.4973145 -1.3500061c1.2428589 -0.41351318 2.427887 -0.8817444 3.5551147 -1.4047241l8.887817 -4.031769z" fill-rule="evenodd"/><path fill="#e06666" d="m418.1209 434.92743c0 1.6662292 -0.50097656 3.0223083 -1.5029907 4.0682373c-0.6455078 0.6810913 -1.6137695 1.0946045 -2.9047852 1.2405396l0 -10.818237c1.3392029 0.10946655 2.4086304 0.6770325 3.2082825 1.7026978c0.7996521 1.0297241 1.1994934 2.298645 1.1994934 3.8067627zm2.138855 -0.036499023c0 -2.6756592 -0.71295166 -4.8526917 -2.138855 -6.531067c-1.4259033 -1.6784058 -3.4298706 -2.5175781 -6.011902 -2.5175781c-2.4953308 0 -4.435089 0.8290405 -5.8192444 2.487152c-1.3809204 1.6621704 -2.0714111 3.9101562 -2.0714111 6.743927c0 2.25 0.43356323 4.0986633 1.3006592 5.5459595c0.86709595 1.4472961 2.0858765 2.438507 3.6562805 2.9736633l0.33239746 -3.3932495c-1.0983276 -0.49865723 -1.8979797 -1.173645 -2.3989868 -2.0250244c-0.50097656 -0.8513489 -0.75149536 -1.8790283 -0.75149536 -3.0830994c0 -1.6175537 0.44799805 -2.9675598 1.3440247 -4.049988c0.8959961 -1.0824585 2.1870117 -1.6844788 3.8730469 -1.8060913l0 14.448669c0.3083191 0.012145996 0.5395508 0.018218994 0.69369507 0.018218994c2.5338745 0 4.499298 -0.82092285 5.8963013 -2.4628296c1.3970032 -1.6418762 2.0954895 -3.7581177 2.0954895 -6.3486633z" fill-rule="evenodd"/><path fill="#e06666" d="m420.25977 454.08286c0 -1.0094604 -0.10437012 -1.9560852 -0.31311035 -2.8398743c-0.20553589 -0.8797302 -0.4576416 -1.5749817 -0.75631714 -2.0858154c-0.38537598 -0.6810608 -0.8703003 -1.2202759 -1.4548035 -1.6175537c-0.5812683 -0.3932495 -1.2139587 -0.58987427 -1.8979797 -0.58987427c-0.75149536 0 -1.4387512 0.23919678 -2.061798 0.7175598c-0.619812 0.4824524 -1.1063538 1.1878357 -1.4596252 2.1162415c-0.35003662 0.9324341 -0.7659302 2.6026917 -1.2476501 5.010803c-0.35647583 1.7878418 -0.6503296 2.9067688 -0.8815613 3.3567505c-0.33721924 0.6445923 -0.7996521 0.9668884 -1.3873596 0.9668884c-0.65515137 0 -1.2268066 -0.36483765 -1.7149353 -1.094574c-0.48495483 -0.7297363 -0.727417 -1.8486633 -0.727417 -3.356781c0 -1.4959412 0.27459717 -2.6614685 0.823761 -3.4966125c0.5491638 -0.8310852 1.3392029 -1.3378296 2.3700867 -1.5202637l-0.4046631 -3.2473145c-1.6282349 0.36486816 -2.8566284 1.2060852 -3.6851807 2.5236511c-0.82855225 1.3216248 -1.2428589 3.241211 -1.2428589 5.758789c0 1.5202942 0.20877075 2.8824463 0.6262512 4.086487c0.42071533 1.204071 1.0132141 2.1243286 1.7775574 2.7608337c0.7675476 0.64053345 1.5848694 0.9608154 2.4519653 0.9608154c0.88638306 0 1.6282349 -0.26150513 2.225586 -0.78448486c0.59732056 -0.5229492 1.0517578 -1.2445679 1.3632812 -2.164856c0.31472778 -0.91622925 0.7177429 -2.5358276 1.2091064 -4.858795c0.3468628 -1.6054077 0.5684509 -2.5722961 0.6647949 -2.9006653c0.18304443 -0.57162476 0.41427612 -0.99121094 0.69366455 -1.2587891c0.2697754 -0.26757812 0.5732727 -0.4013672 0.9104614 -0.4013672c0.5299072 0 0.9923706 0.32229614 1.3873596 0.96691895c0.39501953 0.6445923 0.5925293 1.7209473 0.5925293 3.2290344c0 1.2770386 -0.22158813 2.2641907 -0.6647644 2.9614868c-0.4432068 0.701355 -1.0598145 1.125 -1.849823 1.2709656l0.34683228 3.2108154c0.9923401 -0.20675659 1.7839966 -0.58380127 2.3749084 -1.1311035c0.5941162 -0.5472717 1.0646057 -1.3966064 1.411438 -2.5479736c0.34683228 -1.1472778 0.5202637 -2.481079 0.5202637 -4.001343z" fill-rule="evenodd"/><path fill="#434343" d="m256.23358 135.35422l0 21.186203l3.2838135 0l0 -21.186203z" fill-rule="evenodd"/><path fill="#434343" d="m272.4701 142.99916c1.6175842 0 2.9696045 0.48976135 4.0560913 1.4692688c1.0905457 0.97628784 1.6358032 2.413437 1.6358032 4.311432c0 2.0135956 -0.54119873 3.5117645 -1.6236267 4.4944763c-1.0824585 0.9827118 -2.4385376 1.4740753 -4.068268 1.4740753c-1.6418762 0 -3.0040588 -0.48814392 -4.086487 -1.464447c-1.082428 -0.9794922 -1.6236572 -2.4519653 -1.6236572 -4.417404c0 -1.9654236 0.54122925 -3.4346924 1.6236572 -4.407776c1.082428 -0.9730835 2.4446106 -1.4596252 4.086487 -1.4596252zm0 -2.153305c-2.395935 0 -4.4270325 0.56843567 -6.093231 1.705307c-1.9945984 1.368103 -2.9919128 3.473236 -2.9919128 6.315399c0 2.5916748 0.83514404 4.5763855 2.5054016 5.954117c1.6743469 1.3777161 3.8675842 2.0665894 6.5797424 2.0665894c1.6905518 0 3.2493286 -0.3131256 4.676361 -0.9393616c1.4310913 -0.62623596 2.5195923 -1.5045929 3.2655334 -2.635025c0.7500305 -1.133667 1.1250305 -2.6880188 1.1250305 -4.663086c0 -2.4375305 -0.8452759 -4.346756 -2.5358276 -5.727707c-1.6905518 -1.3841553 -3.8675842 -2.076233 -6.5310974 -2.076233z" fill-rule="evenodd"/><path fill="#434343" d="m293.24918 142.99916c1.6175842 0 2.9696045 0.48976135 4.0560913 1.4692688c1.0905457 0.97628784 1.6358032 2.413437 1.6358032 4.311432c0 2.0135956 -0.54119873 3.5117645 -1.6236572 4.4944763c-1.082428 0.9827118 -2.438507 1.4740753 -4.0682373 1.4740753c-1.6418762 0 -3.0040588 -0.48814392 -4.086487 -1.464447c-1.082428 -0.9794922 -1.6236572 -2.4519653 -1.6236572 -4.417404c0 -1.9654236 0.54122925 -3.4346924 1.6236572 -4.407776c1.082428 -0.9730835 2.4446106 -1.4596252 4.086487 -1.4596252zm0 -2.153305c-2.395935 0 -4.4270325 0.56843567 -6.0932617 1.705307c-1.9945679 1.368103 -2.9918823 3.473236 -2.9918823 6.315399c0 2.5916748 0.83514404 4.5763855 2.5054016 5.954117c1.6743469 1.3777161 3.8675842 2.0665894 6.5797424 2.0665894c1.6905518 0 3.2493286 -0.3131256 4.676361 -0.9393616c1.4310913 -0.62623596 2.5195923 -1.5045929 3.2655334 -2.635025c0.75 -1.133667 1.125 -2.6880188 1.125 -4.663086c0 -2.4375305 -0.8452759 -4.346756 -2.535797 -5.727707c-1.6905518 -1.3841553 -3.8675842 -2.076233 -6.5310974 -2.076233z" fill-rule="evenodd"/><path fill="#434343" d="m314.4661 142.88356c1.4108276 0 2.6229858 0.48654175 3.6365051 1.4596252c1.0175476 0.97306824 1.5263367 2.4375153 1.5263367 4.3933105c0 2.0521545 -0.52093506 3.567978 -1.5628357 4.54747c-1.0378418 0.9763031 -2.286499 1.464447 -3.7459412 1.464447c-1.4351501 0 -2.6574402 -0.47209167 -3.6669006 -1.416275c-1.0094604 -0.9441681 -1.5141907 -2.4037933 -1.5141907 -4.3788605c0 -1.9750671 0.5371704 -3.47966 1.6114807 -4.513748c1.0783691 -1.037323 2.3168945 -1.5559692 3.7155457 -1.5559692zm0.31015015 -2.0377045c-1.2648926 0 -2.3412476 0.1959076 -3.229065 0.5877075c-0.8878479 0.38859558 -1.6844788 0.9730835 -2.389862 1.753479l0 -1.994339l-2.9919128 0l0 21.229568l3.283783 0l0 -7.471527c0.55947876 0.5587921 1.2729797 1.0212402 2.140564 1.3873596c0.87161255 0.36610413 1.8547058 0.5491638 2.9493103 0.5491638c1.4959412 0 2.9209595 -0.33399963 4.2750244 -1.0019836c1.3580933 -0.6712036 2.3918762 -1.6346588 3.1013489 -2.8903503c0.713501 -1.2588959 1.0702515 -2.6735687 1.0702515 -4.243988c0 -1.4644318 -0.32229614 -2.8100433 -0.9668884 -4.0368347c-0.6445923 -1.230011 -1.5993042 -2.1822205 -2.8641968 -2.8566284c-1.2648621 -0.67440796 -2.7243042 -1.0116272 -4.378357 -1.0116272z" fill-rule="evenodd"/><path fill="#e06666" d="m39.45173 273.9705c0 2.6878357 0.8430176 4.7432556 2.529049 6.1662292l-2.182209 0l0 2.9553833l15.347721 0l0 -3.283783l-8.381992 0c-1.965435 0 -3.2998085 -0.5067444 -4.003128 -1.5202637c-0.70331573 -1.0175781 -1.0549736 -2.2256775 -1.0549736 -3.6243286c0 -0.8756714 0.15736389 -1.6378479 0.47208786 -2.286499c0.3115158 -0.65267944 0.7306175 -1.1067505 1.2573013 -1.3621521c0.52347183 -0.2554016 1.3151054 -0.38311768 2.374897 -0.38311768l9.335808 0l0 -3.283783l-9.43697 0c-1.2043076 0 -2.0473251 0.060821533 -2.529049 0.18243408c-0.7418556 0.1946106 -1.3825493 0.53512573 -1.9220772 1.021637c-0.5395317 0.4864807 -0.9746895 1.2202454 -1.3054733 2.201355c-0.33399582 0.97702026 -0.5009918 2.0493164 -0.5009918 3.2168884z" fill-rule="evenodd"/><path fill="#e06666" d="m41.605034 254.4502c0 -1.617569 0.48975372 -2.9696045 1.4692574 -4.0560913c0.9762955 -1.0905457 2.413437 -1.6358185 4.311428 -1.6358185c2.013607 0 3.5117683 0.54122925 4.494484 1.6236572c0.9827156 1.082428 1.4740753 2.4385223 1.4740753 4.0682526c0 1.6418762 -0.48814774 3.0040588 -1.4644394 4.086487c-0.97950745 1.082428 -2.4519768 1.6236572 -4.417408 1.6236572c-1.965435 0 -3.4346924 -0.54122925 -4.407776 -1.6236572c-0.9730797 -1.082428 -1.4596214 -2.4446106 -1.4596214 -4.086487zm-2.153305 0c0 2.395935 0.56843185 4.4270325 1.7053032 6.093231c1.3680954 1.9945984 3.4732285 2.9919128 6.315399 2.9919128c2.5916748 0 4.576374 -0.83514404 5.9541054 -2.5054016c1.3777313 -1.6743469 2.066597 -3.8675842 2.066597 -6.5797424c0 -1.6905518 -0.3131218 -3.2493286 -0.9393616 -4.676361c-0.6262436 -1.4310913 -1.5045853 -2.5195923 -2.6350288 -3.2655487c-1.1336594 -0.75 -2.6880188 -1.125 -4.6630898 -1.125c-2.437523 0 -4.346752 0.8452759 -5.7276955 2.5358124c-1.3841515 1.6905518 -2.076229 3.867569 -2.076229 6.5310974z" fill-rule="evenodd"/></g></svg>