<svg version="1.1" viewBox="0.0 0.0 384.0 384.0" fill="none" stroke="none" stroke-linecap="square" stroke-miterlimit="10" xmlns:xlink="http://www.w3.org/1999/xlink" xmlns="http://www.w3.org/2000/svg"><clipPath id="p.0"><path d="m0 0l384.0 0l0 384.0l-384.0 0l0 -384.0z" clip-rule="nonzero"/></clipPath><g clip-path="url(#p.0)"><path fill="#000000" fill-opacity="0.0" d="m0 0l384.0 0l0 384.0l-384.0 0z" fill-rule="evenodd"/><path fill="#434343" d="m0 -1.3963255l384.0 0l0 384.0l-384.0 0z" fill-rule="evenodd"/><path fill="#000000" fill-opacity="0.0" d="m145.32939 219.57349l47.93701 0l0 -36.34645" fill-rule="evenodd"/><path stroke="#c2c2c2" stroke-width="2.0" stroke-miterlimit="8.0" stroke-linecap="butt" stroke-dasharray="8.0,6.0" d="m145.32939 219.57349l47.93701 0l0 -27.34645" fill-rule="evenodd"/><path fill="#c2c2c2" stroke="#c2c2c2" stroke-width="2.0" stroke-linecap="butt" d="m195.47795 192.22704l-2.2115479 -6.0762024l-2.2115479 6.0762024z" fill-rule="evenodd"/><path fill="#000000" fill-opacity="0.0" d="m346.5433 156.3153l0 -20.692917l-39.55905 0" fill-rule="evenodd"/><path stroke="#c2c2c2" stroke-width="2.0" stroke-miterlimit="8.0" stroke-linecap="butt" stroke-dasharray="8.0,6.0" d="m346.5433 156.3153l0 -20.692917l-30.559052 0" fill-rule="evenodd"/><path fill="#c2c2c2" stroke="#c2c2c2" stroke-width="2.0" stroke-linecap="butt" d="m315.98425 133.41084l-6.0762024 2.2115479l6.0762024 2.211563z" fill-rule="evenodd"/><path fill="#000000" fill-opacity="0.0" d="m102.32021 161.95276l0 -29.858276l58.645668 0" fill-rule="evenodd"/><path stroke="#c2c2c2" stroke-width="2.0" stroke-miterlimit="8.0" stroke-linecap="butt" d="m102.32021 161.95276l0 -29.858276l49.645668 0" fill-rule="evenodd"/><path fill="#c2c2c2" stroke="#c2c2c2" stroke-width="2.0" stroke-linecap="butt" d="m151.96588 134.30605l6.076187 -2.211563l-6.076187 -2.2115479z" fill-rule="evenodd"/><path fill="#000000" fill-opacity="0.0" d="m193.34125 92.46322l0 14.49456l-0.06298828 0l0 14.481819" fill-rule="evenodd"/><path stroke="#c2c2c2" stroke-width="2.0" stroke-miterlimit="8.0" stroke-linecap="butt" d="m193.34125 101.46321l0 5.494568l-0.06298828 0l0 14.481812" fill-rule="evenodd"/><path fill="#c2c2c2" stroke="#c2c2c2" stroke-width="2.0" stroke-linecap="butt" d="m195.5528 101.46321l-2.2115479 -6.076195l-2.2115479 6.076195z" fill-rule="evenodd"/><path fill="#000000" fill-opacity="0.0" d="m160.9948 81.8333l-116.53543 0l0 33.133858" fill-rule="evenodd"/><path stroke="#c2c2c2" stroke-width="2.0" stroke-miterlimit="8.0" stroke-linecap="butt" d="m151.9948 81.8333l-107.53543 0l0 33.13385" fill-rule="evenodd"/><path fill="#c2c2c2" stroke="#c2c2c2" stroke-width="2.0" stroke-linecap="butt" d="m151.9948 84.04485l6.076187 -2.2115555l-6.076187 -2.2115555z" fill-rule="evenodd"/><path fill="#000000" fill-opacity="0.0" d="m44.45514 136.22014l0 83.33858l32.850395 0" fill-rule="evenodd"/><path stroke="#c2c2c2" stroke-width="2.0" stroke-miterlimit="8.0" stroke-linecap="butt" stroke-dasharray="8.0,6.0" d="m44.45514 145.22014l0 74.33859l32.850395 0" fill-rule="evenodd"/><path fill="#c2c2c2" stroke="#c2c2c2" stroke-width="2.0" stroke-linecap="butt" d="m46.666695 145.22014l-2.2115555 -6.076187l-2.2115555 6.076187z" fill-rule="evenodd"/><path fill="#000000" fill-opacity="0.0" d="m44.45514 136.22014l0 125.732285l32.850395 0" fill-rule="evenodd"/><path stroke="#c2c2c2" stroke-width="2.0" stroke-miterlimit="8.0" stroke-linecap="butt" stroke-dasharray="8.0,6.0" d="m44.45514 145.22014l0 116.732285l32.850395 0" fill-rule="evenodd"/><path fill="#c2c2c2" stroke="#c2c2c2" stroke-width="2.0" stroke-linecap="butt" d="m46.666695 145.22014l-2.2115555 -6.076187l-2.2115555 6.076187z" fill-rule="evenodd"/><path fill="#000000" fill-opacity="0.0" d="m274.67462 146.26082l0 18.637848l0.06298828 0l0 18.653488" fill-rule="evenodd"/><path stroke="#c2c2c2" stroke-width="2.0" stroke-miterlimit="8.0" stroke-linecap="butt" d="m274.6746 155.26083l0 9.637833l0.06298828 0l0 18.653503" fill-rule="evenodd"/><path fill="#c2c2c2" stroke="#c2c2c2" stroke-width="2.0" stroke-linecap="butt" d="m276.88617 155.26083l-2.2115784 -6.0762024l-2.2115479 6.0762024z" fill-rule="evenodd"/><path fill="#000000" fill-opacity="0.0" d="m193.2769 161.95276l0 -9.620316l0.06298828 0l0 -9.623779" fill-rule="evenodd"/><path stroke="#c2c2c2" stroke-width="2.0" stroke-miterlimit="8.0" stroke-linecap="butt" d="m193.2769 161.95276l0 -9.620316l0.06298828 0l0 -0.6237793" fill-rule="evenodd"/><path fill="#c2c2c2" stroke="#c2c2c2" stroke-width="2.0" stroke-linecap="butt" d="m195.55145 151.70866l-2.211563 -6.0762024l-2.2115479 6.0762024z" fill-rule="evenodd"/><path fill="#000000" fill-opacity="0.0" d="m44.45514 136.22014l0 210.96062l32.314964 0" fill-rule="evenodd"/><path stroke="#c2c2c2" stroke-width="2.0" stroke-miterlimit="8.0" stroke-linecap="butt" stroke-dasharray="8.0,6.0" d="m44.45514 145.22014l0 201.96065l32.314964 0" fill-rule="evenodd"/><path fill="#c2c2c2" stroke="#c2c2c2" stroke-width="2.0" stroke-linecap="butt" d="m46.666695 145.22014l-2.2115555 -6.076187l-2.2115555 6.076187z" fill-rule="evenodd"/><path fill="#000000" fill-opacity="0.0" d="m44.45514 136.22014l0 168.12599l32.850395 0" fill-rule="evenodd"/><path stroke="#c2c2c2" stroke-width="2.0" stroke-miterlimit="8.0" stroke-linecap="butt" stroke-dasharray="8.0,6.0" d="m44.45514 145.22014l0 159.12599l32.850395 0" fill-rule="evenodd"/><path fill="#c2c2c2" stroke="#c2c2c2" stroke-width="2.0" stroke-linecap="butt" d="m46.666695 145.22014l-2.2115555 -6.076187l-2.2115555 6.076187z" fill-rule="evenodd"/><path fill="#000000" fill-opacity="0.0" d="m192.99593 251.32545l0 -34.056168l0.28346252 0l0 -34.06981" fill-rule="evenodd"/><path stroke="#c2c2c2" stroke-width="2.0" stroke-miterlimit="8.0" stroke-linecap="butt" stroke-dasharray="8.0,6.0" d="m192.99593 251.32545l0 -34.056183l0.28346252 0l0 -25.069794" fill-rule="evenodd"/><path fill="#c2c2c2" stroke="#c2c2c2" stroke-width="2.0" stroke-linecap="butt" d="m195.49094 192.19948l-2.2115479 -6.0762024l-2.211563 6.0762024z" fill-rule="evenodd"/><path fill="#000000" fill-opacity="0.0" d="m346.6384 110.13817l0 25.480316l-39.653564 0" fill-rule="evenodd"/><path stroke="#c2c2c2" stroke-width="2.0" stroke-miterlimit="8.0" stroke-linecap="butt" stroke-dasharray="8.0,6.0" d="m346.63837 110.13816l0 25.480324l-30.653534 0" fill-rule="evenodd"/><path fill="#c2c2c2" stroke="#c2c2c2" stroke-width="2.0" stroke-linecap="butt" d="m315.98483 133.40692l-6.076172 2.211563l6.076172 2.2115479z" fill-rule="evenodd"/><path fill="#000000" fill-opacity="0.0" d="m274.67453 251.32414l0 -23.263565l0.0630188 0l0 -23.256119" fill-rule="evenodd"/><path stroke="#c2c2c2" stroke-width="2.0" stroke-miterlimit="8.0" stroke-linecap="butt" stroke-dasharray="8.0,6.0" d="m274.67453 251.32414l0 -23.26355l0.06298828 0l0 -14.256134" fill-rule="evenodd"/><path fill="#c2c2c2" stroke="#c2c2c2" stroke-width="2.0" stroke-linecap="butt" d="m276.9491 213.80446l-2.2115784 -6.076187l-2.2115479 6.076187z" fill-rule="evenodd"/><path fill="#fce5cd" d="m160.9948 71.20338l64.69292 0l0 21.259842l-64.69292 0z" fill-rule="evenodd"/><path stroke="#a72a1e" stroke-width="2.0" stroke-linejoin="round" stroke-linecap="butt" d="m160.9948 71.20338l64.69292 0l0 21.259842l-64.69292 0z" fill-rule="evenodd"/><path fill="#a72a1e" d="m173.24403 82.77642l1.5 0.46875q-0.34375 1.25 -1.15625 1.859375q-0.796875 0.59375 -2.015625 0.59375q-1.515625 0 -2.5 -1.03125q-0.984375 -1.046875 -0.984375 -2.84375q0 -1.90625 0.984375 -2.953125q0.984375 -1.0625 2.59375 -1.0625q1.390625 0 2.265625 0.828125q0.53125 0.5 0.78125 1.40625l-1.515625 0.375q-0.140625 -0.59375 -0.578125 -0.9375q-0.421875 -0.34375 -1.03125 -0.34375q-0.859375 0 -1.390625 0.609375q-0.515625 0.609375 -0.515625 1.96875q0 1.4375 0.515625 2.0625q0.515625 0.609375 1.359375 0.609375q0.609375 0 1.046875 -0.390625q0.453125 -0.390625 0.640625 -1.21875zm2.4612274 -0.046875q0 -0.71875 0.359375 -1.40625q0.359375 -0.6875 1.015625 -1.046875q0.671875 -0.359375 1.46875 -0.359375q1.265625 0 2.0625 0.828125q0.796875 0.8125 0.796875 2.046875q0 1.25 -0.8125 2.078125q-0.796875 0.828125 -2.03125 0.828125q-0.75 0 -1.453125 -0.34375q-0.6875 -0.34375 -1.046875 -1.0q-0.359375 -0.671875 -0.359375 -1.625zm1.5 0.078125q0 0.828125 0.390625 1.265625q0.390625 0.4375 0.96875 0.4375q0.5625 0 0.953125 -0.4375q0.390625 -0.4375 0.390625 -1.265625q0 -0.8125 -0.390625 -1.25q-0.390625 -0.4375 -0.953125 -0.4375q-0.578125 0 -0.96875 0.4375q-0.390625 0.4375 -0.390625 1.25zm5.353012 2.765625l0 -7.625l1.46875 0l0 7.625l-1.46875 0zm2.9606476 0l0 -7.625l1.46875 0l0 7.625l-1.46875 0zm6.1637726 -1.765625l1.453125 0.25q-0.28125 0.796875 -0.890625 1.21875q-0.609375 0.421875 -1.515625 0.421875q-1.4375 0 -2.125 -0.9375q-0.546875 -0.765625 -0.546875 -1.90625q0 -1.375 0.71875 -2.15625q0.71875 -0.78125 1.8125 -0.78125q1.234375 0 1.9375 0.828125q0.71875 0.8125 0.6875 2.484375l-3.65625 0q0.015625 0.65625 0.34375 1.015625q0.34375 0.359375 0.84375 0.359375q0.34375 0 0.578125 -0.1875q0.234375 -0.1875 0.359375 -0.609375zm0.078125 -1.46875q-0.015625 -0.640625 -0.328125 -0.96875q-0.3125 -0.328125 -0.765625 -0.328125q-0.46875 0 -0.78125 0.34375q-0.3125 0.359375 -0.3125 0.953125l2.1875 0zm7.4577484 -0.65625l-1.4375 0.265625q-0.078125 -0.4375 -0.34375 -0.65625q-0.25 -0.21875 -0.65625 -0.21875q-0.546875 0 -0.875 0.375q-0.3125 0.375 -0.3125 1.265625q0 0.984375 0.328125 1.390625q0.328125 0.40625 0.875 0.40625q0.421875 0 0.6875 -0.234375q0.265625 -0.25 0.375 -0.828125l1.4375 0.25q-0.21875 0.984375 -0.859375 1.5q-0.640625 0.5 -1.703125 0.5q-1.203125 0 -1.9375 -0.765625q-0.71875 -0.765625 -0.71875 -2.109375q0 -1.375 0.71875 -2.140625q0.734375 -0.765625 1.96875 -0.765625q1.0 0 1.59375 0.4375q0.609375 0.4375 0.859375 1.328125zm3.6452484 -1.640625l0 1.171875l-1.0 0l0 2.21875q0 0.6875 0.03125 0.796875q0.03125 0.109375 0.125 0.1875q0.109375 0.0625 0.25 0.0625q0.203125 0 0.59375 -0.140625l0.125 1.140625q-0.515625 0.21875 -1.15625 0.21875q-0.390625 0 -0.71875 -0.125q-0.3125 -0.140625 -0.46875 -0.34375q-0.140625 -0.21875 -0.203125 -0.578125q-0.046875 -0.25 -0.046875 -1.03125l0 -2.40625l-0.671875 0l0 -1.171875l0.671875 0l0 -1.09375l1.46875 -0.859375l0 1.953125l1.0 0zm1.0173645 -0.75l0 -1.34375l1.46875 0l0 1.34375l-1.46875 0zm0 6.28125l0 -5.53125l1.46875 0l0 5.53125l-1.46875 0zm2.6168976 -2.84375q0 -0.71875 0.359375 -1.40625q0.359375 -0.6875 1.015625 -1.046875q0.671875 -0.359375 1.46875 -0.359375q1.265625 0 2.0625 0.828125q0.796875 0.8125 0.796875 2.046875q0 1.25 -0.8125 2.078125q-0.796875 0.828125 -2.03125 0.828125q-0.75 0 -1.453125 -0.34375q-0.6875 -0.34375 -1.046875 -1.0q-0.359375 -0.671875 -0.359375 -1.625zm1.5 0.078125q0 0.828125 0.390625 1.265625q0.390625 0.4375 0.96875 0.4375q0.5625 0 0.953125 -0.4375q0.390625 -0.4375 0.390625 -1.265625q0 -0.8125 -0.390625 -1.25q-0.390625 -0.4375 -0.953125 -0.4375q-0.578125 0 -0.96875 0.4375q-0.390625 0.4375 -0.390625 1.25zm10.384262 2.765625l-1.46875 0l0 -2.8125q0 -0.90625 -0.09375 -1.15625q-0.09375 -0.265625 -0.3125 -0.40625q-0.203125 -0.15625 -0.5 -0.15625q-0.375 0 -0.6875 0.21875q-0.296875 0.203125 -0.40625 0.546875q-0.109375 0.34375 -0.109375 1.265625l0 2.5l-1.46875 0l0 -5.53125l1.359375 0l0 0.8125q0.71875 -0.9375 1.828125 -0.9375q0.484375 0 0.875 0.1875q0.40625 0.171875 0.609375 0.4375q0.203125 0.265625 0.28125 0.609375q0.09375 0.34375 0.09375 0.984375l0 3.4375z" fill-rule="nonzero"/><path fill="#fce5cd" d="m12.155927 114.9603l64.59842 0l0 21.259842l-64.59842 0z" fill-rule="evenodd"/><path stroke="#a72a1e" stroke-width="2.0" stroke-linejoin="round" stroke-linecap="butt" d="m12.155927 114.9603l64.59842 0l0 21.259842l-64.59842 0z" fill-rule="evenodd"/><path fill="#a72a1e" d="m35.795128 129.33022l0 -7.5625l1.546875 0l0 6.28125l3.828125 0l0 1.28125l-5.375 0zm6.462387 -6.28125l0 -1.34375l1.46875 0l0 1.34375l-1.46875 0zm0 6.28125l0 -5.53125l1.46875 0l0 5.53125l-1.46875 0zm2.4450226 -1.578125l1.46875 -0.21875q0.09375 0.421875 0.375 0.640625q0.296875 0.21875 0.796875 0.21875q0.578125 0 0.859375 -0.203125q0.1875 -0.140625 0.1875 -0.390625q0 -0.171875 -0.09375 -0.28125q-0.109375 -0.09375 -0.5 -0.1875q-1.765625 -0.390625 -2.234375 -0.703125q-0.65625 -0.453125 -0.65625 -1.25q0 -0.71875 0.5625 -1.203125q0.578125 -0.5 1.765625 -0.5q1.125 0 1.671875 0.375q0.5625 0.375 0.765625 1.09375l-1.375 0.25q-0.09375 -0.3125 -0.34375 -0.484375q-0.234375 -0.171875 -0.703125 -0.171875q-0.5625 0 -0.8125 0.15625q-0.171875 0.109375 -0.171875 0.296875q0 0.15625 0.140625 0.265625q0.203125 0.140625 1.359375 0.40625q1.171875 0.265625 1.640625 0.65625q0.453125 0.390625 0.453125 1.078125q0 0.765625 -0.640625 1.3125q-0.625 0.546875 -1.875 0.546875q-1.125 0 -1.78125 -0.453125q-0.65625 -0.46875 -0.859375 -1.25zm8.973373 -3.953125l0 1.171875l-1.0 0l0 2.21875q0 0.6875 0.03125 0.796875q0.03125 0.109375 0.125 0.1875q0.109375 0.0625 0.25 0.0625q0.203125 0 0.59375 -0.140625l0.125 1.140625q-0.515625 0.21875 -1.15625 0.21875q-0.390625 0 -0.71875 -0.125q-0.3125 -0.140625 -0.46875 -0.34375q-0.140625 -0.21875 -0.203125 -0.578125q-0.046875 -0.25 -0.046875 -1.03125l0 -2.40625l-0.671875 0l0 -1.171875l0.671875 0l0 -1.09375l1.46875 -0.859375l0 1.953125l1.0 0z" fill-rule="nonzero"/><path fill="#fce5cd" d="m160.97906 121.45242l64.598434 0l0 21.259842l-64.598434 0z" fill-rule="evenodd"/><path stroke="#a72a1e" stroke-width="2.0" stroke-linejoin="round" stroke-linecap="butt" d="m160.97906 121.45242l64.598434 0l0 21.259842l-64.598434 0z" fill-rule="evenodd"/><path fill="#a72a1e" d="m183.62001 134.85359q0.5625 0.40625 1.21875 0.640625l-0.5625 1.09375q-0.34375 -0.109375 -0.671875 -0.28125q-0.078125 -0.046875 -1.03125 -0.6875q-0.75 0.328125 -1.65625 0.328125q-1.765625 0 -2.765625 -1.03125q-0.984375 -1.03125 -0.984375 -2.90625q0 -1.875 1.0 -2.90625q1.0 -1.046875 2.703125 -1.046875q1.703125 0 2.6875 1.046875q1.0 1.03125 1.0 2.90625q0 0.984375 -0.28125 1.734375q-0.203125 0.578125 -0.65625 1.109375zm-1.25 -0.875q0.296875 -0.34375 0.4375 -0.828125q0.15625 -0.5 0.15625 -1.140625q0 -1.328125 -0.578125 -1.96875q-0.578125 -0.65625 -1.53125 -0.65625q-0.9375 0 -1.53125 0.65625q-0.578125 0.65625 -0.578125 1.96875q0 1.328125 0.578125 2.0q0.59375 0.65625 1.484375 0.65625q0.34375 0 0.640625 -0.109375q-0.46875 -0.296875 -0.953125 -0.46875l0.421875 -0.890625q0.765625 0.265625 1.453125 0.78125zm7.0231476 1.84375l0 -0.828125q-0.3125 0.4375 -0.8125 0.703125q-0.484375 0.25 -1.015625 0.25q-0.5625 0 -1.015625 -0.234375q-0.4375 -0.25 -0.640625 -0.6875q-0.1875 -0.453125 -0.1875 -1.234375l0 -3.5l1.46875 0l0 2.546875q0 1.15625 0.078125 1.421875q0.078125 0.265625 0.28125 0.421875q0.21875 0.15625 0.546875 0.15625q0.375 0 0.671875 -0.203125q0.296875 -0.21875 0.40625 -0.515625q0.109375 -0.3125 0.109375 -1.484375l0 -2.34375l1.46875 0l0 5.53125l-1.359375 0zm6.071762 -1.765625l1.453125 0.25q-0.28125 0.796875 -0.890625 1.21875q-0.609375 0.421875 -1.515625 0.421875q-1.4375 0 -2.125 -0.9375q-0.546875 -0.765625 -0.546875 -1.90625q0 -1.375 0.71875 -2.15625q0.71875 -0.78125 1.8125 -0.78125q1.234375 0 1.9375 0.828125q0.71875 0.8125 0.6875 2.484375l-3.65625 0q0.015625 0.65625 0.34375 1.015625q0.34375 0.359375 0.84375 0.359375q0.34375 0 0.578125 -0.1875q0.234375 -0.1875 0.359375 -0.609375zm0.078125 -1.46875q-0.015625 -0.640625 -0.328125 -0.96875q-0.3125 -0.328125 -0.765625 -0.328125q-0.46875 0 -0.78125 0.34375q-0.3125 0.359375 -0.3125 0.953125l2.1875 0zm6.2858734 3.234375l0 -0.828125q-0.3125 0.4375 -0.8125 0.703125q-0.484375 0.25 -1.015625 0.25q-0.5625 0 -1.015625 -0.234375q-0.4375 -0.25 -0.640625 -0.6875q-0.1875 -0.453125 -0.1875 -1.234375l0 -3.5l1.46875 0l0 2.546875q0 1.15625 0.078125 1.421875q0.078125 0.265625 0.28125 0.421875q0.21875 0.15625 0.546875 0.15625q0.375 0 0.671875 -0.203125q0.296875 -0.21875 0.40625 -0.515625q0.109375 -0.3125 0.109375 -1.484375l0 -2.34375l1.46875 0l0 5.53125l-1.359375 0zm6.071762 -1.765625l1.453125 0.25q-0.28125 0.796875 -0.890625 1.21875q-0.609375 0.421875 -1.515625 0.421875q-1.4375 0 -2.125 -0.9375q-0.546875 -0.765625 -0.546875 -1.90625q0 -1.375 0.71875 -2.15625q0.71875 -0.78125 1.8125 -0.78125q1.234375 0 1.9375 0.828125q0.71875 0.8125 0.6875 2.484375l-3.65625 0q0.015625 0.65625 0.34375 1.015625q0.34375 0.359375 0.84375 0.359375q0.34375 0 0.578125 -0.1875q0.234375 -0.1875 0.359375 -0.609375zm0.078125 -1.46875q-0.015625 -0.640625 -0.328125 -0.96875q-0.3125 -0.328125 -0.765625 -0.328125q-0.46875 0 -0.78125 0.34375q-0.3125 0.359375 -0.3125 0.953125l2.1875 0z" fill-rule="nonzero"/><path fill="#f4cccc" d="m240.65857 183.53674l68.031494 0l0 21.259842l-68.031494 0z" fill-rule="evenodd"/><path stroke="#a72a1e" stroke-width="2.0" stroke-linejoin="round" stroke-linecap="butt" d="m240.65857 183.53674l68.031494 0l0 21.259842l-68.031494 0z" fill-rule="evenodd"/><path fill="#a72a1e" d="m249.89943 195.42229l1.5 -0.140625q0.125 0.75 0.53125 1.109375q0.421875 0.34375 1.125 0.34375q0.75 0 1.125 -0.3125q0.375 -0.3125 0.375 -0.734375q0 -0.265625 -0.15625 -0.453125q-0.15625 -0.1875 -0.5625 -0.328125q-0.265625 -0.09375 -1.234375 -0.34375q-1.234375 -0.296875 -1.734375 -0.75q-0.703125 -0.625 -0.703125 -1.53125q0 -0.59375 0.328125 -1.09375q0.34375 -0.515625 0.953125 -0.78125q0.625 -0.265625 1.5 -0.265625q1.4375 0 2.15625 0.640625q0.734375 0.625 0.78125 1.671875l-1.546875 0.078125q-0.09375 -0.59375 -0.421875 -0.84375q-0.328125 -0.265625 -0.984375 -0.265625q-0.671875 0 -1.046875 0.28125q-0.234375 0.171875 -0.234375 0.46875q0 0.265625 0.21875 0.46875q0.296875 0.234375 1.421875 0.5q1.125 0.265625 1.65625 0.5625q0.546875 0.28125 0.84375 0.78125q0.31251526 0.484375 0.31251526 1.203125q0 0.65625 -0.37501526 1.234375q-0.359375 0.5625 -1.03125 0.84375q-0.65625 0.28125 -1.65625 0.28125q-1.4375 0 -2.21875 -0.671875q-0.78125 -0.671875 -0.921875 -1.953125zm7.1389008 -0.359375q0 -0.71875 0.359375 -1.40625q0.359375 -0.6875 1.015625 -1.046875q0.671875 -0.359375 1.46875 -0.359375q1.265625 0 2.0625 0.828125q0.796875 0.8125 0.796875 2.046875q0 1.25 -0.8125 2.078125q-0.796875 0.828125 -2.03125 0.828125q-0.75 0 -1.453125 -0.34375q-0.6875 -0.34375 -1.046875 -1.0q-0.359375 -0.671875 -0.359375 -1.625zm1.5 0.078125q0 0.828125 0.390625 1.265625q0.390625 0.4375 0.96875 0.4375q0.5625 0 0.953125 -0.4375q0.390625 -0.4375 0.390625 -1.265625q0 -0.8125 -0.390625 -1.25q-0.390625 -0.4375 -0.953125 -0.4375q-0.578125 0 -0.96875 0.4375q-0.390625 0.4375 -0.390625 1.25zm6.759247 2.765625l-1.46875 0l0 -5.53125l1.359375 0l0 0.796875q0.34375 -0.5625 0.625 -0.734375q0.28125 -0.1875 0.625 -0.1875q0.5 0 0.96875 0.28125l-0.453125 1.28125q-0.375 -0.25 -0.6875 -0.25q-0.3125 0 -0.53125 0.171875q-0.203125 0.171875 -0.328125 0.625q-0.109375 0.4375 -0.109375 1.84375l0 1.703125zm5.272003 -5.53125l0 1.171875l-1.0 0l0 2.21875q0 0.6875 0.03125 0.796875q0.03125 0.109375 0.125 0.1875q0.109375 0.0625 0.25 0.0625q0.203125 0 0.59375 -0.140625l0.125 1.140625q-0.515625 0.21875 -1.15625 0.21875q-0.390625 0 -0.71875 -0.125q-0.3125 -0.140625 -0.46875 -0.34375q-0.140625 -0.21875 -0.203125 -0.578125q-0.046875 -0.25 -0.046875 -1.03125l0 -2.40625l-0.671875 0l0 -1.171875l0.671875 0l0 -1.09375l1.46875 -0.859375l0 1.953125l1.0 0zm4.2204895 3.765625l1.453125 0.25q-0.28125 0.796875 -0.890625 1.21875q-0.609375 0.421875 -1.515625 0.421875q-1.4375 0 -2.125 -0.9375q-0.546875 -0.765625 -0.546875 -1.90625q0 -1.375 0.71875 -2.15625q0.71875 -0.78125 1.8125 -0.78125q1.234375 0 1.9375 0.828125q0.71875 0.8125 0.6875 2.484375l-3.65625 0q0.015625 0.65625 0.34375 1.015625q0.34375 0.359375 0.84375 0.359375q0.34375 0 0.578125 -0.1875q0.234375 -0.1875 0.359375 -0.609375zm0.078125 -1.46875q-0.015625 -0.640625 -0.328125 -0.96875q-0.3125 -0.328125 -0.765625 -0.328125q-0.46875 0 -0.78125 0.34375q-0.3125 0.359375 -0.3125 0.953125l2.1875 0zm7.707733 3.234375l-1.359375 0l0 -0.8125q-0.328125 0.46875 -0.796875 0.703125q-0.453125 0.234375 -0.921875 0.234375q-0.953125 0 -1.640625 -0.765625q-0.671875 -0.765625 -0.671875 -2.140625q0 -1.40625 0.65625 -2.140625q0.671875 -0.734375 1.671875 -0.734375q0.921875 0 1.609375 0.78125l0 -2.75l1.453125 0l0 7.625zm-3.890625 -2.875q0 0.875 0.234375 1.265625q0.359375 0.578125 0.984375 0.578125q0.515625 0 0.859375 -0.421875q0.359375 -0.4375 0.359375 -1.28125q0 -0.953125 -0.34375 -1.375q-0.34375 -0.421875 -0.875 -0.421875q-0.515625 0 -0.875 0.421875q-0.34375 0.40625 -0.34375 1.234375zm4.9624023 0.390625l1.5 -0.140625q0.125 0.75 0.53125 1.109375q0.421875 0.34375 1.125 0.34375q0.75 0 1.125 -0.3125q0.375 -0.3125 0.375 -0.734375q0 -0.265625 -0.15625 -0.453125q-0.15625 -0.1875 -0.5625 -0.328125q-0.265625 -0.09375 -1.234375 -0.34375q-1.234375 -0.296875 -1.734375 -0.75q-0.703125 -0.625 -0.703125 -1.53125q0 -0.59375 0.328125 -1.09375q0.34375 -0.515625 0.953125 -0.78125q0.625 -0.265625 1.5 -0.265625q1.4375 0 2.15625 0.640625q0.734375 0.625 0.78125 1.671875l-1.546875 0.078125q-0.09375 -0.59375 -0.421875 -0.84375q-0.328125 -0.265625 -0.984375 -0.265625q-0.671875 0 -1.046875 0.28125q-0.234375 0.171875 -0.234375 0.46875q0 0.265625 0.21875 0.46875q0.296875 0.234375 1.421875 0.5q1.125 0.265625 1.65625 0.5625q0.546875 0.28125 0.84375 0.78125q0.3125 0.484375 0.3125 1.203125q0 0.65625 -0.375 1.234375q-0.359375 0.5625 -1.03125 0.84375q-0.65625 0.28125 -1.65625 0.28125q-1.4375 0 -2.21875 -0.671875q-0.78125 -0.671875 -0.921875 -1.953125zm10.6857605 0.71875l1.453125 0.25q-0.28125 0.796875 -0.890625 1.21875q-0.609375 0.421875 -1.515625 0.421875q-1.4375 0 -2.125 -0.9375q-0.546875 -0.765625 -0.546875 -1.90625q0 -1.375 0.71875 -2.15625q0.71875 -0.78125 1.8125 -0.78125q1.234375 0 1.9375 0.828125q0.71875 0.8125 0.6875 2.484375l-3.65625 0q0.015625 0.65625 0.34375 1.015625q0.34375 0.359375 0.84375 0.359375q0.34375 0 0.578125 -0.1875q0.234375 -0.1875 0.359375 -0.609375zm0.078125 -1.46875q-0.015625 -0.640625 -0.328125 -0.96875q-0.3125 -0.328125 -0.765625 -0.328125q-0.46875 0 -0.78125 0.34375q-0.3125 0.359375 -0.3125 0.953125l2.1875 0zm5.176483 -2.296875l0 1.171875l-1.0 0l0 2.21875q0 0.6875 0.03125 0.796875q0.03125 0.109375 0.125 0.1875q0.109375 0.0625 0.25 0.0625q0.203125 0 0.59375 -0.140625l0.125 1.140625q-0.515625 0.21875 -1.15625 0.21875q-0.390625 0 -0.71875 -0.125q-0.3125 -0.140625 -0.46875 -0.34375q-0.140625 -0.21875 -0.203125 -0.578125q-0.046875 -0.25 -0.046875 -1.03125l0 -2.40625l-0.671875 0l0 -1.171875l0.671875 0l0 -1.09375l1.46875 -0.859375l0 1.953125l1.0 0z" fill-rule="nonzero"/><path fill="#f4cccc" d="m160.93045 161.95276l64.6929 0l0 21.259842l-64.6929 0z" fill-rule="evenodd"/><path stroke="#a72a1e" stroke-width="2.0" stroke-linejoin="round" stroke-linecap="butt" d="m160.93045 161.95276l64.6929 0l0 21.259842l-64.6929 0z" fill-rule="evenodd"/><path fill="#a72a1e" d="m177.75897 168.69768l2.8125 0q0.953125 0 1.453125 0.140625q0.671875 0.203125 1.15625 0.703125q0.484375 0.5 0.734375 1.234375q0.25 0.734375 0.25 1.8125q0 0.9375 -0.234375 1.609375q-0.296875 0.84375 -0.828125 1.359375q-0.390625 0.390625 -1.078125 0.609375q-0.515625 0.15625 -1.359375 0.15625l-2.90625 0l0 -7.625zm1.546875 1.28125l0 5.0625l1.140625 0q0.65625 0 0.9375 -0.078125q0.375 -0.09375 0.625 -0.3125q0.25 -0.234375 0.40625 -0.734375q0.15625 -0.515625 0.15625 -1.40625q0 -0.875 -0.15625 -1.34375q-0.15625 -0.484375 -0.4375 -0.75q-0.28125 -0.265625 -0.71875 -0.359375q-0.328125 -0.078125 -1.265625 -0.078125l-0.6875 0zm9.351852 4.578125l1.453125 0.25q-0.28125 0.796875 -0.890625 1.21875q-0.609375 0.421875 -1.515625 0.421875q-1.4375 0 -2.125 -0.9375q-0.546875 -0.765625 -0.546875 -1.90625q0 -1.375 0.71875 -2.15625q0.71875 -0.78125 1.8125 -0.78125q1.234375 0 1.9375 0.828125q0.71875 0.8125 0.6875 2.484375l-3.65625 0q0.015625 0.65625 0.34375 1.015625q0.34375 0.359375 0.84375 0.359375q0.34375 0 0.578125 -0.1875q0.234375 -0.1875 0.359375 -0.609375zm0.078125 -1.46875q-0.015625 -0.640625 -0.328125 -0.96875q-0.3125 -0.328125 -0.765625 -0.328125q-0.46875 0 -0.78125 0.34375q-0.3125 0.359375 -0.3125 0.953125l2.1875 0zm6.2546234 5.34375l0 -2.78125q-0.28125 0.359375 -0.71875 0.578125q-0.421875 0.21875 -0.921875 0.21875q-0.9375 0 -1.546875 -0.703125q-0.71875 -0.828125 -0.71875 -2.25q0 -1.328125 0.671875 -2.078125q0.6875 -0.75 1.671875 -0.75q0.5625 0 0.953125 0.234375q0.40625 0.234375 0.71875 0.71875l0 -0.828125l1.359375 0l0 7.640625l-1.46875 0zm0.046875 -4.9375q0 -0.84375 -0.34375 -1.25q-0.34375 -0.421875 -0.875 -0.421875q-0.53125 0 -0.890625 0.421875q-0.34375 0.421875 -0.34375 1.328125q0 0.90625 0.34375 1.3125q0.34375 0.40625 0.84375 0.40625q0.5 0 0.875 -0.453125q0.390625 -0.453125 0.390625 -1.34375zm6.493637 2.828125l0 -0.828125q-0.3125 0.4375 -0.8125 0.703125q-0.484375 0.25 -1.015625 0.25q-0.5625 0 -1.015625 -0.234375q-0.4375 -0.25 -0.640625 -0.6875q-0.1875 -0.453125 -0.1875 -1.234375l0 -3.5l1.46875 0l0 2.546875q0 1.15625 0.078125 1.421875q0.078125 0.265625 0.28125 0.421875q0.21875 0.15625 0.546875 0.15625q0.375 0 0.671875 -0.203125q0.296875 -0.21875 0.40625 -0.515625q0.109375 -0.3125 0.109375 -1.484375l0 -2.34375l1.46875 0l0 5.53125l-1.359375 0zm6.071762 -1.765625l1.453125 0.25q-0.28125 0.796875 -0.890625 1.21875q-0.609375 0.421875 -1.515625 0.421875q-1.4375 0 -2.125 -0.9375q-0.546875 -0.765625 -0.546875 -1.90625q0 -1.375 0.71875 -2.15625q0.71875 -0.78125 1.8125 -0.78125q1.234375 0 1.9375 0.828125q0.71875 0.8125 0.6875 2.484375l-3.65625 0q0.015625 0.65625 0.34375 1.015625q0.34375 0.359375 0.84375 0.359375q0.34375 0 0.578125 -0.1875q0.234375 -0.1875 0.359375 -0.609375zm0.078125 -1.46875q-0.015625 -0.640625 -0.328125 -0.96875q-0.3125 -0.328125 -0.765625 -0.328125q-0.46875 0 -0.78125 0.34375q-0.3125 0.359375 -0.3125 0.953125l2.1875 0z" fill-rule="nonzero"/><path fill="#d9ead3" d="m77.2979 208.94357l68.031494 0l0 21.259842l-68.031494 0z" fill-rule="evenodd"/><path stroke="#38761d" stroke-width="2.0" stroke-linejoin="round" stroke-linecap="butt" d="m77.2979 208.94357l68.031494 0l0 21.259842l-68.031494 0z" fill-rule="evenodd"/><path fill="#9900ff" d="m85.482925 223.31349l0 -7.5625l1.546875 0l0 6.28125l3.828125 0l0 1.28125l-5.375 0zm6.462387 -6.28125l0 -1.34375l1.46875 0l0 1.34375l-1.46875 0zm0 6.28125l0 -5.53125l1.46875 0l0 5.53125l-1.46875 0zm7.9918976 0l-1.46875 0l0 -2.8125q0 -0.90625 -0.09375 -1.15625q-0.09375 -0.265625 -0.3125 -0.40625q-0.203125 -0.15625 -0.5 -0.15625q-0.375 0 -0.6875 0.21875q-0.296875 0.203125 -0.40625 0.546875q-0.109375 0.34375 -0.109375 1.265625l0 2.5l-1.46875 0l0 -5.53125l1.359375 0l0 0.8125q0.71875 -0.9375 1.828125 -0.9375q0.484375 0 0.875 0.1875q0.40625 0.171875 0.609375 0.4375q0.203125 0.265625 0.28125 0.609375q0.09375 0.34375 0.09375 0.984375l0 3.4375zm1.4311371 0l0 -7.625l1.453125 0l0 4.046875l1.71875 -1.953125l1.796875 0l-1.890625 2.03125l2.03125 3.5l-1.578125 0l-1.390625 -2.484375l-0.6875 0.71875l0 1.765625l-1.453125 0zm9.176491 -1.765625l1.453125 0.25q-0.28125 0.796875 -0.890625 1.21875q-0.609375 0.421875 -1.515625 0.421875q-1.4374924 0 -2.1249924 -0.9375q-0.546875 -0.765625 -0.546875 -1.90625q0 -1.375 0.71875 -2.15625q0.71875 -0.78125 1.8124924 -0.78125q1.234375 0 1.9375 0.828125q0.71875 0.8125 0.6875 2.484375l-3.6562424 0q0.015625 0.65625 0.34375 1.015625q0.34375 0.359375 0.8437424 0.359375q0.34375 0 0.578125 -0.1875q0.234375 -0.1875 0.359375 -0.609375zm0.078125 -1.46875q-0.015625 -0.640625 -0.328125 -0.96875q-0.3125 -0.328125 -0.765625 -0.328125q-0.46874237 0 -0.7812424 0.34375q-0.3125 0.359375 -0.3125 0.953125l2.1874924 0zm7.7077484 3.234375l-1.359375 0l0 -0.8125q-0.328125 0.46875 -0.796875 0.703125q-0.453125 0.234375 -0.921875 0.234375q-0.953125 0 -1.640625 -0.765625q-0.671875 -0.765625 -0.671875 -2.140625q0 -1.40625 0.65625 -2.140625q0.671875 -0.734375 1.671875 -0.734375q0.921875 0 1.609375 0.78125l0 -2.75l1.453125 0l0 7.625zm-3.890625 -2.875q0 0.875 0.234375 1.265625q0.359375 0.578125 0.984375 0.578125q0.515625 0 0.859375 -0.421875q0.359375 -0.4375 0.359375 -1.28125q0 -0.953125 -0.34375 -1.375q-0.34375 -0.421875 -0.875 -0.421875q-0.515625 0 -0.875 0.421875q-0.34375 0.40625 -0.34375 1.234375zm5.384262 2.875l0 -7.5625l1.546875 0l0 6.28125l3.828125 0l0 1.28125l-5.375 0zm6.462387 -6.28125l0 -1.34375l1.46875 0l0 1.34375l-1.46875 0zm0 6.28125l0 -5.53125l1.46875 0l0 5.53125l-1.46875 0zm2.4450302 -1.578125l1.46875 -0.21875q0.09375 0.421875 0.375 0.640625q0.296875 0.21875 0.796875 0.21875q0.578125 0 0.859375 -0.203125q0.1875 -0.140625 0.1875 -0.390625q0 -0.171875 -0.09375 -0.28125q-0.109375 -0.09375 -0.5 -0.1875q-1.765625 -0.390625 -2.234375 -0.703125q-0.65625 -0.453125 -0.65625 -1.25q0 -0.71875 0.5625 -1.203125q0.578125 -0.5 1.765625 -0.5q1.125 0 1.671875 0.375q0.5625 0.375 0.765625 1.09375l-1.375 0.25q-0.09375 -0.3125 -0.34375 -0.484375q-0.234375 -0.171875 -0.703125 -0.171875q-0.5625 0 -0.8125 0.15625q-0.171875 0.109375 -0.171875 0.296875q0 0.15625 0.140625 0.265625q0.203125 0.140625 1.359375 0.40625q1.171875 0.265625 1.640625 0.65625q0.453125 0.390625 0.453125 1.078125q0 0.765625 -0.640625 1.3125q-0.625 0.546875 -1.875 0.546875q-1.125 0 -1.78125 -0.453125q-0.65625 -0.46875 -0.859375 -1.25zm8.973373 -3.953125l0 1.171875l-1.0 0l0 2.21875q0 0.6875 0.03125 0.796875q0.03125 0.109375 0.125 0.1875q0.109375 0.0625 0.25 0.0625q0.203125 0 0.59375 -0.140625l0.125 1.140625q-0.515625 0.21875 -1.15625 0.21875q-0.390625 0 -0.71875 -0.125q-0.3125 -0.140625 -0.46875 -0.34375q-0.140625 -0.21875 -0.203125 -0.578125q-0.046875 -0.25 -0.046875 -1.03125l0 -2.40625l-0.671875 0l0 -1.171875l0.671875 0l0 -1.09375l1.46875 -0.859375l0 1.953125l1.0 0z" fill-rule="nonzero"/><path fill="#d9ead3" d="m77.29803 251.32545l68.03149 0l0 21.259842l-68.03149 0z" fill-rule="evenodd"/><path stroke="#38761d" stroke-width="2.0" stroke-linejoin="round" stroke-linecap="butt" d="m77.29803 251.32545l68.03149 0l0 21.259842l-68.03149 0z" fill-rule="evenodd"/><path fill="#9900ff" d="m95.576225 265.69537l-1.671875 0l-0.671875 -1.734375l-3.046875 0l-0.625 1.734375l-1.640625 0l2.96875 -7.625l1.625 0l3.0625 7.625zm-2.84375 -3.015625l-1.046875 -2.828125l-1.03125 2.828125l2.078125 0zm5.0549774 3.015625l-1.46875 0l0 -5.53125l1.359375 0l0 0.796875q0.34375 -0.5625 0.625 -0.734375q0.28125 -0.1875 0.625 -0.1875q0.5 0 0.96875 0.28125l-0.453125 1.28125q-0.375 -0.25 -0.6875 -0.25q-0.3125 0 -0.53125 0.171875q-0.203125 0.171875 -0.328125 0.625q-0.109375 0.4375 -0.109375 1.84375l0 1.703125zm4.146988 0l-1.46875 0l0 -5.53125l1.359375 0l0 0.796875q0.34375 -0.5625 0.625 -0.734375q0.28125 -0.1875 0.625 -0.1875q0.5 0 0.96875 0.28125l-0.453125 1.28125q-0.375 -0.25 -0.6875 -0.25q-0.3125 0 -0.53125 0.171875q-0.203125 0.171875 -0.328125 0.625q-0.109375 0.4375 -0.109375 1.84375l0 1.703125zm3.834488 -3.84375l-1.328125 -0.234375q0.21875 -0.796875 0.765625 -1.1875q0.546875 -0.390625 1.625 -0.390625q0.984375 0 1.453125 0.234375q0.484375 0.234375 0.671875 0.59375q0.203125 0.359375 0.203125 1.3125l-0.015625 1.703125q0 0.71875 0.0625 1.078125q0.078125 0.34375 0.265625 0.734375l-1.4375 0q-0.0625 -0.140625 -0.140625 -0.4375q-0.046875 -0.125 -0.0625 -0.171875q-0.375 0.375 -0.796875 0.5625q-0.421875 0.171875 -0.90625 0.171875q-0.859375 0 -1.359375 -0.453125q-0.484375 -0.46875 -0.484375 -1.1875q0 -0.46875 0.21875 -0.828125q0.234375 -0.359375 0.640625 -0.546875q0.40625 -0.203125 1.15625 -0.359375q1.03125 -0.1875 1.421875 -0.359375l0 -0.140625q0 -0.421875 -0.21875 -0.59375q-0.203125 -0.1875 -0.78125 -0.1875q-0.375 0 -0.59375 0.15625q-0.21875 0.15625 -0.359375 0.53125zm1.953125 1.1875q-0.28125 0.09375 -0.890625 0.234375q-0.609375 0.125 -0.796875 0.25q-0.28125 0.203125 -0.28125 0.515625q0 0.296875 0.21875 0.53125q0.234375 0.21875 0.59375 0.21875q0.390625 0 0.75 -0.265625q0.265625 -0.1875 0.34375 -0.484375q0.0625 -0.1875 0.0625 -0.703125l0 -0.296875zm2.1921234 -2.875l1.546875 0l1.328125 3.921875l1.28125 -3.921875l1.515625 0l-1.953125 5.328125l-0.34375 0.953125q-0.1875 0.484375 -0.375 0.734375q-0.171875 0.265625 -0.390625 0.421875q-0.21875 0.15625 -0.5625 0.25q-0.328125 0.09375 -0.734375 0.09375q-0.421875 0 -0.828125 -0.09375l-0.140625 -1.140625q0.34375 0.0625 0.625 0.0625q0.515625 0 0.75 -0.296875q0.25 -0.296875 0.375 -0.765625l-2.09375 -5.546875zm6.6608734 5.53125l0 -7.5625l1.546875 0l0 6.28125l3.828125 0l0 1.28125l-5.375 0zm6.462387 -6.28125l0 -1.34375l1.46875 0l0 1.34375l-1.46875 0zm0 6.28125l0 -5.53125l1.46875 0l0 5.53125l-1.46875 0zm2.4450226 -1.578125l1.46875 -0.21875q0.09375 0.421875 0.375 0.640625q0.296875 0.21875 0.7968674 0.21875q0.578125 0 0.859375 -0.203125q0.1875 -0.140625 0.1875 -0.390625q0 -0.171875 -0.09375 -0.28125q-0.109375 -0.09375 -0.5 -0.1875q-1.7656174 -0.390625 -2.2343674 -0.703125q-0.65625 -0.453125 -0.65625 -1.25q0 -0.71875 0.5625 -1.203125q0.578125 -0.5 1.7656174 -0.5q1.125 0 1.671875 0.375q0.5625 0.375 0.765625 1.09375l-1.375 0.25q-0.09375 -0.3125 -0.34375 -0.484375q-0.234375 -0.171875 -0.703125 -0.171875q-0.5624924 0 -0.8124924 0.15625q-0.171875 0.109375 -0.171875 0.296875q0 0.15625 0.140625 0.265625q0.203125 0.140625 1.3593674 0.40625q1.171875 0.265625 1.640625 0.65625q0.453125 0.390625 0.453125 1.078125q0 0.765625 -0.640625 1.3125q-0.625 0.546875 -1.875 0.546875q-1.1249924 0 -1.7812424 -0.453125q-0.65625 -0.46875 -0.859375 -1.25zm8.973366 -3.953125l0 1.171875l-1.0 0l0 2.21875q0 0.6875 0.03125 0.796875q0.03125 0.109375 0.125 0.1875q0.109375 0.0625 0.25 0.0625q0.203125 0 0.59375 -0.140625l0.125 1.140625q-0.515625 0.21875 -1.15625 0.21875q-0.390625 0 -0.71875 -0.125q-0.3125 -0.140625 -0.46875 -0.34375q-0.140625 -0.21875 -0.203125 -0.578125q-0.046875 -0.25 -0.046875 -1.03125l0 -2.40625l-0.671875 0l0 -1.171875l0.671875 0l0 -1.09375l1.46875 -0.859375l0 1.953125l1.0 0z" fill-rule="nonzero"/><path fill="#d9ead3" d="m318.35492 88.87833l56.566925 0l0 21.259842l-56.566925 0z" fill-rule="evenodd"/><path stroke="#38761d" stroke-width="2.0" stroke-linejoin="round" stroke-linecap="butt" d="m318.35492 88.87833l56.566925 0l0 21.259842l-56.566925 0z" fill-rule="evenodd"/><path fill="#9900ff" d="m326.09933 103.248245l0 -7.625l1.546875 0l0 3.0l3.015625 0l0 -3.0l1.53125 0l0 7.625l-1.53125 0l0 -3.328125l-3.015625 0l0 3.328125l-1.546875 0zm8.773712 -3.84375l-1.328125 -0.234375q0.21875 -0.796875 0.765625 -1.1875q0.546875 -0.390625 1.625 -0.390625q0.984375 0 1.453125 0.234375q0.484375 0.234375 0.671875 0.59375q0.203125 0.359375 0.203125 1.3125l-0.015625 1.703125q0 0.71875 0.0625 1.078125q0.078125 0.34375 0.265625 0.734375l-1.4375 0q-0.0625 -0.140625 -0.140625 -0.4375q-0.046875 -0.125 -0.0625 -0.171875q-0.375 0.375 -0.796875 0.5625q-0.421875 0.171875 -0.90625 0.171875q-0.859375 0 -1.359375 -0.453125q-0.484375 -0.46875 -0.484375 -1.1875q0 -0.46875 0.21875 -0.828125q0.234375 -0.359375 0.640625 -0.546875q0.40625 -0.203125 1.15625 -0.359375q1.03125 -0.1875 1.421875 -0.359375l0 -0.140625q0 -0.421875 -0.21875 -0.59375q-0.203125 -0.1875 -0.78125 -0.1875q-0.375 0 -0.59375 0.15625q-0.21875 0.15625 -0.359375 0.53125zm1.953125 1.1875q-0.28125 0.09375 -0.890625 0.234375q-0.609375 0.125 -0.796875 0.25q-0.28125 0.203125 -0.28125 0.515625q0 0.296875 0.21875 0.53125q0.234375 0.21875 0.59375 0.21875q0.390625 0 0.75 -0.265625q0.265625 -0.1875 0.34375 -0.484375q0.0625 -0.1875 0.0625 -0.703125l0 -0.296875zm2.3640137 1.078125l1.46875 -0.21875q0.09375 0.421875 0.375 0.640625q0.296875 0.21875 0.796875 0.21875q0.578125 0 0.859375 -0.203125q0.1875 -0.140625 0.1875 -0.390625q0 -0.171875 -0.09375 -0.28125q-0.109375 -0.09375 -0.5 -0.1875q-1.765625 -0.390625 -2.234375 -0.703125q-0.65625 -0.453125 -0.65625 -1.25q0 -0.71875 0.5625 -1.203125q0.578125 -0.5 1.765625 -0.5q1.125 0 1.671875 0.375q0.5625 0.375 0.765625 1.09375l-1.375 0.25q-0.09375 -0.3125 -0.34375 -0.484375q-0.234375 -0.171875 -0.703125 -0.171875q-0.5625 0 -0.8125 0.15625q-0.171875 0.109375 -0.171875 0.296875q0 0.15625 0.140625 0.265625q0.203125 0.140625 1.359375 0.40625q1.171875 0.265625 1.640625 0.65625q0.453125 0.390625 0.453125 1.078125q0 0.765625 -0.640625 1.3125q-0.625 0.546875 -1.875 0.546875q-1.125 0 -1.78125 -0.453125q-0.65625 -0.46875 -0.859375 -1.25zm7.895233 -6.046875l0 2.796875q0.703125 -0.828125 1.6875 -0.828125q0.515625 0 0.921875 0.1875q0.40625 0.1875 0.609375 0.484375q0.203125 0.296875 0.28125 0.65625q0.078125 0.34375 0.078125 1.09375l0 3.234375l-1.46875 0l0 -2.921875q0 -0.859375 -0.09375 -1.09375q-0.078125 -0.234375 -0.296875 -0.375q-0.203125 -0.140625 -0.515625 -0.140625q-0.359375 0 -0.65625 0.1875q-0.28125 0.171875 -0.421875 0.53125q-0.125 0.34375 -0.125 1.046875l0 2.765625l-1.453125 0l0 -7.625l1.453125 0zm4.6811523 5.140625l1.5 -0.140625q0.125 0.75 0.53125 1.109375q0.421875 0.34375 1.125 0.34375q0.75 0 1.125 -0.3125q0.375 -0.3125 0.375 -0.734375q0 -0.265625 -0.15625 -0.453125q-0.15625 -0.1875 -0.5625 -0.328125q-0.265625 -0.09375 -1.234375 -0.34375q-1.234375 -0.296875 -1.734375 -0.75q-0.703125 -0.625 -0.703125 -1.53125q0 -0.59375 0.328125 -1.09375q0.34375 -0.515625 0.953125 -0.78125q0.625 -0.265625 1.5 -0.265625q1.4375 0 2.15625 0.640625q0.734375 0.625 0.78125 1.671875l-1.546875 0.078125q-0.09375 -0.59375 -0.421875 -0.84375q-0.328125 -0.265625 -0.984375 -0.265625q-0.671875 0 -1.046875 0.28125q-0.234375 0.171875 -0.234375 0.46875q0 0.265625 0.21875 0.46875q0.296875 0.234375 1.421875 0.5q1.125 0.265625 1.65625 0.5625q0.546875 0.28125 0.84375 0.78125q0.3125 0.484375 0.3125 1.203125q0 0.65625 -0.375 1.234375q-0.359375 0.5625 -1.03125 0.84375q-0.65625 0.28125 -1.65625 0.28125q-1.4375 0 -2.21875 -0.671875q-0.78125 -0.671875 -0.921875 -1.953125zm10.6857605 0.71875l1.453125 0.25q-0.28125 0.796875 -0.890625 1.21875q-0.609375 0.421875 -1.515625 0.421875q-1.4375 0 -2.125 -0.9375q-0.546875 -0.765625 -0.546875 -1.90625q0 -1.375 0.71875 -2.15625q0.71875 -0.78125 1.8125 -0.78125q1.234375 0 1.9375 0.828125q0.71875 0.8125 0.6875 2.484375l-3.65625 0q0.015625 0.65625 0.34375 1.015625q0.34375 0.359375 0.84375 0.359375q0.34375 0 0.578125 -0.1875q0.234375 -0.1875 0.359375 -0.609375zm0.078125 -1.46875q-0.015625 -0.640625 -0.328125 -0.96875q-0.3125 -0.328125 -0.765625 -0.328125q-0.46875 0 -0.78125 0.34375q-0.3125 0.359375 -0.3125 0.953125l2.1875 0zm5.176483 -2.296875l0 1.171875l-1.0 0l0 2.21875q0 0.6875 0.03125 0.796875q0.03125 0.109375 0.125 0.1875q0.109375 0.0625 0.25 0.0625q0.203125 0 0.59375 -0.140625l0.125 1.140625q-0.515625 0.21875 -1.15625 0.21875q-0.390625 0 -0.71875 -0.125q-0.3125 -0.140625 -0.46875 -0.34375q-0.140625 -0.21875 -0.203125 -0.578125q-0.046875 -0.25 -0.046875 -1.03125l0 -2.40625l-0.671875 0l0 -1.171875l0.671875 0l0 -1.09375l1.46875 -0.859375l0 1.953125l1.0 0z" fill-rule="nonzero"/><path fill="#d9ead3" d="m157.49986 251.32545l70.99213 0l0 21.259842l-70.99213 0z" fill-rule="evenodd"/><path stroke="#38761d" stroke-width="2.0" stroke-linejoin="round" stroke-linecap="butt" d="m157.49986 251.32545l70.99213 0l0 21.259842l-70.99213 0z" fill-rule="evenodd"/><path fill="#9900ff" d="m170.44733 265.69537l-1.671875 0l-0.671875 -1.734375l-3.046875 0l-0.625 1.734375l-1.640625 0l2.96875 -7.625l1.625 0l3.0625 7.625zm-2.84375 -3.015625l-1.046875 -2.828125l-1.03125 2.828125l2.078125 0zm5.0549774 3.015625l-1.46875 0l0 -5.53125l1.359375 0l0 0.796875q0.34375 -0.5625 0.625 -0.734375q0.28125 -0.1875 0.625 -0.1875q0.5 0 0.96875 0.28125l-0.453125 1.28125q-0.375 -0.25 -0.6875 -0.25q-0.3125 0 -0.53125 0.171875q-0.203125 0.171875 -0.328125 0.625q-0.109375 0.4375 -0.109375 1.84375l0 1.703125zm4.146988 0l-1.46875 0l0 -5.53125l1.359375 0l0 0.796875q0.34375 -0.5625 0.625 -0.734375q0.28125 -0.1875 0.625 -0.1875q0.5 0 0.96875 0.28125l-0.453125 1.28125q-0.375 -0.25 -0.6875 -0.25q-0.3125 0 -0.53125 0.171875q-0.203125 0.171875 -0.328125 0.625q-0.109375 0.4375 -0.109375 1.84375l0 1.703125zm3.834488 -3.84375l-1.328125 -0.234375q0.21875 -0.796875 0.765625 -1.1875q0.546875 -0.390625 1.625 -0.390625q0.984375 0 1.453125 0.234375q0.484375 0.234375 0.671875 0.59375q0.203125 0.359375 0.203125 1.3125l-0.015625 1.703125q0 0.71875 0.0625 1.078125q0.078125 0.34375 0.265625 0.734375l-1.4375 0q-0.0625 -0.140625 -0.140625 -0.4375q-0.046875 -0.125 -0.0625 -0.171875q-0.375 0.375 -0.796875 0.5625q-0.421875 0.171875 -0.90625 0.171875q-0.859375 0 -1.359375 -0.453125q-0.484375 -0.46875 -0.484375 -1.1875q0 -0.46875 0.21875 -0.828125q0.234375 -0.359375 0.640625 -0.546875q0.40625 -0.203125 1.15625 -0.359375q1.03125 -0.1875 1.421875 -0.359375l0 -0.140625q0 -0.421875 -0.21875 -0.59375q-0.203125 -0.1875 -0.78125 -0.1875q-0.375 0 -0.59375 0.15625q-0.21875 0.15625 -0.359375 0.53125zm1.953125 1.1875q-0.28125 0.09375 -0.890625 0.234375q-0.609375 0.125 -0.796875 0.25q-0.28125 0.203125 -0.28125 0.515625q0 0.296875 0.21875 0.53125q0.234375 0.21875 0.59375 0.21875q0.390625 0 0.75 -0.265625q0.265625 -0.1875 0.34375 -0.484375q0.0625 -0.1875 0.0625 -0.703125l0 -0.296875zm2.1921234 -2.875l1.546875 0l1.328125 3.921875l1.28125 -3.921875l1.515625 0l-1.953125 5.328125l-0.34375 0.953125q-0.1875 0.484375 -0.375 0.734375q-0.171875 0.265625 -0.390625 0.421875q-0.21875 0.15625 -0.5625 0.25q-0.328125 0.09375 -0.734375 0.09375q-0.421875 0 -0.828125 -0.09375l-0.140625 -1.140625q0.34375 0.0625 0.625 0.0625q0.515625 0 0.75 -0.296875q0.25 -0.296875 0.375 -0.765625l-2.09375 -5.546875zm6.6139984 -2.09375l2.8125 0q0.953125 0 1.453125 0.140625q0.671875 0.203125 1.15625 0.703125q0.484375 0.5 0.734375 1.234375q0.25 0.734375 0.25 1.8125q0 0.9375 -0.234375 1.609375q-0.296875 0.84375 -0.828125 1.359375q-0.390625 0.390625 -1.078125 0.609375q-0.515625 0.15625 -1.359375 0.15625l-2.90625 0l0 -7.625zm1.546875 1.28125l0 5.0625l1.140625 0q0.65625 0 0.9375 -0.078125q0.375 -0.09375 0.625 -0.3125q0.25 -0.234375 0.40625 -0.734375q0.15625 -0.515625 0.15625 -1.40625q0 -0.875 -0.15625 -1.34375q-0.15625 -0.484375 -0.4375 -0.75q-0.28125 -0.265625 -0.71875 -0.359375q-0.328125 -0.078125 -1.265625 -0.078125l-0.6875 0zm9.351852 4.578125l1.453125 0.25q-0.28125 0.796875 -0.890625 1.21875q-0.609375 0.421875 -1.515625 0.421875q-1.4375 0 -2.125 -0.9375q-0.546875 -0.765625 -0.546875 -1.90625q0 -1.375 0.71875 -2.15625q0.71875 -0.78125 1.8125 -0.78125q1.234375 0 1.9375 0.828125q0.71875 0.8125 0.6875 2.484375l-3.65625 0q0.015625 0.65625 0.34375 1.015625q0.34375 0.359375 0.84375 0.359375q0.34375 0 0.578125 -0.1875q0.234375 -0.1875 0.359375 -0.609375zm0.078125 -1.46875q-0.015625 -0.640625 -0.328125 -0.96875q-0.3125 -0.328125 -0.765625 -0.328125q-0.46875 0 -0.78125 0.34375q-0.3125 0.359375 -0.3125 0.953125l2.1875 0zm6.2546234 5.34375l0 -2.78125q-0.28125 0.359375 -0.71875 0.578125q-0.421875 0.21875 -0.921875 0.21875q-0.9375 0 -1.546875 -0.703125q-0.71875 -0.828125 -0.71875 -2.25q0 -1.328125 0.671875 -2.078125q0.6875 -0.75 1.671875 -0.75q0.5625 0 0.953125 0.234375q0.40625 0.234375 0.71875 0.71875l0 -0.828125l1.359375 0l0 7.640625l-1.46875 0zm0.046875 -4.9375q0 -0.84375 -0.34375 -1.25q-0.34375 -0.421875 -0.875 -0.421875q-0.53125 0 -0.890625 0.421875q-0.34375 0.421875 -0.34375 1.328125q0 0.90625 0.34375 1.3125q0.34375 0.40625 0.84375 0.40625q0.5 0 0.875 -0.453125q0.390625 -0.453125 0.390625 -1.34375zm6.493637 2.828125l0 -0.828125q-0.3125 0.4375 -0.8125 0.703125q-0.484375 0.25 -1.015625 0.25q-0.5625 0 -1.015625 -0.234375q-0.4375 -0.25 -0.640625 -0.6875q-0.1875 -0.453125 -0.1875 -1.234375l0 -3.5l1.46875 0l0 2.546875q0 1.15625 0.078125 1.421875q0.078125 0.265625 0.28125 0.421875q0.21875 0.15625 0.546875 0.15625q0.375 0 0.671875 -0.203125q0.296875 -0.21875 0.40625 -0.515625q0.109375 -0.3125 0.109375 -1.484375l0 -2.34375l1.46875 0l0 5.53125l-1.359375 0zm6.071762 -1.765625l1.453125 0.25q-0.28125 0.796875 -0.890625 1.21875q-0.609375 0.421875 -1.515625 0.421875q-1.4375 0 -2.125 -0.9375q-0.546875 -0.765625 -0.546875 -1.90625q0 -1.375 0.71875 -2.15625q0.71875 -0.78125 1.8125 -0.78125q1.234375 0 1.9375 0.828125q0.71875 0.8125 0.6875 2.484375l-3.65625 0q0.015625 0.65625 0.34375 1.015625q0.34375 0.359375 0.84375 0.359375q0.34375 0 0.578125 -0.1875q0.234375 -0.1875 0.359375 -0.609375zm0.078125 -1.46875q-0.015625 -0.640625 -0.328125 -0.96875q-0.3125 -0.328125 -0.765625 -0.328125q-0.46875 0 -0.78125 0.34375q-0.3125 0.359375 -0.3125 0.953125l2.1875 0z" fill-rule="nonzero"/><path fill="#d9ead3" d="m77.2979 293.70865l68.031494 0l0 21.259857l-68.031494 0z" fill-rule="evenodd"/><path stroke="#38761d" stroke-width="2.0" stroke-linejoin="round" stroke-linecap="butt" d="m77.2979 293.70865l68.031494 0l0 21.259857l-68.031494 0z" fill-rule="evenodd"/><path fill="#9900ff" d="m97.74392 308.07858l-2.71875 -7.625l1.671875 0l1.921875 5.640625l1.875 -5.640625l1.625 0l-2.734375 7.625l-1.640625 0zm7.7690887 -1.765625l1.453125 0.25q-0.28125 0.796875 -0.890625 1.21875q-0.609375 0.421875 -1.515625 0.421875q-1.4375 0 -2.125 -0.9375q-0.546875 -0.765625 -0.546875 -1.90625q0 -1.375 0.71875 -2.15625q0.71875 -0.78125 1.8125 -0.78125q1.234375 0 1.9375 0.828125q0.71875 0.8125 0.6875 2.484375l-3.65625 0q0.015625 0.65625 0.34375 1.015625q0.34375 0.359375 0.84375 0.359375q0.34375 0 0.578125 -0.1875q0.234375 -0.1875 0.359375 -0.609375zm0.078125 -1.46875q-0.015625 -0.640625 -0.328125 -0.96875q-0.3125 -0.328125 -0.765625 -0.328125q-0.46875 0 -0.78125 0.34375q-0.3125 0.359375 -0.3125 0.953125l2.1875 0zm7.4577484 -0.65625l-1.4375 0.265625q-0.078125 -0.4375 -0.34375 -0.65625q-0.25 -0.21875 -0.65625 -0.21875q-0.546875 0 -0.875 0.375q-0.3125 0.375 -0.3125 1.265625q0 0.984375 0.328125 1.390625q0.328125 0.40625 0.875 0.40625q0.421875 0 0.6875 -0.234375q0.265625 -0.25 0.375 -0.828125l1.4375 0.25q-0.21875 0.984375 -0.859375 1.5q-0.640625 0.5 -1.703125 0.5q-1.203125 0 -1.9375 -0.765625q-0.71875 -0.765625 -0.71875 -2.109375q0 -1.375 0.71875 -2.140625q0.734375 -0.765625 1.96875 -0.765625q1.0 0 1.59375 0.4375q0.609375 0.4375 0.859375 1.328125zm3.6452484 -1.640625l0 1.171875l-1.0 0l0 2.21875q0 0.6875 0.03125 0.796875q0.03125 0.109375 0.125 0.1875q0.109375 0.0625 0.25 0.0625q0.203125 0 0.59375 -0.140625l0.125 1.140625q-0.515625 0.21875 -1.15625 0.21875q-0.390625 0 -0.71875 -0.125q-0.3125 -0.140625 -0.46875 -0.34375q-0.140625 -0.21875 -0.203125 -0.578125q-0.046875 -0.25 -0.046875 -1.03125l0 -2.40625l-0.671875 0l0 -1.171875l0.671875 0l0 -1.09375l1.46875 -0.859375l0 1.953125l1.0 0zm0.6736145 2.6875q0 -0.71875 0.359375 -1.40625q0.359375 -0.6875 1.015625 -1.046875q0.671875 -0.359375 1.46875 -0.359375q1.265625 0 2.0625 0.828125q0.796875 0.8125 0.796875 2.046875q0 1.25 -0.8125 2.078125q-0.796875 0.828125 -2.03125 0.828125q-0.75 0 -1.453125 -0.34375q-0.6875 -0.34375 -1.046875 -1.0q-0.359375 -0.671875 -0.359375 -1.625zm1.5 0.078125q0 0.828125 0.390625 1.265625q0.390625 0.4375 0.96875 0.4375q0.5625 0 0.953125 -0.4375q0.390625 -0.4375 0.390625 -1.265625q0 -0.8125 -0.390625 -1.25q-0.390625 -0.4375 -0.953125 -0.4375q-0.578125 0 -0.96875 0.4375q-0.390625 0.4375 -0.390625 1.25zm6.759262 2.765625l-1.46875 0l0 -5.53125l1.359375 0l0 0.796875q0.34375 -0.5625 0.625 -0.734375q0.28125 -0.1875 0.625 -0.1875q0.5 0 0.96875 0.28125l-0.453125 1.28125q-0.375 -0.25 -0.6875 -0.25q-0.3125 0 -0.53125 0.171875q-0.203125 0.171875 -0.328125 0.625q-0.109375 0.4375 -0.109375 1.84375l0 1.703125z" fill-rule="nonzero"/><path fill="#d9ead3" d="m76.75459 336.53543l68.031494 0l0 21.259857l-68.031494 0z" fill-rule="evenodd"/><path stroke="#38761d" stroke-width="2.0" stroke-linejoin="round" stroke-linecap="butt" d="m76.75459 336.53543l68.031494 0l0 21.259857l-68.031494 0z" fill-rule="evenodd"/><path fill="#9900ff" d="m96.94309 348.421l1.5 -0.140625q0.125 0.75 0.53125 1.109375q0.421875 0.34375 1.125 0.34375q0.75 0 1.125 -0.3125q0.375 -0.3125 0.375 -0.734375q0 -0.265625 -0.15625 -0.453125q-0.15625 -0.1875 -0.5625 -0.328125q-0.265625 -0.09375 -1.234375 -0.34375q-1.234375 -0.296875 -1.734375 -0.75q-0.703125 -0.625 -0.703125 -1.53125q0 -0.59375 0.328125 -1.09375q0.34375 -0.515625 0.953125 -0.78125q0.625 -0.265625 1.5 -0.265625q1.4375 0 2.15625 0.640625q0.734375 0.625 0.78125 1.671875l-1.546875 0.078125q-0.09375 -0.59375 -0.421875 -0.84375q-0.328125 -0.265625 -0.984375 -0.265625q-0.671875 0 -1.046875 0.28125q-0.234375 0.171875 -0.234375 0.46875q0 0.265625 0.21875 0.46875q0.296875 0.234375 1.421875 0.5q1.125 0.265625 1.65625 0.5625q0.546875 0.28125 0.84375 0.78125q0.3125 0.484375 0.3125 1.203125q0 0.65625 -0.375 1.234375q-0.359375 0.5625 -1.03125 0.84375q-0.65625 0.28125 -1.65625 0.28125q-1.4375 0 -2.21875 -0.671875q-0.78125 -0.671875 -0.921875 -1.953125zm10.0138855 -3.046875l0 1.171875l-1.0 0l0 2.21875q0 0.6875 0.03125 0.796875q0.03125 0.109375 0.125 0.1875q0.109375 0.0625 0.25 0.0625q0.203125 0 0.59375 -0.140625l0.125 1.140625q-0.515625 0.21875 -1.15625 0.21875q-0.390625 0 -0.71875 -0.125q-0.3125 -0.140625 -0.46875 -0.34375q-0.140625 -0.21875 -0.203125 -0.578125q-0.046875 -0.25 -0.046875 -1.03125l0 -2.40625l-0.671875 0l0 -1.171875l0.671875 0l0 -1.09375l1.46875 -0.859375l0 1.953125l1.0 0zm2.1111145 1.6875l-1.328125 -0.234375q0.21875 -0.796875 0.765625 -1.1875q0.546875 -0.390625 1.625 -0.390625q0.984375 0 1.453125 0.234375q0.484375 0.234375 0.671875 0.59375q0.203125 0.359375 0.203125 1.3125l-0.015625 1.703125q0 0.71875 0.0625 1.078125q0.078125 0.34375 0.265625 0.734375l-1.4375 0q-0.0625 -0.140625 -0.140625 -0.4375q-0.046875 -0.125 -0.0625 -0.171875q-0.375 0.375 -0.796875 0.5625q-0.421875 0.171875 -0.90625 0.171875q-0.859375 0 -1.359375 -0.453125q-0.484375 -0.46875 -0.484375 -1.1875q0 -0.46875 0.21875 -0.828125q0.234375 -0.359375 0.640625 -0.546875q0.40625 -0.203125 1.15625 -0.359375q1.03125 -0.1875 1.421875 -0.359375l0 -0.140625q0 -0.421875 -0.21875 -0.59375q-0.203125 -0.1875 -0.78125 -0.1875q-0.375 0 -0.59375 0.15625q-0.21875 0.15625 -0.359375 0.53125zm1.953125 1.1875q-0.28125 0.09375 -0.890625 0.234375q-0.609375 0.125 -0.796875 0.25q-0.28125 0.203125 -0.28125 0.515625q0 0.296875 0.21875 0.53125q0.234375 0.21875 0.59375 0.21875q0.390625 0 0.75 -0.265625q0.265625 -0.1875 0.34375 -0.484375q0.0625 -0.1875 0.0625 -0.703125l0 -0.296875zm7.6921234 -1.234375l-1.4375 0.265625q-0.078125 -0.4375 -0.34375 -0.65625q-0.25 -0.21875 -0.65625 -0.21875q-0.546875 0 -0.875 0.375q-0.3125 0.375 -0.3125 1.265625q0 0.984375 0.328125 1.390625q0.328125 0.40625 0.875 0.40625q0.421875 0 0.6875 -0.234375q0.265625 -0.25 0.375 -0.828125l1.4375 0.25q-0.21875 0.984375 -0.859375 1.5q-0.640625 0.5 -1.703125 0.5q-1.203125 0 -1.9375 -0.765625q-0.71875 -0.765625 -0.71875 -2.109375q0 -1.375 0.71875 -2.140625q0.734375 -0.765625 1.96875 -0.765625q1.0 0 1.59375 0.4375q0.609375 0.4375 0.859375 1.328125zm1.0671234 3.890625l0 -7.625l1.453125 0l0 4.046875l1.71875 -1.953125l1.796875 0l-1.890625 2.03125l2.03125 3.5l-1.578125 0l-1.390625 -2.484375l-0.6875 0.71875l0 1.765625l-1.453125 0z" fill-rule="nonzero"/><path fill="#d9ead3" d="m240.6588 251.32414l68.03148 0l0 21.259842l-68.03148 0z" fill-rule="evenodd"/><path stroke="#38761d" stroke-width="2.0" stroke-linejoin="round" stroke-linecap="butt" d="m240.6588 251.32414l68.03148 0l0 21.259842l-68.03148 0z" fill-rule="evenodd"/><path fill="#9900ff" d="m257.92282 265.69406l0 -6.34375l-2.265625 0l0 -1.28125l6.0625 0l0 1.28125l-2.265625 0l0 6.34375l-1.53125 0zm5.5925903 0l-1.46875 0l0 -5.53125l1.359375 0l0 0.796875q0.34375 -0.5625 0.625 -0.734375q0.28125 -0.1875 0.625 -0.1875q0.5 0 0.96875 0.28125l-0.453125 1.28125q-0.375 -0.25 -0.6875 -0.25q-0.3125 0 -0.53125 0.171875q-0.203125 0.171875 -0.328125 0.625q-0.109375 0.4375 -0.109375 1.84375l0 1.703125zm5.9438477 -1.765625l1.453125 0.25q-0.28125 0.796875 -0.890625 1.21875q-0.609375 0.421875 -1.515625 0.421875q-1.4375 0 -2.125 -0.9375q-0.546875 -0.765625 -0.546875 -1.90625q0 -1.375 0.71875 -2.15625q0.71875 -0.78125 1.8125 -0.78125q1.234375 0 1.9375 0.828125q0.71875 0.8125 0.6875 2.484375l-3.65625 0q0.015625 0.65625 0.34375 1.015625q0.34375 0.359375 0.84375 0.359375q0.34375 0 0.578125 -0.1875q0.234375 -0.1875 0.359375 -0.609375zm0.078125 -1.46875q-0.015625 -0.640625 -0.328125 -0.96875q-0.3125 -0.328125 -0.765625 -0.328125q-0.46875 0 -0.78125 0.34375q-0.3125 0.359375 -0.3125 0.953125l2.1875 0zm5.8483887 1.46875l1.453125 0.25q-0.28125 0.796875 -0.890625 1.21875q-0.609375 0.421875 -1.515625 0.421875q-1.4375 0 -2.125 -0.9375q-0.546875 -0.765625 -0.546875 -1.90625q0 -1.375 0.71875 -2.15625q0.71875 -0.78125 1.8125 -0.78125q1.234375 0 1.9375 0.828125q0.71875 0.8125 0.6875 2.484375l-3.65625 0q0.015625 0.65625 0.34375 1.015625q0.34375 0.359375 0.84375 0.359375q0.34375 0 0.578125 -0.1875q0.234375 -0.1875 0.359375 -0.609375zm0.078125 -1.46875q-0.015625 -0.640625 -0.328125 -0.96875q-0.3125 -0.328125 -0.765625 -0.328125q-0.46875 0 -0.78125 0.34375q-0.3125 0.359375 -0.3125 0.953125l2.1875 0zm2.2702332 0.75l1.5 -0.140625q0.125 0.75 0.53125 1.109375q0.421875 0.34375 1.125 0.34375q0.75 0 1.125 -0.3125q0.375 -0.3125 0.375 -0.734375q0 -0.265625 -0.15625 -0.453125q-0.15625 -0.1875 -0.5625 -0.328125q-0.265625 -0.09375 -1.234375 -0.34375q-1.234375 -0.296875 -1.734375 -0.75q-0.703125 -0.625 -0.703125 -1.53125q0 -0.59375 0.328125 -1.09375q0.34375 -0.515625 0.953125 -0.78125q0.625 -0.265625 1.5 -0.265625q1.4375 0 2.15625 0.640625q0.734375 0.625 0.78125 1.671875l-1.546875 0.078125q-0.09375 -0.59375 -0.421875 -0.84375q-0.328125 -0.265625 -0.984375 -0.265625q-0.671875 0 -1.046875 0.28125q-0.234375 0.171875 -0.234375 0.46875q0 0.265625 0.21875 0.46875q0.296875 0.234375 1.421875 0.5q1.125 0.265625 1.65625 0.5625q0.546875 0.28125 0.84375 0.78125q0.3125 0.484375 0.3125 1.203125q0 0.65625 -0.375 1.234375q-0.359375 0.5625 -1.03125 0.84375q-0.65625 0.28125 -1.65625 0.28125q-1.4375 0 -2.21875 -0.671875q-0.78125 -0.671875 -0.921875 -1.953125zm10.6857605 0.71875l1.453125 0.25q-0.28125 0.796875 -0.890625 1.21875q-0.609375 0.421875 -1.515625 0.421875q-1.4375 0 -2.125 -0.9375q-0.546875 -0.765625 -0.546875 -1.90625q0 -1.375 0.71875 -2.15625q0.71875 -0.78125 1.8125 -0.78125q1.234375 0 1.9375 0.828125q0.71875 0.8125 0.6875 2.484375l-3.65625 0q0.015625 0.65625 0.34375 1.015625q0.34375 0.359375 0.84375 0.359375q0.34375 0 0.578125 -0.1875q0.234375 -0.1875 0.359375 -0.609375zm0.078125 -1.46875q-0.015625 -0.640625 -0.328125 -0.96875q-0.3125 -0.328125 -0.765625 -0.328125q-0.46875 0 -0.78125 0.34375q-0.3125 0.359375 -0.3125 0.953125l2.1875 0zm5.1765137 -2.296875l0 1.171875l-1.0 0l0 2.21875q0 0.6875 0.03125 0.796875q0.03125 0.109375 0.125 0.1875q0.109375 0.0625 0.25 0.0625q0.203125 0 0.59375 -0.140625l0.125 1.140625q-0.515625 0.21875 -1.15625 0.21875q-0.390625 0 -0.71875 -0.125q-0.3125 -0.140625 -0.46875 -0.34375q-0.140625 -0.21875 -0.203125 -0.578125q-0.046875 -0.25 -0.046875 -1.03125l0 -2.40625l-0.671875 0l0 -1.171875l0.671875 0l0 -1.09375l1.46875 -0.859375l0 1.953125l1.0 0z" fill-rule="nonzero"/><path fill="#d9ead3" d="m318.25986 156.3153l56.566925 0l0 32.53543l-56.566925 0z" fill-rule="evenodd"/><path stroke="#38761d" stroke-width="2.0" stroke-linejoin="round" stroke-linecap="butt" d="m318.25986 156.3153l56.566925 0l0 32.53543l-56.566925 0z" fill-rule="evenodd"/><path fill="#9900ff" d="m330.1851 169.82301l0 -7.5625l1.546875 0l0 6.28125l3.828125 0l0 1.28125l-5.375 0zm6.4624023 -6.28125l0 -1.34375l1.46875 0l0 1.34375l-1.46875 0zm0 6.28125l0 -5.53125l1.46875 0l0 5.53125l-1.46875 0zm7.9918823 0l-1.46875 0l0 -2.8125q0 -0.90625 -0.09375 -1.15625q-0.09375 -0.265625 -0.3125 -0.40625q-0.203125 -0.15625 -0.5 -0.15625q-0.375 0 -0.6875 0.21875q-0.296875 0.203125 -0.40625 0.546875q-0.109375 0.34375 -0.109375 1.265625l0 2.5l-1.46875 0l0 -5.53125l1.359375 0l0 0.8125q0.71875 -0.9375 1.828125 -0.9375q0.484375 0 0.875 0.1875q0.40625 0.171875 0.609375 0.4375q0.203125 0.265625 0.28125 0.609375q0.09375 0.34375 0.09375 0.984375l0 3.4375zm1.4311523 0l0 -7.625l1.453125 0l0 4.046875l1.71875 -1.953125l1.796875 0l-1.890625 2.03125l2.03125 3.5l-1.578125 0l-1.390625 -2.484375l-0.6875 0.71875l0 1.765625l-1.453125 0zm9.176483 -1.765625l1.453125 0.25q-0.28125 0.796875 -0.890625 1.21875q-0.609375 0.421875 -1.515625 0.421875q-1.4375 0 -2.125 -0.9375q-0.546875 -0.765625 -0.546875 -1.90625q0 -1.375 0.71875 -2.15625q0.71875 -0.78125 1.8125 -0.78125q1.234375 0 1.9375 0.828125q0.71875 0.8125 0.6875 2.484375l-3.65625 0q0.015625 0.65625 0.34375 1.015625q0.34375 0.359375 0.84375 0.359375q0.34375 0 0.578125 -0.1875q0.234375 -0.1875 0.359375 -0.609375zm0.078125 -1.46875q-0.015625 -0.640625 -0.328125 -0.96875q-0.3125 -0.328125 -0.765625 -0.328125q-0.46875 0 -0.78125 0.34375q-0.3125 0.359375 -0.3125 0.953125l2.1875 0zm7.7077637 3.234375l-1.359375 0l0 -0.8125q-0.328125 0.46875 -0.796875 0.703125q-0.453125 0.234375 -0.921875 0.234375q-0.953125 0 -1.640625 -0.765625q-0.671875 -0.765625 -0.671875 -2.140625q0 -1.40625 0.65625 -2.140625q0.671875 -0.734375 1.671875 -0.734375q0.921875 0 1.609375 0.78125l0 -2.75l1.453125 0l0 7.625zm-3.890625 -2.875q0 0.875 0.234375 1.265625q0.359375 0.578125 0.984375 0.578125q0.515625 0 0.859375 -0.421875q0.359375 -0.4375 0.359375 -1.28125q0 -0.953125 -0.34375 -1.375q-0.34375 -0.421875 -0.875 -0.421875q-0.515625 0 -0.875 0.421875q-0.34375 0.40625 -0.34375 1.234375z" fill-rule="nonzero"/><path fill="#9900ff" d="m326.00424 182.82301l0 -7.625l1.546875 0l0 3.0l3.015625 0l0 -3.0l1.53125 0l0 7.625l-1.53125 0l0 -3.328125l-3.015625 0l0 3.328125l-1.546875 0zm8.773743 -3.84375l-1.328125 -0.234375q0.21875 -0.796875 0.765625 -1.1875q0.546875 -0.390625 1.625 -0.390625q0.984375 0 1.453125 0.234375q0.484375 0.234375 0.671875 0.59375q0.203125 0.359375 0.203125 1.3125l-0.015625 1.703125q0 0.71875 0.0625 1.078125q0.078125 0.34375 0.265625 0.734375l-1.4375 0q-0.0625 -0.140625 -0.140625 -0.4375q-0.046875 -0.125 -0.0625 -0.171875q-0.375 0.375 -0.796875 0.5625q-0.421875 0.171875 -0.90625 0.171875q-0.859375 0 -1.359375 -0.453125q-0.484375 -0.46875 -0.484375 -1.1875q0 -0.46875 0.21875 -0.828125q0.234375 -0.359375 0.640625 -0.546875q0.40625 -0.203125 1.15625 -0.359375q1.03125 -0.1875 1.421875 -0.359375l0 -0.140625q0 -0.421875 -0.21875 -0.59375q-0.203125 -0.1875 -0.78125 -0.1875q-0.375 0 -0.59375 0.15625q-0.21875 0.15625 -0.359375 0.53125zm1.953125 1.1875q-0.28125 0.09375 -0.890625 0.234375q-0.609375 0.125 -0.796875 0.25q-0.28125 0.203125 -0.28125 0.515625q0 0.296875 0.21875 0.53125q0.234375 0.21875 0.59375 0.21875q0.390625 0 0.75 -0.265625q0.265625 -0.1875 0.34375 -0.484375q0.0625 -0.1875 0.0625 -0.703125l0 -0.296875zm2.3639832 1.078125l1.46875 -0.21875q0.09375 0.421875 0.375 0.640625q0.296875 0.21875 0.796875 0.21875q0.578125 0 0.859375 -0.203125q0.1875 -0.140625 0.1875 -0.390625q0 -0.171875 -0.09375 -0.28125q-0.109375 -0.09375 -0.5 -0.1875q-1.765625 -0.390625 -2.234375 -0.703125q-0.65625 -0.453125 -0.65625 -1.25q0 -0.71875 0.5625 -1.203125q0.578125 -0.5 1.765625 -0.5q1.125 0 1.671875 0.375q0.5625 0.375 0.765625 1.09375l-1.375 0.25q-0.09375 -0.3125 -0.34375 -0.484375q-0.234375 -0.171875 -0.703125 -0.171875q-0.5625 0 -0.8125 0.15625q-0.171875 0.109375 -0.171875 0.296875q0 0.15625 0.140625 0.265625q0.203125 0.140625 1.359375 0.40625q1.171875 0.265625 1.640625 0.65625q0.453125 0.390625 0.453125 1.078125q0 0.765625 -0.640625 1.3125q-0.625 0.546875 -1.875 0.546875q-1.125 0 -1.78125 -0.453125q-0.65625 -0.46875 -0.859375 -1.25zm7.8952637 -6.046875l0 2.796875q0.703125 -0.828125 1.6875 -0.828125q0.515625 0 0.921875 0.1875q0.40625 0.1875 0.609375 0.484375q0.203125 0.296875 0.28125 0.65625q0.078125 0.34375 0.078125 1.09375l0 3.234375l-1.46875 0l0 -2.921875q0 -0.859375 -0.09375 -1.09375q-0.078125 -0.234375 -0.296875 -0.375q-0.203125 -0.140625 -0.515625 -0.140625q-0.359375 0 -0.65625 0.1875q-0.28125 0.171875 -0.421875 0.53125q-0.125 0.34375 -0.125 1.046875l0 2.765625l-1.453125 0l0 -7.625l1.453125 0zm4.681122 5.140625l1.5 -0.140625q0.125 0.75 0.53125 1.109375q0.421875 0.34375 1.125 0.34375q0.75 0 1.125 -0.3125q0.375 -0.3125 0.375 -0.734375q0 -0.265625 -0.15625 -0.453125q-0.15625 -0.1875 -0.5625 -0.328125q-0.265625 -0.09375 -1.234375 -0.34375q-1.234375 -0.296875 -1.734375 -0.75q-0.703125 -0.625 -0.703125 -1.53125q0 -0.59375 0.328125 -1.09375q0.34375 -0.515625 0.953125 -0.78125q0.625 -0.265625 1.5 -0.265625q1.4375 0 2.15625 0.640625q0.734375 0.625 0.78125 1.671875l-1.546875 0.078125q-0.09375 -0.59375 -0.421875 -0.84375q-0.328125 -0.265625 -0.984375 -0.265625q-0.671875 0 -1.046875 0.28125q-0.234375 0.171875 -0.234375 0.46875q0 0.265625 0.21875 0.46875q0.296875 0.234375 1.421875 0.5q1.125 0.265625 1.65625 0.5625q0.546875 0.28125 0.84375 0.78125q0.3125 0.484375 0.3125 1.203125q0 0.65625 -0.375 1.234375q-0.359375 0.5625 -1.03125 0.84375q-0.65625 0.28125 -1.65625 0.28125q-1.4375 0 -2.21875 -0.671875q-0.78125 -0.671875 -0.921875 -1.953125zm10.6857605 0.71875l1.453125 0.25q-0.28125 0.796875 -0.890625 1.21875q-0.609375 0.421875 -1.515625 0.421875q-1.4375 0 -2.125 -0.9375q-0.546875 -0.765625 -0.546875 -1.90625q0 -1.375 0.71875 -2.15625q0.71875 -0.78125 1.8125 -0.78125q1.234375 0 1.9375 0.828125q0.71875 0.8125 0.6875 2.484375l-3.65625 0q0.015625 0.65625 0.34375 1.015625q0.34375 0.359375 0.84375 0.359375q0.34375 0 0.578125 -0.1875q0.234375 -0.1875 0.359375 -0.609375zm0.078125 -1.46875q-0.015625 -0.640625 -0.328125 -0.96875q-0.3125 -0.328125 -0.765625 -0.328125q-0.46875 0 -0.78125 0.34375q-0.3125 0.359375 -0.3125 0.953125l2.1875 0zm5.1765137 -2.296875l0 1.171875l-1.0 0l0 2.21875q0 0.6875 0.03125 0.796875q0.03125 0.109375 0.125 0.1875q0.109375 0.0625 0.25 0.0625q0.203125 0 0.59375 -0.140625l0.125 1.140625q-0.515625 0.21875 -1.15625 0.21875q-0.390625 0 -0.71875 -0.125q-0.3125 -0.140625 -0.46875 -0.34375q-0.140625 -0.21875 -0.203125 -0.578125q-0.046875 -0.25 -0.046875 -1.03125l0 -2.40625l-0.671875 0l0 -1.171875l0.671875 0l0 -1.09375l1.46875 -0.859375l0 1.953125l1.0 0z" fill-rule="nonzero"/><path fill="#d9ead3" d="m58.08399 161.95276l88.47244 0l0 21.259842l-88.47244 0z" fill-rule="evenodd"/><path stroke="#38761d" stroke-width="2.0" stroke-linejoin="round" stroke-linecap="butt" d="m58.08399 161.95276l88.47244 0l0 21.259842l-88.47244 0z" fill-rule="evenodd"/><path fill="#9900ff" d="m67.867676 176.32268l0 -7.625l2.46875 0q1.40625 0 1.828125 0.109375q0.65625 0.171875 1.09375 0.75q0.453125 0.578125 0.453125 1.484375q0 0.703125 -0.265625 1.1875q-0.25 0.46875 -0.640625 0.75q-0.390625 0.265625 -0.796875 0.359375q-0.5625 0.109375 -1.609375 0.109375l-1.0 0l0 2.875l-1.53125 0zm1.53125 -6.34375l0 2.171875l0.84375 0q0.90625 0 1.21875 -0.109375q0.3125 -0.125 0.484375 -0.375q0.171875 -0.265625 0.171875 -0.609375q0 -0.40625 -0.25 -0.671875q-0.234375 -0.28125 -0.609375 -0.34375q-0.28125 -0.0625 -1.109375 -0.0625l-0.75 0zm6.9670105 6.34375l-1.46875 0l0 -5.53125l1.359375 0l0 0.796875q0.34375 -0.5625 0.625 -0.734375q0.28125 -0.1875 0.625 -0.1875q0.5 0 0.96875 0.28125l-0.453125 1.28125q-0.375 -0.25 -0.6875 -0.25q-0.3125 0 -0.53125 0.171875q-0.203125 0.171875 -0.328125 0.625q-0.109375 0.4375 -0.109375 1.84375l0 1.703125zm2.740738 -6.28125l0 -1.34375l1.46875 0l0 1.34375l-1.46875 0zm0 6.28125l0 -5.53125l1.46875 0l0 5.53125l-1.46875 0zm2.6168976 -2.84375q0 -0.71875 0.359375 -1.40625q0.359375 -0.6875 1.015625 -1.046875q0.671875 -0.359375 1.46875 -0.359375q1.265625 0 2.0625 0.828125q0.796875 0.8125 0.796875 2.046875q0 1.25 -0.8125 2.078125q-0.796875 0.828125 -2.03125 0.828125q-0.75 0 -1.453125 -0.34375q-0.6875 -0.34375 -1.046875 -1.0q-0.359375 -0.671875 -0.359375 -1.625zm1.5 0.078125q0 0.828125 0.390625 1.265625q0.390625 0.4375 0.96875 0.4375q0.5625 0 0.953125 -0.4375q0.390625 -0.4375 0.390625 -1.265625q0 -0.8125 -0.390625 -1.25q-0.390625 -0.4375 -0.953125 -0.4375q-0.578125 0 -0.96875 0.4375q-0.390625 0.4375 -0.390625 1.25zm6.759262 2.765625l-1.46875 0l0 -5.53125l1.359375 0l0 0.796875q0.34375 -0.5625 0.625 -0.734375q0.28125 -0.1875 0.625 -0.1875q0.5 0 0.96875 0.28125l-0.453125 1.28125q-0.375 -0.25 -0.6875 -0.25q-0.3125 0 -0.53125 0.171875q-0.203125 0.171875 -0.328125 0.625q-0.109375 0.4375 -0.109375 1.84375l0 1.703125zm2.740738 -6.28125l0 -1.34375l1.46875 0l0 1.34375l-1.46875 0zm0 6.28125l0 -5.53125l1.46875 0l0 5.53125l-1.46875 0zm5.4918976 -5.53125l0 1.171875l-1.0 0l0 2.21875q0 0.6875 0.03125 0.796875q0.03125 0.109375 0.125 0.1875q0.109375 0.0625 0.25 0.0625q0.203125 0 0.59375 -0.140625l0.125 1.140625q-0.515625 0.21875 -1.15625 0.21875q-0.390625 0 -0.71875 -0.125q-0.3125 -0.140625 -0.46875 -0.34375q-0.140625 -0.21875 -0.203125 -0.578125q-0.046875 -0.25 -0.046875 -1.03125l0 -2.40625l-0.671875 0l0 -1.171875l0.671875 0l0 -1.09375l1.46875 -0.859375l0 1.953125l1.0 0zm0.3298645 0l1.546875 0l1.328125 3.921875l1.28125 -3.921875l1.515625 0l-1.953125 5.328125l-0.34375 0.953125q-0.1875 0.484375 -0.375 0.734375q-0.171875 0.265625 -0.390625 0.421875q-0.21875 0.15625 -0.5625 0.25q-0.328125 0.09375 -0.734375 0.09375q-0.421875 0 -0.828125 -0.09375l-0.140625 -1.140625q0.34375 0.0625 0.625 0.0625q0.515625 0 0.75 -0.296875q0.25 -0.296875 0.375 -0.765625l-2.09375 -5.546875zm12.770248 4.5625q0.5625 0.40625 1.21875 0.640625l-0.5625 1.09375q-0.34375 -0.109375 -0.671875 -0.28125q-0.078125 -0.046875 -1.03125 -0.6875q-0.75 0.328125 -1.65625 0.328125q-1.765625 0 -2.765625 -1.03125q-0.984375 -1.03125 -0.984375 -2.90625q0 -1.875 1.0 -2.90625q1.0 -1.046875 2.703125 -1.046875q1.703125 0 2.6875 1.046875q1.0 1.03125 1.0 2.90625q0 0.984375 -0.28125 1.734375q-0.203125 0.578125 -0.65625 1.109375zm-1.25 -0.875q0.296875 -0.34375 0.4375 -0.828125q0.15625 -0.5 0.15625 -1.140625q0 -1.328125 -0.578125 -1.96875q-0.578125 -0.65625 -1.53125 -0.65625q-0.9375 0 -1.53125 0.65625q-0.578125 0.65625 -0.578125 1.96875q0 1.328125 0.578125 2.0q0.59375 0.65625 1.484375 0.65625q0.34375 0 0.640625 -0.109375q-0.46875 -0.296875 -0.953125 -0.46875l0.421875 -0.890625q0.765625 0.265625 1.453125 0.78125zm7.0231476 1.84375l0 -0.828125q-0.3125 0.4375 -0.8125 0.703125q-0.484375 0.25 -1.015625 0.25q-0.5625 0 -1.015625 -0.234375q-0.4375 -0.25 -0.640625 -0.6875q-0.1875 -0.453125 -0.1875 -1.234375l0 -3.5l1.46875 0l0 2.546875q0 1.15625 0.078125 1.421875q0.078125 0.265625 0.28125 0.421875q0.21875 0.15625 0.546875 0.15625q0.375 0 0.671875 -0.203125q0.296875 -0.21875 0.40625 -0.515625q0.109375 -0.3125 0.109375 -1.484375l0 -2.34375l1.46875 0l0 5.53125l-1.359375 0zm6.071762 -1.765625l1.453125 0.25q-0.28125 0.796875 -0.890625 1.21875q-0.609375 0.421875 -1.515625 0.421875q-1.4375 0 -2.125 -0.9375q-0.546875 -0.765625 -0.546875 -1.90625q0 -1.375 0.71875 -2.15625q0.71875 -0.78125 1.8125 -0.78125q1.234375 0 1.9375 0.828125q0.71875 0.8125 0.6875 2.484375l-3.65625 0q0.015625 0.65625 0.34375 1.015625q0.34375 0.359375 0.84375 0.359375q0.34375 0 0.578125 -0.1875q0.234375 -0.1875 0.359375 -0.609375zm0.078125 -1.46875q-0.015625 -0.640625 -0.328125 -0.96875q-0.3125 -0.328125 -0.765625 -0.328125q-0.46875 0 -0.78125 0.34375q-0.3125 0.359375 -0.3125 0.953125l2.1875 0zm6.2858734 3.234375l0 -0.828125q-0.3125 0.4375 -0.8125 0.703125q-0.484375 0.25 -1.015625 0.25q-0.5625 0 -1.015625 -0.234375q-0.4375 -0.25 -0.640625 -0.6875q-0.1875 -0.453125 -0.1875 -1.234375l0 -3.5l1.46875 0l0 2.546875q0 1.15625 0.078125 1.421875q0.078125 0.265625 0.28125 0.421875q0.21875 0.15625 0.546875 0.15625q0.375 0 0.671875 -0.203125q0.296875 -0.21875 0.40625 -0.515625q0.109375 -0.3125 0.109375 -1.484375l0 -2.34375l1.46875 0l0 5.53125l-1.359375 0zm6.071762 -1.765625l1.453125 0.25q-0.28125 0.796875 -0.890625 1.21875q-0.609375 0.421875 -1.515625 0.421875q-1.4375 0 -2.125 -0.9375q-0.546875 -0.765625 -0.546875 -1.90625q0 -1.375 0.71875 -2.15625q0.71875 -0.78125 1.8125 -0.78125q1.234375 0 1.9375 0.828125q0.71875 0.8125 0.6875 2.484375l-3.65625 0q0.015625 0.65625 0.34375 1.015625q0.34375 0.359375 0.84375 0.359375q0.34375 0 0.578125 -0.1875q0.234375 -0.1875 0.359375 -0.609375zm0.078125 -1.46875q-0.015625 -0.640625 -0.328125 -0.96875q-0.3125 -0.328125 -0.765625 -0.328125q-0.46875 0 -0.78125 0.34375q-0.3125 0.359375 -0.3125 0.953125l2.1875 0z" fill-rule="nonzero"/><path fill="#fce5cd" d="m160.9948 20.955345l64.69292 0l0 21.259842l-64.69292 0z" fill-rule="evenodd"/><path stroke="#a72a1e" stroke-width="2.0" stroke-linejoin="round" stroke-linecap="butt" d="m160.9948 20.955345l64.69292 0l0 21.259842l-64.69292 0z" fill-rule="evenodd"/><path fill="#a72a1e" d="m175.1228 35.325264l0 -7.624998l1.53125 0l0 7.624998l-1.53125 0zm5.5231476 -5.531248l0 1.171875l-1.0 0l0 2.218748q0 0.6875 0.03125 0.796875q0.03125 0.109375 0.125 0.1875q0.109375 0.0625 0.25 0.0625q0.203125 0 0.59375 -0.140625l0.125 1.140625q-0.515625 0.21875 -1.15625 0.21875q-0.390625 0 -0.71875 -0.125q-0.3125 -0.140625 -0.46875 -0.34375q-0.140625 -0.21875 -0.203125 -0.578125q-0.046875 -0.25 -0.046875 -1.03125l0 -2.406248l-0.671875 0l0 -1.171875l0.671875 0l0 -1.09375l1.46875 -0.859375l0 1.953125l1.0 0zm4.2204895 3.765623l1.453125 0.25q-0.28125 0.796875 -0.890625 1.21875q-0.609375 0.421875 -1.515625 0.421875q-1.4375 0 -2.125 -0.9375q-0.546875 -0.765625 -0.546875 -1.90625q0 -1.3749981 0.71875 -2.156248q0.71875 -0.78125 1.8125 -0.78125q1.234375 0 1.9375 0.828125q0.71875 0.8125 0.6875 2.484373l-3.65625 0q0.015625 0.65625 0.34375 1.015625q0.34375 0.359375 0.84375 0.359375q0.34375 0 0.578125 -0.1875q0.234375 -0.1875 0.359375 -0.609375zm0.078125 -1.46875q-0.015625 -0.6406231 -0.328125 -0.9687481q-0.3125 -0.328125 -0.765625 -0.328125q-0.46875 0 -0.78125 0.34375q-0.3125 0.359375 -0.3125 0.9531231l2.1875 0zm4.0514984 3.234375l-1.46875 0l0 -5.531248l1.359375 0l0 0.796875q0.34375 -0.5625 0.625 -0.734375q0.28125 -0.1875 0.625 -0.1875q0.5 0 0.96875 0.28125l-0.453125 1.28125q-0.375 -0.25 -0.6875 -0.25q-0.3125 0 -0.53125 0.171875q-0.203125 0.171875 -0.328125 0.625q-0.109375 0.4374981 -0.109375 1.8437481l0 1.703125zm3.834488 -3.843748l-1.328125 -0.234375q0.21875 -0.796875 0.765625 -1.1875q0.546875 -0.390625 1.625 -0.390625q0.984375 0 1.453125 0.234375q0.484375 0.234375 0.671875 0.59375q0.203125 0.359375 0.203125 1.3125l-0.015625 1.7031231q0 0.71875 0.0625 1.078125q0.078125 0.34375 0.265625 0.734375l-1.4375 0q-0.0625 -0.140625 -0.140625 -0.4375q-0.046875 -0.125 -0.0625 -0.171875q-0.375 0.375 -0.796875 0.5625q-0.421875 0.171875 -0.90625 0.171875q-0.859375 0 -1.359375 -0.453125q-0.484375 -0.46875 -0.484375 -1.1875q0 -0.46875 0.21875 -0.828125q0.234375 -0.359375 0.640625 -0.546875q0.40625 -0.203125 1.15625 -0.359375q1.03125 -0.1874981 1.421875 -0.3593731l0 -0.140625q0 -0.421875 -0.21875 -0.59375q-0.203125 -0.1875 -0.78125 -0.1875q-0.375 0 -0.59375 0.15625q-0.21875 0.15625 -0.359375 0.53125zm1.953125 1.1874981q-0.28125 0.09375 -0.890625 0.234375q-0.609375 0.125 -0.796875 0.25q-0.28125 0.203125 -0.28125 0.515625q0 0.296875 0.21875 0.53125q0.234375 0.21875 0.59375 0.21875q0.390625 0 0.75 -0.265625q0.265625 -0.1875 0.34375 -0.484375q0.0625 -0.1875 0.0625 -0.703125l0 -0.296875zm2.8171234 2.65625l0 -7.624998l1.46875 0l0 2.75q0.671875 -0.78125 1.59375 -0.78125q1.015625 0 1.671875 0.734375q0.65625 0.734375 0.65625 2.109373q0 1.40625 -0.671875 2.171875q-0.671875 0.765625 -1.640625 0.765625q-0.46875 0 -0.9375 -0.234375q-0.453125 -0.234375 -0.78125 -0.703125l0 0.8125l-1.359375 0zm1.453125 -2.875q0 0.84375 0.265625 1.265625q0.375 0.578125 1.015625 0.578125q0.484375 0 0.8125 -0.40625q0.34375 -0.421875 0.34375 -1.3125q0 -0.9374981 -0.34375 -1.3593731q-0.34375 -0.421875 -0.875 -0.421875q-0.53125 0 -0.875 0.40625q-0.34375 0.40625 -0.34375 1.2499981zm5.118637 2.875l0 -7.624998l1.46875 0l0 7.624998l-1.46875 0zm6.1637726 -1.765625l1.453125 0.25q-0.28125 0.796875 -0.890625 1.21875q-0.609375 0.421875 -1.515625 0.421875q-1.4375 0 -2.125 -0.9375q-0.546875 -0.765625 -0.546875 -1.90625q0 -1.3749981 0.71875 -2.156248q0.71875 -0.78125 1.8125 -0.78125q1.234375 0 1.9375 0.828125q0.71875 0.8125 0.6875 2.484373l-3.65625 0q0.015625 0.65625 0.34375 1.015625q0.34375 0.359375 0.84375 0.359375q0.34375 0 0.578125 -0.1875q0.234375 -0.1875 0.359375 -0.609375zm0.078125 -1.46875q-0.015625 -0.6406231 -0.328125 -0.9687481q-0.3125 -0.328125 -0.765625 -0.328125q-0.46875 0 -0.78125 0.34375q-0.3125 0.359375 -0.3125 0.9531231l2.1875 0z" fill-rule="nonzero"/><path fill="#fce5cd" d="m242.3754 125.00098l64.59842 0l0 21.259842l-64.59842 0z" fill-rule="evenodd"/><path stroke="#a72a1e" stroke-width="2.0" stroke-linejoin="round" stroke-linecap="butt" d="m242.3754 125.00098l64.59842 0l0 21.259842l-64.59842 0z" fill-rule="evenodd"/><path fill="#a72a1e" d="m266.77386 136.88652l1.5 -0.140625q0.125 0.75 0.53125 1.109375q0.421875 0.34375 1.125 0.34375q0.75 0 1.125 -0.3125q0.375 -0.3125 0.375 -0.734375q0 -0.265625 -0.15625 -0.453125q-0.15625 -0.1875 -0.5625 -0.328125q-0.265625 -0.09375 -1.234375 -0.34375q-1.234375 -0.296875 -1.734375 -0.75q-0.703125 -0.625 -0.703125 -1.53125q0 -0.59375 0.328125 -1.09375q0.34375 -0.515625 0.953125 -0.78125q0.625 -0.265625 1.5 -0.265625q1.4375 0 2.15625 0.640625q0.734375 0.625 0.78125 1.671875l-1.546875 0.078125q-0.09375 -0.59375 -0.421875 -0.84375q-0.328125 -0.265625 -0.984375 -0.265625q-0.671875 0 -1.046875 0.28125q-0.234375 0.171875 -0.234375 0.46875q0 0.265625 0.21875 0.46875q0.296875 0.234375 1.421875 0.5q1.125 0.265625 1.65625 0.5625q0.546875 0.28125 0.84375 0.78125q0.3125 0.484375 0.3125 1.203125q0 0.65625 -0.375 1.234375q-0.359375 0.5625 -1.03125 0.84375q-0.65625 0.28125 -1.65625 0.28125q-1.4375 0 -2.21875 -0.671875q-0.78125 -0.671875 -0.921875 -1.953125zm10.6857605 0.71875l1.453125 0.25q-0.28125 0.796875 -0.890625 1.21875q-0.609375 0.421875 -1.515625 0.421875q-1.4375 0 -2.125 -0.9375q-0.546875 -0.765625 -0.546875 -1.90625q0 -1.375 0.71875 -2.15625q0.71875 -0.78125 1.8125 -0.78125q1.234375 0 1.9375 0.828125q0.71875 0.8125 0.6875 2.484375l-3.65625 0q0.015625 0.65625 0.34375 1.015625q0.34375 0.359375 0.84375 0.359375q0.34375 0 0.578125 -0.1875q0.234375 -0.1875 0.359375 -0.609375zm0.078125 -1.46875q-0.015625 -0.640625 -0.328125 -0.96875q-0.3125 -0.328125 -0.765625 -0.328125q-0.46875 0 -0.78125 0.34375q-0.3125 0.359375 -0.3125 0.953125l2.1875 0zm5.176483 -2.296875l0 1.171875l-1.0 0l0 2.21875q0 0.6875 0.03125 0.796875q0.03125 0.109375 0.125 0.1875q0.109375 0.0625 0.25 0.0625q0.203125 0 0.59375 -0.140625l0.125 1.140625q-0.515625 0.21875 -1.15625 0.21875q-0.390625 0 -0.71875 -0.125q-0.3125 -0.140625 -0.46875 -0.34375q-0.140625 -0.21875 -0.203125 -0.578125q-0.046875 -0.25 -0.046875 -1.03125l0 -2.40625l-0.671875 0l0 -1.171875l0.671875 0l0 -1.09375l1.46875 -0.859375l0 1.953125l1.0 0z" fill-rule="nonzero"/><path fill="#000000" fill-opacity="0.0" d="m225.68771 81.8333l48.97638 0l0 43.1811" fill-rule="evenodd"/><path stroke="#c2c2c2" stroke-width="2.0" stroke-miterlimit="8.0" stroke-linecap="butt" d="m234.6877 81.8333l39.976395 0l0 43.1811" fill-rule="evenodd"/><path fill="#c2c2c2" stroke="#c2c2c2" stroke-width="2.0" stroke-linecap="butt" d="m234.6877 79.62174l-6.076187 2.2115555l6.076187 2.2115555z" fill-rule="evenodd"/><path fill="#000000" fill-opacity="0.0" d="m193.34125 42.215187l0 14.493984l0.06300354 0l0 14.482395" fill-rule="evenodd"/><path stroke="#c2c2c2" stroke-width="2.0" stroke-miterlimit="8.0" stroke-linecap="butt" d="m193.34125 51.215187l0 5.4939804l0.06298828 0l0 14.482399" fill-rule="evenodd"/><path fill="#c2c2c2" stroke="#c2c2c2" stroke-width="2.0" stroke-linecap="butt" d="m195.5528 51.215187l-2.2115479 -6.076195l-2.2115479 6.076195z" fill-rule="evenodd"/><path fill="#d9ead3" d="m316.7218 350.24365l56.566925 0l0 21.259857l-56.566925 0z" fill-rule="evenodd"/><path stroke="#38761d" stroke-width="2.0" stroke-linejoin="round" stroke-linecap="butt" d="m316.7218 350.24365l56.566925 0l0 21.259857l-56.566925 0z" fill-rule="evenodd"/><path fill="#9900ff" d="m336.44363 361.8167l1.5 0.46875q-0.34375 1.25 -1.15625 1.859375q-0.796875 0.59375 -2.015625 0.59375q-1.515625 0 -2.5 -1.03125q-0.984375 -1.046875 -0.984375 -2.84375q0 -1.90625 0.984375 -2.953125q0.984375 -1.0625 2.59375 -1.0625q1.390625 0 2.265625 0.828125q0.53125 0.5 0.78125 1.40625l-1.515625 0.375q-0.140625 -0.59375 -0.578125 -0.9375q-0.421875 -0.34375 -1.03125 -0.34375q-0.859375 0 -1.390625 0.609375q-0.515625 0.609375 -0.515625 1.96875q0 1.4375 0.515625 2.0625q0.515625 0.609375 1.359375 0.609375q0.609375 0 1.046875 -0.390625q0.453125 -0.390625 0.640625 -1.21875zm2.8049927 2.796875l0 -7.625l1.46875 0l0 7.625l-1.46875 0zm4.0543823 -3.84375l-1.328125 -0.234375q0.21875 -0.796875 0.765625 -1.1875q0.546875 -0.390625 1.625 -0.390625q0.984375 0 1.453125 0.234375q0.484375 0.234375 0.671875 0.59375q0.203125 0.359375 0.203125 1.3125l-0.015625 1.703125q0 0.71875 0.0625 1.078125q0.078125 0.34375 0.265625 0.734375l-1.4375 0q-0.0625 -0.140625 -0.140625 -0.4375q-0.046875 -0.125 -0.0625 -0.171875q-0.375 0.375 -0.796875 0.5625q-0.421875 0.171875 -0.90625 0.171875q-0.859375 0 -1.359375 -0.453125q-0.484375 -0.46875 -0.484375 -1.1875q0 -0.46875 0.21875 -0.828125q0.234375 -0.359375 0.640625 -0.546875q0.40625 -0.203125 1.15625 -0.359375q1.03125 -0.1875 1.421875 -0.359375l0 -0.140625q0 -0.421875 -0.21875 -0.59375q-0.203125 -0.1875 -0.78125 -0.1875q-0.375 0 -0.59375 0.15625q-0.21875 0.15625 -0.359375 0.53125zm1.953125 1.1875q-0.28125 0.09375 -0.890625 0.234375q-0.609375 0.125 -0.796875 0.25q-0.28125 0.203125 -0.28125 0.515625q0 0.296875 0.21875 0.53125q0.234375 0.21875 0.59375 0.21875q0.390625 0 0.75 -0.265625q0.265625 -0.1875 0.34375 -0.484375q0.0625 -0.1875 0.0625 -0.703125l0 -0.296875zm2.3640137 1.078125l1.4687195 -0.21875q0.09375 0.421875 0.375 0.640625q0.296875 0.21875 0.796875 0.21875q0.578125 0 0.859375 -0.203125q0.1875 -0.140625 0.1875 -0.390625q0 -0.171875 -0.09375 -0.28125q-0.109375 -0.09375 -0.5 -0.1875q-1.765625 -0.390625 -2.2343445 -0.703125q-0.65625 -0.453125 -0.65625 -1.25q0 -0.71875 0.5625 -1.203125q0.5780945 -0.5 1.7655945 -0.5q1.125 0 1.671875 0.375q0.5625 0.375 0.765625 1.09375l-1.375 0.25q-0.09375 -0.3125 -0.34375 -0.484375q-0.234375 -0.171875 -0.703125 -0.171875q-0.5625 0 -0.8125 0.15625q-0.171875 0.109375 -0.171875 0.296875q0 0.15625 0.140625 0.265625q0.203125 0.140625 1.359375 0.40625q1.171875 0.265625 1.640625 0.65625q0.453125 0.390625 0.453125 1.078125q0 0.765625 -0.640625 1.3125q-0.625 0.546875 -1.875 0.546875q-1.125 0 -1.7812195 -0.453125q-0.65625 -0.46875 -0.859375 -1.25zm5.926483 0l1.46875 -0.21875q0.09375 0.421875 0.375 0.640625q0.296875 0.21875 0.796875 0.21875q0.578125 0 0.859375 -0.203125q0.1875 -0.140625 0.1875 -0.390625q0 -0.171875 -0.09375 -0.28125q-0.109375 -0.09375 -0.5 -0.1875q-1.765625 -0.390625 -2.234375 -0.703125q-0.65625 -0.453125 -0.65625 -1.25q0 -0.71875 0.5625 -1.203125q0.578125 -0.5 1.765625 -0.5q1.125 0 1.671875 0.375q0.5625 0.375 0.765625 1.09375l-1.375 0.25q-0.09375 -0.3125 -0.34375 -0.484375q-0.234375 -0.171875 -0.703125 -0.171875q-0.5625 0 -0.8125 0.15625q-0.171875 0.109375 -0.171875 0.296875q0 0.15625 0.140625 0.265625q0.203125 0.140625 1.359375 0.40625q1.171875 0.265625 1.640625 0.65625q0.453125 0.390625 0.453125 1.078125q0 0.765625 -0.640625 1.3125q-0.625 0.546875 -1.875 0.546875q-1.125 0 -1.78125 -0.453125q-0.65625 -0.46875 -0.859375 -1.25z" fill-rule="nonzero"/><path fill="#fce5cd" d="m316.72192 322.8294l56.566925 0l0 21.259827l-56.566925 0z" fill-rule="evenodd"/><path stroke="#a72a1e" stroke-width="2.0" stroke-linejoin="round" stroke-linecap="butt" d="m316.72192 322.8294l56.566925 0l0 21.259827l-56.566925 0z" fill-rule="evenodd"/><path fill="#a72a1e" d="m323.5297 337.1993l0 -7.625l1.53125 0l0 7.625l-1.53125 0zm8.023163 0l-1.46875 0l0 -2.8125q0 -0.90625 -0.09375 -1.15625q-0.09375 -0.265625 -0.3125 -0.40625q-0.203125 -0.15625 -0.5 -0.15625q-0.375 0 -0.6875 0.21875q-0.296875 0.203125 -0.40625 0.546875q-0.109375 0.34375 -0.109375 1.265625l0 2.5l-1.46875 0l0 -5.53125l1.359375 0l0 0.8125q0.71875 -0.9375 1.828125 -0.9375q0.484375 0 0.875 0.1875q0.40625 0.171875 0.609375 0.4375q0.203125 0.265625 0.28125 0.609375q0.09375 0.34375 0.09375 0.984375l0 3.4375zm4.009247 -5.53125l0 1.171875l-1.0 0l0 2.21875q0 0.6875 0.03125 0.796875q0.03125 0.109375 0.125 0.1875q0.109375 0.0625 0.25 0.0625q0.203125 0 0.59375 -0.140625l0.125 1.140625q-0.515625 0.21875 -1.15625 0.21875q-0.390625 0 -0.71875 -0.125q-0.3125 -0.140625 -0.46875 -0.34375q-0.140625 -0.21875 -0.203125 -0.578125q-0.046875 -0.25 -0.046875 -1.03125l0 -2.40625l-0.671875 0l0 -1.171875l0.671875 0l0 -1.09375l1.46875 -0.859375l0 1.953125l1.0 0zm4.2204895 3.765625l1.453125 0.25q-0.28125 0.796875 -0.890625 1.21875q-0.609375 0.421875 -1.515625 0.421875q-1.4375 0 -2.125 -0.9375q-0.546875 -0.765625 -0.546875 -1.90625q0 -1.375 0.71875 -2.15625q0.71875 -0.78125 1.8125 -0.78125q1.234375 0 1.9375 0.828125q0.71875 0.8125 0.6875 2.484375l-3.65625 0q0.015625 0.65625 0.34375 1.015625q0.34375 0.359375 0.84375 0.359375q0.34375 0 0.578125 -0.1875q0.234375 -0.1875 0.359375 -0.609375zm0.078125 -1.46875q-0.015625 -0.640625 -0.328125 -0.96875q-0.3125 -0.328125 -0.765625 -0.328125q-0.46875 0 -0.78125 0.34375q-0.3125 0.359375 -0.3125 0.953125l2.1875 0zm4.0515137 3.234375l-1.46875 0l0 -5.53125l1.359375 0l0 0.796875q0.34375 -0.5625 0.625 -0.734375q0.28125 -0.1875 0.625 -0.1875q0.5 0 0.96875 0.28125l-0.453125 1.28125q-0.375 -0.25 -0.6875 -0.25q-0.3125 0 -0.53125 0.171875q-0.203125 0.171875 -0.328125 0.625q-0.109375 0.4375 -0.109375 1.84375l0 1.703125zm2.1000977 -5.53125l0.8125 0l0 -0.40625q0 -0.703125 0.140625 -1.046875q0.15625 -0.34375 0.546875 -0.5625q0.40625 -0.21875 1.015625 -0.21875q0.625 0 1.21875 0.1875l-0.203125 1.03125q-0.34375 -0.09375 -0.671875 -0.09375q-0.3125 0 -0.453125 0.15625q-0.125 0.140625 -0.125 0.5625l0 0.390625l1.078125 0l0 1.15625l-1.078125 0l0 4.375l-1.46875 0l0 -4.375l-0.8125 0l0 -1.15625zm5.2829895 1.6875l-1.328125 -0.234375q0.21875 -0.796875 0.765625 -1.1875q0.546875 -0.390625 1.625 -0.390625q0.984375 0 1.453125 0.234375q0.484375 0.234375 0.671875 0.59375q0.203125 0.359375 0.203125 1.3125l-0.015625 1.703125q0 0.71875 0.0625 1.078125q0.078125 0.34375 0.265625 0.734375l-1.4375 0q-0.0625 -0.140625 -0.140625 -0.4375q-0.046875 -0.125 -0.0625 -0.171875q-0.375 0.375 -0.796875 0.5625q-0.421875 0.171875 -0.90625 0.171875q-0.859375 0 -1.359375 -0.453125q-0.484375 -0.46875 -0.484375 -1.1875q0 -0.46875 0.21875 -0.828125q0.234375 -0.359375 0.640625 -0.546875q0.40625 -0.203125 1.15625 -0.359375q1.03125 -0.1875 1.421875 -0.359375l0 -0.140625q0 -0.421875 -0.21875 -0.59375q-0.203125 -0.1875 -0.78125 -0.1875q-0.375 0 -0.59375 0.15625q-0.21875 0.15625 -0.359375 0.53125zm1.953125 1.1875q-0.28125 0.09375 -0.890625 0.234375q-0.609375 0.125 -0.796875 0.25q-0.28125 0.203125 -0.28125 0.515625q0 0.296875 0.21875 0.53125q0.234375 0.21875 0.59375 0.21875q0.390625 0 0.75 -0.265625q0.265625 -0.1875 0.34375 -0.484375q0.0625 -0.1875 0.0625 -0.703125l0 -0.296875zm7.6921387 -1.234375l-1.4375 0.265625q-0.078125 -0.4375 -0.34375 -0.65625q-0.25 -0.21875 -0.65625 -0.21875q-0.546875 0 -0.875 0.375q-0.3125 0.375 -0.3125 1.265625q0 0.984375 0.328125 1.390625q0.328125 0.40625 0.875 0.40625q0.421875 0 0.6875 -0.234375q0.265625 -0.25 0.375 -0.828125l1.4375 0.25q-0.21875 0.984375 -0.859375 1.5q-0.640625 0.5 -1.703125 0.5q-1.203125 0 -1.9375 -0.765625q-0.71875 -0.765625 -0.71875 -2.109375q0 -1.375 0.71875 -2.140625q0.734375 -0.765625 1.96875 -0.765625q1.0 0 1.59375 0.4375q0.609375 0.4375 0.859375 1.328125zm4.317108 2.125l1.453125 0.25q-0.28125 0.796875 -0.890625 1.21875q-0.609375 0.421875 -1.515625 0.421875q-1.4375 0 -2.125 -0.9375q-0.546875 -0.765625 -0.546875 -1.90625q0 -1.375 0.71875 -2.15625q0.71875 -0.78125 1.8125 -0.78125q1.234375 0 1.9375 0.828125q0.71875 0.8125 0.6875 2.484375l-3.65625 0q0.015625 0.65625 0.34375 1.015625q0.34375 0.359375 0.84375 0.359375q0.34375 0 0.578125 -0.1875q0.234375 -0.1875 0.359375 -0.609375zm0.078125 -1.46875q-0.015625 -0.640625 -0.328125 -0.96875q-0.3125 -0.328125 -0.765625 -0.328125q-0.46875 0 -0.78125 0.34375q-0.3125 0.359375 -0.3125 0.953125l2.1875 0z" fill-rule="nonzero"/><g filter="url(#shadowFilter-p.1)"><use xlink:href="#p.1" transform="matrix(1.0 0.0 0.0 1.0 2.7786335958005357 2.8773590551180983)"/></g><defs><filter id="shadowFilter-p.1" filterUnits="userSpaceOnUse"><feGaussianBlur in="SourceAlpha" stdDeviation="2.0" result="blur"/><feComponentTransfer in="blur" color-interpolation-filters="sRGB"><feFuncR type="linear" slope="0" intercept="0.0"/><feFuncG type="linear" slope="0" intercept="0.0"/><feFuncB type="linear" slope="0" intercept="0.0"/><feFuncA type="linear" slope="0.5" intercept="0"/></feComponentTransfer></filter></defs><g id="p.1"><path fill="#ff0000" d="m240.6588 324.27692l0 14.194458l9.054367 0l0 -1.6750488l-7.1367493 0l0 -12.519409z" fill-rule="evenodd"/><path fill="#ff0000" d="m256.09866 329.38925c0.9028015 0 1.6375732 0.33563232 2.2042847 1.006958c0.36901855 0.43249512 0.5930786 1.0812073 0.67214966 1.946167l-5.861603 0c0.059310913 -0.8972473 0.36683655 -1.613739 0.92256165 -2.1495056c0.5579376 -0.5357666 1.2454834 -0.8036194 2.0626068 -0.8036194zm-0.01977539 -1.4330139c-1.4497375 0 -2.6293182 0.47766113 -3.5387115 1.4330139c-0.90937805 0.95532227 -1.3640747 2.297943 -1.3640747 4.027893c0 1.671814 0.4492035 2.9714355 1.3476105 3.8988037c0.90060425 0.9252014 2.1186066 1.3878174 3.6540222 1.3878174c1.2191162 0 2.2207642 -0.29049683 3.0049438 -0.87142944c0.7842102 -0.58096313 1.3212585 -1.3974915 1.611206 -2.4496765l-1.8385315 -0.22268677c-0.27020264 0.73587036 -0.6359253 1.271637 -1.0971985 1.6072998c-0.4613037 0.33566284 -1.0181274 0.503479 -1.6705322 0.503479c-0.8764343 0 -1.6078949 -0.3001709 -2.194397 -0.9004822c-0.5864868 -0.6003113 -0.91267395 -1.465271 -0.97857666 -2.5948792l7.8286743 0c0.006591797 -0.20657349 0.009887695 -0.3614807 0.009887695 -0.4647522c0 -1.6976624 -0.44482422 -3.0144653 -1.3344421 -3.9504395c-0.8896179 -0.9359741 -2.036255 -1.4039612 -3.4398804 -1.4039612z" fill-rule="evenodd"/><path fill="#ff0000" d="m267.02124 329.39893c0.8039551 0 1.490387 0.31951904 2.0593262 0.9585571c0.57110596 0.6390381 0.85665894 1.5879211 0.85665894 2.8466492c0 1.316803 -0.27676392 2.283966 -0.83032227 2.9014893c-0.55352783 0.61538696 -1.2388611 0.9230652 -2.0559998 0.9230652c-0.82373047 0 -1.5090637 -0.30984497 -2.0560303 -0.9295044c-0.54693604 -0.61968994 -0.82040405 -1.604065 -0.82040405 -2.9531555c0 -1.2393494 0.27676392 -2.1731567 0.83029175 -2.8014526c0.55355835 -0.6304321 1.225708 -0.9456482 2.0164795 -0.9456482zm-0.12850952 -1.442688c-0.9291382 0 -1.7385864 0.22592163 -2.4283142 0.6777649c-0.68756104 0.45184326 -1.2125244 1.0930481 -1.5749817 1.923584c-0.36242676 0.82839966 -0.54364014 1.7331543 -0.54364014 2.714325c0 1.4265442 0.39538574 2.6497498 1.1861572 3.6696472c0.7907715 1.019867 1.9077454 1.5298157 3.350891 1.5298157c1.1598206 0 2.1285095 -0.4486084 2.9060974 -1.3458557l0 0c0.006591797 1.1360779 -0.036224365 1.8816223 -0.128479 2.2366333c-0.1581726 0.58096313 -0.4613037 1.0328064 -0.9093933 1.3555603c-0.44812012 0.3227539 -1.0840149 0.48410034 -1.9077454 0.48410034c-0.7644043 0 -1.3673706 -0.16134644 -1.8088989 -0.48410034c-0.3294983 -0.23883057 -0.53048706 -0.61968994 -0.6029663 -1.1425476l-1.7298279 -0.2517395l0 0c-0.026367188 1.11026 0.34597778 1.9407959 1.1169739 2.4916382c0.7709961 0.552948 1.7825317 0.82943726 3.034607 0.82943726c1.0543518 0 1.9417725 -0.19363403 2.662262 -0.5809326c0.72268677 -0.38729858 1.2498779 -0.91552734 1.581543 -1.5846863c0.33389282 -0.6670227 0.500824 -1.8009338 0.500824 -3.401764l0 -8.888519l-1.6408386 0l0 1.2393799c-0.8039551 -0.98117065 -1.8253784 -1.4717407 -3.06427 -1.4717407z" fill-rule="evenodd"/><path fill="#ff0000" d="m278.61597 329.38925c0.9028015 0 1.6375732 0.33563232 2.2042847 1.006958c0.36904907 0.43249512 0.5930786 1.0812073 0.6721802 1.946167l-5.8616333 0c0.059326172 -0.8972473 0.3668213 -1.613739 0.9225769 -2.1495056c0.55792236 -0.5357666 1.2454834 -0.8036194 2.0625916 -0.8036194zm-0.019744873 -1.4330139c-1.4497681 0 -2.6293335 0.47766113 -3.5387268 1.4330139c-0.9093933 0.95532227 -1.3640747 2.297943 -1.3640747 4.027893c0 1.671814 0.44918823 2.9714355 1.3475952 3.8988037c0.90060425 0.9252014 2.1186218 1.3878174 3.6540527 1.3878174c1.2190857 0 2.2207336 -0.29049683 3.0049438 -0.87142944c0.7841797 -0.58096313 1.321228 -1.3974915 1.6111755 -2.4496765l-1.8385315 -0.22268677c-0.27017212 0.73587036 -0.6359253 1.271637 -1.0971985 1.6072998c-0.4613037 0.33566284 -1.0181274 0.503479 -1.6705322 0.503479c-0.8764343 0 -1.6078796 -0.3001709 -2.194397 -0.9004822c-0.5864868 -0.6003113 -0.9126892 -1.465271 -0.97857666 -2.5948792l7.8286743 0c0.006591797 -0.20657349 0.009887695 -0.3614807 0.009887695 -0.4647522c0 -1.6976624 -0.44482422 -3.0144653 -1.3344421 -3.9504395c-0.8896179 -0.9359741 -2.0362244 -1.4039612 -3.4398499 -1.4039612z" fill-rule="evenodd"/><path fill="#ff0000" d="m290.4875 327.95624c-1.4563599 0 -2.5700073 0.56481934 -3.341034 1.6944275l0 -1.4620667l-1.6013184 0l0 10.282776l1.7792358 0l0 -5.615814c0 -1.3168335 0.27459717 -2.210846 0.82373047 -2.6820374c0.5513611 -0.47122192 1.2059326 -0.7068176 1.9637756 -0.7068176c0.4744568 0 0.88742065 0.105407715 1.2388611 0.31628418c0.3536682 0.20870972 0.5996704 0.48950195 0.7380676 0.8423767c0.1383667 0.350708 0.20758057 0.8811035 0.20758057 1.591156l0 6.2548523l1.7792358 0l0 -6.322632c0 -0.80688477 -0.032958984 -1.3716736 -0.098846436 -1.6944275c-0.10543823 -0.4970398 -0.2899475 -0.92630005 -0.55352783 -1.2877808c-0.26361084 -0.3614807 -0.66119385 -0.65301514 -1.1927795 -0.8746338c-0.5293579 -0.2237854 -1.1103516 -0.33566284 -1.742981 -0.33566284z" fill-rule="evenodd"/><path fill="#ff0000" d="m300.76755 329.39893c0.8105469 0 1.4925842 0.32919312 2.0461426 0.98760986c0.55352783 0.65838623 0.83032227 1.6911926 0.83032227 3.0983887c0 1.2780762 -0.2723999 2.2290955 -0.8171387 2.8530884c-0.542572 0.6218262 -1.2026367 0.93273926 -1.9802551 0.93273926c-0.7709961 0 -1.4398499 -0.32598877 -2.0065918 -0.9779358c-0.5667114 -0.651947 -0.85006714 -1.636322 -0.85006714 -2.953125c0 -1.3619995 0.26467896 -2.359314 0.7940674 -2.9918823c0.5315857 -0.6325989 1.192749 -0.94888306 1.9835205 -0.94888306zm2.72818 -5.1220093l0 5.0929565c-0.3097229 -0.41958618 -0.71170044 -0.7595215 -1.2059326 -1.0198975c-0.49423218 -0.2624817 -1.0576477 -0.3937378 -1.6902771 -0.3937378c-0.86325073 0 -1.644165 0.22268677 -2.342682 0.6680908c-0.69851685 0.44537354 -1.2224121 1.0865784 -1.5716553 1.923584c-0.34927368 0.83483887 -0.52389526 1.7654114 -0.52389526 2.7917786c0 1.0521545 0.1921997 1.9838257 0.5765991 2.794983c0.3866272 0.809021 0.93026733 1.4394531 1.6309814 1.8912964c0.7029114 0.45187378 1.4728088 0.6777954 2.309723 0.6777954c1.2915955 0 2.270172 -0.50994873 2.9357605 -1.5298462l0 1.2974548l1.6507263 0l0 -14.194458z" fill-rule="evenodd"/><path stroke="#a61c00" stroke-width="1.0" stroke-linejoin="round" stroke-linecap="butt" d="m240.6588 324.27692l0 14.194458l9.054367 0l0 -1.6750488l-7.1367493 0l0 -12.519409z" fill-rule="evenodd"/><path stroke="#a61c00" stroke-width="1.0" stroke-linejoin="round" stroke-linecap="butt" d="m256.09866 329.38925c0.9028015 0 1.6375732 0.33563232 2.2042847 1.006958c0.36901855 0.43249512 0.5930786 1.0812073 0.67214966 1.946167l-5.861603 0c0.059310913 -0.8972473 0.36683655 -1.613739 0.92256165 -2.1495056c0.5579376 -0.5357666 1.2454834 -0.8036194 2.0626068 -0.8036194zm-0.01977539 -1.4330139c-1.4497375 0 -2.6293182 0.47766113 -3.5387115 1.4330139c-0.90937805 0.95532227 -1.3640747 2.297943 -1.3640747 4.027893c0 1.671814 0.4492035 2.9714355 1.3476105 3.8988037c0.90060425 0.9252014 2.1186066 1.3878174 3.6540222 1.3878174c1.2191162 0 2.2207642 -0.29049683 3.0049438 -0.87142944c0.7842102 -0.58096313 1.3212585 -1.3974915 1.611206 -2.4496765l-1.8385315 -0.22268677c-0.27020264 0.73587036 -0.6359253 1.271637 -1.0971985 1.6072998c-0.4613037 0.33566284 -1.0181274 0.503479 -1.6705322 0.503479c-0.8764343 0 -1.6078949 -0.3001709 -2.194397 -0.9004822c-0.5864868 -0.6003113 -0.91267395 -1.465271 -0.97857666 -2.5948792l7.8286743 0c0.006591797 -0.20657349 0.009887695 -0.3614807 0.009887695 -0.4647522c0 -1.6976624 -0.44482422 -3.0144653 -1.3344421 -3.9504395c-0.8896179 -0.9359741 -2.036255 -1.4039612 -3.4398804 -1.4039612z" fill-rule="evenodd"/><path stroke="#a61c00" stroke-width="1.0" stroke-linejoin="round" stroke-linecap="butt" d="m267.02124 329.39893c0.8039551 0 1.490387 0.31951904 2.0593262 0.9585571c0.57110596 0.6390381 0.85665894 1.5879211 0.85665894 2.8466492c0 1.316803 -0.27676392 2.283966 -0.83032227 2.9014893c-0.55352783 0.61538696 -1.2388611 0.9230652 -2.0559998 0.9230652c-0.82373047 0 -1.5090637 -0.30984497 -2.0560303 -0.9295044c-0.54693604 -0.61968994 -0.82040405 -1.604065 -0.82040405 -2.9531555c0 -1.2393494 0.27676392 -2.1731567 0.83029175 -2.8014526c0.55355835 -0.6304321 1.225708 -0.9456482 2.0164795 -0.9456482zm-0.12850952 -1.442688c-0.9291382 0 -1.7385864 0.22592163 -2.4283142 0.6777649c-0.68756104 0.45184326 -1.2125244 1.0930481 -1.5749817 1.923584c-0.36242676 0.82839966 -0.54364014 1.7331543 -0.54364014 2.714325c0 1.4265442 0.39538574 2.6497498 1.1861572 3.6696472c0.7907715 1.019867 1.9077454 1.5298157 3.350891 1.5298157c1.1598206 0 2.1285095 -0.4486084 2.9060974 -1.3458557l0 0c0.006591797 1.1360779 -0.036224365 1.8816223 -0.128479 2.2366333c-0.1581726 0.58096313 -0.4613037 1.0328064 -0.9093933 1.3555603c-0.44812012 0.3227539 -1.0840149 0.48410034 -1.9077454 0.48410034c-0.7644043 0 -1.3673706 -0.16134644 -1.8088989 -0.48410034c-0.3294983 -0.23883057 -0.53048706 -0.61968994 -0.6029663 -1.1425476l-1.7298279 -0.2517395l0 0c-0.026367188 1.11026 0.34597778 1.9407959 1.1169739 2.4916382c0.7709961 0.552948 1.7825317 0.82943726 3.034607 0.82943726c1.0543518 0 1.9417725 -0.19363403 2.662262 -0.5809326c0.72268677 -0.38729858 1.2498779 -0.91552734 1.581543 -1.5846863c0.33389282 -0.6670227 0.500824 -1.8009338 0.500824 -3.401764l0 -8.888519l-1.6408386 0l0 1.2393799c-0.8039551 -0.98117065 -1.8253784 -1.4717407 -3.06427 -1.4717407z" fill-rule="evenodd"/><path stroke="#a61c00" stroke-width="1.0" stroke-linejoin="round" stroke-linecap="butt" d="m278.61597 329.38925c0.9028015 0 1.6375732 0.33563232 2.2042847 1.006958c0.36904907 0.43249512 0.5930786 1.0812073 0.6721802 1.946167l-5.8616333 0c0.059326172 -0.8972473 0.3668213 -1.613739 0.9225769 -2.1495056c0.55792236 -0.5357666 1.2454834 -0.8036194 2.0625916 -0.8036194zm-0.019744873 -1.4330139c-1.4497681 0 -2.6293335 0.47766113 -3.5387268 1.4330139c-0.9093933 0.95532227 -1.3640747 2.297943 -1.3640747 4.027893c0 1.671814 0.44918823 2.9714355 1.3475952 3.8988037c0.90060425 0.9252014 2.1186218 1.3878174 3.6540527 1.3878174c1.2190857 0 2.2207336 -0.29049683 3.0049438 -0.87142944c0.7841797 -0.58096313 1.321228 -1.3974915 1.6111755 -2.4496765l-1.8385315 -0.22268677c-0.27017212 0.73587036 -0.6359253 1.271637 -1.0971985 1.6072998c-0.4613037 0.33566284 -1.0181274 0.503479 -1.6705322 0.503479c-0.8764343 0 -1.6078796 -0.3001709 -2.194397 -0.9004822c-0.5864868 -0.6003113 -0.9126892 -1.465271 -0.97857666 -2.5948792l7.8286743 0c0.006591797 -0.20657349 0.009887695 -0.3614807 0.009887695 -0.4647522c0 -1.6976624 -0.44482422 -3.0144653 -1.3344421 -3.9504395c-0.8896179 -0.9359741 -2.0362244 -1.4039612 -3.4398499 -1.4039612z" fill-rule="evenodd"/><path stroke="#a61c00" stroke-width="1.0" stroke-linejoin="round" stroke-linecap="butt" d="m290.4875 327.95624c-1.4563599 0 -2.5700073 0.56481934 -3.341034 1.6944275l0 -1.4620667l-1.6013184 0l0 10.282776l1.7792358 0l0 -5.615814c0 -1.3168335 0.27459717 -2.210846 0.82373047 -2.6820374c0.5513611 -0.47122192 1.2059326 -0.7068176 1.9637756 -0.7068176c0.4744568 0 0.88742065 0.105407715 1.2388611 0.31628418c0.3536682 0.20870972 0.5996704 0.48950195 0.7380676 0.8423767c0.1383667 0.350708 0.20758057 0.8811035 0.20758057 1.591156l0 6.2548523l1.7792358 0l0 -6.322632c0 -0.80688477 -0.032958984 -1.3716736 -0.098846436 -1.6944275c-0.10543823 -0.4970398 -0.2899475 -0.92630005 -0.55352783 -1.2877808c-0.26361084 -0.3614807 -0.66119385 -0.65301514 -1.1927795 -0.8746338c-0.5293579 -0.2237854 -1.1103516 -0.33566284 -1.742981 -0.33566284z" fill-rule="evenodd"/><path stroke="#a61c00" stroke-width="1.0" stroke-linejoin="round" stroke-linecap="butt" d="m300.76755 329.39893c0.8105469 0 1.4925842 0.32919312 2.0461426 0.98760986c0.55352783 0.65838623 0.83032227 1.6911926 0.83032227 3.0983887c0 1.2780762 -0.2723999 2.2290955 -0.8171387 2.8530884c-0.542572 0.6218262 -1.2026367 0.93273926 -1.9802551 0.93273926c-0.7709961 0 -1.4398499 -0.32598877 -2.0065918 -0.9779358c-0.5667114 -0.651947 -0.85006714 -1.636322 -0.85006714 -2.953125c0 -1.3619995 0.26467896 -2.359314 0.7940674 -2.9918823c0.5315857 -0.6325989 1.192749 -0.94888306 1.9835205 -0.94888306zm2.72818 -5.1220093l0 5.0929565c-0.3097229 -0.41958618 -0.71170044 -0.7595215 -1.2059326 -1.0198975c-0.49423218 -0.2624817 -1.0576477 -0.3937378 -1.6902771 -0.3937378c-0.86325073 0 -1.644165 0.22268677 -2.342682 0.6680908c-0.69851685 0.44537354 -1.2224121 1.0865784 -1.5716553 1.923584c-0.34927368 0.83483887 -0.52389526 1.7654114 -0.52389526 2.7917786c0 1.0521545 0.1921997 1.9838257 0.5765991 2.794983c0.3866272 0.809021 0.93026733 1.4394531 1.6309814 1.8912964c0.7029114 0.45187378 1.4728088 0.6777954 2.309723 0.6777954c1.2915955 0 2.270172 -0.50994873 2.9357605 -1.5298462l0 1.2974548l1.6507263 0l0 -14.194458z" fill-rule="evenodd"/></g></g></svg>