<svg version="1.1" viewBox="0.0 0.0 490.8267716535433 326.2729658792651" fill="none" stroke="none" stroke-linecap="square" stroke-miterlimit="10" xmlns:xlink="http://www.w3.org/1999/xlink" xmlns="http://www.w3.org/2000/svg"><clipPath id="p.0"><path d="m0 0l490.82678 0l0 326.27298l-490.82678 0l0 -326.27298z" clip-rule="nonzero"/></clipPath><g clip-path="url(#p.0)"><path fill="#000000" fill-opacity="0.0" d="m0 0l490.82678 0l0 326.27298l-490.82678 0z" fill-rule="evenodd"/><path fill="#eeeeee" d="m224.95012 234.14677l251.9055 0l0 71.622055l-251.9055 0z" fill-rule="evenodd"/><path fill="#a72a1e" d="m263.1374 234.14703l-176.50394 0l0 71.52756l176.50394 0z" fill-rule="evenodd"/><path fill="#a72a1e" d="m166.12628 305.76303l0 -71.61679l108.64499 0l27.161255 35.80841l-27.161255 35.80838z" fill-rule="evenodd"/><path fill="#000000" fill-opacity="0.0" d="m86.63632 242.76207l168.7559 0l0 55.2126l-168.7559 0z" fill-rule="evenodd"/><path fill="#ffffff" d="m96.60507 265.16837l0 -9.46875l2.796875 0q1.25 0 2.21875 0.5625q0.984375 0.546875 1.515625 1.578125q0.53125 1.03125 0.53125 2.359375l0 0.46875q0 1.34375 -0.546875 2.375q-0.53125 1.015625 -1.53125 1.578125q-0.984375 0.546875 -2.265625 0.546875l-2.71875 0zm1.640625 -8.140625l0 6.828125l1.078125 0q1.296875 0 1.984375 -0.8125q0.6875 -0.8125 0.703125 -2.328125l0 -0.53125q0 -1.53125 -0.671875 -2.34375q-0.671875 -0.8125 -1.9375 -0.8125l-1.15625 0zm14.28566 5.0625q-0.140625 1.515625 -1.125 2.359375q-0.96875 0.84375 -2.578125 0.84375q-1.140625 0 -2.0 -0.53125q-0.859375 -0.53125 -1.328125 -1.515625q-0.46875 -1.0 -0.5 -2.3125l0 -0.875q0 -1.34375 0.46875 -2.359375q0.484375 -1.03125 1.375 -1.578125q0.890625 -0.5625 2.0625 -0.5625q1.5625 0 2.515625 0.859375q0.953125 0.84375 1.109375 2.40625l-1.640625 0q-0.109375 -1.015625 -0.59375 -1.46875q-0.46875 -0.453125 -1.390625 -0.453125q-1.078125 0 -1.65625 0.78125q-0.578125 0.78125 -0.59375 2.296875l0 0.84375q0 1.53125 0.546875 2.34375q0.5625 0.796875 1.625 0.796875q0.96875 0 1.453125 -0.421875q0.484375 -0.4375 0.609375 -1.453125l1.640625 0zm3.1229095 1.765625l4.296875 0l0 1.3125l-5.9375 0l0 -9.46875l1.640625 0l0 8.15625zm14.467239 -3.765625l-5.609375 0l0 -1.3125l5.609375 0l0 1.3125zm0 2.765625l-5.609375 0l0 -1.3125l5.609375 0l0 1.3125zm5.1989136 2.3125l0 -9.46875l2.796875 0q1.25 0 2.21875 0.5625q0.984375 0.546875 1.515625 1.578125q0.53125 1.03125 0.53125 2.359375l0 0.46875q0 1.34375 -0.546875 2.375q-0.53125 1.015625 -1.53125 1.578125q-0.984375 0.546875 -2.265625 0.546875l-2.71875 0zm1.640625 -8.140625l0 6.828125l1.078125 0q1.296875 0 1.984375 -0.8125q0.6875 -0.8125 0.703125 -2.328125l0 -0.53125q0 -1.53125 -0.671875 -2.34375q-0.671875 -0.8125 -1.9375 -0.8125l-1.15625 0zm11.113785 8.140625q-0.109375 -0.203125 -0.1875 -0.65625q-0.75 0.78125 -1.84375 0.78125q-1.0625 0 -1.734375 -0.59375q-0.671875 -0.609375 -0.671875 -1.5q0 -1.125 0.84375 -1.71875q0.84375 -0.609375 2.390625 -0.609375l0.96875 0l0 -0.46875q0 -0.546875 -0.3125 -0.875q-0.296875 -0.328125 -0.921875 -0.328125q-0.546875 0 -0.890625 0.28125q-0.34375 0.265625 -0.34375 0.671875l-1.578125 0q0 -0.578125 0.375 -1.078125q0.390625 -0.5 1.046875 -0.78125q0.671875 -0.296875 1.484375 -0.296875q1.234375 0 1.96875 0.625q0.734375 0.625 0.75 1.75l0 3.171875q0 0.953125 0.265625 1.515625l0 0.109375l-1.609375 0zm-1.734375 -1.140625q0.46875 0 0.875 -0.21875q0.421875 -0.234375 0.625 -0.625l0 -1.328125l-0.84375 0q-0.890625 0 -1.328125 0.3125q-0.4375 0.3125 -0.4375 0.859375q0 0.46875 0.296875 0.734375q0.296875 0.265625 0.8125 0.265625zm6.726349 -7.609375l0 1.703125l1.234375 0l0 1.171875l-1.234375 0l0 3.9375q0 0.40625 0.15625 0.59375q0.15625 0.171875 0.5625 0.171875q0.28125 0 0.5625 -0.078125l0 1.234375q-0.546875 0.140625 -1.046875 0.140625q-1.828125 0 -1.828125 -2.0l0 -4.0l-1.15625 0l0 -1.171875l1.15625 0l0 -1.703125l1.59375 0zm6.6506195 8.75q-0.109375 -0.203125 -0.1875 -0.65625q-0.75 0.78125 -1.84375 0.78125q-1.0625 0 -1.734375 -0.59375q-0.671875 -0.609375 -0.671875 -1.5q0 -1.125 0.84375 -1.71875q0.84375 -0.609375 2.390625 -0.609375l0.96875 0l0 -0.46875q0 -0.546875 -0.3125 -0.875q-0.296875 -0.328125 -0.921875 -0.328125q-0.546875 0 -0.890625 0.28125q-0.34375 0.265625 -0.34375 0.671875l-1.578125 0q0 -0.578125 0.375 -1.078125q0.390625 -0.5 1.046875 -0.78125q0.671875 -0.296875 1.484375 -0.296875q1.234375 0 1.96875 0.625q0.734375 0.625 0.75 1.75l0 3.171875q0 0.953125 0.265625 1.515625l0 0.109375l-1.609375 0zm-1.734375 -1.140625q0.46875 0 0.875 -0.21875q0.421875 -0.234375 0.625 -0.625l0 -1.328125l-0.84375 0q-0.890625 0 -1.328125 0.3125q-0.4375 0.3125 -0.4375 0.859375q0 0.46875 0.296875 0.734375q0.296875 0.265625 0.8125 0.265625zm15.435989 -1.9375q-0.140625 1.515625 -1.125 2.359375q-0.96875 0.84375 -2.578125 0.84375q-1.140625 0 -2.0 -0.53125q-0.859375 -0.53125 -1.328125 -1.515625q-0.46875 -1.0 -0.5 -2.3125l0 -0.875q0 -1.34375 0.46875 -2.359375q0.484375 -1.03125 1.375 -1.578125q0.890625 -0.5625 2.0625 -0.5625q1.5625 0 2.515625 0.859375q0.953125 0.84375 1.109375 2.40625l-1.640625 0q-0.109375 -1.015625 -0.59375 -1.46875q-0.46875 -0.453125 -1.390625 -0.453125q-1.078125 0 -1.65625 0.78125q-0.578125 0.78125 -0.59375 2.296875l0 0.84375q0 1.53125 0.546875 2.34375q0.5625 0.796875 1.625 0.796875q0.96875 0 1.453125 -0.421875q0.484375 -0.4375 0.609375 -1.453125l1.640625 0zm1.0291595 -0.5q0 -1.046875 0.40625 -1.875q0.40625 -0.828125 1.140625 -1.265625q0.75 -0.453125 1.71875 -0.453125q1.421875 0 2.3125 0.921875q0.890625 0.90625 0.953125 2.4375l0.015625 0.359375q0 1.046875 -0.40625 1.875q-0.390625 0.8125 -1.140625 1.265625q-0.75 0.4375 -1.71875 0.4375q-1.5 0 -2.390625 -0.984375q-0.890625 -1.0 -0.890625 -2.640625l0 -0.078125zm1.578125 0.125q0 1.09375 0.453125 1.71875q0.453125 0.609375 1.25 0.609375q0.796875 0 1.234375 -0.625q0.453125 -0.625 0.453125 -1.828125q0 -1.078125 -0.46875 -1.703125q-0.453125 -0.625 -1.234375 -0.625q-0.78125 0 -1.234375 0.625q-0.453125 0.609375 -0.453125 1.828125zm7.7756805 -3.59375l0.046875 0.8125q0.78125 -0.9375 2.046875 -0.9375q2.203125 0 2.234375 2.515625l0 4.65625l-1.578125 0l0 -4.5625q0 -0.671875 -0.296875 -0.984375q-0.28125 -0.328125 -0.9375 -0.328125q-0.953125 0 -1.421875 0.859375l0 5.015625l-1.59375 0l0 -7.046875l1.5 0zm7.9281006 -1.703125l0 1.703125l1.234375 0l0 1.171875l-1.234375 0l0 3.9375q0 0.40625 0.15625 0.59375q0.15625 0.171875 0.5625 0.171875q0.28125 0 0.5625 -0.078125l0 1.234375q-0.546875 0.140625 -1.046875 0.140625q-1.828125 0 -1.828125 -2.0l0 -4.0l-1.15625 0l0 -1.171875l1.15625 0l0 -1.703125l1.59375 0zm6.1349945 3.15625q-0.3125 -0.0625 -0.640625 -0.0625q-1.09375 0 -1.46875 0.84375l0 4.8125l-1.578125 0l0 -7.046875l1.5 0l0.046875 0.796875q0.5625 -0.921875 1.578125 -0.921875q0.34375 0 0.5625 0.09375l0 1.484375zm0.46691895 2.015625q0 -1.046875 0.40625 -1.875q0.40625 -0.828125 1.140625 -1.265625q0.75 -0.453125 1.71875 -0.453125q1.421875 0 2.3125 0.921875q0.890625 0.90625 0.953125 2.4375l0.015625 0.359375q0 1.046875 -0.40625 1.875q-0.390625 0.8125 -1.140625 1.265625q-0.75 0.4375 -1.71875 0.4375q-1.5 0 -2.390625 -0.984375q-0.890625 -1.0 -0.890625 -2.640625l0 -0.078125zm1.578125 0.125q0 1.09375 0.453125 1.71875q0.453125 0.609375 1.25 0.609375q0.796875 0 1.234375 -0.625q0.453125 -0.625 0.453125 -1.828125q0 -1.078125 -0.46875 -1.703125q-0.453125 -0.625 -1.234375 -0.625q-0.78125 0 -1.234375 0.625q-0.453125 0.609375 -0.453125 1.828125zm7.9944305 3.453125l-1.59375 0l0 -10.0l1.59375 0l0 10.0z" fill-rule="nonzero"/><path fill="#ffffff" d="m98.2457 281.85587l4.296875 0l0 1.3125l-5.9375 0l0 -9.46875l1.640625 0l0 8.15625zm9.616974 1.3125q-0.109375 -0.203125 -0.1875 -0.65625q-0.75 0.78125 -1.84375 0.78125q-1.0625 0 -1.734375 -0.59375q-0.671875 -0.609375 -0.671875 -1.5q0 -1.125 0.84375 -1.71875q0.84375 -0.609375 2.390625 -0.609375l0.96875 0l0 -0.46875q0 -0.546875 -0.3125 -0.875q-0.296875 -0.328125 -0.921875 -0.328125q-0.546875 0 -0.890625 0.28125q-0.34375 0.265625 -0.34375 0.671875l-1.578125 0q0 -0.578125 0.375 -1.078125q0.390625 -0.5 1.046875 -0.78125q0.671875 -0.296875 1.484375 -0.296875q1.234375 0 1.96875 0.625q0.734375 0.625 0.75 1.75l0 3.171875q0 0.953125 0.265625 1.515625l0 0.109375l-1.609375 0zm-1.734375 -1.140625q0.46875 0 0.875 -0.21875q0.421875 -0.234375 0.625 -0.625l0 -1.328125l-0.84375 0q-0.890625 0 -1.328125 0.3125q-0.4375 0.3125 -0.4375 0.859375q0 0.46875 0.296875 0.734375q0.296875 0.265625 0.8125 0.265625zm6.210724 -5.90625l0.046875 0.8125q0.78125 -0.9375 2.046875 -0.9375q2.203125 0 2.234375 2.515625l0 4.65625l-1.578125 0l0 -4.5625q0 -0.671875 -0.296875 -0.984375q-0.28125 -0.328125 -0.9375 -0.328125q-0.953125 0 -1.421875 0.859375l0 5.015625l-1.59375 0l0 -7.046875l1.5 0zm5.6624756 3.46875q0 -1.640625 0.765625 -2.609375q0.78125 -0.984375 2.046875 -0.984375q1.21875 0 1.90625 0.84375l0.0625 -0.71875l1.421875 0l0 6.828125q0 1.390625 -0.859375 2.1875q-0.859375 0.796875 -2.328125 0.796875q-0.765625 0 -1.515625 -0.328125q-0.734375 -0.3125 -1.109375 -0.828125l0.75 -0.953125q0.71875 0.859375 1.796875 0.859375q0.78125 0 1.234375 -0.421875q0.453125 -0.421875 0.453125 -1.25l0 -0.46875q-0.671875 0.75 -1.8125 0.75q-1.234375 0 -2.03125 -0.96875q-0.78125 -0.984375 -0.78125 -2.734375zm1.578125 0.140625q0 1.0625 0.421875 1.671875q0.4375 0.609375 1.203125 0.609375q0.96875 0 1.421875 -0.828125l0 -3.09375q-0.4375 -0.796875 -1.40625 -0.796875q-0.78125 0 -1.21875 0.625q-0.421875 0.609375 -0.421875 1.8125zm10.524399 2.75q-0.703125 0.8125 -1.984375 0.8125q-1.140625 0 -1.734375 -0.65625q-0.578125 -0.671875 -0.578125 -1.953125l0 -4.5625l1.578125 0l0 4.546875q0 1.34375 1.109375 1.34375q1.15625 0 1.5625 -0.828125l0 -5.0625l1.578125 0l0 7.046875l-1.5 0l-0.03125 -0.6875zm7.34346 0.6875q-0.109375 -0.203125 -0.1875 -0.65625q-0.75 0.78125 -1.84375 0.78125q-1.0625 0 -1.734375 -0.59375q-0.671875 -0.609375 -0.671875 -1.5q0 -1.125 0.84375 -1.71875q0.84375 -0.609375 2.390625 -0.609375l0.96875 0l0 -0.46875q0 -0.546875 -0.3125 -0.875q-0.296875 -0.328125 -0.921875 -0.328125q-0.546875 0 -0.890625 0.28125q-0.34375 0.265625 -0.34375 0.671875l-1.578125 0q0 -0.578125 0.375 -1.078125q0.390625 -0.5 1.046875 -0.78125q0.671875 -0.296875 1.484375 -0.296875q1.234375 0 1.96875 0.625q0.734375 0.625 0.75 1.75l0 3.171875q0 0.953125 0.265625 1.515625l0 0.109375l-1.609375 0zm-1.734375 -1.140625q0.46875 0 0.875 -0.21875q0.421875 -0.234375 0.625 -0.625l0 -1.328125l-0.84375 0q-0.890625 0 -1.328125 0.3125q-0.4375 0.3125 -0.4375 0.859375q0 0.46875 0.296875 0.734375q0.296875 0.265625 0.8125 0.265625zm4.460724 -2.4375q0 -1.640625 0.765625 -2.609375q0.78125 -0.984375 2.046875 -0.984375q1.21875 0 1.90625 0.84375l0.0625 -0.71875l1.421875 0l0 6.828125q0 1.390625 -0.859375 2.1875q-0.859375 0.796875 -2.328125 0.796875q-0.765625 0 -1.515625 -0.328125q-0.734375 -0.3125 -1.109375 -0.828125l0.75 -0.953125q0.71875 0.859375 1.796875 0.859375q0.78125 0 1.234375 -0.421875q0.453125 -0.421875 0.453125 -1.25l0 -0.46875q-0.671875 0.75 -1.8125 0.75q-1.234375 0 -2.03125 -0.96875q-0.78125 -0.984375 -0.78125 -2.734375zm1.578125 0.140625q0 1.0625 0.421875 1.671875q0.4375 0.609375 1.203125 0.609375q0.96875 0 1.421875 -0.828125l0 -3.09375q-0.4375 -0.796875 -1.40625 -0.796875q-0.78125 0 -1.21875 0.625q-0.421875 0.609375 -0.421875 1.8125zm9.352524 3.5625q-1.5 0 -2.4375 -0.9375q-0.921875 -0.953125 -0.921875 -2.53125l0 -0.1875q0 -1.0625 0.40625 -1.890625q0.40625 -0.828125 1.140625 -1.28125q0.734375 -0.46875 1.640625 -0.46875q1.4375 0 2.21875 0.921875q0.78125 0.90625 0.78125 2.59375l0 0.640625l-4.59375 0q0.0625 0.875 0.578125 1.390625q0.515625 0.5 1.28125 0.5q1.09375 0 1.765625 -0.890625l0.859375 0.8125q-0.421875 0.640625 -1.125 0.984375q-0.703125 0.34375 -1.59375 0.34375zm-0.1875 -6.03125q-0.640625 0 -1.046875 0.46875q-0.40625 0.453125 -0.515625 1.265625l3.015625 0l0 -0.125q-0.046875 -0.796875 -0.421875 -1.203125q-0.375 -0.40625 -1.03125 -0.40625z" fill-rule="nonzero"/><g filter="url(#shadowFilter-p.1)"><use xlink:href="#p.1" transform="matrix(1.0 0.0 0.0 1.0 2.1213204291236054 2.1213204291236054)"/></g><defs><filter id="shadowFilter-p.1" filterUnits="userSpaceOnUse"><feGaussianBlur in="SourceAlpha" stdDeviation="2.5" result="blur"/><feComponentTransfer in="blur" color-interpolation-filters="sRGB"><feFuncR type="linear" slope="0" intercept="0.0"/><feFuncG type="linear" slope="0" intercept="0.0"/><feFuncB type="linear" slope="0" intercept="0.0"/><feFuncA type="linear" slope="0.17" intercept="0"/></feComponentTransfer></filter></defs><g id="p.1"><path fill="#b02c20" d="m20.604214 234.14624l66.01575 0l0 71.49606l-66.01575 0z" fill-rule="evenodd"/></g><path fill="#be2f22" d="m20.604214 234.14703l66.01575 0l0 71.52756l-66.01575 0z" fill-rule="evenodd"/><path fill="#ffffff" d="m51.501904 272.14395q0 4.953125 -1.9375 7.671875q-1.921875 2.71875 -5.40625 2.71875q-3.46875 0 -5.4375 -2.734375q-1.96875 -2.75 -1.96875 -7.734375l0 -4.46875q0 -4.90625 1.9375 -7.65625q1.9375 -2.75 5.421875 -2.75q3.515625 0 5.453125 2.75q1.9375 2.75 1.9375 7.734375l0 4.46875zm-0.921875 -4.546875q0 -4.484375 -1.6875 -6.984375q-1.671875 -2.5 -4.78125 -2.5q-3.109375 0 -4.78125 2.515625q-1.65625 2.515625 -1.65625 7.0625l0 4.421875q0 4.453125 1.703125 6.984375q1.71875 2.515625 4.78125 2.515625q3.078125 0 4.75 -2.515625q1.671875 -2.53125 1.671875 -7.078125l0 -4.421875zm17.282063 6.96875l4.265625 0l0 0.90625l-4.265625 0l0 6.71875l-0.921875 0l0 -6.71875l-11.937504 0l0 -0.5l11.750004 -17.421875l1.109375 0l0 17.015625zm-11.437504 0l10.515629 0l0 -15.90625l-1.421875 2.328125l-9.093754 13.578125z" fill-rule="nonzero"/><path fill="#000000" fill-opacity="0.0" d="m287.60516 234.27766l179.02362 0l0 71.49608l-179.02362 0z" fill-rule="evenodd"/><path fill="#a72a1e" d="m317.38748 259.96884q0.578125 0 1.125 0.296875q0.546875 0.296875 0.859375 0.859375q0.3125 0.546875 0.3125 1.140625q0 0.9375 -0.671875 1.609375q-0.671875 0.671875 -1.625 0.671875q-0.953125 0 -1.625 -0.671875q-0.671875 -0.671875 -0.671875 -1.609375q0 -0.609375 0.3125 -1.15625q0.3125 -0.546875 0.859375 -0.84375q0.546875 -0.296875 1.125 -0.296875z" fill-rule="nonzero"/><path fill="#a72a1e" d="m351.0739 264.26572q-0.375 0.5625 -1.078125 0.84375q-0.6875 0.265625 -1.59375 0.265625q-0.9375 0 -1.65625 -0.4375q-0.703125 -0.4375 -1.109375 -1.234375q-0.390625 -0.8125 -0.390625 -1.859375l0 -0.65625q0 -1.71875 0.796875 -2.65625q0.796875 -0.953125 2.234375 -0.953125q1.1875 0 1.90625 0.609375q0.734375 0.609375 0.890625 1.71875l-1.0 0q-0.28125 -1.5 -1.78125 -1.5q-1.015625 0 -1.53125 0.703125q-0.515625 0.703125 -0.515625 2.046875l0 0.625q0 1.265625 0.578125 2.015625q0.578125 0.75 1.578125 0.75q0.5625 0 0.984375 -0.125q0.421875 -0.125 0.703125 -0.421875l0 -1.6875l-1.765625 0l0 -0.8125l2.75 0l0 2.765625zm4.4460144 -2.0625l-1.78125 0l0 3.0625l-1.0 0l0 -7.578125l2.5 0q1.28125 0 1.96875 0.59375q0.703125 0.578125 0.703125 1.6875q0 0.703125 -0.390625 1.234375q-0.375 0.53125 -1.0625 0.78125l1.78125 3.21875l0 0.0625l-1.078125 0l-1.640625 -3.0625zm-1.78125 -0.8125l1.53125 0q0.75 0 1.1875 -0.390625q0.4375 -0.390625 0.4375 -1.03125q0 -0.703125 -0.421875 -1.078125q-0.40625 -0.375 -1.203125 -0.375l-1.53125 0l0 2.875zm9.74881 1.890625l-3.171875 0l-0.71875 1.984375l-1.03125 0l2.890625 -7.578125l0.875 0l2.90625 7.578125l-1.03125 0l-0.71875 -1.984375zm-2.875 -0.8125l2.578125 0l-1.296875 -3.546875l-1.28125 3.546875zm11.467163 2.796875l-1.0 0l-3.8125 -5.84375l0 5.84375l-1.015625 0l0 -7.578125l1.015625 0l3.8125 5.859375l0 -5.859375l1.0 0l0 7.578125zm6.8519287 -6.75l-2.4375 0l0 6.75l-0.984375 0l0 -6.75l-2.4375 0l0 -0.828125l5.859375 0l0 0.828125z" fill-rule="nonzero"/><path fill="#a72a1e" d="m317.38748 274.9688q0.578125 0 1.125 0.296875q0.546875 0.296875 0.859375 0.859375q0.3125 0.546875 0.3125 1.140625q0 0.9375 -0.671875 1.609375q-0.671875 0.671875 -1.625 0.671875q-0.953125 0 -1.625 -0.671875q-0.671875 -0.671875 -0.671875 -1.609375q0 -0.609375 0.3125 -1.15625q0.3125 -0.546875 0.859375 -0.84375q0.546875 -0.296875 1.125 -0.296875z" fill-rule="nonzero"/><path fill="#a72a1e" d="m348.2614 277.2032l-1.78125 0l0 3.0625l-1.0 0l0 -7.578125l2.5 0q1.28125 0 1.96875 0.59375q0.703125 0.578125 0.703125 1.6875q0 0.703125 -0.390625 1.234375q-0.375 0.53125 -1.0625 0.78125l1.78125 3.21875l0 0.0625l-1.078125 0l-1.640625 -3.0625zm-1.78125 -0.8125l1.53125 0q0.75 0 1.1875 -0.390625q0.4375 -0.390625 0.4375 -1.03125q0 -0.703125 -0.421875 -1.078125q-0.40625 -0.375 -1.203125 -0.375l-1.53125 0l0 2.875zm9.842529 0.375l-3.28125 0l0 2.6875l3.8125 0l0 0.8125l-4.8125 0l0 -7.578125l4.765625 0l0 0.828125l-3.765625 0l0 2.4375l3.28125 0l0 0.8125zm4.2909546 2.171875l2.15625 -6.25l1.09375 0l-2.8125 7.578125l-0.875 0l-2.8125 -7.578125l1.09375 0l2.15625 6.25zm10.024628 -2.21875q0 1.109375 -0.375 1.953125q-0.375 0.828125 -1.0625 1.265625q-0.6875 0.4375 -1.59375 0.4375q-0.90625 0 -1.59375 -0.4375q-0.6875 -0.453125 -1.078125 -1.265625q-0.375 -0.8125 -0.390625 -1.875l0 -0.546875q0 -1.09375 0.375 -1.9375q0.390625 -0.84375 1.078125 -1.28125q0.703125 -0.453125 1.59375 -0.453125q0.90625 0 1.59375 0.453125q0.703125 0.4375 1.078125 1.28125q0.375 0.828125 0.375 1.9375l0 0.46875zm-0.984375 -0.484375q0 -1.34375 -0.546875 -2.0625q-0.546875 -0.734375 -1.515625 -0.734375q-0.953125 0 -1.5 0.734375q-0.53125 0.71875 -0.546875 2.0l0 0.546875q0 1.3125 0.546875 2.0625q0.546875 0.734375 1.515625 0.734375q0.96875 0 1.5 -0.703125q0.53125 -0.703125 0.546875 -2.015625l0 -0.5625zm4.404297 0.515625l-0.921875 0.953125l0 2.5625l-1.0 0l0 -7.578125l1.0 0l0 3.75l3.375 -3.75l1.203125 0l-2.984375 3.34375l3.21875 4.234375l-1.203125 0l-2.6875 -3.515625zm9.040344 0.015625l-3.28125 0l0 2.6875l3.8125 0l0 0.8125l-4.8125 0l0 -7.578125l4.765625 0l0 0.828125l-3.765625 0l0 2.4375l3.28125 0l0 0.8125z" fill-rule="nonzero"/><path fill="#eeeeee" d="m224.95012 161.2499l251.9055 0l0 71.622055l-251.9055 0z" fill-rule="evenodd"/><path fill="#a72a1e" d="m263.1374 161.25003l-176.50394 0l0 71.52756l176.50394 0z" fill-rule="evenodd"/><path fill="#a72a1e" d="m166.12628 232.86604l0 -71.616806l108.64499 0l27.161255 35.80841l-27.161255 35.808395z" fill-rule="evenodd"/><path fill="#000000" fill-opacity="0.0" d="m86.63635 169.86346l176.50394 0l0 55.2126l-176.50394 0z" fill-rule="evenodd"/><path fill="#ffffff" d="m103.44885 184.12914l-2.953125 0l0 8.140625l-1.640625 0l0 -8.140625l-2.921875 0l0 -1.328125l7.515625 0l0 1.328125zm8.281998 5.0625q-0.140625 1.515625 -1.125 2.359375q-0.96875 0.84375 -2.578125 0.84375q-1.140625 0 -2.0 -0.53125q-0.859375 -0.53125 -1.328125 -1.515625q-0.46875 -1.0 -0.5 -2.3125l0 -0.875q0 -1.34375 0.46875 -2.359375q0.484375 -1.03125 1.375 -1.578125q0.890625 -0.5625 2.0625 -0.5625q1.5625 0 2.515625 0.859375q0.953125 0.84375 1.109375 2.40625l-1.640625 0q-0.109375 -1.015625 -0.59375 -1.46875q-0.46875 -0.453125 -1.390625 -0.453125q-1.078125 0 -1.65625 0.78125q-0.578125 0.78125 -0.59375 2.296875l0 0.84375q0 1.53125 0.546875 2.34375q0.5625 0.796875 1.625 0.796875q0.96875 0 1.453125 -0.421875q0.484375 -0.4375 0.609375 -1.453125l1.640625 0zm3.1229095 1.765625l4.296875 0l0 1.3125l-5.9375 0l0 -9.46875l1.640625 0l0 8.15625zm14.467239 -3.765625l-5.609375 0l0 -1.3125l5.609375 0l0 1.3125zm0 2.765625l-5.609375 0l0 -1.3125l5.609375 0l0 1.3125zm11.652039 -5.828125l-2.953125 0l0 8.140625l-1.640625 0l0 -8.140625l-2.921875 0l0 -1.328125l7.515625 0l0 1.328125zm4.3536224 2.546875q-0.3125 -0.0625 -0.640625 -0.0625q-1.09375 0 -1.46875 0.84375l0 4.8125l-1.578125 0l0 -7.046875l1.5 0l0.046875 0.796875q0.5625 -0.921875 1.578125 -0.921875q0.34375 0 0.5625 0.09375l0 1.484375zm5.0059814 5.59375q-0.109375 -0.203125 -0.1875 -0.65625q-0.75 0.78125 -1.84375 0.78125q-1.0625 0 -1.734375 -0.59375q-0.671875 -0.609375 -0.671875 -1.5q0 -1.125 0.84375 -1.71875q0.84375 -0.609375 2.390625 -0.609375l0.96875 0l0 -0.46875q0 -0.546875 -0.3125 -0.875q-0.296875 -0.328125 -0.921875 -0.328125q-0.546875 0 -0.890625 0.28125q-0.34375 0.265625 -0.34375 0.671875l-1.578125 0q0 -0.578125 0.375 -1.078125q0.390625 -0.5 1.046875 -0.78125q0.671875 -0.296875 1.484375 -0.296875q1.234375 0 1.96875 0.625q0.734375 0.625 0.75 1.75l0 3.171875q0 0.953125 0.265625 1.515625l0 0.109375l-1.609375 0zm-1.734375 -1.140625q0.46875 0 0.875 -0.21875q0.421875 -0.234375 0.625 -0.625l0 -1.328125l-0.84375 0q-0.890625 0 -1.328125 0.3125q-0.4375 0.3125 -0.4375 0.859375q0 0.46875 0.296875 0.734375q0.296875 0.265625 0.8125 0.265625zm6.210724 -5.90625l0.046875 0.8125q0.78125 -0.9375 2.046875 -0.9375q2.203125 0 2.234375 2.515625l0 4.65625l-1.578125 0l0 -4.5625q0 -0.671875 -0.296875 -0.984375q-0.28125 -0.328125 -0.9375 -0.328125q-0.953125 0 -1.421875 0.859375l0 5.015625l-1.59375 0l0 -7.046875l1.5 0zm9.881226 5.140625q0 -0.4375 -0.34375 -0.65625q-0.34375 -0.21875 -1.15625 -0.390625q-0.796875 -0.171875 -1.34375 -0.421875q-1.1875 -0.578125 -1.1875 -1.65625q0 -0.921875 0.765625 -1.53125q0.78125 -0.609375 1.953125 -0.609375q1.265625 0 2.046875 0.625q0.78125 0.625 0.78125 1.625l-1.59375 0q0 -0.453125 -0.34375 -0.75q-0.328125 -0.3125 -0.890625 -0.3125q-0.515625 0 -0.84375 0.25q-0.328125 0.234375 -0.328125 0.625q0 0.375 0.296875 0.578125q0.3125 0.203125 1.234375 0.40625q0.9375 0.203125 1.46875 0.484375q0.53125 0.28125 0.78125 0.6875q0.265625 0.390625 0.265625 0.953125q0 0.953125 -0.796875 1.546875q-0.78125 0.578125 -2.046875 0.578125q-0.875 0 -1.546875 -0.3125q-0.671875 -0.3125 -1.0625 -0.859375q-0.375 -0.546875 -0.375 -1.171875l1.546875 0q0.03125 0.5625 0.421875 0.875q0.390625 0.296875 1.03125 0.296875q0.625 0 0.9375 -0.234375q0.328125 -0.25 0.328125 -0.625zm7.144455 1.90625q-0.109375 -0.203125 -0.1875 -0.65625q-0.75 0.78125 -1.84375 0.78125q-1.0625 0 -1.734375 -0.59375q-0.671875 -0.609375 -0.671875 -1.5q0 -1.125 0.84375 -1.71875q0.84375 -0.609375 2.390625 -0.609375l0.96875 0l0 -0.46875q0 -0.546875 -0.3125 -0.875q-0.296875 -0.328125 -0.921875 -0.328125q-0.546875 0 -0.890625 0.28125q-0.34375 0.265625 -0.34375 0.671875l-1.578125 0q0 -0.578125 0.375 -1.078125q0.390625 -0.5 1.046875 -0.78125q0.671875 -0.296875 1.484375 -0.296875q1.234375 0 1.96875 0.625q0.734375 0.625 0.75 1.75l0 3.171875q0 0.953125 0.265625 1.515625l0 0.109375l-1.609375 0zm-1.734375 -1.140625q0.46875 0 0.875 -0.21875q0.421875 -0.234375 0.625 -0.625l0 -1.328125l-0.84375 0q-0.890625 0 -1.328125 0.3125q-0.4375 0.3125 -0.4375 0.859375q0 0.46875 0.296875 0.734375q0.296875 0.265625 0.8125 0.265625zm7.632599 0.015625q0.59375 0 0.984375 -0.34375q0.390625 -0.359375 0.421875 -0.859375l1.484375 0q-0.03125 0.65625 -0.421875 1.234375q-0.375 0.5625 -1.03125 0.890625q-0.65625 0.328125 -1.421875 0.328125q-1.46875 0 -2.34375 -0.953125q-0.859375 -0.953125 -0.859375 -2.640625l0 -0.15625q0 -1.609375 0.859375 -2.578125q0.859375 -0.96875 2.34375 -0.96875q1.25 0 2.03125 0.734375q0.796875 0.734375 0.84375 1.921875l-1.484375 0q-0.03125 -0.609375 -0.421875 -1.0q-0.390625 -0.390625 -0.984375 -0.390625q-0.765625 0 -1.1875 0.5625q-0.40625 0.546875 -0.421875 1.6875l0 0.25q0 1.140625 0.40625 1.71875q0.421875 0.5625 1.203125 0.5625zm6.0701904 -7.625l0 1.703125l1.234375 0l0 1.171875l-1.234375 0l0 3.9375q0 0.40625 0.15625 0.59375q0.15625 0.171875 0.5625 0.171875q0.28125 0 0.5625 -0.078125l0 1.234375q-0.546875 0.140625 -1.046875 0.140625q-1.828125 0 -1.828125 -2.0l0 -4.0l-1.15625 0l0 -1.171875l1.15625 0l0 -1.703125l1.59375 0zm4.1349945 8.75l-1.59375 0l0 -7.046875l1.59375 0l0 7.046875zm-1.6875 -8.875q0 -0.359375 0.234375 -0.59375q0.234375 -0.25 0.65625 -0.25q0.4375 0 0.671875 0.25q0.234375 0.234375 0.234375 0.59375q0 0.359375 -0.234375 0.609375q-0.234375 0.234375 -0.671875 0.234375q-0.421875 0 -0.65625 -0.234375q-0.234375 -0.25 -0.234375 -0.609375zm3.1067505 5.296875q0 -1.046875 0.40625 -1.875q0.40625 -0.828125 1.140625 -1.265625q0.75 -0.453125 1.71875 -0.453125q1.421875 0 2.3125 0.921875q0.890625 0.90625 0.953125 2.4375l0.015625 0.359375q0 1.046875 -0.40625 1.875q-0.390625 0.8125 -1.140625 1.265625q-0.75 0.4375 -1.71875 0.4375q-1.5 0 -2.390625 -0.984375q-0.890625 -1.0 -0.890625 -2.640625l0 -0.078125zm1.578125 0.125q0 1.09375 0.453125 1.71875q0.453125 0.609375 1.25 0.609375q0.796875 0 1.234375 -0.625q0.453125 -0.625 0.453125 -1.828125q0 -1.078125 -0.46875 -1.703125q-0.453125 -0.625 -1.234375 -0.625q-0.78125 0 -1.234375 0.625q-0.453125 0.609375 -0.453125 1.828125zm7.7756805 -3.59375l0.046875 0.8125q0.78125 -0.9375 2.046875 -0.9375q2.203125 0 2.234375 2.515625l0 4.65625l-1.578125 0l0 -4.5625q0 -0.671875 -0.296875 -0.984375q-0.28125 -0.328125 -0.9375 -0.328125q-0.953125 0 -1.421875 0.859375l0 5.015625l-1.59375 0l0 -7.046875l1.5 0zm16.637741 3.96875q-0.140625 1.515625 -1.125 2.359375q-0.96875 0.84375 -2.578125 0.84375q-1.140625 0 -2.0 -0.53125q-0.859375 -0.53125 -1.328125 -1.515625q-0.46875 -1.0 -0.5 -2.3125l0 -0.875q0 -1.34375 0.46875 -2.359375q0.484375 -1.03125 1.375 -1.578125q0.890625 -0.5625 2.0625 -0.5625q1.5625 0 2.515625 0.859375q0.953125 0.84375 1.109375 2.40625l-1.640625 0q-0.109375 -1.015625 -0.59375 -1.46875q-0.46875 -0.453125 -1.390625 -0.453125q-1.078125 0 -1.65625 0.78125q-0.578125 0.78125 -0.59375 2.296875l0 0.84375q0 1.53125 0.546875 2.34375q0.5625 0.796875 1.625 0.796875q0.96875 0 1.453125 -0.421875q0.484375 -0.4375 0.609375 -1.453125l1.640625 0zm1.0291595 -0.5q0 -1.046875 0.40625 -1.875q0.40625 -0.828125 1.140625 -1.265625q0.75 -0.453125 1.71875 -0.453125q1.421875 0 2.3125 0.921875q0.890625 0.90625 0.953125 2.4375l0.015625 0.359375q0 1.046875 -0.40625 1.875q-0.390625 0.8125 -1.140625 1.265625q-0.75 0.4375 -1.71875 0.4375q-1.5 0 -2.390625 -0.984375q-0.890625 -1.0 -0.890625 -2.640625l0 -0.078125zm1.578125 0.125q0 1.09375 0.453125 1.71875q0.453125 0.609375 1.25 0.609375q0.796875 0 1.234375 -0.625q0.453125 -0.625 0.453125 -1.828125q0 -1.078125 -0.46875 -1.703125q-0.453125 -0.625 -1.234375 -0.625q-0.78125 0 -1.234375 0.625q-0.453125 0.609375 -0.453125 1.828125zm7.7756805 -3.59375l0.046875 0.8125q0.78125 -0.9375 2.046875 -0.9375q2.203125 0 2.234375 2.515625l0 4.65625l-1.578125 0l0 -4.5625q0 -0.671875 -0.296875 -0.984375q-0.28125 -0.328125 -0.9375 -0.328125q-0.953125 0 -1.421875 0.859375l0 5.015625l-1.59375 0l0 -7.046875l1.5 0zm7.9281006 -1.703125l0 1.703125l1.234375 0l0 1.171875l-1.234375 0l0 3.9375q0 0.40625 0.15625 0.59375q0.15625 0.171875 0.5625 0.171875q0.28125 0 0.5625 -0.078125l0 1.234375q-0.546875 0.140625 -1.046875 0.140625q-1.828125 0 -1.828125 -2.0l0 -4.0l-1.15625 0l0 -1.171875l1.15625 0l0 -1.703125l1.59375 0zm6.1349945 3.15625q-0.3125 -0.0625 -0.640625 -0.0625q-1.09375 0 -1.46875 0.84375l0 4.8125l-1.578125 0l0 -7.046875l1.5 0l0.046875 0.796875q0.5625 -0.921875 1.578125 -0.921875q0.34375 0 0.5625 0.09375l0 1.484375zm0.46691895 2.015625q0 -1.046875 0.40625 -1.875q0.40625 -0.828125 1.140625 -1.265625q0.75 -0.453125 1.71875 -0.453125q1.421875 0 2.3125 0.921875q0.890625 0.90625 0.953125 2.4375l0.015625 0.359375q0 1.046875 -0.40625 1.875q-0.390625 0.8125 -1.140625 1.265625q-0.75 0.4375 -1.71875 0.4375q-1.5 0 -2.390625 -0.984375q-0.890625 -1.0 -0.890625 -2.640625l0 -0.078125zm1.578125 0.125q0 1.09375 0.453125 1.71875q0.453125 0.609375 1.25 0.609375q0.796875 0 1.234375 -0.625q0.453125 -0.625 0.453125 -1.828125q0 -1.078125 -0.46875 -1.703125q-0.453125 -0.625 -1.234375 -0.625q-0.78125 0 -1.234375 0.625q-0.453125 0.609375 -0.453125 1.828125zm7.9944305 3.453125l-1.59375 0l0 -10.0l1.59375 0l0 10.0z" fill-rule="nonzero"/><path fill="#ffffff" d="m98.24573 208.95726l4.296875 0l0 1.3125l-5.9375 0l0 -9.46875l1.640625 0l0 8.15625zm9.616974 1.3125q-0.109375 -0.203125 -0.1875 -0.65625q-0.75 0.78125 -1.84375 0.78125q-1.0625 0 -1.734375 -0.59375q-0.671875 -0.609375 -0.671875 -1.5q0 -1.125 0.84375 -1.71875q0.84375 -0.609375 2.390625 -0.609375l0.96875 0l0 -0.46875q0 -0.546875 -0.3125 -0.875q-0.296875 -0.328125 -0.921875 -0.328125q-0.546875 0 -0.890625 0.28125q-0.34375 0.265625 -0.34375 0.671875l-1.578125 0q0 -0.578125 0.375 -1.078125q0.390625 -0.5 1.046875 -0.78125q0.671875 -0.296875 1.484375 -0.296875q1.234375 0 1.96875 0.625q0.734375 0.625 0.75 1.75l0 3.171875q0 0.953125 0.265625 1.515625l0 0.109375l-1.609375 0zm-1.734375 -1.140625q0.46875 0 0.875 -0.21875q0.421875 -0.234375 0.625 -0.625l0 -1.328125l-0.84375 0q-0.890625 0 -1.328125 0.3125q-0.4375 0.3125 -0.4375 0.859375q0 0.46875 0.296875 0.734375q0.296875 0.265625 0.8125 0.265625zm6.210724 -5.90625l0.046875 0.8125q0.78125 -0.9375 2.046875 -0.9375q2.203125 0 2.234375 2.515625l0 4.65625l-1.578125 0l0 -4.5625q0 -0.671875 -0.296875 -0.984375q-0.28125 -0.328125 -0.9375 -0.328125q-0.953125 0 -1.421875 0.859375l0 5.015625l-1.59375 0l0 -7.046875l1.5 0zm5.6624756 3.46875q0 -1.640625 0.765625 -2.609375q0.78125 -0.984375 2.046875 -0.984375q1.21875 0 1.90625 0.84375l0.0625 -0.71875l1.421875 0l0 6.828125q0 1.390625 -0.859375 2.1875q-0.859375 0.796875 -2.328125 0.796875q-0.765625 0 -1.515625 -0.328125q-0.734375 -0.3125 -1.109375 -0.828125l0.75 -0.953125q0.71875 0.859375 1.796875 0.859375q0.78125 0 1.234375 -0.421875q0.453125 -0.421875 0.453125 -1.25l0 -0.46875q-0.671875 0.75 -1.8125 0.75q-1.234375 0 -2.03125 -0.96875q-0.78125 -0.984375 -0.78125 -2.734375zm1.578125 0.140625q0 1.0625 0.421875 1.671875q0.4375 0.609375 1.203125 0.609375q0.96875 0 1.421875 -0.828125l0 -3.09375q-0.4375 -0.796875 -1.40625 -0.796875q-0.78125 0 -1.21875 0.625q-0.421875 0.609375 -0.421875 1.8125zm10.524399 2.75q-0.703125 0.8125 -1.984375 0.8125q-1.140625 0 -1.734375 -0.65625q-0.578125 -0.671875 -0.578125 -1.953125l0 -4.5625l1.578125 0l0 4.546875q0 1.34375 1.109375 1.34375q1.15625 0 1.5625 -0.828125l0 -5.0625l1.578125 0l0 7.046875l-1.5 0l-0.03125 -0.6875zm7.34346 0.6875q-0.109375 -0.203125 -0.1875 -0.65625q-0.75 0.78125 -1.84375 0.78125q-1.0625 0 -1.734375 -0.59375q-0.671875 -0.609375 -0.671875 -1.5q0 -1.125 0.84375 -1.71875q0.84375 -0.609375 2.390625 -0.609375l0.96875 0l0 -0.46875q0 -0.546875 -0.3125 -0.875q-0.296875 -0.328125 -0.921875 -0.328125q-0.546875 0 -0.890625 0.28125q-0.34375 0.265625 -0.34375 0.671875l-1.578125 0q0 -0.578125 0.375 -1.078125q0.390625 -0.5 1.046875 -0.78125q0.671875 -0.296875 1.484375 -0.296875q1.234375 0 1.96875 0.625q0.734375 0.625 0.75 1.75l0 3.171875q0 0.953125 0.265625 1.515625l0 0.109375l-1.609375 0zm-1.734375 -1.140625q0.46875 0 0.875 -0.21875q0.421875 -0.234375 0.625 -0.625l0 -1.328125l-0.84375 0q-0.890625 0 -1.328125 0.3125q-0.4375 0.3125 -0.4375 0.859375q0 0.46875 0.296875 0.734375q0.296875 0.265625 0.8125 0.265625zm4.460724 -2.4375q0 -1.640625 0.765625 -2.609375q0.78125 -0.984375 2.046875 -0.984375q1.21875 0 1.90625 0.84375l0.0625 -0.71875l1.421875 0l0 6.828125q0 1.390625 -0.859375 2.1875q-0.859375 0.796875 -2.328125 0.796875q-0.765625 0 -1.515625 -0.328125q-0.734375 -0.3125 -1.109375 -0.828125l0.75 -0.953125q0.71875 0.859375 1.796875 0.859375q0.78125 0 1.234375 -0.421875q0.453125 -0.421875 0.453125 -1.25l0 -0.46875q-0.671875 0.75 -1.8125 0.75q-1.234375 0 -2.03125 -0.96875q-0.78125 -0.984375 -0.78125 -2.734375zm1.578125 0.140625q0 1.0625 0.421875 1.671875q0.4375 0.609375 1.203125 0.609375q0.96875 0 1.421875 -0.828125l0 -3.09375q-0.4375 -0.796875 -1.40625 -0.796875q-0.78125 0 -1.21875 0.625q-0.421875 0.609375 -0.421875 1.8125zm9.352524 3.5625q-1.5 0 -2.4375 -0.9375q-0.921875 -0.953125 -0.921875 -2.53125l0 -0.1875q0 -1.0625 0.40625 -1.890625q0.40625 -0.828125 1.140625 -1.28125q0.734375 -0.46875 1.640625 -0.46875q1.4375 0 2.21875 0.921875q0.78125 0.90625 0.78125 2.59375l0 0.640625l-4.59375 0q0.0625 0.875 0.578125 1.390625q0.515625 0.5 1.28125 0.5q1.09375 0 1.765625 -0.890625l0.859375 0.8125q-0.421875 0.640625 -1.125 0.984375q-0.703125 0.34375 -1.59375 0.34375zm-0.1875 -6.03125q-0.640625 0 -1.046875 0.46875q-0.40625 0.453125 -0.515625 1.265625l3.015625 0l0 -0.125q-0.046875 -0.796875 -0.421875 -1.203125q-0.375 -0.40625 -1.03125 -0.40625z" fill-rule="nonzero"/><g filter="url(#shadowFilter-p.2)"><use xlink:href="#p.2" transform="matrix(1.0 0.0 0.0 1.0 2.1213204291236054 2.1213204291236054)"/></g><defs><filter id="shadowFilter-p.2" filterUnits="userSpaceOnUse"><feGaussianBlur in="SourceAlpha" stdDeviation="2.5" result="blur"/><feComponentTransfer in="blur" color-interpolation-filters="sRGB"><feFuncR type="linear" slope="0" intercept="0.0"/><feFuncG type="linear" slope="0" intercept="0.0"/><feFuncB type="linear" slope="0" intercept="0.0"/><feFuncA type="linear" slope="0.17" intercept="0"/></feComponentTransfer></filter></defs><g id="p.2"><path fill="#b02c20" d="m20.604214 161.24924l66.01575 0l0 71.49606l-66.01575 0z" fill-rule="evenodd"/></g><path fill="#be2f22" d="m20.604214 161.25003l66.01575 0l0 71.52757l-66.01575 0z" fill-rule="evenodd"/><path fill="#ffffff" d="m51.501904 199.24693q0 4.953125 -1.9375 7.671875q-1.921875 2.71875 -5.40625 2.71875q-3.46875 0 -5.4375 -2.734375q-1.96875 -2.75 -1.96875 -7.734375l0 -4.46875q0 -4.90625 1.9375 -7.65625q1.9375 -2.75 5.421875 -2.75q3.515625 0 5.453125 2.75q1.9375 2.75 1.9375 7.734375l0 4.46875zm-0.921875 -4.546875q0 -4.484375 -1.6875 -6.984375q-1.671875 -2.5 -4.78125 -2.5q-3.109375 0 -4.78125 2.515625q-1.65625 2.515625 -1.65625 7.0625l0 4.421875q0 4.453125 1.703125 6.984375q1.71875 2.515625 4.78125 2.515625q3.078125 0 4.75 -2.515625q1.671875 -2.53125 1.671875 -7.078125l0 -4.421875zm10.094559 1.5625l2.0625 0q2.8906288 -0.046875 4.671879 -1.53125q1.78125 -1.5 1.78125 -3.796875q0 -2.625 -1.59375 -4.15625q-1.59375 -1.546875 -4.437504 -1.546875q-2.78125 0 -4.578125 1.625q-1.78125 1.625 -1.78125 4.265625l-0.921875 0q0 -1.96875 0.9375 -3.515625q0.953125 -1.5625 2.625 -2.421875q1.6875 -0.875 3.71875 -0.875q3.2031288 0 5.078129 1.8125q1.875 1.796875 1.875 4.875q0 1.96875 -1.25 3.515625q-1.234375 1.53125 -3.359375 2.171875q2.421875 0.5625 3.78125 2.109375q1.375 1.53125 1.375 3.96875q0 3.140625 -2.015625 5.015625q-2.015625 1.859375 -5.328129 1.859375q-2.234375 0 -4.140625 -0.96875q-1.890625 -0.96875 -2.859375 -2.546875q-0.953125 -1.59375 -0.953125 -3.6875l0.90625 0q0 2.71875 2.0 4.5q2.0 1.78125 5.046875 1.78125q3.0156288 0 4.718754 -1.5625q1.703125 -1.5625 1.703125 -4.328125q0 -2.71875 -1.828125 -4.15625q-1.8125 -1.4375 -5.312504 -1.453125l-1.921875 0l0 -0.953125z" fill-rule="nonzero"/><path fill="#000000" fill-opacity="0.0" d="m287.80988 161.38072l179.02362 0l0 71.49606l-179.02362 0z" fill-rule="evenodd"/><path fill="#a72a1e" d="m317.59222 179.57188q0.578125 0 1.125 0.296875q0.546875 0.296875 0.859375 0.859375q0.3125 0.546875 0.3125 1.140625q0 0.9375 -0.671875 1.609375q-0.671875 0.671875 -1.625 0.671875q-0.953125 0 -1.625 -0.671875q-0.671875 -0.671875 -0.671875 -1.609375q0 -0.609375 0.3125 -1.15625q0.3125 -0.546875 0.859375 -0.84375q0.546875 -0.296875 1.125 -0.296875z" fill-rule="nonzero"/><path fill="#a72a1e" d="m347.91925 181.49376q-1.28125 -0.375 -1.875 -0.90625q-0.578125 -0.546875 -0.578125 -1.328125q0 -0.90625 0.71875 -1.484375q0.71875 -0.59375 1.859375 -0.59375q0.78125 0 1.390625 0.3125q0.609375 0.296875 0.9375 0.828125q0.34375 0.53125 0.34375 1.15625l-1.0 0q0 -0.6875 -0.4375 -1.078125q-0.4375 -0.390625 -1.234375 -0.390625q-0.734375 0 -1.15625 0.328125q-0.40625 0.328125 -0.40625 0.90625q0 0.453125 0.390625 0.78125q0.390625 0.3125 1.328125 0.578125q0.953125 0.265625 1.484375 0.59375q0.53125 0.3125 0.78125 0.75q0.265625 0.421875 0.265625 1.0q0 0.921875 -0.71875 1.484375q-0.71875 0.546875 -1.921875 0.546875q-0.78125 0 -1.453125 -0.296875q-0.671875 -0.3125 -1.046875 -0.828125q-0.359375 -0.515625 -0.359375 -1.1875l1.0 0q0 0.6875 0.5 1.09375q0.515625 0.390625 1.359375 0.390625q0.796875 0 1.21875 -0.3125q0.421875 -0.328125 0.421875 -0.875q0 -0.5625 -0.390625 -0.859375q-0.390625 -0.3125 -1.421875 -0.609375zm9.32196 -3.375l-2.4375 0l0 6.75l-0.984375 0l0 -6.75l-2.4375 0l0 -0.828125l5.859375 0l0 0.828125zm4.9000244 4.765625l-3.171875 0l-0.71875 1.984375l-1.03125 0l2.890625 -7.578125l0.875 0l2.90625 7.578125l-1.03125 0l-0.71875 -1.984375zm-2.875 -0.8125l2.578125 0l-1.296875 -3.546875l-1.28125 3.546875zm8.420288 -0.265625l-1.78125 0l0 3.0625l-1.0 0l0 -7.578125l2.5 0q1.28125 0 1.96875 0.59375q0.703125 0.578125 0.703125 1.6875q0 0.703125 -0.390625 1.234375q-0.375 0.53125 -1.0625 0.78125l1.78125 3.21875l0 0.0625l-1.078125 0l-1.640625 -3.0625zm-1.78125 -0.8125l1.53125 0q0.75 0 1.1875 -0.390625q0.4375 -0.390625 0.4375 -1.03125q0 -0.703125 -0.421875 -1.078125q-0.40625 -0.375 -1.203125 -0.375l-1.53125 0l0 2.875zm10.378998 -2.875l-2.4375 0l0 6.75l-0.984375 0l0 -6.75l-2.4375 0l0 -0.828125l5.859375 0l0 0.828125zm8.579773 0l-2.4375 0l0 6.75l-0.984375 0l0 -6.75l-2.4375 0l0 -0.828125l5.859375 0l0 0.828125zm3.905243 3.6875l-1.78125 0l0 3.0625l-1.0 0l0 -7.578125l2.5 0q1.28125 0 1.96875 0.59375q0.703125 0.578125 0.703125 1.6875q0 0.703125 -0.390625 1.234375q-0.375 0.53125 -1.0625 0.78125l1.78125 3.21875l0 0.0625l-1.078125 0l-1.640625 -3.0625zm-1.78125 -0.8125l1.53125 0q0.75 0 1.1875 -0.390625q0.4375 -0.390625 0.4375 -1.03125q0 -0.703125 -0.421875 -1.078125q-0.40625 -0.375 -1.203125 -0.375l-1.53125 0l0 2.875zm9.748779 1.890625l-3.171875 0l-0.71875 1.984375l-1.03125 0l2.890625 -7.578125l0.875 0l2.90625 7.578125l-1.03125 0l-0.71875 -1.984375zm-2.875 -0.8125l2.578125 0l-1.296875 -3.546875l-1.28125 3.546875zm11.467163 2.796875l-1.0 0l-3.8125 -5.84375l0 5.84375l-1.015625 0l0 -7.578125l1.015625 0l3.8125 5.859375l0 -5.859375l1.0 0l0 7.578125zm4.0029907 -3.375q-1.28125 -0.375 -1.875 -0.90625q-0.578125 -0.546875 -0.578125 -1.328125q0 -0.90625 0.71875 -1.484375q0.71875 -0.59375 1.859375 -0.59375q0.78125 0 1.390625 0.3125q0.609375 0.296875 0.9375 0.828125q0.34375 0.53125 0.34375 1.15625l-1.0 0q0 -0.6875 -0.4375 -1.078125q-0.4375 -0.390625 -1.234375 -0.390625q-0.734375 0 -1.15625 0.328125q-0.40625 0.328125 -0.40625 0.90625q0 0.453125 0.390625 0.78125q0.390625 0.3125 1.328125 0.578125q0.953125 0.265625 1.484375 0.59375q0.53125 0.3125 0.78125 0.75q0.265625 0.421875 0.265625 1.0q0 0.921875 -0.71875 1.484375q-0.71875 0.546875 -1.921875 0.546875q-0.78125 0 -1.453125 -0.296875q-0.671875 -0.3125 -1.046875 -0.828125q-0.359375 -0.515625 -0.359375 -1.1875l1.0 0q0 0.6875 0.5 1.09375q0.515625 0.390625 1.359375 0.390625q0.796875 0 1.21875 -0.3125q0.421875 -0.328125 0.421875 -0.875q0 -0.5625 -0.390625 -0.859375q-0.390625 -0.3125 -1.421875 -0.609375zm8.275085 1.390625l-3.171875 0l-0.71875 1.984375l-1.03125 0l2.890625 -7.578125l0.875 0l2.90625 7.578125l-1.03125 0l-0.71875 -1.984375zm-2.875 -0.8125l2.578125 0l-1.296875 -3.546875l-1.28125 3.546875zm11.159851 0.390625q-0.140625 1.203125 -0.890625 1.859375q-0.75 0.65625 -1.984375 0.65625q-1.34375 0 -2.15625 -0.96875q-0.796875 -0.96875 -0.796875 -2.578125l0 -0.71875q0 -1.0625 0.375 -1.859375q0.375 -0.8125 1.0625 -1.234375q0.6875 -0.4375 1.609375 -0.4375q1.203125 0 1.921875 0.6875q0.734375 0.671875 0.859375 1.859375l-1.0 0q-0.140625 -0.90625 -0.578125 -1.3125q-0.421875 -0.40625 -1.203125 -0.40625q-0.96875 0 -1.515625 0.71875q-0.53125 0.703125 -0.53125 2.0l0 0.734375q0 1.234375 0.515625 1.96875q0.515625 0.71875 1.4375 0.71875q0.828125 0 1.265625 -0.375q0.453125 -0.375 0.609375 -1.3125l1.0 0zm6.4411316 -4.34375l-2.4375 0l0 6.75l-0.984375 0l0 -6.75l-2.4375 0l0 -0.828125l5.859375 0l0 0.828125zm2.202118 6.75l-1.0 0l0 -7.578125l1.0 0l0 7.578125zm7.648224 -3.546875q0 1.109375 -0.375 1.953125q-0.375 0.828125 -1.0625 1.265625q-0.6875 0.4375 -1.59375 0.4375q-0.90625 0 -1.59375 -0.4375q-0.6875 -0.453125 -1.078125 -1.265625q-0.375 -0.8125 -0.390625 -1.875l0 -0.546875q0 -1.09375 0.375 -1.9375q0.390625 -0.84375 1.078125 -1.28125q0.703125 -0.453125 1.59375 -0.453125q0.90625 0 1.59375 0.453125q0.703125 0.4375 1.078125 1.28125q0.375 0.828125 0.375 1.9375l0 0.46875zm-0.984375 -0.484375q0 -1.34375 -0.546875 -2.0625q-0.546875 -0.734375 -1.515625 -0.734375q-0.953125 0 -1.5 0.734375q-0.53125 0.71875 -0.546875 2.0l0 0.546875q0 1.3125 0.546875 2.0625q0.546875 0.734375 1.515625 0.734375q0.96875 0 1.5 -0.703125q0.53125 -0.703125 0.546875 -2.015625l0 -0.5625zm8.310547 4.03125l-1.0 0l-3.8125 -5.84375l0 5.84375l-1.015625 0l0 -7.578125l1.015625 0l3.8125 5.859375l0 -5.859375l1.0 0l0 7.578125z" fill-rule="nonzero"/><path fill="#a72a1e" d="m317.59222 194.57188q0.578125 0 1.125 0.296875q0.546875 0.296875 0.859375 0.859375q0.3125 0.546875 0.3125 1.140625q0 0.9375 -0.671875 1.609375q-0.671875 0.671875 -1.625 0.671875q-0.953125 0 -1.625 -0.671875q-0.671875 -0.671875 -0.671875 -1.609375q0 -0.609375 0.3125 -1.15625q0.3125 -0.546875 0.859375 -0.84375q0.546875 -0.296875 1.125 -0.296875z" fill-rule="nonzero"/><path fill="#a72a1e" d="m351.263 197.46251q-0.140625 1.203125 -0.890625 1.859375q-0.75 0.65625 -1.984375 0.65625q-1.34375 0 -2.15625 -0.96875q-0.796875 -0.96875 -0.796875 -2.578125l0 -0.71875q0 -1.0625 0.375 -1.859375q0.375 -0.8125 1.0625 -1.234375q0.6875 -0.4375 1.609375 -0.4375q1.203125 0 1.921875 0.6875q0.734375 0.671875 0.859375 1.859375l-1.0 0q-0.140625 -0.90625 -0.578125 -1.3125q-0.421875 -0.40625 -1.203125 -0.40625q-0.96875 0 -1.515625 0.71875q-0.53125 0.703125 -0.53125 2.0l0 0.734375q0 1.234375 0.515625 1.96875q0.515625 0.71875 1.4375 0.71875q0.828125 0 1.265625 -0.375q0.453125 -0.375 0.609375 -1.3125l1.0 0zm7.1859436 -1.140625q0 1.109375 -0.375 1.953125q-0.375 0.828125 -1.0625 1.265625q-0.6875 0.4375 -1.59375 0.4375q-0.90625 0 -1.59375 -0.4375q-0.6875 -0.453125 -1.078125 -1.265625q-0.375 -0.8125 -0.390625 -1.875l0 -0.546875q0 -1.09375 0.375 -1.9375q0.390625 -0.84375 1.078125 -1.28125q0.703125 -0.453125 1.59375 -0.453125q0.90625 0 1.59375 0.453125q0.703125 0.4375 1.078125 1.28125q0.375 0.828125 0.375 1.9375l0 0.46875zm-0.984375 -0.484375q0 -1.34375 -0.546875 -2.0625q-0.546875 -0.734375 -1.515625 -0.734375q-0.953125 0 -1.5 0.734375q-0.53125 0.71875 -0.546875 2.0l0 0.546875q0 1.3125 0.546875 2.0625q0.546875 0.734375 1.515625 0.734375q0.96875 0 1.5 -0.703125q0.53125 -0.703125 0.546875 -2.015625l0 -0.5625zm3.7792969 -3.546875l2.46875 6.1875l2.484375 -6.1875l1.296875 0l0 7.578125l-1.0 0l0 -2.953125l0.09375 -3.1875l-2.484375 6.140625l-0.765625 0l-2.484375 -6.125l0.09375 3.171875l0 2.953125l-1.0 0l0 -7.578125l1.296875 0zm9.303406 0l2.46875 6.1875l2.484375 -6.1875l1.296875 0l0 7.578125l-1.0 0l0 -2.953125l0.09375 -3.1875l-2.484375 6.140625l-0.765625 0l-2.484375 -6.125l0.09375 3.171875l0 2.953125l-1.0 0l0 -7.578125l1.296875 0zm9.084656 7.578125l-1.0 0l0 -7.578125l1.0 0l0 7.578125zm6.903412 -6.75l-2.4375 0l0 6.75l-0.984375 0l0 -6.75l-2.4375 0l0 -0.828125l5.859375 0l0 0.828125z" fill-rule="nonzero"/><path fill="#a72a1e" d="m317.59222 209.57188q0.578125 0 1.125 0.296875q0.546875 0.296875 0.859375 0.859375q0.3125 0.546875 0.3125 1.140625q0 0.9375 -0.671875 1.609375q-0.671875 0.671875 -1.625 0.671875q-0.953125 0 -1.625 -0.671875q-0.671875 -0.671875 -0.671875 -1.609375q0 -0.609375 0.3125 -1.15625q0.3125 -0.546875 0.859375 -0.84375q0.546875 -0.296875 1.125 -0.296875z" fill-rule="nonzero"/><path fill="#a72a1e" d="m348.46613 211.80626l-1.78125 0l0 3.0625l-1.0 0l0 -7.578125l2.5 0q1.28125 0 1.96875 0.59375q0.703125 0.578125 0.703125 1.6875q0 0.703125 -0.390625 1.234375q-0.375 0.53125 -1.0625 0.78125l1.78125 3.21875l0 0.0625l-1.078125 0l-1.640625 -3.0625zm-1.78125 -0.8125l1.53125 0q0.75 0 1.1875 -0.390625q0.4375 -0.390625 0.4375 -1.03125q0 -0.703125 -0.421875 -1.078125q-0.40625 -0.375 -1.203125 -0.375l-1.53125 0l0 2.875zm11.389435 0.328125q0 1.109375 -0.375 1.953125q-0.375 0.828125 -1.0625 1.265625q-0.6875 0.4375 -1.59375 0.4375q-0.90625 0 -1.59375 -0.4375q-0.6875 -0.453125 -1.078125 -1.265625q-0.375 -0.8125 -0.390625 -1.875l0 -0.546875q0 -1.09375 0.375 -1.9375q0.390625 -0.84375 1.078125 -1.28125q0.703125 -0.453125 1.59375 -0.453125q0.90625 0 1.59375 0.453125q0.703125 0.4375 1.078125 1.28125q0.375 0.828125 0.375 1.9375l0 0.46875zm-0.984375 -0.484375q0 -1.34375 -0.546875 -2.0625q-0.546875 -0.734375 -1.515625 -0.734375q-0.953125 0 -1.5 0.734375q-0.53125 0.71875 -0.546875 2.0l0 0.546875q0 1.3125 0.546875 2.0625q0.546875 0.734375 1.515625 0.734375q0.96875 0 1.5 -0.703125q0.53125 -0.703125 0.546875 -2.015625l0 -0.5625zm3.4980469 3.21875l3.578125 0l0 0.8125l-4.59375 0l0 -7.578125l1.015625 0l0 6.765625zm5.7339783 0l3.578125 0l0 0.8125l-4.59375 0l0 -7.578125l1.015625 0l0 6.765625zm4.7183533 0.8125l0 -7.578125l2.484375 0q1.234375 0 1.84375 0.515625q0.625 0.5 0.625 1.5q0 0.53125 -0.296875 0.953125q-0.296875 0.40625 -0.828125 0.625q0.625 0.171875 0.96875 0.65625q0.359375 0.484375 0.359375 1.140625q0 1.015625 -0.65625 1.609375q-0.65625 0.578125 -1.875 0.578125l-2.625 0zm1.0 -3.546875l0 2.734375l1.65625 0q0.6875 0 1.09375 -0.359375q0.40625 -0.375 0.40625 -1.0q0 -1.375 -1.484375 -1.375l-1.671875 0zm0 -0.796875l1.515625 0q0.65625 0 1.046875 -0.328125q0.390625 -0.328125 0.390625 -0.890625q0 -0.625 -0.375 -0.90625q-0.359375 -0.28125 -1.09375 -0.28125l-1.484375 0l0 2.40625zm9.821625 2.359375l-3.171875 0l-0.71875 1.984375l-1.03125 0l2.890625 -7.578125l0.875 0l2.90625 7.578125l-1.03125 0l-0.71875 -1.984375zm-2.875 -0.8125l2.578125 0l-1.296875 -3.546875l-1.28125 3.546875zm11.159882 0.390625q-0.140625 1.203125 -0.890625 1.859375q-0.75 0.65625 -1.984375 0.65625q-1.34375 0 -2.15625 -0.96875q-0.796875 -0.96875 -0.796875 -2.578125l0 -0.71875q0 -1.0625 0.375 -1.859375q0.375 -0.8125 1.0625 -1.234375q0.6875 -0.4375 1.609375 -0.4375q1.203125 0 1.921875 0.6875q0.734375 0.671875 0.859375 1.859375l-1.0 0q-0.140625 -0.90625 -0.578125 -1.3125q-0.421875 -0.40625 -1.203125 -0.40625q-0.96875 0 -1.515625 0.71875q-0.53125 0.703125 -0.53125 2.0l0 0.734375q0 1.234375 0.515625 1.96875q0.515625 0.71875 1.4375 0.71875q0.828125 0 1.265625 -0.375q0.453125 -0.375 0.609375 -1.3125l1.0 0zm3.279663 -1.109375l-0.921875 0.953125l0 2.5625l-1.0 0l0 -7.578125l1.0 0l0 3.75l3.375 -3.75l1.203125 0l-2.984375 3.34375l3.21875 4.234375l-1.203125 0l-2.6875 -3.515625z" fill-rule="nonzero"/><path fill="#eeeeee" d="m224.95012 88.350075l251.9055 0l0 71.62205l-251.9055 0z" fill-rule="evenodd"/><path fill="#a72a1e" d="m263.1374 88.35009l-176.50394 0l0 71.527565l176.50394 0z" fill-rule="evenodd"/><path fill="#a72a1e" d="m166.12628 159.96611l0 -71.61681l108.64499 0l27.161255 35.808403l-27.161255 35.80841z" fill-rule="evenodd"/><path fill="#000000" fill-opacity="0.0" d="m86.63637 96.962074l176.50392 0l0 55.212593l-176.50392 0z" fill-rule="evenodd"/><path fill="#ffffff" d="m96.60512 119.36837l0 -9.46875l2.796875 0q1.25 0 2.21875 0.5625q0.984375 0.546875 1.515625 1.578125q0.53125 1.03125 0.53125 2.359375l0 0.46875q0 1.34375 -0.546875 2.375q-0.53125 1.015625 -1.53125 1.578125q-0.984375 0.546875 -2.265625 0.546875l-2.71875 0zm1.640625 -8.140625l0 6.828125l1.078125 0q1.296875 0 1.984375 -0.8125q0.6875 -0.8125 0.703125 -2.328125l0 -0.53125q0 -1.53125 -0.671875 -2.34375q-0.671875 -0.8125 -1.9375 -0.8125l-1.15625 0zm9.19191 -1.328125l2.734375 7.25l2.734375 -7.25l2.125 0l0 9.46875l-1.640625 0l0 -3.125l0.15625 -4.171875l-2.796875 7.296875l-1.171875 0l-2.796875 -7.296875l0.171875 4.171875l0 3.125l-1.640625 0l0 -9.46875l2.125 0zm11.18425 8.15625l4.296875 0l0 1.3125l-5.9375 0l0 -9.46875l1.640625 0l0 8.15625zm14.467239 -3.765625l-5.609375 0l0 -1.3125l5.609375 0l0 1.3125zm0 2.765625l-5.609375 0l0 -1.3125l5.609375 0l0 1.3125zm5.1989136 2.3125l0 -9.46875l2.796875 0q1.25 0 2.21875 0.5625q0.984375 0.546875 1.515625 1.578125q0.53125 1.03125 0.53125 2.359375l0 0.46875q0 1.34375 -0.546875 2.375q-0.53125 1.015625 -1.53125 1.578125q-0.984375 0.546875 -2.265625 0.546875l-2.71875 0zm1.640625 -8.140625l0 6.828125l1.078125 0q1.296875 0 1.984375 -0.8125q0.6875 -0.8125 0.703125 -2.328125l0 -0.53125q0 -1.53125 -0.671875 -2.34375q-0.671875 -0.8125 -1.9375 -0.8125l-1.15625 0zm11.113785 8.140625q-0.109375 -0.203125 -0.1875 -0.65625q-0.75 0.78125 -1.84375 0.78125q-1.0625 0 -1.734375 -0.59375q-0.671875 -0.609375 -0.671875 -1.5q0 -1.125 0.84375 -1.71875q0.84375 -0.609375 2.390625 -0.609375l0.96875 0l0 -0.46875q0 -0.546875 -0.3125 -0.875q-0.296875 -0.328125 -0.921875 -0.328125q-0.546875 0 -0.890625 0.28125q-0.34375 0.265625 -0.34375 0.671875l-1.578125 0q0 -0.578125 0.375 -1.078125q0.390625 -0.5 1.046875 -0.78125q0.671875 -0.296875 1.484375 -0.296875q1.234375 0 1.96875 0.625q0.734375 0.625 0.75 1.75l0 3.171875q0 0.953125 0.265625 1.515625l0 0.109375l-1.609375 0zm-1.734375 -1.140625q0.46875 0 0.875 -0.21875q0.421875 -0.234375 0.625 -0.625l0 -1.328125l-0.84375 0q-0.890625 0 -1.328125 0.3125q-0.4375 0.3125 -0.4375 0.859375q0 0.46875 0.296875 0.734375q0.296875 0.265625 0.8125 0.265625zm6.726349 -7.609375l0 1.703125l1.234375 0l0 1.171875l-1.234375 0l0 3.9375q0 0.40625 0.15625 0.59375q0.15625 0.171875 0.5625 0.171875q0.28125 0 0.5625 -0.078125l0 1.234375q-0.546875 0.140625 -1.046875 0.140625q-1.828125 0 -1.828125 -2.0l0 -4.0l-1.15625 0l0 -1.171875l1.15625 0l0 -1.703125l1.59375 0zm6.6506195 8.75q-0.109375 -0.203125 -0.1875 -0.65625q-0.75 0.78125 -1.84375 0.78125q-1.0625 0 -1.734375 -0.59375q-0.671875 -0.609375 -0.671875 -1.5q0 -1.125 0.84375 -1.71875q0.84375 -0.609375 2.390625 -0.609375l0.96875 0l0 -0.46875q0 -0.546875 -0.3125 -0.875q-0.296875 -0.328125 -0.921875 -0.328125q-0.546875 0 -0.890625 0.28125q-0.34375 0.265625 -0.34375 0.671875l-1.578125 0q0 -0.578125 0.375 -1.078125q0.390625 -0.5 1.046875 -0.78125q0.671875 -0.296875 1.484375 -0.296875q1.234375 0 1.96875 0.625q0.734375 0.625 0.75 1.75l0 3.171875q0 0.953125 0.265625 1.515625l0 0.109375l-1.609375 0zm-1.734375 -1.140625q0.46875 0 0.875 -0.21875q0.421875 -0.234375 0.625 -0.625l0 -1.328125l-0.84375 0q-0.890625 0 -1.328125 0.3125q-0.4375 0.3125 -0.4375 0.859375q0 0.46875 0.296875 0.734375q0.296875 0.265625 0.8125 0.265625zm10.342239 -8.328125l2.734375 7.25l2.734375 -7.25l2.125 0l0 9.46875l-1.640625 0l0 -3.125l0.15625 -4.171875l-2.796875 7.296875l-1.171875 0l-2.796875 -7.296875l0.171875 4.171875l0 3.125l-1.640625 0l0 -9.46875l2.125 0zm13.5905 9.46875q-0.109375 -0.203125 -0.1875 -0.65625q-0.75 0.78125 -1.84375 0.78125q-1.0625 0 -1.734375 -0.59375q-0.671875 -0.609375 -0.671875 -1.5q0 -1.125 0.84375 -1.71875q0.84375 -0.609375 2.390625 -0.609375l0.96875 0l0 -0.46875q0 -0.546875 -0.3125 -0.875q-0.296875 -0.328125 -0.921875 -0.328125q-0.546875 0 -0.890625 0.28125q-0.34375 0.265625 -0.34375 0.671875l-1.578125 0q0 -0.578125 0.375 -1.078125q0.390625 -0.5 1.046875 -0.78125q0.671875 -0.296875 1.484375 -0.296875q1.234375 0 1.96875 0.625q0.734375 0.625 0.75 1.75l0 3.171875q0 0.953125 0.265625 1.515625l0 0.109375l-1.609375 0zm-1.734375 -1.140625q0.46875 0 0.875 -0.21875q0.421875 -0.234375 0.625 -0.625l0 -1.328125l-0.84375 0q-0.890625 0 -1.328125 0.3125q-0.4375 0.3125 -0.4375 0.859375q0 0.46875 0.296875 0.734375q0.296875 0.265625 0.8125 0.265625zm6.210724 -5.90625l0.046875 0.8125q0.78125 -0.9375 2.046875 -0.9375q2.203125 0 2.234375 2.515625l0 4.65625l-1.578125 0l0 -4.5625q0 -0.671875 -0.296875 -0.984375q-0.28125 -0.328125 -0.9375 -0.328125q-0.953125 0 -1.421875 0.859375l0 5.015625l-1.59375 0l0 -7.046875l1.5 0zm7.6312256 7.046875l-1.59375 0l0 -7.046875l1.59375 0l0 7.046875zm-1.6875 -8.875q0 -0.359375 0.234375 -0.59375q0.234375 -0.25 0.65625 -0.25q0.4375 0 0.671875 0.25q0.234375 0.234375 0.234375 0.59375q0 0.359375 -0.234375 0.609375q-0.234375 0.234375 -0.671875 0.234375q-0.421875 0 -0.65625 -0.234375q-0.234375 -0.25 -0.234375 -0.609375zm9.5598755 5.421875q0 1.640625 -0.734375 2.609375q-0.734375 0.96875 -1.984375 0.96875q-1.171875 0 -1.859375 -0.75l0 3.328125l-1.578125 0l0 -9.75l1.453125 0l0.0625 0.71875q0.703125 -0.84375 1.890625 -0.84375q1.296875 0 2.015625 0.96875q0.734375 0.953125 0.734375 2.65625l0 0.09375zm-1.5625 -0.125q0 -1.0625 -0.421875 -1.671875q-0.421875 -0.625 -1.203125 -0.625q-0.96875 0 -1.390625 0.796875l0 3.125q0.421875 0.828125 1.40625 0.828125q0.75 0 1.171875 -0.609375q0.4375 -0.609375 0.4375 -1.84375zm7.175461 2.890625q-0.703125 0.8125 -1.984375 0.8125q-1.140625 0 -1.734375 -0.65625q-0.578125 -0.671875 -0.578125 -1.953125l0 -4.5625l1.578125 0l0 4.546875q0 1.34375 1.109375 1.34375q1.15625 0 1.5625 -0.828125l0 -5.0625l1.578125 0l0 7.046875l-1.5 0l-0.03125 -0.6875zm4.827835 0.6875l-1.59375 0l0 -10.0l1.59375 0l0 10.0zm5.9192505 0q-0.109375 -0.203125 -0.1875 -0.65625q-0.75 0.78125 -1.84375 0.78125q-1.0625 0 -1.734375 -0.59375q-0.671875 -0.609375 -0.671875 -1.5q0 -1.125 0.84375 -1.71875q0.84375 -0.609375 2.390625 -0.609375l0.96875 0l0 -0.46875q0 -0.546875 -0.3125 -0.875q-0.296875 -0.328125 -0.921875 -0.328125q-0.546875 0 -0.890625 0.28125q-0.34375 0.265625 -0.34375 0.671875l-1.578125 0q0 -0.578125 0.375 -1.078125q0.390625 -0.5 1.046875 -0.78125q0.671875 -0.296875 1.484375 -0.296875q1.234375 0 1.96875 0.625q0.734375 0.625 0.75 1.75l0 3.171875q0 0.953125 0.265625 1.515625l0 0.109375l-1.609375 0zm-1.734375 -1.140625q0.46875 0 0.875 -0.21875q0.421875 -0.234375 0.625 -0.625l0 -1.328125l-0.84375 0q-0.890625 0 -1.328125 0.3125q-0.4375 0.3125 -0.4375 0.859375q0 0.46875 0.296875 0.734375q0.296875 0.265625 0.8125 0.265625zm6.726349 -7.609375l0 1.703125l1.234375 0l0 1.171875l-1.234375 0l0 3.9375q0 0.40625 0.15625 0.59375q0.15625 0.171875 0.5625 0.171875q0.28125 0 0.5625 -0.078125l0 1.234375q-0.546875 0.140625 -1.046875 0.140625q-1.828125 0 -1.828125 -2.0l0 -4.0l-1.15625 0l0 -1.171875l1.15625 0l0 -1.703125l1.59375 0zm4.1349945 8.75l-1.59375 0l0 -7.046875l1.59375 0l0 7.046875zm-1.6875 -8.875q0 -0.359375 0.234375 -0.59375q0.234375 -0.25 0.65625 -0.25q0.4375 0 0.671875 0.25q0.234375 0.234375 0.234375 0.59375q0 0.359375 -0.234375 0.609375q-0.234375 0.234375 -0.671875 0.234375q-0.421875 0 -0.65625 -0.234375q-0.234375 -0.25 -0.234375 -0.609375zm3.1067505 5.296875q0 -1.046875 0.40625 -1.875q0.40625 -0.828125 1.140625 -1.265625q0.75 -0.453125 1.71875 -0.453125q1.421875 0 2.3125 0.921875q0.890625 0.90625 0.953125 2.4375l0.015625 0.359375q0 1.046875 -0.40625 1.875q-0.390625 0.8125 -1.140625 1.265625q-0.75 0.4375 -1.71875 0.4375q-1.5 0 -2.390625 -0.984375q-0.890625 -1.0 -0.890625 -2.640625l0 -0.078125zm1.578125 0.125q0 1.09375 0.453125 1.71875q0.453125 0.609375 1.25 0.609375q0.796875 0 1.234375 -0.625q0.453125 -0.625 0.453125 -1.828125q0 -1.078125 -0.46875 -1.703125q-0.453125 -0.625 -1.234375 -0.625q-0.78125 0 -1.234375 0.625q-0.453125 0.609375 -0.453125 1.828125zm7.7756805 -3.59375l0.046875 0.8125q0.78125 -0.9375 2.046875 -0.9375q2.203125 0 2.234375 2.515625l0 4.65625l-1.578125 0l0 -4.5625q0 -0.671875 -0.296875 -0.984375q-0.28125 -0.328125 -0.9375 -0.328125q-0.953125 0 -1.421875 0.859375l0 5.015625l-1.59375 0l0 -7.046875l1.5 0z" fill-rule="nonzero"/><path fill="#ffffff" d="m98.24574 136.05588l4.296875 0l0 1.3125l-5.9375 0l0 -9.468758l1.640625 0l0 8.156258zm9.616974 1.3125q-0.109375 -0.203125 -0.1875 -0.65625q-0.75 0.78125 -1.84375 0.78125q-1.0625 0 -1.734375 -0.59375q-0.671875 -0.609375 -0.671875 -1.5q0 -1.125 0.84375 -1.71875q0.84375 -0.609375 2.390625 -0.609375l0.96875 0l0 -0.46875q0 -0.546875 -0.3125 -0.875q-0.296875 -0.328125 -0.921875 -0.328125q-0.546875 0 -0.890625 0.28125q-0.34375 0.265625 -0.34375 0.671875l-1.578125 0q0 -0.578125 0.375 -1.078125q0.390625 -0.5 1.046875 -0.78125q0.671875 -0.296875 1.484375 -0.296875q1.234375 0 1.96875 0.625q0.734375 0.625 0.75 1.75l0 3.171875q0 0.953125 0.265625 1.515625l0 0.109375l-1.609375 0zm-1.734375 -1.140625q0.46875 0 0.875 -0.21875q0.421875 -0.234375 0.625 -0.625l0 -1.328125l-0.84375 0q-0.890625 0 -1.328125 0.3125q-0.4375 0.3125 -0.4375 0.859375q0 0.46875 0.296875 0.734375q0.296875 0.265625 0.8125 0.265625zm6.210724 -5.90625l0.046875 0.8125q0.78125 -0.9375 2.046875 -0.9375q2.203125 0 2.234375 2.515625l0 4.65625l-1.578125 0l0 -4.5625q0 -0.671875 -0.296875 -0.984375q-0.28125 -0.328125 -0.9375 -0.328125q-0.953125 0 -1.421875 0.859375l0 5.015625l-1.59375 0l0 -7.046875l1.5 0zm5.6624756 3.46875q0 -1.640625 0.765625 -2.609375q0.78125 -0.984375 2.046875 -0.984375q1.21875 0 1.90625 0.84375l0.0625 -0.71875l1.421875 0l0 6.828125q0 1.390625 -0.859375 2.1875q-0.859375 0.796875 -2.328125 0.796875q-0.765625 0 -1.515625 -0.328125q-0.734375 -0.3125 -1.109375 -0.828125l0.75 -0.953125q0.71875 0.859375 1.796875 0.859375q0.78125 0 1.234375 -0.421875q0.453125 -0.421875 0.453125 -1.25l0 -0.46875q-0.671875 0.75 -1.8125 0.75q-1.234375 0 -2.03125 -0.96875q-0.78125 -0.984375 -0.78125 -2.734375zm1.578125 0.140625q0 1.0625 0.421875 1.671875q0.4375 0.609375 1.203125 0.609375q0.96875 0 1.421875 -0.828125l0 -3.09375q-0.4375 -0.796875 -1.40625 -0.796875q-0.78125 0 -1.21875 0.625q-0.421875 0.609375 -0.421875 1.8125zm10.524399 2.75q-0.703125 0.8125 -1.984375 0.8125q-1.140625 0 -1.734375 -0.65625q-0.578125 -0.671875 -0.578125 -1.953125l0 -4.5625l1.578125 0l0 4.546875q0 1.34375 1.109375 1.34375q1.15625 0 1.5625 -0.828125l0 -5.0625l1.578125 0l0 7.046875l-1.5 0l-0.03125 -0.6875zm7.34346 0.6875q-0.109375 -0.203125 -0.1875 -0.65625q-0.75 0.78125 -1.84375 0.78125q-1.0625 0 -1.734375 -0.59375q-0.671875 -0.609375 -0.671875 -1.5q0 -1.125 0.84375 -1.71875q0.84375 -0.609375 2.390625 -0.609375l0.96875 0l0 -0.46875q0 -0.546875 -0.3125 -0.875q-0.296875 -0.328125 -0.921875 -0.328125q-0.546875 0 -0.890625 0.28125q-0.34375 0.265625 -0.34375 0.671875l-1.578125 0q0 -0.578125 0.375 -1.078125q0.390625 -0.5 1.046875 -0.78125q0.671875 -0.296875 1.484375 -0.296875q1.234375 0 1.96875 0.625q0.734375 0.625 0.75 1.75l0 3.171875q0 0.953125 0.265625 1.515625l0 0.109375l-1.609375 0zm-1.734375 -1.140625q0.46875 0 0.875 -0.21875q0.421875 -0.234375 0.625 -0.625l0 -1.328125l-0.84375 0q-0.890625 0 -1.328125 0.3125q-0.4375 0.3125 -0.4375 0.859375q0 0.46875 0.296875 0.734375q0.296875 0.265625 0.8125 0.265625zm4.460724 -2.4375q0 -1.640625 0.765625 -2.609375q0.78125 -0.984375 2.046875 -0.984375q1.21875 0 1.90625 0.84375l0.0625 -0.71875l1.421875 0l0 6.828125q0 1.390625 -0.859375 2.1875q-0.859375 0.796875 -2.328125 0.796875q-0.765625 0 -1.515625 -0.328125q-0.734375 -0.3125 -1.109375 -0.828125l0.75 -0.953125q0.71875 0.859375 1.796875 0.859375q0.78125 0 1.234375 -0.421875q0.453125 -0.421875 0.453125 -1.25l0 -0.46875q-0.671875 0.75 -1.8125 0.75q-1.234375 0 -2.03125 -0.96875q-0.78125 -0.984375 -0.78125 -2.734375zm1.578125 0.140625q0 1.0625 0.421875 1.671875q0.4375 0.609375 1.203125 0.609375q0.96875 0 1.421875 -0.828125l0 -3.09375q-0.4375 -0.796875 -1.40625 -0.796875q-0.78125 0 -1.21875 0.625q-0.421875 0.609375 -0.421875 1.8125zm9.352524 3.5625q-1.5 0 -2.4375 -0.9375q-0.921875 -0.953125 -0.921875 -2.53125l0 -0.1875q0 -1.0625 0.40625 -1.890625q0.40625 -0.828125 1.140625 -1.28125q0.734375 -0.46875 1.640625 -0.46875q1.4375 0 2.21875 0.921875q0.78125 0.90625 0.78125 2.59375l0 0.640625l-4.59375 0q0.0625 0.875 0.578125 1.390625q0.515625 0.5 1.28125 0.5q1.09375 0 1.765625 -0.890625l0.859375 0.8125q-0.421875 0.640625 -1.125 0.984375q-0.703125 0.34375 -1.59375 0.34375zm-0.1875 -6.03125q-0.640625 0 -1.046875 0.46875q-0.40625 0.453125 -0.515625 1.265625l3.015625 0l0 -0.125q-0.046875 -0.796875 -0.421875 -1.203125q-0.375 -0.40625 -1.03125 -0.40625z" fill-rule="nonzero"/><g filter="url(#shadowFilter-p.3)"><use xlink:href="#p.3" transform="matrix(1.0 0.0 0.0 1.0 2.1213204291236054 2.1213204291236054)"/></g><defs><filter id="shadowFilter-p.3" filterUnits="userSpaceOnUse"><feGaussianBlur in="SourceAlpha" stdDeviation="2.5" result="blur"/><feComponentTransfer in="blur" color-interpolation-filters="sRGB"><feFuncR type="linear" slope="0" intercept="0.0"/><feFuncG type="linear" slope="0" intercept="0.0"/><feFuncB type="linear" slope="0" intercept="0.0"/><feFuncA type="linear" slope="0.17" intercept="0"/></feComponentTransfer></filter></defs><g id="p.3"><path fill="#b02c20" d="m20.604214 88.3493l66.01575 0l0 71.496056l-66.01575 0z" fill-rule="evenodd"/></g><path fill="#be2f22" d="m20.604214 88.35009l66.01575 0l0 71.527565l-66.01575 0z" fill-rule="evenodd"/><path fill="#ffffff" d="m51.501904 126.34699q0 4.9531326 -1.9375 7.6718826q-1.921875 2.71875 -5.40625 2.71875q-3.46875 0 -5.4375 -2.734375q-1.96875 -2.75 -1.96875 -7.7343826l0 -4.46875q0 -4.90625 1.9375 -7.65625q1.9375 -2.75 5.421875 -2.75q3.515625 0 5.453125 2.75q1.9375 2.75 1.9375 7.734375l0 4.46875zm-0.921875 -4.546875q0 -4.484375 -1.6875 -6.984375q-1.671875 -2.5 -4.78125 -2.5q-3.109375 0 -4.78125 2.515625q-1.65625 2.515625 -1.65625 7.0625l0 4.421875q0 4.4531326 1.703125 6.9843826q1.71875 2.515625 4.78125 2.515625q3.078125 0 4.75 -2.515625q1.671875 -2.53125 1.671875 -7.0781326l0 -4.421875zm20.360188 14.593758l-14.734379 0l0 -0.90625l8.406254 -9.703133q2.0625 -2.421875 3.0625 -4.296875q1.015625 -1.875 1.015625 -3.453125q0 -2.703125 -1.578125 -4.203125q-1.5625 -1.5 -4.437504 -1.5q-1.71875 0 -3.140625 0.828125q-1.421875 0.828125 -2.234375 2.296875q-0.796875 1.453125 -0.796875 3.25l-0.90625 0q0 -1.96875 0.90625 -3.65625q0.921875 -1.703125 2.546875 -2.671875q1.625 -0.96875 3.625 -0.96875q3.2968788 0 5.125004 1.75q1.828125 1.75 1.828125 4.875q0 2.875 -3.234375 6.890625l-1.546875 1.875l-7.437504 8.687508l13.531254 0l0 0.90625z" fill-rule="nonzero"/><path fill="#000000" fill-opacity="0.0" d="m287.38547 88.48202l179.46457 0l0 71.496056l-179.46457 0z" fill-rule="evenodd"/><path fill="#a72a1e" d="m317.16782 99.17317q0.578125 0 1.125 0.296875q0.546875 0.296875 0.859375 0.859375q0.3125 0.546875 0.3125 1.140625q0 0.9375 -0.671875 1.609375q-0.671875 0.671875 -1.625 0.671875q-0.953125 0 -1.625 -0.671875q-0.671875 -0.671875 -0.671875 -1.609375q0 -0.609375 0.3125 -1.15625q0.3125 -0.546875 0.859375 -0.84375q0.546875 -0.296875 1.125 -0.296875z" fill-rule="nonzero"/><path fill="#a72a1e" d="m347.49484 101.09505q-1.28125 -0.375 -1.875 -0.90625q-0.578125 -0.546875 -0.578125 -1.328125q0 -0.90625 0.71875 -1.484375q0.71875 -0.59375 1.859375 -0.59375q0.78125 0 1.390625 0.3125q0.609375 0.296875 0.9375 0.828125q0.34375 0.53125 0.34375 1.15625l-1.0 0q0 -0.6875 -0.4375 -1.078125q-0.4375 -0.390625 -1.234375 -0.390625q-0.734375 0 -1.15625 0.328125q-0.40625 0.328125 -0.40625 0.90625q0 0.453125 0.390625 0.78125q0.390625 0.3125 1.328125 0.578125q0.953125 0.265625 1.484375 0.59375q0.53125 0.3125 0.78125 0.75q0.265625 0.421875 0.265625 1.0q0 0.921875 -0.71875 1.484375q-0.71875 0.546875 -1.921875 0.546875q-0.78125 0 -1.453125 -0.296875q-0.671875 -0.3125 -1.046875 -0.828125q-0.359375 -0.515625 -0.359375 -1.1875l1.0 0q0 0.6875 0.5 1.09375q0.515625 0.390625 1.359375 0.390625q0.796875 0 1.21875 -0.3125q0.421875 -0.328125 0.421875 -0.875q0 -0.5625 -0.390625 -0.859375q-0.390625 -0.3125 -1.421875 -0.609375zm8.368835 -0.125l-3.28125 0l0 2.6875l3.8125 0l0 0.8125l-4.8125 0l0 -7.578125l4.765625 0l0 0.828125l-3.765625 0l0 2.4375l3.28125 0l0 0.8125zm2.7909546 2.6875l3.578125 0l0 0.8125l-4.59375 0l0 -7.578125l1.015625 0l0 6.765625zm8.999603 -2.6875l-3.28125 0l0 2.6875l3.8125 0l0 0.8125l-4.8125 0l0 -7.578125l4.765625 0l0 0.828125l-3.765625 0l0 2.4375l3.28125 0l0 0.8125zm7.3534546 1.09375q-0.140625 1.203125 -0.890625 1.859375q-0.75 0.65625 -1.984375 0.65625q-1.34375 0 -2.15625 -0.96875q-0.796875 -0.96875 -0.796875 -2.578125l0 -0.71875q0 -1.0625 0.375 -1.859375q0.375 -0.8125 1.0625 -1.234375q0.6875 -0.4375 1.609375 -0.4375q1.203125 0 1.921875 0.6875q0.734375 0.671875 0.859375 1.859375l-1.0 0q-0.140625 -0.90625 -0.578125 -1.3125q-0.421875 -0.40625 -1.203125 -0.40625q-0.96875 0 -1.515625 0.71875q-0.53125 0.703125 -0.53125 2.0l0 0.734375q0 1.234375 0.515625 1.96875q0.515625 0.71875 1.4375 0.71875q0.828125 0 1.265625 -0.375q0.453125 -0.375 0.609375 -1.3125l1.0 0zm6.4411316 -4.34375l-2.4375 0l0 6.75l-0.984375 0l0 -6.75l-2.4375 0l0 -0.828125l5.859375 0l0 0.828125z" fill-rule="nonzero"/><path fill="#a72a1e" d="m317.16782 114.17317q0.578125 0 1.125 0.296875q0.546875 0.296875 0.859375 0.859375q0.3125 0.546875 0.3125 1.140625q0 0.9375 -0.671875 1.609375q-0.671875 0.671875 -1.625 0.671875q-0.953125 0 -1.625 -0.671875q-0.671875 -0.671875 -0.671875 -1.609375q0 -0.609375 0.3125 -1.15625q0.3125 -0.546875 0.859375 -0.84375q0.546875 -0.296875 1.125 -0.296875z" fill-rule="nonzero"/><path fill="#a72a1e" d="m346.3386 119.47005l-1.0 0l0 -7.578125l1.0 0l0 7.578125zm7.648224 0l-1.0 0l-3.8125 -5.84375l0 5.84375l-1.015625 0l0 -7.578125l1.015625 0l3.8125 5.859375l0 -5.859375l1.0 0l0 7.578125zm4.0029907 -3.375q-1.28125 -0.375 -1.875 -0.90625q-0.578125 -0.546875 -0.578125 -1.328125q0 -0.90625 0.71875 -1.484375q0.71875 -0.59375 1.859375 -0.59375q0.78125 0 1.390625 0.3125q0.609375 0.296875 0.9375 0.828125q0.34375 0.53125 0.34375 1.15625l-1.0 0q0 -0.6875 -0.4375 -1.078125q-0.4375 -0.390625 -1.234375 -0.390625q-0.734375 0 -1.15625 0.328125q-0.40625 0.328125 -0.40625 0.90625q0 0.453125 0.390625 0.78125q0.390625 0.3125 1.328125 0.578125q0.953125 0.265625 1.484375 0.59375q0.53125 0.3125 0.78125 0.75q0.265625 0.421875 0.265625 1.0q0 0.921875 -0.71875 1.484375q-0.71875 0.546875 -1.921875 0.546875q-0.78125 0 -1.453125 -0.296875q-0.671875 -0.3125 -1.046875 -0.828125q-0.359375 -0.515625 -0.359375 -1.1875l1.0 0q0 0.6875 0.5 1.09375q0.515625 0.390625 1.359375 0.390625q0.796875 0 1.21875 -0.3125q0.421875 -0.328125 0.421875 -0.875q0 -0.5625 -0.390625 -0.859375q-0.390625 -0.3125 -1.421875 -0.609375zm8.368805 -0.125l-3.28125 0l0 2.6875l3.8125 0l0 0.8125l-4.8125 0l0 -7.578125l4.765625 0l0 0.828125l-3.765625 0l0 2.4375l3.28125 0l0 0.8125zm4.5565796 0.4375l-1.78125 0l0 3.0625l-1.0 0l0 -7.578125l2.5 0q1.28125 0 1.96875 0.59375q0.703125 0.578125 0.703125 1.6875q0 0.703125 -0.390625 1.234375q-0.375 0.53125 -1.0625 0.78125l1.78125 3.21875l0 0.0625l-1.078125 0l-1.640625 -3.0625zm-1.78125 -0.8125l1.53125 0q0.75 0 1.1875 -0.390625q0.4375 -0.390625 0.4375 -1.03125q0 -0.703125 -0.421875 -1.078125q-0.40625 -0.375 -1.203125 -0.375l-1.53125 0l0 2.875zm10.378998 -2.875l-2.4375 0l0 6.75l-0.984375 0l0 -6.75l-2.4375 0l0 -0.828125l5.859375 0l0 0.828125z" fill-rule="nonzero"/><path fill="#a72a1e" d="m317.16782 129.17317q0.578125 0 1.125 0.296875q0.546875 0.296875 0.859375 0.859375q0.3125 0.546875 0.3125 1.140625q0 0.9375 -0.671875 1.609375q-0.671875 0.671875 -1.625 0.671875q-0.953125 0 -1.625 -0.671875q-0.671875 -0.671875 -0.671875 -1.609375q0 -0.609375 0.3125 -1.15625q0.3125 -0.546875 0.859375 -0.84375q0.546875 -0.296875 1.125 -0.296875z" fill-rule="nonzero"/><path fill="#a72a1e" d="m350.60422 126.89192l0 5.15625q-0.015625 1.0625 -0.6875 1.75q-0.65625 0.6875 -1.8125 0.765625l-0.265625 0.015625q-1.234375 0 -1.984375 -0.671875q-0.734375 -0.671875 -0.734375 -1.859375l0 -5.15625l0.984375 0l0 5.125q0 0.828125 0.453125 1.28125q0.453125 0.453125 1.28125 0.453125q0.859375 0 1.296875 -0.453125q0.453125 -0.453125 0.453125 -1.265625l0 -5.140625l1.015625 0zm2.566162 4.609375l0 2.96875l-1.0 0l0 -7.578125l2.796875 0q1.25 0 1.953125 0.640625q0.703125 0.625 0.703125 1.671875q0 1.109375 -0.6875 1.703125q-0.6875 0.59375 -1.984375 0.59375l-1.78125 0zm0 -0.8125l1.796875 0q0.796875 0 1.21875 -0.375q0.4375 -0.375 0.4375 -1.09375q0 -0.671875 -0.4375 -1.078125q-0.421875 -0.40625 -1.15625 -0.421875l-1.859375 0l0 2.96875zm5.722595 3.78125l0 -7.578125l2.140625 0q0.984375 0 1.75 0.4375q0.765625 0.4375 1.171875 1.25q0.421875 0.796875 0.421875 1.84375l0 0.484375q0 1.078125 -0.421875 1.890625q-0.40625 0.796875 -1.171875 1.234375q-0.765625 0.421875 -1.796875 0.4375l-2.09375 0zm1.0 -6.75l0 5.9375l1.046875 0q1.15625 0 1.796875 -0.71875q0.65625 -0.71875 0.65625 -2.046875l0 -0.4375q0 -1.296875 -0.609375 -2.015625q-0.609375 -0.71875 -1.71875 -0.71875l-1.171875 0zm10.066101 4.765625l-3.171875 0l-0.71875 1.984375l-1.03125 0l2.890625 -7.578125l0.875 0l2.90625 7.578125l-1.03125 0l-0.71875 -1.984375zm-2.875 -0.8125l2.578125 0l-1.296875 -3.546875l-1.28125 3.546875zm10.201538 -3.953125l-2.4375 0l0 6.75l-0.984375 0l0 -6.75l-2.4375 0l0 -0.828125l5.859375 0l0 0.828125zm5.405243 3.25l-3.28125 0l0 2.6875l3.8125 0l0 0.8125l-4.8125 0l0 -7.578125l4.765625 0l0 0.828125l-3.765625 0l0 2.4375l3.28125 0l0 0.8125z" fill-rule="nonzero"/><path fill="#a72a1e" d="m317.16782 144.17317q0.578125 0 1.125 0.296875q0.546875 0.296875 0.859375 0.859375q0.3125 0.546875 0.3125 1.140625q0 0.9375 -0.671875 1.609375q-0.671875 0.671875 -1.625 0.671875q-0.953125 0 -1.625 -0.671875q-0.671875 -0.671875 -0.671875 -1.609375q0 -0.609375 0.3125 -1.15625q0.3125 -0.546875 0.859375 -0.84375q0.546875 -0.296875 1.125 -0.296875z" fill-rule="nonzero"/><path fill="#a72a1e" d="m345.26047 149.47005l0 -7.578125l2.140625 0q0.984375 0 1.75 0.4375q0.765625 0.4375 1.171875 1.25q0.421875 0.796875 0.421875 1.84375l0 0.484375q0 1.078125 -0.421875 1.890625q-0.40625 0.796875 -1.171875 1.234375q-0.765625 0.421875 -1.796875 0.4375l-2.09375 0zm1.0 -6.75l0 5.9375l1.046875 0q1.15625 0 1.796875 -0.71875q0.65625 -0.71875 0.65625 -2.046875l0 -0.4375q0 -1.296875 -0.609375 -2.015625q-0.609375 -0.71875 -1.71875 -0.71875l-1.171875 0zm10.269226 3.25l-3.28125 0l0 2.6875l3.8125 0l0 0.8125l-4.8125 0l0 -7.578125l4.765625 0l0 0.828125l-3.765625 0l0 2.4375l3.28125 0l0 0.8125zm2.7909546 2.6875l3.578125 0l0 0.8125l-4.59375 0l0 -7.578125l1.015625 0l0 6.765625zm8.999603 -2.6875l-3.28125 0l0 2.6875l3.8125 0l0 0.8125l-4.8125 0l0 -7.578125l4.765625 0l0 0.828125l-3.765625 0l0 2.4375l3.28125 0l0 0.8125zm7.113861 -3.25l-2.4375 0l0 6.75l-0.984375 0l0 -6.75l-2.4375 0l0 -0.828125l5.859375 0l0 0.828125zm5.405243 3.25l-3.28125 0l0 2.6875l3.8125 0l0 0.8125l-4.8125 0l0 -7.578125l4.765625 0l0 0.828125l-3.765625 0l0 2.4375l3.28125 0l0 0.8125z" fill-rule="nonzero"/><path fill="#eeeeee" d="m224.95012 15.454068l251.9055 0l0 71.62205l-251.9055 0z" fill-rule="evenodd"/><path fill="#a72a1e" d="m263.1374 15.453964l-176.50394 0l0 71.52756l176.50394 0z" fill-rule="evenodd"/><path fill="#a72a1e" d="m166.12628 87.06998l0 -71.616806l108.64499 0l27.161255 35.808403l-27.161255 35.808407z" fill-rule="evenodd"/><path fill="#000000" fill-opacity="0.0" d="m86.636345 24.066248l172.85037 0l0 55.2126l-172.85037 0z" fill-rule="evenodd"/><path fill="#ffffff" d="m96.605095 46.47255l0 -9.46875l2.796875 0q1.25 0 2.21875 0.5625q0.984375 0.546875 1.515625 1.578125q0.53125 1.03125 0.53125 2.359375l0 0.46875q0 1.34375 -0.546875 2.375q-0.53125 1.015625 -1.53125 1.578125q-0.984375 0.546875 -2.265625 0.546875l-2.71875 0zm1.640625 -8.140625l0 6.828125l1.078125 0q1.296875 0 1.984375 -0.8125q0.6875 -0.8125 0.703125 -2.328125l0 -0.53125q0 -1.53125 -0.671875 -2.34375q-0.671875 -0.8125 -1.9375 -0.8125l-1.15625 0zm7.06691 8.140625l0 -9.46875l2.796875 0q1.25 0 2.21875 0.5625q0.984375 0.546875 1.515625 1.578125q0.53125 1.03125 0.53125 2.359375l0 0.46875q0 1.34375 -0.546875 2.375q-0.53125 1.015625 -1.53125 1.578125q-0.984375 0.546875 -2.265625 0.546875l-2.71875 0zm1.640625 -8.140625l0 6.828125l1.078125 0q1.296875 0 1.984375 -0.8125q0.6875 -0.8125 0.703125 -2.328125l0 -0.53125q0 -1.53125 -0.671875 -2.34375q-0.671875 -0.8125 -1.9375 -0.8125l-1.15625 0zm8.707535 6.828125l4.296875 0l0 1.3125l-5.9375 0l0 -9.46875l1.640625 0l0 8.15625zm14.467247 -3.765625l-5.6093826 0l0 -1.3125l5.6093826 0l0 1.3125zm0 2.765625l-5.6093826 0l0 -1.3125l5.6093826 0l0 1.3125zm5.1989136 2.3125l0 -9.46875l2.796875 0q1.25 0 2.21875 0.5625q0.984375 0.546875 1.515625 1.578125q0.53125 1.03125 0.53125 2.359375l0 0.46875q0 1.34375 -0.546875 2.375q-0.53125 1.015625 -1.53125 1.578125q-0.984375 0.546875 -2.265625 0.546875l-2.71875 0zm1.640625 -8.140625l0 6.828125l1.078125 0q1.296875 0 1.984375 -0.8125q0.6875 -0.8125 0.703125 -2.328125l0 -0.53125q0 -1.53125 -0.671875 -2.34375q-0.671875 -0.8125 -1.9375 -0.8125l-1.15625 0zm11.113785 8.140625q-0.109375 -0.203125 -0.1875 -0.65625q-0.75 0.78125 -1.84375 0.78125q-1.0625 0 -1.734375 -0.59375q-0.671875 -0.609375 -0.671875 -1.5q0 -1.125 0.84375 -1.71875q0.84375 -0.609375 2.390625 -0.609375l0.96875 0l0 -0.46875q0 -0.546875 -0.3125 -0.875q-0.296875 -0.328125 -0.921875 -0.328125q-0.546875 0 -0.890625 0.28125q-0.34375 0.265625 -0.34375 0.671875l-1.578125 0q0 -0.578125 0.375 -1.078125q0.390625 -0.5 1.046875 -0.78125q0.671875 -0.296875 1.484375 -0.296875q1.234375 0 1.96875 0.625q0.734375 0.625 0.75 1.75l0 3.171875q0 0.953125 0.265625 1.515625l0 0.109375l-1.609375 0zm-1.734375 -1.140625q0.46875 0 0.875 -0.21875q0.421875 -0.234375 0.625 -0.625l0 -1.328125l-0.84375 0q-0.890625 0 -1.328125 0.3125q-0.4375 0.3125 -0.4375 0.859375q0 0.46875 0.296875 0.734375q0.296875 0.265625 0.8125 0.265625zm6.726349 -7.609375l0 1.703125l1.234375 0l0 1.171875l-1.234375 0l0 3.9375q0 0.40625 0.15625 0.59375q0.15625 0.171875 0.5625 0.171875q0.28125 0 0.5625 -0.078125l0 1.234375q-0.546875 0.140625 -1.046875 0.140625q-1.828125 0 -1.828125 -2.0l0 -4.0l-1.15625 0l0 -1.171875l1.15625 0l0 -1.703125l1.59375 0zm6.6506195 8.75q-0.109375 -0.203125 -0.1875 -0.65625q-0.75 0.78125 -1.84375 0.78125q-1.0625 0 -1.734375 -0.59375q-0.671875 -0.609375 -0.671875 -1.5q0 -1.125 0.84375 -1.71875q0.84375 -0.609375 2.390625 -0.609375l0.96875 0l0 -0.46875q0 -0.546875 -0.3125 -0.875q-0.296875 -0.328125 -0.921875 -0.328125q-0.546875 0 -0.890625 0.28125q-0.34375 0.265625 -0.34375 0.671875l-1.578125 0q0 -0.578125 0.375 -1.078125q0.390625 -0.5 1.046875 -0.78125q0.671875 -0.296875 1.484375 -0.296875q1.234375 0 1.96875 0.625q0.734375 0.625 0.75 1.75l0 3.171875q0 0.953125 0.265625 1.515625l0 0.109375l-1.609375 0zm-1.734375 -1.140625q0.46875 0 0.875 -0.21875q0.421875 -0.234375 0.625 -0.625l0 -1.328125l-0.84375 0q-0.890625 0 -1.328125 0.3125q-0.4375 0.3125 -0.4375 0.859375q0 0.46875 0.296875 0.734375q0.296875 0.265625 0.8125 0.265625zm8.217239 1.140625l0 -9.46875l2.796875 0q1.25 0 2.21875 0.5625q0.984375 0.546875 1.515625 1.578125q0.53125 1.03125 0.53125 2.359375l0 0.46875q0 1.34375 -0.546875 2.375q-0.53125 1.015625 -1.53125 1.578125q-0.984375 0.546875 -2.265625 0.546875l-2.71875 0zm1.640625 -8.140625l0 6.828125l1.078125 0q1.296875 0 1.984375 -0.8125q0.6875 -0.8125 0.703125 -2.328125l0 -0.53125q0 -1.53125 -0.671875 -2.34375q-0.671875 -0.8125 -1.9375 -0.8125l-1.15625 0zm10.00441 8.265625q-1.5 0 -2.4375 -0.9375q-0.921875 -0.953125 -0.921875 -2.53125l0 -0.1875q0 -1.0625 0.40625 -1.890625q0.40625 -0.828125 1.140625 -1.28125q0.734375 -0.46875 1.640625 -0.46875q1.4375 0 2.21875 0.921875q0.78125 0.90625 0.78125 2.59375l0 0.640625l-4.59375 0q0.0625 0.875 0.578125 1.390625q0.515625 0.5 1.28125 0.5q1.09375 0 1.765625 -0.890625l0.859375 0.8125q-0.421875 0.640625 -1.125 0.984375q-0.703125 0.34375 -1.59375 0.34375zm-0.1875 -6.03125q-0.640625 0 -1.046875 0.46875q-0.40625 0.453125 -0.515625 1.265625l3.015625 0l0 -0.125q-0.046875 -0.796875 -0.421875 -1.203125q-0.375 -0.40625 -1.03125 -0.40625zm4.6677856 5.90625l0 -5.875l-1.078125 0l0 -1.171875l1.078125 0l0 -0.46875q0 -0.828125 0.34375 -1.421875q0.34375 -0.59375 0.96875 -0.890625q0.640625 -0.296875 1.53125 -0.296875q0.515625 0 0.984375 0.109375q0.484375 0.109375 1.0 0.265625l-0.234375 1.3125q-0.90625 -0.3125 -1.640625 -0.3125q-0.71875 0 -1.046875 0.328125q-0.328125 0.3125 -0.328125 0.9375l0 0.4375l1.390625 0l0 1.171875l-1.390625 0l0 5.875l-1.578125 0zm5.578125 0l-1.578125 0l0 -7.046875l1.578125 0l0 7.046875zm3.2261353 -7.046875l0.046875 0.8125q0.78125 -0.9375 2.046875 -0.9375q2.203125 0 2.234375 2.515625l0 4.65625l-1.578125 0l0 -4.5625q0 -0.671875 -0.296875 -0.984375q-0.28125 -0.328125 -0.9375 -0.328125q-0.953125 0 -1.421875 0.859375l0 5.015625l-1.59375 0l0 -7.046875l1.5 0zm7.6312256 7.046875l-1.59375 0l0 -7.046875l1.59375 0l0 7.046875zm-1.6875 -8.875q0 -0.359375 0.234375 -0.59375q0.234375 -0.25 0.65625 -0.25q0.4375 0 0.671875 0.25q0.234375 0.234375 0.234375 0.59375q0 0.359375 -0.234375 0.609375q-0.234375 0.234375 -0.671875 0.234375q-0.421875 0 -0.65625 -0.234375q-0.234375 -0.25 -0.234375 -0.609375zm5.3880005 0.125l0 1.703125l1.234375 0l0 1.171875l-1.234375 0l0 3.9375q0 0.40625 0.15625 0.59375q0.15625 0.171875 0.5625 0.171875q0.28125 0 0.5625 -0.078125l0 1.234375q-0.546875 0.140625 -1.046875 0.140625q-1.828125 0 -1.828125 -2.0l0 -4.0l-1.15625 0l0 -1.171875l1.15625 0l0 -1.703125l1.59375 0zm4.1349945 8.75l-1.59375 0l0 -7.046875l1.59375 0l0 7.046875zm-1.6875 -8.875q0 -0.359375 0.234375 -0.59375q0.234375 -0.25 0.65625 -0.25q0.4375 0 0.671875 0.25q0.234375 0.234375 0.234375 0.59375q0 0.359375 -0.234375 0.609375q-0.234375 0.234375 -0.671875 0.234375q-0.421875 0 -0.65625 -0.234375q-0.234375 -0.25 -0.234375 -0.609375zm3.1067505 5.296875q0 -1.046875 0.40625 -1.875q0.40625 -0.828125 1.140625 -1.265625q0.75 -0.453125 1.71875 -0.453125q1.421875 0 2.3125 0.921875q0.890625 0.90625 0.953125 2.4375l0.015625 0.359375q0 1.046875 -0.40625 1.875q-0.390625 0.8125 -1.140625 1.265625q-0.75 0.4375 -1.71875 0.4375q-1.5 0 -2.390625 -0.984375q-0.890625 -1.0 -0.890625 -2.640625l0 -0.078125zm1.578125 0.125q0 1.09375 0.453125 1.71875q0.453125 0.609375 1.25 0.609375q0.796875 0 1.234375 -0.625q0.453125 -0.625 0.453125 -1.828125q0 -1.078125 -0.46875 -1.703125q-0.453125 -0.625 -1.234375 -0.625q-0.78125 0 -1.234375 0.625q-0.453125 0.609375 -0.453125 1.828125zm7.7756805 -3.59375l0.046875 0.8125q0.78125 -0.9375 2.046875 -0.9375q2.203125 0 2.234375 2.515625l0 4.65625l-1.578125 0l0 -4.5625q0 -0.671875 -0.296875 -0.984375q-0.28125 -0.328125 -0.9375 -0.328125q-0.953125 0 -1.421875 0.859375l0 5.015625l-1.59375 0l0 -7.046875l1.5 0z" fill-rule="nonzero"/><path fill="#ffffff" d="m98.24572 63.16005l4.296875 0l0 1.3125l-5.9375 0l0 -9.46875l1.640625 0l0 8.15625zm9.616974 1.3125q-0.109375 -0.203125 -0.1875 -0.65625q-0.75 0.78125 -1.84375 0.78125q-1.0625 0 -1.734375 -0.59375q-0.671875 -0.609375 -0.671875 -1.5q0 -1.125 0.84375 -1.71875q0.84375 -0.609375 2.390625 -0.609375l0.96875 0l0 -0.46875q0 -0.546875 -0.3125 -0.875q-0.296875 -0.328125 -0.921875 -0.328125q-0.546875 0 -0.890625 0.28125q-0.34375 0.265625 -0.34375 0.671875l-1.578125 0q0 -0.578125 0.375 -1.078125q0.390625 -0.5 1.046875 -0.78125q0.671875 -0.296875 1.484375 -0.296875q1.234375 0 1.96875 0.625q0.734375 0.625 0.75 1.75l0 3.171875q0 0.953125 0.265625 1.515625l0 0.109375l-1.609375 0zm-1.734375 -1.140625q0.46875 0 0.875 -0.21875q0.421875 -0.234375 0.625 -0.625l0 -1.328125l-0.84375 0q-0.890625 0 -1.328125 0.3125q-0.4375 0.3125 -0.4375 0.859375q0 0.46875 0.296875 0.734375q0.296875 0.265625 0.8125 0.265625zm6.210724 -5.90625l0.046875 0.8125q0.78125 -0.9375 2.046875 -0.9375q2.203125 0 2.234375 2.515625l0 4.65625l-1.578125 0l0 -4.5625q0 -0.671875 -0.296875 -0.984375q-0.28125 -0.328125 -0.9375 -0.328125q-0.953125 0 -1.421875 0.859375l0 5.015625l-1.59375 0l0 -7.046875l1.5 0zm5.6624756 3.46875q0 -1.640625 0.765625 -2.609375q0.78125 -0.984375 2.046875 -0.984375q1.21875 0 1.90625 0.84375l0.0625 -0.71875l1.421875 0l0 6.828125q0 1.390625 -0.859375 2.1875q-0.859375 0.796875 -2.328125 0.796875q-0.765625 0 -1.515625 -0.328125q-0.734375 -0.3125 -1.109375 -0.828125l0.75 -0.953125q0.71875 0.859375 1.796875 0.859375q0.78125 0 1.234375 -0.421875q0.453125 -0.421875 0.453125 -1.25l0 -0.46875q-0.671875 0.75 -1.8125 0.75q-1.234375 0 -2.03125 -0.96875q-0.78125 -0.984375 -0.78125 -2.734375zm1.578125 0.140625q0 1.0625 0.421875 1.671875q0.4375 0.609375 1.203125 0.609375q0.96875 0 1.421875 -0.828125l0 -3.09375q-0.4375 -0.796875 -1.40625 -0.796875q-0.78125 0 -1.21875 0.625q-0.421875 0.609375 -0.421875 1.8125zm10.524406 2.75q-0.703125 0.8125 -1.984375 0.8125q-1.1406326 0 -1.7343826 -0.65625q-0.578125 -0.671875 -0.578125 -1.953125l0 -4.5625l1.578125 0l0 4.546875q0 1.34375 1.1093826 1.34375q1.15625 0 1.5625 -0.828125l0 -5.0625l1.578125 0l0 7.046875l-1.5 0l-0.03125 -0.6875zm7.34346 0.6875q-0.109375 -0.203125 -0.1875 -0.65625q-0.75 0.78125 -1.84375 0.78125q-1.0625 0 -1.734375 -0.59375q-0.671875 -0.609375 -0.671875 -1.5q0 -1.125 0.84375 -1.71875q0.84375 -0.609375 2.390625 -0.609375l0.96875 0l0 -0.46875q0 -0.546875 -0.3125 -0.875q-0.296875 -0.328125 -0.921875 -0.328125q-0.546875 0 -0.890625 0.28125q-0.34375 0.265625 -0.34375 0.671875l-1.578125 0q0 -0.578125 0.375 -1.078125q0.390625 -0.5 1.046875 -0.78125q0.671875 -0.296875 1.484375 -0.296875q1.234375 0 1.96875 0.625q0.734375 0.625 0.75 1.75l0 3.171875q0 0.953125 0.265625 1.515625l0 0.109375l-1.609375 0zm-1.734375 -1.140625q0.46875 0 0.875 -0.21875q0.421875 -0.234375 0.625 -0.625l0 -1.328125l-0.84375 0q-0.890625 0 -1.328125 0.3125q-0.4375 0.3125 -0.4375 0.859375q0 0.46875 0.296875 0.734375q0.296875 0.265625 0.8125 0.265625zm4.460724 -2.4375q0 -1.640625 0.765625 -2.609375q0.78125 -0.984375 2.046875 -0.984375q1.21875 0 1.90625 0.84375l0.0625 -0.71875l1.421875 0l0 6.828125q0 1.390625 -0.859375 2.1875q-0.859375 0.796875 -2.328125 0.796875q-0.765625 0 -1.515625 -0.328125q-0.734375 -0.3125 -1.109375 -0.828125l0.75 -0.953125q0.71875 0.859375 1.796875 0.859375q0.78125 0 1.234375 -0.421875q0.453125 -0.421875 0.453125 -1.25l0 -0.46875q-0.671875 0.75 -1.8125 0.75q-1.234375 0 -2.03125 -0.96875q-0.78125 -0.984375 -0.78125 -2.734375zm1.578125 0.140625q0 1.0625 0.421875 1.671875q0.4375 0.609375 1.203125 0.609375q0.96875 0 1.421875 -0.828125l0 -3.09375q-0.4375 -0.796875 -1.40625 -0.796875q-0.78125 0 -1.21875 0.625q-0.421875 0.609375 -0.421875 1.8125zm9.352524 3.5625q-1.5 0 -2.4375 -0.9375q-0.921875 -0.953125 -0.921875 -2.53125l0 -0.1875q0 -1.0625 0.40625 -1.890625q0.40625 -0.828125 1.140625 -1.28125q0.734375 -0.46875 1.640625 -0.46875q1.4375 0 2.21875 0.921875q0.78125 0.90625 0.78125 2.59375l0 0.640625l-4.59375 0q0.0625 0.875 0.578125 1.390625q0.515625 0.5 1.28125 0.5q1.09375 0 1.765625 -0.890625l0.859375 0.8125q-0.421875 0.640625 -1.125 0.984375q-0.703125 0.34375 -1.59375 0.34375zm-0.1875 -6.03125q-0.640625 0 -1.046875 0.46875q-0.40625 0.453125 -0.515625 1.265625l3.015625 0l0 -0.125q-0.046875 -0.796875 -0.421875 -1.203125q-0.375 -0.40625 -1.03125 -0.40625z" fill-rule="nonzero"/><g filter="url(#shadowFilter-p.4)"><use xlink:href="#p.4" transform="matrix(1.0 0.0 0.0 1.0 2.1213204291236054 2.1213204291236054)"/></g><defs><filter id="shadowFilter-p.4" filterUnits="userSpaceOnUse"><feGaussianBlur in="SourceAlpha" stdDeviation="2.5" result="blur"/><feComponentTransfer in="blur" color-interpolation-filters="sRGB"><feFuncR type="linear" slope="0" intercept="0.0"/><feFuncG type="linear" slope="0" intercept="0.0"/><feFuncB type="linear" slope="0" intercept="0.0"/><feFuncA type="linear" slope="0.17" intercept="0"/></feComponentTransfer></filter></defs><g id="p.4"><path fill="#b02c20" d="m20.604214 15.453167l66.01575 0l0 71.49606l-66.01575 0z" fill-rule="evenodd"/></g><path fill="#be2f22" d="m20.604214 15.453964l66.01575 0l0 71.52756l-66.01575 0z" fill-rule="evenodd"/><path fill="#ffffff" d="m51.501904 53.450867q0 4.953125 -1.9375 7.671875q-1.921875 2.71875 -5.40625 2.71875q-3.46875 0 -5.4375 -2.734375q-1.96875 -2.75 -1.96875 -7.734375l0 -4.46875q0 -4.90625 1.9375 -7.65625q1.9375 -2.75 5.421875 -2.75q3.515625 0 5.453125 2.75q1.9375 2.75 1.9375 7.734375l0 4.46875zm-0.921875 -4.546875q0 -4.484375 -1.6875 -6.984375q-1.671875 -2.5 -4.78125 -2.5q-3.109375 0 -4.78125 2.515625q-1.65625 2.515625 -1.65625 7.0625l0 4.421875q0 4.453125 1.703125 6.984375q1.71875 2.515625 4.78125 2.515625q3.078125 0 4.75 -2.515625q1.671875 -2.53125 1.671875 -7.078125l0 -4.421875zm14.188313 14.59375l-0.9218788 0l0 -23.484375l-7.0625 2.65625l0 -1.0l7.796879 -2.875l0.1875 0l0 24.703125z" fill-rule="nonzero"/><path fill="#000000" fill-opacity="0.0" d="m287.80838 15.582677l179.46457 0l0 71.49606l-179.46457 0z" fill-rule="evenodd"/><path fill="#a72a1e" d="m317.59073 26.273834q0.578125 0 1.125 0.296875q0.546875 0.296875 0.859375 0.859375q0.3125 0.546875 0.3125 1.140625q0 0.9375 -0.671875 1.609375q-0.671875 0.671875 -1.625 0.671875q-0.953125 0 -1.625 -0.671875q-0.671875 -0.671875 -0.671875 -1.609375q0 -0.609375 0.3125 -1.15625q0.3125 -0.546875 0.859375 -0.84375q0.546875 -0.296875 1.125 -0.296875z" fill-rule="nonzero"/><path fill="#a72a1e" d="m351.2615 29.16446q-0.140625 1.203125 -0.890625 1.859375q-0.75 0.65625 -1.984375 0.65625q-1.34375 0 -2.15625 -0.96875q-0.796875 -0.96875 -0.796875 -2.578125l0 -0.71875q0 -1.0625 0.375 -1.859375q0.375 -0.8125 1.0625 -1.234375q0.6875 -0.4375 1.609375 -0.4375q1.203125 0 1.921875 0.6875q0.734375 0.671875 0.859375 1.859375l-1.0 0q-0.140625 -0.90625 -0.578125 -1.3125q-0.421875 -0.40625 -1.203125 -0.40625q-0.96875 0 -1.515625 0.71875q-0.53125 0.703125 -0.53125 2.0l0 0.734375q0 1.234375 0.515625 1.96875q0.515625 0.71875 1.4375 0.71875q0.828125 0 1.265625 -0.375q0.453125 -0.375 0.609375 -1.3125l1.0 0zm4.1390686 -0.65625l-1.78125 0l0 3.0625l-1.0 0l0 -7.578125l2.5 0q1.28125 0 1.96875 0.59375q0.703125 0.578125 0.703125 1.6875q0 0.703125 -0.390625 1.234375q-0.375 0.53125 -1.0625 0.78125l1.78125 3.21875l0 0.0625l-1.078125 0l-1.640625 -3.0625zm-1.78125 -0.8125l1.53125 0q0.75 0 1.1875 -0.390625q0.4375 -0.390625 0.4375 -1.03125q0 -0.703125 -0.421875 -1.078125q-0.40625 -0.375 -1.203125 -0.375l-1.53125 0l0 2.875zm9.842529 0.375l-3.28125 0l0 2.6875l3.8125 0l0 0.8125l-4.8125 0l0 -7.578125l4.765625 0l0 0.828125l-3.765625 0l0 2.4375l3.28125 0l0 0.8125zm5.9628296 1.515625l-3.171875 0l-0.71875 1.984375l-1.03125 0l2.890625 -7.578125l0.875 0l2.90625 7.578125l-1.03125 0l-0.71875 -1.984375zm-2.875 -0.8125l2.578125 0l-1.296875 -3.546875l-1.28125 3.546875zm10.201538 -3.953125l-2.4375 0l0 6.75l-0.984375 0l0 -6.75l-2.4375 0l0 -0.828125l5.859375 0l0 0.828125zm5.405243 3.25l-3.28125 0l0 2.6875l3.8125 0l0 0.8125l-4.8125 0l0 -7.578125l4.765625 0l0 0.828125l-3.765625 0l0 2.4375l3.28125 0l0 0.8125z" fill-rule="nonzero"/><path fill="#a72a1e" d="m317.59073 41.273834q0.578125 0 1.125 0.296875q0.546875 0.296875 0.859375 0.859375q0.3125 0.546875 0.3125 1.140625q0 0.9375 -0.671875 1.609375q-0.671875 0.671875 -1.625 0.671875q-0.953125 0 -1.625 -0.671875q-0.671875 -0.671875 -0.671875 -1.609375q0 -0.609375 0.3125 -1.15625q0.3125 -0.546875 0.859375 -0.84375q0.546875 -0.296875 1.125 -0.296875z" fill-rule="nonzero"/><path fill="#a72a1e" d="m349.87088 44.586334l-3.171875 0l-0.71875 1.984375l-1.03125 0l2.890625 -7.578125l0.875 0l2.90625 7.578125l-1.03125 0l-0.71875 -1.984375zm-2.875 -0.8125l2.578125 0l-1.296875 -3.546875l-1.28125 3.546875zm6.654663 1.984375l3.578125 0l0 0.8125l-4.59375 0l0 -7.578125l1.015625 0l0 6.765625zm8.520447 -5.9375l-2.4375 0l0 6.75l-0.984375 0l0 -6.75l-2.4375 0l0 -0.828125l5.859375 0l0 0.828125zm5.405243 3.25l-3.28125 0l0 2.6875l3.8125 0l0 0.8125l-4.8125 0l0 -7.578125l4.765625 0l0 0.828125l-3.765625 0l0 2.4375l3.28125 0l0 0.8125zm4.5565796 0.4375l-1.78125 0l0 3.0625l-1.0 0l0 -7.578125l2.5 0q1.28125 0 1.96875 0.59375q0.703125 0.578125 0.703125 1.6875q0 0.703125 -0.390625 1.234375q-0.375 0.53125 -1.0625 0.78125l1.78125 3.21875l0 0.0625l-1.078125 0l-1.640625 -3.0625zm-1.78125 -0.8125l1.53125 0q0.75 0 1.1875 -0.390625q0.4375 -0.390625 0.4375 -1.03125q0 -0.703125 -0.421875 -1.078125q-0.40625 -0.375 -1.203125 -0.375l-1.53125 0l0 2.875z" fill-rule="nonzero"/><path fill="#a72a1e" d="m317.59073 56.27383q0.578125 0 1.125 0.296875q0.546875 0.296875 0.859375 0.859375q0.3125 0.546875 0.3125 1.140625q0 0.9375 -0.671875 1.609375q-0.671875 0.671875 -1.625 0.671875q-0.953125 0 -1.625 -0.671875q-0.671875 -0.671875 -0.671875 -1.609375q0 -0.609375 0.3125 -1.15625q0.3125 -0.546875 0.859375 -0.84375q0.546875 -0.296875 1.125 -0.296875z" fill-rule="nonzero"/><path fill="#a72a1e" d="m345.68338 61.570705l0 -7.578125l2.140625 0q0.984375 0 1.75 0.4375q0.765625 0.4375 1.171875 1.25q0.421875 0.796875 0.421875 1.84375l0 0.484375q0 1.078125 -0.421875 1.890625q-0.40625 0.796875 -1.171875 1.234375q-0.765625 0.421875 -1.796875 0.4375l-2.09375 0zm1.0 -6.75l0 5.9375l1.046875 0q1.15625 0 1.796875 -0.71875q0.65625 -0.71875 0.65625 -2.046875l0 -0.4375q0 -1.296875 -0.609375 -2.015625q-0.609375 -0.71875 -1.71875 -0.71875l-1.171875 0zm8.769226 3.6875l-1.78125 0l0 3.0625l-1.0 0l0 -7.578125l2.5 0q1.28125 0 1.96875 0.59375q0.703125 0.578125 0.703125 1.6875q0 0.703125 -0.390625 1.234375q-0.375 0.53125 -1.0625 0.78125l1.78125 3.21875l0 0.0625l-1.078125 0l-1.640625 -3.0625zm-1.78125 -0.8125l1.53125 0q0.75 0 1.1875 -0.390625q0.4375 -0.390625 0.4375 -1.03125q0 -0.703125 -0.421875 -1.078125q-0.40625 -0.375 -1.203125 -0.375l-1.53125 0l0 2.875zm11.389404 0.328125q0 1.109375 -0.375 1.953125q-0.375 0.828125 -1.0625 1.265625q-0.6875 0.4375 -1.59375 0.4375q-0.90625 0 -1.59375 -0.4375q-0.6875 -0.453125 -1.078125 -1.265625q-0.375 -0.8125 -0.390625 -1.875l0 -0.546875q0 -1.09375 0.375 -1.9375q0.390625 -0.84375 1.078125 -1.28125q0.703125 -0.453125 1.59375 -0.453125q0.90625 0 1.59375 0.453125q0.703125 0.4375 1.078125 1.28125q0.375 0.828125 0.375 1.9375l0 0.46875zm-0.984375 -0.484375q0 -1.34375 -0.546875 -2.0625q-0.546875 -0.734375 -1.515625 -0.734375q-0.953125 0 -1.5 0.734375q-0.53125 0.71875 -0.546875 2.0l0 0.546875q0 1.3125 0.546875 2.0625q0.546875 0.734375 1.515625 0.734375q0.96875 0 1.5 -0.703125q0.53125 -0.703125 0.546875 -2.015625l0 -0.5625zm3.4824219 1.0625l0 2.96875l-1.0 0l0 -7.578125l2.796875 0q1.25 0 1.953125 0.640625q0.703125 0.625 0.703125 1.671875q0 1.109375 -0.6875 1.703125q-0.6875 0.59375 -1.984375 0.59375l-1.78125 0zm0 -0.8125l1.796875 0q0.796875 0 1.21875 -0.375q0.4375 -0.375 0.4375 -1.09375q0 -0.671875 -0.4375 -1.078125q-0.421875 -0.40625 -1.15625 -0.421875l-1.859375 0l0 2.96875z" fill-rule="nonzero"/><path fill="#a72a1e" d="m317.59073 71.273834q0.578125 0 1.125 0.296875q0.546875 0.296875 0.859375 0.859375q0.3125 0.546875 0.3125 1.140625q0 0.9375 -0.671875 1.609375q-0.671875 0.671875 -1.625 0.671875q-0.953125 0 -1.625 -0.671875q-0.671875 -0.671875 -0.671875 -1.609375q0 -0.609375 0.3125 -1.15625q0.3125 -0.546875 0.859375 -0.84375q0.546875 -0.296875 1.125 -0.296875z" fill-rule="nonzero"/><path fill="#a72a1e" d="m350.91776 69.82071l-2.4375 0l0 6.75l-0.984375 0l0 -6.75l-2.4375 0l0 -0.828125l5.859375 0l0 0.828125zm3.905243 3.6875l-1.78125 0l0 3.0625l-1.0 0l0 -7.578125l2.5 0q1.28125 0 1.96875 0.59375q0.703125 0.578125 0.703125 1.6875q0 0.703125 -0.390625 1.234375q-0.375 0.53125 -1.0625 0.78125l1.78125 3.21875l0 0.0625l-1.078125 0l-1.640625 -3.0625zm-1.78125 -0.8125l1.53125 0q0.75 0 1.1875 -0.390625q0.4375 -0.390625 0.4375 -1.03125q0 -0.703125 -0.421875 -1.078125q-0.40625 -0.375 -1.203125 -0.375l-1.53125 0l0 2.875zm10.90506 -3.703125l0 5.15625q-0.015625 1.0625 -0.6875 1.75q-0.65625 0.6875 -1.8125 0.765625l-0.265625 0.015625q-1.234375 0 -1.984375 -0.671875q-0.734375 -0.671875 -0.734375 -1.859375l0 -5.15625l0.984375 0l0 5.125q0 0.828125 0.453125 1.28125q0.453125 0.453125 1.28125 0.453125q0.859375 0 1.296875 -0.453125q0.453125 -0.453125 0.453125 -1.265625l0 -5.140625l1.015625 0zm7.394287 7.578125l-1.0 0l-3.8125 -5.84375l0 5.84375l-1.015625 0l0 -7.578125l1.015625 0l3.8125 5.859375l0 -5.859375l1.0 0l0 7.578125zm7.3467407 -2.40625q-0.140625 1.203125 -0.890625 1.859375q-0.75 0.65625 -1.984375 0.65625q-1.34375 0 -2.15625 -0.96875q-0.796875 -0.96875 -0.796875 -2.578125l0 -0.71875q0 -1.0625 0.375 -1.859375q0.375 -0.8125 1.0625 -1.234375q0.6875 -0.4375 1.609375 -0.4375q1.203125 0 1.921875 0.6875q0.734375 0.671875 0.859375 1.859375l-1.0 0q-0.140625 -0.90625 -0.578125 -1.3125q-0.421875 -0.40625 -1.203125 -0.40625q-0.96875 0 -1.515625 0.71875q-0.53125 0.703125 -0.53125 2.0l0 0.734375q0 1.234375 0.515625 1.96875q0.515625 0.71875 1.4375 0.71875q0.828125 0 1.265625 -0.375q0.453125 -0.375 0.609375 -1.3125l1.0 0zm5.545288 0.421875l-3.171875 0l-0.71875 1.984375l-1.03125 0l2.890625 -7.578125l0.875 0l2.90625 7.578125l-1.03125 0l-0.71875 -1.984375zm-2.875 -0.8125l2.578125 0l-1.296875 -3.546875l-1.28125 3.546875zm10.201538 -3.953125l-2.4375 0l0 6.75l-0.984375 0l0 -6.75l-2.4375 0l0 -0.828125l5.859375 0l0 0.828125zm5.405243 3.25l-3.28125 0l0 2.6875l3.8125 0l0 0.8125l-4.8125 0l0 -7.578125l4.765625 0l0 0.828125l-3.765625 0l0 2.4375l3.28125 0l0 0.8125z" fill-rule="nonzero"/></g></svg>