<svg version="1.1" viewBox="0.0 0.0 455.59842519685037 485.257217847769" fill="none" stroke="none" stroke-linecap="square" stroke-miterlimit="10" xmlns:xlink="http://www.w3.org/1999/xlink" xmlns="http://www.w3.org/2000/svg"><clipPath id="p.0"><path d="m0 0l455.59842 0l0 485.25723l-455.59842 0l0 -485.25723z" clip-rule="nonzero"/></clipPath><g clip-path="url(#p.0)"><path fill="#000000" fill-opacity="0.0" d="m0 0l455.59842 0l0 485.25723l-455.59842 0z" fill-rule="evenodd"/><path fill="#434343" d="m-0.005249344 -1.3700787l455.59055 0l0 485.25986l-455.59055 0z" fill-rule="evenodd"/><path fill="#ffe599" d="m104.879265 191.41206l116.07874 -75.6693l116.078735 75.6693l-116.078735 75.6693z" fill-rule="evenodd"/><path stroke="#e69138" stroke-width="2.0" stroke-linejoin="round" stroke-linecap="butt" d="m104.879265 191.41206l116.07874 -75.6693l116.078735 75.6693l-116.078735 75.6693z" fill-rule="evenodd"/><path fill="#000000" d="m184.15198 191.09518l-2.875 0.53125q-0.15625 -0.875 -0.671875 -1.3125q-0.515625 -0.4375 -1.328125 -0.4375q-1.09375 0 -1.75 0.765625q-0.65625 0.75 -0.65625 2.515625q0 1.96875 0.65625 2.78125q0.671875 0.8125 1.78125 0.8125q0.84375 0 1.375 -0.46875q0.53125 -0.46875 0.75 -1.625l2.859375 0.484375q-0.4375 1.984375 -1.71875 3.0q-1.265625 1.0 -3.390625 1.0q-2.4375 0 -3.875 -1.53125q-1.4375 -1.53125 -1.4375 -4.234375q0 -2.75 1.4375 -4.265625q1.453125 -1.53125 3.921875 -1.53125q2.015625 0 3.203125 0.875q1.203125 0.859375 1.71875 2.640625zm1.5491943 2.109375q0 -1.453125 0.71875 -2.8125q0.71875 -1.375 2.03125 -2.09375q1.3125 -0.71875 2.9375 -0.71875q2.515625 0 4.109375 1.640625q1.609375 1.625 1.609375 4.109375q0 2.515625 -1.625 4.171875q-1.609375 1.640625 -4.0625 1.640625q-1.53125 0 -2.90625 -0.6875q-1.375 -0.6875 -2.09375 -2.015625q-0.71875 -1.328125 -0.71875 -3.234375zm3.0 0.15625q0 1.640625 0.78125 2.515625q0.78125 0.875 1.921875 0.875q1.140625 0 1.921875 -0.875q0.78125 -0.875 0.78125 -2.53125q0 -1.625 -0.78125 -2.5q-0.78125 -0.875 -1.921875 -0.875q-1.140625 0 -1.921875 0.875q-0.78125 0.875 -0.78125 2.515625zm20.762451 5.53125l-2.921875 0l0 -5.640625q0 -1.796875 -0.1875 -2.3125q-0.1875 -0.53125 -0.609375 -0.828125q-0.421875 -0.296875 -1.015625 -0.296875q-0.765625 0 -1.375 0.421875q-0.59375 0.421875 -0.828125 1.109375q-0.21875 0.6875 -0.21875 2.53125l0 5.015625l-2.921875 0l0 -11.0625l2.71875 0l0 1.625q1.4375 -1.875 3.640625 -1.875q0.96875 0 1.765625 0.359375q0.8125 0.34375 1.21875 0.890625q0.40625 0.53125 0.5625 1.21875q0.171875 0.6875 0.171875 1.96875l0 6.875zm13.106201 0l-2.71875 0l0 -1.625q-0.671875 0.953125 -1.59375 1.421875q-0.921875 0.453125 -1.859375 0.453125q-1.90625 0 -3.265625 -1.53125q-1.359375 -1.546875 -1.359375 -4.296875q0 -2.8125 1.3125 -4.265625q1.328125 -1.46875 3.359375 -1.46875q1.84375 0 3.203125 1.546875l0 -5.5l2.921875 0l0 15.265625zm-7.8125 -5.765625q0 1.765625 0.5 2.5625q0.703125 1.140625 1.96875 1.140625q1.015625 0 1.71875 -0.859375q0.71875 -0.859375 0.71875 -2.5625q0 -1.90625 -0.6875 -2.75q-0.6875 -0.84375 -1.765625 -0.84375q-1.046875 0 -1.75 0.828125q-0.703125 0.828125 -0.703125 2.484375zm10.699951 -6.796875l0 -2.703125l2.9218903 0l0 2.703125l-2.9218903 0zm0 12.5625l0 -11.0625l2.9218903 0l0 11.0625l-2.9218903 0zm11.003784 -11.0625l0 2.328125l-2.0 0l0 4.46875q0 1.34375 0.046875 1.578125q0.0625 0.21875 0.265625 0.375q0.203125 0.140625 0.5 0.140625q0.40625 0 1.171875 -0.28125l0.25 2.265625q-1.015625 0.4375 -2.3125 0.4375q-0.796875 0 -1.4375 -0.265625q-0.625 -0.265625 -0.921875 -0.6875q-0.296875 -0.421875 -0.40625 -1.140625q-0.09375 -0.515625 -0.09375 -2.0625l0 -4.828125l-1.34375 0l0 -2.328125l1.34375 0l0 -2.1875l2.9375 -1.71875l0 3.90625l2.0 0zm2.0243073 -1.5l0 -2.703125l2.921875 0l0 2.703125l-2.921875 0zm0 12.5625l0 -11.0625l2.921875 0l0 11.0625l-2.921875 0zm5.253769 -5.6875q0 -1.453125 0.71875 -2.8125q0.71875 -1.375 2.03125 -2.09375q1.3125 -0.71875 2.9375 -0.71875q2.515625 0 4.109375 1.640625q1.609375 1.625 1.609375 4.109375q0 2.515625 -1.625 4.171875q-1.609375 1.640625 -4.0625 1.640625q-1.53125 0 -2.90625 -0.6875q-1.375 -0.6875 -2.09375 -2.015625q-0.71875 -1.328125 -0.71875 -3.234375zm3.0 0.15625q0 1.640625 0.78125 2.515625q0.78125 0.875 1.921875 0.875q1.140625 0 1.921875 -0.875q0.78125 -0.875 0.78125 -2.53125q0 -1.625 -0.78125 -2.5q-0.78125 -0.875 -1.921875 -0.875q-1.140625 0 -1.921875 0.875q-0.78125 0.875 -0.78125 2.515625zm20.762451 5.53125l-2.921875 0l0 -5.640625q0 -1.796875 -0.1875 -2.3125q-0.1875 -0.53125 -0.609375 -0.828125q-0.421875 -0.296875 -1.015625 -0.296875q-0.765625 0 -1.375 0.421875q-0.59375 0.421875 -0.828125 1.109375q-0.21875 0.6875 -0.21875 2.53125l0 5.015625l-2.921875 0l0 -11.0625l2.71875 0l0 1.625q1.4375 -1.875 3.640625 -1.875q0.96875 0 1.765625 0.359375q0.8125 0.34375 1.21875 0.890625q0.40625 0.53125 0.5625 1.21875q0.171875 0.6875 0.171875 1.96875l0 6.875z" fill-rule="nonzero"/><path fill="#000000" fill-opacity="0.0" d="m220.99527 63.901417l-0.03149414 51.842518" fill-rule="evenodd"/><path stroke="#cccccc" stroke-width="3.0" stroke-linejoin="round" stroke-linecap="butt" d="m220.99529 63.901417l-0.020568848 33.842525" fill-rule="evenodd"/><path fill="#cccccc" stroke="#cccccc" stroke-width="3.0" stroke-linecap="butt" d="m216.01953 97.74094l4.9469147 13.617302l4.9634705 -13.611282z" fill-rule="evenodd"/><path fill="#ffe599" d="m107.24675 289.79004l215.18611 0c3.248108 0 6.363159 1.2902832 8.659912 3.5870361c2.296753 2.296753 3.5870361 5.411804 3.5870361 8.659912l0 61.233368l-227.43306 0z" fill-rule="evenodd"/><path stroke="#e69138" stroke-width="2.0" stroke-linejoin="round" stroke-linecap="butt" d="m107.24675 289.79004l215.18611 0c3.248108 0 6.363159 1.2902832 8.659912 3.5870361c2.296753 2.296753 3.5870361 5.411804 3.5870361 8.659912l0 61.233368l-227.43306 0z" fill-rule="evenodd"/><path fill="#000000" d="m187.38779 330.49457l2.90625 0.484375q-0.546875 1.609375 -1.765625 2.453125q-1.21875 0.828125 -3.03125 0.828125q-2.890625 0 -4.28125 -1.890625q-1.09375 -1.5 -1.09375 -3.8125q0 -2.75 1.4375 -4.296875q1.4375 -1.5625 3.640625 -1.5625q2.46875 0 3.890625 1.640625q1.421875 1.625 1.359375 4.984375l-7.328125 0q0.03125 1.296875 0.703125 2.03125q0.6875 0.71875 1.703125 0.71875q0.6875 0 1.15625 -0.375q0.46875 -0.375 0.703125 -1.203125zm0.171875 -2.96875q-0.03125 -1.265625 -0.65625 -1.921875q-0.625 -0.671875 -1.53125 -0.671875q-0.953125 0 -1.578125 0.703125q-0.625 0.703125 -0.609375 1.890625l4.375 0zm3.8773193 6.484375l3.984375 -5.703125l-3.8125 -5.359375l3.5625 0l1.96875 3.046875l2.0625 -3.046875l3.421875 0l-3.734375 5.234375l4.078125 5.828125l-3.578125 0l-2.25 -3.421875l-2.28125 3.421875l-3.421875 0zm19.674194 -3.515625l2.90625 0.484375q-0.546875 1.609375 -1.765625 2.453125q-1.21875 0.828125 -3.03125 0.828125q-2.890625 0 -4.28125 -1.890625q-1.09375 -1.5 -1.09375 -3.8125q0 -2.75 1.4375 -4.296875q1.4375 -1.5625 3.640625 -1.5625q2.46875 0 3.890625 1.640625q1.421875 1.625 1.359375 4.984375l-7.328125 0q0.03125 1.296875 0.703125 2.03125q0.6875 0.71875 1.703125 0.71875q0.6875 0 1.15625 -0.375q0.46875 -0.375 0.703125 -1.203125zm0.171875 -2.96875q-0.03125 -1.265625 -0.65625 -1.921875q-0.625 -0.671875 -1.53125 -0.671875q-0.953125 0 -1.578125 0.703125q-0.625 0.703125 -0.609375 1.890625l4.375 0zm14.924194 -1.3125l-2.875 0.53125q-0.15625 -0.875 -0.671875 -1.3125q-0.515625 -0.4375 -1.328125 -0.4375q-1.09375 0 -1.75 0.765625q-0.65625 0.75 -0.65625 2.515625q0 1.96875 0.65625 2.78125q0.671875 0.8125 1.78125 0.8125q0.84375 0 1.375 -0.46875q0.53125 -0.46875 0.75 -1.625l2.859375 0.484375q-0.4375 1.984375 -1.71875 3.0q-1.265625 1.0 -3.390625 1.0q-2.4375 0 -3.875 -1.53125q-1.4375 -1.53125 -1.4375 -4.234375q0 -2.75 1.4375 -4.265625q1.453125 -1.53125 3.921875 -1.53125q2.015625 0 3.203125 0.875q1.203125 0.859375 1.71875 2.640625zm9.502319 7.796875l0 -1.65625q-0.609375 0.890625 -1.59375 1.40625q-0.984375 0.5 -2.078125 0.5q-1.109375 0 -2.0 -0.484375q-0.875 -0.5 -1.28125 -1.375q-0.390625 -0.890625 -0.390625 -2.453125l0 -7.0l2.921875 0l0 5.078125q0 2.34375 0.15625 2.875q0.171875 0.515625 0.59375 0.828125q0.4375 0.296875 1.09375 0.296875q0.75 0 1.34375 -0.40625q0.59375 -0.40625 0.8125 -1.015625q0.21875 -0.609375 0.21875 -2.984375l0 -4.671875l2.921875 0l0 11.0625l-2.71875 0zm10.824951 -11.0625l0 2.328125l-2.0 0l0 4.46875q0 1.34375 0.046875 1.578125q0.0625 0.21875 0.265625 0.375q0.203125 0.140625 0.5 0.140625q0.40625 0 1.171875 -0.28125l0.25 2.265625q-1.015625 0.4375 -2.3125 0.4375q-0.796875 0 -1.4375 -0.265625q-0.625 -0.265625 -0.921875 -0.6875q-0.296875 -0.421875 -0.40625 -1.140625q-0.09375 -0.515625 -0.09375 -2.0625l0 -4.828125l-1.34375 0l0 -2.328125l1.34375 0l0 -2.1875l2.9375 -1.71875l0 3.90625l2.0 0zm8.430557 7.546875l2.9062653 0.484375q-0.546875 1.609375 -1.765625 2.453125q-1.2187653 0.828125 -3.0312653 0.828125q-2.890625 0 -4.28125 -1.890625q-1.09375 -1.5 -1.09375 -3.8125q0 -2.75 1.4375 -4.296875q1.4375 -1.5625 3.640625 -1.5625q2.46875 0 3.8906403 1.640625q1.421875 1.625 1.359375 4.984375l-7.3281403 0q0.03125 1.296875 0.703125 2.03125q0.6875 0.71875 1.703125 0.71875q0.6875 0 1.15625 -0.375q0.46875 -0.375 0.703125 -1.203125zm0.171875 -2.96875q-0.03125 -1.265625 -0.65625 -1.921875q-0.625 -0.671875 -1.53125 -0.671875q-0.953125 0 -1.578125 0.703125q-0.625 0.703125 -0.609375 1.890625l4.375 0z" fill-rule="nonzero"/><path fill="#000000" fill-opacity="0.0" d="m104.879265 191.41206l-24.999992 0l0 135.11812l27.362198 0" fill-rule="evenodd"/><path stroke="#cccccc" stroke-width="3.0" stroke-linejoin="round" stroke-linecap="butt" d="m104.879265 191.41205l-24.999992 0l0 135.1181l9.362198 0" fill-rule="evenodd"/><path fill="#cccccc" stroke="#cccccc" stroke-width="3.0" stroke-linecap="butt" d="m89.24147 331.48535l13.614296 -4.9552l-13.614296 -4.9552z" fill-rule="evenodd"/><path fill="#000000" fill-opacity="0.0" d="m337.03674 191.41206l24.999939 0l0 243.14961l-57.346405 0" fill-rule="evenodd"/><path stroke="#ff0000" stroke-width="3.0" stroke-linejoin="round" stroke-linecap="butt" d="m337.03674 191.41205l24.999908 0l0 243.14963l-39.346375 0" fill-rule="evenodd"/><path fill="#ff0000" stroke="#ff0000" stroke-width="3.0" stroke-linecap="butt" d="m322.69028 429.60648l-13.614288 4.9552l13.614288 4.9552z" fill-rule="evenodd"/><path fill="#000000" fill-opacity="0.0" d="m402.03482 229.65617l0 109.70079l-39.02362 0l0 -109.70079z" fill-rule="evenodd"/><path fill="#e06666" d="m385.1173 240.18742l2.703125 0l0 2.921875l-2.703125 0l0 -2.921875zm-12.5625 0l11.0625 0l0 2.921875l-11.0625 0l0 -2.921875zm3.15625 4.894394l0.453125 2.9375q-0.859375 0.1875 -1.3125 0.75q-0.4375 0.578125 -0.4375 1.609375q0 1.140625 0.421875 1.71875q0.296875 0.375 0.78125 0.375q0.328125 0 0.546875 -0.203125q0.21875 -0.21875 0.390625 -0.984375q0.78125 -3.53125 1.421875 -4.484375q0.90625 -1.3125 2.5 -1.3125q1.4375 0 2.40625 1.125q0.984375 1.140625 0.984375 3.53125q0 2.265625 -0.75 3.375q-0.734375 1.109375 -2.171875 1.515625l-0.515625 -2.75q0.640625 -0.1875 0.984375 -0.6875q0.34375 -0.484375 0.34375 -1.40625q0 -1.15625 -0.3125 -1.65625q-0.234375 -0.328125 -0.59375 -0.328125q-0.3125 0 -0.53125 0.296875q-0.296875 0.390625 -0.828125 2.71875q-0.53125 2.34375 -1.296875 3.28125q-0.78125 0.90625 -2.1875 0.90625q-1.515625 0 -2.609375 -1.265625q-1.09375 -1.265625 -1.09375 -3.765625q0 -2.25 0.90625 -3.578125q0.921875 -1.3125 2.5 -1.71875zm7.90625 17.537323l0 1.625l0.828125 0q1.390625 0 2.078125 0.296875q0.6875 0.296875 1.125 1.09375q0.4375 0.796875 0.4375 2.015625q0 1.25 -0.375 2.453125l-2.046875 -0.40625q0.171875 -0.6875 0.171875 -1.34375q0 -0.625 -0.296875 -0.90625q-0.296875 -0.28125 -1.140625 -0.28125l-0.78125 0l0 2.1875l-2.296875 0l0 -2.1875l-8.765625 0l0 -2.921875l8.765625 0l0 -1.625l2.296875 0zm-3.375 10.5711975l0.484375 -2.65625q1.59375 0.453125 2.359375 1.546875q0.78125 1.09375 0.78125 3.25q0 1.953125 -0.46875 2.90625q-0.453125 0.96875 -1.171875 1.359375q-0.71875 0.390625 -2.625 0.390625l-3.40625 -0.03125q-1.46875 0 -2.15625 0.125q-0.6875 0.140625 -1.484375 0.53125l0 -2.890625q0.296875 -0.109375 0.859375 -0.28125q0.265625 -0.078125 0.34375 -0.109375q-0.71875 -0.75 -1.09375 -1.609375q-0.359375 -0.84375 -0.359375 -1.8125q0 -1.703125 0.921875 -2.6875q0.9375 -0.984375 2.34375 -0.984375q0.9375 0 1.671875 0.4375q0.734375 0.453125 1.125 1.25q0.390625 0.8125 0.6875 2.34375q0.390625 2.046875 0.71875 2.84375l0.296875 0q0.84375 0 1.203125 -0.421875q0.359375 -0.421875 0.359375 -1.578125q0 -0.78125 -0.3125 -1.21875q-0.3125 -0.4375 -1.078125 -0.703125zm-2.375 3.921875q-0.1875 -0.5625 -0.453125 -1.78125q-0.25 -1.21875 -0.5 -1.59375q-0.40625 -0.578125 -1.03125 -0.578125q-0.625 0 -1.078125 0.453125q-0.4375 0.46875 -0.4375 1.171875q0 0.796875 0.515625 1.515625q0.40625 0.53125 0.96875 0.6875q0.375 0.125 1.4375 0.125l0.578125 0zm-5.3125 5.7523193l15.265625 0l0 2.921875l-15.265625 0l0 -2.921875zm3.15625 4.8943787l0.453125 2.9375q-0.859375 0.1875 -1.3125 0.75q-0.4375 0.578125 -0.4375 1.609375q0 1.140625 0.421875 1.71875q0.296875 0.375 0.78125 0.375q0.328125 0 0.546875 -0.203125q0.21875 -0.21875 0.390625 -0.984375q0.78125 -3.53125 1.421875 -4.484375q0.90625 -1.3125 2.5 -1.3125q1.4375 0 2.40625 1.125q0.984375 1.140625 0.984375 3.53125q0 2.265625 -0.75 3.375q-0.734375 1.109375 -2.171875 1.515625l-0.515625 -2.75q0.640625 -0.1875 0.984375 -0.6875q0.34375 -0.484375 0.34375 -1.40625q0 -1.15625 -0.3125 -1.65625q-0.234375 -0.328125 -0.59375 -0.328125q-0.3125 0 -0.53125 0.296875q-0.296875 0.390625 -0.828125 2.71875q-0.53125 2.34375 -1.296875 3.28125q-0.78125 0.90625 -2.1875 0.90625q-1.515625 0 -2.609375 -1.265625q-1.09375 -1.265625 -1.09375 -3.765625q0 -2.25 0.90625 -3.578125q0.921875 -1.3125 2.5 -1.71875zm0.359375 19.299194l-0.484375 2.90625q-1.609375 -0.546875 -2.453125 -1.765625q-0.828125 -1.21875 -0.828125 -3.03125q0 -2.890625 1.890625 -4.28125q1.5 -1.09375 3.8125 -1.09375q2.75 0 4.296875 1.4375q1.5625 1.4375 1.5625 3.640625q0 2.46875 -1.640625 3.890625q-1.625 1.421875 -4.984375 1.359375l0 -7.328125q-1.296875 0.03125 -2.03125 0.703125q-0.71875 0.6875 -0.71875 1.703125q0 0.6875 0.375 1.15625q0.375 0.46875 1.203125 0.703125zm2.96875 0.171875q1.265625 -0.03125 1.921875 -0.65625q0.671875 -0.625 0.671875 -1.53125q0 -0.953125 -0.703125 -1.578125q-0.703125 -0.625 -1.890625 -0.609375l0 4.375z" fill-rule="nonzero"/><path fill="#000000" fill-opacity="0.0" d="m40.850937 300.28348l0 -100.8819l39.02362 0l0 100.8819z" fill-rule="evenodd"/><path fill="#6aa84f" d="m57.768436 289.75223l-2.703125 0l0 -2.921875l2.703125 0l0 2.921875zm12.562504 0l-11.062504 0l0 -2.921875l11.062504 0l0 2.921875zm-3.15625 -4.894409l-0.453125 -2.9375q0.859375 -0.1875 1.3125 -0.75q0.4375 -0.578125 0.4375 -1.609375q0 -1.140625 -0.421875 -1.71875q-0.296875 -0.375 -0.78125 -0.375q-0.328125 0 -0.546875 0.203125q-0.21875 0.21875 -0.390625 0.984375q-0.78125 3.53125 -1.421875 4.484375q-0.90625 1.3125 -2.5000038 1.3125q-1.4375 0 -2.40625 -1.125q-0.984375 -1.140625 -0.984375 -3.53125q0 -2.265625 0.75 -3.375q0.734375 -1.109375 2.171875 -1.515625l0.515625 2.75q-0.640625 0.1875 -0.984375 0.6875q-0.34375 0.484375 -0.34375 1.40625q0 1.15625 0.3125 1.65625q0.234375 0.328125 0.59375 0.328125q0.3125 0 0.53125 -0.296875q0.296875 -0.390625 0.828125 -2.71875q0.53125 -2.34375 1.2968788 -3.28125q0.78125 -0.90625 2.1875 -0.90625q1.515625 0 2.609375 1.265625q1.09375 1.265625 1.09375 3.765625q0 2.25 -0.90625 3.578125q-0.921875 1.3125 -2.5 1.71875zm-7.906254 -23.896698l2.328125 0l0 2.0l4.468754 0q1.34375 0 1.578125 -0.046875q0.21875 -0.0625 0.375 -0.265625q0.140625 -0.203125 0.140625 -0.5q0 -0.40625 -0.28125 -1.171875l2.265625 -0.25q0.4375 1.015625 0.4375 2.3125q0 0.796875 -0.265625 1.4375q-0.265625 0.625 -0.6875 0.921875q-0.421875 0.296875 -1.140625 0.40625q-0.515625 0.09375 -2.0625 0.09375l-4.828129 0l0 1.34375l-2.328125 0l0 -1.34375l-2.1875 0l-1.71875 -2.9375l3.90625 0l0 -2.0zm11.062504 -4.8211975l0 2.921875l-11.062504 0l0 -2.71875l1.578125 0q-1.125 -0.703125 -1.46875 -1.25q-0.359375 -0.5625 -0.359375 -1.265625q0 -1.0 0.5625 -1.9375l2.546875 0.90625q-0.484375 0.75 -0.484375 1.375q0 0.625 0.34375 1.046875q0.328125 0.421875 1.21875 0.671875q0.8906288 0.25 3.7031288 0.25l3.421875 0zm0 -12.784439l-1.65625 0q0.890625 0.609375 1.40625 1.59375q0.5 0.984375 0.5 2.078125q0 1.109375 -0.484375 2.0q-0.5 0.875 -1.375 1.28125q-0.890625 0.390625 -2.453125 0.390625l-7.000004 0l0 -2.921875l5.078129 0q2.34375 0 2.875 -0.15625q0.515625 -0.171875 0.828125 -0.59375q0.296875 -0.4375 0.296875 -1.09375q0 -0.75 -0.40625 -1.34375q-0.40625 -0.59375 -1.015625 -0.8125q-0.609375 -0.21875 -2.9843788 -0.21875l-4.671875 0l0 -2.921875l11.062504 0l0 2.71875zm-3.515625 -12.153076l0.484375 -2.90625q1.609375 0.546875 2.453125 1.765625q0.828125 1.21875 0.828125 3.03125q0 2.890625 -1.890625 4.28125q-1.5 1.09375 -3.8125 1.09375q-2.7500038 0 -4.296879 -1.4375q-1.5625 -1.4375 -1.5625 -3.640625q0 -2.46875 1.640625 -3.890625q1.625 -1.421875 4.984379 -1.359375l0 7.328125q1.296875 -0.03125 2.03125 -0.703125q0.71875 -0.6875 0.71875 -1.703125q0 -0.6875 -0.375 -1.15625q-0.375 -0.46875 -1.203125 -0.703125zm-2.9687538 -0.171875q-1.265625 0.03125 -1.921875 0.65625q-0.671875 0.625 -0.671875 1.53125q0 0.953125 0.703125 1.578125q0.703125 0.625 1.890625 0.609375l0 -4.375z" fill-rule="nonzero"/><path fill="#000000" fill-opacity="0.0" d="m220.96329 363.27036l0 23.72705l0.06298828 0l0 23.737488" fill-rule="evenodd"/><path stroke="#cccccc" stroke-width="3.0" stroke-linejoin="round" stroke-linecap="butt" d="m220.9633 363.27036l0 23.72705l0.06298828 0l0 5.737488" fill-rule="evenodd"/><path fill="#cccccc" stroke="#cccccc" stroke-width="3.0" stroke-linecap="butt" d="m216.07109 392.7349l4.9552 13.614319l4.9552 -13.614319z" fill-rule="evenodd"/><path fill="#c9daf8" d="m164.2025 16.228346l113.585556 0l0 0c14.880005 0 26.942657 10.671982 26.942657 23.836535c0 13.164558 -12.062653 23.836536 -26.942657 23.836536l-113.585556 0l0 0c-14.88002 0 -26.942657 -10.671978 -26.942657 -23.836536c0 -13.164553 12.062637 -23.836535 26.942657 -23.836535z" fill-rule="evenodd"/><path stroke="#76a5af" stroke-width="2.0" stroke-linejoin="round" stroke-linecap="butt" d="m164.2025 16.228346l113.585556 0l0 0c14.880005 0 26.942657 10.671982 26.942657 23.836535c0 13.164558 -12.062653 23.836536 -26.942657 23.836536l-113.585556 0l0 0c-14.88002 0 -26.942657 -10.671978 -26.942657 -23.836536c0 -13.164553 12.062637 -23.836535 26.942657 -23.836535z" fill-rule="evenodd"/><path fill="#000000" d="m201.21425 44.219254l2.5625 -0.390625q0.171875 0.75 0.671875 1.140625q0.5 0.390625 1.40625 0.390625q0.984375 0 1.484375 -0.375q0.34375 -0.25 0.34375 -0.671875q0 -0.296875 -0.1875 -0.484375q-0.1875 -0.1875 -0.859375 -0.34375q-3.09375 -0.6875 -3.921875 -1.25q-1.140625 -0.78125 -1.140625 -2.171875q0 -1.265625 0.984375 -2.109375q1.0 -0.859375 3.078125 -0.859375q1.984375 0 2.953125 0.65625q0.96875 0.640625 1.328125 1.90625l-2.40625 0.4375q-0.15625 -0.5625 -0.59375 -0.859375q-0.421875 -0.296875 -1.234375 -0.296875q-1.0 0 -1.4375 0.28125q-0.296875 0.203125 -0.296875 0.515625q0 0.265625 0.25 0.46875q0.34375 0.25 2.390625 0.71875q2.046875 0.453125 2.859375 1.140625q0.796875 0.671875 0.796875 1.890625q0 1.34375 -1.109375 2.296875q-1.109375 0.953125 -3.28125 0.953125q-1.984375 0 -3.140625 -0.796875q-1.140625 -0.8125 -1.5 -2.1875zm15.719467 -6.90625l0 2.03125l-1.75 0l0 3.90625q0 1.1875 0.046875 1.390625q0.046875 0.1875 0.21875 0.3125q0.1875 0.125 0.4375 0.125q0.359375 0 1.03125 -0.25l0.21875 2.0q-0.890625 0.375 -2.015625 0.375q-0.703125 0 -1.265625 -0.234375q-0.546875 -0.234375 -0.8125 -0.59375q-0.25 -0.375 -0.34375 -1.0q-0.09375 -0.453125 -0.09375 -1.8125l0 -4.21875l-1.171875 0l0 -2.03125l1.171875 0l0 -1.921875l2.578125 -1.5l0 3.421875l1.75 0zm3.681427 2.953125l-2.328125 -0.421875q0.40625 -1.40625 1.359375 -2.078125q0.953125 -0.671875 2.84375 -0.671875q1.703125 0 2.546875 0.40625q0.84375 0.40625 1.171875 1.03125q0.34375 0.625 0.34375 2.28125l-0.015625 3.0q0 1.265625 0.109375 1.875q0.125 0.609375 0.46875 1.296875l-2.53125 0q-0.109375 -0.25 -0.25 -0.75q-0.0625 -0.234375 -0.09375 -0.3125q-0.65625 0.640625 -1.40625 0.96875q-0.734375 0.3125 -1.59375 0.3125q-1.484375 0 -2.34375 -0.8125q-0.859375 -0.8125 -0.859375 -2.046875q0 -0.828125 0.390625 -1.46875q0.390625 -0.640625 1.09375 -0.96875q0.703125 -0.34375 2.03125 -0.609375q1.796875 -0.328125 2.484375 -0.625l0 -0.25q0 -0.75 -0.359375 -1.0625q-0.359375 -0.3125 -1.375 -0.3125q-0.6875 0 -1.078125 0.28125q-0.375 0.265625 -0.609375 0.9375zm3.421875 2.078125q-0.484375 0.15625 -1.5625 0.390625q-1.0625 0.21875 -1.390625 0.4375q-0.5 0.359375 -0.5 0.90625q0 0.53125 0.40625 0.9375q0.40625 0.390625 1.015625 0.390625q0.703125 0 1.328125 -0.46875q0.46875 -0.34375 0.609375 -0.84375q0.09375 -0.328125 0.09375 -1.25l0 -0.5zm7.500717 4.640625l-2.5625 0l0 -9.671875l2.375 0l0 1.375q0.609375 -0.984375 1.09375 -1.28125q0.484375 -0.3125 1.109375 -0.3125q0.875 0 1.6875 0.484375l-0.796875 2.234375q-0.640625 -0.421875 -1.203125 -0.421875q-0.53125 0 -0.90625 0.296875q-0.375 0.296875 -0.59375 1.078125q-0.203125 0.765625 -0.203125 3.234375l0 2.984375zm9.244644 -9.671875l0 2.03125l-1.75 0l0 3.90625q0 1.1875 0.046875 1.390625q0.046875 0.1875 0.21875 0.3125q0.1875 0.125 0.4375 0.125q0.359375 0 1.03125 -0.25l0.21875 2.0q-0.890625 0.375 -2.015625 0.375q-0.703125 0 -1.265625 -0.234375q-0.546875 -0.234375 -0.8125 -0.59375q-0.25 -0.375 -0.34375 -1.0q-0.09375 -0.453125 -0.09375 -1.8125l0 -4.21875l-1.171875 0l0 -2.03125l1.171875 0l0 -1.921875l2.578125 -1.5l0 3.421875l1.75 0z" fill-rule="nonzero"/><path fill="#c9daf8" d="m164.16574 410.7244l113.58557 0l0 0c14.880005 0 26.942657 10.671997 26.942657 23.836548c0 13.164551 -12.062653 23.836548 -26.942657 23.836548l-113.58557 0l0 0c-14.880005 0 -26.942642 -10.671997 -26.942642 -23.836548c0 -13.164551 12.062637 -23.836548 26.942642 -23.836548z" fill-rule="evenodd"/><path stroke="#76a5af" stroke-width="2.0" stroke-linejoin="round" stroke-linecap="butt" d="m164.16574 410.7244l113.58557 0l0 0c14.880005 0 26.942657 10.671997 26.942657 23.836548c0 13.164551 -12.062653 23.836548 -26.942657 23.836548l-113.58557 0l0 0c-14.880005 0 -26.942642 -10.671997 -26.942642 -23.836548c0 -13.164551 12.062637 -23.836548 26.942642 -23.836548z" fill-rule="evenodd"/><path fill="#000000" d="m191.87411 434.66846l-2.53125 0.453125q-0.125 -0.75 -0.578125 -1.125q-0.453125 -0.390625 -1.171875 -0.390625q-0.953125 0 -1.53125 0.65625q-0.5625 0.65625 -0.5625 2.203125q0 1.734375 0.578125 2.4375q0.578125 0.703125 1.546875 0.703125q0.734375 0 1.203125 -0.40625q0.46875 -0.421875 0.65625 -1.421875l2.515625 0.421875q-0.390625 1.734375 -1.515625 2.625q-1.109375 0.875 -2.96875 0.875q-2.125 0 -3.390625 -1.328125q-1.25 -1.34375 -1.25 -3.71875q0 -2.390625 1.265625 -3.71875q1.265625 -1.34375 3.421875 -1.34375q1.765625 0 2.796875 0.765625q1.046875 0.75 1.515625 2.3125zm1.3444672 1.84375q0 -1.28125 0.625 -2.46875q0.625 -1.203125 1.78125 -1.828125q1.15625 -0.625 2.578125 -0.625q2.1875 0 3.59375 1.421875q1.40625 1.421875 1.40625 3.609375q0 2.1875 -1.421875 3.640625q-1.421875 1.4375 -3.5625 1.4375q-1.328125 0 -2.546875 -0.59375q-1.203125 -0.609375 -1.828125 -1.765625q-0.625 -1.171875 -0.625 -2.828125zm2.625 0.125q0 1.453125 0.671875 2.21875q0.6875 0.75 1.6875 0.75q1.0 0 1.671875 -0.75q0.6875 -0.765625 0.6875 -2.234375q0 -1.421875 -0.6875 -2.1875q-0.671875 -0.765625 -1.671875 -0.765625q-1.0 0 -1.6875 0.765625q-0.671875 0.765625 -0.671875 2.203125zm18.161606 4.84375l-2.5625 0l0 -4.9375q0 -1.5625 -0.171875 -2.015625q-0.15625 -0.46875 -0.53125 -0.71875q-0.359375 -0.265625 -0.875 -0.265625q-0.671875 0 -1.203125 0.375q-0.53125 0.359375 -0.734375 0.96875q-0.1875 0.59375 -0.1875 2.21875l0 4.375l-2.546875 0l0 -9.671875l2.375 0l0 1.421875q1.265625 -1.640625 3.1875 -1.640625q0.84375 0 1.546875 0.3125q0.703125 0.296875 1.0625 0.78125q0.359375 0.46875 0.5 1.078125q0.140625 0.59375 0.140625 1.703125l0 6.015625zm7.036606 -9.671875l0 2.03125l-1.75 0l0 3.90625q0 1.1875 0.046875 1.390625q0.046875 0.1875 0.21875 0.3125q0.1875 0.125 0.4375 0.125q0.359375 0 1.03125 -0.25l0.21875 2.0q-0.890625 0.375 -2.015625 0.375q-0.703125 0 -1.265625 -0.234375q-0.546875 -0.234375 -0.8125 -0.59375q-0.25 -0.375 -0.34375 -1.0q-0.09375 -0.453125 -0.09375 -1.8125l0 -4.21875l-1.171875 0l0 -2.03125l1.171875 0l0 -1.921875l2.578125 -1.5l0 3.421875l1.75 0zm1.775177 -1.3125l0 -2.375l2.5625 0l0 2.375l-2.5625 0zm0 10.984375l0 -9.671875l2.5625 0l0 9.671875l-2.5625 0zm13.980179 0l-2.5625 0l0 -4.9375q0 -1.5625 -0.171875 -2.015625q-0.15625 -0.46875 -0.53125 -0.71875q-0.359375 -0.265625 -0.875 -0.265625q-0.671875 0 -1.203125 0.375q-0.53125 0.359375 -0.734375 0.96875q-0.1875 0.59375 -0.1875 2.21875l0 4.375l-2.546875 0l0 -9.671875l2.375 0l0 1.421875q1.265625 -1.640625 3.1875 -1.640625q0.84375 0 1.546875 0.3125q0.703125 0.296875 1.0625 0.78125q0.359375 0.46875 0.5 1.078125q0.140625 0.59375 0.140625 1.703125l0 6.015625zm8.958481 0l0 -1.453125q-0.53125 0.78125 -1.390625 1.234375q-0.859375 0.4375 -1.8125 0.4375q-0.96875 0 -1.75 -0.421875q-0.765625 -0.4375 -1.125 -1.203125q-0.34375 -0.78125 -0.34375 -2.140625l0 -6.125l2.5625 0l0 4.4375q0 2.046875 0.140625 2.515625q0.140625 0.453125 0.515625 0.71875q0.375 0.265625 0.953125 0.265625q0.65625 0 1.171875 -0.359375q0.515625 -0.359375 0.703125 -0.890625q0.203125 -0.53125 0.203125 -2.609375l0 -4.078125l2.546875 0l0 9.671875l-2.375 0zm10.630356 -3.078125l2.546875 0.421875q-0.484375 1.40625 -1.546875 2.140625q-1.0625 0.734375 -2.65625 0.734375q-2.515625 0 -3.734375 -1.65625q-0.953125 -1.3125 -0.953125 -3.328125q0 -2.40625 1.25 -3.765625q1.265625 -1.359375 3.1875 -1.359375q2.15625 0 3.40625 1.421875q1.25 1.421875 1.1875 4.375l-6.40625 0q0.03125 1.140625 0.609375 1.78125q0.59375 0.625 1.484375 0.625q0.59375 0 1.0 -0.328125q0.421875 -0.328125 0.625 -1.0625zm0.15625 -2.59375q-0.03125 -1.109375 -0.578125 -1.6875q-0.546875 -0.578125 -1.328125 -0.578125q-0.84375 0 -1.390625 0.609375q-0.546875 0.609375 -0.53125 1.65625l3.828125 0z" fill-rule="nonzero"/></g></svg>