<svg version="1.1" viewBox="0.0 0.0 442.7795275590551 548.0209973753281" fill="none" stroke="none" stroke-linecap="square" stroke-miterlimit="10" xmlns:xlink="http://www.w3.org/1999/xlink" xmlns="http://www.w3.org/2000/svg"><clipPath id="p.0"><path d="m0 0l442.77954 0l0 548.021l-442.77954 0l0 -548.021z" clip-rule="nonzero"/></clipPath><g clip-path="url(#p.0)"><path fill="#000000" fill-opacity="0.0" d="m0 0l442.77954 0l0 548.021l-442.77954 0z" fill-rule="evenodd"/><path fill="#434343" d="m-1.9711286 0.19685039l442.77167 0l0 548.0315l-442.77167 0z" fill-rule="evenodd"/><path fill="#f1c232" d="m89.3937 214.29527l256.0522 0c3.9623108 0 7.7623596 1.5740204 10.564117 4.3758087c2.8017883 2.801773 4.375824 6.6018066 4.375824 10.564133l0 74.69786l-270.99213 0z" fill-rule="evenodd"/><path stroke="#e69138" stroke-width="2.0" stroke-linejoin="round" stroke-linecap="butt" d="m89.3937 214.29527l256.0522 0c3.9623108 0 7.7623596 1.5740204 10.564117 4.3758087c2.8017883 2.801773 4.375824 6.6018066 4.375824 10.564133l0 74.69786l-270.99213 0z" fill-rule="evenodd"/><path fill="#000000" d="m151.4859 266.03418l0 -13.35939l5.6875 0q2.140625 0 3.109375 0.359375q0.96875 0.359375 1.546875 1.28125q0.578125 0.921875 0.578125 2.1093903q0 1.5 -0.890625 2.484375q-0.875 0.96875 -2.625 1.234375q0.875 0.5 1.4375 1.125q0.578125 0.609375 1.53125 2.15625l1.640625 2.609375l-3.234375 0l-1.9375 -2.90625q-1.046875 -1.5625 -1.4375 -1.96875q-0.375 -0.40625 -0.8125 -0.546875q-0.421875 -0.15625 -1.34375 -0.15625l-0.546875 0l0 5.578125l-2.703125 0zm2.703125 -7.703125l2.0 0q1.9375 0 2.421875 -0.15625q0.484375 -0.171875 0.75 -0.578125q0.28125 -0.40625 0.28125 -1.0q0 -0.67189026 -0.359375 -1.0781403q-0.359375 -0.421875 -1.015625 -0.53125q-0.328125 -0.046875 -1.96875 -0.046875l-2.109375 0l0 3.3906403zm16.347946 4.625l2.546875 0.421875q-0.484375 1.40625 -1.546875 2.140625q-1.0625 0.734375 -2.65625 0.734375q-2.515625 0 -3.734375 -1.65625q-0.953125 -1.3125 -0.953125 -3.328125q0 -2.40625 1.25 -3.765625q1.265625 -1.359375 3.1875 -1.359375q2.15625 0 3.40625 1.421875q1.25 1.421875 1.1875 4.375l-6.40625 0q0.03125 1.140625 0.609375 1.78125q0.59375 0.625 1.484375 0.625q0.59375 0 1.0 -0.328125q0.421875 -0.328125 0.625 -1.0625zm0.15625 -2.59375q-0.03125 -1.109375 -0.578125 -1.6875q-0.546875 -0.578125 -1.328125 -0.578125q-0.84375 0 -1.390625 0.609375q-0.546875 0.609375 -0.53125 1.65625l3.828125 0zm4.547592 -4.0l2.390625 0l0 1.421875q0.46875 -0.734375 1.25 -1.1875q0.796875 -0.453125 1.765625 -0.453125q1.6875 0 2.859375 1.328125q1.171875 1.3125 1.171875 3.671875q0 2.421875 -1.1875 3.765625q-1.1875 1.34375 -2.859375 1.34375q-0.8125 0 -1.46875 -0.3125q-0.640625 -0.328125 -1.359375 -1.09375l0 4.875l-2.5625 0l0 -13.359375zm2.53125 4.671875q0 1.625 0.640625 2.40625q0.65625 0.78125 1.578125 0.78125q0.90625 0 1.484375 -0.71875q0.59375 -0.71875 0.59375 -2.34375q0 -1.515625 -0.609375 -2.25q-0.609375 -0.75 -1.515625 -0.75q-0.9375 0 -1.5625 0.734375q-0.609375 0.71875 -0.609375 2.140625zm14.536606 1.921875l2.546875 0.421875q-0.484375 1.40625 -1.546875 2.140625q-1.0625 0.734375 -2.65625 0.734375q-2.515625 0 -3.734375 -1.65625q-0.953125 -1.3125 -0.953125 -3.328125q0 -2.40625 1.25 -3.765625q1.265625 -1.359375 3.1875 -1.359375q2.15625 0 3.40625 1.421875q1.25 1.421875 1.1875 4.375l-6.40625 0q0.03125 1.140625 0.609375 1.78125q0.59375 0.625 1.484375 0.625q0.59375 0 1.0 -0.328125q0.421875 -0.328125 0.625 -1.0625zm0.15625 -2.59375q-0.03125 -1.109375 -0.578125 -1.6875q-0.546875 -0.578125 -1.328125 -0.578125q-0.84375 0 -1.390625 0.609375q-0.546875 0.609375 -0.53125 1.65625l3.828125 0zm9.063217 -4.0l0 2.03125l-1.75 0l0 3.90625q0 1.1875 0.046875 1.390625q0.046875 0.1875 0.21875 0.3125q0.1875 0.125 0.4375 0.125q0.359375 0 1.03125 -0.25l0.21875 2.0q-0.890625 0.375 -2.015625 0.375q-0.703125 0 -1.265625 -0.234375q-0.546875 -0.234375 -0.8125 -0.59375q-0.25 -0.375 -0.34375 -1.0q-0.09375 -0.453125 -0.09375 -1.8125l0 -4.21875l-1.171875 0l0 -2.03125l1.171875 0l0 -1.9218903l2.578125 -1.5l0 3.4218903l1.75 0zm1.775177 -1.3125153l0 -2.375l2.5625 0l0 2.375l-2.5625 0zm0 10.98439l0 -9.671875l2.5625 0l0 9.671875l-2.5625 0zm9.620804 -9.671875l0 2.03125l-1.75 0l0 3.90625q0 1.1875 0.046875 1.390625q0.046875 0.1875 0.21875 0.3125q0.1875 0.125 0.4375 0.125q0.359375 0 1.03125 -0.25l0.21875 2.0q-0.890625 0.375 -2.015625 0.375q-0.703125 0 -1.265625 -0.234375q-0.546875 -0.234375 -0.8125 -0.59375q-0.25 -0.375 -0.34375 -1.0q-0.09375 -0.453125 -0.09375 -1.8125l0 -4.21875l-1.171875 0l0 -2.03125l1.171875 0l0 -1.9218903l2.578125 -1.5l0 3.4218903l1.75 0zm1.775177 -1.3125153l0 -2.375l2.5625 0l0 2.375l-2.5625 0zm0 10.98439l0 -9.671875l2.5625 0l0 9.671875l-2.5625 0zm7.839554 0l-3.90625 -9.671875l2.6875 0l1.828125 4.9375l0.53125 1.640625q0.203125 -0.625 0.265625 -0.828125q0.125 -0.40625 0.265625 -0.8125l1.84375 -4.9375l2.625 0l-3.84375 9.671875l-2.296875 0zm13.313217 -3.078125l2.546875 0.421875q-0.484375 1.40625 -1.546875 2.140625q-1.0625 0.734375 -2.65625 0.734375q-2.515625 0 -3.734375 -1.65625q-0.953125 -1.3125 -0.953125 -3.328125q0 -2.40625 1.25 -3.765625q1.265625 -1.359375 3.1875 -1.359375q2.15625 0 3.40625 1.421875q1.25 1.421875 1.1875 4.375l-6.40625 0q0.03125 1.140625 0.609375 1.78125q0.59375 0.625 1.484375 0.625q0.59375 0 1.0 -0.328125q0.421875 -0.328125 0.625 -1.0625zm0.15625 -2.59375q-0.03125 -1.109375 -0.578125 -1.6875q-0.546875 -0.578125 -1.328125 -0.578125q-0.84375 0 -1.390625 0.609375q-0.546875 0.609375 -0.53125 1.65625l3.828125 0zm9.824646 -7.6875153l5.34375 0q1.59375 0 2.359375 0.140625q0.78125 0.125 1.390625 0.546875q0.625 0.421875 1.03125 1.125q0.40623474 0.6875 0.40623474 1.5468903q0 0.9375 -0.49998474 1.734375q-0.5 0.78125 -1.375 1.171875q1.21875 0.359375 1.8749847 1.21875q0.65625 0.84375 0.65625 2.0q0 0.921875 -0.421875 1.78125q-0.421875 0.859375 -1.1562347 1.375q-0.734375 0.515625 -1.796875 0.625q-0.6875 0.078125 -3.265625 0.09375l-4.546875 0l0 -13.35939zm2.703125 2.234375l0 3.0781403l1.765625 0q1.578125 0 1.953125 -0.046875q0.703125 -0.078125 1.09375 -0.46875q0.40625 -0.40625 0.40625 -1.046875q0 -0.62501526 -0.34375 -1.0000153q-0.34375 -0.390625 -1.015625 -0.484375q-0.40625 -0.03125 -2.3125 -0.03125l-1.546875 0zm0 5.2968903l0 3.578125l2.5 0q1.453125 0 1.84375 -0.078125q0.609375 -0.109375 0.984375 -0.53125q0.375 -0.421875 0.375 -1.140625q0 -0.59375 -0.296875 -1.015625q-0.28125 -0.421875 -0.84375 -0.609375q-0.546875 -0.203125 -2.390625 -0.203125l-2.171875 0zm10.754196 5.828125l0 -13.35939l2.5625 0l0 13.35939l-2.5625 0zm4.5895386 -4.96875q0 -1.28125 0.625 -2.46875q0.625 -1.203125 1.78125 -1.828125q1.15625 -0.625 2.578125 -0.625q2.1875 0 3.59375 1.421875q1.40625 1.421875 1.40625 3.609375q0 2.1875 -1.421875 3.640625q-1.421875 1.4375 -3.5625 1.4375q-1.328125 0 -2.546875 -0.59375q-1.203125 -0.609375 -1.828125 -1.765625q-0.625 -1.171875 -0.625 -2.828125zm2.625 0.125q0 1.453125 0.671875 2.21875q0.6875 0.75 1.6875 0.75q1.0 0 1.671875 -0.75q0.6875 -0.765625 0.6875 -2.234375q0 -1.421875 -0.6875 -2.1875q-0.671875 -0.765625 -1.671875 -0.765625q-1.0 0 -1.6875 0.765625q-0.671875 0.765625 -0.671875 2.203125zm17.802246 -1.96875l-2.53125 0.453125q-0.125 -0.75 -0.578125 -1.125q-0.453125 -0.390625 -1.171875 -0.390625q-0.953125 0 -1.53125 0.65625q-0.5625 0.65625 -0.5625 2.203125q0 1.734375 0.578125 2.4375q0.578125 0.703125 1.546875 0.703125q0.734375 0 1.203125 -0.40625q0.46875 -0.421875 0.65625 -1.421875l2.515625 0.421875q-0.390625 1.734375 -1.515625 2.625q-1.109375 0.875 -2.96875 0.875q-2.125 0 -3.390625 -1.328125q-1.25 -1.34375 -1.25 -3.71875q0 -2.390625 1.265625 -3.71875q1.265625 -1.34375 3.421875 -1.34375q1.765625 0 2.796875 0.765625q1.046875 0.75 1.515625 2.3125zm1.8444519 6.8125l0 -13.35939l2.5625 0l0 7.0937653l3.0 -3.40625l3.140625 0l-3.296875 3.53125l3.53125 6.140625l-2.75 0l-2.4375 -4.34375l-1.1875 1.25l0 3.09375l-2.5625 0z" fill-rule="nonzero"/><path fill="#000000" fill-opacity="0.0" d="m224.88971 70.04199l0 55.40158" fill-rule="evenodd"/><path stroke="#cccccc" stroke-width="4.0" stroke-linejoin="round" stroke-linecap="butt" d="m224.88971 70.04199l0 31.40158" fill-rule="evenodd"/><path fill="#cccccc" stroke="#cccccc" stroke-width="4.0" stroke-linecap="butt" d="m218.28278 101.44357l6.6069336 18.15239l6.6069183 -18.15239z" fill-rule="evenodd"/><path fill="#434343" d="m42.265106 364.3701l11.521595 -5.9585876c0.20935059 0.108428955 0.3681717 0.18728638 0.4764557 0.23657227c0.77243805 0.37457275 1.256115 0.6456299 1.4510269 0.8132019c0.2598877 0.22671509 0.46202087 0.5174866 0.60639954 0.872345c0.14438248 0.3548584 0.21657181 0.8280029 0.21657181 1.4194031c0 0.43371582 -0.057750702 0.94137573 -0.17325592 1.5229187l0 0l1.8300285 -0.29571533c0.15881729 -0.63082886 0.23822784 -1.2025452 0.23822784 -1.7151184c0 -0.84768677 -0.15039444 -1.5771179 -0.45119095 -2.188263c-0.29838562 -0.611145 -0.76882935 -1.1532593 -1.4113235 -1.6264038c-0.4764557 -0.3548584 -1.3463516 -0.8526306 -2.609684 -1.4933472l-11.694851 -5.973358l0 2.661377l6.702881 3.3563232c0.8518486 0.42385864 1.7253532 0.7885742 2.620514 1.0941467c-0.93125534 0.33514404 -1.8191986 0.7146301 -2.663826 1.1384888l-6.659569 3.2676086z" fill-rule="evenodd"/><path fill="#434343" d="m43.60785 341.24545c0 -1.3504028 0.3753891 -2.449463 1.1261711 -3.2971802c0.4836731 -0.55200195 1.2091904 -0.887146 2.1765404 -1.0054321l0 8.767853c-1.0034485 -0.0887146 -1.80476 -0.54870605 -2.403942 -1.3799744c-0.5991783 -0.8345642 -0.8987694 -1.8630066 -0.8987694 -3.085266zm-1.6026268 0.029571533c0 2.1685486 0.5342064 3.932953 1.6026268 5.2932434c1.0684166 1.36026 2.5699806 2.0404053 4.5046844 2.0404053c1.8697319 0 3.323166 -0.67193604 4.360302 -2.0157776c1.034729 -1.3471375 1.5520935 -3.1690369 1.5520935 -5.4657288c0 -1.8235474 -0.3248558 -3.3218079 -0.9745712 -4.494812c-0.6497154 -1.1729736 -1.5629234 -1.9763489 -2.7396278 -2.4100342l-0.24905777 2.7500916c0.82297134 0.4041443 1.4221535 0.9512024 1.7975426 1.6412048c0.3753929 0.69000244 0.56308746 1.5229187 0.56308746 2.4987793c0 1.3109741 -0.33568573 2.4050903 -1.0070572 3.2823792c-0.67137146 0.8772888 -1.6387253 1.3652039 -2.9020576 1.4637756l0 -11.710175c-0.23100662 -0.009857178 -0.40426636 -0.014770508 -0.5197716 -0.014770508c-1.8986053 0 -3.371292 0.66534424 -4.4180527 1.9960327c-1.0467606 1.330719 -1.5701408 3.0458374 -1.5701408 5.1453857z" fill-rule="evenodd"/><path fill="#434343" d="m42.005222 325.7206c0 0.81814575 0.07820511 1.5853271 0.23461533 2.3016052c0.15400696 0.7130127 0.34290695 1.2764893 0.56669617 1.6904907c0.28876114 0.55200195 0.6521225 0.98898315 1.0900764 1.3110046c0.4355507 0.31869507 0.9095993 0.47805786 1.4221497 0.47805786c0.56308746 0 1.0780449 -0.19384766 1.5448761 -0.5815735c0.46442413 -0.3909912 0.8289871 -0.9627075 1.0936852 -1.7151184c0.26229095 -0.7557068 0.5739136 -2.1094055 0.93486786 -4.061096c0.2671051 -1.4490051 0.4872856 -2.355835 0.66054153 -2.7205505c0.25266647 -0.5224304 0.5991821 -0.7836304 1.0395432 -0.7836304c0.49089432 0 0.9192238 0.29571533 1.2849884 0.8871155c0.36335754 0.59143066 0.54504013 1.498291 0.54504013 2.7205505c0 1.2124329 -0.2057457 2.1570435 -0.61722946 2.8338928c-0.41148376 0.673584 -1.0034485 1.0842896 -1.7758865 1.2321472l0.30320358 2.631836c1.2200165 -0.29571533 2.1404457 -0.97750854 2.7612839 -2.0453491c0.62083817 -1.0711365 0.93125534 -2.626892 0.93125534 -4.6672974c0 -1.2321472 -0.15641403 -2.3361206 -0.46923828 -3.3119812c-0.31523132 -0.9758606 -0.75920486 -1.7217102 -1.331913 -2.2375488c-0.575119 -0.5191345 -1.1875343 -0.77871704 -1.837246 -0.77871704c-0.66415405 0 -1.2200203 0.21194458 -1.6675987 0.6358032c-0.44758224 0.42382812 -0.7880821 1.0086975 -1.0214958 1.7545471c-0.23582458 0.7425537 -0.5378189 2.0551758 -0.9059906 3.9378967c-0.25988388 1.301117 -0.4259224 2.0847473 -0.49811554 2.350891c-0.13716125 0.46328735 -0.31041718 0.8033447 -0.51976776 1.0202026c-0.20213318 0.21685791 -0.4295349 0.32528687 -0.6822014 0.32528687c-0.39704895 0 -0.7435608 -0.26119995 -1.0395432 -0.7836304c-0.29597855 -0.5224304 -0.44396973 -1.3947754 -0.44396973 -2.6170654c0 -1.0349731 0.16603851 -1.8350525 0.49811172 -2.400177c0.33207703 -0.5684204 0.7940979 -0.9117737 1.3860588 -1.0300598l-0.2598877 -2.6022644c-0.7435608 0.16757202 -1.3367233 0.47314453 -1.7794914 0.9167175c-0.44517517 0.443573 -0.7977066 1.131897 -1.0575905 2.065033c-0.2598877 0.9298706 -0.38982773 2.0108337 -0.38982773 3.242981z" fill-rule="evenodd"/><path fill="#cfe2f3" d="m184.69641 24.687664l80.3866 0l0 0c10.530853 0 19.06781 10.152912 19.06781 22.677166c0 12.524254 -8.536957 22.677162 -19.06781 22.677162l-80.3866 0l0 0c-10.530853 0 -19.067795 -10.152908 -19.067795 -22.677162c0 -12.524254 8.536942 -22.677166 19.067795 -22.677166z" fill-rule="evenodd"/><path stroke="#4a86e8" stroke-width="2.0" stroke-linejoin="round" stroke-linecap="butt" d="m184.69641 24.687664l80.3866 0l0 0c10.530853 0 19.06781 10.152912 19.06781 22.677166c0 12.524254 -8.536957 22.677162 -19.06781 22.677162l-80.3866 0l0 0c-10.530853 0 -19.067795 -10.152908 -19.067795 -22.677162c0 -12.524254 8.536942 -22.677166 19.067795 -22.677166z" fill-rule="evenodd"/><path fill="#000000" d="m195.16359 49.94108l2.625 -0.25q0.234375 1.3125 0.953125 1.9375q0.734375 0.609375 1.96875 0.609375q1.296875 0 1.953125 -0.546875q0.671875 -0.546875 0.671875 -1.28125q0 -0.484375 -0.28125 -0.8125q-0.28125 -0.328125 -0.96875 -0.578125q-0.484375 -0.15625 -2.171875 -0.578125q-2.15625 -0.546875 -3.03125 -1.328125q-1.234375 -1.09375 -1.234375 -2.6875q0 -1.015625 0.578125 -1.90625q0.578125 -0.890625 1.65625 -1.34375q1.09375 -0.46875 2.640625 -0.46875q2.515625 0 3.78125 1.109375q1.28125 1.09375 1.34375 2.9375l-2.703125 0.109375q-0.171875 -1.03125 -0.75 -1.46875q-0.5625 -0.453125 -1.703125 -0.453125q-1.171875 0 -1.84375 0.46875q-0.421875 0.3125 -0.421875 0.84375q0 0.46875 0.40625 0.796875q0.5 0.4375 2.46875 0.90625q1.96875 0.453125 2.90625 0.953125q0.953125 0.5 1.484375 1.359375q0.53125 0.859375 0.53125 2.125q0 1.15625 -0.640625 2.15625q-0.640625 1.0 -1.8125 1.484375q-1.15625 0.484375 -2.890625 0.484375q-2.53125 0 -3.890625 -1.171875q-1.359375 -1.171875 -1.625 -3.40625zm16.131073 4.34375l0 -11.09375l-3.953125 0l0 -2.265625l10.609375 0l0 2.265625l-3.953125 0l0 11.09375l-2.703125 0zm19.057434 0l-2.9375 0l-1.171875 -3.03125l-5.328125 0l-1.109375 3.03125l-2.859375 0l5.203125 -13.359375l2.84375 0l5.359375 13.359375zm-4.96875 -5.28125l-1.84375 -4.953125l-1.796875 4.953125l3.640625 0zm6.394821 5.28125l0 -13.359375l5.6875 0q2.140625 0 3.109375 0.359375q0.96875 0.359375 1.546875 1.28125q0.578125 0.921875 0.578125 2.109375q0 1.5 -0.890625 2.484375q-0.875 0.96875 -2.625 1.234375q0.875 0.5 1.4375 1.125q0.578125 0.609375 1.53125 2.15625l1.640625 2.609375l-3.234375 0l-1.9375 -2.90625q-1.046875 -1.5625 -1.4375 -1.96875q-0.375 -0.40625 -0.8125 -0.546875q-0.421875 -0.15625 -1.34375 -0.15625l-0.546875 0l0 5.578125l-2.703125 0zm2.703125 -7.703125l2.0 0q1.9375 0 2.421875 -0.15625q0.484375 -0.171875 0.75 -0.578125q0.28125 -0.40625 0.28125 -1.0q0 -0.671875 -0.359375 -1.078125q-0.359375 -0.421875 -1.015625 -0.53125q-0.328125 -0.046875 -1.96875 -0.046875l-2.109375 0l0 3.390625zm13.769821 7.703125l0 -11.09375l-3.953125 0l0 -2.265625l10.609375 0l0 2.265625l-3.953125 0l0 11.09375l-2.703125 0z" fill-rule="nonzero"/><path fill="#000000" fill-opacity="0.0" d="m89.3937 406.3937l-24.999825 0l0 -257.5118l137.03133 0" fill-rule="evenodd"/><path stroke="#cccccc" stroke-width="3.0" stroke-linejoin="round" stroke-linecap="butt" d="m89.3937 406.3937l-24.999832 0l0 -257.5118l119.031334 0" fill-rule="evenodd"/><path fill="#cccccc" stroke="#cccccc" stroke-width="3.0" stroke-linecap="butt" d="m183.4252 153.83708l13.614288 -4.955185l-13.614288 -4.9552z" fill-rule="evenodd"/><path fill="#e69138" d="m201.42389 148.89502l0 0c0 -12.959122 10.505447 -23.464577 23.46457 -23.464577l0 0c6.2231903 0 12.191483 2.4721527 16.59195 6.872612c4.4004517 4.400467 6.8726044 10.368774 6.8726044 16.591965l0 0c0 12.959122 -10.505432 23.464554 -23.464554 23.464554l0 0c-12.959122 0 -23.46457 -10.505432 -23.46457 -23.464554z" fill-rule="evenodd"/><path stroke="#434343" stroke-width="2.0" stroke-linejoin="round" stroke-linecap="butt" d="m201.42389 148.89502l0 0c0 -12.959122 10.505447 -23.464577 23.46457 -23.464577l0 0c6.2231903 0 12.191483 2.4721527 16.59195 6.872612c4.4004517 4.400467 6.8726044 10.368774 6.8726044 16.591965l0 0c0 12.959122 -10.505432 23.464554 -23.464554 23.464554l0 0c-12.959122 0 -23.46457 -10.505432 -23.46457 -23.464554z" fill-rule="evenodd"/><path fill="#000000" fill-opacity="0.0" d="m224.88846 172.35957l0 41.921265" fill-rule="evenodd"/><path stroke="#cccccc" stroke-width="4.0" stroke-linejoin="round" stroke-linecap="butt" d="m224.88846 172.35957l0 17.921265" fill-rule="evenodd"/><path fill="#cccccc" stroke="#cccccc" stroke-width="4.0" stroke-linecap="butt" d="m218.28152 190.28084l6.6069336 18.15239l6.6069183 -18.15239z" fill-rule="evenodd"/><path fill="#f1c232" d="m89.3937 406.3937l135.49606 -50.59842l135.49606 50.59842l-135.49606 50.59842z" fill-rule="evenodd"/><path stroke="#e69138" stroke-width="2.0" stroke-linejoin="round" stroke-linecap="butt" d="m89.3937 406.3937l135.49606 -50.59842l135.49606 50.59842l-135.49606 50.59842z" fill-rule="evenodd"/><path fill="#000000" d="m195.80534 395.5012l-2.53125 0.453125q-0.125 -0.75 -0.578125 -1.125q-0.453125 -0.390625 -1.171875 -0.390625q-0.953125 0 -1.53125 0.65625q-0.5625 0.65625 -0.5625 2.203125q0 1.734375 0.578125 2.4375q0.578125 0.703125 1.546875 0.703125q0.734375 0 1.203125 -0.40625q0.46875 -0.421875 0.65625 -1.421875l2.515625 0.421875q-0.390625 1.734375 -1.515625 2.625q-1.109375 0.875 -2.96875 0.875q-2.125 0 -3.390625 -1.328125q-1.25 -1.34375 -1.25 -3.71875q0 -2.390625 1.265625 -3.71875q1.265625 -1.34375 3.421875 -1.34375q1.765625 0 2.796875 0.765625q1.046875 0.75 1.515625 2.3125zm1.3444672 1.84375q0 -1.28125 0.625 -2.46875q0.625 -1.203125 1.78125 -1.828125q1.15625 -0.625 2.578125 -0.625q2.1875 0 3.59375 1.421875q1.40625 1.421875 1.40625 3.609375q0 2.1875 -1.421875 3.640625q-1.421875 1.4375 -3.5625 1.4375q-1.328125 0 -2.546875 -0.59375q-1.203125 -0.609375 -1.828125 -1.765625q-0.625 -1.171875 -0.625 -2.828125zm2.625 0.125q0 1.453125 0.671875 2.21875q0.6875 0.75 1.6875 0.75q1.0 0 1.671875 -0.75q0.6875 -0.765625 0.6875 -2.234375q0 -1.421875 -0.6875 -2.1875q-0.671875 -0.765625 -1.671875 -0.765625q-1.0 0 -1.6875 0.765625q-0.671875 0.765625 -0.671875 2.203125zm18.161606 4.84375l-2.5625 0l0 -4.9375q0 -1.5625 -0.171875 -2.015625q-0.15625 -0.46875 -0.53125 -0.71875q-0.359375 -0.265625 -0.875 -0.265625q-0.671875 0 -1.203125 0.375q-0.53125 0.359375 -0.734375 0.96875q-0.1875 0.59375 -0.1875 2.21875l0 4.375l-2.546875 0l0 -9.671875l2.375 0l0 1.421875q1.265625 -1.640625 3.1875 -1.640625q0.84375 0 1.546875 0.3125q0.703125 0.296875 1.0625 0.78125q0.359375 0.46875 0.5 1.078125q0.140625 0.59375 0.140625 1.703125l0 6.015625zm7.036606 -9.671875l0 2.03125l-1.75 0l0 3.90625q0 1.1875 0.046875 1.390625q0.046875 0.1875 0.21875 0.3125q0.1875 0.125 0.4375 0.125q0.359375 0 1.03125 -0.25l0.21875 2.0q-0.890625 0.375 -2.015625 0.375q-0.703125 0 -1.265625 -0.234375q-0.546875 -0.234375 -0.8125 -0.59375q-0.25 -0.375 -0.34375 -1.0q-0.09375 -0.453125 -0.09375 -1.8125l0 -4.21875l-1.171875 0l0 -2.03125l1.171875 0l0 -1.921875l2.578125 -1.5l0 3.421875l1.75 0zm1.775177 -1.3125l0 -2.375l2.5625 0l0 2.375l-2.5625 0zm0 10.984375l0 -9.671875l2.5625 0l0 9.671875l-2.5625 0zm13.980179 0l-2.5625 0l0 -4.9375q0 -1.5625 -0.171875 -2.015625q-0.15625 -0.46875 -0.53125 -0.71875q-0.359375 -0.265625 -0.875 -0.265625q-0.671875 0 -1.203125 0.375q-0.53125 0.359375 -0.734375 0.96875q-0.1875 0.59375 -0.1875 2.21875l0 4.375l-2.546875 0l0 -9.671875l2.375 0l0 1.421875q1.265625 -1.640625 3.1875 -1.640625q0.84375 0 1.546875 0.3125q0.703125 0.296875 1.0625 0.78125q0.359375 0.46875 0.5 1.078125q0.140625 0.59375 0.140625 1.703125l0 6.015625zm8.958481 0l0 -1.453125q-0.53125 0.78125 -1.390625 1.234375q-0.859375 0.4375 -1.8125 0.4375q-0.96875 0 -1.75 -0.421875q-0.765625 -0.4375 -1.125 -1.203125q-0.34375 -0.78125 -0.34375 -2.140625l0 -6.125l2.5625 0l0 4.4375q0 2.046875 0.140625 2.515625q0.140625 0.453125 0.515625 0.71875q0.375 0.265625 0.953125 0.265625q0.65625 0 1.171875 -0.359375q0.515625 -0.359375 0.703125 -0.890625q0.203125 -0.53125 0.203125 -2.609375l0 -4.078125l2.546875 0l0 9.671875l-2.375 0zm10.630371 -3.078125l2.546875 0.421875q-0.484375 1.40625 -1.546875 2.140625q-1.0625 0.734375 -2.65625 0.734375q-2.515625 0 -3.7343903 -1.65625q-0.953125 -1.3125 -0.953125 -3.328125q0 -2.40625 1.25 -3.765625q1.2656403 -1.359375 3.1875153 -1.359375q2.15625 0 3.40625 1.421875q1.25 1.421875 1.1875 4.375l-6.40625 0q0.03125 1.140625 0.609375 1.78125q0.59375 0.625 1.484375 0.625q0.59375 0 1.0 -0.328125q0.421875 -0.328125 0.625 -1.0625zm0.15625 -2.59375q-0.03125 -1.109375 -0.578125 -1.6875q-0.546875 -0.578125 -1.328125 -0.578125q-0.84375 0 -1.390625 0.609375q-0.546875 0.609375 -0.53125 1.65625l3.828125 0z" fill-rule="nonzero"/><path fill="#000000" d="m226.03552 420.8762l-2.328125 0q0 -0.5 0 -0.609375q0 -1.140625 0.359375 -1.859375q0.375 -0.734375 1.5 -1.640625q1.125 -0.921875 1.34375 -1.203125q0.328125 -0.4375 0.328125 -0.984375q0 -0.734375 -0.59375 -1.265625q-0.59375 -0.546875 -1.609375 -0.546875q-0.96875 0 -1.625 0.5625q-0.65625 0.546875 -0.90625 1.6875l-2.34375 -0.28125q0.09375 -1.640625 1.375 -2.765625q1.296875 -1.140625 3.390625 -1.140625q2.203125 0 3.5 1.15625q1.3125 1.140625 1.3125 2.671875q0 0.84375 -0.484375 1.609375q-0.46875 0.75 -2.03125 2.046875q-0.8125 0.6875 -1.015625 1.09375q-0.1875 0.40625 -0.171875 1.46875zm-2.328125 3.4375l0 -2.5625l2.5625 0l0 2.5625l-2.5625 0z" fill-rule="nonzero"/><path fill="#000000" fill-opacity="0.0" d="m224.88977 303.93307l0 51.874023" fill-rule="evenodd"/><path stroke="#cccccc" stroke-width="4.0" stroke-linejoin="round" stroke-linecap="butt" d="m224.88977 303.93307l0 27.874023" fill-rule="evenodd"/><path fill="#cccccc" stroke="#cccccc" stroke-width="4.0" stroke-linecap="butt" d="m218.28284 331.8071l6.6069336 18.152374l6.6069183 -18.152374z" fill-rule="evenodd"/><path fill="#cfe2f3" d="m184.69641 485.23358l80.3866 0l0 0c10.530853 0 19.06781 10.152924 19.06781 22.677185c0 12.524231 -8.536957 22.677185 -19.06781 22.677185l-80.3866 0l0 0c-10.530853 0 -19.067795 -10.152954 -19.067795 -22.677185c0 -12.524261 8.536942 -22.677185 19.067795 -22.677185z" fill-rule="evenodd"/><path stroke="#4a86e8" stroke-width="2.0" stroke-linejoin="round" stroke-linecap="butt" d="m184.69641 485.23358l80.3866 0l0 0c10.530853 0 19.06781 10.152924 19.06781 22.677185c0 12.524231 -8.536957 22.677185 -19.06781 22.677185l-80.3866 0l0 0c-10.530853 0 -19.067795 -10.152954 -19.067795 -22.677185c0 -12.524261 8.536942 -22.677185 19.067795 -22.677185z" fill-rule="evenodd"/><path fill="#000000" d="m200.33293 510.487l2.625 -0.25q0.234375 1.3125 0.953125 1.9375q0.734375 0.609375 1.96875 0.609375q1.296875 0 1.953125 -0.546875q0.671875 -0.546875 0.671875 -1.28125q0 -0.484375 -0.28125 -0.8125q-0.28125 -0.328125 -0.96875 -0.578125q-0.484375 -0.15625 -2.171875 -0.578125q-2.15625 -0.546875 -3.03125 -1.328125q-1.234375 -1.09375 -1.234375 -2.6875q0 -1.015625 0.578125 -1.90625q0.578125 -0.890625 1.65625 -1.34375q1.09375 -0.46875 2.640625 -0.46875q2.515625 0 3.78125 1.109375q1.28125 1.09375 1.34375 2.9375l-2.703125 0.109375q-0.171875 -1.03125 -0.75 -1.46875q-0.5625 -0.453125 -1.703125 -0.453125q-1.171875 0 -1.84375 0.46875q-0.421875 0.3125 -0.421875 0.84375q0 0.46875 0.40625 0.796875q0.5 0.4375 2.46875 0.90625q1.96875 0.453125 2.90625 0.953125q0.953125 0.5 1.484375 1.359375q0.53125 0.859375 0.53125 2.125q0 1.15625 -0.640625 2.15625q-0.640625 1.0 -1.8125 1.484375q-1.15625 0.484375 -2.890625 0.484375q-2.53125 0 -3.890625 -1.171875q-1.359375 -1.171875 -1.625 -3.40625zm16.131073 4.34375l0 -11.09375l-3.953125 0l0 -2.265625l10.609375 0l0 2.265625l-3.953125 0l0 11.09375l-2.703125 0zm7.5118713 -6.59375q0 -2.046875 0.609375 -3.421875q0.453125 -1.03125 1.234375 -1.828125q0.796875 -0.8125 1.734375 -1.203125q1.25 -0.53125 2.875 -0.53125q2.953125 0 4.71875 1.828125q1.78125 1.828125 1.78125 5.09375q0 3.234375 -1.765625 5.0625q-1.75 1.828125 -4.6875 1.828125q-2.984375 0 -4.75 -1.8125q-1.75 -1.828125 -1.75 -5.015625zm2.78125 -0.09375q0 2.265625 1.046875 3.4375q1.046875 1.171875 2.65625 1.171875q1.609375 0 2.640625 -1.15625q1.046875 -1.171875 1.046875 -3.484375q0 -2.296875 -1.015625 -3.421875q-1.0 -1.140625 -2.671875 -1.140625q-1.671875 0 -2.6875 1.15625q-1.015625 1.140625 -1.015625 3.4375zm12.277054 6.6875l0 -13.359375l4.328125 0q2.453125 0 3.203125 0.203125q1.140625 0.296875 1.921875 1.3125q0.78125 1.0 0.78125 2.59375q0 1.234375 -0.453125 2.078125q-0.453125 0.828125 -1.140625 1.3125q-0.6875 0.46875 -1.390625 0.625q-0.96875 0.203125 -2.796875 0.203125l-1.765625 0l0 5.03125l-2.6875 0zm2.6875 -11.09375l0 3.78125l1.484375 0q1.59375 0 2.125 -0.203125q0.546875 -0.203125 0.84375 -0.65625q0.3125 -0.453125 0.3125 -1.03125q0 -0.734375 -0.4375 -1.203125q-0.421875 -0.484375 -1.078125 -0.59375q-0.484375 -0.09375 -1.9375 -0.09375l-1.3125 0z" fill-rule="nonzero"/><path fill="#000000" fill-opacity="0.0" d="m360.38583 406.3937l25.000305 0l0 101.51181l-101.220795 0" fill-rule="evenodd"/><path stroke="#cccccc" stroke-width="3.0" stroke-linejoin="round" stroke-linecap="butt" d="m360.38583 406.3937l25.000336 0l0 101.51181l-83.220825 0" fill-rule="evenodd"/><path fill="#cccccc" stroke="#cccccc" stroke-width="3.0" stroke-linecap="butt" d="m302.16534 502.95032l-13.614288 4.9552l13.614288 4.9552z" fill-rule="evenodd"/><path fill="#e06666" d="m416.35162 420.83942c0 -2.6878357 -0.8430176 -4.743225 -2.5290527 -6.1661987l2.1822205 0l0 -2.9554138l-15.347717 0l0 3.283783l8.381989 0c1.9654236 0 3.2998047 0.5067444 4.003113 1.5202637c0.7033386 1.0175781 1.0549927 2.2256775 1.0549927 3.6243286c0 0.8756714 -0.15737915 1.6378479 -0.47210693 2.286499c-0.31149292 0.65270996 -0.7305908 1.1067505 -1.2572937 1.3621521c-0.523468 0.2554016 -1.315094 0.38311768 -2.374878 0.38311768l-9.335815 0l0 3.283783l9.436951 0c1.2043152 0 2.0473328 -0.060821533 2.5290527 -0.18243408c0.7418518 -0.19458008 1.3825684 -0.53512573 1.9220886 -1.0216064c0.53952026 -0.48651123 0.9747009 -1.2202759 1.305481 -2.201355c0.33398438 -0.9770508 0.50097656 -2.049347 0.50097656 -3.216919z" fill-rule="evenodd"/><path fill="#e06666" d="m414.19833 440.3597c0 1.6175842 -0.4897766 2.9696045 -1.4692688 4.0560913c-0.97628784 1.0905457 -2.4134216 1.6358032 -4.311432 1.6358032c-2.0136108 0 -3.5117493 -0.54119873 -4.4944763 -1.6236267c-0.98272705 -1.082428 -1.4740906 -2.4385376 -1.4740906 -4.068268c0 -1.6418762 0.48815918 -3.0040588 1.464447 -4.086487c0.9795227 -1.082428 2.4519958 -1.6236572 4.4174194 -1.6236572c1.9654236 0 3.4346924 0.54122925 4.407776 1.6236572c0.9730835 1.082428 1.4596252 2.4446106 1.4596252 4.086487zm2.1532898 0c0 -2.395935 -0.5684204 -4.4270325 -1.7052917 -6.093231c-1.368103 -1.9945984 -3.473236 -2.9919128 -6.315399 -2.9919128c-2.5916748 0 -4.5763855 0.83514404 -5.9541016 2.5054321c-1.3777466 1.6743164 -2.0665894 3.8675537 -2.0665894 6.579712c0 1.6905518 0.31311035 3.2493286 0.93933105 4.676361c0.6262512 1.4310913 1.5046082 2.5195923 2.6350403 3.265564c1.133667 0.75 2.6880188 1.125 4.663086 1.125c2.4375305 0 4.3467712 -0.8452759 5.7276917 -2.5358276c1.3841553 -1.6905518 2.076233 -3.8675842 2.076233 -6.5310974z" fill-rule="evenodd"/><path fill="#434343" d="m256.23358 135.35422l0 21.186203l3.2838135 0l0 -21.186203z" fill-rule="evenodd"/><path fill="#434343" d="m272.4701 142.99916c1.6175842 0 2.9696045 0.48976135 4.0560913 1.4692688c1.0905457 0.97628784 1.6358032 2.413437 1.6358032 4.311432c0 2.0135956 -0.54119873 3.5117645 -1.6236267 4.4944763c-1.0824585 0.9827118 -2.4385376 1.4740753 -4.068268 1.4740753c-1.6418762 0 -3.0040588 -0.48814392 -4.086487 -1.464447c-1.082428 -0.9794922 -1.6236572 -2.4519653 -1.6236572 -4.417404c0 -1.9654236 0.54122925 -3.4346924 1.6236572 -4.407776c1.082428 -0.9730835 2.4446106 -1.4596252 4.086487 -1.4596252zm0 -2.153305c-2.395935 0 -4.4270325 0.56843567 -6.093231 1.705307c-1.9945984 1.368103 -2.9919128 3.473236 -2.9919128 6.315399c0 2.5916748 0.83514404 4.5763855 2.5054016 5.954117c1.6743469 1.3777161 3.8675842 2.0665894 6.5797424 2.0665894c1.6905518 0 3.2493286 -0.3131256 4.676361 -0.9393616c1.4310913 -0.62623596 2.5195923 -1.5045929 3.2655334 -2.635025c0.7500305 -1.133667 1.1250305 -2.6880188 1.1250305 -4.663086c0 -2.4375305 -0.8452759 -4.346756 -2.5358276 -5.727707c-1.6905518 -1.3841553 -3.8675842 -2.076233 -6.5310974 -2.076233z" fill-rule="evenodd"/><path fill="#434343" d="m293.24918 142.99916c1.6175842 0 2.9696045 0.48976135 4.0560913 1.4692688c1.0905457 0.97628784 1.6358032 2.413437 1.6358032 4.311432c0 2.0135956 -0.54119873 3.5117645 -1.6236572 4.4944763c-1.082428 0.9827118 -2.438507 1.4740753 -4.0682373 1.4740753c-1.6418762 0 -3.0040588 -0.48814392 -4.086487 -1.464447c-1.082428 -0.9794922 -1.6236572 -2.4519653 -1.6236572 -4.417404c0 -1.9654236 0.54122925 -3.4346924 1.6236572 -4.407776c1.082428 -0.9730835 2.4446106 -1.4596252 4.086487 -1.4596252zm0 -2.153305c-2.395935 0 -4.4270325 0.56843567 -6.0932617 1.705307c-1.9945679 1.368103 -2.9918823 3.473236 -2.9918823 6.315399c0 2.5916748 0.83514404 4.5763855 2.5054016 5.954117c1.6743469 1.3777161 3.8675842 2.0665894 6.5797424 2.0665894c1.6905518 0 3.2493286 -0.3131256 4.676361 -0.9393616c1.4310913 -0.62623596 2.5195923 -1.5045929 3.2655334 -2.635025c0.75 -1.133667 1.125 -2.6880188 1.125 -4.663086c0 -2.4375305 -0.8452759 -4.346756 -2.535797 -5.727707c-1.6905518 -1.3841553 -3.8675842 -2.076233 -6.5310974 -2.076233z" fill-rule="evenodd"/><path fill="#434343" d="m314.4661 142.88356c1.4108276 0 2.6229858 0.48654175 3.6365051 1.4596252c1.0175476 0.97306824 1.5263367 2.4375153 1.5263367 4.3933105c0 2.0521545 -0.52093506 3.567978 -1.5628357 4.54747c-1.0378418 0.9763031 -2.286499 1.464447 -3.7459412 1.464447c-1.4351501 0 -2.6574402 -0.47209167 -3.6669006 -1.416275c-1.0094604 -0.9441681 -1.5141907 -2.4037933 -1.5141907 -4.3788605c0 -1.9750671 0.5371704 -3.47966 1.6114807 -4.513748c1.0783691 -1.037323 2.3168945 -1.5559692 3.7155457 -1.5559692zm0.31015015 -2.0377045c-1.2648926 0 -2.3412476 0.1959076 -3.229065 0.5877075c-0.8878479 0.38859558 -1.6844788 0.9730835 -2.389862 1.753479l0 -1.994339l-2.9919128 0l0 21.229568l3.283783 0l0 -7.471527c0.55947876 0.5587921 1.2729797 1.0212402 2.140564 1.3873596c0.87161255 0.36610413 1.8547058 0.5491638 2.9493103 0.5491638c1.4959412 0 2.9209595 -0.33399963 4.2750244 -1.0019836c1.3580933 -0.6712036 2.3918762 -1.6346588 3.1013489 -2.8903503c0.713501 -1.2588959 1.0702515 -2.6735687 1.0702515 -4.243988c0 -1.4644318 -0.32229614 -2.8100433 -0.9668884 -4.0368347c-0.6445923 -1.230011 -1.5993042 -2.1822205 -2.8641968 -2.8566284c-1.2648621 -0.67440796 -2.7243042 -1.0116272 -4.378357 -1.0116272z" fill-rule="evenodd"/><path fill="#434343" d="m367.49545 387.81628c-2.0949707 0 -3.6970215 0.7185974 -4.806122 2.1558533l0 -1.860199l-2.3034973 0l0 13.082947l2.5594482 0l0 -7.145111c0 -1.675415 0.394989 -2.8128967 1.1849365 -3.4124146c0.79312134 -0.59954834 1.7347412 -0.899292 2.8248901 -0.899292c0.68252563 0 1.2765808 0.13412476 1.782135 0.4024048c0.50875854 0.26556396 0.8626404 0.62280273 1.0617065 1.0717773c0.19906616 0.44622803 0.2986145 1.1210632 0.2986145 2.0244446l0 7.958191l2.5594788 0l0 -8.044403c0 -1.0266113 -0.047424316 -1.7452393 -0.14221191 -2.1558533c-0.15167236 -0.63238525 -0.41708374 -1.1785583 -0.79626465 -1.6384583c-0.3791809 -0.45993042 -0.95111084 -0.8308716 -1.7157898 -1.1128235c-0.76153564 -0.284729 -1.59729 -0.427063 -2.5073242 -0.427063z" fill-rule="evenodd"/><path fill="#434343" d="m382.71002 389.65182c1.2607727 0 2.3145752 0.41748047 3.1614075 1.2524414c0.8500061 0.8322449 1.2749939 2.057312 1.2749939 3.675232c0 1.7164612 -0.42184448 2.9935608 -1.2655029 3.8312683c-0.84368896 0.837677 -1.9006348 1.2565308 -3.1708984 1.2565308c-1.2797241 0 -2.3414307 -0.41610718 -3.185089 -1.2483215c-0.84368896 -0.83496094 -1.2655334 -2.090149 -1.2655334 -3.765564c0 -1.675415 0.42184448 -2.9278564 1.2655334 -3.7573547c0.84365845 -0.8294983 1.905365 -1.2442322 3.185089 -1.2442322zm0 -1.8355408c-1.8674622 0 -3.450531 0.4845276 -4.7492065 1.4536438c-1.554657 1.1662292 -2.3319702 2.9607239 -2.3319702 5.383484c0 2.2092285 0.65093994 3.901062 1.9527893 5.0755005c1.3049927 1.174408 3.0144653 1.7616272 5.1283875 1.7616272c1.3176575 0 2.5326233 -0.26690674 3.644867 -0.80075073c1.1154175 -0.5338135 1.9638367 -1.2825623 2.5452576 -2.2461853c0.5845642 -0.9663696 0.87683105 -2.2913513 0.87683105 -3.9749756c0 -2.0778503 -0.6588135 -3.7053528 -1.976471 -4.8825073c-1.317627 -1.1799011 -3.0144653 -1.7698364 -5.0904846 -1.7698364z" fill-rule="evenodd"/><path fill="#fce5cd" d="m26.31038 296.48712l15.376623 -7.3520203c0.27939987 0.13378906 0.4913597 0.2310791 0.6358757 0.29187012c1.0308914 0.46218872 1.6763992 0.79663086 1.9365311 1.0033875c0.3468399 0.27972412 0.61660767 0.6385193 0.80929565 1.076355c0.1926918 0.4378357 0.2890358 1.021637 0.2890358 1.7513428c0 0.53515625 -0.07707596 1.161499 -0.23122787 1.8790588l0 0l2.4423409 -0.36486816c0.21195602 -0.77835083 0.31793594 -1.4837646 0.31793594 -2.116211c0 -1.045929 -0.20071793 -1.9459534 -0.6021538 -2.6999817c-0.39822388 -0.75405884 -1.0260735 -1.4230042 -1.8835411 -2.006775c-0.6358757 -0.4378357 -1.7968292 -1.0520325 -3.4828644 -1.8425598l-15.607851 -7.3703003l0 3.2838135l8.945612 4.141205c1.1368675 0.52297974 2.302639 0.9729614 3.4973145 1.3500061c-1.2428474 0.41351318 -2.427887 0.8817444 -3.5551224 1.4047241l-8.887804 4.031769z" fill-rule="evenodd"/><path fill="#fce5cd" d="m28.102392 267.95465c0 -1.6661987 0.5009937 -3.0222778 1.5029793 -4.0682373c0.6455097 -0.6810913 1.6137753 -1.0946045 2.9047947 -1.2405396l0 10.818268c-1.3391914 -0.10946655 -2.408619 -0.6770325 -3.2082806 -1.7027283c-0.79966164 -1.0297241 -1.1994934 -2.298645 -1.1994934 -3.8067627zm-2.138853 0.036499023c0 2.6756897 0.71295166 4.852722 2.138853 6.5310974c1.4259033 1.6783752 3.4298744 2.5175476 6.011915 2.5175476c2.4953308 0 4.43507 -0.8290405 5.8192253 -2.487152c1.3809395 -1.6621704 2.0714111 -3.9101257 2.0714111 -6.743927c0 -2.25 -0.4335518 -4.0986633 -1.3006554 -5.5459595c-0.8671036 -1.4472961 -2.085865 -2.438507 -3.6562843 -2.9736328l-0.33238983 3.3932495c1.0983315 0.4986267 1.897995 1.173645 2.3989868 2.024994c0.5009918 0.8513489 0.75148773 1.8790588 0.75148773 3.0830994c0 1.6175842 -0.44800186 2.9675903 -1.3440094 4.0500183c-0.89600754 1.082428 -2.187027 1.6844482 -3.8730583 1.8060913l0 -14.448669c-0.30830383 -0.012176514 -0.5395317 -0.018249512 -0.6936836 -0.018249512c-2.533867 0 -4.4993 0.82095337 -5.8962994 2.4628296c-1.3969994 1.6419067 -2.095499 3.7581177 -2.095499 6.3486633z" fill-rule="evenodd"/><path fill="#fce5cd" d="m25.96354 248.79924c0 1.0094604 0.10437393 1.9560852 0.3131199 2.839859c0.20553589 0.8797302 0.4576378 1.5750122 0.7563076 2.0858154c0.38537788 0.68107605 0.87031364 1.2202759 1.4548054 1.617569c0.58128166 0.3932495 1.2139435 0.58987427 1.8979931 0.58987427c0.75148773 0 1.4387474 -0.23919678 2.061779 -0.7175751c0.6198158 -0.48243713 1.1063576 -1.1878357 1.4596214 -2.1162262c0.35005188 -0.9324188 0.7659416 -2.6026917 1.2476654 -5.010803c0.35647583 -1.7878418 0.6503258 -2.9067688 0.88155365 -3.3567657c0.3372078 -0.6445923 0.79966354 -0.9668884 1.3873634 -0.9668884c0.65514755 0 1.2267914 0.3648529 1.7149391 1.0945892c0.48493576 0.7297363 0.72740173 1.8486481 0.72740173 3.3567657c0 1.4959412 -0.2745819 2.6614838 -0.8237457 3.4966278c-0.54916763 0.83106995 -1.3391953 1.3378296 -2.3700829 1.5202637l0.40464783 3.2472992c1.6282272 -0.36486816 2.8566246 -1.2060852 3.6851883 -2.5236511c0.8285637 -1.3216248 1.2428474 -3.241211 1.2428474 -5.758789c0 -1.5202637 -0.20874786 -2.882431 -0.6262398 -4.086487c-0.4207077 -1.2040558 -1.0132294 -2.1243286 -1.7775612 -2.7608185c-0.7675476 -0.64053345 -1.5848732 -0.9608154 -2.4519768 -0.9608154c-0.8863716 0 -1.6282272 0.26148987 -2.225563 0.7844696c-0.59733963 0.5229645 -1.0517654 1.2445984 -1.3632774 2.1648712c-0.31472778 0.916214 -0.7177696 2.5358124 -1.2091293 4.85878c-0.3468399 1.6054077 -0.56843376 2.5722961 -0.66477776 2.9006805c-0.18305588 0.57162476 -0.41428185 0.99121094 -0.6936817 1.2587891c-0.26976585 0.26756287 -0.5732517 0.40135193 -0.9104595 0.40135193c-0.5298958 0 -0.9923496 -0.32229614 -1.3873634 -0.9669037c-0.3950138 -0.6445923 -0.59252167 -1.7209473 -0.59252167 -3.2290497c0 -1.2770233 0.22159386 -2.2641907 0.66477966 -2.9614868c0.4431858 -0.701355 1.0597935 -1.125 1.8498192 -1.2709503l-0.3468399 -3.2108154c-0.99235153 0.20675659 -1.7839851 0.583786 -2.374899 1.1310883c-0.59412575 0.547287 -1.0646095 1.3966217 -1.4114513 2.5479736c-0.3468418 1.1472931 -0.52026176 2.481079 -0.52026176 4.001358z" fill-rule="evenodd"/></g></svg>