<svg version="1.1" viewBox="0.0 0.0 634.8241469816273 618.3989501312336" fill="none" stroke="none" stroke-linecap="square" stroke-miterlimit="10" xmlns:xlink="http://www.w3.org/1999/xlink" xmlns="http://www.w3.org/2000/svg"><clipPath id="p.0"><path d="m0 0l634.82416 0l0 618.3989l-634.82416 0l0 -618.3989z" clip-rule="nonzero"/></clipPath><g clip-path="url(#p.0)"><path fill="#000000" fill-opacity="0.0" d="m0 0l634.82416 0l0 618.3989l-634.82416 0z" fill-rule="evenodd"/><path fill="#434343" d="m-1.2493439 -2.2493439l634.83466 0l0 618.3937l-634.83466 0z" fill-rule="evenodd"/><path fill="#cfe2f3" d="m286.66687 23.03412l87.95767 0l0 0c11.522705 0 20.863708 10.661829 20.863708 23.81386c0 13.152031 -9.341003 23.813854 -20.863708 23.813854l-87.95767 0l0 0c-11.522675 0 -20.863678 -10.661823 -20.863678 -23.813854c0 -13.152031 9.341003 -23.81386 20.863678 -23.81386z" fill-rule="evenodd"/><path stroke="#a2c4c9" stroke-width="2.0" stroke-linejoin="round" stroke-linecap="butt" d="m286.66687 23.03412l87.95767 0l0 0c11.522705 0 20.863708 10.661829 20.863708 23.81386c0 13.152031 -9.341003 23.813854 -20.863708 23.813854l-87.95767 0l0 0c-11.522675 0 -20.863678 -10.661823 -20.863678 -23.813854c0 -13.152031 9.341003 -23.81386 20.863678 -23.81386z" fill-rule="evenodd"/><path fill="#000000" d="m310.8647 51.002354l2.5625 -0.390625q0.171875 0.75 0.671875 1.140625q0.5 0.390625 1.40625 0.390625q0.984375 0 1.484375 -0.375q0.34375 -0.25 0.34375 -0.671875q0 -0.296875 -0.1875 -0.484375q-0.1875 -0.1875 -0.859375 -0.34375q-3.09375 -0.6875 -3.921875 -1.25q-1.140625 -0.78125 -1.140625 -2.171875q0 -1.265625 0.984375 -2.109375q1.0 -0.859375 3.078125 -0.859375q1.984375 0 2.953125 0.65625q0.96875 0.640625 1.328125 1.90625l-2.40625 0.4375q-0.15625 -0.5625 -0.59375 -0.859375q-0.421875 -0.296875 -1.234375 -0.296875q-1.0 0 -1.4375 0.28125q-0.296875 0.203125 -0.296875 0.515625q0 0.265625 0.25 0.46875q0.34375 0.25 2.390625 0.71875q2.046875 0.453125 2.859375 1.140625q0.796875 0.671875 0.796875 1.890625q0 1.34375 -1.109375 2.296875q-1.109375 0.953125 -3.28125 0.953125q-1.984375 0 -3.140625 -0.796875q-1.140625 -0.8125 -1.5 -2.1875zm15.719482 -6.90625l0 2.03125l-1.75 0l0 3.90625q0 1.1875 0.046875 1.390625q0.046875 0.1875 0.21875 0.3125q0.1875 0.125 0.4375 0.125q0.359375 0 1.03125 -0.25l0.21875 2.0q-0.890625 0.375 -2.015625 0.375q-0.703125 0 -1.265625 -0.234375q-0.546875 -0.234375 -0.8125 -0.59375q-0.25 -0.375 -0.34375 -1.0q-0.09375 -0.453125 -0.09375 -1.8125l0 -4.21875l-1.171875 0l0 -2.03125l1.171875 0l0 -1.921875l2.578125 -1.5l0 3.421875l1.75 0zm3.681427 2.953125l-2.328125 -0.421875q0.40625 -1.40625 1.359375 -2.078125q0.953125 -0.671875 2.84375 -0.671875q1.703125 0 2.546875 0.40625q0.84375 0.40625 1.171875 1.03125q0.34371948 0.625 0.34371948 2.28125l-0.015625 3.0q0 1.265625 0.109375 1.875q0.125 0.609375 0.46875 1.296875l-2.5312195 0q-0.109375 -0.25 -0.25 -0.75q-0.0625 -0.234375 -0.09375 -0.3125q-0.65625 0.640625 -1.40625 0.96875q-0.734375 0.3125 -1.59375 0.3125q-1.484375 0 -2.34375 -0.8125q-0.859375 -0.8125 -0.859375 -2.046875q0 -0.828125 0.390625 -1.46875q0.390625 -0.640625 1.09375 -0.96875q0.703125 -0.34375 2.03125 -0.609375q1.796875 -0.328125 2.484375 -0.625l0 -0.25q0 -0.75 -0.359375 -1.0625q-0.359375 -0.3125 -1.375 -0.3125q-0.6875 0 -1.078125 0.28125q-0.375 0.265625 -0.609375 0.9375zm3.421875 2.078125q-0.484375 0.15625 -1.5625 0.390625q-1.0625 0.21875 -1.390625 0.4375q-0.5 0.359375 -0.5 0.90625q0 0.53125 0.40625 0.9375q0.40625 0.390625 1.015625 0.390625q0.703125 0 1.328125 -0.46875q0.46875 -0.34375 0.609375 -0.84375q0.09375 -0.328125 0.09375 -1.25l0 -0.5zm7.500702 4.640625l-2.5625 0l0 -9.671875l2.375 0l0 1.375q0.609375 -0.984375 1.09375 -1.28125q0.484375 -0.3125 1.109375 -0.3125q0.875 0 1.6875 0.484375l-0.796875 2.234375q-0.640625 -0.421875 -1.203125 -0.421875q-0.53125 0 -0.90625 0.296875q-0.375 0.296875 -0.59375 1.078125q-0.203125 0.765625 -0.203125 3.234375l0 2.984375zm9.244629 -9.671875l0 2.03125l-1.75 0l0 3.90625q0 1.1875 0.046875 1.390625q0.046875 0.1875 0.21875 0.3125q0.1875 0.125 0.4375 0.125q0.359375 0 1.03125 -0.25l0.21875 2.0q-0.890625 0.375 -2.015625 0.375q-0.703125 0 -1.265625 -0.234375q-0.546875 -0.234375 -0.8125 -0.59375q-0.25 -0.375 -0.34375 -1.0q-0.09375 -0.453125 -0.09375 -1.8125l0 -4.21875l-1.171875 0l0 -2.03125l1.171875 0l0 -1.921875l2.578125 -1.5l0 3.421875l1.75 0z" fill-rule="nonzero"/><path fill="#cfe2f3" d="m260.31366 110.7664l140.6614 0l0 54.267715l-140.6614 0z" fill-rule="evenodd"/><path stroke="#a2c4c9" stroke-width="2.0" stroke-linejoin="round" stroke-linecap="butt" d="m260.31366 110.7664l140.6614 0l0 54.267715l-140.6614 0z" fill-rule="evenodd"/><path fill="#000000" d="m293.00925 144.82027l0 -11.09375l-3.953125 0l0 -2.265625l10.609375 0l0 2.265625l-3.953125 0l0 11.09375l-2.703125 0zm9.803528 0l-2.5625 0l0 -9.671875l2.375 0l0 1.375q0.609375 -0.984375 1.09375 -1.28125q0.484375 -0.3125 1.109375 -0.3125q0.875 0 1.6875 0.484375l-0.796875 2.234375q-0.640625 -0.421875 -1.203125 -0.421875q-0.53125 0 -0.90625 0.296875q-0.375 0.296875 -0.59375 1.078125q-0.203125 0.765625 -0.203125 3.234375l0 2.984375zm3.588379 -9.671875l2.71875 0l2.328125 6.859375l2.25 -6.859375l2.65625 0l-3.421875 9.3125l-0.609375 1.6875q-0.328125 0.84375 -0.640625 1.28125q-0.3125 0.453125 -0.703125 0.71875q-0.390625 0.28125 -0.96875 0.4375q-0.578125 0.15625 -1.3125 0.15625q-0.734375 0 -1.453125 -0.15625l-0.21875 -2.0q0.59375 0.125 1.078125 0.125q0.890625 0 1.3125 -0.53125q0.4375 -0.515625 0.671875 -1.328125l-3.6875 -9.703125zm16.793396 -3.6875l5.34375 0q1.59375 0 2.359375 0.140625q0.78125 0.125 1.390625 0.546875q0.625 0.421875 1.03125 1.125q0.40625 0.6875 0.40625 1.546875q0 0.9375 -0.5 1.734375q-0.5 0.78125 -1.375 1.171875q1.21875 0.359375 1.875 1.21875q0.65625 0.84375 0.65625 2.0q0 0.921875 -0.421875 1.78125q-0.421875 0.859375 -1.15625 1.375q-0.734375 0.515625 -1.796875 0.625q-0.6875 0.078125 -3.265625 0.09375l-4.546875 0l0 -13.359375zm2.703125 2.234375l0 3.078125l1.765625 0q1.578125 0 1.953125 -0.046875q0.703125 -0.078125 1.09375 -0.46875q0.40625 -0.40625 0.40625 -1.046875q0 -0.625 -0.34375 -1.0q-0.34375 -0.390625 -1.015625 -0.484375q-0.40625 -0.03125 -2.3125 -0.03125l-1.546875 0zm0 5.296875l0 3.578125l2.5 0q1.453125 0 1.84375 -0.078125q0.609375 -0.109375 0.984375 -0.53125q0.375 -0.421875 0.375 -1.140625q0 -0.59375 -0.296875 -1.015625q-0.28125 -0.421875 -0.84375 -0.609375q-0.546875 -0.203125 -2.390625 -0.203125l-2.171875 0zm10.754211 5.828125l0 -13.359375l2.5625 0l0 13.359375l-2.5625 0zm4.5895386 -4.96875q0 -1.28125 0.625 -2.46875q0.625 -1.203125 1.78125 -1.828125q1.15625 -0.625 2.578125 -0.625q2.1875 0 3.59375 1.421875q1.40625 1.421875 1.40625 3.609375q0 2.1875 -1.421875 3.640625q-1.421875 1.4375 -3.5625 1.4375q-1.328125 0 -2.546875 -0.59375q-1.203125 -0.609375 -1.828125 -1.765625q-0.625 -1.171875 -0.625 -2.828125zm2.625 0.125q0 1.453125 0.671875 2.21875q0.6875 0.75 1.6875 0.75q1.0 0 1.671875 -0.75q0.6875 -0.765625 0.6875 -2.234375q0 -1.421875 -0.6875 -2.1875q-0.671875 -0.765625 -1.671875 -0.765625q-1.0 0 -1.6875 0.765625q-0.671875 0.765625 -0.671875 2.203125zm17.802246 -1.96875l-2.53125 0.453125q-0.125 -0.75 -0.578125 -1.125q-0.453125 -0.390625 -1.171875 -0.390625q-0.953125 0 -1.53125 0.65625q-0.5625 0.65625 -0.5625 2.203125q0 1.734375 0.578125 2.4375q0.578125 0.703125 1.546875 0.703125q0.734375 0 1.203125 -0.40625q0.46875 -0.421875 0.65625 -1.421875l2.515625 0.421875q-0.390625 1.734375 -1.515625 2.625q-1.109375 0.875 -2.96875 0.875q-2.125 0 -3.390625 -1.328125q-1.25 -1.34375 -1.25 -3.71875q0 -2.390625 1.265625 -3.71875q1.265625 -1.34375 3.421875 -1.34375q1.765625 0 2.796875 0.765625q1.046875 0.75 1.515625 2.3125zm1.8444519 6.8125l0 -13.359375l2.5625 0l0 7.09375l3.0 -3.40625l3.140625 0l-3.296875 3.53125l3.53125 6.140625l-2.75 0l-2.4375 -4.34375l-1.1875 1.25l0 3.09375l-2.5625 0z" fill-rule="nonzero"/><path fill="#cfe2f3" d="m286.66605 542.6715l87.95767 0l0 0c11.522705 0 20.863678 10.661804 20.863678 23.813843c0 13.152039 -9.340973 23.813843 -20.863678 23.813843l-87.95767 0l0 0c-11.522705 0 -20.863678 -10.661804 -20.863678 -23.813843c0 -13.152039 9.340973 -23.813843 20.863678 -23.813843z" fill-rule="evenodd"/><path stroke="#a2c4c9" stroke-width="2.0" stroke-linejoin="round" stroke-linecap="butt" d="m286.66605 542.6715l87.95767 0l0 0c11.522705 0 20.863678 10.661804 20.863678 23.813843c0 13.152039 -9.340973 23.813843 -20.863678 23.813843l-87.95767 0l0 0c-11.522705 0 -20.863678 -10.661804 -20.863678 -23.813843c0 -13.152039 9.340973 -23.813843 20.863678 -23.813843z" fill-rule="evenodd"/><path fill="#000000" d="m320.99854 570.3272l2.546875 0.421875q-0.484375 1.40625 -1.546875 2.140625q-1.0625 0.734375 -2.65625 0.734375q-2.515625 0 -3.734375 -1.65625q-0.953125 -1.3125 -0.953125 -3.328125q0 -2.40625 1.25 -3.765625q1.265625 -1.359375 3.1875 -1.359375q2.15625 0 3.40625 1.421875q1.25 1.421875 1.1875 4.375l-6.40625 0q0.03125 1.140625 0.609375 1.78125q0.59375 0.625 1.484375 0.625q0.59375 0 1.0 -0.328125q0.421875 -0.328125 0.625 -1.0625zm0.15625 -2.59375q-0.03125 -1.109375 -0.578125 -1.6875q-0.546875 -0.578125 -1.328125 -0.578125q-0.84375 0 -1.390625 0.609375q-0.546875 0.609375 -0.53125 1.65625l3.828125 0zm13.422607 5.671875l-2.5625 0l0 -4.9375q0 -1.5625 -0.171875 -2.015625q-0.15625 -0.46875 -0.53125 -0.71875q-0.359375 -0.265625 -0.875 -0.265625q-0.671875 0 -1.203125 0.375q-0.53125 0.359375 -0.734375 0.96875q-0.1875 0.59375 -0.1875 2.21875l0 4.375l-2.546875 0l0 -9.671875l2.375 0l0 1.421875q1.265625 -1.640625 3.1875 -1.640625q0.84375 0 1.546875 0.3125q0.703125 0.296875 1.0625 0.78125q0.359375 0.46875 0.5 1.078125q0.140625 0.59375 0.140625 1.703125l0 6.015625zm11.474091 0l-2.390625 0l0 -1.421875q-0.59375 0.828125 -1.40625 1.234375q-0.796875 0.40625 -1.609375 0.40625q-1.671875 0 -2.859375 -1.34375q-1.1875 -1.34375 -1.1875 -3.75q0 -2.453125 1.15625 -3.734375q1.15625 -1.28125 2.921875 -1.28125q1.625 0 2.8125 1.34375l0 -4.8125l2.5625 0l0 13.359375zm-6.84375 -5.046875q0 1.546875 0.4375 2.234375q0.609375 1.015625 1.71875 1.015625q0.890625 0 1.5 -0.75q0.625 -0.765625 0.625 -2.25q0 -1.671875 -0.609375 -2.40625q-0.59375 -0.734375 -1.53125 -0.734375q-0.90625 0 -1.53125 0.734375q-0.609375 0.71875 -0.609375 2.15625z" fill-rule="nonzero"/><path fill="#f4cccc" d="m49.322834 266.54068l140.66142 0l0 54.26773l-140.66142 0z" fill-rule="evenodd"/><path stroke="#990000" stroke-width="2.0" stroke-linejoin="round" stroke-linecap="butt" d="m49.322834 266.54068l140.66142 0l0 54.26773l-140.66142 0z" fill-rule="evenodd"/><path fill="#000000" d="m78.111885 293.78204l-2.53125 0.453125q-0.125 -0.75 -0.578125 -1.125q-0.453125 -0.390625 -1.171875 -0.390625q-0.953125 0 -1.53125 0.65625q-0.5625 0.65625 -0.5625 2.203125q0 1.734375 0.578125 2.4375q0.578125 0.703125 1.546875 0.703125q0.734375 0 1.203125 -0.40625q0.46875 -0.421875 0.65625 -1.421875l2.515625 0.421875q-0.390625 1.734375 -1.515625 2.625q-1.109375 0.875 -2.96875 0.875q-2.125 0 -3.390625 -1.328125q-1.25 -1.34375 -1.25 -3.71875q0 -2.390625 1.265625 -3.71875q1.265625 -1.34375 3.421875 -1.34375q1.765625 0 2.796875 0.765625q1.046875 0.75 1.515625 2.3125zm3.8444672 0.09375l-2.328125 -0.421875q0.40625 -1.40625 1.359375 -2.078125q0.953125 -0.671875 2.84375 -0.671875q1.703125 0 2.546875 0.40625q0.84375 0.40625 1.171875 1.03125q0.34375 0.625 0.34375 2.28125l-0.015625 3.0q0 1.265625 0.109375 1.875q0.125 0.609375 0.46875 1.296875l-2.53125 0q-0.109375 -0.25 -0.25 -0.75q-0.0625 -0.234375 -0.09375 -0.3125q-0.65625 0.640625 -1.40625 0.96875q-0.734375 0.3125 -1.59375 0.3125q-1.484375 0 -2.34375 -0.8125q-0.859375 -0.8125 -0.859375 -2.046875q0 -0.828125 0.390625 -1.46875q0.390625 -0.640625 1.09375 -0.96875q0.703125 -0.34375 2.03125 -0.609375q1.796875 -0.328125 2.484375 -0.625l0 -0.25q0 -0.75 -0.359375 -1.0625q-0.359375 -0.3125 -1.375 -0.3125q-0.6875 0 -1.078125 0.28125q-0.375 0.265625 -0.609375 0.9375zm3.421875 2.078125q-0.484375 0.15625 -1.5625 0.390625q-1.0625 0.21875 -1.390625 0.4375q-0.5 0.359375 -0.5 0.90625q0 0.53125 0.40625 0.9375q0.40625 0.390625 1.015625 0.390625q0.703125 0 1.328125 -0.46875q0.46875 -0.34375 0.609375 -0.84375q0.09375 -0.328125 0.09375 -1.25l0 -0.5zm9.485092 -5.03125l0 2.03125l-1.75 0l0 3.90625q0 1.1875 0.046875 1.390625q0.046875 0.1875 0.21875 0.3125q0.1875 0.125 0.4375 0.125q0.359375 0 1.03125 -0.25l0.21875 2.0q-0.890625 0.375 -2.015625 0.375q-0.703125 0 -1.265625 -0.234375q-0.546875 -0.234375 -0.8125 -0.59375q-0.25 -0.375 -0.34375 -1.0q-0.09375 -0.453125 -0.09375 -1.8125l0 -4.21875l-1.171875 0l0 -2.03125l1.171875 0l0 -1.921875l2.578125 -1.5l0 3.421875l1.75 0zm10.212677 2.859375l-2.53125 0.453125q-0.125 -0.75 -0.578125 -1.125q-0.453125 -0.390625 -1.171875 -0.390625q-0.953125 0 -1.53125 0.65625q-0.5625 0.65625 -0.5625 2.203125q0 1.734375 0.578125 2.4375q0.578125 0.703125 1.546875 0.703125q0.734375 0 1.203125 -0.40625q0.46875 -0.421875 0.65625 -1.421875l2.515625 0.421875q-0.390625 1.734375 -1.515625 2.625q-1.109375 0.875 -2.96875 0.875q-2.125 0 -3.390625 -1.328125q-1.25 -1.34375 -1.25 -3.71875q0 -2.390625 1.265625 -3.71875q1.265625 -1.34375 3.421875 -1.34375q1.765625 0 2.796875 0.765625q1.046875 0.75 1.515625 2.3125zm4.485092 -6.546875l0 4.921875q1.234375 -1.453125 2.953125 -1.453125q0.890625 0 1.59375 0.328125q0.71875 0.328125 1.078125 0.84375q0.359375 0.5 0.484375 1.125q0.140625 0.609375 0.140625 1.921875l0 5.671875l-2.5625 0l0 -5.109375q0 -1.515625 -0.15625 -1.921875q-0.140625 -0.421875 -0.515625 -0.65625q-0.359375 -0.25 -0.90625 -0.25q-0.640625 0 -1.140625 0.3125q-0.5 0.3125 -0.734375 0.9375q-0.234375 0.625 -0.234375 1.84375l0 4.84375l-2.5625 0l0 -13.359375l2.5625 0zm13.923035 13.359375l0 -13.359375l2.5625 0l0 4.8125q1.171875 -1.34375 2.7968674 -1.34375q1.765625 0 2.921875 1.28125q1.15625 1.28125 1.15625 3.671875q0 2.484375 -1.1875 3.828125q-1.171875 1.328125 -2.859375 1.328125q-0.828125 0 -1.6406174 -0.40625q-0.796875 -0.421875 -1.375 -1.234375l0 1.421875l-2.375 0zm2.53125 -5.046875q0 1.5 0.484375 2.21875q0.65625 1.03125 1.7656174 1.03125q0.84375 0 1.4375 -0.71875q0.59375 -0.734375 0.59375 -2.296875q0 -1.65625 -0.609375 -2.390625q-0.59375 -0.734375 -1.53125 -0.734375q-0.9218674 0 -1.5312424 0.71875q-0.609375 0.71875 -0.609375 2.171875zm8.974098 5.046875l0 -13.359375l2.5625 0l0 13.359375l-2.5625 0zm4.589554 -4.96875q0 -1.28125 0.625 -2.46875q0.625 -1.203125 1.78125 -1.828125q1.15625 -0.625 2.578125 -0.625q2.1875 0 3.59375 1.421875q1.40625 1.421875 1.40625 3.609375q0 2.1875 -1.421875 3.640625q-1.421875 1.4375 -3.5625 1.4375q-1.328125 0 -2.546875 -0.59375q-1.203125 -0.609375 -1.828125 -1.765625q-0.625 -1.171875 -0.625 -2.828125zm2.625 0.125q0 1.453125 0.671875 2.21875q0.6875 0.75 1.6875 0.75q1.0 0 1.671875 -0.75q0.6875 -0.765625 0.6875 -2.234375q0 -1.421875 -0.6875 -2.1875q-0.671875 -0.765625 -1.671875 -0.765625q-1.0 0 -1.6875 0.765625q-0.671875 0.765625 -0.671875 2.203125zm17.80223 -1.96875l-2.53125 0.453125q-0.125 -0.75 -0.578125 -1.125q-0.453125 -0.390625 -1.171875 -0.390625q-0.953125 0 -1.53125 0.65625q-0.5625 0.65625 -0.5625 2.203125q0 1.734375 0.578125 2.4375q0.578125 0.703125 1.546875 0.703125q0.734375 0 1.203125 -0.40625q0.46875 -0.421875 0.65625 -1.421875l2.515625 0.421875q-0.390625 1.734375 -1.515625 2.625q-1.109375 0.875 -2.96875 0.875q-2.125 0 -3.390625 -1.328125q-1.25 -1.34375 -1.25 -3.71875q0 -2.390625 1.265625 -3.71875q1.265625 -1.34375 3.421875 -1.34375q1.765625 0 2.796875 0.765625q1.046875 0.75 1.515625 2.3125zm1.8444672 6.8125l0 -13.359375l2.5625 0l0 7.09375l3.0 -3.40625l3.140625 0l-3.296875 3.53125l3.53125 6.140625l-2.75 0l-2.4375 -4.34375l-1.1875 1.25l0 3.09375l-2.5625 0z" fill-rule="nonzero"/><path fill="#000000" fill-opacity="0.0" d="m330.64435 165.03412l0 35.433075" fill-rule="evenodd"/><path stroke="#6d9eeb" stroke-width="3.0" stroke-linejoin="round" stroke-linecap="butt" d="m330.64435 165.03412l0 17.433075" fill-rule="evenodd"/><path fill="#6d9eeb" stroke="#6d9eeb" stroke-width="3.0" stroke-linecap="butt" d="m325.68915 182.4672l4.9552 13.614288l4.9552 -13.614288z" fill-rule="evenodd"/><path fill="#e69138" d="m260.3146 292.11542l13.930145 -63.413452l56.40091 -28.22165l56.40091 28.22165l13.930176 63.413452l-39.031128 50.85385l-62.599884 0z" fill-rule="evenodd"/><path stroke="#e06666" stroke-width="2.0" stroke-linejoin="round" stroke-linecap="butt" d="m260.3146 292.11542l13.930145 -63.413452l56.40091 -28.22165l56.40091 28.22165l13.930176 63.413452l-39.031128 50.85385l-62.599884 0z" fill-rule="evenodd"/><path fill="#000000" d="m287.4277 278.6444l0 -13.359375l9.90625 0l0 2.265625l-7.21875 0l0 2.953125l6.71875 0l0 2.25l-6.71875 0l0 3.640625l7.46875 0l0 2.25l-10.15625 0zm11.193573 0l3.484375 -4.984375l-3.34375 -4.6875l3.125 0l1.71875 2.65625l1.796875 -2.65625l3.015625 0l-3.28125 4.578125l3.578125 5.09375l-3.140625 0l-1.96875 -3.0l-1.984375 3.0l-3.0 0zm20.047607 -6.8125l-2.53125 0.453125q-0.125 -0.75 -0.578125 -1.125q-0.453125 -0.390625 -1.171875 -0.390625q-0.953125 0 -1.53125 0.65625q-0.5625 0.65625 -0.5625 2.203125q0 1.734375 0.578125 2.4375q0.578125 0.703125 1.546875 0.703125q0.734375 0 1.203125 -0.40625q0.46875 -0.421875 0.65625 -1.421875l2.515625 0.421875q-0.390625 1.734375 -1.515625 2.625q-1.109375 0.875 -2.96875 0.875q-2.125 0 -3.390625 -1.328125q-1.25 -1.34375 -1.25 -3.71875q0 -2.390625 1.265625 -3.71875q1.265625 -1.34375 3.421875 -1.34375q1.765625 0 2.796875 0.765625q1.046875 0.75 1.515625 2.3125zm7.531952 3.734375l2.546875 0.421875q-0.484375 1.40625 -1.546875 2.140625q-1.0625 0.734375 -2.65625 0.734375q-2.515625 0 -3.734375 -1.65625q-0.953125 -1.3125 -0.953125 -3.328125q0 -2.40625 1.25 -3.765625q1.265625 -1.359375 3.1875 -1.359375q2.15625 0 3.40625 1.421875q1.25 1.421875 1.1875 4.375l-6.40625 0q0.03125 1.140625 0.609375 1.78125q0.59375 0.625 1.484375 0.625q0.59375 0 1.0 -0.328125q0.421875 -0.328125 0.625 -1.0625zm0.15625 -2.59375q-0.03125 -1.109375 -0.578125 -1.6875q-0.546875 -0.578125 -1.328125 -0.578125q-0.84375 0 -1.390625 0.609375q-0.546875 0.609375 -0.53125 1.65625l3.828125 0zm4.5476074 -4.0l2.390625 0l0 1.421875q0.46875 -0.734375 1.25 -1.1875q0.796875 -0.453125 1.765625 -0.453125q1.6875 0 2.859375 1.328125q1.171875 1.3125 1.171875 3.671875q0 2.421875 -1.1875 3.765625q-1.1875 1.34375 -2.859375 1.34375q-0.8125 0 -1.46875 -0.3125q-0.640625 -0.328125 -1.359375 -1.09375l0 4.875l-2.5625 0l0 -13.359375zm2.53125 4.671875q0 1.625 0.640625 2.40625q0.65625 0.78125 1.578125 0.78125q0.90625 0 1.484375 -0.71875q0.59375 -0.71875 0.59375 -2.34375q0 -1.515625 -0.609375 -2.25q-0.609375 -0.75 -1.515625 -0.75q-0.9375 0 -1.5625 0.734375q-0.609375 0.71875 -0.609375 2.140625zm13.380371 -4.671875l0 2.03125l-1.75 0l0 3.90625q0 1.1875 0.046875 1.390625q0.046875 0.1875 0.21875 0.3125q0.1875 0.125 0.4375 0.125q0.359375 0 1.03125 -0.25l0.21875 2.0q-0.890625 0.375 -2.015625 0.375q-0.703125 0 -1.265625 -0.234375q-0.546875 -0.234375 -0.8125 -0.59375q-0.25 -0.375 -0.34375 -1.0q-0.09375 -0.453125 -0.09375 -1.8125l0 -4.21875l-1.171875 0l0 -2.03125l1.171875 0l0 -1.921875l2.578125 -1.5l0 3.421875l1.75 0zm1.775177 -1.3125l0 -2.375l2.5625 0l0 2.375l-2.5625 0zm0 10.984375l0 -9.671875l2.5625 0l0 9.671875l-2.5625 0zm4.5895386 -4.96875q0 -1.28125 0.625 -2.46875q0.625 -1.203125 1.78125 -1.828125q1.15625 -0.625 2.578125 -0.625q2.1875 0 3.59375 1.421875q1.40625 1.421875 1.40625 3.609375q0 2.1875 -1.421875 3.640625q-1.421875 1.4375 -3.5625 1.4375q-1.328125 0 -2.546875 -0.59375q-1.203125 -0.609375 -1.828125 -1.765625q-0.625 -1.171875 -0.625 -2.828125zm2.625 0.125q0 1.453125 0.671875 2.21875q0.6875 0.75 1.6875 0.75q1.0 0 1.671875 -0.75q0.6875 -0.765625 0.6875 -2.234375q0 -1.421875 -0.6875 -2.1875q-0.671875 -0.765625 -1.671875 -0.765625q-1.0 0 -1.6875 0.765625q-0.671875 0.765625 -0.671875 2.203125zm18.161621 4.84375l-2.5625 0l0 -4.9375q0 -1.5625 -0.171875 -2.015625q-0.15625 -0.46875 -0.53125 -0.71875q-0.359375 -0.265625 -0.875 -0.265625q-0.671875 0 -1.203125 0.375q-0.53125 0.359375 -0.734375 0.96875q-0.1875 0.59375 -0.1875 2.21875l0 4.375l-2.546875 0l0 -9.671875l2.375 0l0 1.421875q1.265625 -1.640625 3.1875 -1.640625q0.84375 0 1.546875 0.3125q0.703125 0.296875 1.0625 0.78125q0.359375 0.46875 0.5 1.078125q0.140625 0.59375 0.140625 1.703125l0 6.015625z" fill-rule="nonzero"/><path fill="#f4cccc" d="m174.75853 407.0853l140.66142 0l0 54.26773l-140.66142 0z" fill-rule="evenodd"/><path stroke="#990000" stroke-width="2.0" stroke-linejoin="round" stroke-linecap="butt" d="m174.75853 407.0853l140.66142 0l0 54.26773l-140.66142 0z" fill-rule="evenodd"/><path fill="#000000" d="m203.54758 434.32666l-2.53125 0.453125q-0.125 -0.75 -0.578125 -1.125q-0.453125 -0.390625 -1.171875 -0.390625q-0.953125 0 -1.53125 0.65625q-0.5625 0.65625 -0.5625 2.203125q0 1.734375 0.578125 2.4375q0.578125 0.703125 1.546875 0.703125q0.734375 0 1.203125 -0.40625q0.46875 -0.421875 0.65625 -1.421875l2.515625 0.421875q-0.390625 1.734375 -1.515625 2.625q-1.109375 0.875 -2.96875 0.875q-2.125 0 -3.390625 -1.328125q-1.25 -1.34375 -1.25 -3.71875q0 -2.390625 1.265625 -3.71875q1.265625 -1.34375 3.421875 -1.34375q1.765625 0 2.796875 0.765625q1.046875 0.75 1.515625 2.3125zm3.8444672 0.09375l-2.328125 -0.421875q0.40625 -1.40625 1.359375 -2.078125q0.953125 -0.671875 2.84375 -0.671875q1.703125 0 2.546875 0.40625q0.84375 0.40625 1.171875 1.03125q0.34375 0.625 0.34375 2.28125l-0.015625 3.0q0 1.265625 0.109375 1.875q0.125 0.609375 0.46875 1.296875l-2.53125 0q-0.109375 -0.25 -0.25 -0.75q-0.0625 -0.234375 -0.09375 -0.3125q-0.65625 0.640625 -1.40625 0.96875q-0.734375 0.3125 -1.59375 0.3125q-1.484375 0 -2.34375 -0.8125q-0.859375 -0.8125 -0.859375 -2.046875q0 -0.828125 0.390625 -1.46875q0.390625 -0.640625 1.09375 -0.96875q0.703125 -0.34375 2.03125 -0.609375q1.796875 -0.328125 2.484375 -0.625l0 -0.25q0 -0.75 -0.359375 -1.0625q-0.359375 -0.3125 -1.375 -0.3125q-0.6875 0 -1.078125 0.28125q-0.375 0.265625 -0.609375 0.9375zm3.421875 2.078125q-0.484375 0.15625 -1.5625 0.390625q-1.0625 0.21875 -1.390625 0.4375q-0.5 0.359375 -0.5 0.90625q0 0.53125 0.40625 0.9375q0.40625 0.390625 1.015625 0.390625q0.703125 0 1.328125 -0.46875q0.46875 -0.34375 0.609375 -0.84375q0.09375 -0.328125 0.09375 -1.25l0 -0.5zm9.485092 -5.03125l0 2.03125l-1.75 0l0 3.90625q0 1.1875 0.046875 1.390625q0.046875 0.1875 0.21875 0.3125q0.1875 0.125 0.4375 0.125q0.359375 0 1.03125 -0.25l0.21875 2.0q-0.890625 0.375 -2.015625 0.375q-0.703125 0 -1.265625 -0.234375q-0.546875 -0.234375 -0.8125 -0.59375q-0.25 -0.375 -0.34375 -1.0q-0.09375 -0.453125 -0.09375 -1.8125l0 -4.21875l-1.171875 0l0 -2.03125l1.171875 0l0 -1.921875l2.578125 -1.5l0 3.421875l1.75 0zm10.212677 2.859375l-2.53125 0.453125q-0.125 -0.75 -0.578125 -1.125q-0.453125 -0.390625 -1.171875 -0.390625q-0.953125 0 -1.53125 0.65625q-0.5625 0.65625 -0.5625 2.203125q0 1.734375 0.578125 2.4375q0.578125 0.703125 1.546875 0.703125q0.734375 0 1.203125 -0.40625q0.46875 -0.421875 0.65625 -1.421875l2.515625 0.421875q-0.390625 1.734375 -1.515625 2.625q-1.109375 0.875 -2.96875 0.875q-2.125 0 -3.390625 -1.328125q-1.25 -1.34375 -1.25 -3.71875q0 -2.390625 1.265625 -3.71875q1.265625 -1.34375 3.421875 -1.34375q1.765625 0 2.796875 0.765625q1.046875 0.75 1.515625 2.3125zm4.485092 -6.546875l0 4.921875q1.234375 -1.453125 2.953125 -1.453125q0.890625 0 1.59375 0.328125q0.71875 0.328125 1.078125 0.84375q0.359375 0.5 0.484375 1.125q0.140625 0.609375 0.140625 1.921875l0 5.671875l-2.5625 0l0 -5.109375q0 -1.515625 -0.15625 -1.921875q-0.140625 -0.421875 -0.515625 -0.65625q-0.359375 -0.25 -0.90625 -0.25q-0.640625 0 -1.140625 0.3125q-0.5 0.3125 -0.734375 0.9375q-0.234375 0.625 -0.234375 1.84375l0 4.84375l-2.5625 0l0 -13.359375l2.5625 0zm13.923035 13.359375l0 -13.359375l2.5625 0l0 4.8125q1.171875 -1.34375 2.796875 -1.34375q1.7656403 0 2.9218903 1.28125q1.15625 1.28125 1.15625 3.671875q0 2.484375 -1.1875 3.828125q-1.1718903 1.328125 -2.8593903 1.328125q-0.828125 0 -1.640625 -0.40625q-0.796875 -0.421875 -1.375 -1.234375l0 1.421875l-2.375 0zm2.53125 -5.046875q0 1.5 0.484375 2.21875q0.65625 1.03125 1.765625 1.03125q0.84375 0 1.4375 -0.71875q0.59375 -0.734375 0.59375 -2.296875q0 -1.65625 -0.609375 -2.390625q-0.59375 -0.734375 -1.53125 -0.734375q-0.921875 0 -1.53125 0.71875q-0.609375 0.71875 -0.609375 2.171875zm8.974106 5.046875l0 -13.359375l2.5625 0l0 13.359375l-2.5625 0zm4.589569 -4.96875q0 -1.28125 0.625 -2.46875q0.625 -1.203125 1.78125 -1.828125q1.15625 -0.625 2.578125 -0.625q2.1875 0 3.59375 1.421875q1.40625 1.421875 1.40625 3.609375q0 2.1875 -1.421875 3.640625q-1.421875 1.4375 -3.5625 1.4375q-1.328125 0 -2.546875 -0.59375q-1.203125 -0.609375 -1.828125 -1.765625q-0.625 -1.171875 -0.625 -2.828125zm2.625 0.125q0 1.453125 0.671875 2.21875q0.6875 0.75 1.6875 0.75q1.0 0 1.671875 -0.75q0.6875 -0.765625 0.6875 -2.234375q0 -1.421875 -0.6875 -2.1875q-0.671875 -0.765625 -1.671875 -0.765625q-1.0 0 -1.6875 0.765625q-0.671875 0.765625 -0.671875 2.203125zm17.802216 -1.96875l-2.53125 0.453125q-0.125 -0.75 -0.578125 -1.125q-0.453125 -0.390625 -1.171875 -0.390625q-0.953125 0 -1.53125 0.65625q-0.5625 0.65625 -0.5625 2.203125q0 1.734375 0.578125 2.4375q0.578125 0.703125 1.546875 0.703125q0.734375 0 1.203125 -0.40625q0.46875 -0.421875 0.65625 -1.421875l2.515625 0.421875q-0.390625 1.734375 -1.515625 2.625q-1.109375 0.875 -2.96875 0.875q-2.125 0 -3.390625 -1.328125q-1.25 -1.34375 -1.25 -3.71875q0 -2.390625 1.265625 -3.71875q1.265625 -1.34375 3.421875 -1.34375q1.765625 0 2.796875 0.765625q1.046875 0.75 1.515625 2.3125zm1.8444824 6.8125l0 -13.359375l2.5625 0l0 7.09375l3.0 -3.40625l3.140625 0l-3.296875 3.53125l3.53125 6.140625l-2.75 0l-2.4375 -4.34375l-1.1875 1.25l0 3.09375l-2.5625 0z" fill-rule="nonzero"/><path fill="#f4cccc" d="m334.76248 407.0866l140.6614 0l0 54.26773l-140.6614 0z" fill-rule="evenodd"/><path stroke="#990000" stroke-width="2.0" stroke-linejoin="round" stroke-linecap="butt" d="m334.76248 407.0866l140.6614 0l0 54.26773l-140.6614 0z" fill-rule="evenodd"/><path fill="#000000" d="m363.5515 434.32797l-2.53125 0.453125q-0.125 -0.75 -0.578125 -1.125q-0.453125 -0.390625 -1.171875 -0.390625q-0.953125 0 -1.53125 0.65625q-0.5625 0.65625 -0.5625 2.203125q0 1.734375 0.578125 2.4375q0.578125 0.703125 1.546875 0.703125q0.734375 0 1.203125 -0.40625q0.46875 -0.421875 0.65625 -1.421875l2.515625 0.421875q-0.390625 1.734375 -1.515625 2.625q-1.109375 0.875 -2.96875 0.875q-2.125 0 -3.390625 -1.328125q-1.25 -1.34375 -1.25 -3.71875q0 -2.390625 1.265625 -3.71875q1.265625 -1.34375 3.421875 -1.34375q1.765625 0 2.796875 0.765625q1.046875 0.75 1.515625 2.3125zm3.8444824 0.09375l-2.328125 -0.421875q0.40625 -1.40625 1.359375 -2.078125q0.953125 -0.671875 2.84375 -0.671875q1.703125 0 2.546875 0.40625q0.84375 0.40625 1.171875 1.03125q0.34375 0.625 0.34375 2.28125l-0.015625 3.0q0 1.265625 0.109375 1.875q0.125 0.609375 0.46875 1.296875l-2.53125 0q-0.109375 -0.25 -0.25 -0.75q-0.0625 -0.234375 -0.09375 -0.3125q-0.65625 0.640625 -1.40625 0.96875q-0.734375 0.3125 -1.59375 0.3125q-1.484375 0 -2.34375 -0.8125q-0.859375 -0.8125 -0.859375 -2.046875q0 -0.828125 0.390625 -1.46875q0.390625 -0.640625 1.09375 -0.96875q0.703125 -0.34375 2.03125 -0.609375q1.796875 -0.328125 2.484375 -0.625l0 -0.25q0 -0.75 -0.359375 -1.0625q-0.359375 -0.3125 -1.375 -0.3125q-0.6875 0 -1.078125 0.28125q-0.375 0.265625 -0.609375 0.9375zm3.421875 2.078125q-0.484375 0.15625 -1.5625 0.390625q-1.0625 0.21875 -1.390625 0.4375q-0.5 0.359375 -0.5 0.90625q0 0.53125 0.40625 0.9375q0.40625 0.390625 1.015625 0.390625q0.703125 0 1.328125 -0.46875q0.46875 -0.34375 0.609375 -0.84375q0.09375 -0.328125 0.09375 -1.25l0 -0.5zm9.485077 -5.03125l0 2.03125l-1.75 0l0 3.90625q0 1.1875 0.046875 1.390625q0.046875 0.1875 0.21875 0.3125q0.1875 0.125 0.4375 0.125q0.359375 0 1.03125 -0.25l0.21875 2.0q-0.890625 0.375 -2.015625 0.375q-0.703125 0 -1.265625 -0.234375q-0.546875 -0.234375 -0.8125 -0.59375q-0.25 -0.375 -0.34375 -1.0q-0.09375 -0.453125 -0.09375 -1.8125l0 -4.21875l-1.171875 0l0 -2.03125l1.171875 0l0 -1.921875l2.578125 -1.5l0 3.421875l1.75 0zm10.212677 2.859375l-2.53125 0.453125q-0.125 -0.75 -0.578125 -1.125q-0.453125 -0.390625 -1.171875 -0.390625q-0.953125 0 -1.53125 0.65625q-0.5625 0.65625 -0.5625 2.203125q0 1.734375 0.578125 2.4375q0.578125 0.703125 1.546875 0.703125q0.734375 0 1.203125 -0.40625q0.46875 -0.421875 0.65625 -1.421875l2.515625 0.421875q-0.390625 1.734375 -1.515625 2.625q-1.109375 0.875 -2.96875 0.875q-2.125 0 -3.390625 -1.328125q-1.25 -1.34375 -1.25 -3.71875q0 -2.390625 1.265625 -3.71875q1.265625 -1.34375 3.421875 -1.34375q1.765625 0 2.796875 0.765625q1.046875 0.75 1.515625 2.3125zm4.4851074 -6.546875l0 4.921875q1.234375 -1.453125 2.953125 -1.453125q0.890625 0 1.59375 0.328125q0.71875 0.328125 1.078125 0.84375q0.359375 0.5 0.484375 1.125q0.140625 0.609375 0.140625 1.921875l0 5.671875l-2.5625 0l0 -5.109375q0 -1.515625 -0.15625 -1.921875q-0.140625 -0.421875 -0.515625 -0.65625q-0.359375 -0.25 -0.90625 -0.25q-0.640625 0 -1.140625 0.3125q-0.5 0.3125 -0.734375 0.9375q-0.234375 0.625 -0.234375 1.84375l0 4.84375l-2.5625 0l0 -13.359375l2.5625 0zm13.923035 13.359375l0 -13.359375l2.5625 0l0 4.8125q1.171875 -1.34375 2.796875 -1.34375q1.765625 0 2.921875 1.28125q1.15625 1.28125 1.15625 3.671875q0 2.484375 -1.1875 3.828125q-1.171875 1.328125 -2.859375 1.328125q-0.828125 0 -1.640625 -0.40625q-0.796875 -0.421875 -1.375 -1.234375l0 1.421875l-2.375 0zm2.53125 -5.046875q0 1.5 0.484375 2.21875q0.65625 1.03125 1.765625 1.03125q0.84375 0 1.4375 -0.71875q0.59375 -0.734375 0.59375 -2.296875q0 -1.65625 -0.609375 -2.390625q-0.59375 -0.734375 -1.53125 -0.734375q-0.921875 0 -1.53125 0.71875q-0.609375 0.71875 -0.609375 2.171875zm8.974091 5.046875l0 -13.359375l2.5625 0l0 13.359375l-2.5625 0zm4.589569 -4.96875q0 -1.28125 0.625 -2.46875q0.625 -1.203125 1.78125 -1.828125q1.15625 -0.625 2.578125 -0.625q2.1875 0 3.59375 1.421875q1.40625 1.421875 1.40625 3.609375q0 2.1875 -1.421875 3.640625q-1.421875 1.4375 -3.5625 1.4375q-1.328125 0 -2.546875 -0.59375q-1.203125 -0.609375 -1.828125 -1.765625q-0.625 -1.171875 -0.625 -2.828125zm2.625 0.125q0 1.453125 0.671875 2.21875q0.6875 0.75 1.6875 0.75q1.0 0 1.671875 -0.75q0.6875 -0.765625 0.6875 -2.234375q0 -1.421875 -0.6875 -2.1875q-0.671875 -0.765625 -1.671875 -0.765625q-1.0 0 -1.6875 0.765625q-0.671875 0.765625 -0.671875 2.203125zm17.802216 -1.96875l-2.53125 0.453125q-0.125 -0.75 -0.578125 -1.125q-0.453125 -0.390625 -1.171875 -0.390625q-0.953125 0 -1.53125 0.65625q-0.5625 0.65625 -0.5625 2.203125q0 1.734375 0.578125 2.4375q0.578125 0.703125 1.546875 0.703125q0.734375 0 1.203125 -0.40625q0.46875 -0.421875 0.65625 -1.421875l2.515625 0.421875q-0.390625 1.734375 -1.515625 2.625q-1.109375 0.875 -2.96875 0.875q-2.125 0 -3.390625 -1.328125q-1.25 -1.34375 -1.25 -3.71875q0 -2.390625 1.265625 -3.71875q1.265625 -1.34375 3.421875 -1.34375q1.765625 0 2.796875 0.765625q1.046875 0.75 1.515625 2.3125zm1.8444824 6.8125l0 -13.359375l2.5625 0l0 7.09375l3.0 -3.40625l3.140625 0l-3.296875 3.53125l3.53125 6.140625l-2.75 0l-2.4375 -4.34375l-1.1875 1.25l0 3.09375l-2.5625 0z" fill-rule="nonzero"/><path fill="#000000" fill-opacity="0.0" d="m260.3146 292.11542l-70.33072 1.5747986" fill-rule="evenodd"/><path stroke="#cc0000" stroke-width="3.0" stroke-linejoin="round" stroke-linecap="butt" stroke-dasharray="12.0,9.0" d="m260.3146 292.11542l-52.335236 1.171875" fill-rule="evenodd"/><path fill="#cc0000" stroke="#cc0000" stroke-width="3.0" stroke-linecap="butt" d="m207.86844 288.3333l-13.499954 5.258728l13.721817 4.6492004z" fill-rule="evenodd"/><path fill="#000000" fill-opacity="0.0" d="m299.34573 342.96927l-54.267715 64.12598" fill-rule="evenodd"/><path stroke="#cc0000" stroke-width="3.0" stroke-linejoin="round" stroke-linecap="butt" stroke-dasharray="12.0,9.0" d="m299.34573 342.96927l-42.63983 50.385773" fill-rule="evenodd"/><path fill="#cc0000" stroke="#cc0000" stroke-width="3.0" stroke-linecap="butt" d="m252.92337 390.15402l-5.012207 13.593414l12.57724 -7.1913757z" fill-rule="evenodd"/><path fill="#000000" fill-opacity="0.0" d="m361.94562 342.96927l43.149597 64.12598" fill-rule="evenodd"/><path stroke="#cc0000" stroke-width="3.0" stroke-linejoin="round" stroke-linecap="butt" stroke-dasharray="12.0,9.0" d="m361.94562 342.96927l33.10077 49.192078" fill-rule="evenodd"/><path fill="#cc0000" stroke="#cc0000" stroke-width="3.0" stroke-linecap="butt" d="m390.93527 394.92767l11.711548 8.5289l-3.4892883 -14.061554z" fill-rule="evenodd"/><path fill="#000000" fill-opacity="0.0" d="m245.08923 461.35303l85.543304 81.322815" fill-rule="evenodd"/><path stroke="#cc0000" stroke-width="3.0" stroke-linejoin="round" stroke-linecap="butt" stroke-dasharray="12.0,9.0" d="m245.08923 461.35303l72.49765 68.92078" fill-rule="evenodd"/><path fill="#cc0000" stroke="#cc0000" stroke-width="3.0" stroke-linecap="butt" d="m314.17273 533.8652l13.2812195 5.7889404l-6.452942 -12.971619z" fill-rule="evenodd"/><path fill="#000000" fill-opacity="0.0" d="m400.97675 292.11542l180.56696 0.78741455" fill-rule="evenodd"/><path stroke="#6d9eeb" stroke-width="3.0" stroke-linejoin="round" stroke-linecap="butt" d="m400.97675 292.11542l162.56708 0.70892334" fill-rule="evenodd"/><path fill="#6d9eeb" stroke="#6d9eeb" stroke-width="3.0" stroke-linecap="butt" d="m563.5222 297.77948l13.635803 -4.8957825l-13.59259 -5.0145264z" fill-rule="evenodd"/><path fill="#000000" fill-opacity="0.0" d="m49.322834 293.67453l-25.000402 0l0 272.81888l241.47285 0" fill-rule="evenodd"/><path stroke="#cc0000" stroke-width="3.0" stroke-linejoin="round" stroke-linecap="butt" stroke-dasharray="12.0,9.0" d="m49.322834 293.67453l-25.000402 0l0 272.81888l223.47284 0" fill-rule="evenodd"/><path fill="#cc0000" stroke="#cc0000" stroke-width="3.0" stroke-linecap="butt" d="m247.79527 571.4486l13.614304 -4.9552l-13.614304 -4.955139z" fill-rule="evenodd"/><path fill="#000000" fill-opacity="0.0" d="m330.64572 70.661835l0 40.09449" fill-rule="evenodd"/><path stroke="#6d9eeb" stroke-width="3.0" stroke-linejoin="round" stroke-linecap="butt" d="m330.64572 70.661835l0 22.09449" fill-rule="evenodd"/><path fill="#6d9eeb" stroke="#6d9eeb" stroke-width="3.0" stroke-linecap="butt" d="m325.69052 92.756325l4.9552 13.614296l4.9552 -13.614296z" fill-rule="evenodd"/><path fill="#000000" fill-opacity="0.0" d="m409.90945 253.25722l129.70078 0l0 35.43306l-129.70078 0z" fill-rule="evenodd"/><path fill="#efefef" d="m420.14383 280.17722l0 -9.671875l1.46875 0l0 1.375q1.0625 -1.59375 3.078125 -1.59375q0.875 0 1.609375 0.3125q0.734375 0.3125 1.09375 0.828125q0.375 0.5 0.515625 1.203125q0.09375 0.453125 0.09375 1.59375l0 5.953125l-1.640625 0l0 -5.890625q0 -1.0 -0.203125 -1.484375q-0.1875 -0.5 -0.671875 -0.796875q-0.484375 -0.296875 -1.140625 -0.296875q-1.046875 0 -1.8125 0.671875q-0.75 0.65625 -0.75 2.515625l0 5.28125l-1.640625 0zm9.766327 -4.84375q0 -2.6875 1.484375 -3.96875q1.25 -1.078125 3.046875 -1.078125q2.0 0 3.265625 1.3125q1.265625 1.296875 1.265625 3.609375q0 1.859375 -0.5625 2.9375q-0.5625 1.0625 -1.640625 1.65625q-1.0625 0.59375 -2.328125 0.59375q-2.03125 0 -3.28125 -1.296875q-1.25 -1.3125 -1.25 -3.765625zm1.6875 0q0 1.859375 0.796875 2.796875q0.8125 0.921875 2.046875 0.921875q1.21875 0 2.03125 -0.921875q0.8125 -0.9375 0.8125 -2.84375q0 -1.796875 -0.8125 -2.71875q-0.8125 -0.921875 -2.03125 -0.921875q-1.234375 0 -2.046875 0.921875q-0.796875 0.90625 -0.796875 2.765625zm21.105896 1.734375l1.6875 0.203125q-0.40625 1.484375 -1.484375 2.3125q-1.078125 0.8125 -2.765625 0.8125q-2.125 0 -3.375 -1.296875q-1.234375 -1.3125 -1.234375 -3.671875q0 -2.453125 1.25 -3.796875q1.265625 -1.34375 3.265625 -1.34375q1.9375 0 3.15625 1.328125q1.234375 1.3125 1.234375 3.703125q0 0.15625 0 0.4375l-7.21875 0q0.09375 1.59375 0.90625 2.453125q0.8125 0.84375 2.015625 0.84375q0.90625 0 1.546875 -0.46875q0.640625 -0.484375 1.015625 -1.515625zm-5.390625 -2.65625l5.40625 0q-0.109375 -1.21875 -0.625 -1.828125q-0.78125 -0.953125 -2.03125 -0.953125q-1.125 0 -1.90625 0.765625q-0.765625 0.75 -0.84375 2.015625zm8.047607 5.765625l3.53125 -5.03125l-3.265625 -4.640625l2.046875 0l1.484375 2.265625q0.421875 0.640625 0.671875 1.078125q0.40625 -0.59375 0.734375 -1.0625l1.640625 -2.28125l1.953125 0l-3.34375 4.546875l3.59375 5.125l-2.015625 0l-1.984375 -3.0l-0.515625 -0.8125l-2.546875 3.8125l-1.984375 0zm16.734375 -3.546875l1.609375 0.21875q-0.265625 1.65625 -1.359375 2.609375q-1.078125 0.9375 -2.671875 0.9375q-1.984375 0 -3.1875 -1.296875q-1.203125 -1.296875 -1.203125 -3.71875q0 -1.578125 0.515625 -2.75q0.515625 -1.171875 1.578125 -1.75q1.0625 -0.59375 2.3125 -0.59375q1.578125 0 2.578125 0.796875q1.0 0.796875 1.28125 2.265625l-1.59375 0.234375q-0.234375 -0.96875 -0.8125 -1.453125q-0.578125 -0.5 -1.390625 -0.5q-1.234375 0 -2.015625 0.890625q-0.78125 0.890625 -0.78125 2.8125q0 1.953125 0.75 2.84375q0.75 0.875 1.953125 0.875q0.96875 0 1.609375 -0.59375q0.65625 -0.59375 0.828125 -1.828125zm9.640625 0.4375l1.6875 0.203125q-0.40625 1.484375 -1.484375 2.3125q-1.078125 0.8125 -2.765625 0.8125q-2.125 0 -3.375 -1.296875q-1.234375 -1.3125 -1.234375 -3.671875q0 -2.453125 1.25 -3.796875q1.265625 -1.34375 3.265625 -1.34375q1.9375 0 3.15625 1.328125q1.234375 1.3125 1.234375 3.703125q0 0.15625 0 0.4375l-7.21875 0q0.09375 1.59375 0.90625 2.453125q0.8125 0.84375 2.015625 0.84375q0.90625 0 1.546875 -0.46875q0.640625 -0.484375 1.015625 -1.515625zm-5.390625 -2.65625l5.40625 0q-0.109375 -1.21875 -0.625 -1.828125q-0.78125 -0.953125 -2.03125 -0.953125q-1.125 0 -1.90625 0.765625q-0.765625 0.75 -0.84375 2.015625zm9.141327 9.46875l0 -13.375l1.484375 0l0 1.25q0.53125 -0.734375 1.1875 -1.09375q0.671875 -0.375 1.625 -0.375q1.234375 0 2.171875 0.640625q0.953125 0.625 1.4375 1.796875q0.484375 1.15625 0.484375 2.546875q0 1.484375 -0.53125 2.671875q-0.53125 1.1875 -1.546875 1.828125q-1.015625 0.625 -2.140625 0.625q-0.8125 0 -1.46875 -0.34375q-0.65625 -0.34375 -1.0625 -0.875l0 4.703125l-1.640625 0zm1.484375 -8.484375q0 1.859375 0.75 2.765625q0.765625 0.890625 1.828125 0.890625q1.09375 0 1.875 -0.921875q0.78125 -0.9375 0.78125 -2.875q0 -1.84375 -0.765625 -2.765625q-0.75 -0.921875 -1.8125 -0.921875q-1.046875 0 -1.859375 0.984375q-0.796875 0.96875 -0.796875 2.84375zm12.469482 3.3125l0.234375 1.453125q-0.6875 0.140625 -1.234375 0.140625q-0.890625 0 -1.390625 -0.28125q-0.484375 -0.28125 -0.6875 -0.734375q-0.203125 -0.46875 -0.203125 -1.9375l0 -5.578125l-1.203125 0l0 -1.265625l1.203125 0l0 -2.390625l1.625 -0.984375l0 3.375l1.65625 0l0 1.265625l-1.65625 0l0 5.671875q0 0.6875 0.078125 0.890625q0.09375 0.203125 0.28125 0.328125q0.203125 0.109375 0.578125 0.109375q0.265625 0 0.71875 -0.0625zm1.6051636 -10.0l0 -1.890625l1.640625 0l0 1.890625l-1.640625 0zm0 11.46875l0 -9.671875l1.640625 0l0 9.671875l-1.640625 0zm3.5354614 -4.84375q0 -2.6875 1.484375 -3.96875q1.25 -1.078125 3.046875 -1.078125q2.0 0 3.2655945 1.3125q1.265625 1.296875 1.265625 3.609375q0 1.859375 -0.5625 2.9375q-0.5625 1.0625 -1.6405945 1.65625q-1.0625 0.59375 -2.328125 0.59375q-2.03125 0 -3.28125 -1.296875q-1.25 -1.3125 -1.25 -3.765625zm1.6875 0q0 1.859375 0.796875 2.796875q0.8125 0.921875 2.046875 0.921875q1.21875 0 2.03125 -0.921875q0.8125 -0.9375 0.8125 -2.84375q0 -1.796875 -0.8125 -2.71875q-0.8125 -0.921875 -2.03125 -0.921875q-1.234375 0 -2.046875 0.921875q-0.796875 0.90625 -0.796875 2.765625zm9.297577 4.84375l0 -9.671875l1.46875 0l0 1.375q1.0625 -1.59375 3.078125 -1.59375q0.875 0 1.609375 0.3125q0.734375 0.3125 1.09375 0.828125q0.375 0.5 0.515625 1.203125q0.09375 0.453125 0.09375 1.59375l0 5.953125l-1.640625 0l0 -5.890625q0 -1.0 -0.203125 -1.484375q-0.1875 -0.5 -0.671875 -0.796875q-0.484375 -0.296875 -1.140625 -0.296875q-1.046875 0 -1.8125 0.671875q-0.75 0.65625 -0.75 2.515625l0 5.28125l-1.640625 0z" fill-rule="nonzero"/><path fill="#000000" fill-opacity="0.0" d="m204.84961 253.27559l55.46457 0l0 35.43306l-55.46457 0z" fill-rule="evenodd"/><path fill="#efefef" d="m221.70898 277.0862l1.6875 0.203125q-0.40625 1.484375 -1.484375 2.3125q-1.078125 0.8125 -2.765625 0.8125q-2.125 0 -3.375 -1.296875q-1.234375 -1.3125 -1.234375 -3.671875q0 -2.453125 1.25 -3.796875q1.265625 -1.34375 3.265625 -1.34375q1.9375 0 3.15625 1.328125q1.234375 1.3125 1.234375 3.703125q0 0.15625 0 0.4375l-7.21875 0q0.09375 1.59375 0.90625 2.453125q0.8125 0.84375 2.015625 0.84375q0.90625 0 1.546875 -0.46875q0.640625 -0.484375 1.015625 -1.515625zm-5.390625 -2.65625l5.40625 0q-0.109375 -1.21875 -0.625 -1.828125q-0.78125 -0.953125 -2.03125 -0.953125q-1.125 0 -1.90625 0.765625q-0.765625 0.75 -0.84375 2.015625zm14.860092 5.765625l-1.640625 0l0 -10.453125q-0.59375 0.5625 -1.5625 1.140625q-0.953125 0.5625 -1.71875 0.84375l0 -1.59375q1.375 -0.640625 2.40625 -1.5625q1.03125 -0.921875 1.453125 -1.78125l1.0625 0l0 13.40625z" fill-rule="nonzero"/><path fill="#000000" fill-opacity="0.0" d="m244.47952 336.13516l55.46457 0l0 35.433075l-55.46457 0z" fill-rule="evenodd"/><path fill="#f3f3f3" d="m261.3389 359.9458l1.6875 0.203125q-0.40625 1.484375 -1.484375 2.3125q-1.078125 0.8125 -2.765625 0.8125q-2.125 0 -3.375 -1.296875q-1.234375 -1.3125 -1.234375 -3.671875q0 -2.453125 1.25 -3.796875q1.265625 -1.34375 3.265625 -1.34375q1.9375 0 3.15625 1.328125q1.234375 1.3125 1.234375 3.703125q0 0.15625 0 0.4375l-7.21875 0q0.09375 1.59375 0.90625 2.453125q0.8125 0.84375 2.015625 0.84375q0.90625 0 1.546875 -0.46875q0.640625 -0.484375 1.015625 -1.515625zm-5.390625 -2.65625l5.40625 0q-0.109375 -1.21875 -0.625 -1.828125q-0.78125 -0.953125 -2.03125 -0.953125q-1.125 0 -1.90625 0.765625q-0.765625 0.75 -0.84375 2.015625zm17.297607 4.1875l0 1.578125l-8.828125 0q-0.015625 -0.59375 0.1875 -1.140625q0.34375 -0.90625 1.078125 -1.78125q0.75 -0.875 2.15625 -2.015625q2.171875 -1.78125 2.9375 -2.828125q0.765625 -1.046875 0.765625 -1.96875q0 -0.984375 -0.703125 -1.640625q-0.6875 -0.671875 -1.8125 -0.671875q-1.1875 0 -1.90625 0.71875q-0.703125 0.703125 -0.703125 1.953125l-1.6875 -0.171875q0.171875 -1.890625 1.296875 -2.875q1.140625 -0.984375 3.03125 -0.984375q1.921875 0 3.046875 1.0625q1.125 1.0625 1.125 2.640625q0 0.796875 -0.328125 1.578125q-0.328125 0.78125 -1.09375 1.640625q-0.75 0.84375 -2.53125 2.34375q-1.46875 1.234375 -1.890625 1.6875q-0.421875 0.4375 -0.6875 0.875l6.546875 0z" fill-rule="nonzero"/><path fill="#000000" fill-opacity="0.0" d="m334.7638 335.08136l55.46454 0l0 54.26773l-55.46454 0z" fill-rule="evenodd"/><path fill="#f3f3f3" d="m345.67004 369.68137l0 -3.65625l3.671875 0l0 3.65625l-3.671875 0zm7.405945 0l0 -3.65625l3.671875 0l0 3.65625l-3.671875 0zm7.4059753 0l0 -3.65625l3.671875 0l0 3.65625l-3.671875 0z" fill-rule="nonzero"/><path fill="#cfe2f3" d="m581.5512 292.9029l0 0c0 -9.784576 7.389038 -17.716553 16.503906 -17.716553l0 0c4.377136 0 8.574951 1.8665771 11.670044 5.1890564c3.0950928 3.3225098 4.8339233 7.828766 4.8339233 12.527496l0 0c0 9.784576 -7.389099 17.716522 -16.503967 17.716522l0 0c-9.114868 0 -16.503906 -7.931946 -16.503906 -17.716522z" fill-rule="evenodd"/><path stroke="#76a5af" stroke-width="2.0" stroke-linejoin="round" stroke-linecap="butt" d="m581.5512 292.9029l0 0c0 -9.784576 7.389038 -17.716553 16.503906 -17.716553l0 0c4.377136 0 8.574951 1.8665771 11.670044 5.1890564c3.0950928 3.3225098 4.8339233 7.828766 4.8339233 12.527496l0 0c0 9.784576 -7.389099 17.716522 -16.503967 17.716522l0 0c-9.114868 0 -16.503906 -7.931946 -16.503906 -17.716522z" fill-rule="evenodd"/><path fill="#000000" fill-opacity="0.0" d="m405.09317 461.35434l-74.456696 81.322845" fill-rule="evenodd"/><path stroke="#cc0000" stroke-width="3.0" stroke-linejoin="round" stroke-linecap="butt" stroke-dasharray="12.0,9.0" d="m405.09317 461.35434l-62.301575 68.04678" fill-rule="evenodd"/><path fill="#cc0000" stroke="#cc0000" stroke-width="3.0" stroke-linecap="butt" d="m339.13687 526.055l-5.538788 13.387451l12.848267 -6.6951294z" fill-rule="evenodd"/><path fill="#000000" fill-opacity="0.0" d="m598.0551 310.61942l0 255.874l-202.58267 0" fill-rule="evenodd"/><path stroke="#6d9eeb" stroke-width="3.0" stroke-linejoin="round" stroke-linecap="butt" d="m598.0551 310.61942l0 255.874l-184.58267 0" fill-rule="evenodd"/><path fill="#6d9eeb" stroke="#6d9eeb" stroke-width="3.0" stroke-linecap="butt" d="m413.47244 561.53827l-13.614288 4.955139l13.614288 4.9552z" fill-rule="evenodd"/></g></svg>