<svg version="1.1" viewBox="0.0 0.0 480.0 480.0" fill="none" stroke="none" stroke-linecap="square" stroke-miterlimit="10" xmlns:xlink="http://www.w3.org/1999/xlink" xmlns="http://www.w3.org/2000/svg"><clipPath id="p.0"><path d="m0 0l480.0 0l0 480.0l-480.0 0l0 -480.0z" clip-rule="nonzero"/></clipPath><g clip-path="url(#p.0)"><path fill="#000000" fill-opacity="0.0" d="m0 0l480.0 0l0 480.0l-480.0 0z" fill-rule="evenodd"/><path fill="#434343" d="m-1.9396325 0.19422573l481.95276 0l0 480.0l-481.95276 0z" fill-rule="evenodd"/><path fill="#cfe2f3" d="m131.79527 204.68126l207.0497 0c2.4823608 0 4.863037 0.9861145 6.618347 2.7414093c1.7552795 1.7552948 2.741394 4.1359863 2.741394 6.618347l0 46.79773l-216.40944 0z" fill-rule="evenodd"/><path stroke="#45818e" stroke-width="2.0" stroke-linejoin="round" stroke-linecap="butt" d="m131.79527 204.68126l207.0497 0c2.4823608 0 4.863037 0.9861145 6.618347 2.7414093c1.7552795 1.7552948 2.741394 4.1359863 2.741394 6.618347l0 46.79773l-216.40944 0z" fill-rule="evenodd"/><path fill="#000000" d="m167.41331 239.68l0 -13.359375l5.6875 0q2.140625 0 3.109375 0.359375q0.96875 0.359375 1.546875 1.28125q0.578125 0.921875 0.578125 2.109375q0 1.5 -0.890625 2.484375q-0.875 0.96875 -2.625 1.234375q0.875 0.5 1.4375 1.125q0.578125 0.609375 1.53125 2.15625l1.640625 2.609375l-3.234375 0l-1.9375 -2.90625q-1.046875 -1.5625 -1.4375 -1.96875q-0.375 -0.40625 -0.8125 -0.546875q-0.421875 -0.15625 -1.34375 -0.15625l-0.546875 0l0 5.578125l-2.703125 0zm2.703125 -7.703125l2.0 0q1.9375 0 2.421875 -0.15625q0.484375 -0.171875 0.75 -0.578125q0.28125 -0.40625 0.28125 -1.0q0 -0.671875 -0.359375 -1.078125q-0.359375 -0.421875 -1.015625 -0.53125q-0.328125 -0.046875 -1.96875 -0.046875l-2.109375 0l0 3.390625zm16.347946 4.625l2.546875 0.421875q-0.484375 1.40625 -1.546875 2.140625q-1.0625 0.734375 -2.65625 0.734375q-2.515625 0 -3.734375 -1.65625q-0.953125 -1.3125 -0.953125 -3.328125q0 -2.40625 1.25 -3.765625q1.265625 -1.359375 3.1875 -1.359375q2.15625 0 3.40625 1.421875q1.25 1.421875 1.1875 4.375l-6.40625 0q0.03125 1.140625 0.609375 1.78125q0.59375 0.625 1.484375 0.625q0.59375 0 1.0 -0.328125q0.421875 -0.328125 0.625 -1.0625zm0.15625 -2.59375q-0.03125 -1.109375 -0.578125 -1.6875q-0.546875 -0.578125 -1.328125 -0.578125q-0.84375 0 -1.390625 0.609375q-0.546875 0.609375 -0.53125 1.65625l3.828125 0zm4.547592 -4.0l2.390625 0l0 1.421875q0.46875 -0.734375 1.25 -1.1875q0.796875 -0.453125 1.765625 -0.453125q1.6875 0 2.859375 1.328125q1.171875 1.3125 1.171875 3.671875q0 2.421875 -1.1875 3.765625q-1.1875 1.34375 -2.859375 1.34375q-0.8125 0 -1.46875 -0.3125q-0.640625 -0.328125 -1.359375 -1.09375l0 4.875l-2.5625 0l0 -13.359375zm2.53125 4.671875q0 1.625 0.640625 2.40625q0.65625 0.78125 1.578125 0.78125q0.90625 0 1.484375 -0.71875q0.59375 -0.71875 0.59375 -2.34375q0 -1.515625 -0.609375 -2.25q-0.609375 -0.75 -1.515625 -0.75q-0.9375 0 -1.5625 0.734375q-0.609375 0.71875 -0.609375 2.140625zm14.536606 1.921875l2.546875 0.421875q-0.484375 1.40625 -1.546875 2.140625q-1.0625 0.734375 -2.65625 0.734375q-2.515625 0 -3.734375 -1.65625q-0.953125 -1.3125 -0.953125 -3.328125q0 -2.40625 1.25 -3.765625q1.265625 -1.359375 3.1875 -1.359375q2.15625 0 3.40625 1.421875q1.25 1.421875 1.1875 4.375l-6.40625 0q0.03125 1.140625 0.609375 1.78125q0.59375 0.625 1.484375 0.625q0.59375 0 1.0 -0.328125q0.421875 -0.328125 0.625 -1.0625zm0.15625 -2.59375q-0.03125 -1.109375 -0.578125 -1.6875q-0.546875 -0.578125 -1.328125 -0.578125q-0.84375 0 -1.390625 0.609375q-0.546875 0.609375 -0.53125 1.65625l3.828125 0zm9.063217 -4.0l0 2.03125l-1.75 0l0 3.90625q0 1.1875 0.046875 1.390625q0.046875 0.1875 0.21875 0.3125q0.1875 0.125 0.4375 0.125q0.359375 0 1.03125 -0.25l0.21875 2.0q-0.890625 0.375 -2.015625 0.375q-0.703125 0 -1.265625 -0.234375q-0.546875 -0.234375 -0.8125 -0.59375q-0.25 -0.375 -0.34375 -1.0q-0.09375 -0.453125 -0.09375 -1.8125l0 -4.21875l-1.171875 0l0 -2.03125l1.171875 0l0 -1.921875l2.578125 -1.5l0 3.421875l1.75 0zm1.775177 -1.3125l0 -2.375l2.5625 0l0 2.375l-2.5625 0zm0 10.984375l0 -9.671875l2.5625 0l0 9.671875l-2.5625 0zm9.620804 -9.671875l0 2.03125l-1.75 0l0 3.90625q0 1.1875 0.046875 1.390625q0.046875 0.1875 0.21875 0.3125q0.1875 0.125 0.4375 0.125q0.359375 0 1.03125 -0.25l0.21875 2.0q-0.890625 0.375 -2.015625 0.375q-0.703125 0 -1.265625 -0.234375q-0.546875 -0.234375 -0.8125 -0.59375q-0.25 -0.375 -0.34375 -1.0q-0.09375 -0.453125 -0.09375 -1.8125l0 -4.21875l-1.171875 0l0 -2.03125l1.171875 0l0 -1.921875l2.578125 -1.5l0 3.421875l1.75 0zm1.775177 -1.3125l0 -2.375l2.5625 0l0 2.375l-2.5625 0zm0 10.984375l0 -9.671875l2.5625 0l0 9.671875l-2.5625 0zm7.839554 0l-3.90625 -9.671875l2.6875 0l1.828125 4.9375l0.53125 1.640625q0.203125 -0.625 0.265625 -0.828125q0.125 -0.40625 0.265625 -0.8125l1.84375 -4.9375l2.625 0l-3.84375 9.671875l-2.296875 0zm13.313217 -3.078125l2.546875 0.421875q-0.484375 1.40625 -1.546875 2.140625q-1.0625 0.734375 -2.65625 0.734375q-2.515625 0 -3.734375 -1.65625q-0.953125 -1.3125 -0.953125 -3.328125q0 -2.40625 1.25 -3.765625q1.265625 -1.359375 3.1875 -1.359375q2.15625 0 3.40625 1.421875q1.25 1.421875 1.1875 4.375l-6.40625 0q0.03125 1.140625 0.609375 1.78125q0.59375 0.625 1.484375 0.625q0.59375 0 1.0 -0.328125q0.421875 -0.328125 0.625 -1.0625zm0.15625 -2.59375q-0.03125 -1.109375 -0.578125 -1.6875q-0.546875 -0.578125 -1.328125 -0.578125q-0.84375 0 -1.390625 0.609375q-0.546875 0.609375 -0.53125 1.65625l3.828125 0zm9.824646 -7.6875l5.34375 0q1.59375 0 2.359375 0.140625q0.78125 0.125 1.390625 0.546875q0.625 0.421875 1.03125 1.125q0.40625 0.6875 0.40625 1.546875q0 0.9375 -0.5 1.734375q-0.5 0.78125 -1.375 1.171875q1.21875 0.359375 1.875 1.21875q0.65625 0.84375 0.65625 2.0q0 0.921875 -0.421875 1.78125q-0.421875 0.859375 -1.15625 1.375q-0.734375 0.515625 -1.796875 0.625q-0.6875 0.078125 -3.265625 0.09375l-4.546875 0l0 -13.359375zm2.703125 2.234375l0 3.078125l1.765625 0q1.578125 0 1.953125 -0.046875q0.703125 -0.078125 1.09375 -0.46875q0.40625 -0.40625 0.40625 -1.046875q0 -0.625 -0.34375 -1.0q-0.34375 -0.390625 -1.015625 -0.484375q-0.40625 -0.03125 -2.3125 -0.03125l-1.546875 0zm0 5.296875l0 3.578125l2.5 0q1.453125 0 1.84375 -0.078125q0.609375 -0.109375 0.984375 -0.53125q0.375 -0.421875 0.375 -1.140625q0 -0.59375 -0.296875 -1.015625q-0.28125 -0.421875 -0.84375 -0.609375q-0.546875 -0.203125 -2.390625 -0.203125l-2.171875 0zm10.754211 5.828125l0 -13.359375l2.5625 0l0 13.359375l-2.5625 0zm4.5895386 -4.96875q0 -1.28125 0.625 -2.46875q0.625 -1.203125 1.78125 -1.828125q1.15625 -0.625 2.578125 -0.625q2.1875 0 3.59375 1.421875q1.40625 1.421875 1.40625 3.609375q0 2.1875 -1.421875 3.640625q-1.421875 1.4375 -3.5625 1.4375q-1.328125 0 -2.546875 -0.59375q-1.203125 -0.609375 -1.828125 -1.765625q-0.625 -1.171875 -0.625 -2.828125zm2.625 0.125q0 1.453125 0.671875 2.21875q0.6875 0.75 1.6875 0.75q1.0 0 1.671875 -0.75q0.6875 -0.765625 0.6875 -2.234375q0 -1.421875 -0.6875 -2.1875q-0.671875 -0.765625 -1.671875 -0.765625q-1.0 0 -1.6875 0.765625q-0.671875 0.765625 -0.671875 2.203125zm17.802246 -1.96875l-2.53125 0.453125q-0.125 -0.75 -0.578125 -1.125q-0.453125 -0.390625 -1.171875 -0.390625q-0.953125 0 -1.53125 0.65625q-0.5625 0.65625 -0.5625 2.203125q0 1.734375 0.578125 2.4375q0.578125 0.703125 1.546875 0.703125q0.734375 0 1.203125 -0.40625q0.46875 -0.421875 0.65625 -1.421875l2.515625 0.421875q-0.390625 1.734375 -1.515625 2.625q-1.109375 0.875 -2.96875 0.875q-2.125 0 -3.390625 -1.328125q-1.25 -1.34375 -1.25 -3.71875q0 -2.390625 1.265625 -3.71875q1.265625 -1.34375 3.421875 -1.34375q1.765625 0 2.796875 0.765625q1.046875 0.75 1.515625 2.3125zm1.8444519 6.8125l0 -13.359375l2.5625 0l0 7.09375l3.0 -3.40625l3.140625 0l-3.296875 3.53125l3.53125 6.140625l-2.75 0l-2.4375 -4.34375l-1.1875 1.25l0 3.09375l-2.5625 0z" fill-rule="nonzero"/><path fill="#000000" fill-opacity="0.0" d="m240.0 64.10625l0 42.204727" fill-rule="evenodd"/><path stroke="#efefef" stroke-width="2.0" stroke-linejoin="round" stroke-linecap="butt" d="m240.0 64.10625l0 30.204727" fill-rule="evenodd"/><path fill="#efefef" stroke="#efefef" stroke-width="2.0" stroke-linecap="butt" d="m236.69653 94.310974l3.3034668 9.076195l3.3034668 -9.076195z" fill-rule="evenodd"/><path fill="#efefef" d="m56.178474 322.15457l1.3374062 2.626587l3.2568283 0l0 1.9369202l1.7336731 0l0 -1.9369202l7.566242 0c1.3374023 0 2.215248 -0.10760498 2.6335297 -0.32281494c0.41553497 -0.21520996 0.75125885 -0.5869446 1.0071869 -1.1152039c0.2559204 -0.5282593 0.38388062 -1.2717285 0.38388062 -2.2304077c0 -0.5869446 -0.06604767 -1.2521362 -0.19813538 -1.9956055l-1.968956 0.38150024c0.057792664 0.4793396 0.08668518 0.8657532 0.08668518 1.1592407c0 0.3912964 -0.05366516 0.6929016 -0.16098785 0.9048767c-0.10732269 0.2086792 -0.2517929 0.36032104 -0.43341827 0.4548645c-0.18161774 0.091308594 -0.590271 0.13696289 -1.2259521 0.13696289l-7.690075 0l0 -2.6559448l-1.7336731 0l0 2.6559448l-4.5942345 0z" fill-rule="evenodd"/><path fill="#efefef" d="m60.475506 311.19333c0 0.6163025 0.14860153 1.1820374 0.4458046 1.6972656c0.29719925 0.5119324 0.9122391 1.071167 1.8451233 1.6776733l-1.9937248 0l0 2.3771362l13.151142 0l0 -2.6412659l-6.8851547 0c-0.9411392 0 -1.8079758 -0.14672852 -2.6005096 -0.44018555c-0.52009964 -0.1956482 -0.9259987 -0.52337646 -1.2176971 -0.9831543c-0.29444885 -0.45977783 -0.44167328 -0.97824097 -0.44167328 -1.5554199c0 -0.6456299 0.16098404 -1.2912598 0.48295212 -1.9369202l-2.0680237 -0.9097595c-0.47882462 0.91955566 -0.71823883 1.8244324 -0.71823883 2.7146301z" fill-rule="evenodd"/><path fill="#efefef" d="m60.77271 306.96732l8.148258 0c0.9493942 0 1.642868 -0.05380249 2.0804138 -0.16140747c0.65219116 -0.15652466 1.2039337 -0.42718506 1.6552429 -0.8119507c0.44854736 -0.388031 0.8214264 -0.9798889 1.1186295 -1.7755127c0.29720306 -0.7989197 0.44580078 -1.6581421 0.44580078 -2.5776978c0 -2.0836487 -0.74300385 -3.7319946 -2.229004 -4.9450073l1.9318008 0l0 -2.3624878l-13.151142 0l0 2.6412659l7.046139 0c1.1227646 0 1.9799652 0.14511108 2.5716171 0.43533325c0.5888977 0.2869568 1.055336 0.77770996 1.3993225 1.4722595c0.3412323 0.69454956 0.51184845 1.4380188 0.51184845 2.2304077c0 0.7923584 -0.16648865 1.4575806 -0.49946594 1.9956055c-0.3357315 0.5380554 -0.7966614 0.89019775 -1.3828125 1.0565186c-0.40452576 0.10760498 -1.1888046 0.16140747 -2.3528366 0.16140747l-7.293812 0z" fill-rule="evenodd"/><path fill="#efefef" d="m62.308247 283.76822c0 -1.34021 0.42929077 -2.4309387 1.2878723 -3.2722473c0.55311966 -0.54782104 1.3828087 -0.8804016 2.4890556 -0.99780273l0 8.701508c-1.147522 -0.08804321 -2.0638962 -0.54455566 -2.7491074 -1.3695679c-0.685215 -0.8282471 -1.0278206 -1.848877 -1.0278206 -3.0618896zm-1.8327408 0.029327393c0 2.1521606 0.61091614 3.9032288 1.8327408 5.2532043c1.2218285 1.3499756 2.9389915 2.0249634 5.1514854 2.0249634c2.1381989 0 3.8003235 -0.6668396 4.986374 -2.0005188c1.1832962 -1.3369446 1.7749481 -3.14505 1.7749481 -5.4243774c0 -1.8097534 -0.3714981 -3.296692 -1.114502 -4.460785c-0.74300385 -1.1641235 -1.7873383 -1.9613953 -3.1329956 -2.3918152l-0.28482056 2.729309c0.9411392 0.401062 1.6263504 0.94400024 2.0556412 1.6287842c0.42929077 0.6847534 0.64393616 1.511383 0.64393616 2.479828c0 1.3010864 -0.38388062 2.3869324 -1.1516495 3.2575684c-0.76776886 0.870636 -1.8740234 1.3548584 -3.3187485 1.4526978l0 -11.6215515c-0.26417542 -0.009796143 -0.4623108 -0.014678955 -0.5943985 -0.014678955c-2.1712189 0 -3.855362 0.66030884 -5.0524216 1.980957c-1.1970596 1.3206177 -1.7955894 3.022766 -1.7955894 5.106415z" fill-rule="evenodd"/><path fill="#cfe2f3" d="m201.76965 24.687664l76.46069 0l0 0c10.016571 0 18.136597 8.82415 18.136597 19.70929c0 10.885143 -8.120026 19.709293 -18.136597 19.709293l-76.46069 0l0 0c-10.016556 0 -18.136581 -8.82415 -18.136581 -19.709293c0 -10.885139 8.120026 -19.70929 18.136581 -19.70929z" fill-rule="evenodd"/><path stroke="#45818e" stroke-width="2.0" stroke-linejoin="round" stroke-linecap="butt" d="m201.76965 24.687664l76.46069 0l0 0c10.016571 0 18.136597 8.82415 18.136597 19.70929c0 10.885143 -8.120026 19.709293 -18.136597 19.709293l-76.46069 0l0 0c-10.016556 0 -18.136581 -8.82415 -18.136581 -19.709293c0 -10.885139 8.120026 -19.70929 18.136581 -19.70929z" fill-rule="evenodd"/><path fill="#000000" d="m220.21898 48.551327l2.5625 -0.390625q0.171875 0.75 0.671875 1.140625q0.5 0.390625 1.40625 0.390625q0.984375 0 1.484375 -0.375q0.34375 -0.25 0.34375 -0.671875q0 -0.296875 -0.1875 -0.484375q-0.1875 -0.1875 -0.859375 -0.34375q-3.09375 -0.6875 -3.921875 -1.25q-1.140625 -0.78125 -1.140625 -2.171875q0 -1.265625 0.984375 -2.109375q1.0 -0.859375 3.078125 -0.859375q1.984375 0 2.953125 0.65625q0.96875 0.640625 1.328125 1.90625l-2.40625 0.4375q-0.15625 -0.5625 -0.59375 -0.859375q-0.421875 -0.296875 -1.234375 -0.296875q-1.0 0 -1.4375 0.28125q-0.296875 0.203125 -0.296875 0.515625q0 0.265625 0.25 0.46875q0.34375 0.25 2.390625 0.71875q2.046875 0.453125 2.859375 1.140625q0.796875 0.671875 0.796875 1.890625q0 1.34375 -1.109375 2.296875q-1.109375 0.953125 -3.28125 0.953125q-1.984375 0 -3.140625 -0.796875q-1.140625 -0.8125 -1.5 -2.1875zm15.719467 -6.90625l0 2.03125l-1.75 0l0 3.90625q0 1.1875 0.046875 1.390625q0.046875 0.1875 0.21875 0.3125q0.1875 0.125 0.4375 0.125q0.359375 0 1.03125 -0.25l0.21875 2.0q-0.890625 0.375 -2.015625 0.375q-0.703125 0 -1.265625 -0.234375q-0.546875 -0.234375 -0.8125 -0.59375q-0.25 -0.375 -0.34375 -1.0q-0.09375 -0.453125 -0.09375 -1.8125l0 -4.21875l-1.171875 0l0 -2.03125l1.171875 0l0 -1.921875l2.578125 -1.5l0 3.421875l1.75 0zm3.681427 2.953125l-2.328125 -0.421875q0.40625 -1.40625 1.359375 -2.078125q0.953125 -0.671875 2.84375 -0.671875q1.703125 0 2.546875 0.40625q0.84375 0.40625 1.171875 1.03125q0.34375 0.625 0.34375 2.28125l-0.015625 3.0q0 1.265625 0.109375 1.875q0.125 0.609375 0.46875 1.296875l-2.53125 0q-0.109375 -0.25 -0.25 -0.75q-0.0625 -0.234375 -0.09375 -0.3125q-0.65625 0.640625 -1.40625 0.96875q-0.734375 0.3125 -1.59375 0.3125q-1.484375 0 -2.34375 -0.8125q-0.859375 -0.8125 -0.859375 -2.046875q0 -0.828125 0.390625 -1.46875q0.390625 -0.640625 1.09375 -0.96875q0.703125 -0.34375 2.03125 -0.609375q1.796875 -0.328125 2.484375 -0.625l0 -0.25q0 -0.75 -0.359375 -1.0625q-0.359375 -0.3125 -1.375 -0.3125q-0.6875 0 -1.078125 0.28125q-0.375 0.265625 -0.609375 0.9375zm3.421875 2.078125q-0.484375 0.15625 -1.5625 0.390625q-1.0625 0.21875 -1.390625 0.4375q-0.5 0.359375 -0.5 0.90625q0 0.53125 0.40625 0.9375q0.40625 0.390625 1.015625 0.390625q0.703125 0 1.328125 -0.46875q0.46875 -0.34375 0.609375 -0.84375q0.09375 -0.328125 0.09375 -1.25l0 -0.5zm7.500717 4.640625l-2.5625 0l0 -9.671875l2.375 0l0 1.375q0.609375 -0.984375 1.09375 -1.28125q0.484375 -0.3125 1.109375 -0.3125q0.875 0 1.6875 0.484375l-0.796875 2.234375q-0.640625 -0.421875 -1.203125 -0.421875q-0.53125 0 -0.90625 0.296875q-0.375 0.296875 -0.59375 1.078125q-0.203125 0.765625 -0.203125 3.234375l0 2.984375zm9.244644 -9.671875l0 2.03125l-1.75 0l0 3.90625q0 1.1875 0.046875 1.390625q0.046875 0.1875 0.21875 0.3125q0.1875 0.125 0.4375 0.125q0.359375 0 1.03125 -0.25l0.21875 2.0q-0.890625 0.375 -2.015625 0.375q-0.703125 0 -1.265625 -0.234375q-0.546875 -0.234375 -0.8125 -0.59375q-0.25 -0.375 -0.34375 -1.0q-0.09375 -0.453125 -0.09375 -1.8125l0 -4.21875l-1.171875 0l0 -2.03125l1.171875 0l0 -1.921875l2.578125 -1.5l0 3.421875l1.75 0z" fill-rule="nonzero"/><path fill="#000000" fill-opacity="0.0" d="m111.11811 356.45593l-24.999641 0l0 -222.04723l123.14137 0" fill-rule="evenodd"/><path stroke="#efefef" stroke-width="2.0" stroke-linejoin="round" stroke-linecap="butt" d="m111.11811 356.45596l-24.999641 0l0 -222.04726l111.14137 0" fill-rule="evenodd"/><path fill="#efefef" stroke="#efefef" stroke-width="2.0" stroke-linecap="butt" d="m197.25984 137.71216l9.076202 -3.3034515l-9.076202 -3.3034668z" fill-rule="evenodd"/><path fill="#e69138" d="m209.25937 134.39369l0 0c0 -15.507469 13.762833 -28.07875 30.740158 -28.07875l0 0c16.97731 0 30.740158 12.571281 30.740158 28.07875l0 0c0 15.507446 -13.762848 28.078735 -30.740158 28.078735l0 0c-16.977325 0 -30.740158 -12.571289 -30.740158 -28.078735z" fill-rule="evenodd"/><path stroke="#434343" stroke-width="2.0" stroke-linejoin="round" stroke-linecap="butt" d="m209.25937 134.39369l0 0c0 -15.507469 13.762833 -28.07875 30.740158 -28.07875l0 0c16.97731 0 30.740158 12.571281 30.740158 28.07875l0 0c0 15.507446 -13.762848 28.078735 -30.740158 28.078735l0 0c-16.977325 0 -30.740158 -12.571289 -30.740158 -28.078735z" fill-rule="evenodd"/><path fill="#000000" d="m237.48169 141.31369l-2.390625 0l0 -1.421875q-0.59375 0.828125 -1.40625 1.234375q-0.796875 0.40625 -1.609375 0.40625q-1.671875 0 -2.859375 -1.34375q-1.1875 -1.34375 -1.1875 -3.75q0 -2.453125 1.15625 -3.734375q1.15625 -1.28125 2.921875 -1.28125q1.625 0 2.8125 1.34375l0 -4.8125076l2.5625 0l0 13.359383zm-6.84375 -5.046875q0 1.546875 0.4375 2.234375q0.609375 1.015625 1.71875 1.015625q0.890625 0 1.5 -0.75q0.625 -0.765625 0.625 -2.25q0 -1.671875 -0.609375 -2.40625q-0.59375 -0.734375 -1.53125 -0.734375q-0.90625 0 -1.53125 0.734375q-0.609375 0.71875 -0.609375 2.15625zm8.770981 0.078125q0 -1.28125 0.625 -2.46875q0.625 -1.203125 1.78125 -1.828125q1.15625 -0.625 2.578125 -0.625q2.1875 0 3.59375 1.421875q1.40625 1.421875 1.40625 3.609375q0 2.1875 -1.421875 3.640625q-1.421875 1.4375 -3.5625 1.4375q-1.328125 0 -2.546875 -0.59375q-1.203125 -0.609375 -1.828125 -1.765625q-0.625 -1.171875 -0.625 -2.828125zm2.625 0.125q0 1.453125 0.671875 2.21875q0.6875 0.75 1.6875 0.75q1.0 0 1.671875 -0.75q0.6875 -0.765625 0.6875 -2.234375q0 -1.421875 -0.6875 -2.1875q-0.671875 -0.765625 -1.671875 -0.765625q-1.0 0 -1.6875 0.765625q-0.671875 0.765625 -0.671875 2.203125z" fill-rule="nonzero"/><path fill="#000000" fill-opacity="0.0" d="m239.99953 162.47243l0 42.204727" fill-rule="evenodd"/><path stroke="#efefef" stroke-width="2.0" stroke-linejoin="round" stroke-linecap="butt" d="m239.99953 162.47243l0 30.204712" fill-rule="evenodd"/><path fill="#efefef" stroke="#efefef" stroke-width="2.0" stroke-linecap="butt" d="m236.69606 192.67714l3.3034668 9.076202l3.3034668 -9.076202z" fill-rule="evenodd"/><path fill="#f1c232" d="m111.11811 356.45593l128.8819 -43.984253l128.8819 43.984253l-128.8819 43.984253z" fill-rule="evenodd"/><path stroke="#e69138" stroke-width="2.0" stroke-linejoin="round" stroke-linecap="butt" d="m111.11811 356.45593l128.8819 -43.984253l128.8819 43.984253l-128.8819 43.984253z" fill-rule="evenodd"/><path fill="#000000" d="m207.8138 356.56345l-2.53125 0.453125q-0.125 -0.75 -0.578125 -1.125q-0.453125 -0.390625 -1.171875 -0.390625q-0.953125 0 -1.53125 0.65625q-0.5625 0.65625 -0.5625 2.203125q0 1.734375 0.578125 2.4375q0.578125 0.703125 1.546875 0.703125q0.734375 0 1.203125 -0.40625q0.46875 -0.421875 0.65625 -1.421875l2.515625 0.421875q-0.390625 1.734375 -1.515625 2.625q-1.109375 0.875 -2.96875 0.875q-2.125 0 -3.390625 -1.328125q-1.25 -1.34375 -1.25 -3.71875q0 -2.390625 1.265625 -3.71875q1.265625 -1.34375 3.421875 -1.34375q1.765625 0 2.796875 0.765625q1.046875 0.75 1.515625 2.3125zm1.3444672 1.84375q0 -1.28125 0.625 -2.46875q0.625 -1.203125 1.78125 -1.828125q1.15625 -0.625 2.578125 -0.625q2.1875 0 3.59375 1.421875q1.40625 1.421875 1.40625 3.609375q0 2.1875 -1.421875 3.640625q-1.421875 1.4375 -3.5625 1.4375q-1.328125 0 -2.546875 -0.59375q-1.203125 -0.609375 -1.828125 -1.765625q-0.625 -1.171875 -0.625 -2.828125zm2.625 0.125q0 1.453125 0.671875 2.21875q0.6875 0.75 1.6875 0.75q1.0 0 1.671875 -0.75q0.6875 -0.765625 0.6875 -2.234375q0 -1.421875 -0.6875 -2.1875q-0.671875 -0.765625 -1.671875 -0.765625q-1.0 0 -1.6875 0.765625q-0.671875 0.765625 -0.671875 2.203125zm18.161606 4.84375l-2.5625 0l0 -4.9375q0 -1.5625 -0.171875 -2.015625q-0.15625 -0.46875 -0.53125 -0.71875q-0.359375 -0.265625 -0.875 -0.265625q-0.671875 0 -1.203125 0.375q-0.53125 0.359375 -0.734375 0.96875q-0.1875 0.59375 -0.1875 2.21875l0 4.375l-2.546875 0l0 -9.671875l2.375 0l0 1.421875q1.265625 -1.640625 3.1875 -1.640625q0.84375 0 1.546875 0.3125q0.703125 0.296875 1.0625 0.78125q0.359375 0.46875 0.5 1.078125q0.140625 0.59375 0.140625 1.703125l0 6.015625zm11.474106 0l-2.390625 0l0 -1.421875q-0.59375 0.828125 -1.40625 1.234375q-0.796875 0.40625 -1.609375 0.40625q-1.671875 0 -2.859375 -1.34375q-1.1875 -1.34375 -1.1875 -3.75q0 -2.453125 1.15625 -3.734375q1.15625 -1.28125 2.921875 -1.28125q1.625 0 2.8125 1.34375l0 -4.8125l2.5625 0l0 13.359375zm-6.84375 -5.046875q0 1.546875 0.4375 2.234375q0.609375 1.015625 1.71875 1.015625q0.890625 0 1.5 -0.75q0.625 -0.765625 0.625 -2.25q0 -1.671875 -0.609375 -2.40625q-0.59375 -0.734375 -1.53125 -0.734375q-0.90625 0 -1.53125 0.734375q-0.609375 0.71875 -0.609375 2.15625zm9.364731 -5.9375l0 -2.375l2.5625 0l0 2.375l-2.5625 0zm0 10.984375l0 -9.671875l2.5625 0l0 9.671875l-2.5625 0zm9.620804 -9.671875l0 2.03125l-1.75 0l0 3.90625q0 1.1875 0.046875 1.390625q0.046875 0.1875 0.21875 0.3125q0.1875 0.125 0.4375 0.125q0.359375 0 1.03125 -0.25l0.21875 2.0q-0.890625 0.375 -2.015625 0.375q-0.703125 0 -1.265625 -0.234375q-0.546875 -0.234375 -0.8125 -0.59375q-0.25 -0.375 -0.34375 -1.0q-0.09375 -0.453125 -0.09375 -1.8125l0 -4.21875l-1.171875 0l0 -2.03125l1.171875 0l0 -1.921875l2.578125 -1.5l0 3.421875l1.75 0zm1.775177 -1.3125l0 -2.375l2.5625 0l0 2.375l-2.5625 0zm0 10.984375l0 -9.671875l2.5625 0l0 9.671875l-2.5625 0zm4.589569 -4.96875q0 -1.28125 0.625 -2.46875q0.625 -1.203125 1.78125 -1.828125q1.15625 -0.625 2.578125 -0.625q2.1875 0 3.59375 1.421875q1.40625 1.421875 1.40625 3.609375q0 2.1875 -1.421875 3.640625q-1.421875 1.4375 -3.5625 1.4375q-1.328125 0 -2.546875 -0.59375q-1.203125 -0.609375 -1.828125 -1.765625q-0.625 -1.171875 -0.625 -2.828125zm2.625 0.125q0 1.453125 0.671875 2.21875q0.6875 0.75 1.6875 0.75q1.0 0 1.671875 -0.75q0.6875 -0.765625 0.6875 -2.234375q0 -1.421875 -0.6875 -2.1875q-0.671875 -0.765625 -1.671875 -0.765625q-1.0 0 -1.6875 0.765625q-0.671875 0.765625 -0.671875 2.203125zm18.16159 4.84375l-2.5625 0l0 -4.9375q0 -1.5625 -0.171875 -2.015625q-0.15625 -0.46875 -0.53125 -0.71875q-0.359375 -0.265625 -0.875 -0.265625q-0.671875 0 -1.203125 0.375q-0.53125 0.359375 -0.734375 0.96875q-0.1875 0.59375 -0.1875 2.21875l0 4.375l-2.546875 0l0 -9.671875l2.375 0l0 1.421875q1.265625 -1.640625 3.1875 -1.640625q0.84375 0 1.546875 0.3125q0.703125 0.296875 1.0625 0.78125q0.359375 0.46875 0.5 1.078125q0.140625 0.59375 0.140625 1.703125l0 6.015625z" fill-rule="nonzero"/><path fill="#000000" fill-opacity="0.0" d="m240.0 260.83875l0 51.62204" fill-rule="evenodd"/><path stroke="#efefef" stroke-width="2.0" stroke-linejoin="round" stroke-linecap="butt" d="m240.0 260.8387l0 39.62207" fill-rule="evenodd"/><path fill="#efefef" stroke="#efefef" stroke-width="2.0" stroke-linecap="butt" d="m236.69653 300.4608l3.3034668 9.076172l3.3034668 -9.076172z" fill-rule="evenodd"/><path fill="#cfe2f3" d="m201.76965 424.97372l76.46069 0l0 0c10.016571 0 18.136597 8.824158 18.136597 19.70929c0 10.885162 -8.120026 19.70929 -18.136597 19.70929l-76.46069 0l0 0c-10.016556 0 -18.136581 -8.824127 -18.136581 -19.70929c0 -10.885132 8.120026 -19.70929 18.136581 -19.70929z" fill-rule="evenodd"/><path stroke="#45818e" stroke-width="2.0" stroke-linejoin="round" stroke-linecap="butt" d="m201.76965 424.97372l76.46069 0l0 0c10.016571 0 18.136597 8.824158 18.136597 19.70929c0 10.885162 -8.120026 19.70929 -18.136597 19.70929l-76.46069 0l0 0c-10.016556 0 -18.136581 -8.824127 -18.136581 -19.70929c0 -10.885132 8.120026 -19.70929 18.136581 -19.70929z" fill-rule="evenodd"/><path fill="#000000" d="m220.74733 448.8374l2.5625 -0.390625q0.171875 0.75 0.671875 1.140625q0.5 0.390625 1.40625 0.390625q0.984375 0 1.484375 -0.375q0.34375 -0.25 0.34375 -0.671875q0 -0.296875 -0.1875 -0.484375q-0.1875 -0.1875 -0.859375 -0.34375q-3.09375 -0.6875 -3.921875 -1.25q-1.140625 -0.78125 -1.140625 -2.171875q0 -1.265625 0.984375 -2.109375q1.0 -0.859375 3.078125 -0.859375q1.984375 0 2.953125 0.65625q0.96875 0.640625 1.328125 1.90625l-2.40625 0.4375q-0.15625 -0.5625 -0.59375 -0.859375q-0.421875 -0.296875 -1.234375 -0.296875q-1.0 0 -1.4375 0.28125q-0.296875 0.203125 -0.296875 0.515625q0 0.265625 0.25 0.46875q0.34375 0.25 2.390625 0.71875q2.046875 0.453125 2.859375 1.140625q0.796875 0.671875 0.796875 1.890625q0 1.34375 -1.109375 2.296875q-1.109375 0.953125 -3.28125 0.953125q-1.984375 0 -3.140625 -0.796875q-1.140625 -0.8125 -1.5 -2.1875zm15.719467 -6.90625l0 2.03125l-1.75 0l0 3.90625q0 1.1875 0.046875 1.390625q0.046875 0.1875 0.21875 0.3125q0.1875 0.125 0.4375 0.125q0.359375 0 1.03125 -0.25l0.21875 2.0q-0.890625 0.375 -2.015625 0.375q-0.703125 0 -1.265625 -0.234375q-0.546875 -0.234375 -0.8125 -0.59375q-0.25 -0.375 -0.34375 -1.0q-0.09375 -0.453125 -0.09375 -1.8125l0 -4.21875l-1.171875 0l0 -2.03125l1.171875 0l0 -1.921875l2.578125 -1.5l0 3.421875l1.75 0zm1.181427 4.703125q0 -1.28125 0.625 -2.46875q0.625 -1.203125 1.78125 -1.828125q1.15625 -0.625 2.578125 -0.625q2.1875 0 3.59375 1.421875q1.40625 1.421875 1.40625 3.609375q0 2.1875 -1.421875 3.640625q-1.421875 1.4375 -3.5625 1.4375q-1.328125 0 -2.546875 -0.59375q-1.203125 -0.609375 -1.828125 -1.765625q-0.625 -1.171875 -0.625 -2.828125zm2.625 0.125q0 1.453125 0.671875 2.21875q0.6875 0.75 1.6875 0.75q1.0 0 1.671875 -0.75q0.6875 -0.765625 0.6875 -2.234375q0 -1.421875 -0.6875 -2.1875q-0.671875 -0.765625 -1.671875 -0.765625q-1.0 0 -1.6875 0.765625q-0.671875 0.765625 -0.671875 2.203125zm9.286606 -4.828125l2.390625 0l0 1.421875q0.46875 -0.734375 1.25 -1.1875q0.796875 -0.453125 1.765625 -0.453125q1.6874847 0 2.8593597 1.328125q1.171875 1.3125 1.171875 3.671875q0 2.421875 -1.1875 3.765625q-1.1875 1.34375 -2.8593597 1.34375q-0.8125 0 -1.46875 -0.3125q-0.640625 -0.328125 -1.359375 -1.09375l0 4.875l-2.5625 0l0 -13.359375zm2.53125 4.671875q0 1.625 0.640625 2.40625q0.65625 0.78125 1.578125 0.78125q0.90625 0 1.484375 -0.71875q0.59373474 -0.71875 0.59373474 -2.34375q0 -1.515625 -0.60935974 -2.25q-0.609375 -0.75 -1.515625 -0.75q-0.9375 0 -1.5625 0.734375q-0.609375 0.71875 -0.609375 2.140625z" fill-rule="nonzero"/><path fill="#000000" fill-opacity="0.0" d="m368.8819 356.45593l25.000061 0l0 88.22049l-97.504 0" fill-rule="evenodd"/><path stroke="#e06666" stroke-width="2.0" stroke-linejoin="round" stroke-linecap="butt" d="m368.8819 356.45596l25.000061 0l0 88.22046l-85.504 0" fill-rule="evenodd"/><path fill="#e06666" stroke="#e06666" stroke-width="2.0" stroke-linecap="butt" d="m308.37796 441.37296l-9.076202 3.3034668l9.076202 3.3034668z" fill-rule="evenodd"/><path fill="#ea9999" d="m408.9602 387.06104l-0.6965637 0c-0.8372803 0 -1.47052 -0.14355469 -1.8996887 -0.4307251c-0.55584717 -0.37628174 -0.9944153 -0.9654541 -1.3157349 -1.7675171c-0.31896973 -0.802063 -0.4784546 -1.7180176 -0.4784546 -2.7478333c0 -1.0397034 0.16888428 -1.8302307 0.5065918 -2.3715515c0.33773804 -0.5379944 0.7598877 -0.80700684 1.2664795 -0.80700684c0.33068848 0 0.6308899 0.1237793 0.90060425 0.3713379c0.2720642 0.24752808 0.4784546 0.59906006 0.61917114 1.0545654c0.14071655 0.45547485 0.2673645 1.2327881 0.37994385 2.3319397c0.19699097 1.9407959 0.43621826 3.3963928 0.71765137 4.366791zm10.110657 -13.516327c0 -1.1684265 -0.15362549 -2.0777588 -0.46084595 -2.7279968c-0.30490112 -0.64694214 -0.7036133 -1.0991516 -1.196106 -1.3565979c-0.36587524 -0.18814087 -0.92523193 -0.28219604 -1.6780701 -0.28219604l-1.1925964 0l0 -2.3616638l-1.4775696 0l0 2.3616638l-9.730713 0l0 2.6586914l9.730713 0l0 3.074585l1.4775696 0l0 -3.074585l1.0342712 0c0.67544556 0 1.136322 0.16833496 1.3825684 0.5050049c0.24624634 0.33666992 0.36938477 0.91101074 0.36938477 1.7229614c0 0.4951172 -0.035186768 1.019928 -0.105529785 1.5744324l1.6569519 0.4010315c0.12664795 -0.9109802 0.18997192 -1.7427673 0.18997192 -2.4953308zm-4.2743225 10.11499c0 -1.3565979 -0.13253784 -2.5498047 -0.3975525 -3.5796204c-0.2626648 -1.0298157 -0.6390991 -1.8170166 -1.1292725 -2.3616333c-0.4878235 -0.5446167 -1.1292725 -0.9357605 -1.9243164 -1.1734009l-0.2532959 2.6141663c0.79507446 0.2871399 1.3485413 0.72943115 1.660492 1.3268738c0.31427002 0.600708 0.47140503 1.5298462 0.47140503 2.7874146c0 1.3466797 -0.21459961 2.3616638 -0.6437988 3.0448914c-0.31661987 0.5050049 -0.86190796 0.7575073 -1.6358643 0.7575073c-0.07034302 0 -0.23568726 -0.0049438477 -0.4960327 -0.014862061c-0.2532959 -1.0198975 -0.47140503 -2.609192 -0.6543274 -4.7678223c-0.09146118 -1.0595398 -0.1864624 -1.8516846 -0.28497314 -2.3764954c-0.14071655 -0.71295166 -0.3482666 -1.35495 -0.62268066 -1.9259644c-0.27438354 -0.5677185 -0.6390991 -1.0281677 -1.0940857 -1.3813477c-0.45263672 -0.34985352 -0.95336914 -0.5248108 -1.5021667 -0.5248108c-0.935791 0 -1.7050476 0.46539307 -2.3078003 1.3962097c-0.60040283 0.93078613 -0.90060425 2.2626038 -0.90060425 3.9954834c0 1.0496216 0.12313843 2.0315552 0.36938477 2.9458618c0.24627686 0.91760254 0.6684265 1.8714905 1.2664795 2.8616943c-0.52770996 0.07922363 -0.9885559 0.2574463 -1.3825684 0.5346985l0 2.792389c0.42919922 -0.33666992 0.87716675 -0.56274414 1.3438721 -0.6782837c0.46905518 -0.112213135 1.5866089 -0.16833496 3.3526306 -0.16833496l2.5329285 0c0.84432983 0 1.4283142 -0.044555664 1.7519531 -0.13366699c0.5206604 -0.15844727 0.9510498 -0.43569946 1.2911072 -0.8317871c0.34240723 -0.39608765 0.6261902 -1.0149536 0.8513489 -1.8566284c0.22515869 -0.8416748 0.33773804 -1.935852 0.33773804 -3.2825317z" fill-rule="evenodd"/><path fill="#ea9999" d="m418.807 393.8489l-15.472046 0l0 2.673584l15.472046 0z" fill-rule="evenodd"/><path fill="#ea9999" d="m414.79654 405.85022c0 -0.8218689 -0.07623291 -1.5925598 -0.22866821 -2.3121338c-0.15011597 -0.71624756 -0.33422852 -1.2823181 -0.55233765 -1.6982117c-0.2814331 -0.5545044 -0.6355896 -0.99349976 -1.062439 -1.3169556c-0.4244995 -0.3201599 -0.8865051 -0.48025513 -1.3860779 -0.48025513c-0.5487976 0 -1.0506897 0.19473267 -1.5056763 0.5842285c-0.45266724 0.39276123 -0.8079834 0.96710205 -1.0659485 1.7229614c-0.25564575 0.7591553 -0.5593567 2.119049 -0.91116333 4.079651c-0.26031494 1.4555969 -0.47491455 2.3665771 -0.6437988 2.7329712c-0.24624634 0.5248108 -0.5839844 0.7872009 -1.0131531 0.7872009c-0.4784546 0 -0.89593506 -0.2970581 -1.2524109 -0.8911743c-0.3541565 -0.5941162 -0.5312195 -1.505127 -0.5312195 -2.7329712c0 -1.2179565 0.200531 -2.1669006 0.601593 -2.8468628c0.4010315 -0.67663574 0.9779968 -1.0892029 1.730835 -1.2377319l-0.2955017 -2.6438599c-1.1890869 0.2970581 -2.0861816 0.9819641 -2.6912537 2.0546875c-0.60510254 1.0760193 -0.9076538 2.6388855 -0.9076538 4.688629c0 1.2377319 0.15246582 2.3467712 0.45733643 3.3270874c0.30725098 0.98028564 0.7399597 1.7295532 1.2981262 2.2477722c0.5605469 0.5215149 1.1574402 0.7822571 1.7906494 0.7822571c0.64730835 0 1.1890869 -0.21289062 1.6253052 -0.6386719c0.43624878 -0.42581177 0.7680969 -1.0133362 0.99560547 -1.7625732c0.22982788 -0.7459717 0.5241699 -2.0645752 0.8829956 -3.9558716c0.2532959 -1.3070984 0.41513062 -2.0942993 0.48550415 -2.3616638c0.13366699 -0.46539307 0.30252075 -0.80700684 0.5065613 -1.0248718c0.19702148 -0.21783447 0.41864014 -0.3267517 0.664917 -0.3267517c0.3869629 0 0.7247009 0.26239014 1.0131836 0.7872009c0.28845215 0.5248108 0.43270874 1.4011536 0.43270874 2.6289978c0 1.0397339 -0.16183472 1.8434448 -0.48550415 2.4111633c-0.32363892 0.5710144 -0.7739563 0.9159546 -1.3508911 1.0347595l0.2532959 2.6141663c0.7247009 -0.16833496 1.3028259 -0.47531128 1.734375 -0.92089844c0.4338684 -0.44558716 0.7774658 -1.137085 1.0307617 -2.0744934c0.2532959 -0.93408203 0.37994385 -2.0200195 0.37994385 -3.257782z" fill-rule="evenodd"/><path fill="#ea9999" d="m413.23456 422.38174c0 1.3565674 -0.36587524 2.4606628 -1.0976257 3.3122253c-0.47140503 0.5545349 -1.1785278 0.89120483 -2.121338 1.0100098l0 -8.807892c0.9779968 0.089141846 1.7590027 0.551239 2.342987 1.3862915c0.5839844 0.8383789 0.87597656 1.8714905 0.87597656 3.0993652zm1.5619812 -0.029724121c0 -2.1784363 -0.5206604 -3.9509277 -1.5619812 -5.3174133c-1.0413208 -1.3664856 -2.5048218 -2.0497131 -4.390442 -2.0497131c-1.8223267 0 -3.2388916 0.6749878 -4.2497253 2.0249634c-1.0084839 1.353302 -1.5127258 3.1835327 -1.5127258 5.490692c0 1.8318787 0.31661987 3.3370056 0.9498596 4.5153503c0.63323975 1.1783447 1.5232849 1.9853821 2.6701355 2.421051l0.24273682 -2.7626648c-0.8020935 -0.40597534 -1.3860779 -0.9555664 -1.7519531 -1.6487122c-0.36584473 -0.69314575 -0.5487976 -1.5298462 -0.5487976 -2.5101624c0 -1.3169861 0.32717896 -2.4161072 0.98150635 -3.2973938c0.6543579 -0.8812866 1.597168 -1.3714294 2.8284607 -1.470459l0 11.763672c0.22515869 0.009887695 0.39401245 0.014862061 0.5065918 0.014862061c1.8504639 0 3.285797 -0.668396 4.3059998 -2.005188c1.0202026 -1.3367615 1.5303345 -3.059723 1.5303345 -5.1688843z" fill-rule="evenodd"/></g></svg>