<svg version="1.1" viewBox="0.0 0.0 384.0 384.0" fill="none" stroke="none" stroke-linecap="square" stroke-miterlimit="10" xmlns:xlink="http://www.w3.org/1999/xlink" xmlns="http://www.w3.org/2000/svg"><clipPath id="p.0"><path d="m0 0l384.0 0l0 384.0l-384.0 0l0 -384.0z" clip-rule="nonzero"/></clipPath><g clip-path="url(#p.0)"><path fill="#000000" fill-opacity="0.0" d="m0 0l384.0 0l0 384.0l-384.0 0z" fill-rule="evenodd"/><path fill="#434343" d="m0 -2.1732283l384.0 0l0 390.67715l-384.0 0z" fill-rule="evenodd"/><path fill="#fff2cc" d="m121.60105 12.753281l248.31497 0l0 359.0551l-248.31497 0z" fill-rule="evenodd"/><path stroke="#ea9999" stroke-width="1.0" stroke-linejoin="round" stroke-linecap="butt" d="m121.60105 12.753281l248.31497 0l0 359.0551l-248.31497 0z" fill-rule="evenodd"/><path fill="#fff2cc" d="m8.979003 13.745407l97.291336 0l0 171.59055l-97.291336 0z" fill-rule="evenodd"/><path stroke="#f6b26b" stroke-width="1.0" stroke-linejoin="round" stroke-linecap="butt" d="m8.979003 13.745407l97.291336 0l0 171.59055l-97.291336 0z" fill-rule="evenodd"/><path fill="#f9cb9c" d="m246.4042 209.80315l115.212585 0l0 153.03938l-115.212585 0z" fill-rule="evenodd"/><path stroke="#ea9999" stroke-width="1.0" stroke-linejoin="round" stroke-linecap="butt" d="m246.4042 209.80315l115.212585 0l0 153.03938l-115.212585 0z" fill-rule="evenodd"/><path fill="#990000" d="m265.60104 262.15616l89.60104 0l0 20.480316l-89.60104 0z" fill-rule="evenodd"/><path fill="#000000" fill-opacity="0.0" d="m276.80118 262.15616l0 20.480316m67.200806 -20.480316l0 20.480316" fill-rule="evenodd"/><path fill="#000000" fill-opacity="0.0" d="m265.60104 262.15616l89.60104 0l0 20.480316l-89.60104 0z" fill-rule="evenodd"/><path stroke="#f1c232" stroke-width="1.0" stroke-linejoin="round" stroke-linecap="butt" d="m276.80118 262.15616l0 20.480316m67.200806 -20.480316l0 20.480316" fill-rule="evenodd"/><path stroke="#f1c232" stroke-width="1.0" stroke-linejoin="round" stroke-linecap="butt" d="m265.60104 262.15616l89.60104 0l0 20.480316l-89.60104 0z" fill-rule="evenodd"/><path fill="#ffff00" d="m289.2543 277.19632l0 -8.421875l-3.140625 0l0 -1.125l7.5625 0l0 1.125l-3.15625 0l0 8.421875l-1.265625 0zm5.5632324 0l0 -9.546875l1.171875 0l0 3.421875q0.828125 -0.9375 2.078125 -0.9375q0.765625 0 1.328125 0.296875q0.5625 0.296875 0.8125 0.84375q0.25 0.53125 0.25 1.546875l0 4.375l-1.171875 0l0 -4.375q0 -0.890625 -0.390625 -1.28125q-0.375 -0.40625 -1.078125 -0.40625q-0.515625 0 -0.984375 0.28125q-0.453125 0.265625 -0.65625 0.734375q-0.1875 0.453125 -0.1875 1.265625l0 3.78125l-1.171875 0zm7.3968506 0l0 -6.90625l1.0625 0l0 1.046875q0.40625 -0.734375 0.734375 -0.96875q0.34375 -0.234375 0.765625 -0.234375q0.59375 0 1.203125 0.375l-0.40625 1.078125q-0.4375 -0.25 -0.859375 -0.25q-0.390625 0 -0.703125 0.234375q-0.296875 0.234375 -0.421875 0.640625q-0.203125 0.625 -0.203125 1.359375l0 3.625l-1.171875 0zm9.188385 -2.21875l1.203125 0.140625q-0.28125 1.0625 -1.0625 1.65625q-0.765625 0.578125 -1.96875 0.578125q-1.515625 0 -2.40625 -0.9375q-0.890625 -0.9375 -0.890625 -2.609375q0 -1.75 0.890625 -2.703125q0.90625 -0.96875 2.34375 -0.96875q1.390625 0 2.265625 0.9375q0.875 0.9375 0.875 2.65625q0 0.109375 0 0.3125l-5.15625 0q0.0625 1.140625 0.640625 1.75q0.578125 0.59375 1.4375 0.59375q0.65625 0 1.109375 -0.328125q0.453125 -0.34375 0.71875 -1.078125zm-3.84375 -1.90625l3.859375 0q-0.078125 -0.859375 -0.4375 -1.296875q-0.5625 -0.6875 -1.453125 -0.6875q-0.8125 0 -1.359375 0.546875q-0.546875 0.53125 -0.609375 1.4375zm11.037476 3.265625q-0.65625 0.5625 -1.265625 0.796875q-0.59375 0.21875 -1.28125 0.21875q-1.140625 0 -1.75 -0.546875q-0.609375 -0.5625 -0.609375 -1.4375q0 -0.5 0.21875 -0.921875q0.234375 -0.421875 0.609375 -0.671875q0.375 -0.25 0.84375 -0.390625q0.34375 -0.078125 1.046875 -0.171875q1.421875 -0.171875 2.09375 -0.40625q0 -0.234375 0 -0.296875q0 -0.71875 -0.328125 -1.015625q-0.453125 -0.390625 -1.34375 -0.390625q-0.8125 0 -1.21875 0.296875q-0.390625 0.28125 -0.578125 1.015625l-1.140625 -0.15625q0.15625 -0.734375 0.515625 -1.1875q0.359375 -0.453125 1.03125 -0.6875q0.671875 -0.25 1.5625 -0.25q0.890625 0 1.4375 0.203125q0.5625 0.203125 0.8125 0.53125q0.265625 0.3125 0.375 0.796875q0.046875 0.296875 0.046875 1.078125l0 1.5625q0 1.625 0.078125 2.0625q0.078125 0.4375 0.296875 0.828125l-1.21875 0q-0.1875 -0.359375 -0.234375 -0.859375zm-0.09375 -2.609375q-0.640625 0.265625 -1.921875 0.4375q-0.71875 0.109375 -1.015625 0.25q-0.296875 0.125 -0.46875 0.375q-0.15625 0.25 -0.15625 0.546875q0 0.46875 0.34375 0.78125q0.359375 0.3125 1.046875 0.3125q0.671875 0 1.203125 -0.296875q0.53125 -0.296875 0.78125 -0.8125q0.1875 -0.390625 0.1875 -1.171875l0 -0.421875zm7.4749756 3.46875l0 -0.875q-0.65625 1.03125 -1.9375 1.03125q-0.8125 0 -1.515625 -0.453125q-0.6875 -0.453125 -1.078125 -1.265625q-0.375 -0.828125 -0.375 -1.890625q0 -1.03125 0.34375 -1.875q0.34375 -0.84375 1.03125 -1.28125q0.703125 -0.453125 1.546875 -0.453125q0.625 0 1.109375 0.265625q0.5 0.25 0.796875 0.671875l0 -3.421875l1.171875 0l0 9.546875l-1.09375 0zm-3.703125 -3.453125q0 1.328125 0.5625 1.984375q0.5625 0.65625 1.328125 0.65625q0.765625 0 1.296875 -0.625q0.53125 -0.625 0.53125 -1.90625q0 -1.421875 -0.546875 -2.078125q-0.546875 -0.671875 -1.34375 -0.671875q-0.78125 0 -1.3125 0.640625q-0.515625 0.625 -0.515625 2.0z" fill-rule="nonzero"/><path fill="#990000" d="m265.60104 286.5866l89.60104 0l0 20.480316l-89.60104 0z" fill-rule="evenodd"/><path fill="#000000" fill-opacity="0.0" d="m276.80118 286.5866l0 20.480316m67.200806 -20.480316l0 20.480316" fill-rule="evenodd"/><path fill="#000000" fill-opacity="0.0" d="m265.60104 286.5866l89.60104 0l0 20.480316l-89.60104 0z" fill-rule="evenodd"/><path stroke="#f1c232" stroke-width="1.0" stroke-linejoin="round" stroke-linecap="butt" d="m276.80118 286.5866l0 20.480316m67.200806 -20.480316l0 20.480316" fill-rule="evenodd"/><path stroke="#f1c232" stroke-width="1.0" stroke-linejoin="round" stroke-linecap="butt" d="m265.60104 286.5866l89.60104 0l0 20.480316l-89.60104 0z" fill-rule="evenodd"/><path fill="#ffff00" d="m289.2543 301.62677l0 -8.421875l-3.140625 0l0 -1.125l7.5625 0l0 1.125l-3.15625 0l0 8.421875l-1.265625 0zm5.5632324 0l0 -9.546875l1.171875 0l0 3.421875q0.828125 -0.9375 2.078125 -0.9375q0.765625 0 1.328125 0.296875q0.5625 0.296875 0.8125 0.84375q0.25 0.53125 0.25 1.546875l0 4.375l-1.171875 0l0 -4.375q0 -0.890625 -0.390625 -1.28125q-0.375 -0.40625 -1.078125 -0.40625q-0.515625 0 -0.984375 0.28125q-0.453125 0.265625 -0.65625 0.734375q-0.1875 0.453125 -0.1875 1.265625l0 3.78125l-1.171875 0zm7.3968506 0l0 -6.90625l1.0625 0l0 1.046875q0.40625 -0.734375 0.734375 -0.96875q0.34375 -0.234375 0.765625 -0.234375q0.59375 0 1.203125 0.375l-0.40625 1.078125q-0.4375 -0.25 -0.859375 -0.25q-0.390625 0 -0.703125 0.234375q-0.296875 0.234375 -0.421875 0.640625q-0.203125 0.625 -0.203125 1.359375l0 3.625l-1.171875 0zm9.188385 -2.21875l1.203125 0.140625q-0.28125 1.0625 -1.0625 1.65625q-0.765625 0.578125 -1.96875 0.578125q-1.515625 0 -2.40625 -0.9375q-0.890625 -0.9375 -0.890625 -2.609375q0 -1.75 0.890625 -2.703125q0.90625 -0.96875 2.34375 -0.96875q1.390625 0 2.265625 0.9375q0.875 0.9375 0.875 2.65625q0 0.109375 0 0.3125l-5.15625 0q0.0625 1.140625 0.640625 1.75q0.578125 0.59375 1.4375 0.59375q0.65625 0 1.109375 -0.328125q0.453125 -0.34375 0.71875 -1.078125zm-3.84375 -1.90625l3.859375 0q-0.078125 -0.859375 -0.4375 -1.296875q-0.5625 -0.6875 -1.453125 -0.6875q-0.8125 0 -1.359375 0.546875q-0.546875 0.53125 -0.609375 1.4375zm11.037476 3.265625q-0.65625 0.5625 -1.265625 0.796875q-0.59375 0.21875 -1.28125 0.21875q-1.140625 0 -1.75 -0.546875q-0.609375 -0.5625 -0.609375 -1.4375q0 -0.5 0.21875 -0.921875q0.234375 -0.421875 0.609375 -0.671875q0.375 -0.25 0.84375 -0.390625q0.34375 -0.078125 1.046875 -0.171875q1.421875 -0.171875 2.09375 -0.40625q0 -0.234375 0 -0.296875q0 -0.71875 -0.328125 -1.015625q-0.453125 -0.390625 -1.34375 -0.390625q-0.8125 0 -1.21875 0.296875q-0.390625 0.28125 -0.578125 1.015625l-1.140625 -0.15625q0.15625 -0.734375 0.515625 -1.1875q0.359375 -0.453125 1.03125 -0.6875q0.671875 -0.25 1.5625 -0.25q0.890625 0 1.4375 0.203125q0.5625 0.203125 0.8125 0.53125q0.265625 0.3125 0.375 0.796875q0.046875 0.296875 0.046875 1.078125l0 1.5625q0 1.625 0.078125 2.0625q0.078125 0.4375 0.296875 0.828125l-1.21875 0q-0.1875 -0.359375 -0.234375 -0.859375zm-0.09375 -2.609375q-0.640625 0.265625 -1.921875 0.4375q-0.71875 0.109375 -1.015625 0.25q-0.296875 0.125 -0.46875 0.375q-0.15625 0.25 -0.15625 0.546875q0 0.46875 0.34375 0.78125q0.359375 0.3125 1.046875 0.3125q0.671875 0 1.203125 -0.296875q0.53125 -0.296875 0.78125 -0.8125q0.1875 -0.390625 0.1875 -1.171875l0 -0.421875zm7.4749756 3.46875l0 -0.875q-0.65625 1.03125 -1.9375 1.03125q-0.8125 0 -1.515625 -0.453125q-0.6875 -0.453125 -1.078125 -1.265625q-0.375 -0.828125 -0.375 -1.890625q0 -1.03125 0.34375 -1.875q0.34375 -0.84375 1.03125 -1.28125q0.703125 -0.453125 1.546875 -0.453125q0.625 0 1.109375 0.265625q0.5 0.25 0.796875 0.671875l0 -3.421875l1.171875 0l0 9.546875l-1.09375 0zm-3.703125 -3.453125q0 1.328125 0.5625 1.984375q0.5625 0.65625 1.328125 0.65625q0.765625 0 1.296875 -0.625q0.53125 -0.625 0.53125 -1.90625q0 -1.421875 -0.546875 -2.078125q-0.546875 -0.671875 -1.34375 -0.671875q-0.78125 0 -1.3125 0.640625q-0.515625 0.625 -0.515625 2.0z" fill-rule="nonzero"/><path fill="#990000" d="m265.60104 311.01706l89.60104 0l0 20.480316l-89.60104 0z" fill-rule="evenodd"/><path fill="#000000" fill-opacity="0.0" d="m276.80118 311.01706l0 20.480316m67.200806 -20.480316l0 20.480316" fill-rule="evenodd"/><path fill="#000000" fill-opacity="0.0" d="m265.60104 311.01706l89.60104 0l0 20.480316l-89.60104 0z" fill-rule="evenodd"/><path stroke="#f1c232" stroke-width="1.0" stroke-linejoin="round" stroke-linecap="butt" d="m276.80118 311.01706l0 20.480316m67.200806 -20.480316l0 20.480316" fill-rule="evenodd"/><path stroke="#f1c232" stroke-width="1.0" stroke-linejoin="round" stroke-linecap="butt" d="m265.60104 311.01706l89.60104 0l0 20.480316l-89.60104 0z" fill-rule="evenodd"/><path fill="#ffff00" d="m289.2543 326.05722l0 -8.421875l-3.140625 0l0 -1.125l7.5625 0l0 1.125l-3.15625 0l0 8.421875l-1.265625 0zm5.5632324 0l0 -9.546875l1.171875 0l0 3.421875q0.828125 -0.9375 2.078125 -0.9375q0.765625 0 1.328125 0.296875q0.5625 0.296875 0.8125 0.84375q0.25 0.53125 0.25 1.546875l0 4.375l-1.171875 0l0 -4.375q0 -0.890625 -0.390625 -1.28125q-0.375 -0.40625 -1.078125 -0.40625q-0.515625 0 -0.984375 0.28125q-0.453125 0.265625 -0.65625 0.734375q-0.1875 0.453125 -0.1875 1.265625l0 3.78125l-1.171875 0zm7.3968506 0l0 -6.90625l1.0625 0l0 1.046875q0.40625 -0.734375 0.734375 -0.96875q0.34375 -0.234375 0.765625 -0.234375q0.59375 0 1.203125 0.375l-0.40625 1.078125q-0.4375 -0.25 -0.859375 -0.25q-0.390625 0 -0.703125 0.234375q-0.296875 0.234375 -0.421875 0.640625q-0.203125 0.625 -0.203125 1.359375l0 3.625l-1.171875 0zm9.188385 -2.21875l1.203125 0.140625q-0.28125 1.0625 -1.0625 1.65625q-0.765625 0.578125 -1.96875 0.578125q-1.515625 0 -2.40625 -0.9375q-0.890625 -0.9375 -0.890625 -2.609375q0 -1.75 0.890625 -2.703125q0.90625 -0.96875 2.34375 -0.96875q1.390625 0 2.265625 0.9375q0.875 0.9375 0.875 2.65625q0 0.109375 0 0.3125l-5.15625 0q0.0625 1.140625 0.640625 1.75q0.578125 0.59375 1.4375 0.59375q0.65625 0 1.109375 -0.328125q0.453125 -0.34375 0.71875 -1.078125zm-3.84375 -1.90625l3.859375 0q-0.078125 -0.859375 -0.4375 -1.296875q-0.5625 -0.6875 -1.453125 -0.6875q-0.8125 0 -1.359375 0.546875q-0.546875 0.53125 -0.609375 1.4375zm11.037476 3.265625q-0.65625 0.5625 -1.265625 0.796875q-0.59375 0.21875 -1.28125 0.21875q-1.140625 0 -1.75 -0.546875q-0.609375 -0.5625 -0.609375 -1.4375q0 -0.5 0.21875 -0.921875q0.234375 -0.421875 0.609375 -0.671875q0.375 -0.25 0.84375 -0.390625q0.34375 -0.078125 1.046875 -0.171875q1.421875 -0.171875 2.09375 -0.40625q0 -0.234375 0 -0.296875q0 -0.71875 -0.328125 -1.015625q-0.453125 -0.390625 -1.34375 -0.390625q-0.8125 0 -1.21875 0.296875q-0.390625 0.28125 -0.578125 1.015625l-1.140625 -0.15625q0.15625 -0.734375 0.515625 -1.1875q0.359375 -0.453125 1.03125 -0.6875q0.671875 -0.25 1.5625 -0.25q0.890625 0 1.4375 0.203125q0.5625 0.203125 0.8125 0.53125q0.265625 0.3125 0.375 0.796875q0.046875 0.296875 0.046875 1.078125l0 1.5625q0 1.625 0.078125 2.0625q0.078125 0.4375 0.296875 0.828125l-1.21875 0q-0.1875 -0.359375 -0.234375 -0.859375zm-0.09375 -2.609375q-0.640625 0.265625 -1.921875 0.4375q-0.71875 0.109375 -1.015625 0.25q-0.296875 0.125 -0.46875 0.375q-0.15625 0.25 -0.15625 0.546875q0 0.46875 0.34375 0.78125q0.359375 0.3125 1.046875 0.3125q0.671875 0 1.203125 -0.296875q0.53125 -0.296875 0.78125 -0.8125q0.1875 -0.390625 0.1875 -1.171875l0 -0.421875zm7.4749756 3.46875l0 -0.875q-0.65625 1.03125 -1.9375 1.03125q-0.8125 0 -1.515625 -0.453125q-0.6875 -0.453125 -1.078125 -1.265625q-0.375 -0.828125 -0.375 -1.890625q0 -1.03125 0.34375 -1.875q0.34375 -0.84375 1.03125 -1.28125q0.703125 -0.453125 1.546875 -0.453125q0.625 0 1.109375 0.265625q0.5 0.25 0.796875 0.671875l0 -3.421875l1.171875 0l0 9.546875l-1.09375 0zm-3.703125 -3.453125q0 1.328125 0.5625 1.984375q0.5625 0.65625 1.328125 0.65625q0.765625 0 1.296875 -0.625q0.53125 -0.625 0.53125 -1.90625q0 -1.421875 -0.546875 -2.078125q-0.546875 -0.671875 -1.34375 -0.671875q-0.78125 0 -1.3125 0.640625q-0.515625 0.625 -0.515625 2.0z" fill-rule="nonzero"/><path fill="#f9cb9c" d="m131.83202 22.425198l97.291336 0l0 340.40945l-97.291336 0z" fill-rule="evenodd"/><path stroke="#e69138" stroke-width="1.0" stroke-linejoin="round" stroke-linecap="butt" d="m131.83202 22.425198l97.291336 0l0 340.40945l-97.291336 0z" fill-rule="evenodd"/><path fill="#990000" d="m265.60104 335.4475l89.60104 0l0 20.480316l-89.60104 0z" fill-rule="evenodd"/><path fill="#000000" fill-opacity="0.0" d="m276.80118 335.4475l0 20.480316m67.200806 -20.480316l0 20.480316" fill-rule="evenodd"/><path fill="#000000" fill-opacity="0.0" d="m265.60104 335.4475l89.60104 0l0 20.480316l-89.60104 0z" fill-rule="evenodd"/><path stroke="#f1c232" stroke-width="1.0" stroke-linejoin="round" stroke-linecap="butt" d="m276.80118 335.4475l0 20.480316m67.200806 -20.480316l0 20.480316" fill-rule="evenodd"/><path stroke="#f1c232" stroke-width="1.0" stroke-linejoin="round" stroke-linecap="butt" d="m265.60104 335.4475l89.60104 0l0 20.480316l-89.60104 0z" fill-rule="evenodd"/><path fill="#ffff00" d="m289.2543 350.48767l0 -8.421875l-3.140625 0l0 -1.125l7.5625 0l0 1.125l-3.15625 0l0 8.421875l-1.265625 0zm5.5632324 0l0 -9.546875l1.171875 0l0 3.421875q0.828125 -0.9375 2.078125 -0.9375q0.765625 0 1.328125 0.296875q0.5625 0.296875 0.8125 0.84375q0.25 0.53125 0.25 1.546875l0 4.375l-1.171875 0l0 -4.375q0 -0.890625 -0.390625 -1.28125q-0.375 -0.40625 -1.078125 -0.40625q-0.515625 0 -0.984375 0.28125q-0.453125 0.265625 -0.65625 0.734375q-0.1875 0.453125 -0.1875 1.265625l0 3.78125l-1.171875 0zm7.3968506 0l0 -6.90625l1.0625 0l0 1.046875q0.40625 -0.734375 0.734375 -0.96875q0.34375 -0.234375 0.765625 -0.234375q0.59375 0 1.203125 0.375l-0.40625 1.078125q-0.4375 -0.25 -0.859375 -0.25q-0.390625 0 -0.703125 0.234375q-0.296875 0.234375 -0.421875 0.640625q-0.203125 0.625 -0.203125 1.359375l0 3.625l-1.171875 0zm9.188385 -2.21875l1.203125 0.140625q-0.28125 1.0625 -1.0625 1.65625q-0.765625 0.578125 -1.96875 0.578125q-1.515625 0 -2.40625 -0.9375q-0.890625 -0.9375 -0.890625 -2.609375q0 -1.75 0.890625 -2.703125q0.90625 -0.96875 2.34375 -0.96875q1.390625 0 2.265625 0.9375q0.875 0.9375 0.875 2.65625q0 0.109375 0 0.3125l-5.15625 0q0.0625 1.140625 0.640625 1.75q0.578125 0.59375 1.4375 0.59375q0.65625 0 1.109375 -0.328125q0.453125 -0.34375 0.71875 -1.078125zm-3.84375 -1.90625l3.859375 0q-0.078125 -0.859375 -0.4375 -1.296875q-0.5625 -0.6875 -1.453125 -0.6875q-0.8125 0 -1.359375 0.546875q-0.546875 0.53125 -0.609375 1.4375zm11.037476 3.265625q-0.65625 0.5625 -1.265625 0.796875q-0.59375 0.21875 -1.28125 0.21875q-1.140625 0 -1.75 -0.546875q-0.609375 -0.5625 -0.609375 -1.4375q0 -0.5 0.21875 -0.921875q0.234375 -0.421875 0.609375 -0.671875q0.375 -0.25 0.84375 -0.390625q0.34375 -0.078125 1.046875 -0.171875q1.421875 -0.171875 2.09375 -0.40625q0 -0.234375 0 -0.296875q0 -0.71875 -0.328125 -1.015625q-0.453125 -0.390625 -1.34375 -0.390625q-0.8125 0 -1.21875 0.296875q-0.390625 0.28125 -0.578125 1.015625l-1.140625 -0.15625q0.15625 -0.734375 0.515625 -1.1875q0.359375 -0.453125 1.03125 -0.6875q0.671875 -0.25 1.5625 -0.25q0.890625 0 1.4375 0.203125q0.5625 0.203125 0.8125 0.53125q0.265625 0.3125 0.375 0.796875q0.046875 0.296875 0.046875 1.078125l0 1.5625q0 1.625 0.078125 2.0625q0.078125 0.4375 0.296875 0.828125l-1.21875 0q-0.1875 -0.359375 -0.234375 -0.859375zm-0.09375 -2.609375q-0.640625 0.265625 -1.921875 0.4375q-0.71875 0.109375 -1.015625 0.25q-0.296875 0.125 -0.46875 0.375q-0.15625 0.25 -0.15625 0.546875q0 0.46875 0.34375 0.78125q0.359375 0.3125 1.046875 0.3125q0.671875 0 1.203125 -0.296875q0.53125 -0.296875 0.78125 -0.8125q0.1875 -0.390625 0.1875 -1.171875l0 -0.421875zm7.4749756 3.46875l0 -0.875q-0.65625 1.03125 -1.9375 1.03125q-0.8125 0 -1.515625 -0.453125q-0.6875 -0.453125 -1.078125 -1.265625q-0.375 -0.828125 -0.375 -1.890625q0 -1.03125 0.34375 -1.875q0.34375 -0.84375 1.03125 -1.28125q0.703125 -0.453125 1.546875 -0.453125q0.625 0 1.109375 0.265625q0.5 0.25 0.796875 0.671875l0 -3.421875l1.171875 0l0 9.546875l-1.09375 0zm-3.703125 -3.453125q0 1.328125 0.5625 1.984375q0.5625 0.65625 1.328125 0.65625q0.765625 0 1.296875 -0.625q0.53125 -0.625 0.53125 -1.90625q0 -1.421875 -0.546875 -2.078125q-0.546875 -0.671875 -1.34375 -0.671875q-0.78125 0 -1.3125 0.640625q-0.515625 0.625 -0.515625 2.0z" fill-rule="nonzero"/><path fill="#990000" d="m151.6798 64.666664l63.044617 0l0 20.480316l-63.044617 0z" fill-rule="evenodd"/><path fill="#fff2cc" d="m172.95317 79.706825l0 -8.421875l-3.140625 0l0 -1.125l7.5625 0l0 1.125l-3.15625 0l0 8.421875l-1.265625 0zm8.600998 -0.859375q-0.65625 0.5625 -1.265625 0.796875q-0.59375 0.21875 -1.28125 0.21875q-1.140625 0 -1.75 -0.546875q-0.609375 -0.5625 -0.609375 -1.4375q0 -0.5 0.21875 -0.921875q0.234375 -0.421875 0.609375 -0.671875q0.375 -0.25 0.84375 -0.390625q0.34375 -0.078125 1.046875 -0.171875q1.421875 -0.171875 2.09375 -0.40625q0 -0.234375 0 -0.296875q0 -0.71875 -0.328125 -1.015625q-0.453125 -0.390625 -1.34375 -0.390625q-0.8125 0 -1.21875 0.296875q-0.390625 0.28125 -0.578125 1.015625l-1.140625 -0.15625q0.15625 -0.734375 0.515625 -1.1875q0.359375 -0.453125 1.03125 -0.6875q0.671875 -0.25 1.5625 -0.25q0.890625 0 1.4375 0.203125q0.5625 0.203125 0.8125 0.53125q0.265625 0.3125 0.375 0.796875q0.046875 0.296875 0.046875 1.078125l0 1.5625q0 1.625 0.078125 2.0625q0.078125 0.4375 0.296875 0.828125l-1.21875 0q-0.1875 -0.359375 -0.234375 -0.859375zm-0.09375 -2.609375q-0.640625 0.265625 -1.921875 0.4375q-0.71875 0.109375 -1.015625 0.25q-0.296875 0.125 -0.46875 0.375q-0.15625 0.25 -0.15625 0.546875q0 0.46875 0.34375 0.78125q0.359375 0.3125 1.046875 0.3125q0.671875 0 1.203125 -0.296875q0.53125 -0.296875 0.78125 -0.8125q0.1875 -0.390625 0.1875 -1.171875l0 -0.421875zm2.5218506 1.40625l1.15625 -0.1875q0.109375 0.703125 0.546875 1.078125q0.453125 0.359375 1.25 0.359375q0.8125 0 1.203125 -0.328125q0.390625 -0.328125 0.390625 -0.765625q0 -0.390625 -0.359375 -0.625q-0.234375 -0.15625 -1.1875 -0.390625q-1.296875 -0.328125 -1.796875 -0.5625q-0.484375 -0.25 -0.75 -0.65625q-0.25 -0.421875 -0.25 -0.9375q0 -0.453125 0.203125 -0.84375q0.21875 -0.40625 0.578125 -0.671875q0.28125 -0.1875 0.75 -0.328125q0.46875 -0.140625 1.015625 -0.140625q0.8125 0 1.421875 0.234375q0.609375 0.234375 0.90625 0.640625q0.296875 0.390625 0.40625 1.0625l-1.140625 0.15625q-0.078125 -0.53125 -0.453125 -0.828125q-0.375 -0.3125 -1.0625 -0.3125q-0.8125 0 -1.15625 0.265625q-0.34375 0.265625 -0.34375 0.625q0 0.234375 0.140625 0.421875q0.15625 0.1875 0.453125 0.3125q0.171875 0.0625 1.03125 0.296875q1.25 0.328125 1.734375 0.546875q0.5 0.203125 0.78125 0.609375q0.28125 0.40625 0.28125 1.0q0 0.59375 -0.34375 1.109375q-0.34375 0.515625 -1.0 0.796875q-0.640625 0.28125 -1.453125 0.28125q-1.34375 0 -2.046875 -0.5625q-0.703125 -0.5625 -0.90625 -1.65625zm7.1484375 2.0625l0 -9.546875l1.171875 0l0 5.453125l2.765625 -2.8125l1.515625 0l-2.640625 2.5625l2.90625 4.34375l-1.4375 0l-2.28125 -3.53125l-0.828125 0.796875l0 2.734375l-1.171875 0z" fill-rule="nonzero"/><path fill="#990000" d="m19.215223 65.65879l76.7874 0l0 20.480316l-76.7874 0z" fill-rule="evenodd"/><path fill="#fff2cc" d="m29.68515 77.63645l1.203125 -0.109375q0.078125 0.71875 0.390625 1.1875q0.3125 0.453125 0.953125 0.734375q0.65625 0.28125 1.46875 0.28125q0.71875 0 1.265625 -0.21875q0.5625 -0.21875 0.828125 -0.578125q0.265625 -0.375 0.265625 -0.828125q0 -0.453125 -0.265625 -0.78125q-0.25 -0.328125 -0.84375 -0.5625q-0.390625 -0.15625 -1.703125 -0.46875q-1.3125 -0.3125 -1.84375 -0.59375q-0.671875 -0.359375 -1.015625 -0.890625q-0.328125 -0.53125 -0.328125 -1.1875q0 -0.71875 0.40625 -1.34375q0.40625 -0.625 1.1875 -0.953125q0.796875 -0.328125 1.765625 -0.328125q1.046875 0 1.859375 0.34375q0.8125 0.34375 1.25 1.015625q0.4375 0.65625 0.46875 1.484375l-1.203125 0.09375q-0.109375 -0.90625 -0.671875 -1.359375q-0.5625 -0.46875 -1.65625 -0.46875q-1.140625 0 -1.671875 0.421875q-0.515625 0.421875 -0.515625 1.015625q0 0.515625 0.359375 0.84375q0.375 0.328125 1.90625 0.6875q1.546875 0.34375 2.109375 0.59375q0.84375 0.390625 1.234375 0.984375q0.390625 0.578125 0.390625 1.359375q0 0.75 -0.4375 1.4375q-0.421875 0.671875 -1.25 1.046875q-0.8125 0.359375 -1.828125 0.359375q-1.296875 0 -2.171875 -0.375q-0.875 -0.375 -1.375 -1.125q-0.5 -0.765625 -0.53125 -1.71875zm13.702255 3.0625l0 -1.015625q-0.8125 1.171875 -2.1875 1.171875q-0.609375 0 -1.140625 -0.234375q-0.53125 -0.234375 -0.796875 -0.578125q-0.25 -0.359375 -0.359375 -0.875q-0.0625 -0.34375 -0.0625 -1.09375l0 -4.28125l1.171875 0l0 3.828125q0 0.921875 0.0625 1.234375q0.109375 0.46875 0.46875 0.734375q0.359375 0.25 0.890625 0.25q0.515625 0 0.984375 -0.265625q0.46875 -0.265625 0.65625 -0.734375q0.1875 -0.46875 0.1875 -1.34375l0 -3.703125l1.171875 0l0 6.90625l-1.046875 0zm3.9593506 0l-1.078125 0l0 -9.546875l1.171875 0l0 3.40625q0.734375 -0.921875 1.890625 -0.921875q0.640625 0 1.203125 0.265625q0.578125 0.25 0.9374962 0.71875q0.375 0.453125 0.578125 1.109375q0.203125 0.65625 0.203125 1.40625q0 1.78125 -0.875 2.75q-0.8749962 0.96875 -2.1093712 0.96875q-1.21875 0 -1.921875 -1.015625l0 0.859375zm0 -3.5q0 1.234375 0.328125 1.78125q0.5625 0.90625 1.5 0.90625q0.765625 0 1.328125 -0.65625q0.5625 -0.671875 0.5625 -2.0q0 -1.34375 -0.546875 -1.984375q-0.53125 -0.65625 -1.296875 -0.65625q-0.765625 0 -1.328125 0.671875q-0.546875 0.671875 -0.546875 1.9375zm6.334347 3.5l0 -6.90625l1.046875 0l0 0.96875q0.328125 -0.515625 0.859375 -0.8125q0.546875 -0.3125 1.234375 -0.3125q0.78125 0 1.265625 0.3125q0.484375 0.3125 0.6875 0.890625q0.828125 -1.203125 2.140625 -1.203125q1.03125 0 1.578125 0.578125q0.5625 0.5625 0.5625 1.734375l0 4.75l-1.171875 0l0 -4.359375q0 -0.703125 -0.125 -1.0q-0.109375 -0.3125 -0.40625 -0.5q-0.296875 -0.1875 -0.703125 -0.1875q-0.71875 0 -1.203125 0.484375q-0.484375 0.484375 -0.484375 1.546875l0 4.015625l-1.171875 0l0 -4.484375q0 -0.78125 -0.296875 -1.171875q-0.28125 -0.390625 -0.921875 -0.390625q-0.5 0 -0.921875 0.265625q-0.421875 0.25 -0.609375 0.75q-0.1875 0.5 -0.1875 1.453125l0 3.578125l-1.171875 0zm11.118061 -8.1875l0 -1.359375l1.171875 0l0 1.359375l-1.171875 0zm0 8.1875l0 -6.90625l1.171875 0l0 6.90625l-1.171875 0zm5.507965 -1.046875l0.171875 1.03125q-0.5 0.109375 -0.890625 0.109375q-0.640625 0 -1.0 -0.203125q-0.34375 -0.203125 -0.484375 -0.53125q-0.140625 -0.328125 -0.140625 -1.390625l0 -3.96875l-0.859375 0l0 -0.90625l0.859375 0l0 -1.71875l1.171875 -0.703125l0 2.421875l1.171875 0l0 0.90625l-1.171875 0l0 4.046875q0 0.5 0.046875 0.640625q0.0625 0.140625 0.203125 0.234375q0.140625 0.078125 0.40625 0.078125q0.203125 0 0.515625 -0.046875zm3.7029877 0l0.171875 1.03125q-0.5 0.109375 -0.890625 0.109375q-0.640625 0 -1.0 -0.203125q-0.34375 -0.203125 -0.484375 -0.53125q-0.140625 -0.328125 -0.140625 -1.390625l0 -3.96875l-0.859375 0l0 -0.90625l0.859375 0l0 -1.71875l1.171875 -0.703125l0 2.421875l1.171875 0l0 0.90625l-1.171875 0l0 4.046875q0 0.5 0.046875 0.640625q0.0625 0.140625 0.203125 0.234375q0.140625 0.078125 0.40625 0.078125q0.203125 0 0.515625 -0.046875zm5.8748627 -1.171875l1.203125 0.140625q-0.28125 1.0625 -1.0625 1.65625q-0.765625 0.578125 -1.96875 0.578125q-1.515625 0 -2.40625 -0.9375q-0.890625 -0.9375 -0.890625 -2.609375q0 -1.75 0.890625 -2.703125q0.90625 -0.96875 2.34375 -0.96875q1.390625 0 2.265625 0.9375q0.875 0.9375 0.875 2.65625q0 0.109375 0 0.3125l-5.15625 0q0.0625 1.140625 0.640625 1.75q0.578125 0.59375 1.4375 0.59375q0.65625 0 1.109375 -0.328125q0.453125 -0.34375 0.71875 -1.078125zm-3.84375 -1.90625l3.859375 0q-0.078125 -0.859375 -0.4375 -1.296875q-0.5625 -0.6875 -1.453125 -0.6875q-0.8125 0 -1.359375 0.546875q-0.546875 0.53125 -0.609375 1.4375zm6.5062256 4.125l0 -6.90625l1.0625 0l0 1.046875q0.40625 -0.734375 0.734375 -0.96875q0.34375 -0.234375 0.765625 -0.234375q0.59375 0 1.203125 0.375l-0.40625 1.078125q-0.4375 -0.25 -0.859375 -0.25q-0.390625 0 -0.703125 0.234375q-0.296875 0.234375 -0.421875 0.640625q-0.203125 0.625 -0.203125 1.359375l0 3.625l-1.171875 0z" fill-rule="nonzero"/><path fill="#990000" d="m19.215223 90.29265l76.7874 0l0 20.480316l-76.7874 0z" fill-rule="evenodd"/><path fill="#fff2cc" d="m29.68515 102.27031l1.203125 -0.109375q0.078125 0.71875 0.390625 1.1875q0.3125 0.453125 0.953125 0.734375q0.65625 0.28125 1.46875 0.28125q0.71875 0 1.265625 -0.21875q0.5625 -0.21875 0.828125 -0.578125q0.265625 -0.375 0.265625 -0.828125q0 -0.453125 -0.265625 -0.78125q-0.25 -0.328125 -0.84375 -0.5625q-0.390625 -0.15625 -1.703125 -0.46875q-1.3125 -0.3125 -1.84375 -0.59375q-0.671875 -0.359375 -1.015625 -0.890625q-0.328125 -0.53125 -0.328125 -1.1875q0 -0.71875 0.40625 -1.34375q0.40625 -0.625 1.1875 -0.953125q0.796875 -0.328125 1.765625 -0.328125q1.046875 0 1.859375 0.34375q0.8125 0.34375 1.25 1.015625q0.4375 0.65625 0.46875 1.484375l-1.203125 0.09375q-0.109375 -0.90625 -0.671875 -1.359375q-0.5625 -0.46875 -1.65625 -0.46875q-1.140625 0 -1.671875 0.421875q-0.515625 0.421875 -0.515625 1.015625q0 0.515625 0.359375 0.84375q0.375 0.328125 1.90625 0.6875q1.546875 0.34375 2.109375 0.59375q0.84375 0.390625 1.234375 0.984375q0.390625 0.578125 0.390625 1.359375q0 0.75 -0.4375 1.4375q-0.421875 0.671875 -1.25 1.046875q-0.8125 0.359375 -1.828125 0.359375q-1.296875 0 -2.171875 -0.375q-0.875 -0.375 -1.375 -1.125q-0.5 -0.765625 -0.53125 -1.71875zm13.702255 3.0625l0 -1.015625q-0.8125 1.171875 -2.1875 1.171875q-0.609375 0 -1.140625 -0.234375q-0.53125 -0.234375 -0.796875 -0.578125q-0.25 -0.359375 -0.359375 -0.875q-0.0625 -0.34375 -0.0625 -1.09375l0 -4.28125l1.171875 0l0 3.828125q0 0.921875 0.0625 1.234375q0.109375 0.46875 0.46875 0.734375q0.359375 0.25 0.890625 0.25q0.515625 0 0.984375 -0.265625q0.46875 -0.265625 0.65625 -0.734375q0.1875 -0.46875 0.1875 -1.34375l0 -3.703125l1.171875 0l0 6.90625l-1.046875 0zm3.9593506 0l-1.078125 0l0 -9.546875l1.171875 0l0 3.40625q0.734375 -0.921875 1.890625 -0.921875q0.640625 0 1.203125 0.265625q0.578125 0.25 0.9374962 0.71875q0.375 0.453125 0.578125 1.109375q0.203125 0.65625 0.203125 1.40625q0 1.78125 -0.875 2.75q-0.8749962 0.96875 -2.1093712 0.96875q-1.21875 0 -1.921875 -1.015625l0 0.859375zm0 -3.5q0 1.234375 0.328125 1.78125q0.5625 0.90625 1.5 0.90625q0.765625 0 1.328125 -0.65625q0.5625 -0.671875 0.5625 -2.0q0 -1.34375 -0.546875 -1.984375q-0.53125 -0.65625 -1.296875 -0.65625q-0.765625 0 -1.328125 0.671875q-0.546875 0.671875 -0.546875 1.9375zm6.334347 3.5l0 -6.90625l1.046875 0l0 0.96875q0.328125 -0.515625 0.859375 -0.8125q0.546875 -0.3125 1.234375 -0.3125q0.78125 0 1.265625 0.3125q0.484375 0.3125 0.6875 0.890625q0.828125 -1.203125 2.140625 -1.203125q1.03125 0 1.578125 0.578125q0.5625 0.5625 0.5625 1.734375l0 4.75l-1.171875 0l0 -4.359375q0 -0.703125 -0.125 -1.0q-0.109375 -0.3125 -0.40625 -0.5q-0.296875 -0.1875 -0.703125 -0.1875q-0.71875 0 -1.203125 0.484375q-0.484375 0.484375 -0.484375 1.546875l0 4.015625l-1.171875 0l0 -4.484375q0 -0.78125 -0.296875 -1.171875q-0.28125 -0.390625 -0.921875 -0.390625q-0.5 0 -0.921875 0.265625q-0.421875 0.25 -0.609375 0.75q-0.1875 0.5 -0.1875 1.453125l0 3.578125l-1.171875 0zm11.118061 -8.1875l0 -1.359375l1.171875 0l0 1.359375l-1.171875 0zm0 8.1875l0 -6.90625l1.171875 0l0 6.90625l-1.171875 0zm5.507965 -1.046875l0.171875 1.03125q-0.5 0.109375 -0.890625 0.109375q-0.640625 0 -1.0 -0.203125q-0.34375 -0.203125 -0.484375 -0.53125q-0.140625 -0.328125 -0.140625 -1.390625l0 -3.96875l-0.859375 0l0 -0.90625l0.859375 0l0 -1.71875l1.171875 -0.703125l0 2.421875l1.171875 0l0 0.90625l-1.171875 0l0 4.046875q0 0.5 0.046875 0.640625q0.0625 0.140625 0.203125 0.234375q0.140625 0.078125 0.40625 0.078125q0.203125 0 0.515625 -0.046875zm3.7029877 0l0.171875 1.03125q-0.5 0.109375 -0.890625 0.109375q-0.640625 0 -1.0 -0.203125q-0.34375 -0.203125 -0.484375 -0.53125q-0.140625 -0.328125 -0.140625 -1.390625l0 -3.96875l-0.859375 0l0 -0.90625l0.859375 0l0 -1.71875l1.171875 -0.703125l0 2.421875l1.171875 0l0 0.90625l-1.171875 0l0 4.046875q0 0.5 0.046875 0.640625q0.0625 0.140625 0.203125 0.234375q0.140625 0.078125 0.40625 0.078125q0.203125 0 0.515625 -0.046875zm5.8748627 -1.171875l1.203125 0.140625q-0.28125 1.0625 -1.0625 1.65625q-0.765625 0.578125 -1.96875 0.578125q-1.515625 0 -2.40625 -0.9375q-0.890625 -0.9375 -0.890625 -2.609375q0 -1.75 0.890625 -2.703125q0.90625 -0.96875 2.34375 -0.96875q1.390625 0 2.265625 0.9375q0.875 0.9375 0.875 2.65625q0 0.109375 0 0.3125l-5.15625 0q0.0625 1.140625 0.640625 1.75q0.578125 0.59375 1.4375 0.59375q0.65625 0 1.109375 -0.328125q0.453125 -0.34375 0.71875 -1.078125zm-3.84375 -1.90625l3.859375 0q-0.078125 -0.859375 -0.4375 -1.296875q-0.5625 -0.6875 -1.453125 -0.6875q-0.8125 0 -1.359375 0.546875q-0.546875 0.53125 -0.609375 1.4375zm6.5062256 4.125l0 -6.90625l1.0625 0l0 1.046875q0.40625 -0.734375 0.734375 -0.96875q0.34375 -0.234375 0.765625 -0.234375q0.59375 0 1.203125 0.375l-0.40625 1.078125q-0.4375 -0.25 -0.859375 -0.25q-0.390625 0 -0.703125 0.234375q-0.296875 0.234375 -0.421875 0.640625q-0.203125 0.625 -0.203125 1.359375l0 3.625l-1.171875 0z" fill-rule="nonzero"/><path fill="#990000" d="m19.215223 114.92782l76.7874 0l0 20.480324l-76.7874 0z" fill-rule="evenodd"/><path fill="#fff2cc" d="m29.68515 126.90548l1.203125 -0.109375q0.078125 0.71875 0.390625 1.1875q0.3125 0.45311737 0.953125 0.7343674q0.65625 0.28125 1.46875 0.28125q0.71875 0 1.265625 -0.21875q0.5625 -0.21875 0.828125 -0.578125q0.265625 -0.37499237 0.265625 -0.8281174q0 -0.453125 -0.265625 -0.78125q-0.25 -0.328125 -0.84375 -0.5625q-0.390625 -0.15625 -1.703125 -0.46875q-1.3125 -0.3125 -1.84375 -0.59375q-0.671875 -0.359375 -1.015625 -0.890625q-0.328125 -0.53125 -0.328125 -1.1875q0 -0.71875 0.40625 -1.34375q0.40625 -0.625 1.1875 -0.953125q0.796875 -0.328125 1.765625 -0.328125q1.046875 0 1.859375 0.34375q0.8125 0.34375 1.25 1.015625q0.4375 0.65625 0.46875 1.484375l-1.203125 0.09375q-0.109375 -0.90625 -0.671875 -1.359375q-0.5625 -0.46875 -1.65625 -0.46875q-1.140625 0 -1.671875 0.421875q-0.515625 0.421875 -0.515625 1.015625q0 0.515625 0.359375 0.84375q0.375 0.328125 1.90625 0.6875q1.546875 0.34375 2.109375 0.59375q0.84375 0.390625 1.234375 0.984375q0.390625 0.578125 0.390625 1.359375q0 0.7499924 -0.4375 1.4374924q-0.421875 0.671875 -1.25 1.046875q-0.8125 0.359375 -1.828125 0.359375q-1.296875 0 -2.171875 -0.375q-0.875 -0.375 -1.375 -1.125q-0.5 -0.7656174 -0.53125 -1.7187424zm13.702255 3.0624924l0 -1.015625q-0.8125 1.171875 -2.1875 1.171875q-0.609375 0 -1.140625 -0.234375q-0.53125 -0.234375 -0.796875 -0.578125q-0.25 -0.359375 -0.359375 -0.875q-0.0625 -0.34375 -0.0625 -1.0937424l0 -4.28125l1.171875 0l0 3.828125q0 0.921875 0.0625 1.2343674q0.109375 0.46875 0.46875 0.734375q0.359375 0.25 0.890625 0.25q0.515625 0 0.984375 -0.265625q0.46875 -0.265625 0.65625 -0.734375q0.1875 -0.46874237 0.1875 -1.3437424l0 -3.703125l1.171875 0l0 6.9062424l-1.046875 0zm3.9593506 0l-1.078125 0l0 -9.546867l1.171875 0l0 3.40625q0.734375 -0.921875 1.890625 -0.921875q0.640625 0 1.203125 0.265625q0.578125 0.25 0.9374962 0.71875q0.375 0.453125 0.578125 1.109375q0.203125 0.65625 0.203125 1.40625q0 1.7812424 -0.875 2.7499924q-0.8749962 0.96875 -2.1093712 0.96875q-1.21875 0 -1.921875 -1.015625l0 0.859375zm0 -3.4999924q0 1.234375 0.328125 1.7812424q0.5625 0.90625 1.5 0.90625q0.765625 0 1.328125 -0.65625q0.5625 -0.6718674 0.5625 -1.9999924q0 -1.34375 -0.546875 -1.984375q-0.53125 -0.65625 -1.296875 -0.65625q-0.765625 0 -1.328125 0.671875q-0.546875 0.671875 -0.546875 1.9375zm6.334347 3.4999924l0 -6.9062424l1.046875 0l0 0.96875q0.328125 -0.515625 0.859375 -0.8125q0.546875 -0.3125 1.234375 -0.3125q0.78125 0 1.265625 0.3125q0.484375 0.3125 0.6875 0.890625q0.828125 -1.203125 2.140625 -1.203125q1.03125 0 1.578125 0.578125q0.5625 0.5625 0.5625 1.734375l0 4.7499924l-1.171875 0l0 -4.3593674q0 -0.703125 -0.125 -1.0q-0.109375 -0.3125 -0.40625 -0.5q-0.296875 -0.1875 -0.703125 -0.1875q-0.71875 0 -1.203125 0.484375q-0.484375 0.484375 -0.484375 1.546875l0 4.0156174l-1.171875 0l0 -4.4843674q0 -0.78125 -0.296875 -1.171875q-0.28125 -0.390625 -0.921875 -0.390625q-0.5 0 -0.921875 0.265625q-0.421875 0.25 -0.609375 0.75q-0.1875 0.5 -0.1875 1.453125l0 3.5781174l-1.171875 0zm11.118061 -8.187492l0 -1.359375l1.171875 0l0 1.359375l-1.171875 0zm0 8.187492l0 -6.9062424l1.171875 0l0 6.9062424l-1.171875 0zm5.507965 -1.046875l0.171875 1.03125q-0.5 0.109375 -0.890625 0.109375q-0.640625 0 -1.0 -0.203125q-0.34375 -0.203125 -0.484375 -0.53125q-0.140625 -0.328125 -0.140625 -1.3906174l0 -3.96875l-0.859375 0l0 -0.90625l0.859375 0l0 -1.71875l1.171875 -0.703125l0 2.421875l1.171875 0l0 0.90625l-1.171875 0l0 4.0468674q0 0.5 0.046875 0.640625q0.0625 0.140625 0.203125 0.234375q0.140625 0.078125 0.40625 0.078125q0.203125 0 0.515625 -0.046875zm3.7029877 0l0.171875 1.03125q-0.5 0.109375 -0.890625 0.109375q-0.640625 0 -1.0 -0.203125q-0.34375 -0.203125 -0.484375 -0.53125q-0.140625 -0.328125 -0.140625 -1.3906174l0 -3.96875l-0.859375 0l0 -0.90625l0.859375 0l0 -1.71875l1.171875 -0.703125l0 2.421875l1.171875 0l0 0.90625l-1.171875 0l0 4.0468674q0 0.5 0.046875 0.640625q0.0625 0.140625 0.203125 0.234375q0.140625 0.078125 0.40625 0.078125q0.203125 0 0.515625 -0.046875zm5.8748627 -1.1718674l1.203125 0.140625q-0.28125 1.0624924 -1.0625 1.6562424q-0.765625 0.578125 -1.96875 0.578125q-1.515625 0 -2.40625 -0.9375q-0.890625 -0.9375 -0.890625 -2.6093674q0 -1.75 0.890625 -2.703125q0.90625 -0.96875 2.34375 -0.96875q1.390625 0 2.265625 0.9375q0.875 0.9375 0.875 2.65625q0 0.109375 0 0.3125l-5.15625 0q0.0625 1.140625 0.640625 1.7499924q0.578125 0.59375 1.4375 0.59375q0.65625 0 1.109375 -0.328125q0.453125 -0.34375 0.71875 -1.0781174zm-3.84375 -1.90625l3.859375 0q-0.078125 -0.859375 -0.4375 -1.296875q-0.5625 -0.6875 -1.453125 -0.6875q-0.8125 0 -1.359375 0.546875q-0.546875 0.53125 -0.609375 1.4375zm6.5062256 4.1249924l0 -6.9062424l1.0625 0l0 1.046875q0.40625 -0.734375 0.734375 -0.96875q0.34375 -0.234375 0.765625 -0.234375q0.59375 0 1.203125 0.375l-0.40625 1.078125q-0.4375 -0.25 -0.859375 -0.25q-0.390625 0 -0.703125 0.234375q-0.296875 0.234375 -0.421875 0.640625q-0.203125 0.625 -0.203125 1.359375l0 3.6249924l-1.171875 0z" fill-rule="nonzero"/><path fill="#990000" d="m19.215223 139.5643l76.7874 0l0 20.480316l-76.7874 0z" fill-rule="evenodd"/><path fill="#fff2cc" d="m29.68515 151.54196l1.203125 -0.109375q0.078125 0.71875 0.390625 1.1875q0.3125 0.453125 0.953125 0.734375q0.65625 0.28125 1.46875 0.28125q0.71875 0 1.265625 -0.21875q0.5625 -0.21875 0.828125 -0.578125q0.265625 -0.375 0.265625 -0.828125q0 -0.453125 -0.265625 -0.78125q-0.25 -0.328125 -0.84375 -0.5625q-0.390625 -0.15625 -1.703125 -0.46875q-1.3125 -0.3125 -1.84375 -0.59375q-0.671875 -0.359375 -1.015625 -0.890625q-0.328125 -0.53125 -0.328125 -1.1875q0 -0.71875 0.40625 -1.34375q0.40625 -0.625 1.1875 -0.953125q0.796875 -0.328125 1.765625 -0.328125q1.046875 0 1.859375 0.34375q0.8125 0.34375 1.25 1.015625q0.4375 0.65625 0.46875 1.484375l-1.203125 0.09375q-0.109375 -0.90625 -0.671875 -1.359375q-0.5625 -0.46875 -1.65625 -0.46875q-1.140625 0 -1.671875 0.421875q-0.515625 0.421875 -0.515625 1.015625q0 0.515625 0.359375 0.84375q0.375 0.328125 1.90625 0.6875q1.546875 0.34375 2.109375 0.59375q0.84375 0.390625 1.234375 0.984375q0.390625 0.578125 0.390625 1.359375q0 0.75 -0.4375 1.4375q-0.421875 0.671875 -1.25 1.046875q-0.8125 0.359375 -1.828125 0.359375q-1.296875 0 -2.171875 -0.375q-0.875 -0.375 -1.375 -1.125q-0.5 -0.765625 -0.53125 -1.71875zm13.702255 3.0625l0 -1.015625q-0.8125 1.171875 -2.1875 1.171875q-0.609375 0 -1.140625 -0.234375q-0.53125 -0.234375 -0.796875 -0.578125q-0.25 -0.359375 -0.359375 -0.875q-0.0625 -0.34375 -0.0625 -1.09375l0 -4.28125l1.171875 0l0 3.828125q0 0.921875 0.0625 1.234375q0.109375 0.46875 0.46875 0.734375q0.359375 0.25 0.890625 0.25q0.515625 0 0.984375 -0.265625q0.46875 -0.265625 0.65625 -0.734375q0.1875 -0.46875 0.1875 -1.34375l0 -3.703125l1.171875 0l0 6.90625l-1.046875 0zm3.9593506 0l-1.078125 0l0 -9.546875l1.171875 0l0 3.40625q0.734375 -0.921875 1.890625 -0.921875q0.640625 0 1.203125 0.265625q0.578125 0.25 0.9374962 0.71875q0.375 0.453125 0.578125 1.109375q0.203125 0.65625 0.203125 1.40625q0 1.78125 -0.875 2.75q-0.8749962 0.96875 -2.1093712 0.96875q-1.21875 0 -1.921875 -1.015625l0 0.859375zm0 -3.5q0 1.234375 0.328125 1.78125q0.5625 0.90625 1.5 0.90625q0.765625 0 1.328125 -0.65625q0.5625 -0.671875 0.5625 -2.0q0 -1.34375 -0.546875 -1.984375q-0.53125 -0.65625 -1.296875 -0.65625q-0.765625 0 -1.328125 0.671875q-0.546875 0.671875 -0.546875 1.9375zm6.334347 3.5l0 -6.90625l1.046875 0l0 0.96875q0.328125 -0.515625 0.859375 -0.8125q0.546875 -0.3125 1.234375 -0.3125q0.78125 0 1.265625 0.3125q0.484375 0.3125 0.6875 0.890625q0.828125 -1.203125 2.140625 -1.203125q1.03125 0 1.578125 0.578125q0.5625 0.5625 0.5625 1.734375l0 4.75l-1.171875 0l0 -4.359375q0 -0.703125 -0.125 -1.0q-0.109375 -0.3125 -0.40625 -0.5q-0.296875 -0.1875 -0.703125 -0.1875q-0.71875 0 -1.203125 0.484375q-0.484375 0.484375 -0.484375 1.546875l0 4.015625l-1.171875 0l0 -4.484375q0 -0.78125 -0.296875 -1.171875q-0.28125 -0.390625 -0.921875 -0.390625q-0.5 0 -0.921875 0.265625q-0.421875 0.25 -0.609375 0.75q-0.1875 0.5 -0.1875 1.453125l0 3.578125l-1.171875 0zm11.118061 -8.1875l0 -1.359375l1.171875 0l0 1.359375l-1.171875 0zm0 8.1875l0 -6.90625l1.171875 0l0 6.90625l-1.171875 0zm5.507965 -1.046875l0.171875 1.03125q-0.5 0.109375 -0.890625 0.109375q-0.640625 0 -1.0 -0.203125q-0.34375 -0.203125 -0.484375 -0.53125q-0.140625 -0.328125 -0.140625 -1.390625l0 -3.96875l-0.859375 0l0 -0.90625l0.859375 0l0 -1.71875l1.171875 -0.703125l0 2.421875l1.171875 0l0 0.90625l-1.171875 0l0 4.046875q0 0.5 0.046875 0.640625q0.0625 0.140625 0.203125 0.234375q0.140625 0.078125 0.40625 0.078125q0.203125 0 0.515625 -0.046875zm3.7029877 0l0.171875 1.03125q-0.5 0.109375 -0.890625 0.109375q-0.640625 0 -1.0 -0.203125q-0.34375 -0.203125 -0.484375 -0.53125q-0.140625 -0.328125 -0.140625 -1.390625l0 -3.96875l-0.859375 0l0 -0.90625l0.859375 0l0 -1.71875l1.171875 -0.703125l0 2.421875l1.171875 0l0 0.90625l-1.171875 0l0 4.046875q0 0.5 0.046875 0.640625q0.0625 0.140625 0.203125 0.234375q0.140625 0.078125 0.40625 0.078125q0.203125 0 0.515625 -0.046875zm5.8748627 -1.171875l1.203125 0.140625q-0.28125 1.0625 -1.0625 1.65625q-0.765625 0.578125 -1.96875 0.578125q-1.515625 0 -2.40625 -0.9375q-0.890625 -0.9375 -0.890625 -2.609375q0 -1.75 0.890625 -2.703125q0.90625 -0.96875 2.34375 -0.96875q1.390625 0 2.265625 0.9375q0.875 0.9375 0.875 2.65625q0 0.109375 0 0.3125l-5.15625 0q0.0625 1.140625 0.640625 1.75q0.578125 0.59375 1.4375 0.59375q0.65625 0 1.109375 -0.328125q0.453125 -0.34375 0.71875 -1.078125zm-3.84375 -1.90625l3.859375 0q-0.078125 -0.859375 -0.4375 -1.296875q-0.5625 -0.6875 -1.453125 -0.6875q-0.8125 0 -1.359375 0.546875q-0.546875 0.53125 -0.609375 1.4375zm6.5062256 4.125l0 -6.90625l1.0625 0l0 1.046875q0.40625 -0.734375 0.734375 -0.96875q0.34375 -0.234375 0.765625 -0.234375q0.59375 0 1.203125 0.375l-0.40625 1.078125q-0.4375 -0.25 -0.859375 -0.25q-0.390625 0 -0.703125 0.234375q-0.296875 0.234375 -0.421875 0.640625q-0.203125 0.625 -0.203125 1.359375l0 3.625l-1.171875 0z" fill-rule="nonzero"/><path fill="#990000" d="m151.6798 89.30052l63.044617 0l0 20.480316l-63.044617 0z" fill-rule="evenodd"/><path fill="#fff2cc" d="m172.95317 104.34068l0 -8.421875l-3.140625 0l0 -1.125l7.5625 0l0 1.125l-3.15625 0l0 8.421875l-1.265625 0zm8.600998 -0.859375q-0.65625 0.5625 -1.265625 0.796875q-0.59375 0.21875 -1.28125 0.21875q-1.140625 0 -1.75 -0.546875q-0.609375 -0.5625 -0.609375 -1.4375q0 -0.5 0.21875 -0.921875q0.234375 -0.421875 0.609375 -0.671875q0.375 -0.25 0.84375 -0.390625q0.34375 -0.078125 1.046875 -0.171875q1.421875 -0.171875 2.09375 -0.40625q0 -0.234375 0 -0.296875q0 -0.71875 -0.328125 -1.015625q-0.453125 -0.390625 -1.34375 -0.390625q-0.8125 0 -1.21875 0.296875q-0.390625 0.28125 -0.578125 1.015625l-1.140625 -0.15625q0.15625 -0.734375 0.515625 -1.1875q0.359375 -0.453125 1.03125 -0.6875q0.671875 -0.25 1.5625 -0.25q0.890625 0 1.4375 0.203125q0.5625 0.203125 0.8125 0.53125q0.265625 0.3125 0.375 0.796875q0.046875 0.296875 0.046875 1.078125l0 1.5625q0 1.625 0.078125 2.0625q0.078125 0.4375 0.296875 0.828125l-1.21875 0q-0.1875 -0.359375 -0.234375 -0.859375zm-0.09375 -2.609375q-0.640625 0.265625 -1.921875 0.4375q-0.71875 0.109375 -1.015625 0.25q-0.296875 0.125 -0.46875 0.375q-0.15625 0.25 -0.15625 0.546875q0 0.46875 0.34375 0.78125q0.359375 0.3125 1.046875 0.3125q0.671875 0 1.203125 -0.296875q0.53125 -0.296875 0.78125 -0.8125q0.1875 -0.390625 0.1875 -1.171875l0 -0.421875zm2.5218506 1.40625l1.15625 -0.1875q0.109375 0.703125 0.546875 1.078125q0.453125 0.359375 1.25 0.359375q0.8125 0 1.203125 -0.328125q0.390625 -0.328125 0.390625 -0.765625q0 -0.390625 -0.359375 -0.625q-0.234375 -0.15625 -1.1875 -0.390625q-1.296875 -0.328125 -1.796875 -0.5625q-0.484375 -0.25 -0.75 -0.65625q-0.25 -0.421875 -0.25 -0.9375q0 -0.453125 0.203125 -0.84375q0.21875 -0.40625 0.578125 -0.671875q0.28125 -0.1875 0.75 -0.328125q0.46875 -0.140625 1.015625 -0.140625q0.8125 0 1.421875 0.234375q0.609375 0.234375 0.90625 0.640625q0.296875 0.390625 0.40625 1.0625l-1.140625 0.15625q-0.078125 -0.53125 -0.453125 -0.828125q-0.375 -0.3125 -1.0625 -0.3125q-0.8125 0 -1.15625 0.265625q-0.34375 0.265625 -0.34375 0.625q0 0.234375 0.140625 0.421875q0.15625 0.1875 0.453125 0.3125q0.171875 0.0625 1.03125 0.296875q1.25 0.328125 1.734375 0.546875q0.5 0.203125 0.78125 0.609375q0.28125 0.40625 0.28125 1.0q0 0.59375 -0.34375 1.109375q-0.34375 0.515625 -1.0 0.796875q-0.640625 0.28125 -1.453125 0.28125q-1.34375 0 -2.046875 -0.5625q-0.703125 -0.5625 -0.90625 -1.65625zm7.1484375 2.0625l0 -9.546875l1.171875 0l0 5.453125l2.765625 -2.8125l1.515625 0l-2.640625 2.5625l2.90625 4.34375l-1.4375 0l-2.28125 -3.53125l-0.828125 0.796875l0 2.734375l-1.171875 0z" fill-rule="nonzero"/><path fill="#990000" d="m151.6798 113.937004l63.044617 0l0 20.480324l-63.044617 0z" fill-rule="evenodd"/><path fill="#fff2cc" d="m172.95317 128.97716l0 -8.421867l-3.140625 0l0 -1.125l7.5625 0l0 1.125l-3.15625 0l0 8.421867l-1.265625 0zm8.600998 -0.859375q-0.65625 0.5625 -1.265625 0.796875q-0.59375 0.21875 -1.28125 0.21875q-1.140625 0 -1.75 -0.546875q-0.609375 -0.5625 -0.609375 -1.4374924q0 -0.5 0.21875 -0.921875q0.234375 -0.421875 0.609375 -0.671875q0.375 -0.25 0.84375 -0.390625q0.34375 -0.078125 1.046875 -0.171875q1.421875 -0.171875 2.09375 -0.40625q0 -0.234375 0 -0.296875q0 -0.71875 -0.328125 -1.015625q-0.453125 -0.390625 -1.34375 -0.390625q-0.8125 0 -1.21875 0.296875q-0.390625 0.28125 -0.578125 1.015625l-1.140625 -0.15625q0.15625 -0.734375 0.515625 -1.1875q0.359375 -0.453125 1.03125 -0.6875q0.671875 -0.25 1.5625 -0.25q0.890625 0 1.4375 0.203125q0.5625 0.203125 0.8125 0.53125q0.265625 0.3125 0.375 0.796875q0.046875 0.296875 0.046875 1.078125l0 1.5625q0 1.625 0.078125 2.0624924q0.078125 0.4375 0.296875 0.828125l-1.21875 0q-0.1875 -0.359375 -0.234375 -0.859375zm-0.09375 -2.6093674q-0.640625 0.265625 -1.921875 0.4375q-0.71875 0.109375 -1.015625 0.25q-0.296875 0.125 -0.46875 0.375q-0.15625 0.25 -0.15625 0.546875q0 0.46875 0.34375 0.78125q0.359375 0.31249237 1.046875 0.31249237q0.671875 0 1.203125 -0.29686737q0.53125 -0.296875 0.78125 -0.8125q0.1875 -0.390625 0.1875 -1.171875l0 -0.421875zm2.5218506 1.40625l1.15625 -0.1875q0.109375 0.703125 0.546875 1.078125q0.453125 0.35936737 1.25 0.35936737q0.8125 0 1.203125 -0.32811737q0.390625 -0.328125 0.390625 -0.765625q0 -0.390625 -0.359375 -0.625q-0.234375 -0.15625 -1.1875 -0.390625q-1.296875 -0.328125 -1.796875 -0.5625q-0.484375 -0.25 -0.75 -0.65625q-0.25 -0.421875 -0.25 -0.9375q0 -0.453125 0.203125 -0.84375q0.21875 -0.40625 0.578125 -0.671875q0.28125 -0.1875 0.75 -0.328125q0.46875 -0.140625 1.015625 -0.140625q0.8125 0 1.421875 0.234375q0.609375 0.234375 0.90625 0.640625q0.296875 0.390625 0.40625 1.0625l-1.140625 0.15625q-0.078125 -0.53125 -0.453125 -0.828125q-0.375 -0.3125 -1.0625 -0.3125q-0.8125 0 -1.15625 0.265625q-0.34375 0.265625 -0.34375 0.625q0 0.234375 0.140625 0.421875q0.15625 0.1875 0.453125 0.3125q0.171875 0.0625 1.03125 0.296875q1.25 0.328125 1.734375 0.546875q0.5 0.203125 0.78125 0.609375q0.28125 0.40625 0.28125 1.0q0 0.59375 -0.34375 1.1093674q-0.34375 0.515625 -1.0 0.796875q-0.640625 0.28125 -1.453125 0.28125q-1.34375 0 -2.046875 -0.5625q-0.703125 -0.5625 -0.90625 -1.6562424zm7.1484375 2.0624924l0 -9.546867l1.171875 0l0 5.453125l2.765625 -2.8125l1.515625 0l-2.640625 2.5625l2.90625 4.3437424l-1.4375 0l-2.28125 -3.5312424l-0.828125 0.796875l0 2.7343674l-1.171875 0z" fill-rule="nonzero"/><path fill="#990000" d="m151.6798 138.57217l63.044617 0l0 20.480316l-63.044617 0z" fill-rule="evenodd"/><path fill="#fff2cc" d="m172.95317 153.61234l0 -8.421875l-3.140625 0l0 -1.125l7.5625 0l0 1.125l-3.15625 0l0 8.421875l-1.265625 0zm8.600998 -0.859375q-0.65625 0.5625 -1.265625 0.796875q-0.59375 0.21875 -1.28125 0.21875q-1.140625 0 -1.75 -0.546875q-0.609375 -0.5625 -0.609375 -1.4375q0 -0.5 0.21875 -0.921875q0.234375 -0.421875 0.609375 -0.671875q0.375 -0.25 0.84375 -0.390625q0.34375 -0.078125 1.046875 -0.171875q1.421875 -0.171875 2.09375 -0.40625q0 -0.234375 0 -0.296875q0 -0.71875 -0.328125 -1.015625q-0.453125 -0.390625 -1.34375 -0.390625q-0.8125 0 -1.21875 0.296875q-0.390625 0.28125 -0.578125 1.015625l-1.140625 -0.15625q0.15625 -0.734375 0.515625 -1.1875q0.359375 -0.453125 1.03125 -0.6875q0.671875 -0.25 1.5625 -0.25q0.890625 0 1.4375 0.203125q0.5625 0.203125 0.8125 0.53125q0.265625 0.3125 0.375 0.796875q0.046875 0.296875 0.046875 1.078125l0 1.5625q0 1.625 0.078125 2.0625q0.078125 0.4375 0.296875 0.828125l-1.21875 0q-0.1875 -0.359375 -0.234375 -0.859375zm-0.09375 -2.609375q-0.640625 0.265625 -1.921875 0.4375q-0.71875 0.109375 -1.015625 0.25q-0.296875 0.125 -0.46875 0.375q-0.15625 0.25 -0.15625 0.546875q0 0.46875 0.34375 0.78125q0.359375 0.3125 1.046875 0.3125q0.671875 0 1.203125 -0.296875q0.53125 -0.296875 0.78125 -0.8125q0.1875 -0.390625 0.1875 -1.171875l0 -0.421875zm2.5218506 1.40625l1.15625 -0.1875q0.109375 0.703125 0.546875 1.078125q0.453125 0.359375 1.25 0.359375q0.8125 0 1.203125 -0.328125q0.390625 -0.328125 0.390625 -0.765625q0 -0.390625 -0.359375 -0.625q-0.234375 -0.15625 -1.1875 -0.390625q-1.296875 -0.328125 -1.796875 -0.5625q-0.484375 -0.25 -0.75 -0.65625q-0.25 -0.421875 -0.25 -0.9375q0 -0.453125 0.203125 -0.84375q0.21875 -0.40625 0.578125 -0.671875q0.28125 -0.1875 0.75 -0.328125q0.46875 -0.140625 1.015625 -0.140625q0.8125 0 1.421875 0.234375q0.609375 0.234375 0.90625 0.640625q0.296875 0.390625 0.40625 1.0625l-1.140625 0.15625q-0.078125 -0.53125 -0.453125 -0.828125q-0.375 -0.3125 -1.0625 -0.3125q-0.8125 0 -1.15625 0.265625q-0.34375 0.265625 -0.34375 0.625q0 0.234375 0.140625 0.421875q0.15625 0.1875 0.453125 0.3125q0.171875 0.0625 1.03125 0.296875q1.25 0.328125 1.734375 0.546875q0.5 0.203125 0.78125 0.609375q0.28125 0.40625 0.28125 1.0q0 0.59375 -0.34375 1.109375q-0.34375 0.515625 -1.0 0.796875q-0.640625 0.28125 -1.453125 0.28125q-1.34375 0 -2.046875 -0.5625q-0.703125 -0.5625 -0.90625 -1.65625zm7.1484375 2.0625l0 -9.546875l1.171875 0l0 5.453125l2.765625 -2.8125l1.515625 0l-2.640625 2.5625l2.90625 4.34375l-1.4375 0l-2.28125 -3.53125l-0.828125 0.796875l0 2.734375l-1.171875 0z" fill-rule="nonzero"/><path fill="#990000" d="m151.6798 163.20735l63.044617 0l0 20.480316l-63.044617 0z" fill-rule="evenodd"/><path fill="#fff2cc" d="m178.60074 178.24751l0 -1.828125l1.828125 0l0 1.828125l-1.828125 0zm3.7029877 0l0 -1.828125l1.828125 0l0 1.828125l-1.828125 0zm3.7029877 0l0 -1.828125l1.828125 0l0 1.828125l-1.828125 0z" fill-rule="nonzero"/><path fill="#990000" d="m151.6798 187.84251l63.044617 0l0 20.480316l-63.044617 0z" fill-rule="evenodd"/><path fill="#fff2cc" d="m178.60074 202.88268l0 -1.828125l1.828125 0l0 1.828125l-1.828125 0zm3.7029877 0l0 -1.828125l1.828125 0l0 1.828125l-1.828125 0zm3.7029877 0l0 -1.828125l1.828125 0l0 1.828125l-1.828125 0z" fill-rule="nonzero"/><path fill="#000000" fill-opacity="0.0" d="m8.963255 23.417322l97.291336 0l0 37.322838l-97.291336 0z" fill-rule="evenodd"/><path fill="#0000ff" d="m46.43121 42.298923l0 -7.640625l-2.71875 0l0 -1.5625l7.3125 0l0 1.5625l-2.734375 0l0 7.640625l-1.859375 0zm6.1344604 -4.640625l-1.59375 -0.28125q0.265625 -0.96875 0.921875 -1.421875q0.671875 -0.46875 1.96875 -0.46875q1.171875 0 1.75 0.28125q0.578125 0.265625 0.8125 0.703125q0.234375 0.421875 0.234375 1.578125l-0.015625 2.0625q0 0.875 0.078125 1.296875q0.09375 0.40625 0.328125 0.890625l-1.75 0q-0.0625 -0.171875 -0.171875 -0.515625q-0.03125 -0.15625 -0.0625 -0.21875q-0.453125 0.453125 -0.96875 0.671875q-0.5 0.21875 -1.09375 0.21875q-1.03125 0 -1.625 -0.5625q-0.59375 -0.5625 -0.59375 -1.421875q0 -0.5625 0.265625 -1.0q0.28125 -0.4375 0.765625 -0.671875q0.484375 -0.25 1.40625 -0.421875q1.234375 -0.234375 1.71875 -0.421875l0 -0.1875q0 -0.5 -0.265625 -0.71875q-0.25 -0.21875 -0.9375 -0.21875q-0.46875 0 -0.734375 0.1875q-0.265625 0.1875 -0.4375 0.640625zm2.375 1.4375q-0.34375 0.109375 -1.078125 0.265625q-0.734375 0.15625 -0.96875 0.3125q-0.34375 0.25 -0.34375 0.625q0 0.375 0.28125 0.640625q0.28125 0.265625 0.703125 0.265625q0.46875 0 0.90625 -0.3125q0.328125 -0.234375 0.421875 -0.578125q0.078125 -0.234375 0.078125 -0.859375l0 -0.359375zm2.8392792 1.296875l1.78125 -0.265625q0.109375 0.515625 0.453125 0.78125q0.34375 0.265625 0.96875 0.265625q0.6875 0 1.03125 -0.25q0.234375 -0.171875 0.234375 -0.46875q0 -0.203125 -0.125 -0.328125q-0.140625 -0.125 -0.59375 -0.234375q-2.140625 -0.46875 -2.703125 -0.859375q-0.796875 -0.546875 -0.796875 -1.5q0 -0.875 0.6875 -1.453125q0.6875 -0.59375 2.125 -0.59375q1.359375 0 2.015625 0.453125q0.671875 0.4375 0.921875 1.3125l-1.65625 0.296875q-0.109375 -0.390625 -0.40625 -0.59375q-0.296875 -0.203125 -0.84375 -0.203125q-0.703125 0 -1.0 0.1875q-0.203125 0.140625 -0.203125 0.359375q0 0.1875 0.171875 0.328125q0.234375 0.171875 1.640625 0.5q1.421875 0.3125 1.984375 0.78125q0.5468788 0.46875 0.5468788 1.3125q0 0.90625 -0.7656288 1.578125q-0.765625 0.65625 -2.265625 0.65625q-1.359375 0 -2.15625 -0.546875q-0.796875 -0.5625 -1.046875 -1.515625zm7.714283 1.90625l0 -9.203125l1.765625 0l0 4.890625l2.0625 -2.359375l2.171875 0l-2.28125 2.4375l2.453125 4.234375l-1.90625 0l-1.671875 -3.0l-0.828125 0.859375l0 2.140625l-1.765625 0z" fill-rule="nonzero"/><path fill="#0000ff" d="m24.49446 51.65092l1.796875 -0.171875q0.171875 0.90625 0.671875 1.34375q0.5 0.421875 1.34375 0.421875q0.90625 0 1.359375 -0.375q0.453125 -0.390625 0.453125 -0.890625q0 -0.328125 -0.203125 -0.546875q-0.1875 -0.234375 -0.65625 -0.40625q-0.328125 -0.125 -1.484375 -0.40625q-1.5 -0.375 -2.109375 -0.90625q-0.84375 -0.765625 -0.84375 -1.859375q0 -0.703125 0.390625 -1.3125q0.40625 -0.609375 1.15625 -0.921875q0.75 -0.328125 1.8125 -0.328125q1.734375 0 2.609375 0.765625q0.875 0.75 0.921875 2.015625l-1.859375 0.078125q-0.125 -0.703125 -0.515625 -1.015625q-0.390625 -0.3125 -1.171875 -0.3125q-0.8125 0 -1.265625 0.34375q-0.296875 0.203125 -0.296875 0.5625q0 0.328125 0.265625 0.5625q0.359375 0.296875 1.71875 0.625q1.359375 0.3125 2.0 0.65625q0.65625 0.34375 1.015625 0.9375q0.375 0.59375 0.375 1.453125q0 0.796875 -0.453125 1.484375q-0.4375 0.6875 -1.234375 1.03125q-0.796875 0.328125 -2.0 0.328125q-1.75 0 -2.6875 -0.796875q-0.9375 -0.8125 -1.109375 -2.359375zm13.420851 3.0l0 -1.0q-0.359375 0.53125 -0.953125 0.84375q-0.59375 0.3125 -1.25 0.3125q-0.671875 0 -1.21875 -0.296875q-0.53125 -0.296875 -0.765625 -0.828125q-0.234375 -0.53125 -0.234375 -1.484375l0 -4.21875l1.765625 0l0 3.0625q0 1.40625 0.09375 1.734375q0.09375 0.3125 0.34375 0.5q0.265625 0.1875 0.65625 0.1875q0.453125 0 0.8125 -0.25q0.359375 -0.25 0.484375 -0.609375q0.140625 -0.375 0.140625 -1.8125l0 -2.8125l1.765625 0l0 6.671875l-1.640625 0zm3.3862762 0l0 -9.203125l1.765625 0l0 3.3125q0.8125 -0.921875 1.9375 -0.921875q1.21875 0 2.015625 0.890625q0.796875 0.875 0.796875 2.515625q0 1.703125 -0.8125 2.640625q-0.8125 0.921875 -1.96875 0.921875q-0.578125 0 -1.140625 -0.28125q-0.546875 -0.296875 -0.953125 -0.859375l0 0.984375l-1.640625 0zm1.75 -3.484375q0 1.046875 0.328125 1.53125q0.46875 0.703125 1.21875 0.703125q0.59375 0 1.0 -0.484375q0.40625 -0.5 0.40625 -1.578125q0 -1.140625 -0.421875 -1.640625q-0.40625 -0.515625 -1.046875 -0.515625q-0.640625 0 -1.0625 0.5q-0.421875 0.484375 -0.421875 1.484375zm6.0581512 -3.1875l1.625 0l0 0.90625q0.875 -1.046875 2.078125 -1.046875q0.640625 0 1.109375 0.265625q0.46875 0.25 0.765625 0.78125q0.4375 -0.53125 0.953125 -0.78125q0.515625 -0.265625 1.078125 -0.265625q0.75 0 1.25 0.296875q0.515625 0.296875 0.765625 0.875q0.171875 0.421875 0.171875 1.375l0 4.265625l-1.765625 0l0 -3.8125q0 -0.984375 -0.171875 -1.28125q-0.25 -0.375 -0.75 -0.375q-0.375 0 -0.703125 0.234375q-0.328125 0.21875 -0.46875 0.65625q-0.140625 0.4375 -0.140625 1.375l0 3.203125l-1.765625 0l0 -3.65625q0 -0.96875 -0.09375 -1.25q-0.09375 -0.28125 -0.296875 -0.421875q-0.203125 -0.140625 -0.53125 -0.140625q-0.421875 0 -0.75 0.21875q-0.3125 0.21875 -0.453125 0.640625q-0.140625 0.40625 -0.140625 1.375l0 3.234375l-1.765625 0l0 -6.671875zm11.5590515 -0.90625l0 -1.625l1.765625 0l0 1.625l-1.765625 0zm0 7.578125l0 -6.671875l1.765625 0l0 6.671875l-1.765625 0zm6.6352577 -6.671875l0 1.40625l-1.203125 0l0 2.6875q0 0.8125 0.03125 0.953125q0.03125 0.140625 0.15625 0.234375q0.125 0.078125 0.296875 0.078125q0.25 0 0.703125 -0.171875l0.15625 1.375q-0.609375 0.265625 -1.390625 0.265625q-0.484375 0 -0.875 -0.15625q-0.375 -0.171875 -0.5625 -0.421875q-0.171875 -0.25 -0.234375 -0.6875q-0.0625 -0.3125 -0.0625 -1.25l0 -2.90625l-0.8125038 0l0 -1.40625l0.8125038 0l0 -1.328125l1.78125 -1.015625l0 2.34375l1.203125 0zm4.2822723 0l0 1.40625l-1.203125 0l0 2.6875q0 0.8125 0.03125 0.953125q0.03125 0.140625 0.15625 0.234375q0.125 0.078125 0.296875 0.078125q0.25 0 0.703125 -0.171875l0.15625 1.375q-0.609375 0.265625 -1.390625 0.265625q-0.484375 0 -0.875 -0.15625q-0.375 -0.171875 -0.5625 -0.421875q-0.171875 -0.25 -0.234375 -0.6875q-0.0625 -0.3125 -0.0625 -1.25l0 -2.90625l-0.8125 0l0 -1.40625l0.8125 0l0 -1.328125l1.78125 -1.015625l0 2.34375l1.203125 0zm5.0791473 4.546875l1.765625 0.296875q-0.34375 0.96875 -1.078125 1.484375q-0.734375 0.5 -1.828125 0.5q-1.734375 0 -2.578125 -1.140625q-0.65625 -0.90625 -0.65625 -2.296875q0 -1.65625 0.859375 -2.59375q0.875 -0.9375 2.203125 -0.9375q1.484375 0 2.34375 0.984375q0.859375 0.96875 0.828125 3.0l-4.421875 0q0.015625 0.78125 0.421875 1.21875q0.40625 0.4375 1.015625 0.4375q0.421875 0 0.703125 -0.21875q0.28125 -0.234375 0.421875 -0.734375zm0.109375 -1.78125q-0.03125 -0.765625 -0.40625 -1.15625q-0.375 -0.40625 -0.90625 -0.40625q-0.578125 0 -0.953125 0.421875q-0.390625 0.421875 -0.375 1.140625l2.640625 0zm4.870529 3.90625l-1.765625 0l0 -6.671875l1.640625 0l0 0.953125q0.421875 -0.671875 0.75 -0.875q0.34375 -0.21875 0.765625 -0.21875q0.609375 0 1.171875 0.328125l-0.546875 1.53125q-0.453125 -0.28125 -0.828125 -0.28125q-0.375 0 -0.640625 0.203125q-0.25 0.203125 -0.40625 0.734375q-0.140625 0.53125 -0.140625 2.234375l0 2.0625zm2.691864 -1.90625l1.78125 -0.265625q0.109375 0.515625 0.453125 0.78125q0.34375 0.265625 0.96875 0.265625q0.6875 0 1.03125 -0.25q0.234375 -0.171875 0.234375 -0.46875q0 -0.203125 -0.125 -0.328125q-0.140625 -0.125 -0.59375 -0.234375q-2.140625 -0.46875 -2.703125 -0.859375q-0.796875 -0.546875 -0.796875 -1.5q0 -0.875 0.6875 -1.453125q0.6875 -0.59375 2.125 -0.59375q1.359375 0 2.015625 0.453125q0.671875 0.4375 0.921875 1.3125l-1.65625 0.296875q-0.109375 -0.390625 -0.40625 -0.59375q-0.296875 -0.203125 -0.84375 -0.203125q-0.703125 0 -1.0 0.1875q-0.203125 0.140625 -0.203125 0.359375q0 0.1875 0.171875 0.328125q0.234375 0.171875 1.640625 0.5q1.421875 0.3125 1.984375 0.78125q0.546875 0.46875 0.546875 1.3125q0 0.90625 -0.765625 1.578125q-0.765625 0.65625 -2.265625 0.65625q-1.359375 0 -2.15625 -0.546875q-0.796875 -0.5625 -1.046875 -1.515625z" fill-rule="nonzero"/><path fill="#000000" fill-opacity="0.0" d="m250.30183 22.543306l106.267715 0l0 43.086617l-106.267715 0z" fill-rule="evenodd"/><path fill="#0000ff" d="m263.06757 46.544907l0 -13.984375l10.359375 0l0 2.375l-7.53125 0l0 3.09375l7.015625 0l0 2.359375l-7.015625 0l0 3.796875l7.796875 0l0 2.359375l-10.625 0zm11.714691 0l3.65625 -5.21875l-3.5 -4.90625l3.265625 0l1.796875 2.78125l1.890625 -2.78125l3.140625 0l-3.421875 4.796875l3.75 5.328125l-3.296875 0l-2.0625 -3.140625l-2.078125 3.140625l-3.140625 0zm18.018585 -3.21875l2.671875 0.4375q-0.515625 1.46875 -1.625 2.25q-1.109375 0.765625 -2.78125 0.765625q-2.640625 0 -3.90625 -1.734375q-1.0 -1.375 -1.0 -3.484375q0 -2.515625 1.3125 -3.9375q1.3125 -1.4375 3.328125 -1.4375q2.265625 0 3.5625 1.5q1.3125 1.484375 1.25 4.5625l-6.71875 0q0.03125 1.203125 0.65625 1.859375q0.625 0.65625 1.546875 0.65625q0.625 0 1.046875 -0.328125q0.4375 -0.34375 0.65625 -1.109375zm0.15625 -2.71875q-0.03125 -1.15625 -0.609375 -1.765625q-0.5625 -0.609375 -1.390625 -0.609375q-0.875 0 -1.4375 0.640625q-0.578125 0.640625 -0.5625 1.734375l4.0 0zm13.674866 -1.203125l-2.640625 0.484375q-0.140625 -0.796875 -0.609375 -1.1875q-0.46875 -0.40625 -1.21875 -0.40625q-1.0 0 -1.609375 0.703125q-0.59375 0.6875 -0.59375 2.296875q0 1.8125 0.609375 2.5625q0.609375 0.734375 1.625 0.734375q0.765625 0 1.25 -0.4375q0.484375 -0.4375 0.6875 -1.484375l2.625 0.4375q-0.40625 1.8125 -1.578125 2.75q-1.15625 0.921875 -3.109375 0.921875q-2.21875 0 -3.546875 -1.40625q-1.3125 -1.40625 -1.3125 -3.875q0 -2.515625 1.328125 -3.90625q1.328125 -1.40625 3.578125 -1.40625q1.859375 0 2.9375 0.796875q1.09375 0.796875 1.578125 2.421875zm8.69046 7.140625l0 -1.515625q-0.546875 0.8125 -1.453125 1.28125q-0.890625 0.46875 -1.890625 0.46875q-1.03125 0 -1.84375 -0.453125q-0.8125 -0.453125 -1.171875 -1.25q-0.359375 -0.8125 -0.359375 -2.25l0 -6.40625l2.6875 0l0 4.65625q0 2.125 0.140625 2.609375q0.140625 0.484375 0.53125 0.765625q0.40625 0.28125 1.0 0.28125q0.6875 0 1.234375 -0.375q0.546875 -0.375 0.734375 -0.9375q0.203125 -0.5625 0.203125 -2.734375l0 -4.265625l2.6875 0l0 10.125l-2.5 0zm9.914856 -10.125l0 2.140625l-1.828125 0l0 4.078125q0 1.234375 0.046875 1.4375q0.046875 0.203125 0.234375 0.34375q0.1875 0.125 0.453125 0.125q0.375 0 1.078125 -0.25l0.234375 2.078125q-0.9375 0.40625 -2.109375 0.40625q-0.734375 0 -1.3125 -0.234375q-0.578125 -0.25 -0.859375 -0.640625q-0.265625 -0.390625 -0.375 -1.046875q-0.078125 -0.46875 -0.078125 -1.890625l0 -4.40625l-1.234375 0l0 -2.140625l1.234375 0l0 -2.015625l2.6875 -1.5625l0 3.578125l1.828125 0zm1.2384338 4.921875q0 -1.34375 0.65625 -2.59375q0.65625 -1.25 1.859375 -1.90625q1.21875 -0.65625 2.703125 -0.65625q2.296875 0 3.765625 1.5q1.46875 1.484375 1.46875 3.765625q0 2.296875 -1.484375 3.8125q-1.484375 1.515625 -3.734375 1.515625q-1.390625 0 -2.65625 -0.625q-1.265625 -0.640625 -1.921875 -1.859375q-0.65625 -1.21875 -0.65625 -2.953125zm2.75 0.140625q0 1.5 0.703125 2.3125q0.71875 0.796875 1.78125 0.796875q1.046875 0 1.75 -0.796875q0.71875 -0.8125 0.71875 -2.328125q0 -1.5 -0.71875 -2.296875q-0.703125 -0.796875 -1.75 -0.796875q-1.0625 0 -1.78125 0.796875q-0.703125 0.796875 -0.703125 2.3125zm12.36795 5.0625l-2.6875 0l0 -10.125l2.5 0l0 1.4375q0.640625 -1.015625 1.140625 -1.34375q0.515625 -0.328125 1.15625 -0.328125q0.921875 0 1.765625 0.515625l-0.828125 2.328125q-0.671875 -0.4375 -1.25 -0.4375q-0.5625 0 -0.953125 0.3125q-0.390625 0.3125 -0.625 1.125q-0.21875 0.796875 -0.21875 3.390625l0 3.125z" fill-rule="nonzero"/><path fill="#0000ff" d="m269.38693 60.75003l2.75 -0.265625q0.25 1.375 1.0 2.03125q0.765625 0.640625 2.046875 0.640625q1.375 0 2.0625 -0.578125q0.6875 -0.578125 0.6875 -1.34375q0 -0.5 -0.296875 -0.84375q-0.28125 -0.34375 -1.015625 -0.609375q-0.484375 -0.171875 -2.25 -0.609375q-2.265625 -0.5625 -3.1875 -1.375q-1.28125 -1.15625 -1.28125 -2.8125q0 -1.078125 0.59375 -2.0q0.609375 -0.9375 1.75 -1.421875q1.140625 -0.484375 2.75 -0.484375q2.640625 0 3.96875 1.15625q1.328125 1.15625 1.390625 3.078125l-2.828125 0.125q-0.171875 -1.078125 -0.765625 -1.546875q-0.59375 -0.46875 -1.796875 -0.46875q-1.234375 0 -1.921875 0.5q-0.453125 0.328125 -0.453125 0.859375q0 0.5 0.421875 0.859375q0.53125 0.4375 2.59375 0.9375q2.0625 0.484375 3.046875 1.0q0.984375 0.515625 1.546875 1.421875q0.5625 0.90625 0.5625 2.21875q0 1.203125 -0.671875 2.265625q-0.671875 1.046875 -1.890625 1.5625q-1.21875 0.5 -3.046875 0.5q-2.640625 0 -4.0625 -1.21875q-1.421875 -1.234375 -1.703125 -3.578125zm19.589691 1.328125l2.671875 0.4375q-0.515625 1.46875 -1.625 2.25q-1.109375 0.765625 -2.78125 0.765625q-2.640625 0 -3.90625 -1.734375q-1.0 -1.375 -1.0 -3.484375q0 -2.515625 1.3125 -3.9375q1.3125 -1.4375 3.328125 -1.4375q2.265625 0 3.5625 1.5q1.3125 1.484375 1.25 4.5625l-6.71875 0q0.03125 1.203125 0.65625 1.859375q0.625 0.65625 1.546875 0.65625q0.625 0 1.046875 -0.328125q0.4375 -0.34375 0.65625 -1.109375zm0.15625 -2.71875q-0.03125 -1.15625 -0.609375 -1.765625q-0.5625 -0.609375 -1.390625 -0.609375q-0.875 0 -1.4375 0.640625q-0.578125 0.640625 -0.5625 1.734375l4.0 0zm7.40921 5.9375l-2.6875 0l0 -10.125l2.5 0l0 1.4375q0.640625 -1.015625 1.140625 -1.34375q0.515625 -0.328125 1.15625 -0.328125q0.921875 0 1.765625 0.515625l-0.828125 2.328125q-0.671875 -0.4375 -1.25 -0.4375q-0.5625 0 -0.953125 0.3125q-0.390625 0.3125 -0.625 1.125q-0.21875 0.796875 -0.21875 3.390625l0 3.125zm7.8195496 0l-4.078125 -10.125l2.8125 0l1.90625 5.171875l0.546875 1.71875q0.21875 -0.65625 0.28125 -0.859375q0.125 -0.4375 0.28125 -0.859375l1.9375 -5.171875l2.75 0l-4.03125 10.125l-2.40625 0zm8.081085 -11.5l0 -2.484375l2.671875 0l0 2.484375l-2.671875 0zm0 11.5l0 -10.125l2.671875 0l0 10.125l-2.671875 0zm14.254547 -7.140625l-2.640625 0.484375q-0.140625 -0.796875 -0.609375 -1.1875q-0.46875 -0.40625 -1.21875 -0.40625q-1.0 0 -1.609375 0.703125q-0.59375 0.6875 -0.59375 2.296875q0 1.8125 0.609375 2.5625q0.609375 0.734375 1.625 0.734375q0.765625 0 1.25 -0.4375q0.484375 -0.4375 0.6875 -1.484375l2.625 0.4375q-0.40625 1.8125 -1.578125 2.75q-1.15625 0.921875 -3.109375 0.921875q-2.21875 0 -3.546875 -1.40625q-1.3125 -1.40625 -1.3125 -3.875q0 -2.515625 1.328125 -3.90625q1.328125 -1.40625 3.578125 -1.40625q1.859375 0 2.9375 0.796875q1.09375 0.796875 1.578125 2.421875zm7.893585 3.921875l2.671875 0.4375q-0.515625 1.46875 -1.625 2.25q-1.109375 0.765625 -2.78125 0.765625q-2.640625 0 -3.90625 -1.734375q-1.0 -1.375 -1.0 -3.484375q0 -2.515625 1.3125 -3.9375q1.3125 -1.4375 3.328125 -1.4375q2.265625 0 3.5625 1.5q1.3125 1.484375 1.25 4.5625l-6.71875 0q0.03125 1.203125 0.65625 1.859375q0.625 0.65625 1.546875 0.65625q0.625 0 1.046875 -0.328125q0.4375 -0.34375 0.65625 -1.109375zm0.15625 -2.71875q-0.03125 -1.15625 -0.609375 -1.765625q-0.5625 -0.609375 -1.390625 -0.609375q-0.875 0 -1.4375 0.640625q-0.578125 0.640625 -0.5625 1.734375l4.0 0z" fill-rule="nonzero"/><path fill="#990000" d="m151.6798 212.47769l63.044617 0l0 20.480316l-63.044617 0z" fill-rule="evenodd"/><path fill="#fff2cc" d="m178.60074 227.51785l0 -1.828125l1.828125 0l0 1.828125l-1.828125 0zm3.7029877 0l0 -1.828125l1.828125 0l0 1.828125l-1.828125 0zm3.7029877 0l0 -1.828125l1.828125 0l0 1.828125l-1.828125 0z" fill-rule="nonzero"/><path fill="#990000" d="m151.6798 237.11154l63.044617 0l0 20.480316l-63.044617 0z" fill-rule="evenodd"/><path fill="#fff2cc" d="m178.60074 252.1517l0 -1.828125l1.828125 0l0 1.828125l-1.828125 0zm3.7029877 0l0 -1.828125l1.828125 0l0 1.828125l-1.828125 0zm3.7029877 0l0 -1.828125l1.828125 0l0 1.828125l-1.828125 0z" fill-rule="nonzero"/><path fill="#990000" d="m151.6798 261.74802l63.044617 0l0 20.480316l-63.044617 0z" fill-rule="evenodd"/><path fill="#fff2cc" d="m172.95317 276.78818l0 -8.421875l-3.140625 0l0 -1.125l7.5625 0l0 1.125l-3.15625 0l0 8.421875l-1.265625 0zm8.600998 -0.859375q-0.65625 0.5625 -1.265625 0.796875q-0.59375 0.21875 -1.28125 0.21875q-1.140625 0 -1.75 -0.546875q-0.609375 -0.5625 -0.609375 -1.4375q0 -0.5 0.21875 -0.921875q0.234375 -0.421875 0.609375 -0.671875q0.375 -0.25 0.84375 -0.390625q0.34375 -0.078125 1.046875 -0.171875q1.421875 -0.171875 2.09375 -0.40625q0 -0.234375 0 -0.296875q0 -0.71875 -0.328125 -1.015625q-0.453125 -0.390625 -1.34375 -0.390625q-0.8125 0 -1.21875 0.296875q-0.390625 0.28125 -0.578125 1.015625l-1.140625 -0.15625q0.15625 -0.734375 0.515625 -1.1875q0.359375 -0.453125 1.03125 -0.6875q0.671875 -0.25 1.5625 -0.25q0.890625 0 1.4375 0.203125q0.5625 0.203125 0.8125 0.53125q0.265625 0.3125 0.375 0.796875q0.046875 0.296875 0.046875 1.078125l0 1.5625q0 1.625 0.078125 2.0625q0.078125 0.4375 0.296875 0.828125l-1.21875 0q-0.1875 -0.359375 -0.234375 -0.859375zm-0.09375 -2.609375q-0.640625 0.265625 -1.921875 0.4375q-0.71875 0.109375 -1.015625 0.25q-0.296875 0.125 -0.46875 0.375q-0.15625 0.25 -0.15625 0.546875q0 0.46875 0.34375 0.78125q0.359375 0.3125 1.046875 0.3125q0.671875 0 1.203125 -0.296875q0.53125 -0.296875 0.78125 -0.8125q0.1875 -0.390625 0.1875 -1.171875l0 -0.421875zm2.5218506 1.40625l1.15625 -0.1875q0.109375 0.703125 0.546875 1.078125q0.453125 0.359375 1.25 0.359375q0.8125 0 1.203125 -0.328125q0.390625 -0.328125 0.390625 -0.765625q0 -0.390625 -0.359375 -0.625q-0.234375 -0.15625 -1.1875 -0.390625q-1.296875 -0.328125 -1.796875 -0.5625q-0.484375 -0.25 -0.75 -0.65625q-0.25 -0.421875 -0.25 -0.9375q0 -0.453125 0.203125 -0.84375q0.21875 -0.40625 0.578125 -0.671875q0.28125 -0.1875 0.75 -0.328125q0.46875 -0.140625 1.015625 -0.140625q0.8125 0 1.421875 0.234375q0.609375 0.234375 0.90625 0.640625q0.296875 0.390625 0.40625 1.0625l-1.140625 0.15625q-0.078125 -0.53125 -0.453125 -0.828125q-0.375 -0.3125 -1.0625 -0.3125q-0.8125 0 -1.15625 0.265625q-0.34375 0.265625 -0.34375 0.625q0 0.234375 0.140625 0.421875q0.15625 0.1875 0.453125 0.3125q0.171875 0.0625 1.03125 0.296875q1.25 0.328125 1.734375 0.546875q0.5 0.203125 0.78125 0.609375q0.28125 0.40625 0.28125 1.0q0 0.59375 -0.34375 1.109375q-0.34375 0.515625 -1.0 0.796875q-0.640625 0.28125 -1.453125 0.28125q-1.34375 0 -2.046875 -0.5625q-0.703125 -0.5625 -0.90625 -1.65625zm7.1484375 2.0625l0 -9.546875l1.171875 0l0 5.453125l2.765625 -2.8125l1.515625 0l-2.640625 2.5625l2.90625 4.34375l-1.4375 0l-2.28125 -3.53125l-0.828125 0.796875l0 2.734375l-1.171875 0z" fill-rule="nonzero"/><path fill="#990000" d="m151.6798 286.3832l63.044617 0l0 20.480316l-63.044617 0z" fill-rule="evenodd"/><path fill="#fff2cc" d="m172.95317 301.42337l0 -8.421875l-3.140625 0l0 -1.125l7.5625 0l0 1.125l-3.15625 0l0 8.421875l-1.265625 0zm8.600998 -0.859375q-0.65625 0.5625 -1.265625 0.796875q-0.59375 0.21875 -1.28125 0.21875q-1.140625 0 -1.75 -0.546875q-0.609375 -0.5625 -0.609375 -1.4375q0 -0.5 0.21875 -0.921875q0.234375 -0.421875 0.609375 -0.671875q0.375 -0.25 0.84375 -0.390625q0.34375 -0.078125 1.046875 -0.171875q1.421875 -0.171875 2.09375 -0.40625q0 -0.234375 0 -0.296875q0 -0.71875 -0.328125 -1.015625q-0.453125 -0.390625 -1.34375 -0.390625q-0.8125 0 -1.21875 0.296875q-0.390625 0.28125 -0.578125 1.015625l-1.140625 -0.15625q0.15625 -0.734375 0.515625 -1.1875q0.359375 -0.453125 1.03125 -0.6875q0.671875 -0.25 1.5625 -0.25q0.890625 0 1.4375 0.203125q0.5625 0.203125 0.8125 0.53125q0.265625 0.3125 0.375 0.796875q0.046875 0.296875 0.046875 1.078125l0 1.5625q0 1.625 0.078125 2.0625q0.078125 0.4375 0.296875 0.828125l-1.21875 0q-0.1875 -0.359375 -0.234375 -0.859375zm-0.09375 -2.609375q-0.640625 0.265625 -1.921875 0.4375q-0.71875 0.109375 -1.015625 0.25q-0.296875 0.125 -0.46875 0.375q-0.15625 0.25 -0.15625 0.546875q0 0.46875 0.34375 0.78125q0.359375 0.3125 1.046875 0.3125q0.671875 0 1.203125 -0.296875q0.53125 -0.296875 0.78125 -0.8125q0.1875 -0.390625 0.1875 -1.171875l0 -0.421875zm2.5218506 1.40625l1.15625 -0.1875q0.109375 0.703125 0.546875 1.078125q0.453125 0.359375 1.25 0.359375q0.8125 0 1.203125 -0.328125q0.390625 -0.328125 0.390625 -0.765625q0 -0.390625 -0.359375 -0.625q-0.234375 -0.15625 -1.1875 -0.390625q-1.296875 -0.328125 -1.796875 -0.5625q-0.484375 -0.25 -0.75 -0.65625q-0.25 -0.421875 -0.25 -0.9375q0 -0.453125 0.203125 -0.84375q0.21875 -0.40625 0.578125 -0.671875q0.28125 -0.1875 0.75 -0.328125q0.46875 -0.140625 1.015625 -0.140625q0.8125 0 1.421875 0.234375q0.609375 0.234375 0.90625 0.640625q0.296875 0.390625 0.40625 1.0625l-1.140625 0.15625q-0.078125 -0.53125 -0.453125 -0.828125q-0.375 -0.3125 -1.0625 -0.3125q-0.8125 0 -1.15625 0.265625q-0.34375 0.265625 -0.34375 0.625q0 0.234375 0.140625 0.421875q0.15625 0.1875 0.453125 0.3125q0.171875 0.0625 1.03125 0.296875q1.25 0.328125 1.734375 0.546875q0.5 0.203125 0.78125 0.609375q0.28125 0.40625 0.28125 1.0q0 0.59375 -0.34375 1.109375q-0.34375 0.515625 -1.0 0.796875q-0.640625 0.28125 -1.453125 0.28125q-1.34375 0 -2.046875 -0.5625q-0.703125 -0.5625 -0.90625 -1.65625zm7.1484375 2.0625l0 -9.546875l1.171875 0l0 5.453125l2.765625 -2.8125l1.515625 0l-2.640625 2.5625l2.90625 4.34375l-1.4375 0l-2.28125 -3.53125l-0.828125 0.796875l0 2.734375l-1.171875 0z" fill-rule="nonzero"/><path fill="#990000" d="m151.6798 311.01837l63.044617 0l0 20.480316l-63.044617 0z" fill-rule="evenodd"/><path fill="#fff2cc" d="m172.95317 326.05853l0 -8.421875l-3.140625 0l0 -1.125l7.5625 0l0 1.125l-3.15625 0l0 8.421875l-1.265625 0zm8.600998 -0.859375q-0.65625 0.5625 -1.265625 0.796875q-0.59375 0.21875 -1.28125 0.21875q-1.140625 0 -1.75 -0.546875q-0.609375 -0.5625 -0.609375 -1.4375q0 -0.5 0.21875 -0.921875q0.234375 -0.421875 0.609375 -0.671875q0.375 -0.25 0.84375 -0.390625q0.34375 -0.078125 1.046875 -0.171875q1.421875 -0.171875 2.09375 -0.40625q0 -0.234375 0 -0.296875q0 -0.71875 -0.328125 -1.015625q-0.453125 -0.390625 -1.34375 -0.390625q-0.8125 0 -1.21875 0.296875q-0.390625 0.28125 -0.578125 1.015625l-1.140625 -0.15625q0.15625 -0.734375 0.515625 -1.1875q0.359375 -0.453125 1.03125 -0.6875q0.671875 -0.25 1.5625 -0.25q0.890625 0 1.4375 0.203125q0.5625 0.203125 0.8125 0.53125q0.265625 0.3125 0.375 0.796875q0.046875 0.296875 0.046875 1.078125l0 1.5625q0 1.625 0.078125 2.0625q0.078125 0.4375 0.296875 0.828125l-1.21875 0q-0.1875 -0.359375 -0.234375 -0.859375zm-0.09375 -2.609375q-0.640625 0.265625 -1.921875 0.4375q-0.71875 0.109375 -1.015625 0.25q-0.296875 0.125 -0.46875 0.375q-0.15625 0.25 -0.15625 0.546875q0 0.46875 0.34375 0.78125q0.359375 0.3125 1.046875 0.3125q0.671875 0 1.203125 -0.296875q0.53125 -0.296875 0.78125 -0.8125q0.1875 -0.390625 0.1875 -1.171875l0 -0.421875zm2.5218506 1.40625l1.15625 -0.1875q0.109375 0.703125 0.546875 1.078125q0.453125 0.359375 1.25 0.359375q0.8125 0 1.203125 -0.328125q0.390625 -0.328125 0.390625 -0.765625q0 -0.390625 -0.359375 -0.625q-0.234375 -0.15625 -1.1875 -0.390625q-1.296875 -0.328125 -1.796875 -0.5625q-0.484375 -0.25 -0.75 -0.65625q-0.25 -0.421875 -0.25 -0.9375q0 -0.453125 0.203125 -0.84375q0.21875 -0.40625 0.578125 -0.671875q0.28125 -0.1875 0.75 -0.328125q0.46875 -0.140625 1.015625 -0.140625q0.8125 0 1.421875 0.234375q0.609375 0.234375 0.90625 0.640625q0.296875 0.390625 0.40625 1.0625l-1.140625 0.15625q-0.078125 -0.53125 -0.453125 -0.828125q-0.375 -0.3125 -1.0625 -0.3125q-0.8125 0 -1.15625 0.265625q-0.34375 0.265625 -0.34375 0.625q0 0.234375 0.140625 0.421875q0.15625 0.1875 0.453125 0.3125q0.171875 0.0625 1.03125 0.296875q1.25 0.328125 1.734375 0.546875q0.5 0.203125 0.78125 0.609375q0.28125 0.40625 0.28125 1.0q0 0.59375 -0.34375 1.109375q-0.34375 0.515625 -1.0 0.796875q-0.640625 0.28125 -1.453125 0.28125q-1.34375 0 -2.046875 -0.5625q-0.703125 -0.5625 -0.90625 -1.65625zm7.1484375 2.0625l0 -9.546875l1.171875 0l0 5.453125l2.765625 -2.8125l1.515625 0l-2.640625 2.5625l2.90625 4.34375l-1.4375 0l-2.28125 -3.53125l-0.828125 0.796875l0 2.734375l-1.171875 0z" fill-rule="nonzero"/><path fill="#990000" d="m151.6798 335.65353l63.044617 0l0 20.480316l-63.044617 0z" fill-rule="evenodd"/><path fill="#fff2cc" d="m172.95317 350.6937l0 -8.421875l-3.140625 0l0 -1.125l7.5625 0l0 1.125l-3.15625 0l0 8.421875l-1.265625 0zm8.600998 -0.859375q-0.65625 0.5625 -1.265625 0.796875q-0.59375 0.21875 -1.28125 0.21875q-1.140625 0 -1.75 -0.546875q-0.609375 -0.5625 -0.609375 -1.4375q0 -0.5 0.21875 -0.921875q0.234375 -0.421875 0.609375 -0.671875q0.375 -0.25 0.84375 -0.390625q0.34375 -0.078125 1.046875 -0.171875q1.421875 -0.171875 2.09375 -0.40625q0 -0.234375 0 -0.296875q0 -0.71875 -0.328125 -1.015625q-0.453125 -0.390625 -1.34375 -0.390625q-0.8125 0 -1.21875 0.296875q-0.390625 0.28125 -0.578125 1.015625l-1.140625 -0.15625q0.15625 -0.734375 0.515625 -1.1875q0.359375 -0.453125 1.03125 -0.6875q0.671875 -0.25 1.5625 -0.25q0.890625 0 1.4375 0.203125q0.5625 0.203125 0.8125 0.53125q0.265625 0.3125 0.375 0.796875q0.046875 0.296875 0.046875 1.078125l0 1.5625q0 1.625 0.078125 2.0625q0.078125 0.4375 0.296875 0.828125l-1.21875 0q-0.1875 -0.359375 -0.234375 -0.859375zm-0.09375 -2.609375q-0.640625 0.265625 -1.921875 0.4375q-0.71875 0.109375 -1.015625 0.25q-0.296875 0.125 -0.46875 0.375q-0.15625 0.25 -0.15625 0.546875q0 0.46875 0.34375 0.78125q0.359375 0.3125 1.046875 0.3125q0.671875 0 1.203125 -0.296875q0.53125 -0.296875 0.78125 -0.8125q0.1875 -0.390625 0.1875 -1.171875l0 -0.421875zm2.5218506 1.40625l1.15625 -0.1875q0.109375 0.703125 0.546875 1.078125q0.453125 0.359375 1.25 0.359375q0.8125 0 1.203125 -0.328125q0.390625 -0.328125 0.390625 -0.765625q0 -0.390625 -0.359375 -0.625q-0.234375 -0.15625 -1.1875 -0.390625q-1.296875 -0.328125 -1.796875 -0.5625q-0.484375 -0.25 -0.75 -0.65625q-0.25 -0.421875 -0.25 -0.9375q0 -0.453125 0.203125 -0.84375q0.21875 -0.40625 0.578125 -0.671875q0.28125 -0.1875 0.75 -0.328125q0.46875 -0.140625 1.015625 -0.140625q0.8125 0 1.421875 0.234375q0.609375 0.234375 0.90625 0.640625q0.296875 0.390625 0.40625 1.0625l-1.140625 0.15625q-0.078125 -0.53125 -0.453125 -0.828125q-0.375 -0.3125 -1.0625 -0.3125q-0.8125 0 -1.15625 0.265625q-0.34375 0.265625 -0.34375 0.625q0 0.234375 0.140625 0.421875q0.15625 0.1875 0.453125 0.3125q0.171875 0.0625 1.03125 0.296875q1.25 0.328125 1.734375 0.546875q0.5 0.203125 0.78125 0.609375q0.28125 0.40625 0.28125 1.0q0 0.59375 -0.34375 1.109375q-0.34375 0.515625 -1.0 0.796875q-0.640625 0.28125 -1.453125 0.28125q-1.34375 0 -2.046875 -0.5625q-0.703125 -0.5625 -0.90625 -1.65625zm7.1484375 2.0625l0 -9.546875l1.171875 0l0 5.453125l2.765625 -2.8125l1.515625 0l-2.640625 2.5625l2.90625 4.34375l-1.4375 0l-2.28125 -3.53125l-0.828125 0.796875l0 2.734375l-1.171875 0z" fill-rule="nonzero"/><path fill="#000000" fill-opacity="0.0" d="m214.72441 271.9882l50.866135 0.40945435" fill-rule="evenodd"/><path stroke="#666666" stroke-width="2.0" stroke-linejoin="round" stroke-linecap="butt" d="m214.72441 271.9882l38.86653 0.3128357" fill-rule="evenodd"/><path fill="#666666" stroke="#666666" stroke-width="2.0" stroke-linecap="butt" d="m253.56435 275.6044l9.102493 -3.2302856l-9.049301 -3.3764343z" fill-rule="evenodd"/><path fill="#000000" fill-opacity="0.0" d="m214.72441 296.62335l50.866135 0.18899536" fill-rule="evenodd"/><path stroke="#666666" stroke-width="2.0" stroke-linejoin="round" stroke-linecap="butt" d="m214.72441 296.62335l38.866226 0.14440918" fill-rule="evenodd"/><path fill="#666666" stroke="#666666" stroke-width="2.0" stroke-linecap="butt" d="m253.57837 300.0712l9.088409 -3.2697144l-9.063873 -3.3371582z" fill-rule="evenodd"/><path fill="#000000" fill-opacity="0.0" d="m214.72441 321.25854l50.866135 0" fill-rule="evenodd"/><path stroke="#666666" stroke-width="2.0" stroke-linejoin="round" stroke-linecap="butt" d="m214.72441 321.25854l38.866135 0" fill-rule="evenodd"/><path fill="#666666" stroke="#666666" stroke-width="2.0" stroke-linecap="butt" d="m253.59055 324.56198l9.076202 -3.3034363l-9.076202 -3.3034668z" fill-rule="evenodd"/><path fill="#000000" fill-opacity="0.0" d="m214.72441 345.8937l50.866135 -0.2204895" fill-rule="evenodd"/><path stroke="#666666" stroke-width="2.0" stroke-linejoin="round" stroke-linecap="butt" d="m214.72441 345.8937l38.866257 -0.16848755" fill-rule="evenodd"/><path fill="#666666" stroke="#666666" stroke-width="2.0" stroke-linecap="butt" d="m253.60498 349.0287l9.061798 -3.3427734l-9.090439 -3.2640991z" fill-rule="evenodd"/><path fill="#000000" fill-opacity="0.0" d="m96.002625 75.89895l55.685043 -0.9763794" fill-rule="evenodd"/><path stroke="#999999" stroke-width="2.0" stroke-linejoin="round" stroke-linecap="butt" d="m96.002625 75.89895l43.68689 -0.76600647" fill-rule="evenodd"/><path fill="#999999" stroke="#999999" stroke-width="2.0" stroke-linecap="butt" d="m139.74742 78.435905l9.0168915 -3.4620743l-9.132721 -3.1438446z" fill-rule="evenodd"/><path fill="#000000" fill-opacity="0.0" d="m96.002625 100.53281l55.685043 -0.9763794" fill-rule="evenodd"/><path stroke="#999999" stroke-width="2.0" stroke-linejoin="round" stroke-linecap="butt" d="m96.002625 100.53281l43.68689 -0.76599884" fill-rule="evenodd"/><path fill="#999999" stroke="#999999" stroke-width="2.0" stroke-linecap="butt" d="m139.74742 103.06976l9.0168915 -3.4620743l-9.132721 -3.143837z" fill-rule="evenodd"/><path fill="#000000" fill-opacity="0.0" d="m96.002625 125.16798l55.685043 -0.97637177" fill-rule="evenodd"/><path stroke="#999999" stroke-width="2.0" stroke-linejoin="round" stroke-linecap="butt" d="m96.002625 125.16798l43.68689 -0.76599884" fill-rule="evenodd"/><path fill="#999999" stroke="#999999" stroke-width="2.0" stroke-linecap="butt" d="m139.74742 127.70493l9.0168915 -3.4620743l-9.132721 -3.143837z" fill-rule="evenodd"/><path fill="#000000" fill-opacity="0.0" d="m96.002625 149.80446l55.685043 -0.9763794" fill-rule="evenodd"/><path stroke="#999999" stroke-width="2.0" stroke-linejoin="round" stroke-linecap="butt" d="m96.002625 149.80446l43.68689 -0.76600647" fill-rule="evenodd"/><path fill="#999999" stroke="#999999" stroke-width="2.0" stroke-linecap="butt" d="m139.74742 152.34142l9.0168915 -3.4620667l-9.132721 -3.1438446z" fill-rule="evenodd"/><path fill="#000000" fill-opacity="0.0" d="m255.36482 215.70341l97.291336 0l0 37.32283l-97.291336 0z" fill-rule="evenodd"/><path fill="#b45f06" d="m285.574 234.585l0 -7.640625l-2.71875 0l0 -1.5625l7.3125 0l0 1.5625l-2.734375 0l0 7.640625l-1.859375 0zm7.542511 -9.203125l0 3.375q0.84375 -0.984375 2.03125 -0.984375q0.609375 0 1.09375 0.234375q0.5 0.21875 0.75 0.578125q0.25 0.34375 0.328125 0.765625q0.09375 0.421875 0.09375 1.328125l0 3.90625l-1.765625 0l0 -3.515625q0 -1.0625 -0.109375 -1.34375q-0.09375 -0.28125 -0.34375 -0.4375q-0.25 -0.171875 -0.640625 -0.171875q-0.4375 0 -0.78125 0.21875q-0.34375 0.203125 -0.5 0.640625q-0.15625 0.421875 -0.15625 1.265625l0 3.34375l-1.765625 0l0 -9.203125l1.765625 0zm7.7769165 9.203125l-1.765625 0l0 -6.671875l1.640625 0l0 0.953125q0.421875 -0.671875 0.75 -0.875q0.34375 -0.21875 0.765625 -0.21875q0.609375 0 1.171875 0.328125l-0.546875 1.53125q-0.453125 -0.28125 -0.828125 -0.28125q-0.375 0 -0.640625 0.203125q-0.25 0.203125 -0.40625 0.734375q-0.140625 0.53125 -0.140625 2.234375l0 2.0625zm7.176239 -2.125l1.765625 0.296875q-0.34375 0.96875 -1.078125 1.484375q-0.734375 0.5 -1.828125 0.5q-1.734375 0 -2.578125 -1.140625q-0.65625 -0.90625 -0.65625 -2.296875q0 -1.65625 0.859375 -2.59375q0.875 -0.9375 2.203125 -0.9375q1.484375 0 2.34375 0.984375q0.859375 0.96875 0.828125 3.0l-4.421875 0q0.015625 0.78125 0.421875 1.21875q0.40625 0.4375 1.015625 0.4375q0.421875 0 0.703125 -0.21875q0.28125 -0.234375 0.421875 -0.734375zm0.109375 -1.78125q-0.03125 -0.765625 -0.40625 -1.15625q-0.375 -0.40625 -0.90625 -0.40625q-0.578125 0 -0.953125 0.421875q-0.390625 0.421875 -0.375 1.140625l2.640625 0zm4.495514 -0.734375l-1.59375 -0.28125q0.265625 -0.96875 0.921875 -1.421875q0.671875 -0.46875 1.96875 -0.46875q1.171875 0 1.75 0.28125q0.578125 0.265625 0.8125 0.703125q0.234375 0.421875 0.234375 1.578125l-0.015625 2.0625q0 0.875 0.078125 1.296875q0.09375 0.40625 0.328125 0.890625l-1.75 0q-0.0625 -0.171875 -0.171875 -0.515625q-0.03125 -0.15625 -0.0625 -0.21875q-0.453125 0.453125 -0.96875 0.671875q-0.5 0.21875 -1.09375 0.21875q-1.03125 0 -1.625 -0.5625q-0.59375 -0.5625 -0.59375 -1.421875q0 -0.5625 0.265625 -1.0q0.28125 -0.4375 0.765625 -0.671875q0.484375 -0.25 1.40625 -0.421875q1.234375 -0.234375 1.71875 -0.421875l0 -0.1875q0 -0.5 -0.265625 -0.71875q-0.25 -0.21875 -0.9375 -0.21875q-0.46875 0 -0.734375 0.1875q-0.265625 0.1875 -0.4375 0.640625zm2.375 1.4375q-0.34375 0.109375 -1.078125 0.265625q-0.734375 0.15625 -0.96875 0.3125q-0.34375 0.25 -0.34375 0.625q0 0.375 0.28125 0.640625q0.28125 0.265625 0.703125 0.265625q0.46875 0 0.90625 -0.3125q0.328125 -0.234375 0.421875 -0.578125q0.078125 -0.234375 0.078125 -0.859375l0 -0.359375zm9.573669 3.203125l-1.625 0l0 -0.984375q-0.421875 0.578125 -0.984375 0.859375q-0.546875 0.28125 -1.109375 0.28125q-1.140625 0 -1.96875 -0.921875q-0.8125 -0.9375 -0.8125 -2.59375q0 -1.6875 0.796875 -2.5625q0.796875 -0.890625 2.015625 -0.890625q1.109375 0 1.9375 0.921875l0 -3.3125l1.75 0l0 9.203125zm-4.703125 -3.484375q0 1.078125 0.296875 1.546875q0.421875 0.6875 1.1875 0.6875q0.609375 0 1.03125 -0.515625q0.4375 -0.515625 0.4375 -1.546875q0 -1.140625 -0.421875 -1.640625q-0.40625 -0.515625 -1.046875 -0.515625q-0.640625 0 -1.0625 0.5q-0.421875 0.5 -0.421875 1.484375z" fill-rule="nonzero"/><path fill="#b45f06" d="m291.01804 246.93701l0 -9.203125l2.984375 0q1.6875 0 2.203125 0.140625q0.796875 0.203125 1.328125 0.90625q0.53125 0.6875 0.53125 1.78125q0 0.84375 -0.3125 1.421875q-0.296875 0.578125 -0.78125 0.921875q-0.46875 0.328125 -0.953125 0.421875q-0.671875 0.140625 -1.9375 0.140625l-1.203125 0l0 3.46875l-1.859375 0zm1.859375 -7.640625l0 2.609375l1.015625 0q1.09375 0 1.46875 -0.140625q0.375 -0.15625 0.578125 -0.453125q0.21875 -0.3125 0.21875 -0.71875q0 -0.5 -0.296875 -0.828125q-0.296875 -0.328125 -0.75 -0.40625q-0.328125 -0.0625 -1.34375 -0.0625l-0.890625 0zm6.295868 4.21875q0 -0.890625 0.421875 -1.703125q0.4375 -0.828125 1.234375 -1.25q0.796875 -0.4375 1.78125 -0.4375q1.515625 0 2.46875 0.984375q0.96875 0.96875 0.96875 2.46875q0 1.515625 -0.984375 2.515625q-0.96875 1.0 -2.4375 1.0q-0.921875 0 -1.765625 -0.40625q-0.828125 -0.421875 -1.265625 -1.21875q-0.421875 -0.8125 -0.421875 -1.953125zm1.8125 0.09375q0 0.984375 0.46875 1.515625q0.46875 0.53125 1.15625 0.53125q0.6875 0 1.15625 -0.53125q0.46875 -0.53125 0.46875 -1.53125q0 -0.984375 -0.46875 -1.5q-0.46875 -0.53125 -1.15625 -0.53125q-0.6875 0 -1.15625 0.53125q-0.46875 0.515625 -0.46875 1.515625zm6.042511 -0.09375q0 -0.890625 0.421875 -1.703125q0.4375 -0.828125 1.234375 -1.25q0.796875 -0.4375 1.78125 -0.4375q1.515625 0 2.46875 0.984375q0.96875 0.96875 0.96875 2.46875q0 1.515625 -0.984375 2.515625q-0.96875 1.0 -2.4375 1.0q-0.921875 0 -1.765625 -0.40625q-0.828125 -0.421875 -1.265625 -1.21875q-0.421875 -0.8125 -0.421875 -1.953125zm1.8125 0.09375q0 0.984375 0.46875 1.515625q0.46875 0.53125 1.15625 0.53125q0.6875 0 1.15625 -0.53125q0.46875 -0.53125 0.46875 -1.53125q0 -0.984375 -0.46875 -1.5q-0.46875 -0.53125 -1.15625 -0.53125q-0.6875 0 -1.15625 0.53125q-0.46875 0.515625 -0.46875 1.515625zm6.4487915 3.328125l0 -9.203125l1.765625 0l0 9.203125l-1.765625 0z" fill-rule="nonzero"/><path fill="#000000" fill-opacity="0.0" d="m140.25722 24.661417l83.71654 0l0 37.322838l-83.71654 0z" fill-rule="evenodd"/><path fill="#b45f06" d="m170.93777 43.54302l0 -7.640625l-2.71875 0l0 -1.5625l7.3125 0l0 1.5625l-2.734375 0l0 7.640625l-1.859375 0zm6.1344604 -4.640625l-1.59375 -0.28125q0.265625 -0.96875 0.921875 -1.421875q0.671875 -0.46875 1.96875 -0.46875q1.171875 0 1.75 0.28125q0.578125 0.265625 0.8125 0.703125q0.234375 0.421875 0.234375 1.578125l-0.015625 2.0625q0 0.875 0.078125 1.296875q0.09375 0.40625 0.328125 0.890625l-1.75 0q-0.0625 -0.171875 -0.171875 -0.515625q-0.03125 -0.15625 -0.0625 -0.21875q-0.453125 0.453125 -0.96875 0.671875q-0.5 0.21875 -1.09375 0.21875q-1.03125 0 -1.625 -0.5625q-0.59375 -0.5625 -0.59375 -1.421875q0 -0.5625 0.265625 -1.0q0.28125 -0.4375 0.765625 -0.671875q0.484375 -0.25 1.40625 -0.421875q1.234375 -0.234375 1.71875 -0.421875l0 -0.1875q0 -0.5 -0.265625 -0.71875q-0.25 -0.21875 -0.9375 -0.21875q-0.46875 0 -0.734375 0.1875q-0.265625 0.1875 -0.4375 0.640625zm2.375 1.4375q-0.34375 0.109375 -1.078125 0.265625q-0.734375 0.15625 -0.96875 0.3125q-0.34375 0.25 -0.34375 0.625q0 0.375 0.28125 0.640625q0.28125 0.265625 0.703125 0.265625q0.46875 0 0.90625 -0.3125q0.328125 -0.234375 0.421875 -0.578125q0.078125 -0.234375 0.078125 -0.859375l0 -0.359375zm2.8392792 1.296875l1.78125 -0.265625q0.109375 0.515625 0.453125 0.78125q0.34375 0.265625 0.96875 0.265625q0.6875 0 1.03125 -0.25q0.234375 -0.171875 0.234375 -0.46875q0 -0.203125 -0.125 -0.328125q-0.140625 -0.125 -0.59375 -0.234375q-2.140625 -0.46875 -2.703125 -0.859375q-0.796875 -0.546875 -0.796875 -1.5q0 -0.875 0.6875 -1.453125q0.6875 -0.59375 2.125 -0.59375q1.359375 0 2.015625 0.453125q0.671875 0.4375 0.921875 1.3125l-1.65625 0.296875q-0.109375 -0.390625 -0.40625 -0.59375q-0.296875 -0.203125 -0.84375 -0.203125q-0.703125 0 -1.0 0.1875q-0.203125 0.140625 -0.203125 0.359375q0 0.1875 0.171875 0.328125q0.234375 0.171875 1.640625 0.5q1.421875 0.3125 1.984375 0.78125q0.546875 0.46875 0.546875 1.3125q0 0.90625 -0.765625 1.578125q-0.765625 0.65625 -2.265625 0.65625q-1.359375 0 -2.15625 -0.546875q-0.796875 -0.5625 -1.046875 -1.515625zm7.714279 1.90625l0 -9.203125l1.765625 0l0 4.890625l2.0625 -2.359375l2.171875 0l-2.28125 2.4375l2.453125 4.234375l-1.90625 0l-1.671875 -3.0l-0.828125 0.859375l0 2.140625l-1.765625 0z" fill-rule="nonzero"/><path fill="#b45f06" d="m172.2376 54.72314q0.6875 0.5 1.484375 0.78125l-0.671875 1.3125q-0.421875 -0.125 -0.828125 -0.34375q-0.09375 -0.046875 -1.234375 -0.8125q-0.90625 0.390625 -2.0 0.390625q-2.125 0 -3.328125 -1.25q-1.203125 -1.25 -1.203125 -3.515625q0 -2.25 1.203125 -3.5q1.203125 -1.25 3.265625 -1.25q2.046875 0 3.25 1.25q1.203125 1.25 1.203125 3.5q0 1.203125 -0.328125 2.109375q-0.265625 0.6875 -0.8125 1.328125zm-1.5 -1.046875q0.359375 -0.421875 0.53125 -1.015625q0.1875 -0.59375 0.1875 -1.375q0 -1.59375 -0.703125 -2.375q-0.703125 -0.78125 -1.84375 -0.78125q-1.125 0 -1.84375 0.796875q-0.703125 0.78125 -0.703125 2.359375q0 1.625 0.703125 2.421875q0.71875 0.796875 1.796875 0.796875q0.40625 0 0.75 -0.125q-0.5625 -0.375 -1.140625 -0.578125l0.515625 -1.0625q0.921875 0.3125 1.75 0.9375zm8.471191 2.21875l0 -1.0q-0.359375 0.53125 -0.953125 0.84375q-0.59375 0.3125 -1.25 0.3125q-0.671875 0 -1.21875 -0.296875q-0.53125 -0.296875 -0.765625 -0.828125q-0.234375 -0.53125 -0.234375 -1.484375l0 -4.21875l1.765625 0l0 3.0625q0 1.40625 0.09375 1.734375q0.09375 0.3125 0.34375 0.5q0.265625 0.1875 0.65625 0.1875q0.453125 0 0.8125 -0.25q0.359375 -0.25 0.484375 -0.609375q0.140625 -0.375 0.140625 -1.8125l0 -2.8125l1.765625 0l0 6.671875l-1.640625 0zm7.3237762 -2.125l1.765625 0.296875q-0.34375 0.96875 -1.078125 1.484375q-0.734375 0.5 -1.828125 0.5q-1.734375 0 -2.578125 -1.140625q-0.65625 -0.90625 -0.65625 -2.296875q0 -1.65625 0.859375 -2.59375q0.875 -0.9375 2.203125 -0.9375q1.484375 0 2.34375 0.984375q0.859375 0.96875 0.828125 3.0l-4.421875 0q0.015625 0.78125 0.421875 1.21875q0.40625 0.4375 1.015625 0.4375q0.421875 0 0.703125 -0.21875q0.28125 -0.234375 0.421875 -0.734375zm0.109375 -1.78125q-0.03125 -0.765625 -0.40625 -1.15625q-0.375 -0.40625 -0.90625 -0.40625q-0.578125 0 -0.953125 0.421875q-0.390625 0.421875 -0.375 1.140625l2.640625 0zm7.573654 3.90625l0 -1.0q-0.359375 0.53125 -0.953125 0.84375q-0.59375 0.3125 -1.25 0.3125q-0.671875 0 -1.21875 -0.296875q-0.53125 -0.296875 -0.765625 -0.828125q-0.234375 -0.53125 -0.234375 -1.484375l0 -4.21875l1.765625 0l0 3.0625q0 1.40625 0.09375 1.734375q0.09375 0.3125 0.34375 0.5q0.265625 0.1875 0.65625 0.1875q0.453125 0 0.8125 -0.25q0.359375 -0.25 0.484375 -0.609375q0.140625 -0.375 0.140625 -1.8125l0 -2.8125l1.765625 0l0 6.671875l-1.640625 0zm7.3237762 -2.125l1.765625 0.296875q-0.34375 0.96875 -1.078125 1.484375q-0.734375 0.5 -1.828125 0.5q-1.734375 0 -2.578125 -1.140625q-0.65625 -0.90625 -0.65625 -2.296875q0 -1.65625 0.859375 -2.59375q0.875 -0.9375 2.203125 -0.9375q1.484375 0 2.34375 0.984375q0.859375 0.96875 0.828125 3.0l-4.421875 0q0.015625 0.78125 0.421875 1.21875q0.40625 0.4375 1.015625 0.4375q0.421875 0 0.703125 -0.21875q0.28125 -0.234375 0.421875 -0.734375zm0.109375 -1.78125q-0.03125 -0.765625 -0.40625 -1.15625q-0.375 -0.40625 -0.90625 -0.40625q-0.578125 0 -0.953125 0.421875q-0.390625 0.421875 -0.375 1.140625l2.640625 0z" fill-rule="nonzero"/></g></svg>