<svg version="1.1" viewBox="0.0 0.0 650.2703412073491 635.1049868766404" fill="none" stroke="none" stroke-linecap="square" stroke-miterlimit="10" xmlns:xlink="http://www.w3.org/1999/xlink" xmlns="http://www.w3.org/2000/svg"><clipPath id="p.0"><path d="m0 0l650.2703 0l0 635.105l-650.2703 0l0 -635.105z" clip-rule="nonzero"/></clipPath><g clip-path="url(#p.0)"><path fill="#000000" fill-opacity="0.0" d="m0 0l650.2703 0l0 635.105l-650.2703 0z" fill-rule="evenodd"/><path fill="#434343" d="m-3.3097112 0.005249344l654.1102 0l0 636.126l-654.1102 0z" fill-rule="evenodd"/><path fill="#ffe599" d="m404.91864 484.20996l77.653534 -36.472443l77.653534 36.472443l-77.653534 36.472473z" fill-rule="evenodd"/><path stroke="#e69138" stroke-width="2.0" stroke-linejoin="round" stroke-linecap="butt" d="m404.91864 484.20996l77.653534 -36.472443l77.653534 36.472443l-77.653534 36.472473z" fill-rule="evenodd"/><path fill="#000000" d="m462.28702 480.56998l0 -11.453125l2.1875 0l0 4.125q1.015625 -1.15625 2.40625 -1.15625q1.515625 0 2.5 1.09375q1.0 1.09375 1.0 3.15625q0 2.125 -1.015625 3.28125q-1.0 1.140625 -2.453125 1.140625q-0.703125 0 -1.40625 -0.359375q-0.6875 -0.359375 -1.1875 -1.046875l0 1.21875l-2.03125 0zm2.171875 -4.328125q0 1.28125 0.40625 1.90625q0.578125 0.875 1.515625 0.875q0.734375 0 1.234375 -0.625q0.515625 -0.625 0.515625 -1.953125q0 -1.421875 -0.515625 -2.046875q-0.515625 -0.640625 -1.3125 -0.640625q-0.796875 0 -1.328125 0.625q-0.515625 0.609375 -0.515625 1.859375zm9.7890625 4.328125l-2.1875 0l0 -8.296875l2.03125 0l0 1.171875q0.53125 -0.828125 0.9375 -1.09375q0.421875 -0.265625 0.953125 -0.265625q0.75 0 1.453125 0.40625l-0.6875 1.921875q-0.546875 -0.359375 -1.03125 -0.359375q-0.453125 0 -0.78125 0.25q-0.3125 0.25 -0.5 0.921875q-0.1875 0.65625 -0.1875 2.78125l0 2.5625zm8.9296875 -2.640625l2.1875 0.359375q-0.421875 1.203125 -1.328125 1.84375q-0.90625 0.625 -2.28125 0.625q-2.15625 0 -3.203125 -1.421875q-0.8125 -1.125 -0.8125 -2.859375q0 -2.0625 1.078125 -3.21875q1.078125 -1.171875 2.71875 -1.171875q1.859375 0 2.921875 1.21875q1.078125 1.21875 1.03125 3.75l-5.5 0q0.015625 0.96875 0.515625 1.515625q0.515625 0.546875 1.28125 0.546875q0.515625 0 0.859375 -0.28125q0.359375 -0.28125 0.53125 -0.90625zm0.125 -2.21875q-0.015625 -0.953125 -0.484375 -1.453125q-0.46875 -0.5 -1.140625 -0.5q-0.71875 0 -1.1875 0.53125q-0.46875 0.515625 -0.46875 1.421875l3.28125 0zm5.6171875 -0.90625l-2.0 -0.359375q0.34375 -1.203125 1.15625 -1.78125q0.828125 -0.578125 2.4375 -0.578125q1.46875 0 2.1875 0.34375q0.71875 0.34375 1.015625 0.890625q0.296875 0.53125 0.296875 1.953125l-0.03125 2.5625q0 1.09375 0.109375 1.625q0.109375 0.515625 0.390625 1.109375l-2.171875 0q-0.078125 -0.21875 -0.203125 -0.65625q-0.0625 -0.1875 -0.078125 -0.25q-0.5625 0.546875 -1.203125 0.828125q-0.640625 0.265625 -1.375 0.265625q-1.28125 0 -2.015625 -0.6875q-0.734375 -0.703125 -0.734375 -1.765625q0 -0.703125 0.328125 -1.25q0.34375 -0.5625 0.9375 -0.84375q0.609375 -0.296875 1.75 -0.515625q1.546875 -0.296875 2.140625 -0.546875l0 -0.21875q0 -0.625 -0.3125 -0.890625q-0.3125 -0.28125 -1.1875 -0.28125q-0.578125 0 -0.90625 0.234375q-0.328125 0.234375 -0.53125 0.8125zm2.9375 1.78125q-0.421875 0.140625 -1.34375 0.34375q-0.90625 0.1875 -1.1875 0.375q-0.4375 0.296875 -0.4375 0.765625q0 0.46875 0.34375 0.8125q0.34375 0.328125 0.875 0.328125q0.59375 0 1.140625 -0.390625q0.390625 -0.296875 0.515625 -0.734375q0.09375 -0.28125 0.09375 -1.0625l0 -0.4375zm4.2421875 3.984375l0 -11.453125l2.1875 0l0 6.078125l2.578125 -2.921875l2.703125 0l-2.84375 3.03125l3.046875 5.265625l-2.375 0l-2.078125 -3.734375l-1.03125 1.078125l0 2.65625l-2.1875 0z" fill-rule="nonzero"/><path fill="#000000" d="m483.56046 496.61685l-2.0 0q0 -0.4375 0 -0.53125q0 -0.96875 0.3125 -1.59375q0.328125 -0.625 1.28125 -1.40625q0.96875 -0.78125 1.15625 -1.015625q0.28125 -0.390625 0.28125 -0.84375q0 -0.640625 -0.515625 -1.09375q-0.5 -0.46875 -1.375 -0.46875q-0.828125 0 -1.390625 0.484375q-0.5625 0.46875 -0.78125 1.453125l-2.015625 -0.25q0.09375 -1.40625 1.1875 -2.375q1.109375 -0.984375 2.90625 -0.984375q1.890625 0 3.0 1.0q1.125 0.984375 1.125 2.296875q0 0.71875 -0.40625 1.375q-0.40625 0.640625 -1.75 1.765625q-0.703125 0.578125 -0.875 0.9375q-0.15625 0.34375 -0.140625 1.25zm-2.0 2.953125l0 -2.203125l2.203125 0l0 2.203125l-2.203125 0z" fill-rule="nonzero"/><path fill="#ffe599" d="m253.4672 301.68896l91.24408 -31.73227l91.24411 31.73227l-91.24411 31.7323z" fill-rule="evenodd"/><path stroke="#e69138" stroke-width="2.0" stroke-linejoin="round" stroke-linecap="butt" d="m253.4672 301.68896l91.24408 -31.73227l91.24411 31.73227l-91.24411 31.7323z" fill-rule="evenodd"/><path fill="#000000" d="m319.76987 292.20523l-2.171875 0.390625q-0.109375 -0.65625 -0.5 -0.984375q-0.375 -0.328125 -1.0 -0.328125q-0.8125 0 -1.3125 0.578125q-0.484375 0.5625 -0.484375 1.890625q0 1.46875 0.5 2.078125q0.5 0.609375 1.328125 0.609375q0.625 0 1.015625 -0.34375q0.40625 -0.359375 0.578125 -1.234375l2.15625 0.375q-0.34375 1.484375 -1.296875 2.25q-0.953125 0.75 -2.546875 0.75q-1.828125 0 -2.90625 -1.140625q-1.078125 -1.15625 -1.078125 -3.1875q0 -2.0625 1.078125 -3.203125q1.09375 -1.140625 2.9375 -1.140625q1.515625 0 2.40625 0.65625q0.90625 0.640625 1.296875 1.984375zm1.1484375 1.578125q0 -1.09375 0.53125 -2.109375q0.546875 -1.03125 1.53125 -1.5625q1.0 -0.546875 2.21875 -0.546875q1.875 0 3.078125 1.21875q1.203125 1.21875 1.203125 3.09375q0 1.875 -1.21875 3.125q-1.203125 1.234375 -3.046875 1.234375q-1.140625 0 -2.1875 -0.515625q-1.03125 -0.515625 -1.578125 -1.515625q-0.53125 -1.0 -0.53125 -2.421875zm2.25 0.109375q0 1.234375 0.578125 1.890625q0.59375 0.65625 1.453125 0.65625q0.859375 0 1.4375 -0.65625q0.59375 -0.65625 0.59375 -1.90625q0 -1.21875 -0.59375 -1.875q-0.578125 -0.65625 -1.4375 -0.65625q-0.859375 0 -1.453125 0.65625q-0.578125 0.65625 -0.578125 1.890625zm15.5859375 4.15625l-2.203125 0l0 -4.234375q0 -1.34375 -0.140625 -1.734375q-0.140625 -0.40625 -0.453125 -0.625q-0.3125 -0.21875 -0.765625 -0.21875q-0.5625 0 -1.015625 0.3125q-0.453125 0.3125 -0.625 0.828125q-0.171875 0.515625 -0.171875 1.90625l0 3.765625l-2.1875 0l0 -8.296875l2.03125 0l0 1.21875q1.09375 -1.40625 2.734375 -1.40625q0.734375 0 1.328125 0.265625q0.609375 0.25 0.90625 0.65625q0.3125 0.40625 0.4375 0.921875q0.125 0.515625 0.125 1.484375l0 5.15625zm6.0234375 -8.296875l0 1.75l-1.5 0l0 3.34375q0 1.015625 0.046875 1.1875q0.046875 0.15625 0.1875 0.265625q0.15625 0.109375 0.375 0.109375q0.3125 0 0.890625 -0.203125l0.1875 1.703125q-0.765625 0.328125 -1.734375 0.328125q-0.59375 0 -1.078125 -0.203125q-0.46875 -0.203125 -0.703125 -0.515625q-0.21875 -0.3125 -0.296875 -0.859375q-0.078125 -0.375 -0.078125 -1.546875l0 -3.609375l-1.0 0l0 -1.75l1.0 0l0 -1.65625l2.203125 -1.28125l0 2.9375l1.5 0zm1.53125 -1.125l0 -2.03125l2.1875 0l0 2.03125l-2.1875 0zm0 9.421875l0 -8.296875l2.1875 0l0 8.296875l-2.1875 0zm11.9921875 0l-2.203125 0l0 -4.234375q0 -1.34375 -0.140625 -1.734375q-0.140625 -0.40625 -0.453125 -0.625q-0.3125 -0.21875 -0.765625 -0.21875q-0.5625 0 -1.015625 0.3125q-0.453125 0.3125 -0.625 0.828125q-0.171875 0.515625 -0.171875 1.90625l0 3.765625l-2.1875 0l0 -8.296875l2.03125 0l0 1.21875q1.09375 -1.40625 2.734375 -1.40625q0.734375 0 1.328125 0.265625q0.609375 0.25 0.90625 0.65625q0.3125 0.40625 0.4375 0.921875q0.125 0.515625 0.125 1.484375l0 5.15625zm7.6796875 0l0 -1.25q-0.453125 0.671875 -1.1875 1.0625q-0.734375 0.375 -1.5625 0.375q-0.828125 0 -1.5 -0.359375q-0.65625 -0.375 -0.953125 -1.03125q-0.296875 -0.671875 -0.296875 -1.84375l0 -5.25l2.1875 0l0 3.8125q0 1.75 0.125 2.140625q0.125 0.390625 0.4375 0.625q0.328125 0.234375 0.8125 0.234375q0.5625 0 1.0 -0.3125q0.453125 -0.3125 0.609375 -0.765625q0.171875 -0.453125 0.171875 -2.234375l0 -3.5l2.203125 0l0 8.296875l-2.046875 0zm9.1171875 -2.640625l2.1875 0.359375q-0.421875 1.203125 -1.328125 1.84375q-0.90625 0.625 -2.28125 0.625q-2.15625 0 -3.203125 -1.421875q-0.8125 -1.125 -0.8125 -2.859375q0 -2.0625 1.078125 -3.21875q1.078125 -1.171875 2.71875 -1.171875q1.859375 0 2.921875 1.21875q1.078125 1.21875 1.03125 3.75l-5.5 0q0.015625 0.96875 0.515625 1.515625q0.515625 0.546875 1.28125 0.546875q0.515625 0 0.859375 -0.28125q0.359375 -0.28125 0.53125 -0.90625zm0.125 -2.21875q-0.015625 -0.953125 -0.484375 -1.453125q-0.46875 -0.5 -1.140625 -0.5q-0.71875 0 -1.1875 0.53125q-0.46875 0.515625 -0.46875 1.421875l3.28125 0z" fill-rule="nonzero"/><path fill="#000000" d="m345.69955 314.09586l-2.0 0q0 -0.4375 0 -0.53125q0 -0.96875 0.3125 -1.59375q0.328125 -0.625 1.28125 -1.40625q0.96875 -0.78125 1.15625 -1.015625q0.28125 -0.390625 0.28125 -0.84375q0 -0.640625 -0.515625 -1.09375q-0.5 -0.46875 -1.375 -0.46875q-0.828125 0 -1.390625 0.484375q-0.5625 0.46875 -0.78125 1.453125l-2.015625 -0.25q0.09375 -1.40625 1.1875 -2.375q1.109375 -0.984375 2.90625 -0.984375q1.890625 0 3.0 1.0q1.125 0.984375 1.125 2.296875q0 0.71875 -0.40625 1.375q-0.40625 0.640625 -1.75 1.765625q-0.703125 0.578125 -0.875 0.9375q-0.15625 0.34375 -0.140625 1.25zm-2.0 2.953125l0 -2.203125l2.203125 0l0 2.203125l-2.203125 0z" fill-rule="nonzero"/><path fill="#c9daf8" d="m186.5024 16.372686l105.33388 0l0 0c13.799042 0 24.985352 10.018387 24.985352 22.376692c0 12.358307 -11.18631 22.376694 -24.985352 22.376694l-105.33388 0l0 0c-13.799011 0 -24.985336 -10.018387 -24.985336 -22.376694c0 -12.358305 11.186325 -22.376692 24.985336 -22.376692z" fill-rule="evenodd"/><path stroke="#6d9eeb" stroke-width="2.0" stroke-linejoin="round" stroke-linecap="butt" d="m186.5024 16.372686l105.33388 0l0 0c13.799042 0 24.985352 10.018387 24.985352 22.376692c0 12.358307 -11.18631 22.376694 -24.985352 22.376694l-105.33388 0l0 0c-13.799011 0 -24.985336 -10.018387 -24.985336 -22.376694c0 -12.358305 11.186325 -22.376692 24.985336 -22.376692z" fill-rule="evenodd"/><path fill="#000000" d="m221.5209 40.875004l2.25 -0.21875q0.203125 1.140625 0.828125 1.671875q0.625 0.53125 1.671875 0.53125q1.125 0 1.6875 -0.46875q0.5625 -0.484375 0.5625 -1.109375q0 -0.40625 -0.234375 -0.6875q-0.234375 -0.296875 -0.828125 -0.5q-0.40625 -0.140625 -1.859375 -0.5q-1.859375 -0.46875 -2.609375 -1.140625q-1.046875 -0.9375 -1.046875 -2.296875q0 -0.875 0.484375 -1.640625q0.5 -0.765625 1.4375 -1.15625q0.9375 -0.40625 2.25 -0.40625q2.15625 0 3.25 0.953125q1.09375 0.9375 1.140625 2.515625l-2.3125 0.109375q-0.140625 -0.890625 -0.640625 -1.265625q-0.484375 -0.390625 -1.453125 -0.390625q-1.015625 0 -1.578125 0.40625q-0.375 0.265625 -0.375 0.71875q0 0.40625 0.34375 0.6875q0.4375 0.375 2.125 0.78125q1.6875 0.390625 2.5 0.8125q0.8125 0.421875 1.265625 1.171875q0.453125 0.734375 0.453125 1.8125q0 0.984375 -0.546875 1.84375q-0.546875 0.859375 -1.546875 1.28125q-1.0 0.421875 -2.484375 0.421875q-2.171875 0 -3.34375 -1.0q-1.15625 -1.015625 -1.390625 -2.9375zm15.046875 -4.5625l0 1.75l-1.5 0l0 3.34375q0 1.015625 0.046875 1.1875q0.046875 0.15625 0.1875 0.265625q0.15625 0.109375 0.375 0.109375q0.3125 0 0.890625 -0.203125l0.1875 1.703125q-0.765625 0.328125 -1.734375 0.328125q-0.59375 0 -1.078125 -0.203125q-0.46875 -0.203125 -0.703125 -0.515625q-0.21875 -0.3125 -0.296875 -0.859375q-0.078125 -0.375 -0.078125 -1.546875l0 -3.609375l-1.0 0l0 -1.75l1.0 0l0 -1.65625l2.203125 -1.28125l0 2.9375l1.5 0zm3.171875 2.53125l-2.0 -0.359375q0.34375 -1.203125 1.15625 -1.78125q0.828125 -0.578125 2.4375 -0.578125q1.46875 0 2.1875 0.34375q0.71875 0.34375 1.015625 0.890625q0.296875 0.53125 0.296875 1.953125l-0.03125 2.5625q0 1.09375 0.109375 1.625q0.109375 0.515625 0.390625 1.109375l-2.171875 0q-0.078125 -0.21875 -0.203125 -0.65625q-0.0625 -0.1875 -0.078125 -0.25q-0.5625 0.546875 -1.203125 0.828125q-0.640625 0.265625 -1.375 0.265625q-1.28125 0 -2.015625 -0.6875q-0.734375 -0.703125 -0.734375 -1.765625q0 -0.703125 0.328125 -1.25q0.34375 -0.5625 0.9375 -0.84375q0.609375 -0.296875 1.75 -0.515625q1.546875 -0.296875 2.140625 -0.546875l0 -0.21875q0 -0.625 -0.3125 -0.890625q-0.3125 -0.28125 -1.1875 -0.28125q-0.578125 0 -0.90625 0.234375q-0.328125 0.234375 -0.53125 0.8125zm2.9375 1.78125q-0.421875 0.140625 -1.34375 0.34375q-0.90625 0.1875 -1.1875 0.375q-0.4375 0.296875 -0.4375 0.765625q0 0.46875 0.34375 0.8125q0.34375 0.328125 0.875 0.328125q0.59375 0 1.140625 -0.390625q0.390625 -0.296875 0.515625 -0.734375q0.09375 -0.28125 0.09375 -1.0625l0 -0.4375zm6.4140625 3.984375l-2.1875 0l0 -8.296875l2.03125 0l0 1.171875q0.53125 -0.828125 0.9375 -1.09375q0.421875 -0.265625 0.953125 -0.265625q0.75 0 1.453125 0.40625l-0.6875 1.921875q-0.546875 -0.359375 -1.03125 -0.359375q-0.453125 0 -0.78125 0.25q-0.3125 0.25 -0.5 0.921875q-0.1875 0.65625 -0.1875 2.78125l0 2.5625zm7.9296875 -8.296875l0 1.75l-1.5 0l0 3.34375q0 1.015625 0.046875 1.1875q0.046875 0.15625 0.1875 0.265625q0.15625 0.109375 0.375 0.109375q0.3125 0 0.890625 -0.203125l0.1875 1.703125q-0.765625 0.328125 -1.734375 0.328125q-0.59375 0 -1.078125 -0.203125q-0.46875 -0.203125 -0.703125 -0.515625q-0.21875 -0.3125 -0.296875 -0.859375q-0.078125 -0.375 -0.078125 -1.546875l0 -3.609375l-1.0 0l0 -1.75l1.0 0l0 -1.65625l2.203125 -1.28125l0 2.9375l1.5 0z" fill-rule="nonzero"/><path fill="#d9ead3" d="m514.09424 525.063l-12.482758 4.5272827c-0.6954346 -0.18676758 -1.2671814 -0.4557495 -1.7151794 -0.80682373c-0.45059204 -0.35113525 -0.6759033 -0.89276123 -0.6759033 -1.624939c0 -0.39593506 0.050811768 -0.8404541 0.15237427 -1.3334961l0 0l-2.5785828 0.28015137c-0.13284302 0.58270264 -0.19927979 1.1766357 -0.19927979 1.7817993c0 0.59765625 0.06643677 1.1330566 0.19927979 1.6062012c0.1328125 0.47558594 0.31906128 0.8753052 0.5586853 1.1990356c0.23703003 0.3262329 0.54696655 0.61383057 0.9298706 0.862854c0.38287354 0.25152588 0.9376526 0.5155029 1.6643677 0.79193115l2.1683655 0.75079346l11.97876 4.2022705l0 -3.2609863l-8.837555 -2.7791138l8.837555 -2.8463135z" fill-rule="evenodd"/><path fill="#d9ead3" d="m511.85556 544.04614c0 0.6425171 -0.24874878 1.1878662 -0.7462158 1.6361084c-0.49490356 0.4482422 -1.2189941 0.68359375 -2.1723022 0.70599365l0 -4.706604c0.8986206 -0.007446289 1.6096802 0.21295166 2.1332092 0.66119385c0.5235596 0.4482422 0.78530884 1.0159912 0.78530884 1.7033081zm2.519989 -0.19049072c0 -1.576355 -0.5847168 -2.8799438 -1.7542114 -3.9109497c-1.1669006 -1.0309448 -2.7817688 -1.5464478 -4.8446655 -1.5464478c-1.7268677 0 -3.1568298 0.3922119 -4.289856 1.1766357c-1.4143066 0.99365234 -2.1214905 2.5251465 -2.1214905 4.5945435c0 1.307373 0.3138733 2.39563 0.94158936 3.2647095c0.6303406 0.87158203 1.5471802 1.5090942 2.7505188 1.9125366l0.5508728 -3.1377563c-0.6251221 -0.17181396 -1.0783081 -0.4258423 -1.3596191 -0.7620239c-0.28131104 -0.33618164 -0.42196655 -0.75079346 -0.42196655 -1.2438354c0 -0.7246704 0.27090454 -1.329834 0.8126526 -1.8154297c0.54437256 -0.4855957 1.3049316 -0.739563 2.2816772 -0.7620239l0 7.88916c2.5239258 0.044799805 4.3966675 -0.44451904 5.6182556 -1.4680176c1.2241821 -1.0234985 1.8362427 -2.4205322 1.8362427 -4.191101z" fill-rule="evenodd"/><path fill="#d9ead3" d="m514.37555 556.4177c0 -1.7108154 -0.36724854 -2.9733887 -1.1017456 -3.7876587c-0.7344971 -0.81433105 -1.6409302 -1.2214966 -2.7192688 -1.2214966c-1.1955261 0 -2.129303 0.4706421 -2.8013 1.4119873c-0.48446655 0.6798096 -1.0197144 2.289795 -1.6057739 4.829834c-0.1328125 0.5453491 -0.27737427 0.8964844 -0.4336548 1.0533447c-0.16409302 0.14941406 -0.3711548 0.2241211 -0.6212158 0.2241211c-0.36724854 0 -0.6602783 -0.1381836 -0.87905884 -0.41461182c-0.31256104 -0.41088867 -0.46884155 -1.0234985 -0.46884155 -1.8377686c0 -0.739624 0.16540527 -1.3148804 0.4961853 -1.725769c0.33340454 -0.41088867 0.8204651 -0.68359375 1.4612122 -0.8180542l-0.5039978 -3.1600952c-1.1799011 0.2913208 -2.113678 0.90893555 -2.8013 1.8527222c-0.6876526 0.94628906 -1.0314636 2.2300415 -1.0314636 3.8511963c0 1.7854614 0.4102478 3.1339722 1.2307129 4.04541c0.8204651 0.91137695 1.801117 1.3671265 2.9419556 1.3671265c1.0470581 0 1.863617 -0.32873535 2.4496765 -0.986145c0.57821655 -0.664917 1.0665894 -1.8365479 1.4651184 -3.5150146c0.39849854 -1.6759033 0.7071533 -2.6558228 0.92593384 -2.9396973c0.16409302 -0.20916748 0.3633423 -0.31378174 0.5977783 -0.31378174c0.27349854 0 0.4961853 0.119506836 0.6680908 0.35858154c0.24221802 0.35858154 0.3633423 0.95251465 0.3633423 1.7817993c0 0.65740967 -0.12893677 1.1629028 -0.3867798 1.5165405c-0.25787354 0.35614014 -0.6290283 0.59765625 -1.1134949 0.7246704l0.5743408 2.9696045c1.0861511 -0.29882812 1.9065857 -0.84417725 2.4613953 -1.6360474c0.55474854 -0.79193115 0.8321533 -2.0021973 0.8321533 -3.6307983z" fill-rule="evenodd"/><path stroke="#666666" stroke-width="1.0" stroke-linejoin="round" stroke-linecap="butt" d="m514.09424 525.063l-12.482758 4.5272827c-0.6954346 -0.18676758 -1.2671814 -0.4557495 -1.7151794 -0.80682373c-0.45059204 -0.35113525 -0.6759033 -0.89276123 -0.6759033 -1.624939c0 -0.39593506 0.050811768 -0.8404541 0.15237427 -1.3334961l0 0l-2.5785828 0.28015137c-0.13284302 0.58270264 -0.19927979 1.1766357 -0.19927979 1.7817993c0 0.59765625 0.06643677 1.1330566 0.19927979 1.6062012c0.1328125 0.47558594 0.31906128 0.8753052 0.5586853 1.1990356c0.23703003 0.3262329 0.54696655 0.61383057 0.9298706 0.862854c0.38287354 0.25152588 0.9376526 0.5155029 1.6643677 0.79193115l2.1683655 0.75079346l11.97876 4.2022705l0 -3.2609863l-8.837555 -2.7791138l8.837555 -2.8463135z" fill-rule="evenodd"/><path stroke="#666666" stroke-width="1.0" stroke-linejoin="round" stroke-linecap="butt" d="m511.85556 544.04614c0 0.6425171 -0.24874878 1.1878662 -0.7462158 1.6361084c-0.49490356 0.4482422 -1.2189941 0.68359375 -2.1723022 0.70599365l0 -4.706604c0.8986206 -0.007446289 1.6096802 0.21295166 2.1332092 0.66119385c0.5235596 0.4482422 0.78530884 1.0159912 0.78530884 1.7033081zm2.519989 -0.19049072c0 -1.576355 -0.5847168 -2.8799438 -1.7542114 -3.9109497c-1.1669006 -1.0309448 -2.7817688 -1.5464478 -4.8446655 -1.5464478c-1.7268677 0 -3.1568298 0.3922119 -4.289856 1.1766357c-1.4143066 0.99365234 -2.1214905 2.5251465 -2.1214905 4.5945435c0 1.307373 0.3138733 2.39563 0.94158936 3.2647095c0.6303406 0.87158203 1.5471802 1.5090942 2.7505188 1.9125366l0.5508728 -3.1377563c-0.6251221 -0.17181396 -1.0783081 -0.4258423 -1.3596191 -0.7620239c-0.28131104 -0.33618164 -0.42196655 -0.75079346 -0.42196655 -1.2438354c0 -0.7246704 0.27090454 -1.329834 0.8126526 -1.8154297c0.54437256 -0.4855957 1.3049316 -0.739563 2.2816772 -0.7620239l0 7.88916c2.5239258 0.044799805 4.3966675 -0.44451904 5.6182556 -1.4680176c1.2241821 -1.0234985 1.8362427 -2.4205322 1.8362427 -4.191101z" fill-rule="evenodd"/><path stroke="#666666" stroke-width="1.0" stroke-linejoin="round" stroke-linecap="butt" d="m514.37555 556.4177c0 -1.7108154 -0.36724854 -2.9733887 -1.1017456 -3.7876587c-0.7344971 -0.81433105 -1.6409302 -1.2214966 -2.7192688 -1.2214966c-1.1955261 0 -2.129303 0.4706421 -2.8013 1.4119873c-0.48446655 0.6798096 -1.0197144 2.289795 -1.6057739 4.829834c-0.1328125 0.5453491 -0.27737427 0.8964844 -0.4336548 1.0533447c-0.16409302 0.14941406 -0.3711548 0.2241211 -0.6212158 0.2241211c-0.36724854 0 -0.6602783 -0.1381836 -0.87905884 -0.41461182c-0.31256104 -0.41088867 -0.46884155 -1.0234985 -0.46884155 -1.8377686c0 -0.739624 0.16540527 -1.3148804 0.4961853 -1.725769c0.33340454 -0.41088867 0.8204651 -0.68359375 1.4612122 -0.8180542l-0.5039978 -3.1600952c-1.1799011 0.2913208 -2.113678 0.90893555 -2.8013 1.8527222c-0.6876526 0.94628906 -1.0314636 2.2300415 -1.0314636 3.8511963c0 1.7854614 0.4102478 3.1339722 1.2307129 4.04541c0.8204651 0.91137695 1.801117 1.3671265 2.9419556 1.3671265c1.0470581 0 1.863617 -0.32873535 2.4496765 -0.986145c0.57821655 -0.664917 1.0665894 -1.8365479 1.4651184 -3.5150146c0.39849854 -1.6759033 0.7071533 -2.6558228 0.92593384 -2.9396973c0.16409302 -0.20916748 0.3633423 -0.31378174 0.5977783 -0.31378174c0.27349854 0 0.4961853 0.119506836 0.6680908 0.35858154c0.24221802 0.35858154 0.3633423 0.95251465 0.3633423 1.7817993c0 0.65740967 -0.12893677 1.1629028 -0.3867798 1.5165405c-0.25787354 0.35614014 -0.6290283 0.59765625 -1.1134949 0.7246704l0.5743408 2.9696045c1.0861511 -0.29882812 1.9065857 -0.84417725 2.4613953 -1.6360474c0.55474854 -0.79193115 0.8321533 -2.0021973 0.8321533 -3.6307983z" fill-rule="evenodd"/><path fill="#c9daf8" d="m399.70602 351.15747l157.9736 0c2.0577393 0 4.031189 0.81744385 5.486206 2.272461c1.4550781 1.4550476 2.272461 3.4284973 2.272461 5.4862366l0 38.79248l-165.73227 0z" fill-rule="evenodd"/><path stroke="#6d9eeb" stroke-width="2.0" stroke-linejoin="round" stroke-linecap="butt" d="m399.70602 351.15747l157.9736 0c2.0577393 0 4.031189 0.81744385 5.486206 2.272461c1.4550781 1.4550476 2.272461 3.4284973 2.272461 5.4862366l0 38.79248l-165.73227 0z" fill-rule="evenodd"/><path fill="#000000" d="m451.92422 380.29306l0 -11.453125l8.484375 0l0 1.9375l-6.171875 0l0 2.53125l5.75 0l0 1.9375l-5.75 0l0 3.109375l6.390625 0l0 1.9375l-8.703125 0zm9.59375 0l3.0 -4.28125l-2.875 -4.015625l2.6875 0l1.46875 2.28125l1.546875 -2.28125l2.578125 0l-2.8125 3.921875l3.0625 4.375l-2.6875 0l-1.6875 -2.578125l-1.703125 2.578125l-2.578125 0zm14.7578125 -2.640625l2.1875 0.359375q-0.421875 1.203125 -1.328125 1.84375q-0.90625 0.625 -2.28125 0.625q-2.15625 0 -3.203125 -1.421875q-0.8125 -1.125 -0.8125 -2.859375q0 -2.0625 1.078125 -3.21875q1.078125 -1.171875 2.71875 -1.171875q1.859375 0 2.921875 1.21875q1.078125 1.21875 1.03125 3.75l-5.5 0q0.015625 0.96875 0.515625 1.515625q0.515625 0.546875 1.28125 0.546875q0.515625 0 0.859375 -0.28125q0.359375 -0.28125 0.53125 -0.90625zm0.125 -2.21875q-0.015625 -0.953125 -0.484375 -1.453125q-0.46875 -0.5 -1.140625 -0.5q-0.71875 0 -1.1875 0.53125q-0.46875 0.515625 -0.46875 1.421875l3.28125 0zm11.2109375 -0.984375l-2.171875 0.390625q-0.109375 -0.65625 -0.5 -0.984375q-0.375 -0.328125 -1.0 -0.328125q-0.8125 0 -1.3125 0.578125q-0.484375 0.5625 -0.484375 1.890625q0 1.46875 0.5 2.078125q0.5 0.609375 1.328125 0.609375q0.625 0 1.015625 -0.34375q0.40625 -0.359375 0.578125 -1.234375l2.15625 0.375q-0.34375 1.484375 -1.296875 2.25q-0.953125 0.75 -2.546875 0.75q-1.828125 0 -2.90625 -1.140625q-1.078125 -1.15625 -1.078125 -3.1875q0 -2.0625 1.078125 -3.203125q1.09375 -1.140625 2.9375 -1.140625q1.515625 0 2.40625 0.65625q0.90625 0.640625 1.296875 1.984375zm7.1171875 5.84375l0 -1.25q-0.453125 0.671875 -1.1875 1.0625q-0.734375 0.375 -1.5625 0.375q-0.828125 0 -1.5 -0.359375q-0.65625 -0.375 -0.953125 -1.03125q-0.296875 -0.671875 -0.296875 -1.84375l0 -5.25l2.1875 0l0 3.8125q0 1.75 0.125 2.140625q0.125 0.390625 0.4375 0.625q0.328125 0.234375 0.8125 0.234375q0.5625 0 1.0 -0.3125q0.453125 -0.3125 0.609375 -0.765625q0.171875 -0.453125 0.171875 -2.234375l0 -3.5l2.203125 0l0 8.296875l-2.046875 0zm8.1171875 -8.296875l0 1.75l-1.5 0l0 3.34375q0 1.015625 0.046875 1.1875q0.046875 0.15625 0.1875 0.265625q0.15625 0.109375 0.375 0.109375q0.3125 0 0.890625 -0.203125l0.1875 1.703125q-0.765625 0.328125 -1.734375 0.328125q-0.59375 0 -1.078125 -0.203125q-0.46875 -0.203125 -0.703125 -0.515625q-0.21875 -0.3125 -0.296875 -0.859375q-0.078125 -0.375 -0.078125 -1.546875l0 -3.609375l-1.0 0l0 -1.75l1.0 0l0 -1.65625l2.203125 -1.28125l0 2.9375l1.5 0zm6.328125 5.65625l2.1875 0.359375q-0.421875 1.203125 -1.328125 1.84375q-0.90625 0.625 -2.28125 0.625q-2.15625 0 -3.203125 -1.421875q-0.8125 -1.125 -0.8125 -2.859375q0 -2.0625 1.078125 -3.21875q1.078125 -1.171875 2.71875 -1.171875q1.859375 0 2.921875 1.21875q1.078125 1.21875 1.03125 3.75l-5.5 0q0.015625 0.96875 0.515625 1.515625q0.515625 0.546875 1.28125 0.546875q0.515625 0 0.859375 -0.28125q0.359375 -0.28125 0.53125 -0.90625zm0.125 -2.21875q-0.015625 -0.953125 -0.484375 -1.453125q-0.46875 -0.5 -1.140625 -0.5q-0.71875 0 -1.1875 0.53125q-0.46875 0.515625 -0.46875 1.421875l3.28125 0z" fill-rule="nonzero"/><path fill="#c9daf8" d="m261.84515 193.6483l159.01822 0c1.7807007 0 3.4884338 0.70736694 4.7475586 1.9664917c1.2591248 1.2591248 1.9664917 2.9668732 1.9664917 4.7475433l0 33.569427l-165.73227 0z" fill-rule="evenodd"/><path stroke="#6d9eeb" stroke-width="2.0" stroke-linejoin="round" stroke-linecap="butt" d="m261.84515 193.6483l159.01822 0c1.7807007 0 3.4884338 0.70736694 4.7475586 1.9664917c1.2591248 1.2591248 1.9664917 2.9668732 1.9664917 4.7475433l0 33.569427l-165.73227 0z" fill-rule="evenodd"/><path fill="#000000" d="m314.21634 219.65002l0 -11.453125l8.484375 0l0 1.9375l-6.171875 0l0 2.53125l5.75 0l0 1.9375l-5.75 0l0 3.109375l6.390625 0l0 1.9375l-8.703125 0zm9.59375 0l3.0 -4.28125l-2.875 -4.015625l2.6875 0l1.46875 2.28125l1.546875 -2.28125l2.578125 0l-2.8125 3.921875l3.0625 4.375l-2.6875 0l-1.6875 -2.578125l-1.703125 2.578125l-2.578125 0zm14.7578125 -2.640625l2.1875 0.359375q-0.421875 1.203125 -1.328125 1.84375q-0.90625 0.625 -2.28125 0.625q-2.15625 0 -3.203125 -1.421875q-0.8125 -1.125 -0.8125 -2.859375q0 -2.0625 1.078125 -3.21875q1.078125 -1.171875 2.71875 -1.171875q1.859375 0 2.921875 1.21875q1.078125 1.21875 1.03125 3.75l-5.5 0q0.015625 0.96875 0.515625 1.515625q0.515625 0.546875 1.28125 0.546875q0.515625 0 0.859375 -0.28125q0.359375 -0.28125 0.53125 -0.90625zm0.125 -2.21875q-0.015625 -0.953125 -0.484375 -1.453125q-0.46875 -0.5 -1.140625 -0.5q-0.71875 0 -1.1875 0.53125q-0.46875 0.515625 -0.46875 1.421875l3.28125 0zm11.2109375 -0.984375l-2.171875 0.390625q-0.109375 -0.65625 -0.5 -0.984375q-0.375 -0.328125 -1.0 -0.328125q-0.8125 0 -1.3125 0.578125q-0.484375 0.5625 -0.484375 1.890625q0 1.46875 0.5 2.078125q0.5 0.609375 1.328125 0.609375q0.625 0 1.015625 -0.34375q0.40625 -0.359375 0.578125 -1.234375l2.15625 0.375q-0.34375 1.484375 -1.296875 2.25q-0.953125 0.75 -2.546875 0.75q-1.828125 0 -2.90625 -1.140625q-1.078125 -1.15625 -1.078125 -3.1875q0 -2.0625 1.078125 -3.203125q1.09375 -1.140625 2.9375 -1.140625q1.515625 0 2.40625 0.65625q0.90625 0.640625 1.296875 1.984375zm7.1171875 5.84375l0 -1.25q-0.453125 0.671875 -1.1875 1.0625q-0.734375 0.375 -1.5625 0.375q-0.828125 0 -1.5 -0.359375q-0.65625 -0.375 -0.953125 -1.03125q-0.296875 -0.671875 -0.296875 -1.84375l0 -5.25l2.1875 0l0 3.8125q0 1.75 0.125 2.140625q0.125 0.390625 0.4375 0.625q0.328125 0.234375 0.8125 0.234375q0.5625 0 1.0 -0.3125q0.453125 -0.3125 0.609375 -0.765625q0.171875 -0.453125 0.171875 -2.234375l0 -3.5l2.203125 0l0 8.296875l-2.046875 0zm8.1171875 -8.296875l0 1.75l-1.5 0l0 3.34375q0 1.015625 0.046875 1.1875q0.046875 0.15625 0.1875 0.265625q0.15625 0.109375 0.375 0.109375q0.3125 0 0.890625 -0.203125l0.1875 1.703125q-0.765625 0.328125 -1.734375 0.328125q-0.59375 0 -1.078125 -0.203125q-0.46875 -0.203125 -0.703125 -0.515625q-0.21875 -0.3125 -0.296875 -0.859375q-0.078125 -0.375 -0.078125 -1.546875l0 -3.609375l-1.0 0l0 -1.75l1.0 0l0 -1.65625l2.203125 -1.28125l0 2.9375l1.5 0zm6.328125 5.65625l2.1875 0.359375q-0.421875 1.203125 -1.328125 1.84375q-0.90625 0.625 -2.28125 0.625q-2.15625 0 -3.203125 -1.421875q-0.8125 -1.125 -0.8125 -2.859375q0 -2.0625 1.078125 -3.21875q1.078125 -1.171875 2.71875 -1.171875q1.859375 0 2.921875 1.21875q1.078125 1.21875 1.03125 3.75l-5.5 0q0.015625 0.96875 0.515625 1.515625q0.515625 0.546875 1.28125 0.546875q0.515625 0 0.859375 -0.28125q0.359375 -0.28125 0.53125 -0.90625zm0.125 -2.21875q-0.015625 -0.953125 -0.484375 -1.453125q-0.46875 -0.5 -1.140625 -0.5q-0.71875 0 -1.1875 0.53125q-0.46875 0.515625 -0.46875 1.421875l3.28125 0z" fill-rule="nonzero"/><path fill="#000000" fill-opacity="0.0" d="m253.4672 301.68896l-188.56693 0l0 -147.49605" fill-rule="evenodd"/><path stroke="#b6d7a8" stroke-width="2.0" stroke-linejoin="round" stroke-linecap="butt" d="m253.4672 301.68896l-188.56693 0l0 -135.49605" fill-rule="evenodd"/><path fill="#b6d7a8" stroke="#b6d7a8" stroke-width="2.0" stroke-linecap="butt" d="m68.20373 166.19292l-3.3034668 -9.076202l-3.303463 9.076202z" fill-rule="evenodd"/><path fill="#000000" fill-opacity="0.0" d="m239.2021 157.62204l0 56.157486l22.645676 0" fill-rule="evenodd"/><path stroke="#b6d7a8" stroke-width="2.0" stroke-linejoin="round" stroke-linecap="butt" d="m239.2021 157.62204l0 56.157486l10.64566 0" fill-rule="evenodd"/><path fill="#b6d7a8" stroke="#b6d7a8" stroke-width="2.0" stroke-linecap="butt" d="m249.84776 217.083l9.076187 -3.3034668l-9.076187 -3.3034668z" fill-rule="evenodd"/><path fill="#000000" fill-opacity="0.0" d="m344.71127 333.42126l0 41.007874l54.992126 0" fill-rule="evenodd"/><path stroke="#e06666" stroke-width="2.0" stroke-linejoin="round" stroke-linecap="butt" d="m344.71127 333.42126l0 41.007874l42.992126 0" fill-rule="evenodd"/><path fill="#e06666" stroke="#e06666" stroke-width="2.0" stroke-linecap="butt" d="m387.7034 377.7326l9.076202 -3.3034668l-9.076202 -3.3034668z" fill-rule="evenodd"/><path fill="#000000" fill-opacity="0.0" d="m344.71127 233.93176l0 18.012497l0.0630188 0l0 18.018997" fill-rule="evenodd"/><path stroke="#b6d7a8" stroke-width="2.0" stroke-linejoin="round" stroke-linecap="butt" d="m344.71127 233.93176l0 18.012497l0.0630188 0l0 6.018997" fill-rule="evenodd"/><path fill="#b6d7a8" stroke="#b6d7a8" stroke-width="2.0" stroke-linecap="butt" d="m341.47083 257.96326l3.3034668 9.076202l3.3034363 -9.076202z" fill-rule="evenodd"/><path fill="#c9daf8" d="m169.2677 452.4777l97.61133 0c2.805359 0 5.495819 1.1144104 7.4795227 3.098114c1.9837036 1.9837036 3.098114 4.674164 3.098114 7.4795227l0 52.886932l-108.188965 0z" fill-rule="evenodd"/><path stroke="#6d9eeb" stroke-width="2.0" stroke-linejoin="round" stroke-linecap="butt" d="m169.2677 452.4777l97.61133 0c2.805359 0 5.495819 1.1144104 7.4795227 3.098114c1.9837036 1.9837036 3.098114 4.674164 3.098114 7.4795227l0 52.886932l-108.188965 0z" fill-rule="evenodd"/><path fill="#000000" d="m192.30142 490.06998l0 -11.453125l8.484375 0l0 1.9375l-6.171875 0l0 2.53125l5.75 0l0 1.9375l-5.75 0l0 3.109375l6.390625 0l0 1.9375l-8.703125 0zm9.59375 0l3.0 -4.28125l-2.875 -4.015625l2.6875 0l1.46875 2.28125l1.546875 -2.28125l2.578125 0l-2.8125 3.921875l3.0625 4.375l-2.6875 0l-1.6875 -2.578125l-1.703125 2.578125l-2.578125 0zm14.7578125 -2.640625l2.1875 0.359375q-0.421875 1.203125 -1.328125 1.84375q-0.90625 0.625 -2.28125 0.625q-2.15625 0 -3.203125 -1.421875q-0.8125 -1.125 -0.8125 -2.859375q0 -2.0625 1.078125 -3.21875q1.078125 -1.171875 2.71875 -1.171875q1.859375 0 2.921875 1.21875q1.078125 1.21875 1.03125 3.75l-5.5 0q0.015625 0.96875 0.515625 1.515625q0.515625 0.546875 1.28125 0.546875q0.515625 0 0.859375 -0.28125q0.359375 -0.28125 0.53125 -0.90625zm0.125 -2.21875q-0.015625 -0.953125 -0.484375 -1.453125q-0.46875 -0.5 -1.140625 -0.5q-0.71875 0 -1.1875 0.53125q-0.46875 0.515625 -0.46875 1.421875l3.28125 0zm11.2109375 -0.984375l-2.171875 0.390625q-0.109375 -0.65625 -0.5 -0.984375q-0.375 -0.328125 -1.0 -0.328125q-0.8125 0 -1.3125 0.578125q-0.484375 0.5625 -0.484375 1.890625q0 1.46875 0.5 2.078125q0.5 0.609375 1.328125 0.609375q0.625 0 1.015625 -0.34375q0.40625 -0.359375 0.578125 -1.234375l2.15625 0.375q-0.34375 1.484375 -1.296875 2.25q-0.953125 0.75 -2.546875 0.75q-1.828125 0 -2.90625 -1.140625q-1.078125 -1.15625 -1.078125 -3.1875q0 -2.0625 1.078125 -3.203125q1.09375 -1.140625 2.9375 -1.140625q1.515625 0 2.40625 0.65625q0.90625 0.640625 1.296875 1.984375zm7.1171875 5.84375l0 -1.25q-0.453125 0.671875 -1.1875 1.0625q-0.734375 0.375 -1.5625 0.375q-0.828125 0 -1.5 -0.359375q-0.65625 -0.375 -0.953125 -1.03125q-0.296875 -0.671875 -0.296875 -1.84375l0 -5.25l2.1875 0l0 3.8125q0 1.75 0.125 2.140625q0.125 0.390625 0.4375 0.625q0.328125 0.234375 0.8125 0.234375q0.5625 0 1.0 -0.3125q0.453125 -0.3125 0.609375 -0.765625q0.171875 -0.453125 0.171875 -2.234375l0 -3.5l2.203125 0l0 8.296875l-2.046875 0zm8.1171875 -8.296875l0 1.75l-1.5 0l0 3.34375q0 1.015625 0.046875 1.1875q0.046875 0.15625 0.1875 0.265625q0.15625 0.109375 0.375 0.109375q0.3125 0 0.890625 -0.203125l0.1875 1.703125q-0.765625 0.328125 -1.734375 0.328125q-0.59375 0 -1.078125 -0.203125q-0.46875 -0.203125 -0.703125 -0.515625q-0.21875 -0.3125 -0.296875 -0.859375q-0.078125 -0.375 -0.078125 -1.546875l0 -3.609375l-1.0 0l0 -1.75l1.0 0l0 -1.65625l2.203125 -1.28125l0 2.9375l1.5 0zm6.328125 5.65625l2.1875 0.359375q-0.421875 1.203125 -1.328125 1.84375q-0.90625 0.625 -2.28125 0.625q-2.15625 0 -3.203125 -1.421875q-0.8125 -1.125 -0.8125 -2.859375q0 -2.0625 1.078125 -3.21875q1.078125 -1.171875 2.71875 -1.171875q1.859375 0 2.921875 1.21875q1.078125 1.21875 1.03125 3.75l-5.5 0q0.015625 0.96875 0.515625 1.515625q0.515625 0.546875 1.28125 0.546875q0.515625 0 0.859375 -0.28125q0.359375 -0.28125 0.53125 -0.90625zm0.125 -2.21875q-0.015625 -0.953125 -0.484375 -1.453125q-0.46875 -0.5 -1.140625 -0.5q-0.71875 0 -1.1875 0.53125q-0.46875 0.515625 -0.46875 1.421875l3.28125 0z" fill-rule="nonzero"/><path fill="#000000" fill-opacity="0.0" d="m169.2677 484.20996l-149.34134 0l0 -348.97638l24.99488 0" fill-rule="evenodd"/><path stroke="#b6d7a8" stroke-width="2.0" stroke-linejoin="round" stroke-linecap="butt" d="m169.2677 484.20996l-149.34134 0l0 -348.97638l12.994881 0" fill-rule="evenodd"/><path fill="#b6d7a8" stroke="#b6d7a8" stroke-width="2.0" stroke-linecap="butt" d="m32.921238 138.53706l9.076199 -3.3034668l-9.076199 -3.3034668z" fill-rule="evenodd"/><path fill="#000000" fill-opacity="0.0" d="m482.57217 520.68243l0.03149414 57.07086" fill-rule="evenodd"/><path stroke="#b6d7a8" stroke-width="2.0" stroke-linejoin="round" stroke-linecap="butt" d="m482.57217 520.68243l0.024902344 45.07086" fill-rule="evenodd"/><path fill="#b6d7a8" stroke="#b6d7a8" stroke-width="2.0" stroke-linecap="butt" d="m479.29358 565.7551l3.3084717 9.074341l3.298462 -9.078003z" fill-rule="evenodd"/><path fill="#000000" fill-opacity="0.0" d="m404.91864 484.20996l-63.731018 0l0 0.0630188l-63.73355 0" fill-rule="evenodd"/><path stroke="#e06666" stroke-width="2.0" stroke-linejoin="round" stroke-linecap="butt" d="m404.91864 484.20996l-63.731018 0l0 0.0630188l-51.73355 0" fill-rule="evenodd"/><path fill="#e06666" stroke="#e06666" stroke-width="2.0" stroke-linecap="butt" d="m289.45407 480.9695l-9.076202 3.3034668l9.076202 3.3034363z" fill-rule="evenodd"/><path fill="#000000" fill-opacity="0.0" d="m239.16934 61.126072l0 25.869877l0.06298828 0l0 25.87815" fill-rule="evenodd"/><path stroke="#b6d7a8" stroke-width="2.0" stroke-linejoin="round" stroke-linecap="butt" d="m239.16936 61.126072l0 25.869877l0.06298828 0l0 13.878159" fill-rule="evenodd"/><path fill="#b6d7a8" stroke="#b6d7a8" stroke-width="2.0" stroke-linecap="butt" d="m235.92888 100.87411l3.3034668 9.076195l3.3034668 -9.076195z" fill-rule="evenodd"/><path fill="#000000" fill-opacity="0.0" d="m482.57217 397.70865l0 25.014374l0.06298828 0l0 25.001373" fill-rule="evenodd"/><path stroke="#b6d7a8" stroke-width="2.0" stroke-linejoin="round" stroke-linecap="butt" d="m482.57217 397.70865l0 25.014404l0.06298828 0l0 13.001343" fill-rule="evenodd"/><path fill="#b6d7a8" stroke="#b6d7a8" stroke-width="2.0" stroke-linecap="butt" d="m479.3317 435.7244l3.3034668 9.076202l3.3034668 -9.076202z" fill-rule="evenodd"/><path fill="#ffe599" d="m149.78215 135.2441l35.767975 -22.377953l107.30394 0l35.767975 22.377953l-35.767975 22.377945l-107.30394 0z" fill-rule="evenodd"/><path stroke="#e69138" stroke-width="2.0" stroke-linejoin="round" stroke-linecap="butt" d="m149.78215 135.2441l35.767975 -22.377953l107.30394 0l35.767975 22.377953l-35.767975 22.377945l-107.30394 0z" fill-rule="evenodd"/><path fill="#000000" d="m205.17476 132.80722l1.21875 0l0 -0.625q0 -1.046875 0.21875 -1.5625q0.234375 -0.515625 0.828125 -0.84375q0.59375 -0.328125 1.515625 -0.328125q0.9375 0 1.828125 0.28125l-0.296875 1.53125q-0.515625 -0.125 -1.0 -0.125q-0.484375 0 -0.6875 0.234375q-0.203125 0.21875 -0.203125 0.84375l0 0.59375l1.640625 0l0 1.71875l-1.640625 0l0 6.578125l-2.203125 0l0 -6.578125l-1.21875 0l0 -1.71875zm5.78125 4.03125q0 -1.09375 0.53125 -2.109375q0.546875 -1.03125 1.53125 -1.5625q1.0 -0.546875 2.21875 -0.546875q1.875 0 3.078125 1.21875q1.203125 1.21875 1.203125 3.09375q0 1.875 -1.21875 3.125q-1.203125 1.234375 -3.046875 1.234375q-1.140625 0 -2.1875 -0.515625q-1.03125 -0.515625 -1.578125 -1.515625q-0.53125 -1.0 -0.53125 -2.421875zm2.25 0.109375q0 1.234375 0.578125 1.890625q0.59375 0.65625 1.453125 0.65625q0.859375 0 1.4375 -0.65625q0.59375 -0.65625 0.59375 -1.90625q0 -1.21875 -0.59375 -1.875q-0.578125 -0.65625 -1.4375 -0.65625q-0.859375 0 -1.453125 0.65625q-0.578125 0.65625 -0.578125 1.890625zm10.1328125 4.15625l-2.1875 0l0 -8.296875l2.03125 0l0 1.171875q0.53125 -0.828125 0.9375 -1.09375q0.421875 -0.265625 0.953125 -0.265625q0.75 0 1.453125 0.40625l-0.6875 1.921875q-0.546875 -0.359375 -1.03125 -0.359375q-0.453125 0 -0.78125 0.25q-0.3125 0.25 -0.5 0.921875q-0.1875 0.65625 -0.1875 2.78125l0 2.5625zm7.390625 0.203125l2.84375 -11.859375l1.65625 0l-2.875 11.859375l-1.625 0zm10.078125 -0.203125l0 -11.453125l2.1875 0l0 11.453125l-2.1875 0zm3.9296875 -4.265625q0 -1.09375 0.53125 -2.109375q0.546875 -1.03125 1.53125 -1.5625q1.0 -0.546875 2.21875 -0.546875q1.875 0 3.078125 1.21875q1.203125 1.21875 1.203125 3.09375q0 1.875 -1.21875 3.125q-1.203125 1.234375 -3.046875 1.234375q-1.140625 0 -2.1875 -0.515625q-1.03125 -0.515625 -1.578125 -1.515625q-0.53125 -1.0 -0.53125 -2.421875zm2.25 0.109375q0 1.234375 0.578125 1.890625q0.59375 0.65625 1.453125 0.65625q0.859375 0 1.4375 -0.65625q0.59375 -0.65625 0.59375 -1.90625q0 -1.21875 -0.59375 -1.875q-0.578125 -0.65625 -1.4375 -0.65625q-0.859375 0 -1.453125 0.65625q-0.578125 0.65625 -0.578125 1.890625zm7.5234375 -0.109375q0 -1.09375 0.53125 -2.109375q0.546875 -1.03125 1.5312347 -1.5625q1.0 -0.546875 2.21875 -0.546875q1.875 0 3.078125 1.21875q1.203125 1.21875 1.203125 3.09375q0 1.875 -1.21875 3.125q-1.203125 1.234375 -3.046875 1.234375q-1.140625 0 -2.1875 -0.515625q-1.0312347 -0.515625 -1.5781097 -1.515625q-0.53125 -1.0 -0.53125 -2.421875zm2.2499847 0.109375q0 1.234375 0.578125 1.890625q0.59375 0.65625 1.453125 0.65625q0.859375 0 1.4375 -0.65625q0.59375 -0.65625 0.59375 -1.90625q0 -1.21875 -0.59375 -1.875q-0.578125 -0.65625 -1.4375 -0.65625q-0.859375 0 -1.453125 0.65625q-0.578125 0.65625 -0.578125 1.890625zm7.9765625 -4.140625l2.046875 0l0 1.21875q0.390625 -0.625 1.0625 -1.015625q0.6875 -0.390625 1.515625 -0.390625q1.453125 0 2.453125 1.140625q1.015625 1.125 1.015625 3.140625q0 2.078125 -1.015625 3.234375q-1.015625 1.15625 -2.46875 1.15625q-0.6875 0 -1.25 -0.265625q-0.546875 -0.28125 -1.171875 -0.953125l0 4.1875l-2.1875 0l0 -11.453125zm2.171875 4.0q0 1.40625 0.546875 2.078125q0.5625 0.65625 1.359375 0.65625q0.765625 0 1.265625 -0.609375q0.515625 -0.609375 0.515625 -2.015625q0 -1.296875 -0.53125 -1.921875q-0.515625 -0.640625 -1.296875 -0.640625q-0.796875 0 -1.328125 0.625q-0.53125 0.609375 -0.53125 1.828125z" fill-rule="nonzero"/><path fill="#000000" fill-opacity="0.0" d="m328.62204 135.2441l281.35434 0l0 441.57483" fill-rule="evenodd"/><path stroke="#e06666" stroke-width="2.0" stroke-linejoin="round" stroke-linecap="butt" d="m328.62204 135.2441l281.35434 0l0 429.57483" fill-rule="evenodd"/><path fill="#e06666" stroke="#e06666" stroke-width="2.0" stroke-linecap="butt" d="m606.6729 564.8189l3.3034668 9.076172l3.3034668 -9.076172z" fill-rule="evenodd"/><path fill="#e06666" d="m437.26938 118.30627c0.82180786 0 1.508728 0.3327713 2.0606995 0.9983063c0.55407715 0.6633606 0.8311157 1.6398544 0.8311157 2.9294739c0 1.3681793 -0.2749939 2.3861237 -0.82492065 3.0538483c-0.54992676 0.6677246 -1.2389221 1.0015869 -2.0668945 1.0015869c-0.834198 0 -1.5262451 -0.3316803 -2.0761719 -0.9950409c-0.5499573 -0.6655426 -0.82492065 -1.6660309 -0.82492065 -3.00148c0 -1.3354416 0.27496338 -2.3337555 0.82492065 -2.994934c0.54992676 -0.66117096 1.2419739 -0.99176025 2.0761719 -0.99176025zm0 -1.4630966c-1.2172852 0 -2.2492065 0.38623047 -3.0957336 1.1586914c-1.0133667 0.92957306 -1.52005 2.3599396 -1.52005 4.2910995c0 1.7609558 0.4242859 3.109497 1.2728882 4.045616c0.850647 0.9361191 1.9649353 1.4041824 3.3428955 1.4041824c0.8588867 0 1.6508179 -0.2127533 2.3758545 -0.6382675c0.7270508 -0.4255066 1.2800903 -1.022316 1.6590881 -1.7904129c0.38104248 -0.77027893 0.5715637 -1.826416 0.5715637 -3.1684113c0 -1.6562119 -0.42944336 -2.9534683 -1.2883606 -3.8917694c-0.8588867 -0.9404907 -1.9649353 -1.4107285 -3.3181458 -1.4107285z" fill-rule="evenodd"/><path fill="#e06666" d="m443.7945 117.078835l0 6.461197c0 0.7528229 0.033966064 1.3027191 0.10192871 1.6496735c0.09887695 0.5171509 0.26983643 0.95466614 0.5128784 1.3125305c0.24508667 0.35568237 0.618927 0.65135956 1.1214905 0.8870239c0.5046387 0.23566437 1.0473633 0.35350037 1.6282043 0.35350037c1.3161316 0 2.3573303 -0.58916473 3.1235352 -1.7675018l0 1.5318375l1.4922485 0l0 -10.428261l-1.6683655 0l0 5.587265c0 0.89029694 -0.09164429 1.5700226 -0.27496338 2.039177c-0.1812439 0.46696472 -0.49124146 0.83683014 -0.92996216 1.1095963c-0.4387207 0.27057648 -0.9083252 0.40586853 -1.4088135 0.40586853c-0.5005188 0 -0.9206848 -0.13201904 -1.2605591 -0.3960495c-0.33984375 -0.26621246 -0.5622864 -0.63171387 -0.6673279 -1.0965042c-0.06796265 -0.32077026 -0.10195923 -0.9426651 -0.10195923 -1.8656998l0 -5.7836533z" fill-rule="evenodd"/><path fill="#e06666" d="m456.3535 113.435814l-1.6590881 1.0605011l0 2.5825195l-1.2234802 0l0 1.3747253l1.2234802 0l0 5.9996796c0 1.0605011 0.06796265 1.7565918 0.20388794 2.088272c0.13595581 0.3294983 0.37075806 0.59571075 0.70443726 0.79865265c0.33364868 0.20293427 0.8032837 0.30439758 1.4088135 0.30439758c0.37075806 0 0.7909241 -0.052368164 1.2605591 -0.15711212l-0.24099731 -1.5612869c-0.3027649 0.045822144 -0.5468445 0.068733215 -0.73220825 0.068733215c-0.24719238 0 -0.43771362 -0.042549133 -0.57159424 -0.12765503c-0.13180542 -0.08509827 -0.22756958 -0.19966125 -0.287323 -0.34368134c-0.057678223 -0.14401245 -0.08648682 -0.46805573 -0.08648682 -0.9721222l0 -6.0978775l1.6776123 0l0 -1.3747253l-1.6776123 0l0 -3.6430206z" fill-rule="evenodd"/><path fill="#e06666" d="m468.931 118.30627c0.82180786 0 1.508728 0.3327713 2.06073 0.9983063c0.55404663 0.6633606 0.8310852 1.6398544 0.8310852 2.9294739c0 1.3681793 -0.27496338 2.3861237 -0.82492065 3.0538483c-0.54992676 0.6677246 -1.2388916 1.0015869 -2.0668945 1.0015869c-0.8341675 0 -1.5262451 -0.3316803 -2.0761719 -0.9950409c-0.54992676 -0.6655426 -0.82489014 -1.6660309 -0.82489014 -3.00148c0 -1.3354416 0.27496338 -2.3337555 0.82489014 -2.994934c0.54992676 -0.66117096 1.2420044 -0.99176025 2.0761719 -0.99176025zm0 -1.4630966c-1.2172852 0 -2.249176 0.38623047 -3.0957031 1.1586914c-1.0133972 0.92957306 -1.5200806 2.3599396 -1.5200806 4.2910995c0 1.7609558 0.4243164 3.109497 1.2728882 4.045616c0.8506775 0.9361191 1.9649658 1.4041824 3.3428955 1.4041824c0.8588867 0 1.6508484 -0.2127533 2.3758545 -0.6382675c0.7270813 -0.4255066 1.2801208 -1.022316 1.6590881 -1.7904129c0.38104248 -0.77027893 0.5715637 -1.826416 0.5715637 -3.1684113c0 -1.6562119 -0.42944336 -2.9534683 -1.2883301 -3.8917694c-0.8588867 -0.9404907 -1.9649658 -1.4107285 -3.3181763 -1.4107285z" fill-rule="evenodd"/><path fill="#e06666" d="m478.61673 112.86629c-0.729126 0 -1.2966003 0.14292908 -1.7023315 0.42878723c-0.40371704 0.28366852 -0.68588257 0.65462494 -0.8465576 1.1128693c-0.11740112 0.34040833 -0.17608643 0.86083984 -0.17608643 1.5612946l0 1.1095963l-1.4737244 0l0 1.3747253l1.4737244 0l0 9.053535l1.6590881 0l0 -9.053535l1.9185791 0l0 -1.3747253l-1.9185791 0l0 -0.96230316c0 -0.6284485 0.105041504 -1.0572281 0.3151245 -1.2863541c0.21008301 -0.22911835 0.56848145 -0.34368134 1.0751648 -0.34368134c0.30895996 0 0.6364441 0.032737732 0.9824524 0.09819794l0.25027466 -1.5416565c-0.56848145 -0.11782837 -1.0875244 -0.17675018 -1.5571289 -0.17675018z" fill-rule="evenodd"/><path fill="#e06666" d="m489.65567 116.84317c-0.38928223 0 -0.74664307 0.11782837 -1.0720825 0.35350037c-0.32336426 0.23566437 -0.6766052 0.7233658 -1.0597229 1.4630966l0 -1.5809326l-1.5014954 0l0 10.428261l1.668335 0l0 -5.4596176c0 -0.74627686 0.092681885 -1.4336395 0.27807617 -2.062088c0.123565674 -0.41241455 0.3305664 -0.7342758 0.6209717 -0.9655762c0.2904358 -0.23348236 0.6179199 -0.35022736 0.9824829 -0.35022736c0.4078369 0 0.8156433 0.12765503 1.2234802 0.38295746l0.574646 -1.6398468c-0.58084106 -0.37968445 -1.1524048 -0.5695267 -1.7146912 -0.5695267z" fill-rule="evenodd"/><path fill="#e06666" d="m498.64624 122.27332l0 0.64808655c0 0.77900696 -0.08959961 1.3681717 -0.26879883 1.7675018c-0.23480225 0.5171585 -0.602478 0.92520905 -1.1029663 1.2241592c-0.5005188 0.29676056 -1.0720825 0.44514465 -1.7146912 0.44514465c-0.6488037 0 -1.1421204 -0.15711212 -1.4798889 -0.47133636c-0.3357544 -0.3142166 -0.5036011 -0.70700073 -0.5036011 -1.1783295c0 -0.30767822 0.07723999 -0.58699036 0.23171997 -0.8379288c0.15447998 -0.25312042 0.37384033 -0.44514465 0.65805054 -0.5760727c0.28424072 -0.13092804 0.7693176 -0.24876404 1.4552002 -0.35350037c1.2110901 -0.1832962 2.1194153 -0.40586853 2.7249756 -0.6677246zm-2.122528 -5.430153c-0.8465271 0 -1.5911255 0.123283386 -2.2337341 0.36986542c-0.64263916 0.2443924 -1.1338806 0.59461975 -1.4737244 1.0506821c-0.33984375 0.45387268 -0.58392334 1.0506821 -0.73220825 1.7904129l1.6312866 0.23566437c0.1791687 -0.73973083 0.45516968 -1.2547073 0.8279724 -1.5449295c0.37487793 -0.29239655 0.9546814 -0.43859863 1.7394104 -0.43859863c0.84036255 0 1.4737244 0.19966125 1.9000854 0.59898376c0.3151245 0.29458618 0.47268677 0.80192566 0.47268677 1.5220184c0 0.065460205 -0.0030822754 0.21929932 -0.009246826 0.4615097c-0.6364441 0.235672 -1.6282043 0.43860626 -2.9752502 0.6088104c-0.66116333 0.08509827 -1.1554871 0.17347717 -1.4829712 0.26512146c-0.44488525 0.13092804 -0.84552 0.32404327 -1.2018433 0.57935333c-0.35424805 0.25530243 -0.64157104 0.59461975 -0.861969 1.0179443c-0.21832275 0.4211502 -0.32748413 0.8870239 -0.32748413 1.3976364c0 0.8706589 0.29040527 1.5863876 0.87124634 2.1471863c0.58084106 0.55861664 1.4119263 0.8379288 2.4932556 0.8379288c0.6549988 0 1.2677307 -0.11456299 1.8382874 -0.34368134c0.5726013 -0.22911835 1.1678467 -0.62190247 1.7857361 -1.1783371c0.049438477 0.49097443 0.16067505 0.919754 0.3336792 1.2863541l1.7424927 0c-0.21008301 -0.39933014 -0.35116577 -0.8161087 -0.4232483 -1.2503433c-0.07003784 -0.43642426 -0.105041504 -1.4761963 -0.105041504 -3.119316l0 -2.3566666c0 -0.7855606 -0.027801514 -1.3289032 -0.08343506 -1.6300278c-0.098846436 -0.4844284 -0.2718811 -0.8848419 -0.51904297 -1.2012482c-0.24716187 -0.31858826 -0.6333618 -0.5826187 -1.1585693 -0.7921066c-0.52523804 -0.20948029 -1.2080078 -0.3142166 -2.0483704 -0.3142166z" fill-rule="evenodd"/><path fill="#e06666" d="m507.55338 116.84317c-1.3655701 0 -2.409851 0.5727997 -3.132782 1.718399l0 -1.4827347l-1.5015259 0l0 10.428261l1.6683655 0l0 -5.695282c0 -1.3354492 0.2574463 -2.2421112 0.7723694 -2.7199936c0.5169983 -0.47787476 1.1307678 -0.71681976 1.8413696 -0.71681976c0.44488525 0 0.8321228 0.106925964 1.1616821 0.32077026c0.331604 0.21166229 0.5622864 0.49642944 0.6920471 0.8542938c0.12976074 0.35568237 0.19464111 0.89356995 0.19464111 1.6136627l0 6.3433685l1.6683655 0l0 -6.4121017c0 -0.8182907 -0.030914307 -1.3910904 -0.0927124 -1.7184067c-0.098846436 -0.50406647 -0.2718811 -0.9393921 -0.51904297 -1.3059845c-0.24716187 -0.36660004 -0.6199646 -0.6622696 -1.1184082 -0.8870239c-0.4963684 -0.22694397 -1.0411682 -0.34040833 -1.6343689 -0.34040833z" fill-rule="evenodd"/><path fill="#e06666" d="m517.2206 118.30627c0.7538452 0 1.3974609 0.32404327 1.9309692 0.9721222c0.53552246 0.64808655 0.8032837 1.6103897 0.8032837 2.8869247c0 1.3354416 -0.25952148 2.3162918 -0.77856445 2.9425583c-0.51904297 0.62407684 -1.1616821 0.9361191 -1.9279175 0.9361191c-0.77233887 0 -1.414978 -0.3142166 -1.9278564 -0.9426651c-0.5128784 -0.6284485 -0.7692871 -1.6267548 -0.7692871 -2.994934c0 -1.2568893 0.25952148 -2.2039185 0.77856445 -2.841095c0.51904297 -0.6393509 1.149292 -0.95903015 1.8908081 -0.95903015zm-0.1204834 -1.4630966c-0.87127686 0 -1.630249 0.22911835 -2.2770386 0.68735504c-0.6446533 0.45824432 -1.1369629 1.1085129 -1.4768066 1.950798c-0.33984375 0.8401108 -0.5097656 1.7576828 -0.5097656 2.7527237c0 1.4467316 0.37078857 2.6872559 1.1122437 3.7215729c0.7415161 1.034317 1.7888794 1.5514755 3.1420898 1.5514755c1.0875244 0 1.9958496 -0.4549713 2.7249756 -1.3649063l0 0c0.006164551 1.1521454 -0.033996582 1.9082413 -0.1204834 2.2682877c-0.14831543 0.58917236 -0.43255615 1.047409 -0.85272217 1.3747253c-0.42016602 0.32731628 -1.0164795 0.49098206 -1.7888794 0.49098206c-0.71673584 0 -1.2821655 -0.16366577 -1.696167 -0.49098206c-0.30895996 -0.24221802 -0.4973755 -0.6284485 -0.56536865 -1.1586914l-1.6220093 -0.25531006l0 0c-0.024719238 1.1259613 0.32440186 1.9682617 1.0473633 2.5268707c0.7229614 0.5608063 1.6714478 0.8412018 2.845459 0.8412018c0.98864746 0 1.8208008 -0.19638062 2.496338 -0.58917236c0.67767334 -0.3927765 1.1719971 -0.92848206 1.4829712 -1.6071167c0.31311035 -0.6764374 0.46966553 -1.8264084 0.46966553 -3.4498901l0 -9.014259l-1.5386353 0l0 1.2568893c-0.7538452 -0.9950409 -1.7116089 -1.4925537 -2.87323 -1.4925537z" fill-rule="evenodd"/><path fill="#e06666" d="m528.09265 118.29645c0.8465576 0 1.5355225 0.34040833 2.0668945 1.021225c0.34606934 0.43859863 0.55615234 1.0965042 0.63031006 1.9737091l-5.496338 0c0.055603027 -0.909935 0.34399414 -1.6365814 0.8651123 -2.179924c0.5231323 -0.5433426 1.1678467 -0.8150101 1.934021 -0.8150101zm-0.018493652 -1.4532776c-1.359436 0 -2.4655151 0.48442078 -3.3181763 1.4532776c-0.85272217 0.9688492 -1.2791138 2.3304825 -1.2791138 4.0848923c0 1.695488 0.4212036 3.0134811 1.2636719 3.9539642c0.8444214 0.9383011 1.9865723 1.4074554 3.4262695 1.4074554c1.1431274 0 2.0823364 -0.29458618 2.817688 -0.8837509c0.7352905 -0.58916473 1.2388916 -1.4172745 1.5107422 -2.4843216l-1.723938 -0.22584534c-0.25335693 0.74627686 -0.5963135 1.2896194 -1.0288086 1.6300278c-0.43255615 0.34040833 -0.9546509 0.5106125 -1.5664062 0.5106125c-0.8218384 0 -1.5076904 -0.3044052 -2.0576172 -0.913208c-0.5499878 -0.6088104 -0.85583496 -1.4860153 -0.91760254 -2.6316147l7.3407593 0c0.006164551 -0.20948029 0.009277344 -0.3665924 0.009277344 -0.47133636c0 -1.7216797 -0.41711426 -3.0571213 -1.2512817 -4.0063324c-0.8341675 -0.94921875 -1.9093628 -1.4238205 -3.2254639 -1.4238205z" fill-rule="evenodd"/><path fill="#e06666" d="m366.6278 352.54166c-1.4787598 0 -2.7052002 0.70581055 -3.6793518 2.1174622l0 -1.835144l-2.743744 0l0 12.49295l2.95401 0l0 -5.6582947c0 -1.395935 0.07473755 -2.3527222 0.22424316 -2.8703003c0.15185547 -0.51760864 0.43103027 -0.93325806 0.8374939 -1.2469482c0.40649414 -0.3136902 0.86550903 -0.47055054 1.3771362 -0.47055054c0.3994751 0 0.74053955 0.109802246 1.0231934 0.32937622c0.28500366 0.21960449 0.49057007 0.52804565 0.61672974 0.92541504c0.12615967 0.39471436 0.1892395 1.2665405 0.1892395 2.615448l0 6.3758545l2.9539795 0l0 -7.763977c0 -0.9645996 -0.054901123 -1.705719 -0.16470337 -2.2233276c-0.10745239 -0.5175781 -0.30020142 -0.98028564 -0.57818604 -1.388092c-0.27566528 -0.4078064 -0.6832886 -0.74243164 -1.2229309 -1.0038452c-0.53964233 -0.26400757 -1.1353455 -0.3960266 -1.7871094 -0.3960266z" fill-rule="evenodd"/><path fill="#e06666" d="m378.45425 355.23553c0.77090454 0 1.4168396 0.32937622 1.9377747 0.98812866c0.5232849 0.65875244 0.7849426 1.5998535 0.7849426 2.8232727c0 1.2547913 -0.2616577 2.2115479 -0.7849426 2.8703003c-0.52093506 0.65878296 -1.1668701 0.9881592 -1.9377747 0.9881592c-0.77090454 0 -1.4191895 -0.32937622 -1.9447937 -0.9881592c-0.52563477 -0.65875244 -0.78842163 -1.607666 -0.78842163 -2.8467712c0 -1.2391052 0.26278687 -2.1880493 0.78842163 -2.8468018c0.52560425 -0.65875244 1.1738892 -0.98812866 1.9447937 -0.98812866zm-0.010528564 -2.6938782c-1.0932617 0 -2.0837708 0.27056885 -2.9714966 0.811676c-0.885376 0.5411377 -1.5698547 1.3253784 -2.0534058 2.3527222c-0.48358154 1.0273743 -0.7253723 2.0900269 -0.7253723 3.1879578c0 1.4351501 0.24179077 2.6533508 0.7253723 3.654541c0.48355103 0.9985962 1.1890564 1.7567139 2.1164856 2.274292c0.92974854 0.51760864 1.90625 0.7763977 2.9294434 0.7763977c1.6539612 0 3.025238 -0.6208496 4.113861 -1.8625488c1.0909424 -1.2443237 1.6364441 -2.8115234 1.6364441 -4.701538c0 -1.8743286 -0.53964233 -3.4244995 -1.618927 -4.650543c-1.0792542 -1.2286377 -2.4634094 -1.8429565 -4.152405 -1.8429565z" fill-rule="evenodd"/><path fill="#c9daf8" d="m444.61957 577.7522l75.968506 0l0 0c9.952087 0 18.019836 8.066467 18.019836 18.016968c0 9.950562 -8.067749 18.017029 -18.019836 18.017029l-75.968506 0l0 0c-9.952087 0 -18.019836 -8.066467 -18.019836 -18.017029c0 -9.9505005 8.067749 -18.016968 18.019836 -18.016968z" fill-rule="evenodd"/><path stroke="#6d9eeb" stroke-width="2.0" stroke-linejoin="round" stroke-linecap="butt" d="m444.61957 577.7522l75.968506 0l0 0c9.952087 0 18.019836 8.066467 18.019836 18.016968c0 9.950562 -8.067749 18.017029 -18.019836 18.017029l-75.968506 0l0 0c-9.952087 0 -18.019836 -8.066467 -18.019836 -18.017029c0 -9.9505005 8.067749 -18.016968 18.019836 -18.016968z" fill-rule="evenodd"/><path fill="#000000" d="m465.4085 597.89484l2.25 -0.21875q0.203125 1.140625 0.828125 1.671875q0.625 0.53125 1.671875 0.53125q1.125 0 1.6875 -0.46875q0.5625 -0.484375 0.5625 -1.109375q0 -0.40625 -0.234375 -0.6875q-0.234375 -0.296875 -0.828125 -0.5q-0.40625 -0.140625 -1.859375 -0.5q-1.859375 -0.46875 -2.609375 -1.140625q-1.046875 -0.9375 -1.046875 -2.296875q0 -0.875 0.484375 -1.640625q0.5 -0.765625 1.4375 -1.15625q0.9375 -0.40625 2.25 -0.40625q2.15625 0 3.25 0.953125q1.09375 0.9375 1.140625 2.515625l-2.3125 0.109375q-0.140625 -0.890625 -0.640625 -1.265625q-0.484375 -0.390625 -1.453125 -0.390625q-1.015625 0 -1.578125 0.40625q-0.375 0.265625 -0.375 0.71875q0 0.40625 0.34375 0.6875q0.4375 0.375 2.125 0.78125q1.6875 0.390625 2.5 0.8125q0.8125 0.421875 1.265625 1.171875q0.453125 0.734375 0.453125 1.8125q0 0.984375 -0.546875 1.84375q-0.546875 0.859375 -1.546875 1.28125q-1.0 0.421875 -2.484375 0.421875q-2.171875 0 -3.34375 -1.0q-1.15625 -1.015625 -1.390625 -2.9375zm15.046875 -4.5625l0 1.75l-1.5 0l0 3.34375q0 1.015625 0.046875 1.1875q0.046875 0.15625 0.1875 0.265625q0.15625 0.109375 0.375 0.109375q0.3125 0 0.890625 -0.203125l0.1875 1.703125q-0.765625 0.328125 -1.734375 0.328125q-0.59375 0 -1.078125 -0.203125q-0.46875 -0.203125 -0.703125 -0.515625q-0.21875 -0.3125 -0.296875 -0.859375q-0.078125 -0.375 -0.078125 -1.546875l0 -3.609375l-1.0 0l0 -1.75l1.0 0l0 -1.65625l2.203125 -1.28125l0 2.9375l1.5 0zm1.015625 4.03125q0 -1.09375 0.53125 -2.109375q0.546875 -1.03125 1.53125 -1.5625q1.0 -0.546875 2.21875 -0.546875q1.875 0 3.078125 1.21875q1.203125 1.21875 1.203125 3.09375q0 1.875 -1.21875 3.125q-1.203125 1.234375 -3.046875 1.234375q-1.140625 0 -2.1875 -0.515625q-1.03125 -0.515625 -1.578125 -1.515625q-0.53125 -1.0 -0.53125 -2.421875zm2.25 0.109375q0 1.234375 0.578125 1.890625q0.59375 0.65625 1.453125 0.65625q0.859375 0 1.4375 -0.65625q0.59375 -0.65625 0.59375 -1.90625q0 -1.21875 -0.59375 -1.875q-0.578125 -0.65625 -1.4375 -0.65625q-0.859375 0 -1.453125 0.65625q-0.578125 0.65625 -0.578125 1.890625zm7.9765625 -4.140625l2.046875 0l0 1.21875q0.390625 -0.625 1.0625 -1.015625q0.6875 -0.390625 1.515625 -0.390625q1.453125 0 2.453125 1.140625q1.015625 1.125 1.015625 3.140625q0 2.078125 -1.015625 3.234375q-1.015625 1.15625 -2.46875 1.15625q-0.6875 0 -1.25 -0.265625q-0.546875 -0.28125 -1.171875 -0.953125l0 4.1875l-2.1875 0l0 -11.453125zm2.171875 4.0q0 1.40625 0.546875 2.078125q0.5625 0.65625 1.359375 0.65625q0.765625 0 1.265625 -0.609375q0.515625 -0.609375 0.515625 -2.015625q0 -1.296875 -0.53125 -1.921875q-0.515625 -0.640625 -1.296875 -0.640625q-0.796875 0 -1.328125 0.625q-0.53125 0.609375 -0.53125 1.828125z" fill-rule="nonzero"/><path fill="#c9daf8" d="m590.0026 595.76904l0 0c0 -10.463013 8.947266 -18.944885 19.984253 -18.944885l0 0c5.300171 0 10.38324 1.9959717 14.130981 5.548828c3.7478027 3.5528564 5.8532715 8.371521 5.8532715 13.396057l0 0c0 10.462952 -8.947266 18.944885 -19.984253 18.944885l0 0c-11.036987 0 -19.984253 -8.481934 -19.984253 -18.944885z" fill-rule="evenodd"/><path stroke="#3c78d8" stroke-width="2.0" stroke-linejoin="round" stroke-linecap="butt" d="m590.0026 595.76904l0 0c0 -10.463013 8.947266 -18.944885 19.984253 -18.944885l0 0c5.300171 0 10.38324 1.9959717 14.130981 5.548828c3.7478027 3.5528564 5.8532715 8.371521 5.8532715 13.396057l0 0c0 10.462952 -8.947266 18.944885 -19.984253 18.944885l0 0c-11.036987 0 -19.984253 -8.481934 -19.984253 -18.944885z" fill-rule="evenodd"/><path fill="#000000" fill-opacity="0.0" d="m590.0026 595.76904l-51.40155 0" fill-rule="evenodd"/><path stroke="#e06666" stroke-width="2.0" stroke-linejoin="round" stroke-linecap="butt" d="m590.0026 595.76904l-39.40155 0" fill-rule="evenodd"/><path fill="#e06666" stroke="#e06666" stroke-width="2.0" stroke-linecap="butt" d="m550.6011 592.4656l-9.076233 3.3034668l9.076233 3.3034668z" fill-rule="evenodd"/><path fill="#e06666" d="m339.08636 460.06824c-1.499115 0 -2.7424622 0.70581055 -3.7300415 2.1174622l0 -1.8351135l-2.7815247 0l0 12.49295l2.99469 0l0 -5.6582947c0 -1.3959656 0.07577515 -2.3527222 0.22735596 -2.8703308c0.15393066 -0.51760864 0.43695068 -0.93325806 0.84902954 -1.2469482c0.41207886 -0.3136902 0.8774414 -0.47055054 1.3960876 -0.47055054c0.40496826 0 0.7507324 0.109802246 1.0372925 0.32937622c0.28894043 0.21960449 0.49734497 0.5280762 0.6252136 0.92541504c0.12789917 0.39474487 0.1918335 1.2665405 0.1918335 2.615448l0 6.375885l2.99469 0l0 -7.7640076c0 -0.9645996 -0.055664062 -1.705719 -0.16696167 -2.223297c-0.108947754 -0.51760864 -0.3043213 -0.98031616 -0.5861511 -1.3881226c-0.27944946 -0.4078064 -0.6927185 -0.7424011 -1.2397766 -1.0038147c-0.5470886 -0.2640381 -1.151001 -0.39605713 -1.8117371 -0.39605713z" fill-rule="evenodd"/><path fill="#e06666" d="m351.07574 462.76212c0.78152466 0 1.4363403 0.32937622 1.9644775 0.98812866c0.53048706 0.65878296 0.79574585 1.5998535 0.79574585 2.8232727c0 1.2547913 -0.2652588 2.2115479 -0.79574585 2.8703308c-0.5281372 0.65875244 -1.1829529 0.98812866 -1.9644775 0.98812866c-0.78152466 0 -1.4387207 -0.32937622 -1.9715881 -0.98812866c-0.53286743 -0.65878296 -0.7992859 -1.6076965 -0.7992859 -2.8468018c0 -1.2391052 0.26641846 -2.1880188 0.7992859 -2.8468018c0.53286743 -0.65875244 1.1900635 -0.98812866 1.9715881 -0.98812866zm-0.010681152 -2.6938782c-1.1083374 0 -2.1124878 0.27056885 -3.0124207 0.81170654c-0.897583 0.5411072 -1.5914917 1.3253479 -2.081726 2.3527222c-0.49023438 1.0273438 -0.73535156 2.0899963 -0.73535156 3.1879272c0 1.4351501 0.24511719 2.6533508 0.73535156 3.6545715c0.49023438 0.9985962 1.2054749 1.7566833 2.1456604 2.274292c0.9425659 0.5175781 1.9325256 0.7763977 2.969818 0.7763977c1.6767273 0 3.0668945 -0.6208496 4.170532 -1.8625793c1.1059875 -1.2443237 1.6589661 -2.811493 1.6589661 -4.7015076c0 -1.8743591 -0.5470581 -3.42453 -1.6412048 -4.650543c-1.0941467 -1.2286682 -2.497345 -1.8429871 -4.2096252 -1.8429871z" fill-rule="evenodd"/><path fill="#d9d9d9" d="m203.9685 275.09802l4.3050995 12.3871155c-0.17759705 0.6901245 -0.4333496 1.2574463 -0.76724243 1.7020264c-0.33389282 0.44714355 -0.84895325 0.67071533 -1.5451508 0.67071533c-0.37652588 0 -0.7992096 -0.05041504 -1.2680817 -0.1512146l0 0l0.2664032 2.558838c0.5541229 0.13183594 1.1188965 0.1977539 1.6943359 0.1977539c0.56832886 0 1.0774536 -0.06591797 1.5273895 -0.1977539c0.45228577 -0.13180542 0.83236694 -0.31661987 1.140213 -0.55441284c0.31021118 -0.23519897 0.5837097 -0.54278564 0.8205261 -0.9227295c0.23916626 -0.37994385 0.49017334 -0.93048096 0.7530365 -1.6516113l0.71395874 -2.1517334l3.9960785 -11.886993l-3.1009521 0l-2.642746 8.769836l-2.706665 -8.769836z" fill-rule="evenodd"/><path fill="#d9d9d9" d="m222.0201 277.31955c0.6109619 0 1.1295624 0.24685669 1.5558014 0.74053955c0.42625427 0.49108887 0.6500244 1.2096252 0.67134094 2.1556091l-4.475601 0c-0.007095337 -0.89172363 0.20246887 -1.5973206 0.62872314 -2.1168518c0.426239 -0.51953125 0.966156 -0.7792969 1.6197357 -0.7792969zm-0.18115234 -2.5006714c-1.4989777 0 -2.7386475 0.58026123 -3.7190094 1.7407837c-0.9803772 1.157959 -1.4705658 2.760437 -1.4705658 4.8075256c0 1.7136536 0.37297058 3.1326294 1.1189117 4.2569885c0.9448395 1.4034729 2.401184 2.1052246 4.369034 2.1052246c1.2432251 0 2.278061 -0.3114624 3.1045074 -0.9343872c0.82881165 -0.6254883 1.4350281 -1.5352783 1.8186493 -2.7294312l-2.9837341 -0.5466614c-0.16339111 0.6203308 -0.40493774 1.0700684 -0.7246094 1.3492126c-0.3196869 0.2791443 -0.713974 0.4187317 -1.1828461 0.4187317c-0.6891022 0 -1.2645264 -0.26879883 -1.7263031 -0.806427c-0.46176147 -0.54019165 -0.7033081 -1.2949219 -0.72462463 -2.2641907l7.5019684 0c0.042617798 -2.504547 -0.42269897 -4.3629456 -1.3959656 -5.575165c-0.9732666 -1.2148132 -2.3017426 -1.8222046 -3.9854126 -1.8222046z" fill-rule="evenodd"/><path fill="#d9d9d9" d="m233.78453 274.81888c-1.6268463 0 -2.8274384 0.36444092 -3.6017914 1.0933228c-0.774353 0.72888184 -1.1615295 1.6283569 -1.1615295 2.6984253c0 1.1863708 0.4475708 2.112976 1.3426819 2.7798157c0.6464844 0.4807434 2.177414 1.0119019 4.592819 1.5934753c0.51860046 0.13180542 0.8524933 0.27526855 1.0016937 0.43032837c0.14207458 0.1628418 0.2131195 0.36831665 0.2131195 0.6164551c0 0.36444092 -0.13142395 0.6552124 -0.3942871 0.872345c-0.39071655 0.31015015 -0.9732666 0.46524048 -1.7476044 0.46524048c-0.7033081 0 -1.2503357 -0.16412354 -1.6410675 -0.49240112c-0.39071655 -0.33084106 -0.6500244 -0.81417847 -0.77789307 -1.4500122l-3.0050507 0.5001526c0.2770691 1.1708679 0.8643341 2.0974731 1.7618256 2.7798157c0.89985657 0.68237305 2.1205902 1.0235596 3.6621857 1.0235596c1.697876 0 2.9801788 -0.4071045 3.846878 -1.221283c0.8666992 -0.81417847 1.3000641 -1.7872925 1.3000641 -2.919403c0 -1.039032 -0.31259155 -1.8493347 -0.93774414 -2.4308777c-0.63227844 -0.573822 -1.7464447 -1.0584412 -3.3424988 -1.4538879c-1.593689 -0.3954773 -2.5255127 -0.7017517 -2.7954712 -0.91885376c-0.19891357 -0.1628418 -0.29838562 -0.3605652 -0.29838562 -0.5932007c0 -0.27139282 0.11367798 -0.4923706 0.34100342 -0.66296387c0.34100342 -0.24038696 0.905777 -0.3605652 1.6943359 -0.3605652c0.62516785 0 1.1058807 0.12792969 1.4421387 0.38381958c0.33862305 0.2558899 0.56832886 0.62420654 0.6891022 1.10495l2.823883 -0.5699158c-0.28416443 -1.0778198 -0.8027649 -1.8919983 -1.5558014 -2.4425354c-0.7530365 -0.5505371 -1.9039001 -0.82580566 -3.4526062 -0.82580566z" fill-rule="evenodd"/><path fill="#c9daf8" d="m44.92651 135.2441l0 0c0 -10.462967 8.947254 -18.944885 19.98425 -18.944885l0 0c5.3001556 0 10.3832245 1.9959793 14.131004 5.548828c3.7477722 3.5528564 5.8532486 8.371567 5.8532486 13.396057l0 0c0 10.462967 -8.94725 18.944885 -19.984253 18.944885l0 0c-11.036995 0 -19.98425 -8.481918 -19.98425 -18.944885z" fill-rule="evenodd"/><path stroke="#3c78d8" stroke-width="2.0" stroke-linejoin="round" stroke-linecap="butt" d="m44.92651 135.2441l0 0c0 -10.462967 8.947254 -18.944885 19.98425 -18.944885l0 0c5.3001556 0 10.3832245 1.9959793 14.131004 5.548828c3.7477722 3.5528564 5.8532486 8.371567 5.8532486 13.396057l0 0c0 10.462967 -8.94725 18.944885 -19.984253 18.944885l0 0c-11.036995 0 -19.98425 -8.481918 -19.98425 -18.944885z" fill-rule="evenodd"/><path fill="#000000" fill-opacity="0.0" d="m84.89501 135.2441l32.443542 0l0 0.06298828l32.438347 0" fill-rule="evenodd"/><path stroke="#b6d7a8" stroke-width="2.0" stroke-linejoin="round" stroke-linecap="butt" d="m84.89501 135.2441l32.443542 0l0 0.06298828l20.438347 0" fill-rule="evenodd"/><path fill="#b6d7a8" stroke="#b6d7a8" stroke-width="2.0" stroke-linecap="butt" d="m137.7769 138.61055l9.076202 -3.3034668l-9.076202 -3.3034668z" fill-rule="evenodd"/><path fill="#d9d9d9" d="m74.134346 461.85416c-0.48308563 0 -0.9152527 0.13180542 -1.2965088 0.39544678c-0.37888336 0.26364136 -0.8063202 0.81030273 -1.2822952 1.6399841l0 -1.7562866l-2.7812653 0l0 12.352203l2.9943924 0l0 -3.8150024c0 -2.1013489 0.08287811 -3.4815674 0.24864197 -4.1406555c0.1681366 -0.65908813 0.39783478 -1.1140137 0.6891022 -1.3647156c0.2912674 -0.2532959 0.64647675 -0.37994385 1.0656204 -0.37994385c0.4333496 0 0.9022217 0.17834473 1.4066162 0.5350342l0.9270859 -2.8496094c-0.6322632 -0.41098022 -1.2893982 -0.6164551 -1.9713898 -0.6164551z" fill-rule="evenodd"/><path fill="#d9d9d9" d="m81.89205 464.35483c0.6109543 0 1.1295547 0.24685669 1.5558014 0.74050903c0.42625427 0.49108887 0.65003204 1.2096558 0.67134094 2.1556396l-4.475601 0c-0.0071029663 -0.89172363 0.20246887 -1.5973511 0.6287155 -2.1168518c0.42624664 -0.51953125 0.96616364 -0.7792969 1.6197433 -0.7792969zm-0.18115234 -2.5006714c-1.4989777 0 -2.7386475 0.58026123 -3.719017 1.7407837c-0.98036957 1.1579285 -1.4705505 2.760437 -1.4705505 4.8075256c0 1.713623 0.37296295 3.1326294 1.1188965 4.256958c0.94485474 1.4035034 2.4011993 2.1052246 4.3690414 2.1052246c1.2432251 0 2.278061 -0.31143188 3.1045074 -0.9343567c0.82881165 -0.6254883 1.4350281 -1.5353088 1.8186569 -2.7294312l-2.9837341 -0.5466614c-0.16339874 0.6203308 -0.40493774 1.0700684 -0.72462463 1.3492126c-0.3196869 0.2791443 -0.71396637 0.4187317 -1.1828384 0.4187317c-0.6891022 0 -1.264534 -0.26882935 -1.7263031 -0.806427c-0.4617691 -0.54022217 -0.7033081 -1.2949219 -0.724617 -2.2641907l7.5019608 0c0.042625427 -2.5045776 -0.42269897 -4.3629456 -1.3959656 -5.575165c-0.9732666 -1.2148132 -2.301735 -1.8222046 -3.9854126 -1.8222046z" fill-rule="evenodd"/><path fill="#d9d9d9" d="m94.95654 464.43625c0.7033081 0 1.2929535 0.3140564 1.7689285 0.94210815c0.47598267 0.6280823 0.71396637 1.5895996 0.71396637 2.8845215c0 1.38797 -0.23088074 2.386963 -0.69264984 2.9969482c-0.4617691 0.60739136 -1.0407562 0.9111023 -1.7369614 0.9111023c-0.72462463 0 -1.3391266 -0.33084106 -1.8435211 -0.9925232c-0.50439453 -0.6642761 -0.7565918 -1.6903992 -0.7565918 -3.0783691c0 -1.2096252 0.241539 -2.1220093 0.72462463 -2.7371826c0.483078 -0.6177368 1.0904846 -0.9266052 1.8222046 -0.9266052zm0.8098755 -2.5820923c-0.7530365 0 -1.438591 0.19384766 -2.0566483 0.58154297c-0.61805725 0.3876953 -1.1082458 0.89172363 -1.4705505 1.5120544l0 -1.8144531l-2.7919235 0l0 17.051178l2.9943848 0l0 -6.2226257c0.5612259 0.65908813 1.0952225 1.1243286 1.6019821 1.3957214c0.5091324 0.27139282 1.0762787 0.40707397 1.7014389 0.40707397c1.3142624 0 2.4331665 -0.5711975 3.3567047 -1.713623c0.9235382 -1.1450195 1.3853073 -2.7488403 1.3853073 -4.8114014c0 -2.0083008 -0.45822144 -3.5746155 -1.374649 -4.6989746c-0.91643524 -1.1243286 -2.031784 -1.6864929 -3.3460464 -1.6864929z" fill-rule="evenodd"/><path fill="#d9d9d9" d="m107.36036 464.35483c0.6109543 0 1.1295547 0.24685669 1.5558014 0.74050903c0.42624664 0.49108887 0.6500244 1.2096558 0.67134094 2.1556396l-4.475601 0c-0.0071029663 -0.89172363 0.20246887 -1.5973511 0.6287155 -2.1168518c0.42624664 -0.51953125 0.966156 -0.7792969 1.6197433 -0.7792969zm-0.18115997 -2.5006714c-1.49897 0 -2.7386398 0.58026123 -3.7190094 1.7407837c-0.98036957 1.1579285 -1.4705582 2.760437 -1.4705582 4.8075256c0 1.713623 0.37297058 3.1326294 1.1189041 4.256958c0.9448471 1.4035034 2.4011917 2.1052246 4.3690414 2.1052246c1.2432175 0 2.2780533 -0.31143188 3.1044998 -0.9343567c0.8288193 -0.6254883 1.4350357 -1.5353088 1.8186569 -2.7294312l-2.9837341 -0.5466614c-0.16339111 0.6203308 -0.40493774 1.0700684 -0.724617 1.3492126c-0.3196869 0.2791443 -0.71396637 0.4187317 -1.1828384 0.4187317c-0.6891022 0 -1.264534 -0.26882935 -1.7263031 -0.806427c-0.4617691 -0.54022217 -0.7033081 -1.2949219 -0.72462463 -2.2641907l7.5019608 0c0.042625427 -2.5045776 -0.42269135 -4.3629456 -1.395958 -5.575165c-0.9732666 -1.2148132 -2.3017426 -1.8222046 -3.9854202 -1.8222046z" fill-rule="evenodd"/><path fill="#d9d9d9" d="m121.24538 468.55365l0 0.65133667c0 0.7831726 -0.03907013 1.314331 -0.11721802 1.5934753c-0.11367035 0.42648315 -0.35165405 0.7870178 -0.71396637 1.0816956c-0.49018097 0.3876953 -1.0052338 0.58154297 -1.5451508 0.58154297c-0.483078 0 -0.88090515 -0.16671753 -1.1934891 -0.5001221c-0.31258392 -0.33343506 -0.46887207 -0.72888184 -0.46887207 -1.1863708c0 -0.465271 0.19535828 -0.8490906 0.5860901 -1.1514893c0.25574493 -0.18609619 0.7992172 -0.37606812 1.630394 -0.5699158c0.8311844 -0.19384766 1.438591 -0.3605652 1.8222122 -0.5001526zm-1.8222122 -6.6994934c-1.4705505 0 -2.5787964 0.28689575 -3.32473 0.86068726c-0.74593353 0.5737915 -1.271637 1.4577637 -1.5771179 2.651886l2.717331 0.5350342c0.18470764 -0.5737915 0.42624664 -0.97442627 0.72462463 -1.2018738c0.29837036 -0.2300415 0.71395874 -0.34506226 1.2467728 -0.34506226c0.78855896 0 1.3249207 0.13439941 1.6090851 0.40322876c0.28416443 0.26620483 0.42624664 0.7133484 0.42624664 1.3414307l0 0.3256836c-0.539917 0.24813843 -1.5096283 0.5156555 -2.9091415 0.80255127c-1.0372009 0.21710205 -1.8316803 0.4716797 -2.383438 0.7637634c-0.5493851 0.28948975 -0.97681427 0.7081909 -1.2822952 1.2561646c-0.30547333 0.5453491 -0.4582138 1.1669922 -0.4582138 1.8648376c0 1.0545654 0.33507538 1.9268799 1.0052338 2.6170044c0.6725235 0.6901245 1.5913239 1.0351562 2.756401 1.0351562c0.6606827 0 1.2822952 -0.13568115 1.8648376 -0.40707397c0.5825348 -0.27139282 1.1295547 -0.6784973 1.6410522 -1.221283c0.021308899 0.062042236 0.05683136 0.19000244 0.10655975 0.3838501c0.11367035 0.42645264 0.20957184 0.7482605 0.28771973 0.96536255l2.9624252 0c-0.26285553 -0.58929443 -0.44282532 -1.1411438 -0.539917 -1.6554871c-0.09471893 -0.51693726 -0.14208221 -1.3181763 -0.14208221 -2.4037476l0.031967163 -3.8150024c0 -1.4190063 -0.13379669 -2.3934326 -0.40138245 -2.9232788c-0.26522064 -0.5324402 -0.72462463 -0.97055054 -1.3782043 -1.314331c-0.6535797 -0.346344 -1.6481552 -0.51950073 -2.9837341 -0.51950073z" fill-rule="evenodd"/><path fill="#d9d9d9" d="m130.28183 457.77164l-3.0050507 1.9075012l0 2.4541626l-1.374649 0l0 2.6053467l1.374649 0l0 5.385193c0 1.155365 0.031974792 1.9230347 0.09590912 2.3029785c0.07814789 0.5350342 0.21785736 0.9602051 0.41914368 1.2755432c0.20365143 0.31274414 0.52214813 0.56863403 0.95549774 0.76763916c0.43336487 0.19644165 0.91999817 0.29464722 1.4598999 0.29464722c0.8809204 0 1.6694794 -0.16281128 2.3656769 -0.48849487l-0.2557373 -2.5355835c-0.52571106 0.20935059 -0.9270935 0.3140564 -1.2041626 0.3140564c-0.19891357 0 -0.3682251 -0.05429077 -0.5079346 -0.1628418c-0.13735962 -0.108551025 -0.22615051 -0.24554443 -0.2664032 -0.41098022c-0.037902832 -0.16799927 -0.05683899 -0.75601196 -0.05683899 -1.7640381l0 -4.978119l2.04599 0l0 -2.6053467l-2.04599 0l0 -4.361664z" fill-rule="evenodd"/></g></svg>