<svg version="1.1" viewBox="0.0 0.0 480.0 480.0" fill="none" stroke="none" stroke-linecap="square" stroke-miterlimit="10" xmlns:xlink="http://www.w3.org/1999/xlink" xmlns="http://www.w3.org/2000/svg"><clipPath id="p.0"><path d="m0 0l480.0 0l0 480.0l-480.0 0l0 -480.0z" clip-rule="nonzero"/></clipPath><g clip-path="url(#p.0)"><path fill="#000000" fill-opacity="0.0" d="m0 0l480.0 0l0 480.0l-480.0 0z" fill-rule="evenodd"/><path fill="#434343" d="m0 -0.7769029l478.04724 0l0 480.0l-478.04724 0z" fill-rule="evenodd"/><path fill="#f9cb9c" d="m137.79504 56.831932l209.34833 0l0 43.651176l-209.34833 0z" fill-rule="evenodd"/><path fill="#000000" fill-opacity="0.0" d="m163.96358 56.831932l0 43.651176m157.01125 -43.651176l0 43.651176" fill-rule="evenodd"/><path fill="#000000" fill-opacity="0.0" d="m137.79504 56.831932l209.34833 0l0 43.651176l-209.34833 0z" fill-rule="evenodd"/><path stroke="#e69138" stroke-width="2.0" stroke-linejoin="round" stroke-linecap="butt" d="m163.96358 56.831932l0 43.651176m157.01125 -43.651176l0 43.651176" fill-rule="evenodd"/><path stroke="#e69138" stroke-width="2.0" stroke-linejoin="round" stroke-linecap="butt" d="m137.79504 56.831932l209.34833 0l0 43.651176l-209.34833 0z" fill-rule="evenodd"/><path fill="#000000" d="m188.2313 85.577515l0 -9.671875l1.46875 0l0 1.359375q0.453125 -0.71875 1.203125 -1.140625q0.765625 -0.4375 1.71875 -0.4375q1.078125 0 1.765625 0.453125q0.6875 0.4375 0.96875 1.234375q1.15625 -1.6875 2.984375 -1.6875q1.453125 0 2.21875 0.796875q0.78125 0.796875 0.78125 2.453125l0 6.640625l-1.640625 0l0 -6.09375q0 -0.984375 -0.15625 -1.40625q-0.15625 -0.4375 -0.578125 -0.703125q-0.421875 -0.265625 -0.984375 -0.265625q-1.015625 0 -1.6875 0.6875q-0.671875 0.671875 -0.671875 2.15625l0 5.625l-1.640625 0l0 -6.28125q0 -1.09375 -0.40625 -1.640625q-0.40625 -0.546875 -1.3125 -0.546875q-0.6875 0 -1.28125 0.359375q-0.59375 0.359375 -0.859375 1.0625q-0.25 0.703125 -0.25 2.03125l0 5.015625l-1.640625 0zm21.853302 -1.1875q-0.921875 0.765625 -1.765625 1.09375q-0.828125 0.3125 -1.796875 0.3125q-1.59375 0 -2.453125 -0.78125q-0.859375 -0.78125 -0.859375 -1.984375q0 -0.71875 0.328125 -1.296875q0.328125 -0.59375 0.84375 -0.9375q0.53125 -0.359375 1.1875 -0.546875q0.46875 -0.125 1.453125 -0.25q1.984375 -0.234375 2.921875 -0.5625q0.015625 -0.34375 0.015625 -0.421875q0 -1.0 -0.46875 -1.421875q-0.625 -0.546875 -1.875 -0.546875q-1.15625 0 -1.703125 0.40625q-0.546875 0.40625 -0.8125 1.421875l-1.609375 -0.21875q0.21875 -1.015625 0.71875 -1.640625q0.5 -0.640625 1.453125 -0.984375q0.953125 -0.34375 2.1875 -0.34375q1.25 0 2.015625 0.296875q0.78125 0.28125 1.140625 0.734375q0.375 0.4375 0.515625 1.109375q0.078125 0.421875 0.078125 1.515625l0 2.1875q0 2.28125 0.109375 2.890625q0.109375 0.59375 0.40625 1.15625l-1.703125 0q-0.265625 -0.515625 -0.328125 -1.1875zm-0.140625 -3.671875q-0.890625 0.375 -2.671875 0.625q-1.015625 0.140625 -1.4375 0.328125q-0.421875 0.1875 -0.65625 0.53125q-0.21875 0.34375 -0.21875 0.78125q0 0.65625 0.5 1.09375q0.5 0.4375 1.453125 0.4375q0.9375 0 1.671875 -0.40625q0.75 -0.421875 1.09375 -1.140625q0.265625 -0.5625 0.265625 -1.640625l0 -0.609375zm4.203842 -6.609375l0 -1.890625l1.640625 0l0 1.890625l-1.640625 0zm0 11.46875l0 -9.671875l1.640625 0l0 9.671875l-1.640625 0zm4.144821 0l0 -9.671875l1.46875 0l0 1.375q1.0625 -1.59375 3.078125 -1.59375q0.875 0 1.609375 0.3125q0.734375 0.3125 1.09375 0.828125q0.375 0.5 0.515625 1.203125q0.09375 0.453125 0.09375 1.59375l0 5.953125l-1.640625 0l0 -5.890625q0 -1.0 -0.203125 -1.484375q-0.1875 -0.5 -0.671875 -0.796875q-0.484375 -0.296875 -1.140625 -0.296875q-1.046875 0 -1.8125 0.671875q-0.75 0.65625 -0.75 2.515625l0 5.28125l-1.640625 0zm15.559021 3.703125l0 -13.375l1.484375 0l0 1.25q0.53125 -0.734375 1.1875 -1.09375q0.671875 -0.375 1.625 -0.375q1.234375 0 2.171875 0.640625q0.953125 0.625 1.4375 1.796875q0.484375 1.15625 0.484375 2.546875q0 1.484375 -0.53125 2.671875q-0.53125 1.1875 -1.546875 1.828125q-1.015625 0.625 -2.140625 0.625q-0.8125 0 -1.46875 -0.34375q-0.65625 -0.34375 -1.0625 -0.875l0 4.703125l-1.640625 0zm1.484375 -8.484375q0 1.859375 0.75 2.765625q0.765625 0.890625 1.828125 0.890625q1.09375 0 1.875 -0.921875q0.78125 -0.9375 0.78125 -2.875q0 -1.84375 -0.765625 -2.765625q-0.75 -0.921875 -1.8125 -0.921875q-1.046875 0 -1.859375 0.984375q-0.796875 0.96875 -0.796875 2.84375zm8.875717 4.78125l0 -9.671875l1.46875 0l0 1.46875q0.5625 -1.03125 1.03125 -1.359375q0.484375 -0.328125 1.0625 -0.328125q0.828125 0 1.6875 0.53125l-0.5625 1.515625q-0.609375 -0.359375 -1.203125 -0.359375q-0.546875 0 -0.96875 0.328125q-0.421875 0.328125 -0.609375 0.890625q-0.28125 0.875 -0.28125 1.921875l0 5.0625l-1.625 0zm5.618927 -4.84375q0 -2.6875 1.484375 -3.96875q1.25 -1.078125 3.046875 -1.078125q2.0000153 0 3.2656403 1.3125q1.265625 1.296875 1.265625 3.609375q0 1.859375 -0.5625 2.9375q-0.5625 1.0625 -1.640625 1.65625q-1.0625153 0.59375 -2.3281403 0.59375q-2.03125 0 -3.28125 -1.296875q-1.25 -1.3125 -1.25 -3.765625zm1.6875 0q0 1.859375 0.796875 2.796875q0.8125 0.921875 2.046875 0.921875q1.21875 0 2.0312653 -0.921875q0.8125 -0.9375 0.8125 -2.84375q0 -1.796875 -0.8125 -2.71875q-0.81251526 -0.921875 -2.0312653 -0.921875q-1.234375 0 -2.046875 0.921875q-0.796875 0.90625 -0.796875 2.765625zm15.610092 1.296875l1.609375 0.21875q-0.265625 1.65625 -1.359375 2.609375q-1.078125 0.9375 -2.671875 0.9375q-1.984375 0 -3.1875 -1.296875q-1.203125 -1.296875 -1.203125 -3.71875q0 -1.578125 0.515625 -2.75q0.515625 -1.171875 1.578125 -1.75q1.0625 -0.59375 2.3125 -0.59375q1.578125 0 2.578125 0.796875q1.0 0.796875 1.28125 2.265625l-1.59375 0.234375q-0.234375 -0.96875 -0.8125 -1.453125q-0.578125 -0.5 -1.390625 -0.5q-1.234375 0 -2.015625 0.890625q-0.78125 0.890625 -0.78125 2.8125q0 1.953125 0.75 2.84375q0.75 0.875 1.953125 0.875q0.96875 0 1.609375 -0.59375q0.65625 -0.59375 0.828125 -1.828125zm9.640625 0.4375l1.6875 0.203125q-0.40625 1.484375 -1.484375 2.3125q-1.078125 0.8125 -2.765625 0.8125q-2.125 0 -3.375 -1.296875q-1.234375 -1.3125 -1.234375 -3.671875q0 -2.453125 1.25 -3.796875q1.265625 -1.34375 3.265625 -1.34375q1.9375 0 3.15625 1.328125q1.234375 1.3125 1.234375 3.703125q0 0.15625 0 0.4375l-7.21875 0q0.09375 1.59375 0.90625 2.453125q0.8125 0.84375 2.015625 0.84375q0.90625 0 1.546875 -0.46875q0.640625 -0.484375 1.015625 -1.515625zm-5.390625 -2.65625l5.40625 0q-0.109375 -1.21875 -0.625 -1.828125q-0.78125 -0.953125 -2.03125 -0.953125q-1.125 0 -1.90625 0.765625q-0.765625 0.75 -0.84375 2.015625zm8.485107 2.875l1.625 -0.25q0.125 0.96875 0.75 1.5q0.625 0.515625 1.75 0.515625q1.125 0 1.671875 -0.453125q0.546875 -0.46875 0.546875 -1.09375q0 -0.546875 -0.484375 -0.875q-0.328125 -0.21875 -1.671875 -0.546875q-1.8125 -0.46875 -2.515625 -0.796875q-0.6875 -0.328125 -1.046875 -0.90625q-0.359375 -0.59375 -0.359375 -1.3125q0 -0.640625 0.296875 -1.1875q0.296875 -0.5625 0.8125 -0.921875q0.375 -0.28125 1.03125 -0.46875q0.671875 -0.203125 1.421875 -0.203125q1.140625 0 2.0 0.328125q0.859375 0.328125 1.265625 0.890625q0.421875 0.5625 0.578125 1.5l-1.609375 0.21875q-0.109375 -0.75 -0.640625 -1.171875q-0.515625 -0.421875 -1.46875 -0.421875q-1.140625 0 -1.625 0.375q-0.46875 0.375 -0.46875 0.875q0 0.3125 0.1875 0.578125q0.203125 0.265625 0.640625 0.4375q0.234375 0.09375 1.4375 0.421875q1.75 0.453125 2.4375 0.75q0.6875 0.296875 1.078125 0.859375q0.390625 0.5625 0.390625 1.40625q0 0.828125 -0.484375 1.546875q-0.46875 0.71875 -1.375 1.125q-0.90625 0.390625 -2.046875 0.390625q-1.875 0 -2.875 -0.78125q-0.984375 -0.78125 -1.25 -2.328125zm9.328125 0l1.625 -0.25q0.125 0.96875 0.75 1.5q0.625 0.515625 1.75 0.515625q1.125 0 1.671875 -0.453125q0.546875 -0.46875 0.546875 -1.09375q0 -0.546875 -0.484375 -0.875q-0.328125 -0.21875 -1.671875 -0.546875q-1.8125 -0.46875 -2.515625 -0.796875q-0.6875 -0.328125 -1.046875 -0.90625q-0.359375 -0.59375 -0.359375 -1.3125q0 -0.640625 0.296875 -1.1875q0.296875 -0.5625 0.8125 -0.921875q0.375 -0.28125 1.03125 -0.46875q0.671875 -0.203125 1.421875 -0.203125q1.140625 0 2.0 0.328125q0.859375 0.328125 1.265625 0.890625q0.421875 0.5625 0.578125 1.5l-1.609375 0.21875q-0.109375 -0.75 -0.640625 -1.171875q-0.515625 -0.421875 -1.46875 -0.421875q-1.140625 0 -1.625 0.375q-0.46875 0.375 -0.46875 0.875q0 0.3125 0.1875 0.578125q0.203125 0.265625 0.640625 0.4375q0.234375 0.09375 1.4375 0.421875q1.75 0.453125 2.4375 0.75q0.6875 0.296875 1.078125 0.859375q0.390625 0.5625 0.390625 1.40625q0 0.828125 -0.484375 1.546875q-0.46875 0.71875 -1.375 1.125q-0.90625 0.390625 -2.046875 0.390625q-1.875 0 -2.875 -0.78125q-0.984375 -0.78125 -1.25 -2.328125z" fill-rule="nonzero"/><path fill="#cfe2f3" d="m208.65135 8.249344l67.69762 0l0 0c8.868561 0 16.057953 7.0918093 16.057953 15.84c0 8.748192 -7.189392 15.84 -16.057953 15.84l-67.69762 0l0 0c-8.868561 0 -16.057968 -7.0918083 -16.057968 -15.84c0 -8.748191 7.1894073 -15.84 16.057968 -15.84z" fill-rule="evenodd"/><path stroke="#6d9eeb" stroke-width="2.0" stroke-linejoin="round" stroke-linecap="butt" d="m208.65135 8.249344l67.69762 0l0 0c8.868561 0 16.057953 7.0918093 16.057953 15.84c0 8.748192 -7.189392 15.84 -16.057953 15.84l-67.69762 0l0 0c-8.868561 0 -16.057968 -7.0918083 -16.057968 -15.84c0 -8.748191 7.1894073 -15.84 16.057968 -15.84z" fill-rule="evenodd"/><path fill="#000000" d="m222.71913 28.243717l2.5625 -0.390625q0.171875 0.75 0.671875 1.140625q0.5 0.390625 1.40625 0.390625q0.984375 0 1.484375 -0.375q0.34375 -0.25 0.34375 -0.671875q0 -0.296875 -0.1875 -0.484375q-0.1875 -0.1875 -0.859375 -0.34375q-3.09375 -0.6875 -3.921875 -1.25q-1.140625 -0.78125 -1.140625 -2.171875q0 -1.265625 0.984375 -2.109375q1.0 -0.859375 3.078125 -0.859375q1.984375 0 2.953125 0.65625q0.96875 0.640625 1.328125 1.90625l-2.40625 0.4375q-0.15625 -0.5625 -0.59375 -0.859375q-0.421875 -0.296875 -1.234375 -0.296875q-1.0 0 -1.4375 0.28125q-0.296875 0.203125 -0.296875 0.515625q0 0.265625 0.25 0.46875q0.34375 0.25 2.390625 0.71875q2.046875 0.453125 2.859375 1.140625q0.796875 0.671875 0.796875 1.890625q0 1.34375 -1.109375 2.296875q-1.109375 0.953125 -3.28125 0.953125q-1.984375 0 -3.140625 -0.796875q-1.140625 -0.8125 -1.5 -2.1875zm15.719467 -6.90625l0 2.03125l-1.75 0l0 3.90625q0 1.1875 0.046875 1.390625q0.046875 0.1875 0.21875 0.3125q0.1875 0.125 0.4375 0.125q0.359375 0 1.03125 -0.25l0.21875 2.0q-0.890625 0.375 -2.015625 0.375q-0.703125 0 -1.265625 -0.234375q-0.546875 -0.234375 -0.8125 -0.59375q-0.25 -0.375 -0.34375 -1.0q-0.09375 -0.453125 -0.09375 -1.8125l0 -4.21875l-1.171875 0l0 -2.03125l1.171875 0l0 -1.921875l2.578125 -1.5l0 3.421875l1.75 0zm3.681427 2.953125l-2.328125 -0.421875q0.40625 -1.40625 1.359375 -2.078125q0.953125 -0.671875 2.84375 -0.671875q1.703125 0 2.546875 0.40625q0.84375 0.40625 1.171875 1.03125q0.34375 0.625 0.34375 2.28125l-0.015625 3.0q0 1.265625 0.109375 1.875q0.125 0.609375 0.46875 1.296875l-2.53125 0q-0.109375 -0.25 -0.25 -0.75q-0.0625 -0.234375 -0.09375 -0.3125q-0.65625 0.640625 -1.40625 0.96875q-0.734375 0.3125 -1.59375 0.3125q-1.484375 0 -2.34375 -0.8125q-0.859375 -0.8125 -0.859375 -2.046875q0 -0.828125 0.390625 -1.46875q0.390625 -0.640625 1.09375 -0.96875q0.703125 -0.34375 2.03125 -0.609375q1.796875 -0.328125 2.484375 -0.625l0 -0.25q0 -0.75 -0.359375 -1.0625q-0.359375 -0.3125 -1.375 -0.3125q-0.6875 0 -1.078125 0.28125q-0.375 0.265625 -0.609375 0.9375zm3.421875 2.078125q-0.484375 0.15625 -1.5625 0.390625q-1.0625 0.21875 -1.390625 0.4375q-0.5 0.359375 -0.5 0.90625q0 0.53125 0.40625 0.9375q0.40625 0.390625 1.015625 0.390625q0.703125 0 1.328125 -0.46875q0.46875 -0.34375 0.609375 -0.84375q0.09375 -0.328125 0.09375 -1.25l0 -0.5zm7.500717 4.640625l-2.5625 0l0 -9.671875l2.375 0l0 1.375q0.609375 -0.984375 1.09375 -1.28125q0.484375 -0.3125 1.109375 -0.3125q0.875 0 1.6875153 0.484375l-0.79689026 2.234375q-0.640625 -0.421875 -1.203125 -0.421875q-0.53125 0 -0.90625 0.296875q-0.375 0.296875 -0.59375 1.078125q-0.203125 0.765625 -0.203125 3.234375l0 2.984375zm9.244644 -9.671875l0 2.03125l-1.75 0l0 3.90625q0 1.1875 0.046875 1.390625q0.046875 0.1875 0.21875 0.3125q0.1875 0.125 0.4375 0.125q0.359375 0 1.03125 -0.25l0.21875 2.0q-0.890625 0.375 -2.015625 0.375q-0.703125 0 -1.265625 -0.234375q-0.546875 -0.234375 -0.8125 -0.59375q-0.25 -0.375 -0.34375 -1.0q-0.09375 -0.453125 -0.09375 -1.8125l0 -4.21875l-1.171875 0l0 -2.03125l1.171875 0l0 -1.921875l2.578125 -1.5l0 3.421875l1.75 0z" fill-rule="nonzero"/><path fill="#ffe599" d="m126.91863 206.09448l0 130.40158l-59.286087 0l0 -130.40158z" fill-rule="evenodd"/><path fill="#000000" fill-opacity="0.0" d="m126.91863 222.39468l-59.286087 0m59.286087 97.80118l-59.286087 0" fill-rule="evenodd"/><path fill="#000000" fill-opacity="0.0" d="m126.91863 206.09448l0 130.40158l-59.286087 0l0 -130.40158z" fill-rule="evenodd"/><path stroke="#e69138" stroke-width="2.0" stroke-linejoin="round" stroke-linecap="butt" d="m126.91863 222.39468l-59.286087 0m59.286087 97.80118l-59.286087 0" fill-rule="evenodd"/><path stroke="#e69138" stroke-width="2.0" stroke-linejoin="round" stroke-linecap="butt" d="m126.91863 206.09448l0 130.40158l-59.286087 0l0 -130.40158z" fill-rule="evenodd"/><path fill="#000000" d="m104.902466 259.65756l-0.21875 1.609375q-1.65625 -0.265625 -2.609375 -1.359375q-0.9375 -1.078125 -0.9375 -2.671875q0 -1.9843903 1.296875 -3.1875153q1.296875 -1.203125 3.71875 -1.203125q1.578125 0 2.75 0.515625q1.171875 0.515625 1.75 1.578125q0.59375 1.0625153 0.59375 2.3125153q0 1.578125 -0.796875 2.578125q-0.796875 1.0 -2.265625 1.28125l-0.234375 -1.59375q0.96875 -0.234375 1.453125 -0.8125q0.5 -0.578125 0.5 -1.390625q0 -1.234375 -0.890625 -2.0156403q-0.890625 -0.78125 -2.8125 -0.78125q-1.953125 0 -2.84375 0.75q-0.875 0.75001526 -0.875 1.9531403q0 0.96875 0.59375 1.609375q0.59375 0.65625 1.828125 0.828125zm-3.546875 3.015625l13.359375 0l0 1.640625l-4.796875 0q1.328125 1.140625 1.328125 2.890625q0 1.078125 -0.421875 1.859375q-0.421875 0.796875 -1.171875 1.140625q-0.75 0.34375 -2.171875 0.34375l-6.125 0l0 -1.640625l6.125 0q1.234375 0 1.796875 -0.53125q0.5625 -0.53125 0.5625 -1.515625q0 -0.71875 -0.390625 -1.359375q-0.375 -0.640625 -1.015625 -0.921875q-0.640625 -0.265625 -1.78125 -0.265625l-5.296875 0l0 -1.640625zm11.46875 10.375702l1.890625 0l0 1.640625l-1.890625 0l0 -1.640625zm-11.46875 0l9.671875 0l0 1.640625l-9.671875 0l0 -1.640625zm0 4.0979614l13.359375 0l0 1.640625l-13.359375 0l0 -1.640625zm0 10.457306l1.21875 0q-1.4375 -0.90625 -1.4375 -2.703125q0 -1.15625 0.640625 -2.125q0.640625 -0.96875 1.78125 -1.5q1.140625 -0.53125 2.625 -0.53125q1.453125 0 2.625 0.484375q1.1875 0.484375 1.8125 1.4375q0.625 0.96875 0.625 2.171875q0 0.875 -0.375 1.546875q-0.359375 0.6875 -0.953125 1.109375l4.796875 0l0 1.640625l-13.359375 0l0 -1.53125zm4.828125 -5.171875q-1.859375 0 -2.78125 0.78125q-0.921875 0.78125 -0.921875 1.84375q0 1.078125 0.875 1.828125q0.890625 0.75 2.6875 0.75q1.984375 0 2.90625 -0.765625q0.9375 -0.765625 0.9375 -1.890625q0 -1.078125 -0.890625 -1.8125q-0.890625 -0.734375 -2.8125 -0.734375z" fill-rule="nonzero"/><path fill="#000000" d="m75.652466 239.86755l13.375 0l0 1.484375l-1.25 0q0.734375 0.53125 1.09375 1.1875q0.375 0.671875 0.375 1.625q0 1.234375 -0.640625 2.171875q-0.625 0.953125 -1.796875 1.4375q-1.15625 0.484375 -2.546875 0.484375q-1.484375 0 -2.671875 -0.53125q-1.1875 -0.53125 -1.828125 -1.546875q-0.625 -1.015625 -0.625 -2.140625q0 -0.8125 0.34375 -1.46875q0.34375 -0.65625 0.875 -1.0625l-4.703125 0l0 -1.640625zm8.484375 1.484375q-1.859375 0 -2.765625 0.75q-0.890625 0.765625 -0.890625 1.828125q0 1.09375 0.921875 1.875q0.9375 0.78125 2.875 0.78125q1.84375 0 2.765625 -0.765625q0.921875 -0.75 0.921875 -1.8125q0 -1.046875 -0.984375 -1.859375q-0.96875 -0.796875 -2.84375 -0.796875zm-4.78125 8.875717l9.671875 0l0 1.46875l-1.46875 0q1.03125 0.5625 1.359375 1.03125q0.328125 0.484375 0.328125 1.0625q0 0.828125 -0.53125 1.6875l-1.515625 -0.5625q0.359375 -0.609375 0.359375 -1.203125q0 -0.546875 -0.328125 -0.96875q-0.328125 -0.421875 -0.890625 -0.609375q-0.875 -0.28125 -1.921875 -0.28125l-5.0625 0l0 -1.625zm4.84375 5.618927q2.6875 0 3.96875 1.4843597q1.078125 1.25 1.078125 3.046875q0 2.0 -1.3125 3.265625q-1.296875 1.265625 -3.609375 1.265625q-1.859375 0 -2.9375 -0.5625q-1.0625 -0.5625 -1.65625 -1.640625q-0.59375 -1.0625 -0.59375 -2.328125q0 -2.03125 1.296875 -3.28125q1.3125 -1.2499847 3.765625 -1.2499847zm0 1.6874847q-1.859375 0 -2.796875 0.796875q-0.921875 0.8125 -0.921875 2.046875q0 1.21875 0.921875 2.03125q0.9375 0.8125 2.84375 0.8125q1.796875 0 2.71875 -0.8125q0.921875 -0.8125 0.921875 -2.03125q0 -1.234375 -0.921875 -2.046875q-0.90625 -0.796875 -2.765625 -0.796875zm-1.296875 15.610107l-0.21875 1.609375q-1.65625 -0.265625 -2.609375 -1.359375q-0.9375 -1.078125 -0.9375 -2.671875q0 -1.984375 1.296875 -3.1875q1.296875 -1.203125 3.71875 -1.203125q1.578125 0 2.75 0.515625q1.171875 0.515625 1.75 1.578125q0.59375 1.0625 0.59375 2.3125q0 1.578125 -0.796875 2.578125q-0.796875 1.0 -2.265625 1.28125l-0.234375 -1.59375q0.96875 -0.234375 1.453125 -0.8125q0.5 -0.578125 0.5 -1.390625q0 -1.234375 -0.890625 -2.015625q-0.890625 -0.78125 -2.8125 -0.78125q-1.953125 0 -2.84375 0.75q-0.875 0.75 -0.875 1.953125q0 0.96875 0.59375 1.609375q0.59375 0.65625 1.828125 0.828125zm-0.4375 9.640625l-0.203125 1.6875q-1.484375 -0.40625 -2.3125 -1.484375q-0.8125 -1.078125 -0.8125 -2.765625q0 -2.125 1.296875 -3.375q1.3125 -1.234375 3.671875 -1.234375q2.453125 0 3.796875 1.25q1.34375 1.265625 1.34375 3.265625q0 1.9375 -1.328125 3.15625q-1.3125 1.234375 -3.703125 1.234375q-0.15625 0 -0.4375 0l0 -7.21875q-1.59375 0.09375 -2.453125 0.90625q-0.84375 0.8125 -0.84375 2.015625q0 0.90625 0.46875 1.546875q0.484375 0.640625 1.515625 1.015625zm2.65625 -5.390625l0 5.40625q1.21875 -0.109375 1.828125 -0.625q0.953125 -0.78125 0.953125 -2.03125q0 -1.125 -0.765625 -1.90625q-0.75 -0.765625 -2.015625 -0.84375zm-2.875 8.485077l0.25 1.625q-0.96875 0.125 -1.5 0.75q-0.515625 0.625 -0.515625 1.75q0 1.125 0.453125 1.671875q0.46875 0.546875 1.09375 0.546875q0.546875 0 0.875 -0.484375q0.21875 -0.328125 0.546875 -1.671875q0.46875 -1.8125 0.796875 -2.515625q0.328125 -0.6875 0.90625 -1.046875q0.59375 -0.359375 1.3125 -0.359375q0.640625 0 1.1875 0.296875q0.5625 0.296875 0.921875 0.8125q0.28125 0.375 0.46875 1.03125q0.203125 0.671875 0.203125 1.421875q0 1.140625 -0.328125 2.0q-0.328125 0.859375 -0.890625 1.265625q-0.5625 0.421875 -1.5 0.578125l-0.21875 -1.609375q0.75 -0.109375 1.171875 -0.640625q0.421875 -0.515625 0.421875 -1.46875q0 -1.140625 -0.375 -1.625q-0.375 -0.46875 -0.875 -0.46875q-0.3125 0 -0.578125 0.1875q-0.265625 0.203125 -0.4375 0.640625q-0.09375 0.234375 -0.421875 1.4375q-0.453125 1.75 -0.75 2.4375q-0.296875 0.6875 -0.859375 1.078125q-0.5625 0.390625 -1.40625 0.390625q-0.828125 0 -1.546875 -0.484375q-0.71875 -0.46875 -1.125 -1.375q-0.390625 -0.90625 -0.390625 -2.046875q0 -1.875 0.78125 -2.875q0.78125 -0.984375 2.328125 -1.25zm0 9.328125l0.25 1.625q-0.96875 0.125 -1.5 0.75q-0.515625 0.625 -0.515625 1.75q0 1.125 0.453125 1.671875q0.46875 0.546875 1.09375 0.546875q0.546875 0 0.875 -0.484375q0.21875 -0.328125 0.546875 -1.671875q0.46875 -1.8125 0.796875 -2.515625q0.328125 -0.6875 0.90625 -1.046875q0.59375 -0.359375 1.3125 -0.359375q0.640625 0 1.1875 0.296875q0.5625 0.296875 0.921875 0.8125q0.28125 0.375 0.46875 1.03125q0.203125 0.671875 0.203125 1.421875q0 1.140625 -0.328125 2.0q-0.328125 0.859375 -0.890625 1.265625q-0.5625 0.421875 -1.5 0.578125l-0.21875 -1.609375q0.75 -0.109375 1.171875 -0.640625q0.421875 -0.515625 0.421875 -1.46875q0 -1.140625 -0.375 -1.625q-0.375 -0.46875 -0.875 -0.46875q-0.3125 0 -0.578125 0.1875q-0.265625 0.203125 -0.4375 0.640625q-0.09375 0.234375 -0.421875 1.4375q-0.453125 1.75 -0.75 2.4375q-0.296875 0.6875 -0.859375 1.078125q-0.5625 0.390625 -1.40625 0.390625q-0.828125 0 -1.546875 -0.484375q-0.71875 -0.46875 -1.125 -1.375q-0.390625 -0.90625 -0.390625 -2.046875q0 -1.875 0.78125 -2.875q0.78125 -0.984375 2.328125 -1.25z" fill-rule="nonzero"/><path fill="#ffe599" d="m223.45932 206.09448l0 130.40158l-64.3307 0l0 -130.40158z" fill-rule="evenodd"/><path fill="#000000" fill-opacity="0.0" d="m223.45932 222.39468l-64.3307 0m64.3307 97.80118l-64.3307 0" fill-rule="evenodd"/><path fill="#000000" fill-opacity="0.0" d="m223.45932 206.09448l0 130.40158l-64.3307 0l0 -130.40158z" fill-rule="evenodd"/><path stroke="#e69138" stroke-width="2.0" stroke-linejoin="round" stroke-linecap="butt" d="m223.45932 222.39468l-64.3307 0m64.3307 97.80118l-64.3307 0" fill-rule="evenodd"/><path stroke="#e69138" stroke-width="2.0" stroke-linejoin="round" stroke-linecap="butt" d="m223.45932 206.09448l0 130.40158l-64.3307 0l0 -130.40158z" fill-rule="evenodd"/><path fill="#000000" d="m198.92084 259.65756l-0.21875 1.609375q-1.65625 -0.265625 -2.609375 -1.359375q-0.9375 -1.078125 -0.9375 -2.671875q0 -1.9843903 1.296875 -3.1875153q1.296875 -1.203125 3.71875 -1.203125q1.578125 0 2.75 0.515625q1.171875 0.515625 1.75 1.578125q0.59375 1.0625153 0.59375 2.3125153q0 1.578125 -0.796875 2.578125q-0.796875 1.0 -2.265625 1.28125l-0.234375 -1.59375q0.96875 -0.234375 1.453125 -0.8125q0.5 -0.578125 0.5 -1.390625q0 -1.234375 -0.890625 -2.0156403q-0.890625 -0.78125 -2.8125 -0.78125q-1.953125 0 -2.84375 0.75q-0.875 0.75001526 -0.875 1.9531403q0 0.96875 0.59375 1.609375q0.59375 0.65625 1.828125 0.828125zm-3.546875 3.015625l13.359375 0l0 1.640625l-4.796875 0q1.328125 1.140625 1.328125 2.890625q0 1.078125 -0.421875 1.859375q-0.421875 0.796875 -1.171875 1.140625q-0.75 0.34375 -2.171875 0.34375l-6.125 0l0 -1.640625l6.125 0q1.234375 0 1.796875 -0.53125q0.5625 -0.53125 0.5625 -1.515625q0 -0.71875 -0.390625 -1.359375q-0.375 -0.640625 -1.015625 -0.921875q-0.640625 -0.265625 -1.78125 -0.265625l-5.296875 0l0 -1.640625zm11.46875 10.375702l1.890625 0l0 1.640625l-1.890625 0l0 -1.640625zm-11.46875 0l9.671875 0l0 1.640625l-9.671875 0l0 -1.640625zm0 4.0979614l13.359375 0l0 1.640625l-13.359375 0l0 -1.640625zm0 10.457306l1.21875 0q-1.4375 -0.90625 -1.4375 -2.703125q0 -1.15625 0.640625 -2.125q0.640625 -0.96875 1.78125 -1.5q1.140625 -0.53125 2.625 -0.53125q1.453125 0 2.625 0.484375q1.1875 0.484375 1.8125 1.4375q0.625 0.96875 0.625 2.171875q0 0.875 -0.375 1.546875q-0.359375 0.6875 -0.953125 1.109375l4.796875 0l0 1.640625l-13.359375 0l0 -1.53125zm4.828125 -5.171875q-1.859375 0 -2.78125 0.78125q-0.921875 0.78125 -0.921875 1.84375q0 1.078125 0.875 1.828125q0.890625 0.75 2.6875 0.75q1.984375 0 2.90625 -0.765625q0.9375 -0.765625 0.9375 -1.890625q0 -1.078125 -0.890625 -1.8125q-0.890625 -0.734375 -2.8125 -0.734375z" fill-rule="nonzero"/><path fill="#000000" d="m169.67084 239.86755l13.375 0l0 1.484375l-1.25 0q0.734375 0.53125 1.09375 1.1875q0.375 0.671875 0.375 1.625q0 1.234375 -0.640625 2.171875q-0.625 0.953125 -1.796875 1.4375q-1.15625 0.484375 -2.546875 0.484375q-1.484375 0 -2.671875 -0.53125q-1.1875 -0.53125 -1.828125 -1.546875q-0.625 -1.015625 -0.625 -2.140625q0 -0.8125 0.34375 -1.46875q0.34375 -0.65625 0.875 -1.0625l-4.703125 0l0 -1.640625zm8.484375 1.484375q-1.859375 0 -2.765625 0.75q-0.890625 0.765625 -0.890625 1.828125q0 1.09375 0.921875 1.875q0.9375 0.78125 2.875 0.78125q1.84375 0 2.765625 -0.765625q0.921875 -0.75 0.921875 -1.8125q0 -1.046875 -0.984375 -1.859375q-0.96875 -0.796875 -2.84375 -0.796875zm-4.78125 8.875717l9.671875 0l0 1.46875l-1.46875 0q1.03125 0.5625 1.359375 1.03125q0.328125 0.484375 0.328125 1.0625q0 0.828125 -0.53125 1.6875l-1.515625 -0.5625q0.359375 -0.609375 0.359375 -1.203125q0 -0.546875 -0.328125 -0.96875q-0.328125 -0.421875 -0.890625 -0.609375q-0.875 -0.28125 -1.921875 -0.28125l-5.0625 0l0 -1.625zm4.84375 5.618927q2.6875 0 3.96875 1.4843597q1.078125 1.25 1.078125 3.046875q0 2.0 -1.3125 3.265625q-1.296875 1.265625 -3.609375 1.265625q-1.859375 0 -2.9375 -0.5625q-1.0625 -0.5625 -1.65625 -1.640625q-0.59375 -1.0625 -0.59375 -2.328125q0 -2.03125 1.296875 -3.28125q1.3125 -1.2499847 3.765625 -1.2499847zm0 1.6874847q-1.859375 0 -2.796875 0.796875q-0.921875 0.8125 -0.921875 2.046875q0 1.21875 0.921875 2.03125q0.9375 0.8125 2.84375 0.8125q1.796875 0 2.71875 -0.8125q0.921875 -0.8125 0.921875 -2.03125q0 -1.234375 -0.921875 -2.046875q-0.90625 -0.796875 -2.765625 -0.796875zm-1.296875 15.610107l-0.21875 1.609375q-1.65625 -0.265625 -2.609375 -1.359375q-0.9375 -1.078125 -0.9375 -2.671875q0 -1.984375 1.296875 -3.1875q1.296875 -1.203125 3.71875 -1.203125q1.578125 0 2.75 0.515625q1.171875 0.515625 1.75 1.578125q0.59375 1.0625 0.59375 2.3125q0 1.578125 -0.796875 2.578125q-0.796875 1.0 -2.265625 1.28125l-0.234375 -1.59375q0.96875 -0.234375 1.453125 -0.8125q0.5 -0.578125 0.5 -1.390625q0 -1.234375 -0.890625 -2.015625q-0.890625 -0.78125 -2.8125 -0.78125q-1.953125 0 -2.84375 0.75q-0.875 0.75 -0.875 1.953125q0 0.96875 0.59375 1.609375q0.59375 0.65625 1.828125 0.828125zm-0.4375 9.640625l-0.203125 1.6875q-1.484375 -0.40625 -2.3125 -1.484375q-0.8125 -1.078125 -0.8125 -2.765625q0 -2.125 1.296875 -3.375q1.3125 -1.234375 3.671875 -1.234375q2.453125 0 3.796875 1.25q1.34375 1.265625 1.34375 3.265625q0 1.9375 -1.328125 3.15625q-1.3125 1.234375 -3.703125 1.234375q-0.15625 0 -0.4375 0l0 -7.21875q-1.59375 0.09375 -2.453125 0.90625q-0.84375 0.8125 -0.84375 2.015625q0 0.90625 0.46875 1.546875q0.484375 0.640625 1.515625 1.015625zm2.65625 -5.390625l0 5.40625q1.21875 -0.109375 1.828125 -0.625q0.953125 -0.78125 0.953125 -2.03125q0 -1.125 -0.765625 -1.90625q-0.75 -0.765625 -2.015625 -0.84375zm-2.875 8.485077l0.25 1.625q-0.96875 0.125 -1.5 0.75q-0.515625 0.625 -0.515625 1.75q0 1.125 0.453125 1.671875q0.46875 0.546875 1.09375 0.546875q0.546875 0 0.875 -0.484375q0.21875 -0.328125 0.546875 -1.671875q0.46875 -1.8125 0.796875 -2.515625q0.328125 -0.6875 0.90625 -1.046875q0.59375 -0.359375 1.3125 -0.359375q0.640625 0 1.1875 0.296875q0.5625 0.296875 0.921875 0.8125q0.28125 0.375 0.46875 1.03125q0.203125 0.671875 0.203125 1.421875q0 1.140625 -0.328125 2.0q-0.328125 0.859375 -0.890625 1.265625q-0.5625 0.421875 -1.5 0.578125l-0.21875 -1.609375q0.75 -0.109375 1.171875 -0.640625q0.421875 -0.515625 0.421875 -1.46875q0 -1.140625 -0.375 -1.625q-0.375 -0.46875 -0.875 -0.46875q-0.3125 0 -0.578125 0.1875q-0.265625 0.203125 -0.4375 0.640625q-0.09375 0.234375 -0.421875 1.4375q-0.453125 1.75 -0.75 2.4375q-0.296875 0.6875 -0.859375 1.078125q-0.5625 0.390625 -1.40625 0.390625q-0.828125 0 -1.546875 -0.484375q-0.71875 -0.46875 -1.125 -1.375q-0.390625 -0.90625 -0.390625 -2.046875q0 -1.875 0.78125 -2.875q0.78125 -0.984375 2.328125 -1.25zm0 9.328125l0.25 1.625q-0.96875 0.125 -1.5 0.75q-0.515625 0.625 -0.515625 1.75q0 1.125 0.453125 1.671875q0.46875 0.546875 1.09375 0.546875q0.546875 0 0.875 -0.484375q0.21875 -0.328125 0.546875 -1.671875q0.46875 -1.8125 0.796875 -2.515625q0.328125 -0.6875 0.90625 -1.046875q0.59375 -0.359375 1.3125 -0.359375q0.640625 0 1.1875 0.296875q0.5625 0.296875 0.921875 0.8125q0.28125 0.375 0.46875 1.03125q0.203125 0.671875 0.203125 1.421875q0 1.140625 -0.328125 2.0q-0.328125 0.859375 -0.890625 1.265625q-0.5625 0.421875 -1.5 0.578125l-0.21875 -1.609375q0.75 -0.109375 1.171875 -0.640625q0.421875 -0.515625 0.421875 -1.46875q0 -1.140625 -0.375 -1.625q-0.375 -0.46875 -0.875 -0.46875q-0.3125 0 -0.578125 0.1875q-0.265625 0.203125 -0.4375 0.640625q-0.09375 0.234375 -0.421875 1.4375q-0.453125 1.75 -0.75 2.4375q-0.296875 0.6875 -0.859375 1.078125q-0.5625 0.390625 -1.40625 0.390625q-0.828125 0 -1.546875 -0.484375q-0.71875 -0.46875 -1.125 -1.375q-0.390625 -0.90625 -0.390625 -2.046875q0 -1.875 0.78125 -2.875q0.78125 -0.984375 2.328125 -1.25z" fill-rule="nonzero"/><path fill="#ffe599" d="m315.0525 206.08398l0 119.22049l-59.383194 0l0 -119.22049z" fill-rule="evenodd"/><path fill="#000000" fill-opacity="0.0" d="m315.0525 220.98654l-59.383194 0m59.383194 89.415375l-59.383194 0" fill-rule="evenodd"/><path fill="#000000" fill-opacity="0.0" d="m315.0525 206.08398l0 119.22049l-59.383194 0l0 -119.22049z" fill-rule="evenodd"/><path stroke="#e69138" stroke-width="2.0" stroke-linejoin="round" stroke-linecap="butt" d="m315.0525 220.98654l-59.383194 0m59.383194 89.415375l-59.383194 0" fill-rule="evenodd"/><path stroke="#e69138" stroke-width="2.0" stroke-linejoin="round" stroke-linecap="butt" d="m315.0525 206.08398l0 119.22049l-59.383194 0l0 -119.22049z" fill-rule="evenodd"/><path fill="#000000" d="m292.98776 254.0565l-0.21875 1.609375q-1.65625 -0.265625 -2.609375 -1.359375q-0.9375 -1.078125 -0.9375 -2.671875q0 -1.984375 1.296875 -3.1875q1.296875 -1.203125 3.71875 -1.203125q1.578125 0 2.75 0.515625q1.171875 0.515625 1.75 1.578125q0.59375 1.0625 0.59375 2.3125q0 1.578125 -0.796875 2.578125q-0.796875 1.0 -2.265625 1.28125l-0.234375 -1.59375q0.96875 -0.234375 1.453125 -0.8125q0.5 -0.578125 0.5 -1.390625q0 -1.234375 -0.890625 -2.015625q-0.890625 -0.78125 -2.8125 -0.78125q-1.953125 0 -2.84375 0.75q-0.875 0.75 -0.875 1.953125q0 0.96875 0.59375 1.609375q0.59375 0.65625 1.828125 0.828125zm-3.546875 3.0156097l13.359375 0l0 1.640625l-4.796875 0q1.328125 1.140625 1.328125 2.890625q0 1.078125 -0.421875 1.859375q-0.421875 0.796875 -1.171875 1.140625q-0.75 0.34375 -2.171875 0.34375l-6.125 0l0 -1.640625l6.125 0q1.234375 0 1.796875 -0.53125q0.5625 -0.53125 0.5625 -1.515625q0 -0.71875 -0.390625 -1.359375q-0.375 -0.640625 -1.015625 -0.921875q-0.640625 -0.265625 -1.78125 -0.265625l-5.296875 0l0 -1.640625zm11.46875 10.375732l1.890625 0l0 1.640625l-1.890625 0l0 -1.640625zm-11.46875 0l9.671875 0l0 1.640625l-9.671875 0l0 -1.640625zm0 4.097931l13.359375 0l0 1.640625l-13.359375 0l0 -1.640625zm0 10.457336l1.21875 0q-1.4375 -0.90625 -1.4375 -2.703125q0 -1.15625 0.640625 -2.125q0.640625 -0.96875 1.78125 -1.5q1.140625 -0.53125 2.625 -0.53125q1.453125 0 2.625 0.484375q1.1875 0.484375 1.8125 1.4375q0.625 0.96875 0.625 2.171875q0 0.875 -0.375 1.546875q-0.359375 0.6875 -0.953125 1.109375l4.796875 0l0 1.640625l-13.359375 0l0 -1.53125zm4.828125 -5.171875q-1.859375 0 -2.78125 0.78125q-0.921875 0.78125 -0.921875 1.84375q0 1.078125 0.875 1.828125q0.890625 0.75 2.6875 0.75q1.984375 0 2.90625 -0.765625q0.9375 -0.765625 0.9375 -1.890625q0 -1.078125 -0.890625 -1.8125q-0.890625 -0.734375 -2.8125 -0.734375z" fill-rule="nonzero"/><path fill="#000000" d="m263.73776 234.2665l13.375 0l0 1.484375l-1.25 0q0.734375 0.53125 1.09375 1.1875q0.375 0.671875 0.375 1.625q0 1.234375 -0.640625 2.171875q-0.625 0.953125 -1.796875 1.4375q-1.15625 0.484375 -2.546875 0.484375q-1.484375 0 -2.671875 -0.53125q-1.1875 -0.53125 -1.828125 -1.546875q-0.625 -1.015625 -0.625 -2.140625q0 -0.8125 0.34375 -1.46875q0.34375 -0.65625 0.875 -1.0625l-4.703125 0l0 -1.640625zm8.484375 1.484375q-1.859375 0 -2.765625 0.75q-0.890625 0.765625 -0.890625 1.828125q0 1.09375 0.921875 1.875q0.9375 0.78125 2.875 0.78125q1.84375 0 2.765625 -0.765625q0.921875 -0.75 0.921875 -1.8125q0 -1.046875 -0.984375 -1.859375q-0.96875 -0.796875 -2.84375 -0.796875zm-4.78125 8.875717l9.671875 0l0 1.46875l-1.46875 0q1.03125 0.5625 1.359375 1.03125q0.328125 0.484375 0.328125 1.0625q0 0.828125 -0.53125 1.6875l-1.515625 -0.5625q0.359375 -0.609375 0.359375 -1.203125q0 -0.546875 -0.328125 -0.96875q-0.328125 -0.421875 -0.890625 -0.609375q-0.875 -0.28125 -1.921875 -0.28125l-5.0625 0l0 -1.625zm4.84375 5.618927q2.6875 0 3.96875 1.484375q1.078125 1.25 1.078125 3.046875q0 2.0 -1.3125 3.265625q-1.296875 1.265625 -3.609375 1.265625q-1.859375 0 -2.9375 -0.5625q-1.0625 -0.5625 -1.65625 -1.640625q-0.59375 -1.0625 -0.59375 -2.328125q0 -2.03125 1.296875 -3.28125q1.3125 -1.25 3.765625 -1.25zm0 1.6875q-1.859375 0 -2.796875 0.796875q-0.921875 0.8125 -0.921875 2.046875q0 1.21875 0.921875 2.03125q0.9375 0.8125 2.84375 0.8125q1.796875 0 2.71875 -0.8125q0.921875 -0.8125 0.921875 -2.03125q0 -1.234375 -0.921875 -2.046875q-0.90625 -0.796875 -2.765625 -0.796875zm-1.296875 15.610107l-0.21875 1.609375q-1.65625 -0.265625 -2.609375 -1.359375q-0.9375 -1.078125 -0.9375 -2.671875q0 -1.984375 1.296875 -3.1875q1.296875 -1.203125 3.71875 -1.203125q1.578125 0 2.75 0.515625q1.171875 0.515625 1.75 1.578125q0.59375 1.0625 0.59375 2.3125q0 1.578125 -0.796875 2.578125q-0.796875 1.0 -2.265625 1.28125l-0.234375 -1.59375q0.96875 -0.234375 1.453125 -0.8125q0.5 -0.578125 0.5 -1.390625q0 -1.234375 -0.890625 -2.015625q-0.890625 -0.78125 -2.8125 -0.78125q-1.953125 0 -2.84375 0.75q-0.875 0.75 -0.875 1.953125q0 0.96875 0.59375 1.609375q0.59375 0.65625 1.828125 0.828125zm-0.4375 9.640625l-0.203125 1.6875q-1.484375 -0.40625 -2.3125 -1.484375q-0.8125 -1.078125 -0.8125 -2.765625q0 -2.125 1.296875 -3.375q1.3125 -1.234375 3.671875 -1.234375q2.453125 0 3.796875 1.25q1.34375 1.265625 1.34375 3.265625q0 1.9375 -1.328125 3.15625q-1.3125 1.234375 -3.703125 1.234375q-0.15625 0 -0.4375 0l0 -7.21875q-1.59375 0.09375 -2.453125 0.90625q-0.84375 0.8125 -0.84375 2.015625q0 0.90625 0.46875 1.546875q0.484375 0.640625 1.515625 1.015625zm2.65625 -5.390625l0 5.40625q1.21875 -0.109375 1.828125 -0.625q0.953125 -0.78125 0.953125 -2.03125q0 -1.125 -0.765625 -1.90625q-0.75 -0.765625 -2.015625 -0.84375zm-2.875 8.485077l0.25 1.625q-0.96875 0.125 -1.5 0.75q-0.515625 0.625 -0.515625 1.75q0 1.125 0.453125 1.671875q0.46875 0.546875 1.09375 0.546875q0.546875 0 0.875 -0.484375q0.21875 -0.328125 0.546875 -1.671875q0.46875 -1.8125 0.796875 -2.515625q0.328125 -0.6875 0.90625 -1.046875q0.59375 -0.359375 1.3125 -0.359375q0.640625 0 1.1875 0.296875q0.5625 0.296875 0.921875 0.8125q0.28125 0.375 0.46875 1.03125q0.203125 0.671875 0.203125 1.421875q0 1.140625 -0.328125 2.0q-0.328125 0.859375 -0.890625 1.265625q-0.5625 0.421875 -1.5 0.578125l-0.21875 -1.609375q0.75 -0.109375 1.171875 -0.640625q0.421875 -0.515625 0.421875 -1.46875q0 -1.140625 -0.375 -1.625q-0.375 -0.46875 -0.875 -0.46875q-0.3125 0 -0.578125 0.1875q-0.265625 0.203125 -0.4375 0.640625q-0.09375 0.234375 -0.421875 1.4375q-0.453125 1.75 -0.75 2.4375q-0.296875 0.6875 -0.859375 1.078125q-0.5625 0.390625 -1.40625 0.390625q-0.828125 0 -1.546875 -0.484375q-0.71875 -0.46875 -1.125 -1.375q-0.390625 -0.90625 -0.390625 -2.046875q0 -1.875 0.78125 -2.875q0.78125 -0.984375 2.328125 -1.25zm0 9.328125l0.25 1.625q-0.96875 0.125 -1.5 0.75q-0.515625 0.625 -0.515625 1.75q0 1.125 0.453125 1.671875q0.46875 0.546875 1.09375 0.546875q0.546875 0 0.875 -0.484375q0.21875 -0.328125 0.546875 -1.671875q0.46875 -1.8125 0.796875 -2.515625q0.328125 -0.6875 0.90625 -1.046875q0.59375 -0.359375 1.3125 -0.359375q0.640625 0 1.1875 0.296875q0.5625 0.296875 0.921875 0.8125q0.28125 0.375 0.46875 1.03125q0.203125 0.671875 0.203125 1.421875q0 1.140625 -0.328125 2.0q-0.328125 0.859375 -0.890625 1.265625q-0.5625 0.421875 -1.5 0.578125l-0.21875 -1.609375q0.75 -0.109375 1.171875 -0.640625q0.421875 -0.515625 0.421875 -1.46875q0 -1.140625 -0.375 -1.625q-0.375 -0.46875 -0.875 -0.46875q-0.3125 0 -0.578125 0.1875q-0.265625 0.203125 -0.4375 0.640625q-0.09375 0.234375 -0.421875 1.4375q-0.453125 1.75 -0.75 2.4375q-0.296875 0.6875 -0.859375 1.078125q-0.5625 0.390625 -1.40625 0.390625q-0.828125 0 -1.546875 -0.484375q-0.71875 -0.46875 -1.125 -1.375q-0.390625 -0.90625 -0.390625 -2.046875q0 -1.875 0.78125 -2.875q0.78125 -0.984375 2.328125 -1.25z" fill-rule="nonzero"/><path fill="#ffe599" d="m411.37274 206.08398l0 149.59842l-64.11026 0l0 -149.59842z" fill-rule="evenodd"/><path fill="#000000" fill-opacity="0.0" d="m411.37274 224.7838l-64.11026 0m64.11026 112.19881l-64.11026 0" fill-rule="evenodd"/><path fill="#000000" fill-opacity="0.0" d="m411.37274 206.08398l0 149.59842l-64.11026 0l0 -149.59842z" fill-rule="evenodd"/><path stroke="#e69138" stroke-width="2.0" stroke-linejoin="round" stroke-linecap="butt" d="m411.37274 224.7838l-64.11026 0m64.11026 112.19881l-64.11026 0" fill-rule="evenodd"/><path stroke="#e69138" stroke-width="2.0" stroke-linejoin="round" stroke-linecap="butt" d="m411.37274 206.08398l0 149.59842l-64.11026 0l0 -149.59842z" fill-rule="evenodd"/><path fill="#000000" d="m386.9445 269.24548l-0.21875 1.609375q-1.65625 -0.265625 -2.609375 -1.359375q-0.9375 -1.078125 -0.9375 -2.671875q0 -1.984375 1.296875 -3.1875q1.296875 -1.203125 3.71875 -1.203125q1.578125 0 2.75 0.515625q1.171875 0.515625 1.75 1.578125q0.59375 1.0625 0.59375 2.3125q0 1.578125 -0.796875 2.578125q-0.796875 1.0 -2.265625 1.28125l-0.234375 -1.59375q0.96875 -0.234375 1.453125 -0.8125q0.5 -0.578125 0.5 -1.390625q0 -1.234375 -0.890625 -2.015625q-0.890625 -0.78125 -2.8125 -0.78125q-1.953125 0 -2.84375 0.75q-0.875 0.75 -0.875 1.953125q0 0.96875 0.59375 1.609375q0.59375 0.65625 1.828125 0.828125zm-3.546875 3.015625l13.359375 0l0 1.640625l-4.796875 0q1.328125 1.140625 1.328125 2.890625q0 1.078125 -0.421875 1.859375q-0.421875 0.796875 -1.171875 1.140625q-0.75 0.34375 -2.171875 0.34375l-6.125 0l0 -1.640625l6.125 0q1.234375 0 1.796875 -0.53125q0.5625 -0.53125 0.5625 -1.515625q0 -0.71875 -0.390625 -1.359375q-0.375 -0.640625 -1.015625 -0.921875q-0.640625 -0.265625 -1.78125 -0.265625l-5.296875 0l0 -1.640625zm11.46875 10.375702l1.890625 0l0 1.640625l-1.890625 0l0 -1.640625zm-11.46875 0l9.671875 0l0 1.640625l-9.671875 0l0 -1.640625zm0 4.0979614l13.359375 0l0 1.640625l-13.359375 0l0 -1.640625zm0 10.457306l1.21875 0q-1.4375 -0.90625 -1.4375 -2.703125q0 -1.15625 0.640625 -2.125q0.640625 -0.96875 1.78125 -1.5q1.140625 -0.53125 2.625 -0.53125q1.453125 0 2.625 0.484375q1.1875 0.484375 1.8125 1.4375q0.625 0.96875 0.625 2.171875q0 0.875 -0.375 1.546875q-0.359375 0.6875 -0.953125 1.109375l4.796875 0l0 1.640625l-13.359375 0l0 -1.53125zm4.828125 -5.171875q-1.859375 0 -2.78125 0.78125q-0.921875 0.78125 -0.921875 1.84375q0 1.078125 0.875 1.828125q0.890625 0.75 2.6875 0.75q1.984375 0 2.90625 -0.765625q0.9375 -0.765625 0.9375 -1.890625q0 -1.078125 -0.890625 -1.8125q-0.890625 -0.734375 -2.8125 -0.734375z" fill-rule="nonzero"/><path fill="#000000" d="m357.6945 249.45547l13.375 0l0 1.484375l-1.25 0q0.734375 0.53125 1.09375 1.1875q0.375 0.671875 0.375 1.625q0 1.234375 -0.640625 2.171875q-0.625 0.953125 -1.796875 1.4375q-1.15625 0.484375 -2.546875 0.484375q-1.484375 0 -2.671875 -0.53125q-1.1875 -0.53125 -1.828125 -1.546875q-0.625 -1.015625 -0.625 -2.140625q0 -0.8125 0.34375 -1.46875q0.34375 -0.65625 0.875 -1.0625l-4.703125 0l0 -1.640625zm8.484375 1.484375q-1.859375 0 -2.765625 0.75q-0.890625 0.765625 -0.890625 1.828125q0 1.09375 0.921875 1.875q0.9375 0.78125 2.875 0.78125q1.84375 0 2.765625 -0.765625q0.921875 -0.75 0.921875 -1.8125q0 -1.046875 -0.984375 -1.859375q-0.96875 -0.796875 -2.84375 -0.796875zm-4.78125 8.875732l9.671875 0l0 1.46875l-1.46875 0q1.03125 0.5625 1.359375 1.03125q0.328125 0.484375 0.328125 1.0625q0 0.828125 -0.53125 1.6875l-1.515625 -0.5625q0.359375 -0.609375 0.359375 -1.203125q0 -0.546875 -0.328125 -0.96875q-0.328125 -0.421875 -0.890625 -0.609375q-0.875 -0.28125 -1.921875 -0.28125l-5.0625 0l0 -1.625zm4.84375 5.618927q2.6875 0 3.96875 1.484375q1.078125 1.25 1.078125 3.046875q0 2.0 -1.3125 3.265625q-1.296875 1.265625 -3.609375 1.265625q-1.859375 0 -2.9375 -0.5625q-1.0625 -0.5625 -1.65625 -1.640625q-0.59375 -1.0625 -0.59375 -2.328125q0 -2.03125 1.296875 -3.28125q1.3125 -1.25 3.765625 -1.25zm0 1.6875q-1.859375 0 -2.796875 0.796875q-0.921875 0.8125 -0.921875 2.046875q0 1.21875 0.921875 2.03125q0.9375 0.8125 2.84375 0.8125q1.796875 0 2.71875 -0.8125q0.921875 -0.8125 0.921875 -2.03125q0 -1.234375 -0.921875 -2.046875q-0.90625 -0.796875 -2.765625 -0.796875zm-1.296875 15.610077l-0.21875 1.609375q-1.65625 -0.265625 -2.609375 -1.359375q-0.9375 -1.078125 -0.9375 -2.671875q0 -1.984375 1.296875 -3.1875q1.296875 -1.203125 3.71875 -1.203125q1.578125 0 2.75 0.515625q1.171875 0.515625 1.75 1.578125q0.59375 1.0625 0.59375 2.3125q0 1.578125 -0.796875 2.578125q-0.796875 1.0 -2.265625 1.28125l-0.234375 -1.59375q0.96875 -0.234375 1.453125 -0.8125q0.5 -0.578125 0.5 -1.390625q0 -1.234375 -0.890625 -2.015625q-0.890625 -0.78125 -2.8125 -0.78125q-1.953125 0 -2.84375 0.75q-0.875 0.75 -0.875 1.953125q0 0.96875 0.59375 1.609375q0.59375 0.65625 1.828125 0.828125zm-0.4375 9.640625l-0.203125 1.6875q-1.484375 -0.40625 -2.3125 -1.484375q-0.8125 -1.078125 -0.8125 -2.765625q0 -2.125 1.296875 -3.375q1.3125 -1.234375 3.671875 -1.234375q2.453125 0 3.796875 1.25q1.34375 1.265625 1.34375 3.265625q0 1.9375 -1.328125 3.15625q-1.3125 1.234375 -3.703125 1.234375q-0.15625 0 -0.4375 0l0 -7.21875q-1.59375 0.09375 -2.453125 0.90625q-0.84375 0.8125 -0.84375 2.015625q0 0.90625 0.46875 1.546875q0.484375 0.640625 1.515625 1.015625zm2.65625 -5.390625l0 5.40625q1.21875 -0.109375 1.828125 -0.625q0.953125 -0.78125 0.953125 -2.03125q0 -1.125 -0.765625 -1.90625q-0.75 -0.765625 -2.015625 -0.84375zm-2.875 8.485107l0.25 1.625q-0.96875 0.125 -1.5 0.75q-0.515625 0.625 -0.515625 1.75q0 1.125 0.453125 1.671875q0.46875 0.546875 1.09375 0.546875q0.546875 0 0.875 -0.484375q0.21875 -0.328125 0.546875 -1.671875q0.46875 -1.8125 0.796875 -2.515625q0.328125 -0.6875 0.90625 -1.046875q0.59375 -0.359375 1.3125 -0.359375q0.640625 0 1.1875 0.296875q0.5625 0.296875 0.921875 0.8125q0.28125 0.375 0.46875 1.03125q0.203125 0.671875 0.203125 1.421875q0 1.140625 -0.328125 2.0q-0.328125 0.859375 -0.890625 1.265625q-0.5625 0.421875 -1.5 0.578125l-0.21875 -1.609375q0.75 -0.109375 1.171875 -0.640625q0.421875 -0.515625 0.421875 -1.46875q0 -1.140625 -0.375 -1.625q-0.375 -0.46875 -0.875 -0.46875q-0.3125 0 -0.578125 0.1875q-0.265625 0.203125 -0.4375 0.640625q-0.09375 0.234375 -0.421875 1.4375q-0.453125 1.75 -0.75 2.4375q-0.296875 0.6875 -0.859375 1.078125q-0.5625 0.390625 -1.40625 0.390625q-0.828125 0 -1.546875 -0.484375q-0.71875 -0.46875 -1.125 -1.375q-0.390625 -0.90625 -0.390625 -2.046875q0 -1.875 0.78125 -2.875q0.78125 -0.984375 2.328125 -1.25zm0 9.328125l0.25 1.625q-0.96875 0.125 -1.5 0.75q-0.515625 0.625 -0.515625 1.75q0 1.125 0.453125 1.671875q0.46875 0.546875 1.09375 0.546875q0.546875 0 0.875 -0.484375q0.21875 -0.328125 0.546875 -1.671875q0.46875 -1.8125 0.796875 -2.515625q0.328125 -0.6875 0.90625 -1.046875q0.59375 -0.359375 1.3125 -0.359375q0.640625 0 1.1875 0.296875q0.5625 0.296875 0.921875 0.8125q0.28125 0.375 0.46875 1.03125q0.203125 0.671875 0.203125 1.421875q0 1.140625 -0.328125 2.0q-0.328125 0.859375 -0.890625 1.265625q-0.5625 0.421875 -1.5 0.578125l-0.21875 -1.609375q0.75 -0.109375 1.171875 -0.640625q0.421875 -0.515625 0.421875 -1.46875q0 -1.140625 -0.375 -1.625q-0.375 -0.46875 -0.875 -0.46875q-0.3125 0 -0.578125 0.1875q-0.265625 0.203125 -0.4375 0.640625q-0.09375 0.234375 -0.421875 1.4375q-0.453125 1.75 -0.75 2.4375q-0.296875 0.6875 -0.859375 1.078125q-0.5625 0.390625 -1.40625 0.390625q-0.828125 0 -1.546875 -0.484375q-0.71875 -0.46875 -1.125 -1.375q-0.390625 -0.90625 -0.390625 -2.046875q0 -1.875 0.78125 -2.875q0.78125 -0.984375 2.328125 -1.25z" fill-rule="nonzero"/><path fill="#c9daf8" d="m210.35957 137.58005l0 0c0 -2.9165192 2.3643188 -5.280838 5.2808533 -5.280838l53.784775 0c1.4005737 0 2.7437744 0.5563812 3.7341003 1.5467224c0.99035645 0.99035645 1.5467224 2.3335571 1.5467224 3.7341156l0 21.123367c0 2.9165192 -2.3642883 5.280838 -5.2808228 5.280838l-53.784775 0l0 0c-2.9165344 0 -5.2808533 -2.3643188 -5.2808533 -5.280838z" fill-rule="evenodd"/><path stroke="#6d9eeb" stroke-width="2.0" stroke-linejoin="round" stroke-linecap="butt" d="m210.35957 137.58005l0 0c0 -2.9165192 2.3643188 -5.280838 5.2808533 -5.280838l53.784775 0c1.4005737 0 2.7437744 0.5563812 3.7341003 1.5467224c0.99035645 0.99035645 1.5467224 2.3335571 1.5467224 3.7341156l0 21.123367c0 2.9165192 -2.3642883 5.280838 -5.2808228 5.280838l-53.784775 0l0 0c-2.9165344 0 -5.2808533 -2.3643188 -5.2808533 -5.280838z" fill-rule="evenodd"/><path fill="#000000" d="m226.4625 151.62674l2.203125 -0.328125q0.140625 0.640625 0.5625 0.96875q0.4375 0.328125 1.21875 0.328125q0.84375 0 1.28125 -0.3125q0.28125 -0.21875 0.28125 -0.578125q0 -0.25 -0.15625 -0.421875q-0.15625 -0.15625 -0.734375 -0.28125q-2.65625 -0.59375 -3.359375 -1.078125q-0.984375 -0.671875 -0.984375 -1.859375q0 -1.078125 0.84375 -1.8125q0.859375 -0.734375 2.640625 -0.734375q1.703125 0 2.53125 0.5625q0.828125 0.546875 1.140625 1.625l-2.0625 0.390625q-0.140625 -0.484375 -0.515625 -0.734375q-0.359375 -0.265625 -1.046875 -0.265625q-0.875 0 -1.25 0.234375q-0.25 0.171875 -0.25 0.453125q0 0.234375 0.21875 0.390625q0.296875 0.21875 2.046875 0.625q1.765625 0.390625 2.453125 0.96875q0.6875 0.59375 0.6875 1.640625q0 1.140625 -0.953125 1.96875q-0.953125 0.8125 -2.8125 0.8125q-1.703125 0 -2.6875 -0.6875q-0.984375 -0.6875 -1.296875 -1.875zm9.6171875 -5.921875l2.046875 0l0 1.21875q0.390625 -0.625 1.0625 -1.015625q0.6875 -0.390625 1.515625 -0.390625q1.453125 0 2.453125 1.140625q1.015625 1.125 1.015625 3.140625q0 2.078125 -1.015625 3.234375q-1.015625 1.15625 -2.46875 1.15625q-0.6875 0 -1.25 -0.265625q-0.546875 -0.28125 -1.171875 -0.953125l0 4.1875l-2.1875 0l0 -11.453125zm2.171875 4.0q0 1.40625 0.546875 2.078125q0.5625 0.65625 1.359375 0.65625q0.765625 0 1.265625 -0.609375q0.515625 -0.609375 0.515625 -2.015625q0 -1.296875 -0.53125 -1.921875q-0.515625 -0.640625 -1.296875 -0.640625q-0.796875 0 -1.328125 0.625q-0.53125 0.609375 -0.53125 1.828125zm7.6640625 4.296875l0 -11.453125l2.1875 0l0 11.453125l-2.1875 0zm4.4453125 -9.421875l0 -2.03125l2.1875 0l0 2.03125l-2.1875 0zm0 9.421875l0 -8.296875l2.1875 0l0 8.296875l-2.1875 0zm8.2421875 -8.296875l0 1.75l-1.5 0l0 3.34375q0 1.015625 0.046875 1.1875q0.046875 0.15625 0.1875 0.265625q0.15625 0.109375 0.375 0.109375q0.3125 0 0.890625 -0.203125l0.1875 1.703125q-0.765625 0.328125 -1.734375 0.328125q-0.59375 0 -1.078125 -0.203125q-0.46875 -0.203125 -0.703125 -0.515625q-0.21875 -0.3125 -0.296875 -0.859375q-0.078125 -0.375 -0.078125 -1.546875l0 -3.609375l-1.0 0l0 -1.75l1.0 0l0 -1.65625l2.203125 -1.28125l0 2.9375l1.5 0z" fill-rule="nonzero"/><path fill="#000000" fill-opacity="0.0" d="m210.35957 148.14174l-113.07086 0l0 57.952744" fill-rule="evenodd"/><path stroke="#efefef" stroke-width="2.0" stroke-linejoin="round" stroke-linecap="butt" d="m210.35957 148.14174l-113.07086 0l0 51.098587" fill-rule="evenodd"/><path fill="#efefef" stroke="#efefef" stroke-width="2.0" stroke-linecap="butt" d="m97.28871 199.24031l-2.2491684 -2.2491608l2.2491684 6.179535l2.2491684 -6.179535z" fill-rule="evenodd"/><path fill="#000000" fill-opacity="0.0" d="m242.5328 163.98425l0 21.055115l-51.244095 0l0 21.055115" fill-rule="evenodd"/><path stroke="#efefef" stroke-width="2.0" stroke-linejoin="round" stroke-linecap="butt" d="m242.5328 163.98425l0 21.055115l-51.244095 0l0 9.055115" fill-rule="evenodd"/><path fill="#efefef" stroke="#efefef" stroke-width="2.0" stroke-linecap="butt" d="m187.98524 194.09448l3.3034668 9.076202l3.3034668 -9.076202z" fill-rule="evenodd"/><path fill="#000000" fill-opacity="0.0" d="m242.5328 163.98425l0 21.050064l42.834656 0l0 21.060165" fill-rule="evenodd"/><path stroke="#efefef" stroke-width="2.0" stroke-linejoin="round" stroke-linecap="butt" d="m242.5328 163.98425l0 21.05008l42.834656 0l0 9.06015" fill-rule="evenodd"/><path fill="#efefef" stroke="#efefef" stroke-width="2.0" stroke-linecap="butt" d="m282.064 194.09448l3.3034668 9.076202l3.3034668 -9.076202z" fill-rule="evenodd"/><path fill="#000000" fill-opacity="0.0" d="m274.70602 148.14174l104.59845 0l0 57.952744" fill-rule="evenodd"/><path stroke="#efefef" stroke-width="2.0" stroke-linejoin="round" stroke-linecap="butt" d="m274.70602 148.14174l104.59845 0l0 45.952744" fill-rule="evenodd"/><path fill="#efefef" stroke="#efefef" stroke-width="2.0" stroke-linecap="butt" d="m376.001 194.09448l3.3034668 9.076202l3.3034668 -9.076202z" fill-rule="evenodd"/><path fill="#000000" fill-opacity="0.0" d="m242.4692 100.48311l0 15.907425l0.06300354 0l0 15.903595" fill-rule="evenodd"/><path stroke="#efefef" stroke-width="2.0" stroke-linejoin="round" stroke-linecap="butt" d="m242.46921 100.483116l0 15.907417l0.06298828 0l0 3.9036026" fill-rule="evenodd"/><path fill="#efefef" stroke="#efefef" stroke-width="2.0" stroke-linecap="butt" d="m239.22873 120.294136l3.3034668 9.076195l3.3034668 -9.076195z" fill-rule="evenodd"/><path fill="#000000" fill-opacity="0.0" d="m242.50017 39.929344l0 8.451279l0.06298828 0l0 8.462109" fill-rule="evenodd"/><path stroke="#efefef" stroke-width="2.0" stroke-linejoin="round" stroke-linecap="butt" d="m242.50017 39.929344l0 8.451279l0.06298828 0l0 8.462109" fill-rule="evenodd"/><path fill="#ffd966" d="m255.84251 384.27298l0 14.456665l0 0c0 7.9842224 -7.092926 14.456696 -15.842514 14.456696c-8.749588 0 -15.842514 -6.472473 -15.842514 -14.456696l0 -14.456665z" fill-rule="evenodd"/><path stroke="#e06666" stroke-width="2.0" stroke-linejoin="round" stroke-linecap="butt" d="m255.84251 384.27298l0 14.456665l0 0c0 7.9842224 -7.092926 14.456696 -15.842514 14.456696c-8.749588 0 -15.842514 -6.472473 -15.842514 -14.456696l0 -14.456665z" fill-rule="evenodd"/><path fill="#000000" d="m235.23625 397.94485l3.671875 0l0 -3.640625l1.515625 0l0 3.640625l3.640625 0l0 1.546875l-3.640625 0l0 3.640625l-1.515625 0l0 -3.640625l-3.671875 0l0 -1.546875z" fill-rule="nonzero"/><path fill="#cfe2f3" d="m206.15135 435.7953l67.69762 0l0 0c8.868561 0 16.057953 7.091797 16.057953 15.839996c0 8.748169 -7.189392 15.839996 -16.057953 15.839996l-67.69762 0l0 0c-8.868561 0 -16.057968 -7.0918274 -16.057968 -15.839996c0 -8.748199 7.1894073 -15.839996 16.057968 -15.839996z" fill-rule="evenodd"/><path stroke="#6d9eeb" stroke-width="2.0" stroke-linejoin="round" stroke-linecap="butt" d="m206.15135 435.7953l67.69762 0l0 0c8.868561 0 16.057953 7.091797 16.057953 15.839996c0 8.748169 -7.189392 15.839996 -16.057953 15.839996l-67.69762 0l0 0c-8.868561 0 -16.057968 -7.0918274 -16.057968 -15.839996c0 -8.748199 7.1894073 -15.839996 16.057968 -15.839996z" fill-rule="evenodd"/><path fill="#000000" d="m230.86395 455.47714l2.546875 0.421875q-0.484375 1.40625 -1.546875 2.140625q-1.0625 0.734375 -2.65625 0.734375q-2.515625 0 -3.734375 -1.65625q-0.953125 -1.3125 -0.953125 -3.328125q0 -2.40625 1.25 -3.765625q1.265625 -1.359375 3.1875 -1.359375q2.15625 0 3.40625 1.421875q1.25 1.421875 1.1875 4.375l-6.40625 0q0.03125 1.140625 0.609375 1.78125q0.59375 0.625 1.484375 0.625q0.59375 0 1.0 -0.328125q0.421875 -0.328125 0.625 -1.0625zm0.15625 -2.59375q-0.03125 -1.109375 -0.578125 -1.6875q-0.546875 -0.578125 -1.328125 -0.578125q-0.84375 0 -1.390625 0.609375q-0.546875 0.609375 -0.53125 1.65625l3.828125 0zm3.3913422 5.671875l3.484375 -4.984375l-3.34375 -4.6875l3.125 0l1.71875 2.65625l1.796875 -2.65625l3.015625 0l-3.28125 4.578125l3.578125 5.09375l-3.140625 0l-1.96875 -3.0l-1.984375 3.0l-3.0 0zm11.610092 -10.984375l0 -2.375l2.5625 0l0 2.375l-2.5625 0zm0 10.984375l0 -9.671875l2.5625 0l0 9.671875l-2.5625 0zm9.620804 -9.671875l0 2.03125l-1.75 0l0 3.90625q0 1.1875 0.046875 1.390625q0.046875 0.1875 0.21875 0.3125q0.1875 0.125 0.4375 0.125q0.359375 0 1.03125 -0.25l0.21875 2.0q-0.890625 0.375 -2.015625 0.375q-0.703125 0 -1.265625 -0.234375q-0.546875 -0.234375 -0.8125 -0.59375q-0.25 -0.375 -0.34375 -1.0q-0.09375 -0.453125 -0.09375 -1.8125l0 -4.21875l-1.171875 0l0 -2.03125l1.171875 0l0 -1.921875l2.578125 -1.5l0 3.421875l1.75 0z" fill-rule="nonzero"/><path fill="#000000" fill-opacity="0.0" d="m97.27559 336.49606l0 62.236206l126.897644 0" fill-rule="evenodd"/><path stroke="#efefef" stroke-width="2.0" stroke-linejoin="round" stroke-linecap="butt" d="m97.27559 336.49606l0 62.236206l114.897644 0" fill-rule="evenodd"/><path fill="#efefef" stroke="#efefef" stroke-width="2.0" stroke-linecap="butt" d="m212.17323 402.03574l9.076187 -3.3034668l-9.076187 -3.3034363z" fill-rule="evenodd"/><path fill="#000000" fill-opacity="0.0" d="m191.29396 336.49606l0 23.888336l48.692917 0l0 23.891205" fill-rule="evenodd"/><path stroke="#efefef" stroke-width="2.0" stroke-linejoin="round" stroke-linecap="butt" d="m191.29396 336.49606l0 23.888336l48.692917 0l0 11.891205" fill-rule="evenodd"/><path fill="#efefef" stroke="#efefef" stroke-width="2.0" stroke-linecap="butt" d="m236.68341 372.2756l3.3034668 9.076172l3.3034668 -9.076172z" fill-rule="evenodd"/><path fill="#000000" fill-opacity="0.0" d="m285.3609 325.30447l0 35.107513l-45.35434 0l0 23.853119" fill-rule="evenodd"/><path stroke="#efefef" stroke-width="2.0" stroke-linejoin="round" stroke-linecap="butt" d="m285.3609 325.30447l0 35.107513l-45.35434 0l0 11.853119" fill-rule="evenodd"/><path fill="#efefef" stroke="#efefef" stroke-width="2.0" stroke-linecap="butt" d="m236.7031 372.2651l3.3034668 9.076172l3.3034668 -9.076172z" fill-rule="evenodd"/><path fill="#000000" fill-opacity="0.0" d="m379.3176 355.6824l0 43.055115l-123.464554 0" fill-rule="evenodd"/><path stroke="#efefef" stroke-width="2.0" stroke-linejoin="round" stroke-linecap="butt" d="m379.31763 355.6824l0 43.055115l-111.4646 0" fill-rule="evenodd"/><path fill="#efefef" stroke="#efefef" stroke-width="2.0" stroke-linecap="butt" d="m267.85303 395.43408l-9.076172 3.3034363l9.076172 3.3034668z" fill-rule="evenodd"/><path fill="#000000" fill-opacity="0.0" d="m240.0 413.18634l0 11.304382l0.06298828 0l0 11.309814" fill-rule="evenodd"/><path stroke="#efefef" stroke-width="2.0" stroke-linejoin="round" stroke-linecap="butt" d="m240.0 413.18634l0 10.614349" fill-rule="evenodd"/><path fill="#efefef" stroke="#efefef" stroke-width="2.0" stroke-linecap="butt" d="m236.69658 423.81802l3.351059 9.058746l3.255783 -9.093414z" fill-rule="evenodd"/><path fill="#000000" fill-opacity="0.0" d="m255.6693 367.4042l51.244095 0l0 22.614166l-51.244095 0z" fill-rule="evenodd"/><path fill="#d9d9d9" d="m266.9349 387.1562l-2.21875 -7.265625l1.265625 0l1.15625 4.203125l0.4375 1.546875q0.015625 -0.109375 0.375 -1.5l1.15625 -4.25l1.25 0l1.09375 4.21875l0.359375 1.390625l0.421875 -1.40625l1.25 -4.203125l1.1875 0l-2.265625 7.265625l-1.28125 0l-1.15625 -4.34375l-0.28125 -1.234375l-1.46875 5.578125l-1.28125 0zm13.500977 -0.890625q-0.671875 0.578125 -1.3125 0.828125q-0.625 0.234375 -1.359375 0.234375q-1.1875 0 -1.84375 -0.578125q-0.640625 -0.59375 -0.640625 -1.515625q0 -0.53125 0.234375 -0.96875q0.25 -0.4375 0.640625 -0.703125q0.40625 -0.265625 0.890625 -0.40625q0.359375 -0.09375 1.09375 -0.1875q1.5 -0.171875 2.203125 -0.421875q0 -0.25 0 -0.3125q0 -0.765625 -0.34375 -1.0625q-0.46875 -0.421875 -1.40625 -0.421875q-0.859375 0 -1.28125 0.3125q-0.40625 0.296875 -0.609375 1.0625l-1.203125 -0.15625q0.15625 -0.78125 0.53125 -1.25q0.390625 -0.46875 1.09375 -0.71875q0.71875 -0.265625 1.65625 -0.265625q0.921875 0 1.5 0.21875q0.578125 0.21875 0.84375 0.546875q0.28125 0.328125 0.390625 0.84375q0.0625 0.3125 0.0625 1.125l0 1.640625q0 1.71875 0.078125 2.171875q0.078125 0.453125 0.3125 0.875l-1.28125 0q-0.1875 -0.390625 -0.25 -0.890625zm-0.09375 -2.75q-0.671875 0.265625 -2.015625 0.46875q-0.75 0.109375 -1.078125 0.25q-0.3125 0.125 -0.484375 0.390625q-0.171875 0.265625 -0.171875 0.578125q0 0.5 0.375 0.828125q0.375 0.328125 1.09375 0.328125q0.71875 0 1.265625 -0.3125q0.546875 -0.3125 0.8125 -0.859375q0.203125 -0.40625 0.203125 -1.21875l0 -0.453125zm3.1611328 -4.96875l0 -1.40625l1.21875 0l0 1.40625l-1.21875 0zm0 8.609375l0 -7.265625l1.21875 0l0 7.265625l-1.21875 0zm5.7822266 -1.09375l0.171875 1.078125q-0.515625 0.109375 -0.921875 0.109375q-0.671875 0 -1.046875 -0.203125q-0.359375 -0.21875 -0.515625 -0.5625q-0.140625 -0.34375 -0.140625 -1.453125l0 -4.171875l-0.90625 0l0 -0.96875l0.90625 0l0 -1.796875l1.21875 -0.734375l0 2.53125l1.234375 0l0 0.96875l-1.234375 0l0 4.234375q0 0.53125 0.0625 0.6875q0.0625 0.140625 0.203125 0.234375q0.15625 0.09375 0.421875 0.09375q0.21875 0 0.546875 -0.046875z" fill-rule="nonzero"/></g></svg>