<svg version="1.1" viewBox="0.0 0.0 360.0 332.3070866141732" fill="none" stroke="none" stroke-linecap="square" stroke-miterlimit="10" xmlns:xlink="http://www.w3.org/1999/xlink" xmlns="http://www.w3.org/2000/svg"><clipPath id="p.0"><path d="m0 0l360.0 0l0 332.3071l-360.0 0l0 -332.3071z" clip-rule="nonzero"/></clipPath><g clip-path="url(#p.0)"><path fill="#000000" fill-opacity="0.0" d="m0 0l360.0 0l0 332.3071l-360.0 0z" fill-rule="evenodd"/><path fill="#434343" d="m0 -0.53805774l360.0 0l0 332.31497l-360.0 0z" fill-rule="evenodd"/><path fill="#f1c232" d="m59.87664 214.2979l256.0522 0c3.9623108 0 7.7623596 1.5740204 10.564117 4.3758087c2.8017883 2.801773 4.375824 6.6018066 4.375824 10.564133l0 74.69786l-270.99213 0z" fill-rule="evenodd"/><path stroke="#b7b7b7" stroke-width="2.0" stroke-linejoin="round" stroke-linecap="butt" d="m59.87664 214.2979l256.0522 0c3.9623108 0 7.7623596 1.5740204 10.564117 4.3758087c2.8017883 2.801773 4.375824 6.6018066 4.375824 10.564133l0 74.69786l-270.99213 0z" fill-rule="evenodd"/><path fill="#000000" d="m121.968834 266.0368l0 -13.35939l5.6875 0q2.1406326 0 3.1093826 0.359375q0.96875 0.359375 1.546875 1.28125q0.578125 0.921875 0.578125 2.1093903q0 1.5 -0.890625 2.484375q-0.875 0.96875 -2.625 1.234375q0.875 0.5 1.4375 1.125q0.578125 0.609375 1.53125 2.15625l1.640625 2.609375l-3.234375 0l-1.9375 -2.90625q-1.0468826 -1.5625 -1.4375076 -1.96875q-0.375 -0.40625 -0.8125 -0.546875q-0.421875 -0.15625 -1.34375 -0.15625l-0.546875 0l0 5.578125l-2.703125 0zm2.703125 -7.703125l2.0 0q1.9375076 0 2.4218826 -0.15625q0.484375 -0.171875 0.75 -0.578125q0.28125 -0.40625 0.28125 -1.0q0 -0.67189026 -0.359375 -1.0781403q-0.359375 -0.421875 -1.015625 -0.53125q-0.328125 -0.046875 -1.9687576 -0.046875l-2.109375 0l0 3.3906403zm16.347954 4.625l2.546875 0.421875q-0.484375 1.40625 -1.546875 2.140625q-1.0625 0.734375 -2.65625 0.734375q-2.515625 0 -3.734375 -1.65625q-0.953125 -1.3125 -0.953125 -3.328125q0 -2.40625 1.25 -3.765625q1.265625 -1.359375 3.1875 -1.359375q2.15625 0 3.40625 1.421875q1.25 1.421875 1.1875 4.375l-6.40625 0q0.03125 1.140625 0.609375 1.78125q0.59375 0.625 1.484375 0.625q0.59375 0 1.0 -0.328125q0.421875 -0.328125 0.625 -1.0625zm0.15625 -2.59375q-0.03125 -1.109375 -0.578125 -1.6875q-0.546875 -0.578125 -1.328125 -0.578125q-0.84375 0 -1.390625 0.609375q-0.546875 0.609375 -0.53125 1.65625l3.828125 0zm4.547592 -4.0l2.390625 0l0 1.421875q0.46875 -0.734375 1.25 -1.1875q0.796875 -0.453125 1.765625 -0.453125q1.6875 0 2.859375 1.328125q1.171875 1.3125 1.171875 3.671875q0 2.421875 -1.1875 3.765625q-1.1875 1.34375 -2.859375 1.34375q-0.8125 0 -1.46875 -0.3125q-0.640625 -0.328125 -1.359375 -1.09375l0 4.875l-2.5625 0l0 -13.359375zm2.53125 4.671875q0 1.625 0.640625 2.40625q0.65625 0.78125 1.578125 0.78125q0.90625 0 1.484375 -0.71875q0.59375 -0.71875 0.59375 -2.34375q0 -1.515625 -0.609375 -2.25q-0.609375 -0.75 -1.515625 -0.75q-0.9375 0 -1.5625 0.734375q-0.609375 0.71875 -0.609375 2.140625zm14.536606 1.921875l2.546875 0.421875q-0.484375 1.40625 -1.546875 2.140625q-1.0625 0.734375 -2.65625 0.734375q-2.515625 0 -3.734375 -1.65625q-0.953125 -1.3125 -0.953125 -3.328125q0 -2.40625 1.25 -3.765625q1.265625 -1.359375 3.1875 -1.359375q2.15625 0 3.40625 1.421875q1.25 1.421875 1.1875 4.375l-6.40625 0q0.03125 1.140625 0.609375 1.78125q0.59375 0.625 1.484375 0.625q0.59375 0 1.0 -0.328125q0.421875 -0.328125 0.625 -1.0625zm0.15625 -2.59375q-0.03125 -1.109375 -0.578125 -1.6875q-0.546875 -0.578125 -1.328125 -0.578125q-0.84375 0 -1.390625 0.609375q-0.546875 0.609375 -0.53125 1.65625l3.828125 0zm9.063217 -4.0l0 2.03125l-1.75 0l0 3.90625q0 1.1875 0.046875 1.390625q0.046875 0.1875 0.21875 0.3125q0.1875 0.125 0.4375 0.125q0.359375 0 1.03125 -0.25l0.21875 2.0q-0.890625 0.375 -2.015625 0.375q-0.703125 0 -1.265625 -0.234375q-0.546875 -0.234375 -0.8125 -0.59375q-0.25 -0.375 -0.34375 -1.0q-0.09375 -0.453125 -0.09375 -1.8125l0 -4.21875l-1.171875 0l0 -2.03125l1.171875 0l0 -1.9218903l2.578125 -1.5l0 3.4218903l1.75 0zm1.775177 -1.3125153l0 -2.375l2.5625 0l0 2.375l-2.5625 0zm0 10.98439l0 -9.671875l2.5625 0l0 9.671875l-2.5625 0zm9.620804 -9.671875l0 2.03125l-1.75 0l0 3.90625q0 1.1875 0.046875 1.390625q0.046875 0.1875 0.21875 0.3125q0.1875 0.125 0.4375 0.125q0.359375 0 1.03125 -0.25l0.21875 2.0q-0.890625 0.375 -2.015625 0.375q-0.703125 0 -1.265625 -0.234375q-0.546875 -0.234375 -0.8125 -0.59375q-0.25 -0.375 -0.34375 -1.0q-0.09375 -0.453125 -0.09375 -1.8125l0 -4.21875l-1.171875 0l0 -2.03125l1.171875 0l0 -1.9218903l2.578125 -1.5l0 3.4218903l1.75 0zm1.775177 -1.3125153l0 -2.375l2.5625 0l0 2.375l-2.5625 0zm0 10.98439l0 -9.671875l2.5625 0l0 9.671875l-2.5625 0zm7.839554 0l-3.90625 -9.671875l2.6875 0l1.828125 4.9375l0.53125 1.640625q0.203125 -0.625 0.265625 -0.828125q0.125 -0.40625 0.265625 -0.8125l1.84375 -4.9375l2.625 0l-3.84375 9.671875l-2.296875 0zm13.313217 -3.078125l2.546875 0.421875q-0.484375 1.40625 -1.546875 2.140625q-1.0625 0.734375 -2.65625 0.734375q-2.515625 0 -3.734375 -1.65625q-0.953125 -1.3125 -0.953125 -3.328125q0 -2.40625 1.25 -3.765625q1.265625 -1.359375 3.1875 -1.359375q2.15625 0 3.40625 1.421875q1.25 1.421875 1.1875 4.375l-6.40625 0q0.03125 1.140625 0.609375 1.78125q0.59375 0.625 1.484375 0.625q0.59375 0 1.0 -0.328125q0.421875 -0.328125 0.625 -1.0625zm0.15625 -2.59375q-0.03125 -1.109375 -0.578125 -1.6875q-0.546875 -0.578125 -1.328125 -0.578125q-0.84375 0 -1.390625 0.609375q-0.546875 0.609375 -0.53125 1.65625l3.828125 0zm9.824646 -7.6875153l5.34375 0q1.59375 0 2.359375 0.140625q0.78125 0.125 1.390625 0.546875q0.625 0.421875 1.03125 1.125q0.40625 0.6875 0.40625 1.5468903q0 0.9375 -0.5 1.734375q-0.5 0.78125 -1.375 1.171875q1.21875 0.359375 1.875 1.21875q0.65625 0.84375 0.65625 2.0q0 0.921875 -0.421875 1.78125q-0.421875 0.859375 -1.15625 1.375q-0.734375 0.515625 -1.796875 0.625q-0.6875 0.078125 -3.265625 0.09375l-4.546875 0l0 -13.35939zm2.703125 2.234375l0 3.0781403l1.765625 0q1.578125 0 1.953125 -0.046875q0.703125 -0.078125 1.09375 -0.46875q0.40625 -0.40625 0.40625 -1.046875q0 -0.62501526 -0.34375 -1.0000153q-0.34375 -0.390625 -1.015625 -0.484375q-0.40625 -0.03125 -2.3125 -0.03125l-1.546875 0zm0 5.2968903l0 3.578125l2.5 0q1.453125 0 1.84375 -0.078125q0.609375 -0.109375 0.984375 -0.53125q0.375 -0.421875 0.375 -1.140625q0 -0.59375 -0.296875 -1.015625q-0.28125 -0.421875 -0.84375 -0.609375q-0.546875 -0.203125 -2.390625 -0.203125l-2.171875 0zm10.754196 5.828125l0 -13.35939l2.5625 0l0 13.35939l-2.5625 0zm4.589554 -4.96875q0 -1.28125 0.625 -2.46875q0.625 -1.203125 1.78125 -1.828125q1.15625 -0.625 2.578125 -0.625q2.1875 0 3.59375 1.421875q1.40625 1.421875 1.40625 3.609375q0 2.1875 -1.421875 3.640625q-1.421875 1.4375 -3.5625 1.4375q-1.328125 0 -2.546875 -0.59375q-1.203125 -0.609375 -1.828125 -1.765625q-0.625 -1.171875 -0.625 -2.828125zm2.625 0.125q0 1.453125 0.671875 2.21875q0.6875 0.75 1.6875 0.75q1.0 0 1.671875 -0.75q0.6875 -0.765625 0.6875 -2.234375q0 -1.421875 -0.6875 -2.1875q-0.671875 -0.765625 -1.671875 -0.765625q-1.0 0 -1.6875 0.765625q-0.671875 0.765625 -0.671875 2.203125zm17.80223 -1.96875l-2.53125 0.453125q-0.125 -0.75 -0.578125 -1.125q-0.453125 -0.390625 -1.171875 -0.390625q-0.953125 0 -1.53125 0.65625q-0.5625 0.65625 -0.5625 2.203125q0 1.734375 0.578125 2.4375q0.578125 0.703125 1.546875 0.703125q0.734375 0 1.203125 -0.40625q0.46875 -0.421875 0.65625 -1.421875l2.515625 0.421875q-0.390625 1.734375 -1.515625 2.625q-1.109375 0.875 -2.96875 0.875q-2.125 0 -3.390625 -1.328125q-1.25 -1.34375 -1.25 -3.71875q0 -2.390625 1.265625 -3.71875q1.265625 -1.34375 3.421875 -1.34375q1.765625 0 2.796875 0.765625q1.046875 0.75 1.515625 2.3125zm1.8444519 6.8125l0 -13.35939l2.5625 0l0 7.0937653l3.0 -3.40625l3.140625 0l-3.296875 3.53125l3.53125 6.140625l-2.75 0l-2.4375 -4.34375l-1.1875 1.25l0 3.09375l-2.5625 0z" fill-rule="nonzero"/><path fill="#000000" fill-opacity="0.0" d="m195.37265 70.04462l0 55.40158" fill-rule="evenodd"/><path stroke="#efefef" stroke-width="3.0" stroke-linejoin="round" stroke-linecap="butt" d="m195.37263 70.04462l0 37.40158" fill-rule="evenodd"/><path fill="#efefef" stroke="#efefef" stroke-width="3.0" stroke-linecap="butt" d="m190.41745 107.4462l4.955185 13.614288l4.9552 -13.614288z" fill-rule="evenodd"/><path fill="#cc0000" d="m54.44882 114.180984l0 21.186218l3.2837868 0l0 -21.186218z" fill-rule="evenodd"/><path fill="#cc0000" d="m70.685326 121.82594c1.617569 0 2.9695969 0.48975372 4.0560837 1.4692535c1.0905457 0.9762955 1.6358109 2.413437 1.6358109 4.311432c0 2.0136108 -0.541214 3.5117645 -1.6236496 4.4944763c-1.0824356 0.98272705 -2.4385147 1.4740753 -4.068245 1.4740753c-1.6418991 0 -3.0040588 -0.48814392 -4.0864944 -1.4644318c-1.0824356 -0.97950745 -1.6236496 -2.4519806 -1.6236496 -4.417412c0 -1.9654312 0.541214 -3.4346924 1.6236496 -4.407776c1.0824356 -0.97307587 2.4445953 -1.4596176 4.0864944 -1.4596176zm0 -2.153305c-2.3959503 0 -4.4270325 0.56842804 -6.093254 1.7052994c-1.9945946 1.3680954 -2.9918938 3.4732285 -2.9918938 6.315399c0 2.5916672 0.8351364 4.576378 2.5054054 5.954109c1.6743317 1.3777313 3.8675766 2.0665894 6.5797424 2.0665894c1.6905365 0 3.2493286 -0.31311035 4.6763535 -0.9393616c1.4310837 -0.62623596 2.5196 -1.5045776 3.2655487 -2.635025c0.75 -1.1336517 1.125 -2.6880188 1.125 -4.663086c0 -2.437523 -0.8452759 -4.346756 -2.5358124 -5.7276993c-1.6905441 -1.3841553 -3.8675766 -2.0762253 -6.53109 -2.0762253z" fill-rule="evenodd"/><path fill="#cc0000" d="m91.4644 121.82594c1.617569 0 2.9695969 0.48975372 4.0560837 1.4692535c1.0905457 0.9762955 1.6358185 2.413437 1.6358185 4.311432c0 2.0136108 -0.5412216 3.5117645 -1.6236572 4.4944763c-1.082428 0.98272705 -2.4385147 1.4740753 -4.068245 1.4740753c-1.6418915 0 -3.0040588 -0.48814392 -4.0864944 -1.4644318c-1.082428 -0.97950745 -1.6236496 -2.4519806 -1.6236496 -4.417412c0 -1.9654312 0.5412216 -3.4346924 1.6236496 -4.407776c1.0824356 -0.97307587 2.444603 -1.4596176 4.0864944 -1.4596176zm0 -2.153305c-2.3959503 0 -4.4270325 0.56842804 -6.0932465 1.7052994c-1.9945984 1.3680954 -2.9918976 3.4732285 -2.9918976 6.315399c0 2.5916672 0.8351364 4.576378 2.5054092 5.954109c1.674324 1.3777313 3.867569 2.0665894 6.579735 2.0665894c1.6905441 0 3.2493286 -0.31311035 4.676361 -0.9393616c1.431076 -0.62623596 2.5195923 -1.5045776 3.265541 -2.635025c0.75 -1.1336517 1.125 -2.6880188 1.125 -4.663086c0 -2.437523 -0.84526825 -4.346756 -2.5358124 -5.7276993c-1.6905441 -1.3841553 -3.867569 -2.0762253 -6.53109 -2.0762253z" fill-rule="evenodd"/><path fill="#cc0000" d="m112.68132 121.71033c1.4108124 0 2.6229782 0.48654175 3.6364899 1.4596252c1.0175705 0.97307587 1.5263519 2.437523 1.5263519 4.393318c0 2.052147 -0.5209427 3.5679703 -1.5628357 4.5474777c-1.0378418 0.97628784 -2.2864914 1.4644318 -3.7459564 1.4644318c-1.4351349 0 -2.6574326 -0.47209167 -3.666893 -1.4162598c-1.0094604 -0.94418335 -1.5141907 -2.4038086 -1.5141907 -4.3788757c0 -1.9750671 0.5371628 -3.4796524 1.6114883 -4.513748c1.0783768 -1.0373154 2.3168945 -1.5559692 3.7155457 -1.5559692zm0.3101349 -2.0376892c-1.2648697 0 -2.341217 0.19589996 -3.2290573 0.5876999c-0.8878403 0.38858795 -1.6844635 0.9730835 -2.3898697 1.7534714l0 -1.9943314l-2.9918976 0l0 21.22956l3.2837906 0l0 -7.471527c0.5594635 0.5587921 1.2729721 1.0212555 2.140541 1.3873596c0.8716202 0.36611938 1.8547363 0.5491638 2.9493256 0.5491638c1.4959488 0 2.9209518 -0.33399963 4.275009 -1.0019836c1.3581085 -0.6712036 2.391899 -1.6346436 3.1013565 -2.890335c0.71351624 -1.2589111 1.0702667 -2.6735687 1.0702667 -4.2439957c0 -1.4644394 -0.32229614 -2.810051 -0.9668884 -4.0368423c-0.6445999 -1.2300034 -1.5993271 -2.1822128 -2.8641968 -2.8566208c-1.2648621 -0.6744156 -2.724327 -1.0116196 -4.37838 -1.0116196z" fill-rule="evenodd"/><path fill="#cfe2f3" d="m155.17935 24.690289l80.3866 0l0 0c10.530853 0 19.06781 10.152912 19.06781 22.677166c0 12.524254 -8.536957 22.677162 -19.06781 22.677162l-80.3866 0l0 0c-10.530853 0 -19.06781 -10.152908 -19.06781 -22.677162c0 -12.524254 8.536957 -22.677166 19.06781 -22.677166z" fill-rule="evenodd"/><path stroke="#b7b7b7" stroke-width="2.0" stroke-linejoin="round" stroke-linecap="butt" d="m155.17935 24.690289l80.3866 0l0 0c10.530853 0 19.06781 10.152912 19.06781 22.677166c0 12.524254 -8.536957 22.677162 -19.06781 22.677162l-80.3866 0l0 0c-10.530853 0 -19.06781 -10.152908 -19.06781 -22.677162c0 -12.524254 8.536957 -22.677166 19.06781 -22.677166z" fill-rule="evenodd"/><path fill="#000000" d="m175.59161 51.521828l2.5625 -0.390625q0.171875 0.75 0.671875 1.140625q0.5 0.390625 1.40625 0.390625q0.984375 0 1.484375 -0.375q0.34375 -0.25 0.34375 -0.671875q0 -0.296875 -0.1875 -0.484375q-0.1875 -0.1875 -0.859375 -0.34375q-3.09375 -0.6875 -3.921875 -1.25q-1.140625 -0.78125 -1.140625 -2.171875q0 -1.265625 0.984375 -2.109375q1.0 -0.859375 3.078125 -0.859375q1.984375 0 2.953125 0.65625q0.96875 0.640625 1.328125 1.90625l-2.40625 0.4375q-0.15625 -0.5625 -0.59375 -0.859375q-0.421875 -0.296875 -1.234375 -0.296875q-1.0 0 -1.4375 0.28125q-0.296875 0.203125 -0.296875 0.515625q0 0.265625 0.25 0.46875q0.34375 0.25 2.390625 0.71875q2.046875 0.453125 2.859375 1.140625q0.796875 0.671875 0.796875 1.890625q0 1.34375 -1.109375 2.296875q-1.109375 0.953125 -3.28125 0.953125q-1.984375 0 -3.140625 -0.796875q-1.140625 -0.8125 -1.5 -2.1875zm15.719467 -6.90625l0 2.03125l-1.75 0l0 3.90625q0 1.1875 0.046875 1.390625q0.046875 0.1875 0.21875 0.3125q0.1875 0.125 0.4375 0.125q0.359375 0 1.03125 -0.25l0.21875 2.0q-0.890625 0.375 -2.015625 0.375q-0.703125 0 -1.265625 -0.234375q-0.546875 -0.234375 -0.8125 -0.59375q-0.25 -0.375 -0.34375 -1.0q-0.09375 -0.453125 -0.09375 -1.8125l0 -4.21875l-1.171875 0l0 -2.03125l1.171875 0l0 -1.921875l2.578125 -1.5l0 3.421875l1.75 0zm3.681427 2.953125l-2.328125 -0.421875q0.40625 -1.40625 1.359375 -2.078125q0.953125 -0.671875 2.84375 -0.671875q1.703125 0 2.546875 0.40625q0.84375 0.40625 1.171875 1.03125q0.34375 0.625 0.34375 2.28125l-0.015625 3.0q0 1.265625 0.109375 1.875q0.125 0.609375 0.46875 1.296875l-2.53125 0q-0.109375 -0.25 -0.25 -0.75q-0.0625 -0.234375 -0.09375 -0.3125q-0.65625 0.640625 -1.40625 0.96875q-0.734375 0.3125 -1.59375 0.3125q-1.484375 0 -2.34375 -0.8125q-0.859375 -0.8125 -0.859375 -2.046875q0 -0.828125 0.390625 -1.46875q0.390625 -0.640625 1.09375 -0.96875q0.703125 -0.34375 2.03125 -0.609375q1.796875 -0.328125 2.484375 -0.625l0 -0.25q0 -0.75 -0.359375 -1.0625q-0.359375 -0.3125 -1.375 -0.3125q-0.6875 0 -1.078125 0.28125q-0.375 0.265625 -0.609375 0.9375zm3.421875 2.078125q-0.484375 0.15625 -1.5625 0.390625q-1.0625 0.21875 -1.390625 0.4375q-0.5 0.359375 -0.5 0.90625q0 0.53125 0.40625 0.9375q0.40625 0.390625 1.015625 0.390625q0.703125 0 1.328125 -0.46875q0.46875 -0.34375 0.609375 -0.84375q0.09375 -0.328125 0.09375 -1.25l0 -0.5zm7.500717 4.640625l-2.5625 0l0 -9.671875l2.375 0l0 1.375q0.609375 -0.984375 1.09375 -1.28125q0.484375 -0.3125 1.109375 -0.3125q0.875 0 1.6875 0.484375l-0.796875 2.234375q-0.640625 -0.421875 -1.203125 -0.421875q-0.53125 0 -0.90625 0.296875q-0.375 0.296875 -0.59375 1.078125q-0.203125 0.765625 -0.203125 3.234375l0 2.984375zm9.244644 -9.671875l0 2.03125l-1.75 0l0 3.90625q0 1.1875 0.046875 1.390625q0.046875 0.1875 0.21875 0.3125q0.1875 0.125 0.4375 0.125q0.359375 0 1.03125 -0.25l0.21875 2.0q-0.890625 0.375 -2.015625 0.375q-0.703125 0 -1.265625 -0.234375q-0.546875 -0.234375 -0.8125 -0.59375q-0.25 -0.375 -0.34375 -1.0q-0.09375 -0.453125 -0.09375 -1.8125l0 -4.21875l-1.171875 0l0 -2.03125l1.171875 0l0 -1.921875l2.578125 -1.5l0 3.421875l1.75 0z" fill-rule="nonzero"/><path fill="#000000" fill-opacity="0.0" d="m59.87664 259.1168l-24.999828 0l0 -110.20471l137.03133 0" fill-rule="evenodd"/><path stroke="#cc0000" stroke-width="3.0" stroke-linejoin="round" stroke-linecap="butt" d="m59.87664 259.1168l-24.999828 0l0 -110.20471l119.03133 0" fill-rule="evenodd"/><path fill="#cc0000" stroke="#cc0000" stroke-width="3.0" stroke-linecap="butt" d="m153.90814 153.86726l13.614288 -4.955185l-13.614288 -4.9552z" fill-rule="evenodd"/><path fill="#e06666" d="m171.90683 148.89764l0 0c0 -12.959122 10.505432 -23.464577 23.464554 -23.464577l0 0c6.2231903 0 12.191498 2.4721527 16.591965 6.872612c4.4004517 4.400467 6.8726044 10.368774 6.8726044 16.591965l0 0c0 12.959122 -10.505432 23.464554 -23.46457 23.464554l0 0c-12.959122 0 -23.464554 -10.505432 -23.464554 -23.464554z" fill-rule="evenodd"/><path stroke="#cc0000" stroke-width="2.0" stroke-linejoin="round" stroke-linecap="butt" d="m171.90683 148.89764l0 0c0 -12.959122 10.505432 -23.464577 23.464554 -23.464577l0 0c6.2231903 0 12.191498 2.4721527 16.591965 6.872612c4.4004517 4.400467 6.8726044 10.368774 6.8726044 16.591965l0 0c0 12.959122 -10.505432 23.464554 -23.46457 23.464554l0 0c-12.959122 0 -23.464554 -10.505432 -23.464554 -23.464554z" fill-rule="evenodd"/><path fill="#000000" fill-opacity="0.0" d="m195.37138 172.3622l0 41.921265" fill-rule="evenodd"/><path stroke="#efefef" stroke-width="3.0" stroke-linejoin="round" stroke-linecap="butt" d="m195.37138 172.3622l0 23.921265" fill-rule="evenodd"/><path fill="#efefef" stroke="#efefef" stroke-width="3.0" stroke-linecap="butt" d="m190.4162 196.28346l4.955185 13.614288l4.9552 -13.614288z" fill-rule="evenodd"/></g></svg>