<svg version="1.1" viewBox="0.0 0.0 442.7795275590551 548.0209973753281" fill="none" stroke="none" stroke-linecap="square" stroke-miterlimit="10" xmlns:xlink="http://www.w3.org/1999/xlink" xmlns="http://www.w3.org/2000/svg"><clipPath id="p.0"><path d="m0 0l442.77954 0l0 548.021l-442.77954 0l0 -548.021z" clip-rule="nonzero"/></clipPath><g clip-path="url(#p.0)"><path fill="#000000" fill-opacity="0.0" d="m0 0l442.77954 0l0 548.021l-442.77954 0z" fill-rule="evenodd"/><path fill="#434343" d="m-1.1076115 -0.88451445l442.77164 0l0 548.0315l-442.77164 0z" fill-rule="evenodd"/><path fill="#cfe2f3" d="m111.125984 231.77785l216.76096 0c2.8554688 0 5.593994 1.1343384 7.6131287 3.153473c2.0191345 2.0191345 3.153473 4.75766 3.153473 7.613144l0 53.831818l-227.52756 0z" fill-rule="evenodd"/><path stroke="#6d9eeb" stroke-width="2.0" stroke-linejoin="round" stroke-linecap="butt" d="m111.125984 231.77785l216.76096 0c2.8554688 0 5.593994 1.1343384 7.6131287 3.153473c2.0191345 2.0191345 3.153473 4.75766 3.153473 7.613144l0 53.831818l-227.52756 0z" fill-rule="evenodd"/><path fill="#000000" d="m152.09706 270.99707l0 -13.359375l5.6875 0q2.140625 0 3.109375 0.359375q0.96875 0.359375 1.546875 1.28125q0.578125 0.921875 0.578125 2.109375q0 1.5 -0.890625 2.484375q-0.875 0.96875 -2.625 1.234375q0.875 0.5 1.4375 1.125q0.578125 0.609375 1.53125 2.15625l1.640625 2.609375l-3.234375 0l-1.9375 -2.90625q-1.046875 -1.5625 -1.4375 -1.96875q-0.375 -0.40625 -0.8125 -0.546875q-0.421875 -0.15625 -1.34375 -0.15625l-0.546875 0l0 5.578125l-2.703125 0zm2.703125 -7.703125l2.0 0q1.9375 0 2.421875 -0.15625q0.484375 -0.171875 0.75 -0.578125q0.28125 -0.40625 0.28125 -1.0q0 -0.671875 -0.359375 -1.078125q-0.359375 -0.421875 -1.015625 -0.53125q-0.328125 -0.046875 -1.96875 -0.046875l-2.109375 0l0 3.390625zm16.347946 4.625l2.546875 0.421875q-0.484375 1.40625 -1.546875 2.140625q-1.0625 0.734375 -2.65625 0.734375q-2.515625 0 -3.734375 -1.65625q-0.953125 -1.3125 -0.953125 -3.328125q0 -2.40625 1.25 -3.765625q1.265625 -1.359375 3.1875 -1.359375q2.15625 0 3.40625 1.421875q1.25 1.421875 1.1875 4.375l-6.40625 0q0.03125 1.140625 0.609375 1.78125q0.59375 0.625 1.484375 0.625q0.59375 0 1.0 -0.328125q0.421875 -0.328125 0.625 -1.0625zm0.15625 -2.59375q-0.03125 -1.109375 -0.578125 -1.6875q-0.546875 -0.578125 -1.328125 -0.578125q-0.84375 0 -1.390625 0.609375q-0.546875 0.609375 -0.53125 1.65625l3.828125 0zm4.547592 -4.0l2.390625 0l0 1.421875q0.46875 -0.734375 1.25 -1.1875q0.796875 -0.453125 1.765625 -0.453125q1.6875 0 2.859375 1.328125q1.171875 1.3125 1.171875 3.671875q0 2.421875 -1.1875 3.765625q-1.1875 1.34375 -2.859375 1.34375q-0.8125 0 -1.46875 -0.3125q-0.640625 -0.328125 -1.359375 -1.09375l0 4.875l-2.5625 0l0 -13.359375zm2.53125 4.671875q0 1.625 0.640625 2.40625q0.65625 0.78125 1.578125 0.78125q0.90625 0 1.484375 -0.71875q0.59375 -0.71875 0.59375 -2.34375q0 -1.515625 -0.609375 -2.25q-0.609375 -0.75 -1.515625 -0.75q-0.9375 0 -1.5625 0.734375q-0.609375 0.71875 -0.609375 2.140625zm14.536606 1.921875l2.546875 0.421875q-0.484375 1.40625 -1.546875 2.140625q-1.0625 0.734375 -2.65625 0.734375q-2.515625 0 -3.734375 -1.65625q-0.953125 -1.3125 -0.953125 -3.328125q0 -2.40625 1.25 -3.765625q1.265625 -1.359375 3.1875 -1.359375q2.15625 0 3.40625 1.421875q1.25 1.421875 1.1875 4.375l-6.40625 0q0.03125 1.140625 0.609375 1.78125q0.59375 0.625 1.484375 0.625q0.59375 0 1.0 -0.328125q0.421875 -0.328125 0.625 -1.0625zm0.15625 -2.59375q-0.03125 -1.109375 -0.578125 -1.6875q-0.546875 -0.578125 -1.328125 -0.578125q-0.84375 0 -1.390625 0.609375q-0.546875 0.609375 -0.53125 1.65625l3.828125 0zm9.063217 -4.0l0 2.03125l-1.75 0l0 3.90625q0 1.1875 0.046875 1.390625q0.046875 0.1875 0.21875 0.3125q0.1875 0.125 0.4375 0.125q0.359375 0 1.03125 -0.25l0.21875 2.0q-0.890625 0.375 -2.015625 0.375q-0.703125 0 -1.265625 -0.234375q-0.546875 -0.234375 -0.8125 -0.59375q-0.25 -0.375 -0.34375 -1.0q-0.09375 -0.453125 -0.09375 -1.8125l0 -4.21875l-1.171875 0l0 -2.03125l1.171875 0l0 -1.921875l2.578125 -1.5l0 3.421875l1.75 0zm1.775177 -1.3125l0 -2.375l2.5625 0l0 2.375l-2.5625 0zm0 10.984375l0 -9.671875l2.5625 0l0 9.671875l-2.5625 0zm9.620804 -9.671875l0 2.03125l-1.75 0l0 3.90625q0 1.1875 0.046875 1.390625q0.046875 0.1875 0.21875 0.3125q0.1875 0.125 0.4375 0.125q0.359375 0 1.03125 -0.25l0.21875 2.0q-0.890625 0.375 -2.015625 0.375q-0.703125 0 -1.265625 -0.234375q-0.546875 -0.234375 -0.8125 -0.59375q-0.25 -0.375 -0.34375 -1.0q-0.09375 -0.453125 -0.09375 -1.8125l0 -4.21875l-1.171875 0l0 -2.03125l1.171875 0l0 -1.921875l2.578125 -1.5l0 3.421875l1.75 0zm1.775177 -1.3125l0 -2.375l2.5625 0l0 2.375l-2.5625 0zm0 10.984375l0 -9.671875l2.5625 0l0 9.671875l-2.5625 0zm7.839554 0l-3.90625 -9.671875l2.6875 0l1.828125 4.9375l0.53125 1.640625q0.203125 -0.625 0.265625 -0.828125q0.125 -0.40625 0.265625 -0.8125l1.84375 -4.9375l2.625 0l-3.84375 9.671875l-2.296875 0zm13.313217 -3.078125l2.546875 0.421875q-0.484375 1.40625 -1.546875 2.140625q-1.0625 0.734375 -2.65625 0.734375q-2.515625 0 -3.734375 -1.65625q-0.953125 -1.3125 -0.953125 -3.328125q0 -2.40625 1.25 -3.765625q1.265625 -1.359375 3.1875 -1.359375q2.15625 0 3.40625 1.421875q1.2500153 1.421875 1.1875153 4.375l-6.4062653 0q0.03125 1.140625 0.609375 1.78125q0.59375 0.625 1.484375 0.625q0.59375 0 1.0 -0.328125q0.421875 -0.328125 0.625 -1.0625zm0.15625 -2.59375q-0.03125 -1.109375 -0.578125 -1.6875q-0.546875 -0.578125 -1.328125 -0.578125q-0.84375 0 -1.390625 0.609375q-0.546875 0.609375 -0.53125 1.65625l3.828125 0zm9.824661 -7.6875l5.34375 0q1.59375 0 2.359375 0.140625q0.78125 0.125 1.390625 0.546875q0.62498474 0.421875 1.0312347 1.125q0.40625 0.6875 0.40625 1.546875q0 0.9375 -0.5 1.734375q-0.49998474 0.78125 -1.3749847 1.171875q1.2187347 0.359375 1.8749847 1.21875q0.65625 0.84375 0.65625 2.0q0 0.921875 -0.421875 1.78125q-0.421875 0.859375 -1.15625 1.375q-0.73435974 0.515625 -1.7968597 0.625q-0.6875 0.078125 -3.265625 0.09375l-4.546875 0l0 -13.359375zm2.703125 2.234375l0 3.078125l1.765625 0q1.578125 0 1.953125 -0.046875q0.703125 -0.078125 1.09375 -0.46875q0.40625 -0.40625 0.40625 -1.046875q0 -0.625 -0.34375 -1.0q-0.34375 -0.390625 -1.015625 -0.484375q-0.40625 -0.03125 -2.3125 -0.03125l-1.546875 0zm0 5.296875l0 3.578125l2.5 0q1.453125 0 1.84375 -0.078125q0.609375 -0.109375 0.984375 -0.53125q0.375 -0.421875 0.375 -1.140625q0 -0.59375 -0.296875 -1.015625q-0.28125 -0.421875 -0.84375 -0.609375q-0.546875 -0.203125 -2.390625 -0.203125l-2.171875 0zm10.754166 5.828125l0 -13.359375l2.5625 0l0 13.359375l-2.5625 0zm4.589569 -4.96875q0 -1.28125 0.625 -2.46875q0.625 -1.203125 1.78125 -1.828125q1.15625 -0.625 2.578125 -0.625q2.1875 0 3.59375 1.421875q1.40625 1.421875 1.40625 3.609375q0 2.1875 -1.421875 3.640625q-1.421875 1.4375 -3.5625 1.4375q-1.328125 0 -2.546875 -0.59375q-1.203125 -0.609375 -1.828125 -1.765625q-0.625 -1.171875 -0.625 -2.828125zm2.625 0.125q0 1.453125 0.671875 2.21875q0.6875 0.75 1.6875 0.75q1.0 0 1.671875 -0.75q0.6875 -0.765625 0.6875 -2.234375q0 -1.421875 -0.6875 -2.1875q-0.671875 -0.765625 -1.671875 -0.765625q-1.0 0 -1.6875 0.765625q-0.671875 0.765625 -0.671875 2.203125zm17.802216 -1.96875l-2.53125 0.453125q-0.125 -0.75 -0.578125 -1.125q-0.453125 -0.390625 -1.171875 -0.390625q-0.953125 0 -1.53125 0.65625q-0.5625 0.65625 -0.5625 2.203125q0 1.734375 0.578125 2.4375q0.578125 0.703125 1.546875 0.703125q0.734375 0 1.203125 -0.40625q0.46875 -0.421875 0.65625 -1.421875l2.515625 0.421875q-0.390625 1.734375 -1.515625 2.625q-1.109375 0.875 -2.96875 0.875q-2.125 0 -3.390625 -1.328125q-1.25 -1.34375 -1.25 -3.71875q0 -2.390625 1.265625 -3.71875q1.265625 -1.34375 3.421875 -1.34375q1.765625 0 2.796875 0.765625q1.046875 0.75 1.515625 2.3125zm1.8444824 6.8125l0 -13.359375l2.5625 0l0 7.09375l3.0 -3.40625l3.140625 0l-3.296875 3.53125l3.53125 6.140625l-2.75 0l-2.4375 -4.34375l-1.1875 1.25l0 3.09375l-2.5625 0z" fill-rule="nonzero"/><path fill="#000000" fill-opacity="0.0" d="m224.88971 70.04199l0 55.40158" fill-rule="evenodd"/><path stroke="#efefef" stroke-width="3.0" stroke-linejoin="round" stroke-linecap="butt" d="m224.88971 70.04199l0 37.40158" fill-rule="evenodd"/><path fill="#efefef" stroke="#efefef" stroke-width="3.0" stroke-linecap="butt" d="m219.93451 107.44357l4.9552 13.614288l4.955185 -13.614288z" fill-rule="evenodd"/><path fill="#e06666" d="m38.09718 363.745c0 2.4873657 0.7594528 4.389496 2.2783546 5.70636l-1.9658966 0l0 2.7349854l13.826359 0l0 -3.0388794l-7.551117 0c-1.770607 0 -2.9727097 -0.46896362 -3.6063118 -1.4068909c-0.6335983 -0.9416809 -0.9503975 -2.0596924 -0.9503975 -3.3540344c0 -0.8103943 0.1417656 -1.5157166 0.42529297 -2.1159668c0.28063583 -0.6040344 0.6581917 -1.024231 1.1326675 -1.2605896c0.47158432 -0.23635864 1.184742 -0.35455322 2.1394806 -0.35455322l8.410385 0l0 -3.0388794l-8.501518 0c-1.0849304 0 -1.8443832 0.056274414 -2.2783546 0.16882324c-0.6683159 0.18008423 -1.2454987 0.49523926 -1.7315483 0.9454346c-0.48604965 0.4501953 -0.87807083 1.1292725 -1.1760635 2.037201c-0.30088806 0.9041443 -0.4513321 1.8964844 -0.4513321 2.9769897z" fill-rule="evenodd"/><path fill="#e06666" d="m40.037037 345.68045c0 -1.4969482 0.44120407 -2.7481384 1.3236122 -3.753601c0.8795204 -1.0092163 2.174202 -1.5138245 3.8840523 -1.5138245c1.814003 0 3.1636581 0.5008545 4.0489616 1.5025635c0.8853035 1.001709 1.3279572 2.2566833 1.3279572 3.764862c0 1.5194397 -0.43976212 2.7800293 -1.3192787 3.7817383c-0.88240814 1.001709 -2.2089157 1.5025635 -3.9795227 1.5025635c-1.770607 0 -3.094223 -0.5008545 -3.970848 -1.5025635c-0.87662506 -1.001709 -1.3149338 -2.2622986 -1.3149338 -3.7817383zm-1.9398575 0c0 2.2172546 0.5120888 4.096863 1.5362625 5.6388245c1.2324791 1.8458557 3.1289406 2.7687683 5.689377 2.7687683c2.3347702 0 4.122734 -0.77285767 5.3638954 -2.3185425c1.2411613 -1.549469 1.8617401 -3.5791626 1.8617401 -6.0890503c0 -1.5644836 -0.2820816 -3.007019 -0.8462448 -4.327606c-0.5641632 -1.3243713 -1.355442 -2.3316956 -2.373829 -3.0220032c-1.0212822 -0.6940918 -2.421566 -1.0411072 -4.2008514 -1.0411072c-2.1959 0 -3.9158745 0.78222656 -5.159931 2.3466797c-1.2469444 1.5644836 -1.8704185 3.5791626 -1.8704185 6.044037z" fill-rule="evenodd"/><path stroke="#cc0000" stroke-width="1.0" stroke-linejoin="round" stroke-linecap="butt" d="m38.09718 363.745c0 2.4873657 0.7594528 4.389496 2.2783546 5.70636l-1.9658966 0l0 2.7349854l13.826359 0l0 -3.0388794l-7.551117 0c-1.770607 0 -2.9727097 -0.46896362 -3.6063118 -1.4068909c-0.6335983 -0.9416809 -0.9503975 -2.0596924 -0.9503975 -3.3540344c0 -0.8103943 0.1417656 -1.5157166 0.42529297 -2.1159668c0.28063583 -0.6040344 0.6581917 -1.024231 1.1326675 -1.2605896c0.47158432 -0.23635864 1.184742 -0.35455322 2.1394806 -0.35455322l8.410385 0l0 -3.0388794l-8.501518 0c-1.0849304 0 -1.8443832 0.056274414 -2.2783546 0.16882324c-0.6683159 0.18008423 -1.2454987 0.49523926 -1.7315483 0.9454346c-0.48604965 0.4501953 -0.87807083 1.1292725 -1.1760635 2.037201c-0.30088806 0.9041443 -0.4513321 1.8964844 -0.4513321 2.9769897z" fill-rule="evenodd"/><path stroke="#cc0000" stroke-width="1.0" stroke-linejoin="round" stroke-linecap="butt" d="m40.037037 345.68045c0 -1.4969482 0.44120407 -2.7481384 1.3236122 -3.753601c0.8795204 -1.0092163 2.174202 -1.5138245 3.8840523 -1.5138245c1.814003 0 3.1636581 0.5008545 4.0489616 1.5025635c0.8853035 1.001709 1.3279572 2.2566833 1.3279572 3.764862c0 1.5194397 -0.43976212 2.7800293 -1.3192787 3.7817383c-0.88240814 1.001709 -2.2089157 1.5025635 -3.9795227 1.5025635c-1.770607 0 -3.094223 -0.5008545 -3.970848 -1.5025635c-0.87662506 -1.001709 -1.3149338 -2.2622986 -1.3149338 -3.7817383zm-1.9398575 0c0 2.2172546 0.5120888 4.096863 1.5362625 5.6388245c1.2324791 1.8458557 3.1289406 2.7687683 5.689377 2.7687683c2.3347702 0 4.122734 -0.77285767 5.3638954 -2.3185425c1.2411613 -1.549469 1.8617401 -3.5791626 1.8617401 -6.0890503c0 -1.5644836 -0.2820816 -3.007019 -0.8462448 -4.327606c-0.5641632 -1.3243713 -1.355442 -2.3316956 -2.373829 -3.0220032c-1.0212822 -0.6940918 -2.421566 -1.0411072 -4.2008514 -1.0411072c-2.1959 0 -3.9158745 0.78222656 -5.159931 2.3466797c-1.2469444 1.5644836 -1.8704185 3.5791626 -1.8704185 6.044037z" fill-rule="evenodd"/><path fill="#cfe2f3" d="m184.69641 24.687664l80.3866 0l0 0c10.530853 0 19.06781 10.152912 19.06781 22.677166c0 12.524254 -8.536957 22.677162 -19.06781 22.677162l-80.3866 0l0 0c-10.530853 0 -19.067795 -10.152908 -19.067795 -22.677162c0 -12.524254 8.536942 -22.677166 19.067795 -22.677166z" fill-rule="evenodd"/><path stroke="#6d9eeb" stroke-width="2.0" stroke-linejoin="round" stroke-linecap="butt" d="m184.69641 24.687664l80.3866 0l0 0c10.530853 0 19.06781 10.152912 19.06781 22.677166c0 12.524254 -8.536957 22.677162 -19.06781 22.677162l-80.3866 0l0 0c-10.530853 0 -19.067795 -10.152908 -19.067795 -22.677162c0 -12.524254 8.536942 -22.677166 19.067795 -22.677166z" fill-rule="evenodd"/><path fill="#000000" d="m205.10869 51.519203l2.5625 -0.390625q0.171875 0.75 0.671875 1.140625q0.5 0.390625 1.40625 0.390625q0.984375 0 1.484375 -0.375q0.34375 -0.25 0.34375 -0.671875q0 -0.296875 -0.1875 -0.484375q-0.1875 -0.1875 -0.859375 -0.34375q-3.09375 -0.6875 -3.921875 -1.25q-1.140625 -0.78125 -1.140625 -2.171875q0 -1.265625 0.984375 -2.109375q1.0 -0.859375 3.078125 -0.859375q1.984375 0 2.953125 0.65625q0.96875 0.640625 1.328125 1.90625l-2.40625 0.4375q-0.15625 -0.5625 -0.59375 -0.859375q-0.421875 -0.296875 -1.234375 -0.296875q-1.0 0 -1.4375 0.28125q-0.296875 0.203125 -0.296875 0.515625q0 0.265625 0.25 0.46875q0.34375 0.25 2.390625 0.71875q2.046875 0.453125 2.859375 1.140625q0.796875 0.671875 0.796875 1.890625q0 1.34375 -1.109375 2.296875q-1.109375 0.953125 -3.28125 0.953125q-1.984375 0 -3.140625 -0.796875q-1.140625 -0.8125 -1.5 -2.1875zm15.719467 -6.90625l0 2.03125l-1.75 0l0 3.90625q0 1.1875 0.046875 1.390625q0.046875 0.1875 0.21875 0.3125q0.1875 0.125 0.4375 0.125q0.359375 0 1.03125 -0.25l0.21875 2.0q-0.890625 0.375 -2.015625 0.375q-0.703125 0 -1.265625 -0.234375q-0.546875 -0.234375 -0.8125 -0.59375q-0.25 -0.375 -0.34375 -1.0q-0.09375 -0.453125 -0.09375 -1.8125l0 -4.21875l-1.171875 0l0 -2.03125l1.171875 0l0 -1.921875l2.578125 -1.5l0 3.421875l1.75 0zm3.681427 2.953125l-2.328125 -0.421875q0.40625 -1.40625 1.359375 -2.078125q0.953125 -0.671875 2.84375 -0.671875q1.703125 0 2.546875 0.40625q0.84375 0.40625 1.171875 1.03125q0.34375 0.625 0.34375 2.28125l-0.015625 3.0q0 1.265625 0.109375 1.875q0.125 0.609375 0.46875 1.296875l-2.53125 0q-0.109375 -0.25 -0.25 -0.75q-0.0625 -0.234375 -0.09375 -0.3125q-0.65625 0.640625 -1.40625 0.96875q-0.734375 0.3125 -1.59375 0.3125q-1.484375 0 -2.34375 -0.8125q-0.859375 -0.8125 -0.859375 -2.046875q0 -0.828125 0.390625 -1.46875q0.390625 -0.640625 1.09375 -0.96875q0.703125 -0.34375 2.03125 -0.609375q1.796875 -0.328125 2.484375 -0.625l0 -0.25q0 -0.75 -0.359375 -1.0625q-0.359375 -0.3125 -1.375 -0.3125q-0.6875 0 -1.078125 0.28125q-0.375 0.265625 -0.609375 0.9375zm3.421875 2.078125q-0.484375 0.15625 -1.5625 0.390625q-1.0625 0.21875 -1.390625 0.4375q-0.5 0.359375 -0.5 0.90625q0 0.53125 0.40625 0.9375q0.40625 0.390625 1.015625 0.390625q0.703125 0 1.328125 -0.46875q0.46875 -0.34375 0.609375 -0.84375q0.09375 -0.328125 0.09375 -1.25l0 -0.5zm7.500717 4.640625l-2.5625 0l0 -9.671875l2.375 0l0 1.375q0.609375 -0.984375 1.09375 -1.28125q0.484375 -0.3125 1.109375 -0.3125q0.875 0 1.6875 0.484375l-0.796875 2.234375q-0.640625 -0.421875 -1.203125 -0.421875q-0.53125 0 -0.90625 0.296875q-0.375 0.296875 -0.59375 1.078125q-0.203125 0.765625 -0.203125 3.234375l0 2.984375zm9.244644 -9.671875l0 2.03125l-1.75 0l0 3.90625q0 1.1875 0.046875 1.390625q0.046875 0.1875 0.21875 0.3125q0.1875 0.125 0.4375 0.125q0.359375 0 1.03125 -0.25l0.21875 2.0q-0.890625 0.375 -2.015625 0.375q-0.703125 0 -1.265625 -0.234375q-0.546875 -0.234375 -0.8125 -0.59375q-0.25 -0.375 -0.34375 -1.0q-0.09375 -0.453125 -0.09375 -1.8125l0 -4.21875l-1.171875 0l0 -2.03125l1.171875 0l0 -1.921875l2.578125 -1.5l0 3.421875l1.75 0z" fill-rule="nonzero"/><path fill="#000000" fill-opacity="0.0" d="m89.3937 406.3937l-24.999825 0l0 -257.5118l137.03133 0" fill-rule="evenodd"/><path stroke="#cc0000" stroke-width="3.0" stroke-linejoin="round" stroke-linecap="butt" d="m89.3937 406.3937l-24.999832 0l0 -257.5118l119.031334 0" fill-rule="evenodd"/><path fill="#cc0000" stroke="#cc0000" stroke-width="3.0" stroke-linecap="butt" d="m183.4252 153.83708l13.614288 -4.955185l-13.614288 -4.9552z" fill-rule="evenodd"/><path fill="#f9cb9c" d="m201.42389 148.89502l0 0c0 -12.959122 10.505447 -23.464577 23.46457 -23.464577l0 0c6.2231903 0 12.191483 2.4721527 16.59195 6.872612c4.4004517 4.400467 6.8726044 10.368774 6.8726044 16.591965l0 0c0 12.959122 -10.505432 23.464554 -23.464554 23.464554l0 0c-12.959122 0 -23.46457 -10.505432 -23.46457 -23.464554z" fill-rule="evenodd"/><path stroke="#e06666" stroke-width="2.0" stroke-linejoin="round" stroke-linecap="butt" d="m201.42389 148.89502l0 0c0 -12.959122 10.505447 -23.464577 23.46457 -23.464577l0 0c6.2231903 0 12.191483 2.4721527 16.59195 6.872612c4.4004517 4.400467 6.8726044 10.368774 6.8726044 16.591965l0 0c0 12.959122 -10.505432 23.464554 -23.464554 23.464554l0 0c-12.959122 0 -23.46457 -10.505432 -23.46457 -23.464554z" fill-rule="evenodd"/><path fill="#000000" fill-opacity="0.0" d="m224.88846 172.35957l0 59.433075" fill-rule="evenodd"/><path stroke="#efefef" stroke-width="3.0" stroke-linejoin="round" stroke-linecap="butt" d="m224.88846 172.35957l0 41.433075" fill-rule="evenodd"/><path fill="#efefef" stroke="#efefef" stroke-width="3.0" stroke-linecap="butt" d="m219.93326 213.79265l4.9552 13.614288l4.955185 -13.614288z" fill-rule="evenodd"/><path fill="#f9cb9c" d="m89.3937 406.3937l135.49606 -50.59842l135.49606 50.59842l-135.49606 50.59842z" fill-rule="evenodd"/><path stroke="#e06666" stroke-width="2.0" stroke-linejoin="round" stroke-linecap="butt" d="m89.3937 406.3937l135.49606 -50.59842l135.49606 50.59842l-135.49606 50.59842z" fill-rule="evenodd"/><path fill="#000000" d="m215.24342 388.23557l2.546875 0.421875q-0.484375 1.40625 -1.546875 2.140625q-1.0625 0.734375 -2.65625 0.734375q-2.515625 0 -3.734375 -1.65625q-0.953125 -1.3125 -0.953125 -3.328125q0 -2.40625 1.25 -3.765625q1.265625 -1.359375 3.1875 -1.359375q2.15625 0 3.40625 1.421875q1.25 1.421875 1.1875 4.375l-6.40625 0q0.03125 1.140625 0.609375 1.78125q0.59375 0.625 1.484375 0.625q0.59375 0 1.0 -0.328125q0.421875 -0.328125 0.625 -1.0625zm0.15625 -2.59375q-0.03125 -1.109375 -0.578125 -1.6875q-0.546875 -0.578125 -1.328125 -0.578125q-0.84375 0 -1.390625 0.609375q-0.546875 0.609375 -0.53125 1.65625l3.828125 0zm13.422592 5.671875l-2.5625 0l0 -4.9375q0 -1.5625 -0.171875 -2.015625q-0.15625 -0.46875 -0.53125 -0.71875q-0.359375 -0.265625 -0.875 -0.265625q-0.671875 0 -1.203125 0.375q-0.53125 0.359375 -0.734375 0.96875q-0.1875 0.59375 -0.1875 2.21875l0 4.375l-2.546875 0l0 -9.671875l2.375 0l0 1.421875q1.265625 -1.640625 3.1875 -1.640625q0.84375 0 1.546875 0.3125q0.703125 0.296875 1.0625 0.78125q0.359375 0.46875 0.5 1.078125q0.140625 0.59375 0.140625 1.703125l0 6.015625zm11.474106 0l-2.390625 0l0 -1.421875q-0.59375 0.828125 -1.40625 1.234375q-0.796875 0.40625 -1.609375 0.40625q-1.671875 0 -2.859375 -1.34375q-1.1875 -1.34375 -1.1875 -3.75q0 -2.453125 1.15625 -3.734375q1.15625 -1.28125 2.921875 -1.28125q1.625 0 2.8125 1.34375l0 -4.8125l2.5625 0l0 13.359375zm-6.84375 -5.046875q0 1.546875 0.4375 2.234375q0.609375 1.015625 1.71875 1.015625q0.890625 0 1.5 -0.75q0.625 -0.765625 0.625 -2.25q0 -1.671875 -0.609375 -2.40625q-0.59375 -0.734375 -1.53125 -0.734375q-0.90625 0 -1.53125 0.734375q-0.609375 0.71875 -0.609375 2.15625z" fill-rule="nonzero"/><path fill="#000000" d="m186.19084 413.3137l-2.5625 0l0 -9.671875l2.375 0l0 1.375q0.609375 -0.984375 1.09375 -1.28125q0.484375 -0.3125 1.109375 -0.3125q0.875 0 1.6875 0.484375l-0.796875 2.234375q-0.640625 -0.421875 -1.203125 -0.421875q-0.53125 0 -0.90625 0.296875q-0.375 0.296875 -0.59375 1.078125q-0.203125 0.765625 -0.203125 3.234375l0 2.984375zm10.400894 -3.078125l2.546875 0.421875q-0.484375 1.40625 -1.546875 2.140625q-1.0625 0.734375 -2.65625 0.734375q-2.515625 0 -3.734375 -1.65625q-0.953125 -1.3125 -0.953125 -3.328125q0 -2.40625 1.25 -3.765625q1.265625 -1.359375 3.1875 -1.359375q2.15625 0 3.40625 1.421875q1.25 1.421875 1.1875 4.375l-6.40625 0q0.03125 1.140625 0.609375 1.78125q0.59375 0.625 1.484375 0.625q0.59375 0 1.0 -0.328125q0.421875 -0.328125 0.625 -1.0625zm0.15625 -2.59375q-0.03125 -1.109375 -0.578125 -1.6875q-0.546875 -0.578125 -1.328125 -0.578125q-0.84375 0 -1.390625 0.609375q-0.546875 0.609375 -0.53125 1.65625l3.828125 0zm4.547592 -4.0l2.390625 0l0 1.421875q0.46875 -0.734375 1.25 -1.1875q0.796875 -0.453125 1.765625 -0.453125q1.6875 0 2.859375 1.328125q1.171875 1.3125 1.171875 3.671875q0 2.421875 -1.1875 3.765625q-1.1875 1.34375 -2.859375 1.34375q-0.8125 0 -1.46875 -0.3125q-0.640625 -0.328125 -1.359375 -1.09375l0 4.875l-2.5625 0l0 -13.359375zm2.53125 4.671875q0 1.625 0.640625 2.40625q0.65625 0.78125 1.578125 0.78125q0.90625 0 1.484375 -0.71875q0.59375 -0.71875 0.59375 -2.34375q0 -1.515625 -0.609375 -2.25q-0.609375 -0.75 -1.515625 -0.75q-0.9375 0 -1.5625 0.734375q-0.609375 0.71875 -0.609375 2.140625zm14.536606 1.921875l2.546875 0.421875q-0.484375 1.40625 -1.546875 2.140625q-1.0625 0.734375 -2.65625 0.734375q-2.515625 0 -3.734375 -1.65625q-0.953125 -1.3125 -0.953125 -3.328125q0 -2.40625 1.25 -3.765625q1.265625 -1.359375 3.1875 -1.359375q2.15625 0 3.40625 1.421875q1.25 1.421875 1.1875 4.375l-6.40625 0q0.03125 1.140625 0.609375 1.78125q0.59375 0.625 1.484375 0.625q0.59375 0 1.0 -0.328125q0.421875 -0.328125 0.625 -1.0625zm0.15625 -2.59375q-0.03125 -1.109375 -0.578125 -1.6875q-0.546875 -0.578125 -1.328125 -0.578125q-0.84375 0 -1.390625 0.609375q-0.546875 0.609375 -0.53125 1.65625l3.828125 0zm9.063217 -4.0l0 2.03125l-1.75 0l0 3.90625q0 1.1875 0.046875 1.390625q0.046875 0.1875 0.21875 0.3125q0.1875 0.125 0.4375 0.125q0.359375 0 1.03125 -0.25l0.21875 2.0q-0.890625 0.375 -2.015625 0.375q-0.703125 0 -1.265625 -0.234375q-0.546875 -0.234375 -0.8125 -0.59375q-0.25 -0.375 -0.34375 -1.0q-0.09375 -0.453125 -0.09375 -1.8125l0 -4.21875l-1.171875 0l0 -2.03125l1.171875 0l0 -1.921875l2.578125 -1.5l0 3.421875l1.75 0zm1.775177 -1.3125l0 -2.375l2.5625 0l0 2.375l-2.5625 0zm0 10.984375l0 -9.671875l2.5625 0l0 9.671875l-2.5625 0zm9.620804 -9.671875l0 2.03125l-1.75 0l0 3.90625q0 1.1875 0.046875 1.390625q0.046875 0.1875 0.21875 0.3125q0.1875 0.125 0.4375 0.125q0.359375 0 1.03125 -0.25l0.21875 2.0q-0.890625 0.375 -2.015625 0.375q-0.703125 0 -1.265625 -0.234375q-0.546875 -0.234375 -0.8125 -0.59375q-0.25 -0.375 -0.34375 -1.0q-0.09375 -0.453125 -0.09375 -1.8125l0 -4.21875l-1.171875 0l0 -2.03125l1.171875 0l0 -1.921875l2.578125 -1.5l0 3.421875l1.75 0zm1.775177 -1.3125l0 -2.375l2.5625 0l0 2.375l-2.5625 0zm0 10.984375l0 -9.671875l2.5625 0l0 9.671875l-2.5625 0zm4.589554 -4.96875q0 -1.28125 0.625 -2.46875q0.625 -1.203125 1.78125 -1.828125q1.15625 -0.625 2.578125 -0.625q2.1875 0 3.59375 1.421875q1.40625 1.421875 1.40625 3.609375q0 2.1875 -1.421875 3.640625q-1.421875 1.4375 -3.5625 1.4375q-1.328125 0 -2.546875 -0.59375q-1.203125 -0.609375 -1.828125 -1.765625q-0.625 -1.171875 -0.625 -2.828125zm2.625 0.125q0 1.453125 0.671875 2.21875q0.6875 0.75 1.6875 0.75q1.0 0 1.671875 -0.75q0.6875 -0.765625 0.6875 -2.234375q0 -1.421875 -0.6875 -2.1875q-0.671875 -0.765625 -1.671875 -0.765625q-1.0 0 -1.6875 0.765625q-0.671875 0.765625 -0.671875 2.203125zm18.161606 4.84375l-2.5625 0l0 -4.9375q0 -1.5625 -0.171875 -2.015625q-0.15625 -0.46875 -0.53125 -0.71875q-0.359375 -0.265625 -0.875 -0.265625q-0.671875 0 -1.203125 0.375q-0.53125 0.359375 -0.734375 0.96875q-0.1875 0.59375 -0.1875 2.21875l0 4.375l-2.546875 0l0 -9.671875l2.375 0l0 1.421875q1.265625 -1.640625 3.1875 -1.640625q0.84375 0 1.546875 0.3125q0.703125 0.296875 1.0625 0.78125q0.359375 0.46875 0.5 1.078125q0.140625 0.59375 0.140625 1.703125l0 6.015625z" fill-rule="nonzero"/><path fill="#000000" d="m226.03552 431.8762l-2.328125 0q0 -0.5 0 -0.609375q0 -1.140625 0.359375 -1.859375q0.375 -0.734375 1.5 -1.640625q1.125 -0.921875 1.34375 -1.203125q0.328125 -0.4375 0.328125 -0.984375q0 -0.734375 -0.59375 -1.265625q-0.59375 -0.546875 -1.609375 -0.546875q-0.96875 0 -1.625 0.5625q-0.65625 0.546875 -0.90625 1.6875l-2.34375 -0.28125q0.09375 -1.640625 1.375 -2.765625q1.296875 -1.140625 3.390625 -1.140625q2.203125 0 3.5 1.15625q1.3125 1.140625 1.3125 2.671875q0 0.84375 -0.484375 1.609375q-0.46875 0.75 -2.03125 2.046875q-0.8125 0.6875 -1.015625 1.09375q-0.1875 0.40625 -0.171875 1.46875zm-2.328125 3.4375l0 -2.5625l2.5625 0l0 2.5625l-2.5625 0z" fill-rule="nonzero"/><path fill="#000000" fill-opacity="0.0" d="m224.88977 296.37628l0 59.433075" fill-rule="evenodd"/><path stroke="#efefef" stroke-width="3.0" stroke-linejoin="round" stroke-linecap="butt" d="m224.88977 296.37628l0 41.433075" fill-rule="evenodd"/><path fill="#efefef" stroke="#efefef" stroke-width="3.0" stroke-linecap="butt" d="m219.93457 337.80936l4.9552 13.614288l4.955185 -13.614288z" fill-rule="evenodd"/><path fill="#cfe2f3" d="m184.69641 485.23358l80.3866 0l0 0c10.530853 0 19.06781 10.152924 19.06781 22.677185c0 12.524231 -8.536957 22.677185 -19.06781 22.677185l-80.3866 0l0 0c-10.530853 0 -19.067795 -10.152954 -19.067795 -22.677185c0 -12.524261 8.536942 -22.677185 19.067795 -22.677185z" fill-rule="evenodd"/><path stroke="#6d9eeb" stroke-width="2.0" stroke-linejoin="round" stroke-linecap="butt" d="m184.69641 485.23358l80.3866 0l0 0c10.530853 0 19.06781 10.152924 19.06781 22.677185c0 12.524231 -8.536957 22.677185 -19.06781 22.677185l-80.3866 0l0 0c-10.530853 0 -19.067795 -10.152954 -19.067795 -22.677185c0 -12.524261 8.536942 -22.677185 19.067795 -22.677185z" fill-rule="evenodd"/><path fill="#000000" d="m205.63704 512.0651l2.5625 -0.390625q0.171875 0.75 0.671875 1.140625q0.5 0.390625 1.40625 0.390625q0.984375 0 1.484375 -0.375q0.34375 -0.25 0.34375 -0.671875q0 -0.296875 -0.1875 -0.484375q-0.1875 -0.1875 -0.859375 -0.34375q-3.09375 -0.6875 -3.921875 -1.25q-1.140625 -0.78125 -1.140625 -2.171875q0 -1.265625 0.984375 -2.109375q1.0 -0.859375 3.078125 -0.859375q1.984375 0 2.953125 0.65625q0.96875 0.640625 1.328125 1.90625l-2.40625 0.4375q-0.15625 -0.5625 -0.59375 -0.859375q-0.421875 -0.296875 -1.234375 -0.296875q-1.0 0 -1.4375 0.28125q-0.296875 0.203125 -0.296875 0.515625q0 0.265625 0.25 0.46875q0.34375 0.25 2.390625 0.71875q2.046875 0.453125 2.859375 1.140625q0.796875 0.671875 0.796875 1.890625q0 1.34375 -1.109375 2.296875q-1.109375 0.953125 -3.28125 0.953125q-1.984375 0 -3.140625 -0.796875q-1.140625 -0.8125 -1.5 -2.1875zm15.719467 -6.90625l0 2.03125l-1.75 0l0 3.90625q0 1.1875 0.046875 1.390625q0.046875 0.1875 0.21875 0.3125q0.1875 0.125 0.4375 0.125q0.359375 0 1.03125 -0.25l0.21875 2.0q-0.890625 0.375 -2.015625 0.375q-0.703125 0 -1.265625 -0.234375q-0.546875 -0.234375 -0.8125 -0.59375q-0.25 -0.375 -0.34375 -1.0q-0.09375 -0.453125 -0.09375 -1.8125l0 -4.21875l-1.171875 0l0 -2.03125l1.171875 0l0 -1.921875l2.578125 -1.5l0 3.421875l1.75 0zm1.181427 4.703125q0 -1.28125 0.625 -2.46875q0.625 -1.203125 1.78125 -1.828125q1.15625 -0.625 2.578125 -0.625q2.1875 0 3.59375 1.421875q1.40625 1.421875 1.40625 3.609375q0 2.1875 -1.421875 3.640625q-1.421875 1.4375 -3.5625 1.4375q-1.328125 0 -2.546875 -0.59375q-1.203125 -0.609375 -1.828125 -1.765625q-0.625 -1.171875 -0.625 -2.828125zm2.625 0.125q0 1.453125 0.671875 2.21875q0.6875 0.75 1.6875 0.75q1.0 0 1.671875 -0.75q0.6875 -0.765625 0.6875 -2.234375q0 -1.421875 -0.6875 -2.1875q-0.671875 -0.765625 -1.671875 -0.765625q-1.0 0 -1.6875 0.765625q-0.671875 0.765625 -0.671875 2.203125zm9.286606 -4.828125l2.390625 0l0 1.421875q0.46875 -0.734375 1.25 -1.1875q0.796875 -0.453125 1.765625 -0.453125q1.6875 0 2.859375 1.328125q1.171875 1.3125 1.171875 3.671875q0 2.421875 -1.1875 3.765625q-1.1875 1.34375 -2.859375 1.34375q-0.8125 0 -1.46875 -0.3125q-0.640625 -0.328125 -1.359375 -1.09375l0 4.875l-2.5625 0l0 -13.359375zm2.53125 4.671875q0 1.625 0.640625 2.40625q0.65625 0.78125 1.578125 0.78125q0.90625 0 1.484375 -0.71875q0.59375 -0.71875 0.59375 -2.34375q0 -1.515625 -0.609375 -2.25q-0.609375 -0.75 -1.515625 -0.75q-0.9375 0 -1.5625 0.734375q-0.609375 0.71875 -0.609375 2.140625z" fill-rule="nonzero"/><path fill="#000000" fill-opacity="0.0" d="m360.38583 406.3937l25.000305 0l0 101.51181l-101.220795 0" fill-rule="evenodd"/><path stroke="#efefef" stroke-width="3.0" stroke-linejoin="round" stroke-linecap="butt" d="m360.38583 406.3937l25.000336 0l0 101.51181l-83.220825 0" fill-rule="evenodd"/><path fill="#efefef" stroke="#efefef" stroke-width="3.0" stroke-linecap="butt" d="m302.16534 502.95032l-13.614288 4.9552l13.614288 4.9552z" fill-rule="evenodd"/><path fill="#93c47d" d="m408.06436 432.8832l-11.806885 6.3625183c-0.21453857 -0.11578369 -0.37728882 -0.19998169 -0.48825073 -0.2526245c-0.79156494 -0.39996338 -1.2872009 -0.6893921 -1.4869385 -0.86831665c-0.2663269 -0.24209595 -0.47348022 -0.5525818 -0.62142944 -0.93148804c-0.14794922 -0.37890625 -0.22192383 -0.88412476 -0.22192383 -1.5156555c0 -0.46310425 0.059173584 -1.0051575 0.17755127 -1.6261292l0 0l-1.8753357 0.31573486c-0.16275024 0.673645 -0.24414062 1.2840881 -0.24414062 1.8314209c0 0.90515137 0.15411377 1.684021 0.46237183 2.336609c0.30575562 0.6525574 0.7878723 1.2314453 1.4462585 1.7366638c0.48825073 0.37890625 1.3796997 0.9104309 2.6743164 1.594574l11.9844055 6.378296l0 -2.8418274l-6.868866 -3.5838318c-0.8729248 -0.4526062 -1.7680664 -0.842041 -2.6853943 -1.1683044c0.9543152 -0.35787964 1.8642578 -0.76309204 2.7297974 -1.2156677l6.824463 -3.4891357z" fill-rule="evenodd"/><path fill="#93c47d" d="m406.68835 457.57547c0 1.4419556 -0.38467407 2.615509 -1.1540527 3.520691c-0.495636 0.5894165 -1.2391357 0.9472656 -2.2304382 1.0735779l0 -9.362213c1.0282898 0.09472656 1.8494568 0.585907 2.4634705 1.4735413c0.6140137 0.8911133 0.9210205 1.9892578 0.9210205 3.294403zm1.6423035 -0.031585693c0 -2.3155518 -0.5474243 -4.199585 -1.6423035 -5.652069c-1.0948792 -1.4524841 -2.633606 -2.178711 -4.616211 -2.178711c-1.9160156 0 -3.4054565 0.71746826 -4.4682617 2.1524048c-1.0603333 1.438446 -1.5905151 3.3838806 -1.5905151 5.8362427c0 1.9471741 0.33288574 3.5470276 0.99868774 4.79953c0.665802 1.2525024 1.6016235 2.110321 2.8074646 2.5734253l0.2552185 -2.936554c-0.8433533 -0.43151855 -1.457367 -1.015686 -1.842041 -1.7524414c-0.38467407 -0.7367859 -0.57702637 -1.6261597 -0.57702637 -2.6681519c0 -1.3998718 0.34399414 -2.5681763 1.0319824 -3.5049133c0.6879883 -0.9367676 1.6792908 -1.4577637 2.9739075 -1.5630188l0 12.504028c0.23672485 0.010528564 0.41427612 0.015777588 0.5326538 0.015777588c1.9456177 0 3.454773 -0.7104492 4.5274353 -2.1313782c1.0726929 -1.4208984 1.6090088 -3.2522888 1.6090088 -5.494171z" fill-rule="evenodd"/><path fill="#93c47d" d="m408.33066 474.15274c0 -0.8735962 -0.08013916 -1.69281 -0.24041748 -2.4576416c-0.1578064 -0.761322 -0.3514099 -1.3630371 -0.580719 -1.8050842c-0.29592896 -0.5894165 -0.6682739 -1.0560303 -1.1170654 -1.3998718c-0.4463501 -0.3403015 -0.9321289 -0.5104675 -1.457367 -0.5104675c-0.57702637 0 -1.1047363 0.20700073 -1.5831299 0.6210022c-0.47592163 0.41748047 -0.8495178 1.0279541 -1.120758 1.8313904c-0.26879883 0.8069458 -0.58813477 2.252411 -0.9580078 4.3363953c-0.27371216 1.5472107 -0.49935913 2.5155334 -0.6769104 2.9049683c-0.25891113 0.5578613 -0.6140137 0.8367615 -1.0652771 0.8367615c-0.50305176 0 -0.9419861 -0.31573486 -1.316803 -0.9472656c-0.37234497 -0.63150024 -0.5585327 -1.5998535 -0.5585327 -2.9049683c0 -1.2946167 0.21084595 -2.3032837 0.6325073 -3.026001c0.42166138 -0.7192383 1.0282898 -1.1578064 1.8198547 -1.3156738l-0.31069946 -2.8102417c-1.2502441 0.31576538 -2.193451 1.0437622 -2.8296509 2.1839905c-0.63623047 1.1437378 -0.9543152 2.8049927 -0.9543152 4.9837036c0 1.3156738 0.16027832 2.4945068 0.48086548 3.536499c0.32302856 1.0419922 0.7779846 1.8384094 1.3648682 2.3892212c0.58935547 0.5543518 1.2169495 0.83151245 1.8827515 0.83151245c0.6805725 0 1.2502136 -0.22628784 1.7088928 -0.67889404c0.45864868 -0.45257568 0.80758667 -1.0770874 1.0467834 -1.8735046c0.24163818 -0.7928772 0.55111694 -2.1944885 0.92840576 -4.204834c0.2663269 -1.3893127 0.4364624 -2.2260742 0.510437 -2.510254c0.14056396 -0.49468994 0.31811523 -0.8578186 0.5326538 -1.089386c0.20715332 -0.23153687 0.44015503 -0.34732056 0.6990967 -0.34732056c0.40686035 0 0.7619629 0.27890015 1.0652771 0.8367615c0.3033142 0.5578308 0.45495605 1.4893188 0.45495605 2.7944336c0 1.1051636 -0.1701355 1.9594727 -0.510437 2.5629272c-0.3403015 0.6069336 -0.8137512 0.9735718 -1.4203796 1.099884l0.2663269 2.778656c0.7619629 -0.17892456 1.369812 -0.5052185 1.8235474 -0.9788513c0.45620728 -0.4736328 0.81744385 -1.2086487 1.0837708 -2.2050476c0.2663269 -0.9928589 0.3994751 -2.1471252 0.3994751 -3.462799z" fill-rule="evenodd"/><path fill="#a4c2f4" d="m264.72964 139.04854l0 18.296265l2.8659363 0l0 -18.296265z" fill-rule="evenodd"/><path fill="#a4c2f4" d="m278.90005 145.65067c1.4117432 0 2.5917053 0.42294312 3.5399475 1.2688446c0.9517822 0.8431244 1.4276428 2.0842285 1.4276428 3.7233124c0 1.7389374 -0.47232056 3.0327454 -1.4170227 3.8814087c-0.94470215 0.84866333 -2.1282349 1.272995 -3.5505676 1.272995c-1.4329529 0 -2.6217957 -0.42155457 -3.5664978 -1.264679c-0.94467163 -0.84588623 -1.4170227 -2.117508 -1.4170227 -3.8148346c0 -1.6973419 0.47235107 -2.9661713 1.4170227 -3.8065186c0.94470215 -0.8403473 2.133545 -1.2605286 3.5664978 -1.2605286zm0 -1.8595734c-2.0910645 0 -3.8637085 0.4908905 -5.3179016 1.4726868c-1.7407837 1.1814728 -2.6111755 2.9994507 -2.6111755 5.4539337c0 2.238144 0.72888184 3.952118 2.186615 5.141922c1.4612732 1.1897888 3.3754272 1.7846832 5.742462 1.7846832c1.4754333 0 2.835846 -0.270401 4.081299 -0.81121826c1.2489624 -0.54081726 2.1989746 -1.2993469 2.850006 -2.275589c0.654541 -0.97901917 0.98184204 -2.32135 0.98184204 -4.027008c0 -2.1050262 -0.73773193 -3.75383 -2.2131348 -4.946396c-1.4754333 -1.195343 -3.3754272 -1.7930145 -5.700012 -1.7930145z" fill-rule="evenodd"/><path fill="#a4c2f4" d="m297.035 145.65067c1.4117432 0 2.5917053 0.42294312 3.5399475 1.2688446c0.9517822 0.8431244 1.4276428 2.0842285 1.4276428 3.7233124c0 1.7389374 -0.47232056 3.0327454 -1.4170227 3.8814087c-0.94470215 0.84866333 -2.1282349 1.272995 -3.5505676 1.272995c-1.4329529 0 -2.6217957 -0.42155457 -3.5664978 -1.264679c-0.94467163 -0.84588623 -1.4170227 -2.117508 -1.4170227 -3.8148346c0 -1.6973419 0.47235107 -2.9661713 1.4170227 -3.8065186c0.94470215 -0.8403473 2.133545 -1.2605286 3.5664978 -1.2605286zm0 -1.8595734c-2.0910645 0 -3.8637085 0.4908905 -5.3179016 1.4726868c-1.7407837 1.1814728 -2.6111755 2.9994507 -2.6111755 5.4539337c0 2.238144 0.72888184 3.952118 2.186615 5.141922c1.4612732 1.1897888 3.3754272 1.7846832 5.742462 1.7846832c1.4754028 0 2.835846 -0.270401 4.081299 -0.81121826c1.2489624 -0.54081726 2.1989746 -1.2993469 2.850006 -2.275589c0.654541 -0.97901917 0.98184204 -2.32135 0.98184204 -4.027008c0 -2.1050262 -0.73773193 -3.75383 -2.2131348 -4.946396c-1.4754333 -1.195343 -3.3754272 -1.7930145 -5.700012 -1.7930145z" fill-rule="evenodd"/><path fill="#a4c2f4" d="m315.55206 145.55083c1.2312927 0 2.289215 0.42016602 3.173767 1.2605133c0.8880615 0.8403473 1.3321228 2.1050262 1.3321228 3.7940369c0 1.7722168 -0.45465088 3.0812836 -1.3639832 3.9271698c-0.9057617 0.8431244 -1.9955444 1.264679 -3.269287 1.264679c-1.2525024 0 -2.319275 -0.40768433 -3.2002869 -1.2230835c-0.88098145 -0.8153839 -1.3215027 -2.0758972 -1.3215027 -3.7815552c0 -1.705658 0.46881104 -3.005005 1.4064331 -3.8980408c0.9411621 -0.895813 2.0220642 -1.3437195 3.2427368 -1.3437195zm0.27069092 -1.7597351c-1.1039124 0 -2.0433044 0.1691742 -2.8181763 0.50753784c-0.7748718 0.33558655 -1.4701233 0.8403473 -2.0857544 1.5142822l0 -1.72229l-2.6111755 0l0 18.333694l2.8659363 0l0 -6.452362c0.48825073 0.48257446 1.1109619 0.88194275 1.8681335 1.1981201c0.76071167 0.3161621 1.6187439 0.47424316 2.5740356 0.47424316c1.305603 0 2.5492554 -0.28842163 3.731018 -0.8652954c1.1853027 -0.5796509 2.0875244 -1.4116821 2.7066956 -2.4960785c0.6227417 -1.0871887 0.93408203 -2.3088837 0.93408203 -3.6650848c0 -1.264679 -0.28128052 -2.4267426 -0.84384155 -3.4861908c-0.56259155 -1.0622101 -1.395813 -1.8845367 -2.4997253 -2.4669495c-1.1039124 -0.5824127 -2.377655 -0.8736267 -3.821228 -0.8736267z" fill-rule="evenodd"/></g></svg>