<svg version="1.1" viewBox="0.0 0.0 448.04461942257217 206.48556430446195" fill="none" stroke="none" stroke-linecap="square" stroke-miterlimit="10" xmlns:xlink="http://www.w3.org/1999/xlink" xmlns="http://www.w3.org/2000/svg"><clipPath id="p.0"><path d="m0 0l448.04462 0l0 206.48557l-448.04462 0l0 -206.48557z" clip-rule="nonzero"/></clipPath><g clip-path="url(#p.0)"><path fill="#000000" fill-opacity="0.0" d="m0 0l448.04462 0l0 206.48557l-448.04462 0z" fill-rule="evenodd"/><path fill="#434343" d="m0 -0.7506562l448.0315 0l0 206.48819l-448.0315 0z" fill-rule="evenodd"/><path fill="#000000" fill-opacity="0.0" d="m19.63548 107.39883l425.5118 0l0 56.34646l-425.5118 0z" fill-rule="evenodd"/><path fill="#000000" d="m34.60423 130.83444q1.765625 0 1.765625 1.875q0 1.890625 -1.765625 1.890625q-1.75 0 -1.75 -1.890625q0 -1.875 1.75 -1.875zm11.195572 0q1.765625 0 1.765625 1.875q0 1.890625 -1.765625 1.890625q-1.75 0 -1.75 -1.890625q0 -1.875 1.75 -1.875zm11.195572 0q1.765625 0 1.765625 1.875q0 1.890625 -1.765625 1.890625q-1.75 0 -1.75 -1.890625q0 -1.875 1.75 -1.875z" fill-rule="nonzero"/><path fill="#e06666" d="m36.869854 156.31882l-0.109375 -1.6875l0.0625 0.046875q-0.53125 1.0625 -1.359375 1.453125q-0.8125 0.375 -2.046875 0.375q-1.6249981 0 -2.593748 -0.890625q-0.953125 -0.90625 -0.953125 -2.46875q0 -3.390625 4.999998 -3.546875l1.484375 -0.046875l0 -0.265625q0 -1.78125 -1.84375 -1.78125q-1.265625 0 -3.171873 0.875l-0.890625 -1.921875q2.187498 -1.078125 3.984373 -1.078125q2.21875 0 3.25 0.90625q1.046875 0.890625 1.046875 2.8125l0 7.21875l-1.859375 0zm-0.53125 -4.875l-1.078125 0.046875q-1.671875 0.078125 -2.296875 0.484375q-0.625 0.390625 -0.625 1.1875q0 1.25 1.4375 1.25q1.203125 0 1.875 -0.625q0.6875 -0.640625 0.6875 -1.828125l0 -0.515625zm6.851822 3.453125l0.109375 -0.125q0.375 1.0625 0.375 1.375l0 4.65625l-2.40625 0l0 -15.234375l2.03125 0l0 1.640625l-0.0625 -0.03125q0.859375 -1.796875 3.0 -1.796875q2.015625 0 3.15625 1.5q1.140625 1.484375 1.140625 4.046875q0 2.578125 -1.140625 4.078125q-1.140625 1.5 -3.15625 1.5q-2.078125 0 -3.046875 -1.609375zm0.484375 -4.34375l0 0.375q0 1.9375 0.53125 2.703125q0.546875 0.75 1.75 0.75q2.09375 0 2.09375 -3.46875q0 -3.40625 -2.109375 -3.40625q-1.203125 0 -1.71875 0.6875q-0.5 0.671875 -0.546875 2.359375zm10.711197 4.34375l0.109375 -0.125q0.375 1.0625 0.375 1.375l0 4.65625l-2.40625 0l0 -15.234375l2.03125 0l0 1.640625l-0.0625 -0.03125q0.859375 -1.796875 3.0 -1.796875q2.015625 0 3.15625 1.5q1.140625 1.484375 1.140625 4.046875q0 2.578125 -1.140625 4.078125q-1.140625 1.5 -3.15625 1.5q-2.078125 0 -3.046875 -1.609375zm0.484375 -4.34375l0 0.375q0 1.9375 0.53125 2.703125q0.546875 0.75 1.75 0.75q2.09375 0 2.09375 -3.46875q0 -3.40625 -2.109375 -3.40625q-1.203125 0 -1.71875 0.6875q-0.5 0.671875 -0.546875 2.359375zm12.195576 -7.140625l-2.4375 -0.1875l0 -1.828125l4.859375 0l0 12.890625l3.203125 0.171875l0 1.859375l-8.750004 0l0 -1.859375l3.1250038 -0.171875l0 -10.875zm6.914322 2.15625l2.515625 0l2.484375 6.1875q0.78125 1.921875 0.53125 2.71875l-0.0625 -0.015625q-0.09375 -1.046875 0.515625 -2.703125l2.265625 -6.1875l2.546875 0l-4.53125 11.8125q-0.625 1.65625 -1.53125 2.53125q-0.890625 0.890625 -2.484375 0.890625q-0.8125 0 -1.90625 -0.21875l0 -2.09375q0.96875 0.1875 1.625 0.1875q0.75 0 1.140625 -0.296875q0.390625 -0.296875 0.734375 -1.125l0.46875 -1.21875l-4.3125 -10.46875z" fill-rule="nonzero"/><path fill="#f3f3f3" d="m101.746414 156.50632q-2.140625 0 -3.515625 -1.53125q-1.375 -1.546875 -1.375 -4.046875q0 -2.546875 1.328125 -4.046875q1.34375 -1.5 3.609375 -1.5q2.15625 0 3.515625 1.53125q1.375 1.53125 1.375 4.015625q0 2.546875 -1.34375 4.0625q-1.34375 1.515625 -3.59375 1.515625zm0.03125 -2.125q2.453125 0 2.453125 -3.453125q0 -3.421875 -2.46875 -3.421875q-2.4375 0 -2.4375 3.421875q0 3.453125 2.453125 3.453125zm8.586197 0.515625l0.109375 -0.078125l-0.140625 1.5l-1.890625 0l0 -14.921875l2.40625 0l0 3.796875q0 0.75 -0.375 2.0l-0.0625 -0.046875q0.84375 -1.765625 3.0 -1.765625q2.015625 0 3.15625 1.5q1.140625 1.484375 1.140625 4.046875q0 2.578125 -1.140625 4.078125q-1.140625 1.5 -3.15625 1.5q-2.078125 0 -3.046875 -1.609375zm0.484375 -3.96875q0 1.9375 0.53125 2.703125q0.546875 0.75 1.75 0.75q2.09375 0 2.09375 -3.46875q0 -3.40625 -2.109375 -3.40625q-1.234375 0 -1.75 0.734375q-0.515625 0.734375 -0.515625 2.6875zm14.492447 -9.484375q1.359375 0 1.359375 1.421875q0 1.421875 -1.359375 1.421875q-1.34375 0 -1.34375 -1.421875q0 -1.421875 1.34375 -1.421875zm-5.90625 18.9375l0 -2.171875q1.640625 0.46875 3.0 0.46875q0.921875 0 1.40625 -0.421875q0.484375 -0.40625 0.484375 -1.15625l0 -9.484375l-3.828125 -0.1875l0 -1.859375l6.234375 0l0 11.4375q0 1.8125 -1.15625 2.796875q-1.140625 1.0 -3.15625 1.0q-1.546875 0 -2.984375 -0.421875zm20.695572 -8.75l-7.046875 0q0.0625 2.671875 2.75 2.671875q1.703125 0 3.75 -0.875l0 2.25q-1.8125 0.828125 -3.6875 0.828125q-2.390625 0 -3.84375 -1.46875q-1.4375 -1.484375 -1.4375 -4.015625q0 -2.5625 1.328125 -4.09375q1.34375 -1.546875 3.578125 -1.546875q2.078125 0 3.34375 1.328125q1.265625 1.328125 1.265625 3.515625l0 1.40625zm-6.984375 -2.09375l4.4375 0q0 -2.03125 -2.09375 -2.03125q-2.171875 0 -2.34375 2.03125zm17.976822 -3.453125l-0.859375 2.140625q-1.640625 -0.640625 -2.640625 -0.640625q-3.0 0 -3.0 3.390625q0 3.328125 2.90625 3.328125q1.375 0 3.296875 -0.734375l0 2.234375q-1.515625 0.703125 -3.359375 0.703125q-2.5 0 -3.90625 -1.4375q-1.40625 -1.4375 -1.40625 -4.078125q0 -2.703125 1.421875 -4.15625q1.4375 -1.453125 4.0 -1.453125q1.671875 0 3.546875 0.703125zm10.711197 8.0625l0 1.984375q-1.515625 0.375 -2.671875 0.375q-3.671875 0 -3.671875 -3.515625l0 -5.421875l-2.4375 0l0 -1.546875l2.515625 -0.46875l0.71875 -2.65625l1.609375 0l0 2.671875l3.984375 0l0 2.0l-3.984375 0l0 5.421875q0 1.40625 1.375 1.40625q0.8125 0 2.5625 -0.25zm7.117447 -1.3125q1.765625 0 1.765625 1.875q0 1.890625 -1.765625 1.890625q-1.75 0 -1.75 -1.890625q0 -1.875 1.75 -1.875zm14.133072 3.484375l0 -6.8125q0 -1.25 -0.171875 -1.625q-0.171875 -0.375 -0.5 -0.375q-0.5625 0 -0.859375 0.609375q-0.28125 0.609375 -0.28125 2.3125l0 5.890625l-2.21875 0l0 -6.8125q0 -2.0 -0.765625 -2.0q-0.53125 0 -0.796875 0.578125q-0.25 0.578125 -0.25 2.671875l0 5.5625l-2.21875 0l0 -10.75l1.84375 0l0.015625 1.609375l-0.09375 -0.03125q0.453125 -1.765625 1.921875 -1.765625q1.765625 0 2.0 1.96875l-0.046875 0q0.484375 -1.96875 2.046875 -1.96875q1.359375 0 1.96875 0.984375q0.625 0.96875 0.625 3.046875l0 6.90625l-2.21875 0zm13.023697 -4.6875l-7.046875 0q0.0625 2.671875 2.75 2.671875q1.703125 0 3.75 -0.875l0 2.25q-1.8125 0.828125 -3.6875 0.828125q-2.390625 0 -3.84375 -1.46875q-1.4375 -1.484375 -1.4375 -4.015625q0 -2.5625 1.328125 -4.09375q1.34375 -1.546875 3.578125 -1.546875q2.078125 0 3.34375 1.328125q1.265625 1.328125 1.265625 3.515625l0 1.40625zm-6.984375 -2.09375l4.4375 0q0 -2.03125 -2.09375 -2.03125q-2.171875 0 -2.34375 2.03125zm17.492447 4.609375l0 1.984375q-1.515625 0.375 -2.671875 0.375q-3.671875 0 -3.671875 -3.515625l0 -5.421875l-2.4375 0l0 -1.546875l2.515625 -0.46875l0.71875 -2.65625l1.609375 0l0 2.671875l3.984375 0l0 2.0l-3.984375 0l0 5.421875q0 1.40625 1.375 1.40625q0.8125 0 2.5625 -0.25zm9.226822 2.171875l0 -6.8125q0 -2.0 -1.796875 -2.0q-2.421875 0 -2.421875 3.25l0 5.5625l-2.40625 0l0 -14.921875l2.40625 0l0 4.59375l-0.34375 1.203125l-0.09375 -0.078125q0.828125 -1.734375 3.140625 -1.734375q3.921875 0 3.921875 4.03125l0 6.90625l-2.40625 0zm9.054947 0.1875q-2.140625 0 -3.515625 -1.53125q-1.375 -1.546875 -1.375 -4.046875q0 -2.546875 1.328125 -4.046875q1.34375 -1.5 3.609375 -1.5q2.15625 0 3.515625 1.53125q1.375 1.53125 1.375 4.015625q0 2.546875 -1.34375 4.0625q-1.34375 1.515625 -3.59375 1.515625zm0.03125 -2.125q2.453125 0 2.453125 -3.453125q0 -3.421875 -2.46875 -3.421875q-2.4375 0 -2.4375 3.421875q0 3.453125 2.453125 3.453125zm13.695572 0.3125l0.078125 0.046875q-0.90625 1.765625 -3.0 1.765625q-2.03125 0 -3.171875 -1.484375q-1.125 -1.5 -1.125 -4.0625q0 -2.578125 1.140625 -4.078125q1.140625 -1.5 3.15625 -1.5q2.0625 0 3.03125 1.609375l-0.109375 0.125q-0.375 -1.0625 -0.375 -1.375l0 -4.34375l2.40625 0l0 14.921875l-2.015625 0l-0.015625 -1.625zm-0.375 -3.359375l0 -0.375q0 -1.9375 -0.546875 -2.6875q-0.53125 -0.765625 -1.71875 -0.765625q-2.109375 0 -2.109375 3.46875q0 3.40625 2.125 3.40625q1.1875 0 1.703125 -0.6875q0.515625 -0.6875 0.546875 -2.359375zm10.070572 -9.078125l2.921875 0q-4.734375 3.96875 -4.734375 8.5q0 4.578125 4.71875 8.515625l-2.890625 0q-4.296875 -3.40625 -4.296875 -8.5q0 -5.015625 4.28125 -8.515625zm12.461182 14.0625l-0.109375 -1.6875l0.0625 0.046875q-0.53125 1.0625 -1.359375 1.453125q-0.8125 0.375 -2.046875 0.375q-1.6249847 0 -2.5937347 -0.890625q-0.953125 -0.90625 -0.953125 -2.46875q0 -3.390625 4.9999847 -3.546875l1.484375 -0.046875l0 -0.265625q0 -1.78125 -1.84375 -1.78125q-1.265625 0 -3.1718597 0.875l-0.890625 -1.921875q2.1874847 -1.078125 3.9843597 -1.078125q2.21875 0 3.25 0.90625q1.046875 0.890625 1.046875 2.8125l0 7.21875l-1.859375 0zm-0.53125 -4.875l-1.078125 0.046875q-1.671875 0.078125 -2.296875 0.484375q-0.625 0.390625 -0.625 1.1875q0 1.25 1.4375 1.25q1.203125 0 1.875 -0.625q0.6875 -0.640625 0.6875 -1.828125l0 -0.515625zm13.961212 -5.515625l-0.640625 2.234375q-1.4375 -0.515625 -2.296875 -0.515625q-1.328125 0 -2.03125 0.734375q-0.6875 0.734375 -0.6875 2.171875l0 5.765625l-2.40625 0l0 -10.75l2.046875 0l-0.046875 2.109375l-0.078125 -0.046875q0.5 -1.21875 1.359375 -1.734375q0.875 -0.515625 2.140625 -0.515625q1.140625 0 2.640625 0.546875zm11.726807 -0.359375l0 1.734375l-1.46875 0.1875q0.28125 0.375 0.28125 1.671875q0 1.640625 -1.09375 2.609375q-1.078125 0.96875 -2.953125 0.96875q-0.546875 0 -0.71875 -0.046875q-0.59375 0.34375 -0.59375 0.828125q0 0.390625 1.09375 0.390625l1.703125 0q1.71875 0 2.671875 0.8125q0.953125 0.796875 0.953125 2.265625q0 3.8125 -5.515625 3.8125q-2.109375 0 -3.28125 -0.828125q-1.15625 -0.828125 -1.15625 -2.34375q0 -2.21875 1.546875 -2.5625q-0.234375 -0.078125 -0.234375 -1.296875q0 -1.234375 0.75 -1.6875q-0.234375 -0.09375 -0.75 -0.96875q-0.515625 -0.875 -0.515625 -1.90625q0 -1.8125 1.078125 -2.8125q1.09375 -1.015625 3.03125 -1.015625q0.84375 0 1.421875 0.1875l3.75 0zm-5.21875 5.28125q1.65625 0 1.65625 -1.71875q0 -1.796875 -1.671875 -1.796875q-1.671875 0 -1.671875 1.828125q0 1.6875 1.6875 1.6875zm0.890625 5.3125l-1.703125 0q-1.71875 0 -1.71875 1.421875q0 1.203125 2.09375 1.203125q3.21875 0 3.21875 -1.65625q0 -0.578125 -0.328125 -0.78125q-0.3125 -0.1875 -1.5625 -0.1875zm12.992462 0.15625l-0.03125 -1.609375l0.09375 0.0625q-0.84375 1.734375 -3.140625 1.734375q-3.9375 0 -3.9375 -4.03125l0 -6.90625l2.40625 0l0 6.8125q0 2.0 1.78125 2.0q1.28125 0 1.859375 -0.71875q0.578125 -0.71875 0.578125 -2.53125l0 -5.5625l2.40625 0l0 10.75l-2.015625 0zm11.633057 0l0 -6.8125q0 -1.25 -0.171875 -1.625q-0.171875 -0.375 -0.5 -0.375q-0.5625 0 -0.859375 0.609375q-0.28125 0.609375 -0.28125 2.3125l0 5.890625l-2.21875 0l0 -6.8125q0 -2.0 -0.765625 -2.0q-0.53125 0 -0.796875 0.578125q-0.25 0.578125 -0.25 2.671875l0 5.5625l-2.21875 0l0 -10.75l1.84375 0l0.015625 1.609375l-0.09375 -0.03125q0.453125 -1.765625 1.921875 -1.765625q1.765625 0 2.0 1.96875l-0.046875 0q0.484375 -1.96875 2.046875 -1.96875q1.359375 0 1.96875 0.984375q0.625 0.96875 0.625 3.046875l0 6.90625l-2.21875 0zm13.023682 -4.6875l-7.046875 0q0.0625 2.671875 2.75 2.671875q1.703125 0 3.75 -0.875l0 2.25q-1.8125 0.828125 -3.6875 0.828125q-2.390625 0 -3.84375 -1.46875q-1.4375 -1.484375 -1.4375 -4.015625q0 -2.5625 1.328125 -4.09375q1.34375 -1.546875 3.578125 -1.546875q2.078125 0 3.34375 1.328125q1.265625 1.328125 1.265625 3.515625l0 1.40625zm-6.984375 -2.09375l4.4375 0q0 -2.03125 -2.09375 -2.03125q-2.171875 0 -2.34375 2.03125zm15.523712 6.78125l0 -6.8125q0 -2.0 -1.796875 -2.0q-2.421875 0 -2.421875 3.25l0 5.5625l-2.40625 0l0 -10.75l2.03125 0l0.03125 1.609375l-0.09375 -0.0625q0.828125 -1.734375 3.140625 -1.734375q3.921875 0 3.921875 4.03125l0 6.90625l-2.40625 0zm13.164337 -2.171875l0 1.984375q-1.515625 0.375 -2.671875 0.375q-3.671875 0 -3.671875 -3.515625l0 -5.421875l-2.4375 0l0 -1.546875l2.515625 -0.46875l0.71875 -2.65625l1.609375 0l0 2.671875l3.984375 0l0 2.0l-3.984375 0l0 5.421875q0 1.40625 1.375 1.40625q0.8125 0 2.5625 -0.25zm2.9924316 1.5625l0 -2.296875q2.21875 0.984375 3.75 0.984375q2.125 0 2.125 -1.109375q0 -0.34375 -0.359375 -0.640625q-0.34375 -0.3125 -1.890625 -0.859375q-2.21875 -0.84375 -2.84375 -1.578125q-0.625 -0.75 -0.625 -1.796875q0 -1.421875 1.140625 -2.21875q1.140625 -0.8125 3.0625 -0.8125q1.875 0 3.84375 0.84375l-0.828125 2.046875q-1.9375 -0.765625 -3.109375 -0.765625q-1.78125 0 -1.78125 0.84375q0 0.359375 0.359375 0.625q0.359375 0.265625 1.96875 0.828125q2.015625 0.734375 2.71875 1.515625q0.71875 0.765625 0.71875 1.890625q0 1.546875 -1.1875 2.421875q-1.1875 0.875 -3.265625 0.875q-2.359375 0 -3.796875 -0.796875zm14.304962 3.5625l-2.890625 0q4.71875 -3.921875 4.71875 -8.515625q0 -4.546875 -4.734375 -8.5l2.90625 0q4.3125 3.484375 4.3125 8.515625q0 5.109375 -4.3125 8.5z" fill-rule="nonzero"/><path fill="#000000" fill-opacity="0.0" d="m19.63548 4.821522l432.8819 0l0 75.11811l-432.8819 0z" fill-rule="evenodd"/><path fill="#000000" d="m34.60423 28.257145q1.765625 0 1.765625 1.875q0 1.890625 -1.765625 1.890625q-1.75 0 -1.75 -1.890625q0 -1.875 1.75 -1.875zm11.195572 0q1.765625 0 1.765625 1.875q0 1.890625 -1.765625 1.890625q-1.75 0 -1.75 -1.890625q0 -1.875 1.75 -1.875zm11.195572 0q1.765625 0 1.765625 1.875q0 1.890625 -1.765625 1.890625q-1.75 0 -1.75 -1.890625q0 -1.875 1.75 -1.875z" fill-rule="nonzero"/><path fill="#e06666" d="m39.10423 43.350895l-0.640625 2.234375q-1.4375 -0.515625 -2.296875 -0.515625q-1.328125 0 -2.03125 0.734375q-0.6875 0.734375 -0.6875 2.171875l0 5.765625l-2.406248 0l0 -10.75l2.046873 0l-0.046875 2.109375l-0.078125 -0.046875q0.5 -1.21875 1.359375 -1.734375q0.875 -0.515625 2.140625 -0.515625q1.140625 0 2.640625 0.546875zm9.195572 10.390625l-0.03125 -1.609375l0.09375 0.0625q-0.84375 1.734375 -3.140625 1.734375q-3.9375 0 -3.9375 -4.03125l0 -6.90625l2.40625 0l0 6.8125q0 2.0 1.78125 2.0q1.28125 0 1.859375 -0.71875q0.578125 -0.71875 0.578125 -2.53125l0 -5.5625l2.40625 0l0 10.75l-2.015625 0zm7.570572 -12.90625l-2.4375 -0.1875l0 -1.828125l4.859375 0l0 12.890625l3.203125 0.171875l0 1.859375l-8.75 0l0 -1.859375l3.125 -0.171875l0 -10.875zm17.0862 8.21875l-7.046875 0q0.0625 2.671875 2.75 2.671875q1.703125 0 3.75 -0.875l0 2.25q-1.8125 0.828125 -3.6875 0.828125q-2.390625 0 -3.84375 -1.46875q-1.4375038 -1.484375 -1.4375038 -4.015625q0 -2.5625 1.3281288 -4.09375q1.34375 -1.546875 3.578125 -1.546875q2.078125 0 3.34375 1.328125q1.265625 1.328125 1.265625 3.515625l0 1.40625zm-6.984375 -2.09375l4.4375 0q0 -2.03125 -2.09375 -2.03125q-2.171875 0 -2.34375 2.03125z" fill-rule="nonzero"/><path fill="#f3f3f3" d="m90.58209 50.257145q1.765625 0 1.765625 1.875q0 1.890625 -1.765625 1.890625q-1.75 0 -1.75 -1.890625q0 -1.875 1.75 -1.875zm14.133072 3.484375l0 -6.8125q0 -1.25 -0.171875 -1.625q-0.171875 -0.375 -0.5 -0.375q-0.5625 0 -0.859375 0.609375q-0.28125 0.609375 -0.28125 2.3125l0 5.890625l-2.21875 0l0 -6.8125q0 -2.0 -0.765625 -2.0q-0.53125 0 -0.796875 0.578125q-0.25 0.578125 -0.25 2.671875l0 5.5625l-2.21875 0l0 -10.75l1.84375 0l0.015625 1.609375l-0.09375 -0.03125q0.453125 -1.765625 1.921875 -1.765625q1.765625 0 2.0 1.96875l-0.046875 0q0.484375 -1.96875 2.046875 -1.96875q1.359375 0 1.96875 0.984375q0.625 0.96875 0.625 3.046875l0 6.90625l-2.21875 0zm13.023697 -4.6875l-7.046875 0q0.0625 2.671875 2.75 2.671875q1.703125 0 3.75 -0.875l0 2.25q-1.8125 0.828125 -3.6875 0.828125q-2.390625 0 -3.84375 -1.46875q-1.4375 -1.484375 -1.4375 -4.015625q0 -2.5625 1.328125 -4.09375q1.34375 -1.546875 3.578125 -1.546875q2.078125 0 3.34375 1.328125q1.265625 1.328125 1.265625 3.515625l0 1.40625zm-6.984375 -2.09375l4.4375 0q0 -2.03125 -2.09375 -2.03125q-2.171875 0 -2.34375 2.03125zm17.492447 4.609375l0 1.984375q-1.515625 0.375 -2.671875 0.375q-3.671875 0 -3.671875 -3.515625l0 -5.421875l-2.4375 0l0 -1.546875l2.515625 -0.46875l0.71875 -2.65625l1.609375 0l0 2.671875l3.984375 0l0 2.0l-3.984375 0l0 5.421875q0 1.40625 1.375 1.40625q0.8125 0 2.5625 -0.25zm9.226822 2.171875l0 -6.8125q0 -2.0 -1.796875 -2.0q-2.421875 0 -2.421875 3.25l0 5.5625l-2.40625 0l0 -14.921875l2.40625 0l0 4.59375l-0.34375 1.203125l-0.09375 -0.078125q0.828125 -1.734375 3.140625 -1.734375q3.921875 0 3.921875 4.03125l0 6.90625l-2.40625 0zm9.054947 0.1875q-2.140625 0 -3.515625 -1.53125q-1.375 -1.546875 -1.375 -4.046875q0 -2.546875 1.328125 -4.046875q1.34375 -1.5 3.609375 -1.5q2.15625 0 3.515625 1.53125q1.375 1.53125 1.375 4.015625q0 2.546875 -1.34375 4.0625q-1.34375 1.515625 -3.59375 1.515625zm0.03125 -2.125q2.453125 0 2.453125 -3.453125q0 -3.421875 -2.46875 -3.421875q-2.4375 0 -2.4375 3.421875q0 3.453125 2.453125 3.453125zm13.695572 0.3125l0.078125 0.046875q-0.90625 1.765625 -3.0 1.765625q-2.03125 0 -3.171875 -1.484375q-1.125 -1.5 -1.125 -4.0625q0 -2.578125 1.140625 -4.078125q1.140625 -1.5 3.15625 -1.5q2.0625 0 3.03125 1.609375l-0.109375 0.125q-0.375 -1.0625 -0.375 -1.375l0 -4.34375l2.40625 0l0 14.921875l-2.015625 0l-0.015625 -1.625zm-0.375 -3.359375l0 -0.375q0 -1.9375 -0.546875 -2.6875q-0.53125 -0.765625 -1.71875 -0.765625q-2.109375 0 -2.109375 3.46875q0 3.40625 2.125 3.40625q1.1875 0 1.703125 -0.6875q0.515625 -0.6875 0.546875 -2.359375zm10.070572 -9.078125l2.921875 0q-4.734375 3.96875 -4.734375 8.5q0 4.578125 4.71875 8.515625l-2.890625 0q-4.296875 -3.40625 -4.296875 -8.5q0 -5.015625 4.28125 -8.515625zm6.070572 13.453125l0 -2.296875q2.21875 0.984375 3.75 0.984375q2.125 0 2.125 -1.109375q0 -0.34375 -0.359375 -0.640625q-0.34375 -0.3125 -1.890625 -0.859375q-2.21875 -0.84375 -2.84375 -1.578125q-0.625 -0.75 -0.625 -1.796875q0 -1.421875 1.140625 -2.21875q1.140625 -0.8125 3.0625 -0.8125q1.875 0 3.84375 0.84375l-0.828125 2.046875q-1.9375 -0.765625 -3.109375 -0.765625q-1.78125 0 -1.78125 0.84375q0 0.359375 0.359375 0.625q0.359375 0.265625 1.96875 0.828125q2.015625 0.734375 2.71875 1.515625q0.71875 0.765625 0.71875 1.890625q0 1.546875 -1.1875 2.421875q-1.1875 0.875 -3.265625 0.875q-2.359375 0 -3.796875 -0.796875zm20.086197 -4.078125l-7.046875 0q0.0625 2.671875 2.75 2.671875q1.703125 0 3.75 -0.875l0 2.25q-1.8125 0.828125 -3.6875 0.828125q-2.390625 0 -3.84375 -1.46875q-1.4375 -1.484375 -1.4375 -4.015625q0 -2.5625 1.328125 -4.09375q1.34375 -1.546875 3.578125 -1.546875q2.078125 0 3.34375 1.328125q1.265625 1.328125 1.265625 3.515625l0 1.40625zm-6.984375 -2.09375l4.4375 0q0 -2.03125 -2.09375 -2.03125q-2.171875 0 -2.34375 2.03125zm12.289322 -6.125l-2.4375 -0.1875l0 -1.828125l4.859375 0l0 12.890625l3.203125 0.171875l0 1.859375l-8.75 0l0 -1.859375l3.125 -0.171875l0 -10.875zm16.617447 4.15625l-3.546875 0l0 8.75l-2.40625 0l0 -8.75l-2.890625 0l0 -1.71875l2.890625 -0.3125l0 -0.53125q0 -1.90625 0.921875 -2.8125q0.9375 -0.90625 3.0 -0.90625q1.21875 0 2.734375 0.453125l-0.546875 2.0q-1.265625 -0.328125 -2.15625 -0.328125q-0.953125 0 -1.25 0.34375q-0.296875 0.328125 -0.296875 1.234375l0 0.578125l3.546875 0l0 2.0z" fill-rule="nonzero"/><path fill="#f3f3f3" d="m238.4214 51.663395q-2.390625 0 -3.78125 -1.375q-1.359375 -1.390625 -1.359375 -3.6875q0 -2.09375 1.359375 -3.484375q1.546875 -1.515625 3.78125 -1.515625l8.40625 0l0 2.1875l-8.40625 0q-1.328125 0 -2.09375 0.78125q-0.640625 0.625 -0.640625 0.96875l11.140625 0l0 2.1875l-11.078125 0q0.078125 0.46875 0.578125 0.96875q0.765625 0.78125 2.09375 0.78125l8.40625 0l0 2.1875l-8.40625 0z" fill-rule="nonzero"/><path fill="#f3f3f3" d="m266.33572 53.92902q-5.21875 0 -5.21875 -7.265625q0 -7.203125 5.234375 -7.203125q2.546875 0 3.875 1.90625q1.328125 1.90625 1.328125 5.328125q0 3.40625 -1.359375 5.328125q-1.34375 1.90625 -3.859375 1.90625zm0 -2.234375q1.359375 0 2.015625 -1.171875q0.65625 -1.1875 0.65625 -3.828125q0 -2.671875 -0.671875 -3.828125q-0.65625 -1.15625 -1.984375 -1.15625q-2.6875 0 -2.6875 4.984375q0 5.0 2.671875 5.0zm8.570557 0.625l0.109375 -0.078125l-0.140625 1.5l-1.890625 0l0 -14.921875l2.40625 0l0 3.796875q0 0.75 -0.375 2.0l-0.0625 -0.046875q0.84375 -1.765625 3.0 -1.765625q2.015625 0 3.15625 1.5q1.140625 1.484375 1.140625 4.046875q0 2.578125 -1.140625 4.078125q-1.140625 1.5 -3.15625 1.5q-2.078125 0 -3.046875 -1.609375zm0.484375 -3.96875q0 1.9375 0.53125 2.703125q0.546875 0.75 1.75 0.75q2.09375 0 2.09375 -3.46875q0 -3.40625 -2.109375 -3.40625q-1.234375 0 -1.75 0.734375q-0.515625 0.734375 -0.515625 2.6875zm14.492432 -9.484375q1.359375 0 1.359375 1.421875q0 1.421875 -1.359375 1.421875q-1.34375 0 -1.34375 -1.421875q0 -1.421875 1.34375 -1.421875zm-5.90625 18.9375l0 -2.171875q1.640625 0.46875 3.0 0.46875q0.921875 0 1.40625 -0.421875q0.484375 -0.40625 0.484375 -1.15625l0 -9.484375l-3.828125 -0.1875l0 -1.859375l6.234375 0l0 11.4375q0 1.8125 -1.15625 2.796875q-1.140625 1.0 -3.15625 1.0q-1.546875 0 -2.984375 -0.421875zm17.148712 -4.0625l-2.453125 0l0 -11.828125l-3.8125 0l0 -2.234375l10.0625 0l0 2.234375l-3.796875 0l0 11.828125zm4.570587 -10.75l2.515625 0l2.484375 6.1875q0.78125 1.921875 0.53125 2.71875l-0.0625 -0.015625q-0.09375 -1.046875 0.515625 -2.703125l2.265625 -6.1875l2.546875 0l-4.53125 11.8125q-0.625 1.65625 -1.53125 2.53125q-0.890625 0.890625 -2.484375 0.890625q-0.8125 0 -1.90625 -0.21875l0 -2.09375q0.96875 0.1875 1.625 0.1875q0.75 0 1.140625 -0.296875q0.390625 -0.296875 0.734375 -1.125l0.46875 -1.21875l-4.3125 -10.46875zm13.992432 9.328125l0.109375 -0.125q0.375 1.0625 0.375 1.375l0 4.65625l-2.40625 0l0 -15.234375l2.03125 0l0 1.640625l-0.0625 -0.03125q0.859375 -1.796875 3.0 -1.796875q2.015625 0 3.15625 1.5q1.140625 1.484375 1.140625 4.046875q0 2.578125 -1.140625 4.078125q-1.140625 1.5 -3.15625 1.5q-2.078125 0 -3.046875 -1.609375zm0.484375 -4.34375l0 0.375q0 1.9375 0.53125 2.703125q0.546875 0.75 1.75 0.75q2.09375 0 2.09375 -3.46875q0 -3.40625 -2.109375 -3.40625q-1.203125 0 -1.71875 0.6875q-0.5 0.671875 -0.546875 2.359375zm18.086182 1.078125l-7.046875 0q0.0625 2.671875 2.75 2.671875q1.703125 0 3.75 -0.875l0 2.25q-1.8125 0.828125 -3.6875 0.828125q-2.390625 0 -3.84375 -1.46875q-1.4375 -1.484375 -1.4375 -4.015625q0 -2.5625 1.328125 -4.09375q1.34375 -1.546875 3.578125 -1.546875q2.078125 0 3.34375 1.328125q1.265625 1.328125 1.265625 3.515625l0 1.40625zm-6.984375 -2.09375l4.4375 0q0 -2.03125 -2.09375 -2.03125q-2.171875 0 -2.34375 2.03125zm15.039337 3.640625l0.34375 0.53125q-0.5625 2.234375 -1.9375 5.234375l-2.078125 0q0.78125 -3.390625 1.140625 -5.765625l2.53125 0zm18.156769 1.71875l0.109375 -0.125q0.375 1.0625 0.375 1.375l0 4.65625l-2.40625 0l0 -15.234375l2.03125 0l0 1.640625l-0.0625 -0.03125q0.859375 -1.796875 3.0 -1.796875q2.015625 0 3.15625 1.5q1.140625 1.484375 1.140625 4.046875q0 2.578125 -1.140625 4.078125q-1.140625 1.5 -3.15625 1.5q-2.078125 0 -3.046875 -1.609375zm0.484375 -4.34375l0 0.375q0 1.9375 0.53125 2.703125q0.546875 0.75 1.75 0.75q2.09375 0 2.09375 -3.46875q0 -3.40625 -2.109375 -3.40625q-1.203125 0 -1.71875 0.6875q-0.5 0.671875 -0.546875 2.359375zm15.586182 5.765625l-0.109375 -1.6875l0.0625 0.046875q-0.53125 1.0625 -1.359375 1.453125q-0.8125 0.375 -2.046875 0.375q-1.625 0 -2.59375 -0.890625q-0.953125 -0.90625 -0.953125 -2.46875q0 -3.390625 5.0 -3.546875l1.484375 -0.046875l0 -0.265625q0 -1.78125 -1.84375 -1.78125q-1.265625 0 -3.171875 0.875l-0.890625 -1.921875q2.1875 -1.078125 3.984375 -1.078125q2.21875 0 3.25 0.90625q1.046875 0.890625 1.046875 2.8125l0 7.21875l-1.859375 0zm-0.53125 -4.875l-1.078125 0.046875q-1.671875 0.078125 -2.296875 0.484375q-0.625 0.390625 -0.625 1.1875q0 1.25 1.4375 1.25q1.203125 0 1.875 -0.625q0.6875 -0.640625 0.6875 -1.828125l0 -0.515625zm13.961212 -5.515625l-0.640625 2.234375q-1.4375 -0.515625 -2.296875 -0.515625q-1.328125 0 -2.03125 0.734375q-0.6875 0.734375 -0.6875 2.171875l0 5.765625l-2.40625 0l0 -10.75l2.046875 0l-0.046875 2.109375l-0.078125 -0.046875q0.5 -1.21875 1.359375 -1.734375q0.875 -0.515625 2.140625 -0.515625q1.140625 0 2.640625 0.546875zm8.961212 10.390625l-0.109375 -1.6875l0.0625 0.046875q-0.53125 1.0625 -1.359375 1.453125q-0.8125 0.375 -2.046875 0.375q-1.625 0 -2.59375 -0.890625q-0.953125 -0.90625 -0.953125 -2.46875q0 -3.390625 5.0 -3.546875l1.484375 -0.046875l0 -0.265625q0 -1.78125 -1.84375 -1.78125q-1.265625 0 -3.171875 0.875l-0.890625 -1.921875q2.1875 -1.078125 3.984375 -1.078125q2.21875 0 3.25 0.90625q1.046875 0.890625 1.046875 2.8125l0 7.21875l-1.859375 0zm-0.53125 -4.875l-1.078125 0.046875q-1.671875 0.078125 -2.296875 0.484375q-0.625 0.390625 -0.625 1.1875q0 1.25 1.4375 1.25q1.203125 0 1.875 -0.625q0.6875 -0.640625 0.6875 -1.828125l0 -0.515625zm12.398682 4.875l0 -6.8125q0 -1.25 -0.171875 -1.625q-0.171875 -0.375 -0.5 -0.375q-0.5625 0 -0.859375 0.609375q-0.28125 0.609375 -0.28125 2.3125l0 5.890625l-2.21875 0l0 -6.8125q0 -2.0 -0.765625 -2.0q-0.53125 0 -0.796875 0.578125q-0.25 0.578125 -0.25 2.671875l0 5.5625l-2.21875 0l0 -10.75l1.84375 0l0.015625 1.609375l-0.09375 -0.03125q0.453125 -1.765625 1.921875 -1.765625q1.765625 0 2.0 1.96875l-0.046875 0q0.484375 -1.96875 2.046875 -1.96875q1.359375 0 1.96875 0.984375q0.625 0.96875 0.625 3.046875l0 6.90625l-2.21875 0zm4.1330566 -0.609375l0 -2.296875q2.21875 0.984375 3.75 0.984375q2.125 0 2.125 -1.109375q0 -0.34375 -0.359375 -0.640625q-0.34375 -0.3125 -1.890625 -0.859375q-2.21875 -0.84375 -2.84375 -1.578125q-0.625 -0.75 -0.625 -1.796875q0 -1.421875 1.140625 -2.21875q1.140625 -0.8125 3.0625 -0.8125q1.875 0 3.84375 0.84375l-0.828125 2.046875q-1.9375 -0.765625 -3.109375 -0.765625q-1.78125 0 -1.78125 0.84375q0 0.359375 0.359375 0.625q0.359375 0.265625 1.96875 0.828125q2.015625 0.734375 2.71875 1.515625q0.71875 0.765625 0.71875 1.890625q0 1.546875 -1.1875 2.421875q-1.1875 0.875 -3.265625 0.875q-2.359375 0 -3.796875 -0.796875zm14.304962 3.5625l-2.890625 0q4.71875 -3.921875 4.71875 -8.515625q0 -4.546875 -4.734375 -8.5l2.90625 0q4.3125 3.484375 4.3125 8.515625q0 5.109375 -4.3125 8.5z" fill-rule="nonzero"/><path fill="#000000" fill-opacity="0.0" d="m97.361 55.11536c0 12.592426 25.066345 1.8289528 33.23713 10.733143" fill-rule="evenodd"/><path stroke="#e06666" stroke-width="2.0" stroke-linejoin="round" stroke-linecap="butt" d="m97.361 55.11536c0 12.592426 25.066345 1.8289528 33.23713 10.733143" fill-rule="evenodd"/><path fill="#000000" fill-opacity="0.0" d="m163.83527 55.11536c0 12.592426 -25.066345 1.8289528 -33.237137 10.733143" fill-rule="evenodd"/><path stroke="#e06666" stroke-width="2.0" stroke-linejoin="round" stroke-linecap="butt" d="m163.83527 55.11536c0 12.592426 -25.066345 1.8289528 -33.237137 10.733143" fill-rule="evenodd"/><path fill="#000000" fill-opacity="0.0" d="m355.1345 55.11536c0 12.592426 26.158386 1.8289528 34.68515 10.733143" fill-rule="evenodd"/><path stroke="#e06666" stroke-width="2.0" stroke-linejoin="round" stroke-linecap="butt" d="m355.1345 55.11536c0 12.592426 26.158386 1.8289528 34.68515 10.733143" fill-rule="evenodd"/><path fill="#000000" fill-opacity="0.0" d="m424.5048 55.11536c0 12.592426 -26.158386 1.8289528 -34.68515 10.733143" fill-rule="evenodd"/><path stroke="#e06666" stroke-width="2.0" stroke-linejoin="round" stroke-linecap="butt" d="m424.5048 55.11536c0 12.592426 -26.158386 1.8289528 -34.68515 10.733143" fill-rule="evenodd"/><path fill="#000000" fill-opacity="0.0" d="m177.5075 55.11536c0 12.592426 15.369522 1.8289528 20.37947 10.733143" fill-rule="evenodd"/><path stroke="#e06666" stroke-width="2.0" stroke-linejoin="round" stroke-linecap="butt" d="m177.5075 55.11536c0 12.592426 15.369522 1.8289528 20.37947 10.733143" fill-rule="evenodd"/><path fill="#000000" fill-opacity="0.0" d="m218.26643 55.11536c0 12.592426 -15.369507 1.8289528 -20.379456 10.733143" fill-rule="evenodd"/><path stroke="#e06666" stroke-width="2.0" stroke-linejoin="round" stroke-linecap="butt" d="m218.26643 55.11536c0 12.592426 -15.369507 1.8289528 -20.379456 10.733143" fill-rule="evenodd"/><path fill="#000000" fill-opacity="0.0" d="m304.73502 174.56068c5.5289307 3.0769348 8.016296 9.9814 14.405151 11.504761c19.800964 4.721344 44.922394 1.5980377 60.739838 -9.4127655c8.974548 -6.2473297 9.824066 -18.03418 11.271637 -27.715897c4.1639404 -27.85009 6.8914185 -56.962334 -1.2511292 -84.192505" fill-rule="evenodd"/><path stroke="#e06666" stroke-width="1.0" stroke-linejoin="round" stroke-linecap="butt" stroke-dasharray="4.0,3.0" d="m307.7747 176.82442l0.22473145 0.20857239c0.14160156 0.13471985 0.28167725 0.27120972 0.4204712 0.4091797c1.1105347 1.1037903 2.1394653 2.3029022 3.195221 3.4535065c2.1115723 2.3011322 4.3306274 4.4080963 7.525055 5.1697845c19.800964 4.7213287 44.922424 1.5980225 60.739838 -9.412781c8.974518 -6.2473297 9.824066 -18.034195 11.271606 -27.715897c2.0819702 -13.925049 3.80484 -28.165619 3.98938 -42.32872c0.092285156 -7.0815506 -0.2000122 -14.143723 -1.0243225 -21.13739c-0.41210938 -3.4968338 -0.9572754 -6.976555 -1.6538391 -10.432991c-0.34823608 -1.7282257 -0.7344055 -3.4506302 -1.160675 -5.166458c-0.10656738 -0.42894745 -0.21566772 -0.85749817 -0.32730103 -1.285614l-0.14489746 -0.5426941" fill-rule="evenodd"/><path stroke="#e06666" stroke-width="1.0" stroke-linecap="butt" d="m305.13602 174.85934c0.54263306 -0.72865295 1.5732422 -0.8794403 2.30188 -0.33680725c0.7286377 0.5426483 0.87942505 1.5732269 0.336792 2.30188c-0.54263306 0.7286377 -1.5732117 0.8794403 -2.30188 0.336792c-0.7286377 -0.54263306 -0.87942505 -1.5732269 -0.336792 -2.3018646z" fill-rule="nonzero"/><path fill="#e06666" stroke="#e06666" stroke-width="1.0" stroke-linecap="butt" d="m390.83 68.04292l1.3874207 0.7774277l-1.9204102 -2.6689606l-0.2444458 3.2789688z" fill-rule="evenodd"/><path fill="#000000" fill-opacity="0.0" d="m174.65176 163.74648c0 12.5924225 26.158401 1.8289642 34.68515 10.733139" fill-rule="evenodd"/><path stroke="#e06666" stroke-width="2.0" stroke-linejoin="round" stroke-linecap="butt" d="m174.65176 163.74648c0 12.5924225 26.158401 1.8289642 34.68515 10.733139" fill-rule="evenodd"/><path fill="#000000" fill-opacity="0.0" d="m244.02208 163.74648c0 12.5924225 -26.158401 1.8289642 -34.685165 10.733139" fill-rule="evenodd"/><path stroke="#e06666" stroke-width="2.0" stroke-linejoin="round" stroke-linecap="butt" d="m244.02208 163.74648c0 12.5924225 -26.158401 1.8289642 -34.685165 10.733139" fill-rule="evenodd"/><path fill="#000000" fill-opacity="0.0" d="m255.36601 163.74648c0 12.5924225 37.62047 1.8289642 49.88347 10.733139" fill-rule="evenodd"/><path stroke="#e06666" stroke-width="2.0" stroke-linejoin="round" stroke-linecap="butt" d="m255.36601 163.74648c0 12.5924225 37.62047 1.8289642 49.88347 10.733139" fill-rule="evenodd"/><path fill="#000000" fill-opacity="0.0" d="m355.13293 163.74648c0 12.5924225 -37.620453 1.8289642 -49.883453 10.733139" fill-rule="evenodd"/><path stroke="#e06666" stroke-width="2.0" stroke-linejoin="round" stroke-linecap="butt" d="m355.13293 163.74648c0 12.5924225 -37.620453 1.8289642 -49.883453 10.733139" fill-rule="evenodd"/><path fill="#000000" fill-opacity="0.0" d="m97.362 134.89502c0 -12.5924225 23.271187 -1.828949 30.856812 -10.733139" fill-rule="evenodd"/><path stroke="#e06666" stroke-width="2.0" stroke-linejoin="round" stroke-linecap="butt" d="m97.362 134.89502c0 -12.5924225 23.271187 -1.828949 30.856812 -10.733139" fill-rule="evenodd"/><path fill="#000000" fill-opacity="0.0" d="m159.07564 134.89502c0 -12.5924225 -23.271194 -1.828949 -30.856827 -10.733139" fill-rule="evenodd"/><path stroke="#e06666" stroke-width="2.0" stroke-linejoin="round" stroke-linecap="butt" d="m159.07564 134.89502c0 -12.5924225 -23.271194 -1.828949 -30.856827 -10.733139" fill-rule="evenodd"/><path fill="#000000" fill-opacity="0.0" d="m128.89787 124.16906c0 -19.042473 32.34175 -20.645073 48.660492 -30.7359c10.070908 -6.2274246 20.706741 -16.93705 20.706741 -28.68888" fill-rule="evenodd"/><path stroke="#cc0000" stroke-width="1.0" stroke-linejoin="round" stroke-linecap="butt" stroke-dasharray="4.0,3.0" d="m129.35945 120.40727l0.0012817383 -0.0053253174c0.03366089 -0.13062286 0.0690918 -0.2602768 0.106277466 -0.38898468c0.07434082 -0.25743866 0.1556549 -0.5111084 0.24377441 -0.761116c0.17622375 -0.5000076 0.3795929 -0.9853668 0.6086426 -1.4568558c0.916214 -1.8859482 2.2433167 -3.5500565 3.8868256 -5.0429306c3.2870178 -2.985756 7.8397064 -5.2866516 12.9023285 -7.3078156c10.125275 -4.0423126 22.290405 -6.9656754 30.449783 -12.011078c5.0354614 -3.1137161 10.212143 -7.3479843 14.129974 -12.272797c1.9589081 -2.46241 3.6031036 -5.0974503 4.7575684 -7.8513794c0.57722473 -1.3769684 1.0320282 -2.7836533 1.342514 -4.2133408c0.03881836 -0.17871857 0.07537842 -0.35778046 0.10964966 -0.5372009l0.07107544 -0.39987946" fill-rule="evenodd"/><path stroke="#cc0000" stroke-width="1.0" stroke-linecap="butt" d="m128.95877 123.67279c-0.90174866 -0.11064911 -1.5430603 -0.9313507 -1.4324188 -1.8330994c0.11064148 -0.901741 0.9313507 -1.5430603 1.8330994 -1.4324112c0.9017334 0.11064148 1.5430603 0.9313431 1.4324036 1.8330917c-0.11064148 0.90174866 -0.93133545 1.5430603 -1.8330841 1.4324188z" fill-rule="nonzero"/><path fill="#cc0000" stroke="#cc0000" stroke-width="1.0" stroke-linecap="butt" d="m197.96913 68.15856l1.0232544 1.217514l-0.8535309 -3.175354l-1.3872375 2.981102z" fill-rule="evenodd"/><path fill="#000000" fill-opacity="0.0" d="m208.60104 177.19897c0 27.243286 -59.063354 12.078217 -88.82677 10.136459c-27.303474 -1.7812653 -56.096703 5.2513123 -82.06824 -2.6431427c-6.9657135 -2.11734 -17.07186 -2.5914307 -19.795275 -8.816086c-7.7523775 -17.718872 -11.024414 -47.58716 7.2414703 -56.857613c13.822111 -7.0151215 31.06523 -5.540245 46.34646 -9.257004c24.21148 -5.888817 58.41208 -20.317741 58.41208 -43.19377" fill-rule="evenodd"/><path stroke="#e06666" stroke-width="1.0" stroke-linejoin="round" stroke-linecap="butt" stroke-dasharray="4.0,3.0" d="m208.17102 180.96451l-0.015319824 0.06401062c-0.022537231 0.090164185 -0.045913696 0.17971802 -0.070129395 0.2686615c-0.04840088 0.17790222 -0.100112915 0.3534088 -0.15510559 0.5265198c-0.43984985 1.3849792 -1.0888519 2.6178741 -1.925415 3.712265c-1.6731567 2.1888123 -4.096588 3.823639 -7.097687 5.013138c-6.0022583 2.3790436 -14.315277 2.9767761 -23.558426 2.6624908c-18.486267 -0.6285858 -40.692947 -4.9052887 -55.57466 -5.876175c-27.303474 -1.78125 -56.096706 5.2513123 -82.06824 -2.6431427c-6.9657135 -2.1173248 -17.07186 -2.5914154 -19.795275 -8.816071c-7.7523775 -17.718872 -11.024414 -47.58716 7.2414703 -56.85762c13.822115 -7.015106 31.065226 -5.5402374 46.34646 -9.256996c12.105743 -2.9444122 26.708763 -8.023842 38.28534 -15.226677c5.788292 -3.6014175 10.819977 -7.7336884 14.404587 -12.395355c1.792305 -2.3308334 3.222847 -4.7940216 4.205307 -7.389366c0.4912262 -1.2976761 0.8704376 -2.6283875 1.1268463 -3.9921265c0.032043457 -0.17046356 0.062179565 -0.34144592 0.09037781 -0.5129471l0.03967285 -0.26007843" fill-rule="evenodd"/><path stroke="#e06666" stroke-width="1.0" stroke-linecap="butt" d="m208.54431 177.69576c0.9026489 0.10308838 1.5508118 0.91838074 1.4477234 1.8210297c-0.10308838 0.90263367 -0.91838074 1.5508118 -1.8210297 1.4477234c-0.90263367 -0.10308838 -1.5508118 -0.918396 -1.4477234 -1.8210297c0.10308838 -0.9026489 0.918396 -1.5508118 1.8210297 -1.4477234z" fill-rule="nonzero"/><path fill="#e06666" stroke="#e06666" stroke-width="1.0" stroke-linecap="butt" d="m129.65082 69.98504l1.0360413 1.2066422l-0.88697815 -3.1661682l-1.3557129 2.9955673z" fill-rule="evenodd"/></g></svg>