<svg version="1.1" viewBox="0.0 0.0 480.0 480.0" fill="none" stroke="none" stroke-linecap="square" stroke-miterlimit="10" xmlns:xlink="http://www.w3.org/1999/xlink" xmlns="http://www.w3.org/2000/svg"><clipPath id="p.0"><path d="m0 0l480.0 0l0 480.0l-480.0 0l0 -480.0z" clip-rule="nonzero"/></clipPath><g clip-path="url(#p.0)"><path fill="#000000" fill-opacity="0.0" d="m0 0l480.0 0l0 480.0l-480.0 0z" fill-rule="evenodd"/><path fill="#434343" d="m-0.96850395 -2.7139108l482.70865 0l0 482.70865l-482.70865 0z" fill-rule="evenodd"/><path fill="#f1c232" d="m85.7664 147.48557l161.3307 0l0 69.892395l-161.3307 0z" fill-rule="evenodd"/><path fill="#000000" fill-opacity="0.0" d="m105.93274 147.48557l0 69.892395m120.99803 -69.892395l0 69.892395" fill-rule="evenodd"/><path fill="#000000" fill-opacity="0.0" d="m85.7664 147.48557l161.3307 0l0 69.892395l-161.3307 0z" fill-rule="evenodd"/><path stroke="#e06666" stroke-width="2.0" stroke-linejoin="round" stroke-linecap="butt" d="m105.93274 147.48557l0 69.892395m120.99803 -69.892395l0 69.892395" fill-rule="evenodd"/><path stroke="#e06666" stroke-width="2.0" stroke-linejoin="round" stroke-linecap="butt" d="m85.7664 147.48557l161.3307 0l0 69.892395l-161.3307 0z" fill-rule="evenodd"/><path fill="#000000" d="m147.4476 178.35176l0 -9.671875l1.46875 0l0 1.359375q0.453125 -0.71875 1.203125 -1.140625q0.765625 -0.4375 1.71875 -0.4375q1.078125 0 1.765625 0.453125q0.6875 0.4375 0.96875 1.234375q1.15625 -1.6875 2.984375 -1.6875q1.453125 0 2.21875 0.796875q0.78125 0.796875 0.78125 2.453125l0 6.640625l-1.640625 0l0 -6.09375q0 -0.984375 -0.15625 -1.40625q-0.15625 -0.4375 -0.578125 -0.703125q-0.421875 -0.265625 -0.984375 -0.265625q-1.015625 0 -1.6875 0.6875q-0.671875 0.671875 -0.671875 2.15625l0 5.625l-1.640625 0l0 -6.28125q0 -1.09375 -0.40625 -1.640625q-0.40625 -0.546875 -1.3125 -0.546875q-0.6875 0 -1.28125 0.359375q-0.59375 0.359375 -0.859375 1.0625q-0.25 0.703125 -0.25 2.03125l0 5.015625l-1.640625 0zm21.853302 -1.1875q-0.921875 0.765625 -1.765625 1.09375q-0.828125 0.3125 -1.796875 0.3125q-1.59375 0 -2.453125 -0.78125q-0.859375 -0.78125 -0.859375 -1.984375q0 -0.71875 0.328125 -1.296875q0.328125 -0.59375 0.84375 -0.9375q0.53125 -0.359375 1.1875 -0.546875q0.46875 -0.125 1.453125 -0.25q1.984375 -0.234375 2.921875 -0.5625q0.015625 -0.34375 0.015625 -0.421875q0 -1.0 -0.46875 -1.421875q-0.625 -0.546875 -1.875 -0.546875q-1.15625 0 -1.703125 0.40625q-0.546875 0.40625 -0.8125 1.421875l-1.609375 -0.21875q0.21875 -1.015625 0.71875 -1.640625q0.5 -0.640625 1.453125 -0.984375q0.953125 -0.34375 2.1875 -0.34375q1.25 0 2.015625 0.296875q0.78125 0.28125 1.140625 0.734375q0.375 0.4375 0.515625 1.109375q0.078125 0.421875 0.078125 1.515625l0 2.1875q0 2.28125 0.109375 2.890625q0.109375 0.59375 0.40625 1.15625l-1.703125 0q-0.265625 -0.515625 -0.328125 -1.1875zm-0.140625 -3.671875q-0.890625 0.375 -2.671875 0.625q-1.015625 0.140625 -1.4375 0.328125q-0.421875 0.1875 -0.65625 0.53125q-0.21875 0.34375 -0.21875 0.78125q0 0.65625 0.5 1.09375q0.5 0.4375 1.453125 0.4375q0.9375 0 1.671875 -0.40625q0.75 -0.421875 1.09375 -1.140625q0.265625 -0.5625 0.265625 -1.640625l0 -0.609375zm4.203842 -6.609375l0 -1.890625l1.640625 0l0 1.890625l-1.640625 0zm0 11.46875l0 -9.671875l1.640625 0l0 9.671875l-1.640625 0zm4.144821 0l0 -9.671875l1.46875 0l0 1.375q1.0625 -1.59375 3.078125 -1.59375q0.875 0 1.609375 0.3125q0.734375 0.3125 1.09375 0.828125q0.375 0.5 0.515625 1.203125q0.09375 0.453125 0.09375 1.59375l0 5.953125l-1.640625 0l0 -5.890625q0 -1.0 -0.203125 -1.484375q-0.1875 -0.5 -0.671875 -0.796875q-0.484375 -0.296875 -1.140625 -0.296875q-1.046875 0 -1.8125 0.671875q-0.75 0.65625 -0.75 2.515625l0 5.28125l-1.640625 0z" fill-rule="nonzero"/><path fill="#000000" d="m135.00403 204.05489l0 -13.375l1.484375 0l0 1.25q0.53125 -0.734375 1.1875 -1.09375q0.671875 -0.375 1.625 -0.375q1.234375 0 2.171875 0.640625q0.953125 0.625 1.4375 1.796875q0.484375 1.15625 0.484375 2.546875q0 1.484375 -0.53125 2.671875q-0.53125 1.1875 -1.546875 1.828125q-1.015625 0.625 -2.140625 0.625q-0.8125 0 -1.46875 -0.34375q-0.65625 -0.34375 -1.0625 -0.875l0 4.703125l-1.640625 0zm1.484375 -8.484375q0 1.859375 0.75 2.765625q0.765625 0.890625 1.828125 0.890625q1.09375 0 1.875 -0.921875q0.78125 -0.9375 0.78125 -2.875q0 -1.84375 -0.765625 -2.765625q-0.75 -0.921875 -1.8125 -0.921875q-1.046875 0 -1.859375 0.984375q-0.796875 0.96875 -0.796875 2.84375zm8.875717 4.78125l0 -9.671875l1.46875 0l0 1.46875q0.5625 -1.03125 1.03125 -1.359375q0.484375 -0.328125 1.0625 -0.328125q0.828125 0 1.6875 0.53125l-0.5625 1.515625q-0.609375 -0.359375 -1.203125 -0.359375q-0.546875 0 -0.96875 0.328125q-0.421875 0.328125 -0.609375 0.890625q-0.28125 0.875 -0.28125 1.921875l0 5.0625l-1.625 0zm5.618927 -4.84375q0 -2.6875 1.484375 -3.96875q1.25 -1.078125 3.046875 -1.078125q2.0 0 3.265625 1.3125q1.265625 1.296875 1.265625 3.609375q0 1.859375 -0.5625 2.9375q-0.5625 1.0625 -1.640625 1.65625q-1.0625 0.59375 -2.328125 0.59375q-2.03125 0 -3.28125 -1.296875q-1.25 -1.3125 -1.25 -3.765625zm1.6875 0q0 1.859375 0.796875 2.796875q0.8125 0.921875 2.046875 0.921875q1.21875 0 2.03125 -0.921875q0.8125 -0.9375 0.8125 -2.84375q0 -1.796875 -0.8125 -2.71875q-0.8125 -0.921875 -2.03125 -0.921875q-1.234375 0 -2.046875 0.921875q-0.796875 0.90625 -0.796875 2.765625zm15.610092 1.296875l1.609375 0.21875q-0.265625 1.65625 -1.359375 2.609375q-1.078125 0.9375 -2.671875 0.9375q-1.984375 0 -3.1875 -1.296875q-1.203125 -1.296875 -1.203125 -3.71875q0 -1.578125 0.515625 -2.75q0.515625 -1.171875 1.578125 -1.75q1.0625 -0.59375 2.3125 -0.59375q1.578125 0 2.578125 0.796875q1.0 0.796875 1.28125 2.265625l-1.59375 0.234375q-0.234375 -0.96875 -0.8125 -1.453125q-0.578125 -0.5 -1.390625 -0.5q-1.234375 0 -2.015625 0.890625q-0.78125 0.890625 -0.78125 2.8125q0 1.953125 0.75 2.84375q0.75 0.875 1.953125 0.875q0.96875 0 1.609375 -0.59375q0.65625 -0.59375 0.828125 -1.828125zm9.640625 0.4375l1.6875 0.203125q-0.40625 1.484375 -1.484375 2.3125q-1.078125 0.8125 -2.765625 0.8125q-2.125 0 -3.375 -1.296875q-1.234375 -1.3125 -1.234375 -3.671875q0 -2.453125 1.25 -3.796875q1.265625 -1.34375 3.265625 -1.34375q1.9375 0 3.15625 1.328125q1.234375 1.3125 1.234375 3.703125q0 0.15625 0 0.4375l-7.21875 0q0.09375 1.59375 0.90625 2.453125q0.8125 0.84375 2.015625 0.84375q0.90625 0 1.546875 -0.46875q0.640625 -0.484375 1.015625 -1.515625zm-5.390625 -2.65625l5.40625 0q-0.109375 -1.21875 -0.625 -1.828125q-0.78125 -0.953125 -2.03125 -0.953125q-1.125 0 -1.90625 0.765625q-0.765625 0.75 -0.84375 2.015625zm8.485092 2.875l1.625 -0.25q0.125 0.96875 0.75 1.5q0.625 0.515625 1.75 0.515625q1.125 0 1.671875 -0.453125q0.546875 -0.46875 0.546875 -1.09375q0 -0.546875 -0.484375 -0.875q-0.328125 -0.21875 -1.671875 -0.546875q-1.8125 -0.46875 -2.515625 -0.796875q-0.6875 -0.328125 -1.046875 -0.90625q-0.359375 -0.59375 -0.359375 -1.3125q0 -0.640625 0.296875 -1.1875q0.296875 -0.5625 0.8125 -0.921875q0.375 -0.28125 1.03125 -0.46875q0.671875 -0.203125 1.421875 -0.203125q1.140625 0 2.0 0.328125q0.859375 0.328125 1.265625 0.890625q0.421875 0.5625 0.578125 1.5l-1.609375 0.21875q-0.109375 -0.75 -0.640625 -1.171875q-0.515625 -0.421875 -1.46875 -0.421875q-1.140625 0 -1.625 0.375q-0.46875 0.375 -0.46875 0.875q0 0.3125 0.1875 0.578125q0.203125 0.265625 0.640625 0.4375q0.234375 0.09375 1.4375 0.421875q1.75 0.453125 2.4375 0.75q0.6875 0.296875 1.078125 0.859375q0.390625 0.5625 0.390625 1.40625q0 0.828125 -0.484375 1.546875q-0.46875 0.71875 -1.375 1.125q-0.90625 0.390625 -2.046875 0.390625q-1.875 0 -2.875 -0.78125q-0.984375 -0.78125 -1.25 -2.328125zm9.328125 0l1.625 -0.25q0.125 0.96875 0.75 1.5q0.625 0.515625 1.75 0.515625q1.125 0 1.671875 -0.453125q0.546875 -0.46875 0.546875 -1.09375q0 -0.546875 -0.484375 -0.875q-0.328125 -0.21875 -1.671875 -0.546875q-1.8125 -0.46875 -2.515625 -0.796875q-0.6875 -0.328125 -1.046875 -0.90625q-0.359375 -0.59375 -0.359375 -1.3125q0 -0.640625 0.296875 -1.1875q0.296875 -0.5625 0.8125 -0.921875q0.375 -0.28125 1.03125 -0.46875q0.671875 -0.203125 1.421875 -0.203125q1.140625 0 2.0 0.328125q0.859375 0.328125 1.265625 0.890625q0.421875 0.5625 0.578125 1.5l-1.609375 0.21875q-0.109375 -0.75 -0.640625 -1.171875q-0.515625 -0.421875 -1.46875 -0.421875q-1.140625 0 -1.625 0.375q-0.46875 0.375 -0.46875 0.875q0 0.3125 0.1875 0.578125q0.203125 0.265625 0.640625 0.4375q0.234375 0.09375 1.4375 0.421875q1.75 0.453125 2.4375 0.75q0.6875 0.296875 1.078125 0.859375q0.390625 0.5625 0.390625 1.40625q0 0.828125 -0.484375 1.546875q-0.46875 0.71875 -1.375 1.125q-0.90625 0.390625 -2.046875 0.390625q-1.875 0 -2.875 -0.78125q-0.984375 -0.78125 -1.25 -2.328125z" fill-rule="nonzero"/><path fill="#f1c232" d="m304.44882 269.3937l154.9685 0l0 69.892395l-154.9685 0z" fill-rule="evenodd"/><path fill="#000000" fill-opacity="0.0" d="m323.8199 269.3937l0 69.892395m116.22638 -69.892395l0 69.892395" fill-rule="evenodd"/><path fill="#000000" fill-opacity="0.0" d="m304.44882 269.3937l154.9685 0l0 69.892395l-154.9685 0z" fill-rule="evenodd"/><path stroke="#e06666" stroke-width="2.0" stroke-linejoin="round" stroke-linecap="butt" d="m323.8199 269.3937l0 69.892395m116.22638 -69.892395l0 69.892395" fill-rule="evenodd"/><path stroke="#e06666" stroke-width="2.0" stroke-linejoin="round" stroke-linecap="butt" d="m304.44882 269.3937l154.9685 0l0 69.892395l-154.9685 0z" fill-rule="evenodd"/><path fill="#000000" d="m346.9659 307.713l1.609375 0.21875q-0.265625 1.65625 -1.359375 2.609375q-1.078125 0.9375 -2.671875 0.9375q-1.984375 0 -3.1875 -1.296875q-1.203125 -1.296875 -1.203125 -3.71875q0 -1.578125 0.515625 -2.75q0.515625 -1.171875 1.578125 -1.75q1.0625 -0.59375 2.3125 -0.59375q1.578125 0 2.578125 0.796875q1.0 0.796875 1.28125 2.265625l-1.59375 0.234375q-0.234375 -0.96875 -0.8125 -1.453125q-0.578125 -0.5 -1.390625 -0.5q-1.234375 0 -2.015625 0.890625q-0.78125 0.890625 -0.78125 2.8125q0 1.953125 0.75 2.84375q0.75 0.875 1.953125 0.875q0.96875 0 1.609375 -0.59375q0.65625 -0.59375 0.828125 -1.828125zm2.40625 -1.296875q0 -2.6875 1.484375 -3.96875q1.25 -1.078125 3.046875 -1.078125q2.0 0 3.265625 1.3125q1.265625 1.296875 1.265625 3.609375q0 1.859375 -0.5625 2.9375q-0.5625 1.0625 -1.640625 1.65625q-1.0625 0.59375 -2.328125 0.59375q-2.03125 0 -3.28125 -1.296875q-1.25 -1.3125 -1.25 -3.765625zm1.6875 0q0 1.859375 0.796875 2.796875q0.8125 0.921875 2.046875 0.921875q1.21875 0 2.03125 -0.921875q0.8125 -0.9375 0.8125 -2.84375q0 -1.796875 -0.8125 -2.71875q-0.8125 -0.921875 -2.03125 -0.921875q-1.234375 0 -2.046875 0.921875q-0.796875 0.90625 -0.796875 2.765625zm9.297607 8.546875l0 -13.375l1.484375 0l0 1.25q0.53125 -0.734375 1.1875 -1.09375q0.671875 -0.375 1.625 -0.375q1.234375 0 2.171875 0.640625q0.953125 0.625 1.4375 1.796875q0.484375 1.15625 0.484375 2.546875q0 1.484375 -0.53125 2.671875q-0.53125 1.1875 -1.546875 1.828125q-1.015625 0.625 -2.140625 0.625q-0.8125 0 -1.46875 -0.34375q-0.65625 -0.34375 -1.0625 -0.875l0 4.703125l-1.640625 0zm1.484375 -8.484375q0 1.859375 0.75 2.765625q0.765625 0.890625 1.828125 0.890625q1.09375 0 1.875 -0.921875q0.78125 -0.9375 0.78125 -2.875q0 -1.84375 -0.765625 -2.765625q-0.75 -0.921875 -1.8125 -0.921875q-1.046875 0 -1.859375 0.984375q-0.796875 0.96875 -0.796875 2.84375zm8.875702 4.78125l0 -9.671875l1.46875 0l0 1.46875q0.5625 -1.03125 1.03125 -1.359375q0.484375 -0.328125 1.0625 -0.328125q0.828125 0 1.6875 0.53125l-0.5625 1.515625q-0.609375 -0.359375 -1.203125 -0.359375q-0.546875 0 -0.96875 0.328125q-0.421875 0.328125 -0.609375 0.890625q-0.28125 0.875 -0.28125 1.921875l0 5.0625l-1.625 0zm5.618927 -4.84375q0 -2.6875 1.484375 -3.96875q1.25 -1.078125 3.046875 -1.078125q2.0 0 3.265625 1.3125q1.265625 1.296875 1.265625 3.609375q0 1.859375 -0.5625 2.9375q-0.5625 1.0625 -1.640625 1.65625q-1.0625 0.59375 -2.328125 0.59375q-2.03125 0 -3.28125 -1.296875q-1.25 -1.3125 -1.25 -3.765625zm1.6875 0q0 1.859375 0.796875 2.796875q0.8125 0.921875 2.046875 0.921875q1.21875 0 2.03125 -0.921875q0.8125 -0.9375 0.8125 -2.84375q0 -1.796875 -0.8125 -2.71875q-0.8125 -0.921875 -2.03125 -0.921875q-1.234375 0 -2.046875 0.921875q-0.796875 0.90625 -0.796875 2.765625zm15.610107 1.296875l1.609375 0.21875q-0.265625 1.65625 -1.359375 2.609375q-1.078125 0.9375 -2.671875 0.9375q-1.984375 0 -3.1875 -1.296875q-1.203125 -1.296875 -1.203125 -3.71875q0 -1.578125 0.515625 -2.75q0.515625 -1.171875 1.578125 -1.75q1.0625 -0.59375 2.3125 -0.59375q1.578125 0 2.578125 0.796875q1.0 0.796875 1.28125 2.265625l-1.59375 0.234375q-0.234375 -0.96875 -0.8125 -1.453125q-0.578125 -0.5 -1.390625 -0.5q-1.234375 0 -2.015625 0.890625q-0.78125 0.890625 -0.78125 2.8125q0 1.953125 0.75 2.84375q0.75 0.875 1.953125 0.875q0.96875 0 1.609375 -0.59375q0.65625 -0.59375 0.828125 -1.828125zm9.640625 0.4375l1.6875 0.203125q-0.40625 1.484375 -1.484375 2.3125q-1.078125 0.8125 -2.765625 0.8125q-2.125 0 -3.375 -1.296875q-1.234375 -1.3125 -1.234375 -3.671875q0 -2.453125 1.25 -3.796875q1.265625 -1.34375 3.265625 -1.34375q1.9375 0 3.15625 1.328125q1.234375 1.3125 1.234375 3.703125q0 0.15625 0 0.4375l-7.21875 0q0.09375 1.59375 0.90625 2.453125q0.8125 0.84375 2.015625 0.84375q0.90625 0 1.546875 -0.46875q0.640625 -0.484375 1.015625 -1.515625zm-5.390625 -2.65625l5.40625 0q-0.109375 -1.21875 -0.625 -1.828125q-0.78125 -0.953125 -2.03125 -0.953125q-1.125 0 -1.90625 0.765625q-0.765625 0.75 -0.84375 2.015625zm8.485077 2.875l1.625 -0.25q0.125 0.96875 0.75 1.5q0.625 0.515625 1.75 0.515625q1.125 0 1.671875 -0.453125q0.546875 -0.46875 0.546875 -1.09375q0 -0.546875 -0.484375 -0.875q-0.328125 -0.21875 -1.671875 -0.546875q-1.8125 -0.46875 -2.515625 -0.796875q-0.6875 -0.328125 -1.046875 -0.90625q-0.359375 -0.59375 -0.359375 -1.3125q0 -0.640625 0.296875 -1.1875q0.296875 -0.5625 0.8125 -0.921875q0.375 -0.28125 1.03125 -0.46875q0.671875 -0.203125 1.421875 -0.203125q1.140625 0 2.0 0.328125q0.859375 0.328125 1.265625 0.890625q0.421875 0.5625 0.578125 1.5l-1.609375 0.21875q-0.109375 -0.75 -0.640625 -1.171875q-0.515625 -0.421875 -1.46875 -0.421875q-1.140625 0 -1.625 0.375q-0.46875 0.375 -0.46875 0.875q0 0.3125 0.1875 0.578125q0.203125 0.265625 0.640625 0.4375q0.234375 0.09375 1.4375 0.421875q1.75 0.453125 2.4375 0.75q0.6875 0.296875 1.078125 0.859375q0.390625 0.5625 0.390625 1.40625q0 0.828125 -0.484375 1.546875q-0.46875 0.71875 -1.375 1.125q-0.90625 0.390625 -2.046875 0.390625q-1.875 0 -2.875 -0.78125q-0.984375 -0.78125 -1.25 -2.328125zm9.328125 0l1.625 -0.25q0.125 0.96875 0.75 1.5q0.625 0.515625 1.75 0.515625q1.125 0 1.671875 -0.453125q0.546875 -0.46875 0.546875 -1.09375q0 -0.546875 -0.484375 -0.875q-0.328125 -0.21875 -1.671875 -0.546875q-1.8125 -0.46875 -2.515625 -0.796875q-0.6875 -0.328125 -1.046875 -0.90625q-0.359375 -0.59375 -0.359375 -1.3125q0 -0.640625 0.296875 -1.1875q0.296875 -0.5625 0.8125 -0.921875q0.375 -0.28125 1.03125 -0.46875q0.671875 -0.203125 1.421875 -0.203125q1.140625 0 2.0 0.328125q0.859375 0.328125 1.265625 0.890625q0.421875 0.5625 0.578125 1.5l-1.609375 0.21875q-0.109375 -0.75 -0.640625 -1.171875q-0.515625 -0.421875 -1.46875 -0.421875q-1.140625 0 -1.625 0.375q-0.46875 0.375 -0.46875 0.875q0 0.3125 0.1875 0.578125q0.203125 0.265625 0.640625 0.4375q0.234375 0.09375 1.4375 0.421875q1.75 0.453125 2.4375 0.75q0.6875 0.296875 1.078125 0.859375q0.390625 0.5625 0.390625 1.40625q0 0.828125 -0.484375 1.546875q-0.46875 0.71875 -1.375 1.125q-0.90625 0.390625 -2.046875 0.390625q-1.875 0 -2.875 -0.78125q-0.984375 -0.78125 -1.25 -2.328125z" fill-rule="nonzero"/><path fill="#000000" fill-opacity="0.0" d="m166.43176 217.37796l0 86.96063l138.01575 0" fill-rule="evenodd"/><path stroke="#efefef" stroke-width="2.0" stroke-linejoin="round" stroke-linecap="butt" d="m166.43176 217.37796l0 86.96063l126.01575 0" fill-rule="evenodd"/><path fill="#efefef" stroke="#efefef" stroke-width="2.0" stroke-linecap="butt" d="m292.4475 307.64206l9.076202 -3.3034668l-9.076202 -3.3034668z" fill-rule="evenodd"/><path fill="#000000" fill-opacity="0.0" d="m381.93307 269.3937l0 -86.96063l-134.83466 0" fill-rule="evenodd"/><path stroke="#efefef" stroke-width="2.0" stroke-linejoin="round" stroke-linecap="butt" d="m381.93307 269.3937l0 -86.96063l-122.834656 0" fill-rule="evenodd"/><path fill="#efefef" stroke="#efefef" stroke-width="2.0" stroke-linecap="butt" d="m259.09842 179.12961l-9.076187 3.3034668l9.076187 3.3034668z" fill-rule="evenodd"/><path fill="#000000" fill-opacity="0.0" d="m85.7664 182.43176l-24.999947 0l0 206.67715l43.677116 0" fill-rule="evenodd"/><path stroke="#efefef" stroke-width="2.0" stroke-linejoin="round" stroke-linecap="butt" d="m85.7664 182.43176l-24.999943 0l0 206.67715l31.677113 0" fill-rule="evenodd"/><path fill="#efefef" stroke="#efefef" stroke-width="2.0" stroke-linecap="butt" d="m92.44357 392.41238l9.076195 -3.3034668l-9.076195 -3.3034668z" fill-rule="evenodd"/><path fill="#cfe2f3" d="m88.9462 85.02887l30.993698 -50.286087l123.97481 0l-30.993713 50.286087z" fill-rule="evenodd"/><path stroke="#76a5af" stroke-width="2.0" stroke-linejoin="round" stroke-linecap="butt" d="m88.9462 85.02887l30.993698 -50.286087l123.97481 0l-30.993713 50.286087z" fill-rule="evenodd"/><path fill="#000000" d="m130.70723 52.9152l1.625 -0.25q0.125 0.96875 0.75 1.5q0.625 0.515625 1.75 0.515625q1.125 0 1.671875 -0.453125q0.546875 -0.46875 0.546875 -1.09375q0 -0.546875 -0.484375 -0.875q-0.328125 -0.21875 -1.671875 -0.546875q-1.8125 -0.46875 -2.515625 -0.796875q-0.6875 -0.328125 -1.046875 -0.90625q-0.359375 -0.59375 -0.359375 -1.3125q0 -0.640625 0.296875 -1.1875q0.296875 -0.5625 0.8125 -0.921875q0.375 -0.28125 1.03125 -0.46875q0.671875 -0.203125 1.421875 -0.203125q1.140625 0 2.0 0.328125q0.859375 0.328125 1.265625 0.890625q0.421875 0.5625 0.578125 1.5l-1.609375 0.21875q-0.109375 -0.75 -0.640625 -1.171875q-0.515625 -0.421875 -1.46875 -0.421875q-1.140625 0 -1.625 0.375q-0.46875 0.375 -0.46875 0.875q0 0.3125 0.1875 0.578125q0.203125 0.265625 0.640625 0.4375q0.234375 0.09375 1.4375 0.421875q1.75 0.453125 2.4375 0.75q0.6875 0.296875 1.078125 0.859375q0.390625 0.5625 0.390625 1.40625q0 0.828125 -0.484375 1.546875q-0.46875 0.71875 -1.375 1.125q-0.90625 0.390625 -2.046875 0.390625q-1.875 0 -2.875 -0.78125q-0.984375 -0.78125 -1.25 -2.328125zm13.5625 1.421875l0.234375 1.453125q-0.6875 0.140625 -1.234375 0.140625q-0.890625 0 -1.390625 -0.28125q-0.484375 -0.28125 -0.6875 -0.734375q-0.203125 -0.46875 -0.203125 -1.9375l0 -5.578125l-1.203125 0l0 -1.265625l1.203125 0l0 -2.390625l1.625 -0.984375l0 3.375l1.65625 0l0 1.265625l-1.65625 0l0 5.671875q0 0.6875 0.078125 0.890625q0.09375 0.203125 0.28125 0.328125q0.203125 0.109375 0.578125 0.109375q0.265625 0 0.71875 -0.0625zm7.917679 0.28125q-0.921875 0.765625 -1.765625 1.09375q-0.828125 0.3125 -1.796875 0.3125q-1.59375 0 -2.453125 -0.78125q-0.859375 -0.78125 -0.859375 -1.984375q0 -0.71875 0.328125 -1.296875q0.328125 -0.59375 0.84375 -0.9375q0.53125 -0.359375 1.1875 -0.546875q0.46875 -0.125 1.453125 -0.25q1.984375 -0.234375 2.921875 -0.5625q0.015625 -0.34375 0.015625 -0.421875q0 -1.0 -0.46875 -1.421875q-0.625 -0.546875 -1.875 -0.546875q-1.15625 0 -1.703125 0.40625q-0.546875 0.40625 -0.8125 1.421875l-1.609375 -0.21875q0.21875 -1.015625 0.71875 -1.640625q0.5 -0.640625 1.453125 -0.984375q0.953125 -0.34375 2.1875 -0.34375q1.25 0 2.015625 0.296875q0.78125 0.28125 1.140625 0.734375q0.375 0.4375 0.515625 1.109375q0.078125 0.421875 0.078125 1.515625l0 2.1875q0 2.28125 0.109375 2.890625q0.109375 0.59375 0.40625 1.15625l-1.703125 0q-0.265625 -0.515625 -0.328125 -1.1875zm-0.140625 -3.671875q-0.890625 0.375 -2.671875 0.625q-1.015625 0.140625 -1.4375 0.328125q-0.421875 0.1875 -0.65625 0.53125q-0.21875 0.34375 -0.21875 0.78125q0 0.65625 0.5 1.09375q0.5 0.4375 1.453125 0.4375q0.9375 0 1.671875 -0.40625q0.75 -0.421875 1.09375 -1.140625q0.265625 -0.5625 0.265625 -1.640625l0 -0.609375zm4.203842 4.859375l0 -9.671875l1.46875 0l0 1.375q1.0625 -1.59375 3.078125 -1.59375q0.875 0 1.609375 0.3125q0.734375 0.3125 1.09375 0.828125q0.375 0.5 0.515625 1.203125q0.09375 0.453125 0.09375 1.59375l0 5.953125l-1.640625 0l0 -5.890625q0 -1.0 -0.203125 -1.484375q-0.1875 -0.5 -0.671875 -0.796875q-0.484375 -0.296875 -1.140625 -0.296875q-1.046875 0 -1.8125 0.671875q-0.75 0.65625 -0.75 2.515625l0 5.28125l-1.640625 0zm16.641342 0l0 -1.21875q-0.90625 1.4375 -2.703125 1.4375q-1.15625 0 -2.125 -0.640625q-0.96875 -0.640625 -1.5 -1.78125q-0.53125 -1.140625 -0.53125 -2.625q0 -1.453125 0.484375 -2.625q0.484375 -1.1875 1.4375 -1.8125q0.96875 -0.625 2.171875 -0.625q0.875 0 1.546875 0.375q0.6875 0.359375 1.109375 0.953125l0 -4.796875l1.640625 0l0 13.359375l-1.53125 0zm-5.171875 -4.828125q0 1.859375 0.78125 2.78125q0.78125 0.921875 1.84375 0.921875q1.078125 0 1.828125 -0.875q0.75 -0.890625 0.75 -2.6875q0 -1.984375 -0.765625 -2.90625q-0.765625 -0.9375 -1.890625 -0.9375q-1.078125 0 -1.8125 0.890625q-0.734375 0.890625 -0.734375 2.8125zm15.594467 3.640625q-0.921875 0.765625 -1.765625 1.09375q-0.828125 0.3125 -1.796875 0.3125q-1.59375 0 -2.453125 -0.78125q-0.859375 -0.78125 -0.859375 -1.984375q0 -0.71875 0.328125 -1.296875q0.328125 -0.59375 0.84375 -0.9375q0.53125 -0.359375 1.1875 -0.546875q0.46875 -0.125 1.453125 -0.25q1.984375 -0.234375 2.921875 -0.5625q0.015625 -0.34375 0.015625 -0.421875q0 -1.0 -0.46875 -1.421875q-0.625 -0.546875 -1.875 -0.546875q-1.15625 0 -1.703125 0.40625q-0.546875 0.40625 -0.8125 1.421875l-1.609375 -0.21875q0.21875 -1.015625 0.71875 -1.640625q0.5 -0.640625 1.453125 -0.984375q0.953125 -0.34375 2.1875 -0.34375q1.25 0 2.015625 0.296875q0.78125 0.28125 1.140625 0.734375q0.375 0.4375 0.515625 1.109375q0.078125 0.421875 0.078125 1.515625l0 2.1875q0 2.28125 0.109375 2.890625q0.109375 0.59375 0.40625 1.15625l-1.703125 0q-0.265625 -0.515625 -0.328125 -1.1875zm-0.140625 -3.671875q-0.890625 0.375 -2.671875 0.625q-1.015625 0.140625 -1.4375 0.328125q-0.421875 0.1875 -0.65625 0.53125q-0.21875 0.34375 -0.21875 0.78125q0 0.65625 0.5 1.09375q0.5 0.4375 1.453125 0.4375q0.9375 0 1.671875 -0.40625q0.75 -0.421875 1.09375 -1.140625q0.265625 -0.5625 0.265625 -1.640625l0 -0.609375zm4.188217 4.859375l0 -9.671875l1.46875 0l0 1.46875q0.5625 -1.03125 1.03125 -1.359375q0.484375 -0.328125 1.0625 -0.328125q0.828125 0 1.6875 0.53125l-0.5625 1.515625q-0.609375 -0.359375 -1.203125 -0.359375q-0.546875 0 -0.96875 0.328125q-0.421875 0.328125 -0.609375 0.890625q-0.28125 0.875 -0.28125 1.921875l0 5.0625l-1.625 0zm12.493927 0l0 -1.21875q-0.90625 1.4375 -2.703125 1.4375q-1.15625 0 -2.125 -0.640625q-0.96875 -0.640625 -1.5 -1.78125q-0.53125 -1.140625 -0.53125 -2.625q0 -1.453125 0.484375 -2.625q0.484375 -1.1875 1.4375 -1.8125q0.96875 -0.625 2.171875 -0.625q0.875 0 1.546875 0.375q0.6875 0.359375 1.109375 0.953125l0 -4.796875l1.640625 0l0 13.359375l-1.53125 0zm-5.171875 -4.828125q0 1.859375 0.78125 2.78125q0.78125 0.921875 1.84375 0.921875q1.078125 0 1.828125 -0.875q0.75 -0.890625 0.75 -2.6875q0 -1.984375 -0.765625 -2.90625q-0.765625 -0.9375 -1.890625 -0.9375q-1.078125 0 -1.8125 0.890625q-0.734375 0.890625 -0.734375 2.8125z" fill-rule="nonzero"/><path fill="#000000" d="m147.43718 66.337074l0 -1.890625l1.640625 0l0 1.890625l-1.640625 0zm0 11.46875l0 -9.671875l1.640625 0l0 9.671875l-1.640625 0zm4.144821 0l0 -9.671875l1.46875 0l0 1.375q1.0625 -1.59375 3.078125 -1.59375q0.875 0 1.609375 0.3125q0.734375 0.3125 1.09375 0.828125q0.375 0.5 0.515625 1.203125q0.09375 0.453125 0.09375 1.59375l0 5.953125l-1.640625 0l0 -5.890625q0 -1.0 -0.203125 -1.484375q-0.1875 -0.5 -0.671875 -0.796875q-0.484375 -0.296875 -1.140625 -0.296875q-1.046875 0 -1.8125 0.671875q-0.75 0.65625 -0.75 2.515625l0 5.28125l-1.640625 0zm10.375717 3.703125l0 -13.375l1.484375 0l0 1.25q0.53125 -0.734375 1.1875 -1.09375q0.671875 -0.375 1.625 -0.375q1.234375 0 2.171875 0.640625q0.953125 0.625 1.4375 1.796875q0.484375 1.15625 0.484375 2.546875q0 1.484375 -0.53125 2.671875q-0.53125 1.1875 -1.546875 1.828125q-1.015625 0.625 -2.140625 0.625q-0.8125 0 -1.46875 -0.34375q-0.65625 -0.34375 -1.0625 -0.875l0 4.703125l-1.640625 0zm1.484375 -8.484375q0 1.859375 0.75 2.765625q0.765625 0.890625 1.828125 0.890625q1.09375 0 1.875 -0.921875q0.78125 -0.9375 0.78125 -2.875q0 -1.84375 -0.765625 -2.765625q-0.75 -0.921875 -1.8125 -0.921875q-1.046875 0 -1.859375 0.984375q-0.796875 0.96875 -0.796875 2.84375zm15.219467 4.78125l0 -1.421875q-1.125 1.640625 -3.0625 1.640625q-0.859375 0 -1.609375 -0.328125q-0.734375 -0.328125 -1.09375 -0.828125q-0.359375 -0.5 -0.5 -1.21875q-0.109375 -0.46875 -0.109375 -1.53125l0 -5.984375l1.640625 0l0 5.359375q0 1.28125 0.109375 1.734375q0.15625 0.640625 0.65625 1.015625q0.5 0.375 1.234375 0.375q0.734375 0 1.375 -0.375q0.65625 -0.390625 0.921875 -1.03125q0.265625 -0.65625 0.265625 -1.890625l0 -5.1875l1.640625 0l0 9.671875l-1.46875 0zm7.625717 -1.46875l0.234375 1.453125q-0.6875 0.140625 -1.234375 0.140625q-0.890625 0 -1.390625 -0.28125q-0.484375 -0.28125 -0.6875 -0.734375q-0.203125 -0.46875 -0.203125 -1.9375l0 -5.578125l-1.203125 0l0 -1.265625l1.203125 0l0 -2.390625l1.625 -0.984375l0 3.375l1.65625 0l0 1.265625l-1.65625 0l0 5.671875q0 0.6875 0.078125 0.890625q0.09375 0.203125 0.28125 0.328125q0.203125 0.109375 0.578125 0.109375q0.265625 0 0.71875 -0.0625z" fill-rule="nonzero"/><path fill="#cfe2f3" d="m88.9462 414.25986l30.993698 -50.286102l123.97481 0l-30.993713 50.286102z" fill-rule="evenodd"/><path stroke="#76a5af" stroke-width="2.0" stroke-linejoin="round" stroke-linecap="butt" d="m88.9462 414.25986l30.993698 -50.286102l123.97481 0l-30.993713 50.286102z" fill-rule="evenodd"/><path fill="#000000" d="m130.70723 382.14618l1.625 -0.25q0.125 0.96875 0.75 1.5q0.625 0.515625 1.75 0.515625q1.125 0 1.671875 -0.453125q0.546875 -0.46875 0.546875 -1.09375q0 -0.546875 -0.484375 -0.875q-0.328125 -0.21875 -1.671875 -0.546875q-1.8125 -0.46875 -2.515625 -0.796875q-0.6875 -0.328125 -1.046875 -0.90625q-0.359375 -0.59375 -0.359375 -1.3125q0 -0.640625 0.296875 -1.1875q0.296875 -0.5625 0.8125 -0.921875q0.375 -0.28125 1.03125 -0.46875q0.671875 -0.203125 1.421875 -0.203125q1.140625 0 2.0 0.328125q0.859375 0.328125 1.265625 0.890625q0.421875 0.5625 0.578125 1.5l-1.609375 0.21875q-0.109375 -0.75 -0.640625 -1.171875q-0.515625 -0.421875 -1.46875 -0.421875q-1.140625 0 -1.625 0.375q-0.46875 0.375 -0.46875 0.875q0 0.3125 0.1875 0.578125q0.203125 0.265625 0.640625 0.4375q0.234375 0.09375 1.4375 0.421875q1.75 0.453125 2.4375 0.75q0.6875 0.296875 1.078125 0.859375q0.390625 0.5625 0.390625 1.40625q0 0.828125 -0.484375 1.546875q-0.46875 0.71875 -1.375 1.125q-0.90625 0.390625 -2.046875 0.390625q-1.875 0 -2.875 -0.78125q-0.984375 -0.78125 -1.25 -2.328125zm13.5625 1.421875l0.234375 1.453125q-0.6875 0.140625 -1.234375 0.140625q-0.890625 0 -1.390625 -0.28125q-0.484375 -0.28125 -0.6875 -0.734375q-0.203125 -0.46875 -0.203125 -1.9375l0 -5.578125l-1.203125 0l0 -1.265625l1.203125 0l0 -2.390625l1.625 -0.984375l0 3.375l1.65625 0l0 1.265625l-1.65625 0l0 5.671875q0 0.6875 0.078125 0.890625q0.09375 0.203125 0.28125 0.328125q0.203125 0.109375 0.578125 0.109375q0.265625 0 0.71875 -0.0625zm7.917679 0.28125q-0.921875 0.765625 -1.765625 1.09375q-0.828125 0.3125 -1.796875 0.3125q-1.59375 0 -2.453125 -0.78125q-0.859375 -0.78125 -0.859375 -1.984375q0 -0.71875 0.328125 -1.296875q0.328125 -0.59375 0.84375 -0.9375q0.53125 -0.359375 1.1875 -0.546875q0.46875 -0.125 1.453125 -0.25q1.984375 -0.234375 2.921875 -0.5625q0.015625 -0.34375 0.015625 -0.421875q0 -1.0 -0.46875 -1.421875q-0.625 -0.546875 -1.875 -0.546875q-1.15625 0 -1.703125 0.40625q-0.546875 0.40625 -0.8125 1.421875l-1.609375 -0.21875q0.21875 -1.015625 0.71875 -1.640625q0.5 -0.640625 1.453125 -0.984375q0.953125 -0.34375 2.1875 -0.34375q1.25 0 2.015625 0.296875q0.78125 0.28125 1.140625 0.734375q0.375 0.4375 0.515625 1.109375q0.078125 0.421875 0.078125 1.515625l0 2.1875q0 2.28125 0.109375 2.890625q0.109375 0.59375 0.40625 1.15625l-1.703125 0q-0.265625 -0.515625 -0.328125 -1.1875zm-0.140625 -3.671875q-0.890625 0.375 -2.671875 0.625q-1.015625 0.140625 -1.4375 0.328125q-0.421875 0.1875 -0.65625 0.53125q-0.21875 0.34375 -0.21875 0.78125q0 0.65625 0.5 1.09375q0.5 0.4375 1.453125 0.4375q0.9375 0 1.671875 -0.40625q0.75 -0.421875 1.09375 -1.140625q0.265625 -0.5625 0.265625 -1.640625l0 -0.609375zm4.203842 4.859375l0 -9.671875l1.46875 0l0 1.375q1.0625 -1.59375 3.078125 -1.59375q0.875 0 1.609375 0.3125q0.734375 0.3125 1.09375 0.828125q0.375 0.5 0.515625 1.203125q0.09375 0.453125 0.09375 1.59375l0 5.953125l-1.640625 0l0 -5.890625q0 -1.0 -0.203125 -1.484375q-0.1875 -0.5 -0.671875 -0.796875q-0.484375 -0.296875 -1.140625 -0.296875q-1.046875 0 -1.8125 0.671875q-0.75 0.65625 -0.75 2.515625l0 5.28125l-1.640625 0zm16.641342 0l0 -1.21875q-0.90625 1.4375 -2.703125 1.4375q-1.15625 0 -2.125 -0.640625q-0.96875 -0.640625 -1.5 -1.78125q-0.53125 -1.140625 -0.53125 -2.625q0 -1.453125 0.484375 -2.625q0.484375 -1.1875 1.4375 -1.8125q0.96875 -0.625 2.171875 -0.625q0.875 0 1.546875 0.375q0.6875 0.359375 1.109375 0.953125l0 -4.796875l1.640625 0l0 13.359375l-1.53125 0zm-5.171875 -4.828125q0 1.859375 0.78125 2.78125q0.78125 0.921875 1.84375 0.921875q1.078125 0 1.828125 -0.875q0.75 -0.890625 0.75 -2.6875q0 -1.984375 -0.765625 -2.90625q-0.765625 -0.9375 -1.890625 -0.9375q-1.078125 0 -1.8125 0.890625q-0.734375 0.890625 -0.734375 2.8125zm15.594467 3.640625q-0.921875 0.765625 -1.765625 1.09375q-0.828125 0.3125 -1.796875 0.3125q-1.59375 0 -2.453125 -0.78125q-0.859375 -0.78125 -0.859375 -1.984375q0 -0.71875 0.328125 -1.296875q0.328125 -0.59375 0.84375 -0.9375q0.53125 -0.359375 1.1875 -0.546875q0.46875 -0.125 1.453125 -0.25q1.984375 -0.234375 2.921875 -0.5625q0.015625 -0.34375 0.015625 -0.421875q0 -1.0 -0.46875 -1.421875q-0.625 -0.546875 -1.875 -0.546875q-1.15625 0 -1.703125 0.40625q-0.546875 0.40625 -0.8125 1.421875l-1.609375 -0.21875q0.21875 -1.015625 0.71875 -1.640625q0.5 -0.640625 1.453125 -0.984375q0.953125 -0.34375 2.1875 -0.34375q1.25 0 2.015625 0.296875q0.78125 0.28125 1.140625 0.734375q0.375 0.4375 0.515625 1.109375q0.078125 0.421875 0.078125 1.515625l0 2.1875q0 2.28125 0.109375 2.890625q0.109375 0.59375 0.40625 1.15625l-1.703125 0q-0.265625 -0.515625 -0.328125 -1.1875zm-0.140625 -3.671875q-0.890625 0.375 -2.671875 0.625q-1.015625 0.140625 -1.4375 0.328125q-0.421875 0.1875 -0.65625 0.53125q-0.21875 0.34375 -0.21875 0.78125q0 0.65625 0.5 1.09375q0.5 0.4375 1.453125 0.4375q0.9375 0 1.671875 -0.40625q0.75 -0.421875 1.09375 -1.140625q0.265625 -0.5625 0.265625 -1.640625l0 -0.609375zm4.188217 4.859375l0 -9.671875l1.46875 0l0 1.46875q0.5625 -1.03125 1.03125 -1.359375q0.484375 -0.328125 1.0625 -0.328125q0.828125 0 1.6875 0.53125l-0.5625 1.515625q-0.609375 -0.359375 -1.203125 -0.359375q-0.546875 0 -0.96875 0.328125q-0.421875 0.328125 -0.609375 0.890625q-0.28125 0.875 -0.28125 1.921875l0 5.0625l-1.625 0zm12.493927 0l0 -1.21875q-0.90625 1.4375 -2.703125 1.4375q-1.15625 0 -2.125 -0.640625q-0.96875 -0.640625 -1.5 -1.78125q-0.53125 -1.140625 -0.53125 -2.625q0 -1.453125 0.484375 -2.625q0.484375 -1.1875 1.4375 -1.8125q0.96875 -0.625 2.171875 -0.625q0.875 0 1.546875 0.375q0.6875 0.359375 1.109375 0.953125l0 -4.796875l1.640625 0l0 13.359375l-1.53125 0zm-5.171875 -4.828125q0 1.859375 0.78125 2.78125q0.78125 0.921875 1.84375 0.921875q1.078125 0 1.828125 -0.875q0.75 -0.890625 0.75 -2.6875q0 -1.984375 -0.765625 -2.90625q-0.765625 -0.9375 -1.890625 -0.9375q-1.078125 0 -1.8125 0.890625q-0.734375 0.890625 -0.734375 2.8125z" fill-rule="nonzero"/><path fill="#000000" d="m141.12071 402.19305q0 -2.6875 1.484375 -3.96875q1.25 -1.078125 3.046875 -1.078125q2.0 0 3.265625 1.3125q1.265625 1.296875 1.265625 3.609375q0 1.859375 -0.5625 2.9375q-0.5625 1.0625 -1.640625 1.65625q-1.0625 0.59375 -2.328125 0.59375q-2.03125 0 -3.28125 -1.296875q-1.25 -1.3125 -1.25 -3.765625zm1.6875 0q0 1.859375 0.796875 2.796875q0.8125 0.921875 2.046875 0.921875q1.21875 0 2.03125 -0.921875q0.8125 -0.9375 0.8125 -2.84375q0 -1.796875 -0.8125 -2.71875q-0.8125 -0.921875 -2.03125 -0.921875q-1.234375 0 -2.046875 0.921875q-0.796875 0.90625 -0.796875 2.765625zm15.625717 4.84375l0 -1.421875q-1.125 1.640625 -3.0625 1.640625q-0.859375 0 -1.609375 -0.328125q-0.734375 -0.328125 -1.09375 -0.828125q-0.359375 -0.5 -0.5 -1.21875q-0.109375 -0.46875 -0.109375 -1.53125l0 -5.984375l1.640625 0l0 5.359375q0 1.28125 0.109375 1.734375q0.15625 0.640625 0.65625 1.015625q0.5 0.375 1.234375 0.375q0.734375 0 1.375 -0.375q0.65625 -0.390625 0.921875 -1.03125q0.265625 -0.65625 0.265625 -1.890625l0 -5.1875l1.640625 0l0 9.671875l-1.46875 0zm7.625717 -1.46875l0.234375 1.453125q-0.6875 0.140625 -1.234375 0.140625q-0.890625 0 -1.390625 -0.28125q-0.484375 -0.28125 -0.6875 -0.734375q-0.203125 -0.46875 -0.203125 -1.9375l0 -5.578125l-1.203125 0l0 -1.265625l1.203125 0l0 -2.390625l1.625 -0.984375l0 3.375l1.65625 0l0 1.265625l-1.65625 0l0 5.671875q0 0.6875 0.078125 0.890625q0.09375 0.203125 0.28125 0.328125q0.203125 0.109375 0.578125 0.109375q0.265625 0 0.71875 -0.0625zm1.6051788 5.171875l0 -13.375l1.484375 0l0 1.25q0.53125 -0.734375 1.1875 -1.09375q0.671875 -0.375 1.625 -0.375q1.234375 0 2.171875 0.640625q0.953125 0.625 1.4375 1.796875q0.484375 1.15625 0.484375 2.546875q0 1.484375 -0.53125 2.671875q-0.53125 1.1875 -1.546875 1.828125q-1.015625 0.625 -2.140625 0.625q-0.8125 0 -1.46875 -0.34375q-0.65625 -0.34375 -1.0625 -0.875l0 4.703125l-1.640625 0zm1.484375 -8.484375q0 1.859375 0.75 2.765625q0.765625 0.890625 1.828125 0.890625q1.09375 0 1.875 -0.921875q0.78125 -0.9375 0.78125 -2.875q0 -1.84375 -0.765625 -2.765625q-0.75 -0.921875 -1.8125 -0.921875q-1.046875 0 -1.859375 0.984375q-0.796875 0.96875 -0.796875 2.84375zm15.219467 4.78125l0 -1.421875q-1.125 1.640625 -3.0625 1.640625q-0.859375 0 -1.609375 -0.328125q-0.734375 -0.328125 -1.09375 -0.828125q-0.359375 -0.5 -0.5 -1.21875q-0.109375 -0.46875 -0.109375 -1.53125l0 -5.984375l1.640625 0l0 5.359375q0 1.28125 0.109375 1.734375q0.15625 0.640625 0.65625 1.015625q0.5 0.375 1.234375 0.375q0.734375 0 1.375 -0.375q0.65625 -0.390625 0.921875 -1.03125q0.265625 -0.65625 0.265625 -1.890625l0 -5.1875l1.640625 0l0 9.671875l-1.46875 0zm7.625717 -1.46875l0.234375 1.453125q-0.6875 0.140625 -1.234375 0.140625q-0.890625 0 -1.390625 -0.28125q-0.484375 -0.28125 -0.6875 -0.734375q-0.203125 -0.46875 -0.203125 -1.9375l0 -5.578125l-1.203125 0l0 -1.265625l1.203125 0l0 -2.390625l1.625 -0.984375l0 3.375l1.65625 0l0 1.265625l-1.65625 0l0 5.671875q0 0.6875 0.078125 0.890625q0.09375 0.203125 0.28125 0.328125q0.203125 0.109375 0.578125 0.109375q0.265625 0 0.71875 -0.0625z" fill-rule="nonzero"/><path fill="#000000" fill-opacity="0.0" d="m166.43045 85.02887l0 31.228348l0.06298828 0l0 31.228348" fill-rule="evenodd"/><path stroke="#efefef" stroke-width="2.0" stroke-linejoin="round" stroke-linecap="butt" d="m166.43045 85.02887l0 31.228348l0.06298828 0l0 19.228348" fill-rule="evenodd"/><path fill="#efefef" stroke="#efefef" stroke-width="2.0" stroke-linecap="butt" d="m163.18997 135.48557l3.3034668 9.076187l3.3034668 -9.076187z" fill-rule="evenodd"/><path fill="#000000" fill-opacity="0.0" d="m178.74803 250.08923l113.38582 0l0 50.299225l-113.38582 0z" fill-rule="evenodd"/><path fill="#efefef" d="m188.88866 261.9311l0 -2.015625l2.171875 0l0 2.015625l-2.171875 0zm0 9.34375l0 -8.21875l2.171875 0l0 8.21875l-2.171875 0zm11.890625 0l-2.1875 0l0 -4.203125q0 -1.328125 -0.140625 -1.71875q-0.125 -0.390625 -0.453125 -0.609375q-0.3125 -0.21875 -0.75 -0.21875q-0.5625 0 -1.015625 0.3125q-0.453125 0.3125 -0.625 0.828125q-0.15625 0.5 -0.15625 1.890625l0 3.71875l-2.171875 0l0 -8.21875l2.015625 0l0 1.203125q1.078125 -1.390625 2.71875 -1.390625q0.71875 0 1.3125 0.265625q0.59375 0.25 0.890625 0.65625q0.3125 0.40625 0.4375 0.921875q0.125 0.5 0.125 1.453125l0 5.109375zm2.1406708 -8.21875l2.03125 0l0 1.203125q0.390625 -0.625 1.0625 -1.0q0.671875 -0.390625 1.5 -0.390625q1.421875 0 2.421875 1.125q1.0 1.109375 1.0 3.125q0 2.0625 -1.015625 3.203125q-1.0 1.140625 -2.421875 1.140625q-0.6875 0 -1.25 -0.265625q-0.546875 -0.28125 -1.15625 -0.9375l0 4.140625l-2.171875 0l0 -11.34375zm2.15625 3.96875q0 1.390625 0.546875 2.046875q0.546875 0.65625 1.34375 0.65625q0.75 0 1.25 -0.59375q0.515625 -0.609375 0.515625 -2.0q0 -1.296875 -0.53125 -1.921875q-0.515625 -0.625 -1.28125 -0.625q-0.796875 0 -1.328125 0.625q-0.515625 0.609375 -0.515625 1.8125zm13.000046 4.25l0 -1.234375q-0.4375 0.65625 -1.171875 1.046875q-0.734375 0.375 -1.546875 0.375q-0.828125 0 -1.484375 -0.359375q-0.65625 -0.375 -0.953125 -1.03125q-0.296875 -0.65625 -0.296875 -1.8125l0 -5.203125l2.171875 0l0 3.78125q0 1.734375 0.125 2.125q0.125 0.390625 0.4375 0.625q0.3125 0.21875 0.796875 0.21875q0.5625 0 1.0 -0.296875q0.453125 -0.3125 0.609375 -0.765625q0.15625 -0.453125 0.15625 -2.21875l0 -3.46875l2.1875 0l0 8.21875l-2.03125 0zm8.046921 -8.21875l0 1.734375l-1.484375 0l0 3.3125q0 1.0 0.046875 1.171875q0.046875 0.171875 0.1875 0.28125q0.15625 0.09375 0.375 0.09375q0.296875 0 0.875 -0.203125l0.1875 1.6875q-0.765625 0.328125 -1.71875 0.328125q-0.59375 0 -1.078125 -0.1875q-0.46875 -0.203125 -0.6875 -0.515625q-0.21875 -0.328125 -0.296875 -0.859375q-0.078125 -0.375 -0.078125 -1.53125l0 -3.578125l-1.0 0l0 -1.734375l1.0 0l0 -1.640625l2.1875 -1.265625l0 2.90625l1.484375 0z" fill-rule="nonzero"/><path fill="#efefef" d="m196.1699 282.33496l2.21875 0.703125q-0.515625 1.859375 -1.703125 2.765625q-1.1875 0.890625 -3.015625 0.890625q-2.265625 0 -3.71875 -1.53125q-1.453125 -1.546875 -1.453125 -4.234375q0 -2.828125 1.453125 -4.390625q1.46875 -1.578125 3.859375 -1.578125q2.078125 0 3.390625 1.234375q0.765625 0.71875 1.15625 2.09375l-2.265625 0.53125q-0.203125 -0.875 -0.84375 -1.390625q-0.640625 -0.515625 -1.546875 -0.515625q-1.265625 0 -2.0625 0.90625q-0.78125 0.90625 -0.78125 2.9375q0 2.15625 0.765625 3.078125q0.78125 0.90625 2.03125 0.90625q0.90625 0 1.5625 -0.578125q0.65625 -0.578125 0.953125 -1.828125zm3.7187653 -1.4375q0 -1.734375 0.515625 -2.90625q0.390625 -0.875 1.0625 -1.5625q0.671875 -0.6875 1.46875 -1.015625q1.0625 -0.453125 2.4375 -0.453125q2.515625 0 4.015625 1.5625q1.515625 1.546875 1.515625 4.328125q0 2.75 -1.5 4.296875q-1.484375 1.546875 -4.0 1.546875q-2.53125 0 -4.03125 -1.53125q-1.484375 -1.546875 -1.484375 -4.265625zm2.359375 -0.078125q0 1.9375 0.890625 2.9375q0.890625 0.984375 2.265625 0.984375q1.375 0 2.25 -0.984375q0.875 -0.984375 0.875 -2.96875q0 -1.953125 -0.859375 -2.90625q-0.84375 -0.96875 -2.265625 -0.96875q-1.421875 0 -2.296875 0.984375q-0.859375 0.96875 -0.859375 2.921875zm10.4453125 5.6875l0 -11.359375l3.671875 0q2.09375 0 2.734375 0.171875q0.96875 0.265625 1.625 1.125q0.65625 0.84375 0.65625 2.203125q0 1.046875 -0.375 1.765625q-0.375 0.703125 -0.96875 1.109375q-0.578125 0.40625 -1.1875 0.546875q-0.8125 0.15625 -2.375 0.15625l-1.484375 0l0 4.28125l-2.296875 0zm2.296875 -9.4375l0 3.234375l1.25 0q1.359375 0 1.8125 -0.171875q0.453125 -0.1875 0.703125 -0.5625q0.265625 -0.390625 0.265625 -0.890625q0 -0.625 -0.359375 -1.015625q-0.359375 -0.40625 -0.921875 -0.515625q-0.40625 -0.078125 -1.65625 -0.078125l-1.09375 0zm8.281204 9.4375l0 -11.359375l4.828125 0q1.828125 0 2.640625 0.3125q0.828125 0.3125 1.328125 1.09375q0.5 0.78125 0.5 1.78125q0 1.28125 -0.765625 2.109375q-0.75 0.828125 -2.234375 1.046875q0.734375 0.4375 1.21875 0.96875q0.484375 0.515625 1.3125 1.828125l1.390625 2.21875l-2.75 0l-1.65625 -2.46875q-0.875 -1.328125 -1.203125 -1.671875q-0.328125 -0.34375 -0.703125 -0.46875q-0.359375 -0.125 -1.140625 -0.125l-0.46875 0l0 4.734375l-2.296875 0zm2.296875 -6.546875l1.703125 0q1.640625 0 2.046875 -0.140625q0.421875 -0.140625 0.640625 -0.484375q0.234375 -0.34375 0.234375 -0.84375q0 -0.578125 -0.3125 -0.921875q-0.296875 -0.359375 -0.84375 -0.453125q-0.28125 -0.046875 -1.671875 -0.046875l-1.796875 0l0 2.890625zm8.687515 0.9375q0 -1.734375 0.515625 -2.90625q0.390625 -0.875 1.0625 -1.5625q0.671875 -0.6875 1.46875 -1.015625q1.0625 -0.453125 2.4375 -0.453125q2.515625 0 4.015625 1.5625q1.515625 1.546875 1.515625 4.328125q0 2.75 -1.5 4.296875q-1.484375 1.546875 -4.0 1.546875q-2.53125 0 -4.03125 -1.53125q-1.484375 -1.546875 -1.484375 -4.265625zm2.359375 -0.078125q0 1.9375 0.890625 2.9375q0.890625 0.984375 2.265625 0.984375q1.375 0 2.25 -0.984375q0.875 -0.984375 0.875 -2.96875q0 -1.953125 -0.859375 -2.90625q-0.84375 -0.96875 -2.265625 -0.96875q-1.421875 0 -2.296875 0.984375q-0.859375 0.96875 -0.859375 2.921875zm17.710938 1.515625l2.21875 0.703125q-0.515625 1.859375 -1.703125 2.765625q-1.1875 0.890625 -3.015625 0.890625q-2.265625 0 -3.71875 -1.53125q-1.453125 -1.546875 -1.453125 -4.234375q0 -2.828125 1.453125 -4.390625q1.46875 -1.578125 3.859375 -1.578125q2.078125 0 3.390625 1.234375q0.765625 0.71875 1.15625 2.09375l-2.265625 0.53125q-0.203125 -0.875 -0.84375 -1.390625q-0.640625 -0.515625 -1.546875 -0.515625q-1.265625 0 -2.0625 0.90625q-0.78125 0.90625 -0.78125 2.9375q0 2.15625 0.765625 3.078125q0.78125 0.90625 2.03125 0.90625q0.90625 0 1.5625 -0.578125q0.65625 -0.578125 0.953125 -1.828125zm4.15625 7.375l0 -14.5625l3.859375 0l0 1.71875l-1.78125 0l0 11.125l1.78125 0l0 1.71875l-3.859375 0zm10.390686 -3.203125l-2.171875 0l0 -8.203125q-1.1875 1.125 -2.8125 1.65625l0 -1.984375q0.859375 -0.28125 1.859375 -1.046875q1.0 -0.78125 1.359375 -1.828125l1.765625 0l0 11.40625zm6.742096 -11.359375l0 14.5625l-3.859375 0l0 -1.71875l1.78125 0l0 -11.140625l-1.78125 0l0 -1.703125l3.859375 0z" fill-rule="nonzero"/><path fill="#000000" fill-opacity="0.0" d="m268.54855 125.24672l113.38583 0l0 50.29921l-113.38583 0z" fill-rule="evenodd"/><path fill="#efefef" d="m278.18918 142.19794q0 -1.078125 0.53125 -2.09375q0.53125 -1.015625 1.5 -1.546875q0.984375 -0.53125 2.203125 -0.53125q1.859375 0 3.046875 1.21875q1.203125 1.203125 1.203125 3.046875q0 1.875 -1.203125 3.109375q-1.203125 1.21875 -3.03125 1.21875q-1.140625 0 -2.171875 -0.515625q-1.015625 -0.515625 -1.546875 -1.5q-0.53125 -0.984375 -0.53125 -2.40625zm2.21875 0.125q0 1.21875 0.578125 1.875q0.59375 0.640625 1.4375 0.640625q0.859375 0 1.4375 -0.640625q0.578125 -0.65625 0.578125 -1.890625q0 -1.203125 -0.578125 -1.859375q-0.578125 -0.65625 -1.4375 -0.65625q-0.84375 0 -1.4375 0.65625q-0.578125 0.65625 -0.578125 1.875zm13.375061 4.109375l0 -1.234375q-0.4375 0.65625 -1.171875 1.046875q-0.734375 0.375 -1.546875 0.375q-0.828125 0 -1.484375 -0.359375q-0.65625 -0.375 -0.953125 -1.03125q-0.296875 -0.65625 -0.296875 -1.8125l0 -5.203125l2.171875 0l0 3.78125q0 1.734375 0.125 2.125q0.125 0.390625 0.4375 0.625q0.3125 0.21875 0.796875 0.21875q0.5625 0 1.0 -0.296875q0.453125 -0.3125 0.609375 -0.765625q0.15625 -0.453125 0.15625 -2.21875l0 -3.46875l2.1875 0l0 8.21875l-2.03125 0zm8.0469055 -8.21875l0 1.734375l-1.484375 0l0 3.3125q0 1.0 0.046875 1.171875q0.046875 0.171875 0.1875 0.28125q0.15625 0.09375 0.375 0.09375q0.296875 0 0.875 -0.203125l0.1875 1.6875q-0.765625 0.328125 -1.71875 0.328125q-0.59375 0 -1.078125 -0.1875q-0.46875 -0.203125 -0.6875 -0.515625q-0.21875 -0.328125 -0.296875 -0.859375q-0.078125 -0.375 -0.078125 -1.53125l0 -3.578125l-1.0 0l0 -1.734375l1.0 0l0 -1.640625l2.1875 -1.265625l0 2.90625l1.484375 0zm1.453186 0l2.03125 0l0 1.203125q0.390625 -0.625 1.0625 -1.0q0.671875 -0.390625 1.5 -0.390625q1.421875 0 2.421875 1.125q1.0 1.109375 1.0 3.125q0 2.0625 -1.015625 3.203125q-1.0 1.140625 -2.421875 1.140625q-0.6875 0 -1.25 -0.265625q-0.546875 -0.28125 -1.15625 -0.9375l0 4.140625l-2.171875 0l0 -11.34375zm2.15625 3.96875q0 1.390625 0.546875 2.046875q0.546875 0.65625 1.34375 0.65625q0.75 0 1.25 -0.59375q0.515625 -0.609375 0.515625 -2.0q0 -1.296875 -0.53125 -1.921875q-0.515625 -0.625 -1.28125 -0.625q-0.796875 0 -1.328125 0.625q-0.515625 0.609375 -0.515625 1.8125zm13.0000305 4.25l0 -1.234375q-0.4375 0.65625 -1.171875 1.046875q-0.734375 0.375 -1.546875 0.375q-0.828125 0 -1.484375 -0.359375q-0.65625 -0.375 -0.953125 -1.03125q-0.296875 -0.65625 -0.296875 -1.8125l0 -5.203125l2.171875 0l0 3.78125q0 1.734375 0.125 2.125q0.125 0.390625 0.4375 0.625q0.3125 0.21875 0.796875 0.21875q0.5625 0 1.0 -0.296875q0.453125 -0.3125 0.609375 -0.765625q0.15625 -0.453125 0.15625 -2.21875l0 -3.46875l2.1875 0l0 8.21875l-2.03125 0zm8.046936 -8.21875l0 1.734375l-1.484375 0l0 3.3125q0 1.0 0.046875 1.171875q0.046875 0.171875 0.1875 0.28125q0.15625 0.09375 0.375 0.09375q0.296875 0 0.875 -0.203125l0.1875 1.6875q-0.765625 0.328125 -1.71875 0.328125q-0.59375 0 -1.078125 -0.1875q-0.46875 -0.203125 -0.6875 -0.515625q-0.21875 -0.328125 -0.296875 -0.859375q-0.078125 -0.375 -0.078125 -1.53125l0 -3.578125l-1.0 0l0 -1.734375l1.0 0l0 -1.640625l2.1875 -1.265625l0 2.90625l1.484375 0z" fill-rule="nonzero"/><path fill="#efefef" d="m285.97043 157.49245l2.21875 0.703125q-0.515625 1.859375 -1.703125 2.765625q-1.1875 0.890625 -3.015625 0.890625q-2.265625 0 -3.71875 -1.53125q-1.453125 -1.546875 -1.453125 -4.234375q0 -2.828125 1.453125 -4.390625q1.46875 -1.578125 3.859375 -1.578125q2.078125 0 3.390625 1.234375q0.765625 0.71875 1.15625 2.09375l-2.265625 0.53125q-0.203125 -0.875 -0.84375 -1.390625q-0.640625 -0.515625 -1.546875 -0.515625q-1.265625 0 -2.0625 0.90625q-0.78125 0.90625 -0.78125 2.9375q0 2.15625 0.765625 3.078125q0.78125 0.90625 2.03125 0.90625q0.90625 0 1.5625 -0.578125q0.65625 -0.578125 0.953125 -1.828125zm3.7187805 -1.4375q0 -1.734375 0.515625 -2.90625q0.390625 -0.875 1.0625 -1.5625q0.671875 -0.6875 1.46875 -1.015625q1.0625 -0.453125 2.4375 -0.453125q2.515625 0 4.015625 1.5625q1.515625 1.546875 1.515625 4.328125q0 2.75 -1.5 4.296875q-1.484375 1.546875 -4.0 1.546875q-2.53125 0 -4.03125 -1.53125q-1.484375 -1.546875 -1.484375 -4.265625zm2.359375 -0.078125q0 1.9375 0.890625 2.9375q0.890625 0.984375 2.265625 0.984375q1.375 0 2.25 -0.984375q0.875 -0.984375 0.875 -2.96875q0 -1.953125 -0.859375 -2.90625q-0.84375 -0.96875 -2.265625 -0.96875q-1.421875 0 -2.296875 0.984375q-0.859375 0.96875 -0.859375 2.921875zm10.4453125 5.6875l0 -11.359375l3.671875 0q2.09375 0 2.734375 0.171875q0.96875 0.265625 1.625 1.125q0.65625 0.84375 0.65625 2.203125q0 1.046875 -0.375 1.765625q-0.375 0.703125 -0.96875 1.109375q-0.578125 0.40625 -1.1875 0.546875q-0.8125 0.15625 -2.375 0.15625l-1.484375 0l0 4.28125l-2.296875 0zm2.296875 -9.4375l0 3.234375l1.25 0q1.359375 0 1.8125 -0.171875q0.453125 -0.1875 0.703125 -0.5625q0.265625 -0.390625 0.265625 -0.890625q0 -0.625 -0.359375 -1.015625q-0.359375 -0.40625 -0.921875 -0.515625q-0.40625 -0.078125 -1.65625 -0.078125l-1.09375 0zm8.281189 9.4375l0 -11.359375l4.828125 0q1.828125 0 2.640625 0.3125q0.828125 0.3125 1.328125 1.09375q0.5 0.78125 0.5 1.78125q0 1.28125 -0.765625 2.109375q-0.75 0.828125 -2.234375 1.046875q0.734375 0.4375 1.21875 0.96875q0.484375 0.515625 1.3125 1.828125l1.390625 2.21875l-2.75 0l-1.65625 -2.46875q-0.875 -1.328125 -1.203125 -1.671875q-0.328125 -0.34375 -0.703125 -0.46875q-0.359375 -0.125 -1.140625 -0.125l-0.46875 0l0 4.734375l-2.296875 0zm2.296875 -6.546875l1.703125 0q1.640625 0 2.046875 -0.140625q0.421875 -0.140625 0.640625 -0.484375q0.234375 -0.34375 0.234375 -0.84375q0 -0.578125 -0.3125 -0.921875q-0.296875 -0.359375 -0.84375 -0.453125q-0.28125 -0.046875 -1.671875 -0.046875l-1.796875 0l0 2.890625zm8.6875305 0.9375q0 -1.734375 0.515625 -2.90625q0.390625 -0.875 1.0625 -1.5625q0.671875 -0.6875 1.46875 -1.015625q1.0625 -0.453125 2.4375 -0.453125q2.515625 0 4.015625 1.5625q1.515625 1.546875 1.515625 4.328125q0 2.75 -1.5 4.296875q-1.484375 1.546875 -4.0 1.546875q-2.53125 0 -4.03125 -1.53125q-1.484375 -1.546875 -1.484375 -4.265625zm2.359375 -0.078125q0 1.9375 0.890625 2.9375q0.890625 0.984375 2.265625 0.984375q1.375 0 2.25 -0.984375q0.875 -0.984375 0.875 -2.96875q0 -1.953125 -0.859375 -2.90625q-0.84375 -0.96875 -2.265625 -0.96875q-1.421875 0 -2.296875 0.984375q-0.859375 0.96875 -0.859375 2.921875zm17.710938 1.515625l2.21875 0.703125q-0.515625 1.859375 -1.703125 2.765625q-1.1875 0.890625 -3.015625 0.890625q-2.265625 0 -3.71875 -1.53125q-1.453125 -1.546875 -1.453125 -4.234375q0 -2.828125 1.453125 -4.390625q1.46875 -1.578125 3.859375 -1.578125q2.078125 0 3.390625 1.234375q0.765625 0.71875 1.15625 2.09375l-2.265625 0.53125q-0.203125 -0.875 -0.84375 -1.390625q-0.640625 -0.515625 -1.546875 -0.515625q-1.265625 0 -2.0625 0.90625q-0.78125 0.90625 -0.78125 2.9375q0 2.15625 0.765625 3.078125q0.78125 0.90625 2.03125 0.90625q0.90625 0 1.5625 -0.578125q0.65625 -0.578125 0.953125 -1.828125zm4.15625 7.375l0 -14.5625l3.859375 0l0 1.71875l-1.78125 0l0 11.125l1.78125 0l0 1.71875l-3.859375 0zm8.515686 -14.609375q1.640625 0 2.578125 1.1875q1.09375 1.390625 1.09375 4.625q0 3.21875 -1.109375 4.625q-0.921875 1.15625 -2.5625 1.15625q-1.671875 0 -2.6875 -1.265625q-1.0 -1.28125 -1.0 -4.546875q0 -3.203125 1.109375 -4.609375q0.921875 -1.171875 2.578125 -1.171875zm0 1.8125q-0.40625 0 -0.71875 0.25q-0.296875 0.25 -0.46875 0.90625q-0.234375 0.84375 -0.234375 2.84375q0 2.0 0.203125 2.75q0.203125 0.734375 0.5 0.984375q0.3125 0.25 0.71875 0.25q0.390625 0 0.6875 -0.25q0.3125 -0.25 0.484375 -0.90625q0.234375 -0.828125 0.234375 -2.828125q0 -2.0 -0.203125 -2.75q-0.203125 -0.75 -0.515625 -1.0q-0.296875 -0.25 -0.6875 -0.25zm8.617096 -1.765625l0 14.5625l-3.859375 0l0 -1.71875l1.78125 0l0 -11.140625l-1.78125 0l0 -1.703125l3.859375 0z" fill-rule="nonzero"/></g></svg>