<svg version="1.1" viewBox="0.0 0.0 480.0 192.0" fill="none" stroke="none" stroke-linecap="square" stroke-miterlimit="10" xmlns:xlink="http://www.w3.org/1999/xlink" xmlns="http://www.w3.org/2000/svg"><clipPath id="p.0"><path d="m0 0l480.0 0l0 192.0l-480.0 0l0 -192.0z" clip-rule="nonzero"/></clipPath><g clip-path="url(#p.0)"><path fill="#000000" fill-opacity="0.0" d="m0 0l480.0 0l0 192.0l-480.0 0z" fill-rule="evenodd"/><path fill="#434343" d="m0 0l480.0 0l0 192.0l-480.0 0z" fill-rule="evenodd"/><path fill="#cfe2f3" d="m3.8818898 69.673225l14.432022 -18.582676l57.72808 0l-14.432018 18.582676z" fill-rule="evenodd"/><path stroke="#3c78d8" stroke-width="1.0" stroke-linejoin="round" stroke-linecap="butt" d="m3.8818898 69.673225l14.432022 -18.582676l57.72808 0l-14.432018 18.582676z" fill-rule="evenodd"/><path fill="#000000" d="m28.282661 65.18189l0 -9.546879l1.265625 0l0 8.421879l4.703125 0l0 1.125l-5.96875 0zm7.3343506 -8.187504l0 -1.359375l1.171875 0l0 1.359375l-1.171875 0zm0 8.187504l0 -6.906254l1.171875 0l0 6.906254l-1.171875 0zm2.476715 -2.0625038l1.15625 -0.1875q0.109375 0.703125 0.546875 1.0781288q0.453125 0.359375 1.25 0.359375q0.8125 0 1.203125 -0.328125q0.390625 -0.3281288 0.390625 -0.7656288q0 -0.390625 -0.359375 -0.625q-0.234375 -0.15625 -1.1875 -0.390625q-1.296875 -0.328125 -1.796875 -0.5625q-0.484375 -0.25 -0.75 -0.65625q-0.25 -0.421875 -0.25 -0.9375q0 -0.453125 0.203125 -0.84375q0.21875 -0.40625 0.578125 -0.671875q0.28125 -0.1875 0.75 -0.328125q0.46875 -0.140625 1.015625 -0.140625q0.8125 0 1.421875 0.234375q0.609375 0.234375 0.90625 0.640625q0.296875 0.390625 0.40625 1.0625l-1.140625 0.15625q-0.078125 -0.53125 -0.453125 -0.828125q-0.375 -0.3125 -1.0625 -0.3125q-0.8125 0 -1.15625 0.265625q-0.34375 0.265625 -0.34375 0.625q0 0.234375 0.140625 0.421875q0.15625 0.1875 0.453125 0.3125q0.171875 0.0625 1.03125 0.296875q1.25 0.328125 1.734375 0.546875q0.5 0.203125 0.78125 0.609375q0.28125 0.40625 0.28125 1.0q0 0.59375 -0.34375 1.1093788q-0.34375 0.515625 -1.0 0.796875q-0.640625 0.28125 -1.453125 0.28125q-1.34375 0 -2.046875 -0.5625q-0.703125 -0.5625 -0.90625 -1.6562538zm9.6953125 1.0156288l0.171875 1.03125q-0.5 0.109375 -0.890625 0.109375q-0.640625 0 -1.0 -0.203125q-0.34375 -0.203125 -0.484375 -0.53125q-0.140625 -0.328125 -0.140625 -1.3906288l0 -3.96875l-0.859375 0l0 -0.90625l0.859375 0l0 -1.71875l1.171875 -0.703125l0 2.421875l1.171875 0l0 0.90625l-1.171875 0l0 4.046875q0 0.5 0.046875 0.640625q0.0625 0.14062881 0.203125 0.23437881q0.140625 0.078125 0.40625 0.078125q0.203125 0 0.515625 -0.046875z" fill-rule="nonzero"/><path fill="#d0e0e3" d="m102.320946 50.069553l48.479576 0l0 0c6.350952 0 11.49942 4.603077 11.49942 10.281261c0 5.6781845 -5.148468 10.281258 -11.49942 10.281258l-48.479576 0l0 0c-6.35096 0 -11.49942 -4.603073 -11.49942 -10.281258c0 -5.6781845 5.1484604 -10.281261 11.49942 -10.281261z" fill-rule="evenodd"/><path stroke="#666666" stroke-width="1.0" stroke-linejoin="round" stroke-linecap="butt" d="m102.320946 50.069553l48.479576 0l0 0c6.350952 0 11.49942 4.603077 11.49942 10.281261c0 5.6781845 -5.148468 10.281258 -11.49942 10.281258l-48.479576 0l0 0c-6.35096 0 -11.49942 -4.603073 -11.49942 -10.281258c0 -5.6781845 5.1484604 -10.281261 11.49942 -10.281261z" fill-rule="evenodd"/><path fill="#000000" d="m103.78403 62.088314l1.203125 -0.109375q0.078125 0.71875 0.390625 1.1875q0.3125 0.453125 0.953125 0.734375q0.65625 0.2812462 1.46875 0.2812462q0.71875 0 1.265625 -0.21874619q0.5625 -0.21875 0.828125 -0.578125q0.265625 -0.375 0.265625 -0.828125q0 -0.453125 -0.265625 -0.78125q-0.25 -0.328125 -0.84375 -0.5625q-0.390625 -0.15625 -1.703125 -0.46875q-1.3125 -0.3125 -1.84375 -0.59375q-0.671875 -0.359375 -1.015625 -0.890625q-0.328125 -0.53125 -0.328125 -1.1875q0 -0.71875 0.40625 -1.34375q0.40625 -0.625 1.1875 -0.953125q0.796875 -0.328125 1.765625 -0.328125q1.046875 0 1.859375 0.34375q0.8125 0.34375 1.25 1.015625q0.4375 0.65625 0.46875 1.484375l-1.203125 0.09375q-0.109375 -0.90625 -0.671875 -1.359375q-0.5625 -0.46875 -1.65625 -0.46875q-1.140625 0 -1.671875 0.421875q-0.515625 0.421875 -0.515625 1.015625q0 0.515625 0.359375 0.84375q0.375 0.328125 1.90625 0.6875q1.546875 0.34375 2.109375 0.59375q0.84375 0.390625 1.234375 0.984375q0.390625 0.578125 0.390625 1.359375q0 0.75 -0.4375 1.4375q-0.421875 0.6718712 -1.25 1.0468712q-0.8125 0.359375 -1.828125 0.359375q-1.296875 0 -2.171875 -0.375q-0.875 -0.375 -1.375 -1.1249962q-0.5 -0.765625 -0.53125 -1.71875zm11.733505 2.0156212l0.171875 1.03125q-0.5 0.109375 -0.890625 0.109375q-0.640625 0 -1.0 -0.203125q-0.34375 -0.203125 -0.484375 -0.53125q-0.140625 -0.328125 -0.140625 -1.3906212l0 -3.96875l-0.859375 0l0 -0.90625l0.859375 0l0 -1.71875l1.171875 -0.703125l0 2.421875l1.171875 0l0 0.90625l-1.171875 0l0 4.046875q0 0.5 0.046875 0.640625q0.0625 0.140625 0.203125 0.23437119q0.140625 0.078125 0.40625 0.078125q0.203125 0 0.515625 -0.046875zm1.1248627 1.046875l0 -6.906246l1.0625 0l0 1.046875q0.40625 -0.734375 0.734375 -0.96875q0.34375 -0.234375 0.765625 -0.234375q0.59375 0 1.203125 0.375l-0.40625 1.078125q-0.4375 -0.25 -0.859375 -0.25q-0.390625 0 -0.703125 0.234375q-0.296875 0.234375 -0.421875 0.640625q-0.203125 0.625 -0.203125 1.359375l0 3.6249962l-1.171875 0zm9.18837 -2.2187462l1.203125 0.140625q-0.28125 1.0624962 -1.0625 1.6562462q-0.765625 0.578125 -1.96875 0.578125q-1.515625 0 -2.40625 -0.9375q-0.890625 -0.9374962 -0.890625 -2.6093712q0 -1.75 0.890625 -2.703125q0.90625 -0.96875 2.34375 -0.96875q1.390625 0 2.265625 0.9375q0.875 0.9375 0.875 2.65625q0 0.109375 0 0.3125l-5.15625 0q0.0625 1.140625 0.640625 1.75q0.578125 0.5937462 1.4375 0.5937462q0.65625 0 1.109375 -0.328125q0.453125 -0.3437462 0.71875 -1.0781212zm-3.84375 -1.90625l3.859375 0q-0.078125 -0.859375 -0.4375 -1.296875q-0.5625 -0.6875 -1.453125 -0.6875q-0.8125 0 -1.359375 0.546875q-0.546875 0.53125 -0.609375 1.4375zm11.037476 3.2656212q-0.65625 0.5625 -1.265625 0.796875q-0.59375 0.21875 -1.28125 0.21875q-1.140625 0 -1.75 -0.546875q-0.609375 -0.5625 -0.609375 -1.4374962q0 -0.5 0.21875 -0.921875q0.234375 -0.421875 0.609375 -0.671875q0.375 -0.25 0.84375 -0.390625q0.34375 -0.078125 1.046875 -0.171875q1.421875 -0.171875 2.09375 -0.40625q0 -0.234375 0 -0.296875q0 -0.71875 -0.328125 -1.015625q-0.453125 -0.390625 -1.34375 -0.390625q-0.8125 0 -1.21875 0.296875q-0.390625 0.28125 -0.578125 1.015625l-1.140625 -0.15625q0.15625 -0.734375 0.515625 -1.1875q0.359375 -0.453125 1.03125 -0.6875q0.671875 -0.25 1.5625 -0.25q0.890625 0 1.4375 0.203125q0.5625 0.203125 0.8125 0.53125q0.265625 0.3125 0.375 0.796875q0.046875 0.296875 0.046875 1.078125l0 1.5625q0 1.625 0.078125 2.0624962q0.078125 0.4375 0.296875 0.828125l-1.21875 0q-0.1875 -0.359375 -0.234375 -0.859375zm-0.09375 -2.6093712q-0.640625 0.265625 -1.921875 0.4375q-0.71875 0.109375 -1.015625 0.25q-0.296875 0.125 -0.46875 0.375q-0.15625 0.25 -0.15625 0.546875q0 0.46875 0.34375 0.7812462q0.359375 0.3125 1.046875 0.3125q0.671875 0 1.203125 -0.296875q0.53125 -0.2968712 0.78125 -0.8124962q0.1875 -0.390625 0.1875 -1.171875l0 -0.421875zm2.9906006 3.4687462l0 -6.906246l1.046875 0l0 0.96875q0.328125 -0.515625 0.859375 -0.8125q0.546875 -0.3125 1.234375 -0.3125q0.78125 0 1.265625 0.3125q0.484375 0.3125 0.6875 0.890625q0.828125 -1.203125 2.140625 -1.203125q1.03125 0 1.578125 0.578125q0.5625 0.5625 0.5625 1.734375l0 4.749996l-1.171875 0l0 -4.359371q0 -0.703125 -0.125 -1.0q-0.109375 -0.3125 -0.40625 -0.5q-0.296875 -0.1875 -0.703125 -0.1875q-0.71875 0 -1.203125 0.484375q-0.484375 0.484375 -0.484375 1.546875l0 4.015621l-1.171875 0l0 -4.484371q0 -0.78125 -0.296875 -1.171875q-0.28125 -0.390625 -0.921875 -0.390625q-0.5 0 -0.921875 0.265625q-0.421875 0.25 -0.609375 0.75q-0.1875 0.5 -0.1875 1.453125l0 3.5781212l-1.171875 0z" fill-rule="nonzero"/><path fill="#d9ead3" d="m198.52362 60.350395l0 0c0 -5.6794014 4.5758667 -10.283466 10.220474 -10.283466l0 0c2.7106323 0 5.310257 1.083435 7.226959 3.011959c1.9167175 1.9285202 2.993515 4.5441628 2.993515 7.2715073l0 0c0 5.6793976 -4.5758667 10.283463 -10.220474 10.283463l0 0c-5.6446075 0 -10.220474 -4.604065 -10.220474 -10.283463z" fill-rule="evenodd"/><path stroke="#3c78d8" stroke-width="1.0" stroke-linejoin="round" stroke-linecap="butt" d="m198.52362 60.350395l0 0c0 -5.6794014 4.5758667 -10.283466 10.220474 -10.283466l0 0c2.7106323 0 5.310257 1.083435 7.226959 3.011959c1.9167175 1.9285202 2.993515 4.5441628 2.993515 7.2715073l0 0c0 5.6793976 -4.5758667 10.283463 -10.220474 10.283463l0 0c-5.6446075 0 -10.220474 -4.604065 -10.220474 -10.283463z" fill-rule="evenodd"/><path fill="#cfe2f3" d="m253.45407 6.9343843l103.19946 0l0 20.566929l-103.19946 0z" fill-rule="evenodd"/><path fill="#000000" fill-opacity="0.0" d="m266.354 6.9343843l0 20.566929m77.3996 -20.566929l0 20.566929" fill-rule="evenodd"/><path fill="#000000" fill-opacity="0.0" d="m253.45407 6.9343843l103.19946 0l0 20.566929l-103.19946 0z" fill-rule="evenodd"/><path stroke="#3c78d8" stroke-width="1.0" stroke-linejoin="round" stroke-linecap="butt" d="m266.354 6.9343843l0 20.566929m77.3996 -20.566929l0 20.566929" fill-rule="evenodd"/><path stroke="#3c78d8" stroke-width="1.0" stroke-linejoin="round" stroke-linecap="butt" d="m253.45407 6.9343843l103.19946 0l0 20.566929l-103.19946 0z" fill-rule="evenodd"/><path fill="#000000" d="m278.7915 20.970972l0.171875 1.03125q-0.5 0.109375 -0.890625 0.109375q-0.640625 0 -1.0 -0.203125q-0.34375 -0.203125 -0.484375 -0.53125q-0.140625 -0.328125 -0.140625 -1.390625l0 -3.96875l-0.859375 0l0 -0.90624905l0.859375 0l0 -1.71875l1.171875 -0.703125l0 2.421875l1.171875 0l0 0.90624905l-1.171875 0l0 4.046875q0 0.5 0.046875 0.640625q0.0625 0.140625 0.203125 0.234375q0.140625 0.078125 0.40625 0.078125q0.203125 0 0.515625 -0.046875zm1.1404724 1.046875l0 -9.546874l1.171875 0l0 3.421875q0.828125 -0.9375 2.078125 -0.9375q0.765625 0 1.328125 0.296875q0.5625 0.296875 0.8125 0.84374905q0.25 0.53125 0.25 1.546875l0 4.375l-1.171875 0l0 -4.375q0 -0.890625 -0.390625 -1.28125q-0.375 -0.40624905 -1.078125 -0.40624905q-0.515625 0 -0.984375 0.28124905q-0.453125 0.265625 -0.65625 0.734375q-0.1875 0.453125 -0.1875 1.265625l0 3.78125l-1.171875 0zm7.3968506 0l0 -6.906249l1.0625 0l0 1.046874q0.40625 -0.73437405 0.734375 -0.96874905q0.34375 -0.234375 0.765625 -0.234375q0.59375 0 1.203125 0.375l-0.40625 1.078124q-0.4375 -0.25 -0.859375 -0.25q-0.390625 0 -0.703125 0.234375q-0.296875 0.234375 -0.421875 0.640625q-0.203125 0.625 -0.203125 1.359375l0 3.625l-1.171875 0zm9.188385 -2.21875l1.203125 0.140625q-0.28125 1.0625 -1.0625 1.65625q-0.765625 0.578125 -1.96875 0.578125q-1.515625 0 -2.40625 -0.9375q-0.890625 -0.9375 -0.890625 -2.609375q0 -1.75 0.890625 -2.703124q0.90625 -0.96875 2.34375 -0.96875q1.390625 0 2.265625 0.9375q0.875 0.93749905 0.875 2.656249q0 0.109375 0 0.3125l-5.15625 0q0.0625 1.140625 0.640625 1.75q0.578125 0.59375 1.4375 0.59375q0.65625 0 1.109375 -0.328125q0.453125 -0.34375 0.71875 -1.078125zm-3.84375 -1.90625l3.859375 0q-0.078125 -0.859375 -0.4375 -1.296875q-0.5625 -0.68749905 -1.453125 -0.68749905q-0.8125 0 -1.359375 0.54687405q-0.546875 0.53125 -0.609375 1.4375zm11.037476 3.265625q-0.65625 0.5625 -1.265625 0.796875q-0.59375 0.21875 -1.28125 0.21875q-1.140625 0 -1.75 -0.546875q-0.609375 -0.5625 -0.609375 -1.4375q0 -0.5 0.21875 -0.921875q0.234375 -0.421875 0.609375 -0.671875q0.375 -0.25 0.84375 -0.390625q0.34375 -0.078125 1.046875 -0.171875q1.421875 -0.171875 2.09375 -0.40625q0 -0.234375 0 -0.296875q0 -0.71875 -0.328125 -1.015625q-0.453125 -0.39062405 -1.34375 -0.39062405q-0.8125 0 -1.21875 0.29687405q-0.390625 0.28125 -0.578125 1.015625l-1.140625 -0.15625q0.15625 -0.734375 0.515625 -1.187499q0.359375 -0.453125 1.03125 -0.6875q0.671875 -0.25 1.5625 -0.25q0.890625 0 1.4375 0.203125q0.5625 0.203125 0.8125 0.53125q0.265625 0.31249905 0.375 0.79687405q0.046875 0.296875 0.046875 1.078125l0 1.5625q0 1.625 0.078125 2.0625q0.078125 0.4375 0.296875 0.828125l-1.21875 0q-0.1875 -0.359375 -0.234375 -0.859375zm-0.09375 -2.609375q-0.640625 0.265625 -1.921875 0.4375q-0.71875 0.109375 -1.015625 0.25q-0.296875 0.125 -0.46875 0.375q-0.15625 0.25 -0.15625 0.546875q0 0.46875 0.34375 0.78125q0.359375 0.3125 1.046875 0.3125q0.671875 0 1.203125 -0.296875q0.53125 -0.296875 0.78125 -0.8125q0.1875 -0.390625 0.1875 -1.171875l0 -0.421875zm7.4749756 3.46875l0 -0.875q-0.65625 1.03125 -1.9375 1.03125q-0.8125 0 -1.515625 -0.453125q-0.6875 -0.453125 -1.078125 -1.265625q-0.375 -0.828125 -0.375 -1.890625q0 -1.03125 0.34375 -1.875q0.34375 -0.84374905 1.03125 -1.281249q0.703125 -0.453125 1.546875 -0.453125q0.625 0 1.109375 0.265625q0.5 0.25 0.796875 0.671875l0 -3.421875l1.171875 0l0 9.546874l-1.09375 0zm-3.703125 -3.453125q0 1.328125 0.5625 1.984375q0.5625 0.65625 1.328125 0.65625q0.765625 0 1.296875 -0.625q0.53125 -0.625 0.53125 -1.90625q0 -1.421875 -0.546875 -2.078125q-0.546875 -0.67187405 -1.34375 -0.67187405q-0.78125 0 -1.3125 0.64062405q-0.515625 0.625 -0.515625 2.0zm10.131073 3.609375l0.5625 -2.765625l-1.09375 0l0 -0.96875l1.296875 0l0.46875 -2.359375l-1.765625 0l0 -0.96874905l1.96875 0l0.5625 -2.796875l0.984375 0l-0.578125 2.796875l2.0625 0l0.5625 -2.796875l0.984375 0l-0.5625 2.796875l1.125 0l0 0.96874905l-1.328125 0l-0.484375 2.359375l1.8125 0l0 0.96875l-2.015625 0l-0.5625 2.765625l-0.96875 0l0.546875 -2.765625l-2.03125 0l-0.578125 2.765625l-0.96875 0zm1.734375 -3.734375l2.046875 0l0.484375 -2.359375l-2.046875 0l-0.484375 2.359375zm9.974976 3.578125l-1.171875 0l0 -7.468749q-0.421875 0.40625 -1.109375 0.8125q-0.6875 0.40625 -1.234375 0.609375l0 -1.140625q0.984375 -0.453125 1.71875 -1.109375q0.734375 -0.671875 1.03125 -1.28125l0.765625 0l0 9.578124z" fill-rule="nonzero"/><path fill="#cfe2f3" d="m409.22833 50.069336l63.362213 0l0 20.561676l-63.362213 0z" fill-rule="evenodd"/><path stroke="#3c78d8" stroke-width="1.0" stroke-linejoin="round" stroke-linecap="butt" d="m409.22833 50.069336l63.362213 0l0 20.561676l-63.362213 0z" fill-rule="evenodd"/><path fill="#000000" d="m421.39267 65.15018l0 -6.90625l1.0625 0l0 1.046875q0.40625 -0.734375 0.734375 -0.96875q0.34375 -0.234375 0.765625 -0.234375q0.59375 0 1.203125 0.375l-0.40625 1.078125q-0.4375 -0.25 -0.859375 -0.25q-0.390625 0 -0.703125 0.234375q-0.296875 0.234375 -0.421875 0.640625q-0.203125 0.625 -0.203125 1.359375l0 3.625l-1.171875 0zm9.1883545 -2.21875l1.203125 0.140625q-0.28125 1.0625 -1.0625 1.65625q-0.765625 0.578125 -1.96875 0.578125q-1.515625 0 -2.40625 -0.9375q-0.890625 -0.9375 -0.890625 -2.609375q0 -1.75 0.890625 -2.703125q0.90625 -0.96875 2.34375 -0.96875q1.390625 0 2.265625 0.9375q0.875 0.9375 0.875 2.65625q0 0.109375 0 0.3125l-5.15625 0q0.0625 1.140625 0.640625 1.75q0.578125 0.59375 1.4375 0.59375q0.65625 0 1.109375 -0.328125q0.453125 -0.34375 0.71875 -1.078125zm-3.84375 -1.90625l3.859375 0q-0.078125 -0.859375 -0.4375 -1.296875q-0.5625 -0.6875 -1.453125 -0.6875q-0.8125 0 -1.359375 0.546875q-0.546875 0.53125 -0.609375 1.4375zm11.006226 4.125l0 -0.875q-0.65625 1.03125 -1.9375 1.03125q-0.8125 0 -1.515625 -0.453125q-0.6875 -0.453125 -1.078125 -1.265625q-0.375 -0.828125 -0.375 -1.890625q0 -1.03125 0.34375 -1.875q0.34375 -0.84375 1.03125 -1.28125q0.703125 -0.453125 1.546875 -0.453125q0.625 0 1.109375 0.265625q0.5 0.25 0.796875 0.671875l0 -3.421875l1.171875 0l0 9.546875l-1.09375 0zm-3.703125 -3.453125q0 1.328125 0.5625 1.984375q0.5625 0.65625 1.328125 0.65625q0.765625 0 1.296875 -0.625q0.53125 -0.625 0.53125 -1.90625q0 -1.421875 -0.546875 -2.078125q-0.546875 -0.671875 -1.34375 -0.671875q-0.78125 0 -1.3125 0.640625q-0.515625 0.625 -0.515625 2.0zm11.162476 3.453125l0 -1.015625q-0.8125 1.171875 -2.1875 1.171875q-0.609375 0 -1.140625 -0.234375q-0.53125 -0.234375 -0.796875 -0.578125q-0.25 -0.359375 -0.359375 -0.875q-0.0625 -0.34375 -0.0625 -1.09375l0 -4.28125l1.171875 0l0 3.828125q0 0.921875 0.0625 1.234375q0.109375 0.46875 0.46875 0.734375q0.359375 0.25 0.890625 0.25q0.515625 0 0.984375 -0.265625q0.46875 -0.265625 0.65625 -0.734375q0.1875 -0.46875 0.1875 -1.34375l0 -3.703125l1.171875 0l0 6.90625l-1.046875 0zm7.3968506 -2.53125l1.15625 0.15625q-0.1875 1.1875 -0.96875 1.859375q-0.78125 0.671875 -1.921875 0.671875q-1.40625 0 -2.28125 -0.921875q-0.859375 -0.9375 -0.859375 -2.65625q0 -1.125 0.375 -1.96875q0.375 -0.84375 1.125 -1.25q0.765625 -0.421875 1.65625 -0.421875q1.125 0 1.84375 0.578125q0.71875 0.5625 0.921875 1.609375l-1.140625 0.171875q-0.171875 -0.703125 -0.59375 -1.046875q-0.40625 -0.359375 -0.984375 -0.359375q-0.890625 0 -1.453125 0.640625q-0.546875 0.640625 -0.546875 2.0q0 1.40625 0.53125 2.03125q0.546875 0.625 1.40625 0.625q0.6875 0 1.140625 -0.421875q0.46875 -0.421875 0.59375 -1.296875zm6.8828125 0.3125l1.203125 0.140625q-0.28125 1.0625 -1.0625 1.65625q-0.765625 0.578125 -1.96875 0.578125q-1.515625 0 -2.40625 -0.9375q-0.890625 -0.9375 -0.890625 -2.609375q0 -1.75 0.890625 -2.703125q0.90625 -0.96875 2.34375 -0.96875q1.390625 0 2.265625 0.9375q0.875 0.9375 0.875 2.65625q0 0.109375 0 0.3125l-5.15625 0q0.0625 1.140625 0.640625 1.75q0.578125 0.59375 1.4375 0.59375q0.65625 0 1.109375 -0.328125q0.453125 -0.34375 0.71875 -1.078125zm-3.84375 -1.90625l3.859375 0q-0.078125 -0.859375 -0.4375 -1.296875q-0.5625 -0.6875 -1.453125 -0.6875q-0.8125 0 -1.359375 0.546875q-0.546875 0.53125 -0.609375 1.4375z" fill-rule="nonzero"/><path fill="#000000" fill-opacity="0.0" d="m208.7441 50.06693l0 -32.850395l44.72441 0" fill-rule="evenodd"/><path stroke="#999999" stroke-width="2.0" stroke-linejoin="round" stroke-linecap="butt" d="m208.7441 50.06693l0 -32.850395l32.72441 0" fill-rule="evenodd"/><path fill="#999999" stroke="#999999" stroke-width="2.0" stroke-linecap="butt" d="m241.4685 20.52l9.076187 -3.303465l-9.076187 -3.303465z" fill-rule="evenodd"/><path fill="#cfe2f3" d="m253.45407 34.66404l103.19946 0l0 21.532806l-103.19946 0z" fill-rule="evenodd"/><path fill="#000000" fill-opacity="0.0" d="m266.354 34.66404l0 21.532806m77.3996 -21.532806l0 21.532806" fill-rule="evenodd"/><path fill="#000000" fill-opacity="0.0" d="m253.45407 34.66404l103.19946 0l0 21.532806l-103.19946 0z" fill-rule="evenodd"/><path stroke="#3c78d8" stroke-width="1.0" stroke-linejoin="round" stroke-linecap="butt" d="m266.354 34.66404l0 21.532806m77.3996 -21.532806l0 21.532806" fill-rule="evenodd"/><path stroke="#3c78d8" stroke-width="1.0" stroke-linejoin="round" stroke-linecap="butt" d="m253.45407 34.66404l103.19946 0l0 21.532806l-103.19946 0z" fill-rule="evenodd"/><path fill="#000000" d="m278.7915 49.183567l0.171875 1.03125q-0.5 0.109375 -0.890625 0.109375q-0.640625 0 -1.0 -0.203125q-0.34375 -0.203125 -0.484375 -0.53125q-0.140625 -0.328125 -0.140625 -1.390625l0 -3.96875l-0.859375 0l0 -0.90625l0.859375 0l0 -1.71875l1.171875 -0.703125l0 2.421875l1.171875 0l0 0.90625l-1.171875 0l0 4.046875q0 0.5 0.046875 0.640625q0.0625 0.140625 0.203125 0.234375q0.140625 0.078125 0.40625 0.078125q0.203125 0 0.515625 -0.046875zm1.1404724 1.046875l0 -9.546875l1.171875 0l0 3.421875q0.828125 -0.9375 2.078125 -0.9375q0.765625 0 1.328125 0.296875q0.5625 0.296875 0.8125 0.84375q0.25 0.53125 0.25 1.546875l0 4.375l-1.171875 0l0 -4.375q0 -0.890625 -0.390625 -1.28125q-0.375 -0.40625 -1.078125 -0.40625q-0.515625 0 -0.984375 0.28125q-0.453125 0.265625 -0.65625 0.734375q-0.1875 0.453125 -0.1875 1.265625l0 3.78125l-1.171875 0zm7.3968506 0l0 -6.90625l1.0625 0l0 1.046875q0.40625 -0.734375 0.734375 -0.96875q0.34375 -0.234375 0.765625 -0.234375q0.59375 0 1.203125 0.375l-0.40625 1.078125q-0.4375 -0.25 -0.859375 -0.25q-0.390625 0 -0.703125 0.234375q-0.296875 0.234375 -0.421875 0.640625q-0.203125 0.625 -0.203125 1.359375l0 3.625l-1.171875 0zm9.188385 -2.21875l1.203125 0.140625q-0.28125 1.0625 -1.0625 1.65625q-0.765625 0.578125 -1.96875 0.578125q-1.515625 0 -2.40625 -0.9375q-0.890625 -0.9375 -0.890625 -2.609375q0 -1.75 0.890625 -2.703125q0.90625 -0.96875 2.34375 -0.96875q1.390625 0 2.265625 0.9375q0.875 0.9375 0.875 2.65625q0 0.109375 0 0.3125l-5.15625 0q0.0625 1.140625 0.640625 1.75q0.578125 0.59375 1.4375 0.59375q0.65625 0 1.109375 -0.328125q0.453125 -0.34375 0.71875 -1.078125zm-3.84375 -1.90625l3.859375 0q-0.078125 -0.859375 -0.4375 -1.296875q-0.5625 -0.6875 -1.453125 -0.6875q-0.8125 0 -1.359375 0.546875q-0.546875 0.53125 -0.609375 1.4375zm11.037476 3.265625q-0.65625 0.5625 -1.265625 0.796875q-0.59375 0.21875 -1.28125 0.21875q-1.140625 0 -1.75 -0.546875q-0.609375 -0.5625 -0.609375 -1.4375q0 -0.5 0.21875 -0.921875q0.234375 -0.421875 0.609375 -0.671875q0.375 -0.25 0.84375 -0.390625q0.34375 -0.078125 1.046875 -0.171875q1.421875 -0.171875 2.09375 -0.40625q0 -0.234375 0 -0.296875q0 -0.71875 -0.328125 -1.015625q-0.453125 -0.390625 -1.34375 -0.390625q-0.8125 0 -1.21875 0.296875q-0.390625 0.28125 -0.578125 1.015625l-1.140625 -0.15625q0.15625 -0.734375 0.515625 -1.1875q0.359375 -0.453125 1.03125 -0.6875q0.671875 -0.25 1.5625 -0.25q0.890625 0 1.4375 0.203125q0.5625 0.203125 0.8125 0.53125q0.265625 0.3125 0.375 0.796875q0.046875 0.296875 0.046875 1.078125l0 1.5625q0 1.625 0.078125 2.0625q0.078125 0.4375 0.296875 0.828125l-1.21875 0q-0.1875 -0.359375 -0.234375 -0.859375zm-0.09375 -2.609375q-0.640625 0.265625 -1.921875 0.4375q-0.71875 0.109375 -1.015625 0.25q-0.296875 0.125 -0.46875 0.375q-0.15625 0.25 -0.15625 0.546875q0 0.46875 0.34375 0.78125q0.359375 0.3125 1.046875 0.3125q0.671875 0 1.203125 -0.296875q0.53125 -0.296875 0.78125 -0.8125q0.1875 -0.390625 0.1875 -1.171875l0 -0.421875zm7.4749756 3.46875l0 -0.875q-0.65625 1.03125 -1.9375 1.03125q-0.8125 0 -1.515625 -0.453125q-0.6875 -0.453125 -1.078125 -1.265625q-0.375 -0.828125 -0.375 -1.890625q0 -1.03125 0.34375 -1.875q0.34375 -0.84375 1.03125 -1.28125q0.703125 -0.453125 1.546875 -0.453125q0.625 0 1.109375 0.265625q0.5 0.25 0.796875 0.671875l0 -3.421875l1.171875 0l0 9.546875l-1.09375 0zm-3.703125 -3.453125q0 1.328125 0.5625 1.984375q0.5625 0.65625 1.328125 0.65625q0.765625 0 1.296875 -0.625q0.53125 -0.625 0.53125 -1.90625q0 -1.421875 -0.546875 -2.078125q-0.546875 -0.671875 -1.34375 -0.671875q-0.78125 0 -1.3125 0.640625q-0.515625 0.625 -0.515625 2.0zm10.131073 3.609375l0.5625 -2.765625l-1.09375 0l0 -0.96875l1.296875 0l0.46875 -2.359375l-1.765625 0l0 -0.96875l1.96875 0l0.5625 -2.796875l0.984375 0l-0.578125 2.796875l2.0625 0l0.5625 -2.796875l0.984375 0l-0.5625 2.796875l1.125 0l0 0.96875l-1.328125 0l-0.484375 2.359375l1.8125 0l0 0.96875l-2.015625 0l-0.5625 2.765625l-0.96875 0l0.546875 -2.765625l-2.03125 0l-0.578125 2.765625l-0.96875 0zm1.734375 -3.734375l2.046875 0l0.484375 -2.359375l-2.046875 0l-0.484375 2.359375zm11.709351 2.453125l0 1.125l-6.296875 0q-0.015625 -0.421875 0.140625 -0.8125q0.234375 -0.640625 0.765625 -1.265625q0.53125 -0.625 1.53125 -1.453125q1.5625 -1.265625 2.109375 -2.015625q0.546875 -0.75 0.546875 -1.40625q0 -0.703125 -0.5 -1.171875q-0.5 -0.484375 -1.296875 -0.484375q-0.859375 0 -1.375 0.515625q-0.5 0.5 -0.5 1.390625l-1.203125 -0.109375q0.125 -1.359375 0.921875 -2.0625q0.8125 -0.703125 2.171875 -0.703125q1.375 0 2.171875 0.765625q0.8125 0.75 0.8125 1.875q0 0.578125 -0.234375 1.140625q-0.234375 0.546875 -0.78125 1.15625q-0.546875 0.609375 -1.8125 1.671875q-1.046875 0.890625 -1.359375 1.21875q-0.296875 0.3125 -0.484375 0.625l4.671875 0z" fill-rule="nonzero"/><path fill="#cfe2f3" d="m253.45407 63.35958l103.19946 0l0 21.532806l-103.19946 0z" fill-rule="evenodd"/><path fill="#000000" fill-opacity="0.0" d="m266.354 63.35958l0 21.532806m77.3996 -21.532806l0 21.532806" fill-rule="evenodd"/><path fill="#000000" fill-opacity="0.0" d="m253.45407 63.35958l103.19946 0l0 21.532806l-103.19946 0z" fill-rule="evenodd"/><path stroke="#3c78d8" stroke-width="1.0" stroke-linejoin="round" stroke-linecap="butt" d="m266.354 63.35958l0 21.532806m77.3996 -21.532806l0 21.532806" fill-rule="evenodd"/><path stroke="#3c78d8" stroke-width="1.0" stroke-linejoin="round" stroke-linecap="butt" d="m253.45407 63.35958l103.19946 0l0 21.532806l-103.19946 0z" fill-rule="evenodd"/><path fill="#000000" d="m278.7915 77.87911l0.171875 1.03125q-0.5 0.109375 -0.890625 0.109375q-0.640625 0 -1.0 -0.203125q-0.34375 -0.203125 -0.484375 -0.53125q-0.140625 -0.328125 -0.140625 -1.390625l0 -3.96875l-0.859375 0l0 -0.90625l0.859375 0l0 -1.71875l1.171875 -0.703125l0 2.421875l1.171875 0l0 0.90625l-1.171875 0l0 4.046875q0 0.5 0.046875 0.640625q0.0625 0.140625 0.203125 0.234375q0.140625 0.078125 0.40625 0.078125q0.203125 0 0.515625 -0.046875zm1.1404724 1.046875l0 -9.546875l1.171875 0l0 3.421875q0.828125 -0.9375 2.078125 -0.9375q0.765625 0 1.328125 0.296875q0.5625 0.296875 0.8125 0.84375q0.25 0.53125 0.25 1.546875l0 4.375l-1.171875 0l0 -4.375q0 -0.890625 -0.390625 -1.28125q-0.375 -0.40625 -1.078125 -0.40625q-0.515625 0 -0.984375 0.28125q-0.453125 0.265625 -0.65625 0.734375q-0.1875 0.453125 -0.1875 1.265625l0 3.78125l-1.171875 0zm7.3968506 0l0 -6.90625l1.0625 0l0 1.046875q0.40625 -0.734375 0.734375 -0.96875q0.34375 -0.234375 0.765625 -0.234375q0.59375 0 1.203125 0.375l-0.40625 1.078125q-0.4375 -0.25 -0.859375 -0.25q-0.390625 0 -0.703125 0.234375q-0.296875 0.234375 -0.421875 0.640625q-0.203125 0.625 -0.203125 1.359375l0 3.625l-1.171875 0zm9.188385 -2.21875l1.203125 0.140625q-0.28125 1.0625 -1.0625 1.65625q-0.765625 0.578125 -1.96875 0.578125q-1.515625 0 -2.40625 -0.9375q-0.890625 -0.9375 -0.890625 -2.609375q0 -1.75 0.890625 -2.703125q0.90625 -0.96875 2.34375 -0.96875q1.390625 0 2.265625 0.9375q0.875 0.9375 0.875 2.65625q0 0.109375 0 0.3125l-5.15625 0q0.0625 1.140625 0.640625 1.75q0.578125 0.59375 1.4375 0.59375q0.65625 0 1.109375 -0.328125q0.453125 -0.34375 0.71875 -1.078125zm-3.84375 -1.90625l3.859375 0q-0.078125 -0.859375 -0.4375 -1.296875q-0.5625 -0.6875 -1.453125 -0.6875q-0.8125 0 -1.359375 0.546875q-0.546875 0.53125 -0.609375 1.4375zm11.037476 3.265625q-0.65625 0.5625 -1.265625 0.796875q-0.59375 0.21875 -1.28125 0.21875q-1.140625 0 -1.75 -0.546875q-0.609375 -0.5625 -0.609375 -1.4375q0 -0.5 0.21875 -0.921875q0.234375 -0.421875 0.609375 -0.671875q0.375 -0.25 0.84375 -0.390625q0.34375 -0.078125 1.046875 -0.171875q1.421875 -0.171875 2.09375 -0.40625q0 -0.234375 0 -0.296875q0 -0.71875 -0.328125 -1.015625q-0.453125 -0.390625 -1.34375 -0.390625q-0.8125 0 -1.21875 0.296875q-0.390625 0.28125 -0.578125 1.015625l-1.140625 -0.15625q0.15625 -0.734375 0.515625 -1.1875q0.359375 -0.453125 1.03125 -0.6875q0.671875 -0.25 1.5625 -0.25q0.890625 0 1.4375 0.203125q0.5625 0.203125 0.8125 0.53125q0.265625 0.3125 0.375 0.796875q0.046875 0.296875 0.046875 1.078125l0 1.5625q0 1.625 0.078125 2.0625q0.078125 0.4375 0.296875 0.828125l-1.21875 0q-0.1875 -0.359375 -0.234375 -0.859375zm-0.09375 -2.609375q-0.640625 0.265625 -1.921875 0.4375q-0.71875 0.109375 -1.015625 0.25q-0.296875 0.125 -0.46875 0.375q-0.15625 0.25 -0.15625 0.546875q0 0.46875 0.34375 0.78125q0.359375 0.3125 1.046875 0.3125q0.671875 0 1.203125 -0.296875q0.53125 -0.296875 0.78125 -0.8125q0.1875 -0.390625 0.1875 -1.171875l0 -0.421875zm7.4749756 3.46875l0 -0.875q-0.65625 1.03125 -1.9375 1.03125q-0.8125 0 -1.515625 -0.453125q-0.6875 -0.453125 -1.078125 -1.265625q-0.375 -0.828125 -0.375 -1.890625q0 -1.03125 0.34375 -1.875q0.34375 -0.84375 1.03125 -1.28125q0.703125 -0.453125 1.546875 -0.453125q0.625 0 1.109375 0.265625q0.5 0.25 0.796875 0.671875l0 -3.421875l1.171875 0l0 9.546875l-1.09375 0zm-3.703125 -3.453125q0 1.328125 0.5625 1.984375q0.5625 0.65625 1.328125 0.65625q0.765625 0 1.296875 -0.625q0.53125 -0.625 0.53125 -1.90625q0 -1.421875 -0.546875 -2.078125q-0.546875 -0.671875 -1.34375 -0.671875q-0.78125 0 -1.3125 0.640625q-0.515625 0.625 -0.515625 2.0zm10.131073 3.609375l0.5625 -2.765625l-1.09375 0l0 -0.96875l1.296875 0l0.46875 -2.359375l-1.765625 0l0 -0.96875l1.96875 0l0.5625 -2.796875l0.984375 0l-0.578125 2.796875l2.0625 0l0.5625 -2.796875l0.984375 0l-0.5625 2.796875l1.125 0l0 0.96875l-1.328125 0l-0.484375 2.359375l1.8125 0l0 0.96875l-2.015625 0l-0.5625 2.765625l-0.96875 0l0.546875 -2.765625l-2.03125 0l-0.578125 2.765625l-0.96875 0zm1.734375 -3.734375l2.046875 0l0.484375 -2.359375l-2.046875 0l-0.484375 2.359375zm5.5687256 1.0625l1.171875 -0.15625q0.203125 1.0 0.6875 1.4375q0.484375 0.4375 1.171875 0.4375q0.828125 0 1.390625 -0.578125q0.578125 -0.578125 0.578125 -1.421875q0 -0.796875 -0.53125 -1.3125q-0.515625 -0.53125 -1.328125 -0.53125q-0.34375 0 -0.828125 0.125l0.125 -1.03125q0.125 0.015625 0.1875 0.015625q0.75 0 1.34375 -0.390625q0.609375 -0.390625 0.609375 -1.203125q0 -0.640625 -0.4375 -1.0625q-0.4375 -0.421875 -1.125 -0.421875q-0.6875 0 -1.140625 0.4375q-0.453125 0.421875 -0.59375 1.28125l-1.171875 -0.21875q0.21875 -1.171875 0.984375 -1.8125q0.765625 -0.65625 1.890625 -0.65625q0.78125 0 1.4375 0.34375q0.65625 0.328125 1.0 0.90625q0.359375 0.578125 0.359375 1.234375q0 0.609375 -0.34375 1.125q-0.328125 0.5 -0.96875 0.796875q0.84375 0.203125 1.3125 0.828125q0.46875 0.609375 0.46875 1.53125q0 1.25 -0.921875 2.125q-0.90625 0.859375 -2.296875 0.859375q-1.25 0 -2.09375 -0.75q-0.828125 -0.75 -0.9375 -1.9375z" fill-rule="nonzero"/><path fill="#cfe2f3" d="m253.45407 93.20603l103.19946 0l0 20.561676l-103.19946 0z" fill-rule="evenodd"/><path fill="#000000" fill-opacity="0.0" d="m266.354 93.20603l0 20.561676m77.3996 -20.561676l0 20.561676" fill-rule="evenodd"/><path fill="#000000" fill-opacity="0.0" d="m253.45407 93.20603l103.19946 0l0 20.561676l-103.19946 0z" fill-rule="evenodd"/><path stroke="#3c78d8" stroke-width="1.0" stroke-linejoin="round" stroke-linecap="butt" d="m266.354 93.20603l0 20.561676m77.3996 -20.561676l0 20.561676" fill-rule="evenodd"/><path stroke="#3c78d8" stroke-width="1.0" stroke-linejoin="round" stroke-linecap="butt" d="m253.45407 93.20603l103.19946 0l0 20.561676l-103.19946 0z" fill-rule="evenodd"/><path fill="#000000" d="m278.7915 107.24l0.171875 1.03125q-0.5 0.109375 -0.890625 0.109375q-0.640625 0 -1.0 -0.203125q-0.34375 -0.203125 -0.484375 -0.53125q-0.140625 -0.328125 -0.140625 -1.390625l0 -3.96875l-0.859375 0l0 -0.90625l0.859375 0l0 -1.71875l1.171875 -0.703125l0 2.421875l1.171875 0l0 0.90625l-1.171875 0l0 4.046875q0 0.5 0.046875 0.640625q0.0625 0.140625 0.203125 0.234375q0.140625 0.078125 0.40625 0.078125q0.203125 0 0.515625 -0.046875zm1.1404724 1.046875l0 -9.546875l1.171875 0l0 3.421875q0.828125 -0.9375 2.078125 -0.9375q0.765625 0 1.328125 0.296875q0.5625 0.296875 0.8125 0.84375q0.25 0.53125 0.25 1.546875l0 4.375l-1.171875 0l0 -4.375q0 -0.890625 -0.390625 -1.28125q-0.375 -0.40625 -1.078125 -0.40625q-0.515625 0 -0.984375 0.28125q-0.453125 0.265625 -0.65625 0.734375q-0.1875 0.453125 -0.1875 1.265625l0 3.78125l-1.171875 0zm7.3968506 0l0 -6.90625l1.0625 0l0 1.046875q0.40625 -0.734375 0.734375 -0.96875q0.34375 -0.234375 0.765625 -0.234375q0.59375 0 1.203125 0.375l-0.40625 1.078125q-0.4375 -0.25 -0.859375 -0.25q-0.390625 0 -0.703125 0.234375q-0.296875 0.234375 -0.421875 0.640625q-0.203125 0.625 -0.203125 1.359375l0 3.625l-1.171875 0zm9.188385 -2.21875l1.203125 0.140625q-0.28125 1.0625 -1.0625 1.65625q-0.765625 0.578125 -1.96875 0.578125q-1.515625 0 -2.40625 -0.9375q-0.890625 -0.9375 -0.890625 -2.609375q0 -1.75 0.890625 -2.703125q0.90625 -0.96875 2.34375 -0.96875q1.390625 0 2.265625 0.9375q0.875 0.9375 0.875 2.65625q0 0.109375 0 0.3125l-5.15625 0q0.0625 1.140625 0.640625 1.75q0.578125 0.59375 1.4375 0.59375q0.65625 0 1.109375 -0.328125q0.453125 -0.34375 0.71875 -1.078125zm-3.84375 -1.90625l3.859375 0q-0.078125 -0.859375 -0.4375 -1.296875q-0.5625 -0.6875 -1.453125 -0.6875q-0.8125 0 -1.359375 0.546875q-0.546875 0.53125 -0.609375 1.4375zm11.037476 3.265625q-0.65625 0.5625 -1.265625 0.796875q-0.59375 0.21875 -1.28125 0.21875q-1.140625 0 -1.75 -0.546875q-0.609375 -0.5625 -0.609375 -1.4375q0 -0.5 0.21875 -0.921875q0.234375 -0.421875 0.609375 -0.671875q0.375 -0.25 0.84375 -0.390625q0.34375 -0.078125 1.046875 -0.171875q1.421875 -0.171875 2.09375 -0.40625q0 -0.234375 0 -0.296875q0 -0.71875 -0.328125 -1.015625q-0.453125 -0.390625 -1.34375 -0.390625q-0.8125 0 -1.21875 0.296875q-0.390625 0.28125 -0.578125 1.015625l-1.140625 -0.15625q0.15625 -0.734375 0.515625 -1.1875q0.359375 -0.453125 1.03125 -0.6875q0.671875 -0.25 1.5625 -0.25q0.890625 0 1.4375 0.203125q0.5625 0.203125 0.8125 0.53125q0.265625 0.3125 0.375 0.796875q0.046875 0.296875 0.046875 1.078125l0 1.5625q0 1.625 0.078125 2.0625q0.078125 0.4375 0.296875 0.828125l-1.21875 0q-0.1875 -0.359375 -0.234375 -0.859375zm-0.09375 -2.609375q-0.640625 0.265625 -1.921875 0.4375q-0.71875 0.109375 -1.015625 0.25q-0.296875 0.125 -0.46875 0.375q-0.15625 0.25 -0.15625 0.546875q0 0.46875 0.34375 0.78125q0.359375 0.3125 1.046875 0.3125q0.671875 0 1.203125 -0.296875q0.53125 -0.296875 0.78125 -0.8125q0.1875 -0.390625 0.1875 -1.171875l0 -0.421875zm7.4749756 3.46875l0 -0.875q-0.65625 1.03125 -1.9375 1.03125q-0.8125 0 -1.515625 -0.453125q-0.6875 -0.453125 -1.078125 -1.265625q-0.375 -0.828125 -0.375 -1.890625q0 -1.03125 0.34375 -1.875q0.34375 -0.84375 1.03125 -1.28125q0.703125 -0.453125 1.546875 -0.453125q0.625 0 1.109375 0.265625q0.5 0.25 0.796875 0.671875l0 -3.421875l1.171875 0l0 9.546875l-1.09375 0zm-3.703125 -3.453125q0 1.328125 0.5625 1.984375q0.5625 0.65625 1.328125 0.65625q0.765625 0 1.296875 -0.625q0.53125 -0.625 0.53125 -1.90625q0 -1.421875 -0.546875 -2.078125q-0.546875 -0.671875 -1.34375 -0.671875q-0.78125 0 -1.3125 0.640625q-0.515625 0.625 -0.515625 2.0zm10.131073 3.609375l0.5625 -2.765625l-1.09375 0l0 -0.96875l1.296875 0l0.46875 -2.359375l-1.765625 0l0 -0.96875l1.96875 0l0.5625 -2.796875l0.984375 0l-0.578125 2.796875l2.0625 0l0.5625 -2.796875l0.984375 0l-0.5625 2.796875l1.125 0l0 0.96875l-1.328125 0l-0.484375 2.359375l1.8125 0l0 0.96875l-2.015625 0l-0.5625 2.765625l-0.96875 0l0.546875 -2.765625l-2.03125 0l-0.578125 2.765625l-0.96875 0zm1.734375 -3.734375l2.046875 0l0.484375 -2.359375l-2.046875 0l-0.484375 2.359375zm9.318726 3.578125l0 -2.28125l-4.140625 0l0 -1.078125l4.34375 -6.1875l0.96875 0l0 6.1875l1.28125 0l0 1.078125l-1.28125 0l0 2.28125l-1.171875 0zm0 -3.359375l0 -4.296875l-2.984375 4.296875l2.984375 0z" fill-rule="nonzero"/><path fill="#000000" fill-opacity="0.0" d="m208.7441 70.63386l0 32.850395l44.72441 0" fill-rule="evenodd"/><path stroke="#999999" stroke-width="2.0" stroke-linejoin="round" stroke-linecap="butt" d="m208.7441 70.63386l0 32.850395l32.72441 0" fill-rule="evenodd"/><path fill="#999999" stroke="#999999" stroke-width="2.0" stroke-linecap="butt" d="m241.4685 106.78772l9.076187 -3.3034668l-9.076187 -3.3034668z" fill-rule="evenodd"/><path fill="#000000" fill-opacity="0.0" d="m218.96457 60.350395l17.244781 0l0 -14.929134l17.243408 0" fill-rule="evenodd"/><path stroke="#999999" stroke-width="2.0" stroke-linejoin="round" stroke-linecap="butt" d="m218.96457 60.350395l17.244797 0l0 -14.929134l5.243393 0" fill-rule="evenodd"/><path fill="#999999" stroke="#999999" stroke-width="2.0" stroke-linecap="butt" d="m241.45276 48.724724l9.076187 -3.303463l-9.076187 -3.3034668z" fill-rule="evenodd"/><path fill="#000000" fill-opacity="0.0" d="m218.96457 60.350395l17.244781 0l0 13.763779l17.243408 0" fill-rule="evenodd"/><path stroke="#999999" stroke-width="2.0" stroke-linejoin="round" stroke-linecap="butt" d="m218.96457 60.350395l17.244797 0l0 13.763779l5.243393 0" fill-rule="evenodd"/><path fill="#999999" stroke="#999999" stroke-width="2.0" stroke-linecap="butt" d="m241.45276 77.41764l9.076187 -3.3034668l-9.076187 -3.3034668z" fill-rule="evenodd"/><path fill="#000000" fill-opacity="0.0" d="m162.29994 60.350815l18.111694 0l0 0.062992096l18.10878 0" fill-rule="evenodd"/><path stroke="#999999" stroke-width="2.0" stroke-linejoin="round" stroke-linecap="butt" d="m162.29996 60.350815l18.111664 0l0 0.062992096l6.108795 0" fill-rule="evenodd"/><path fill="#999999" stroke="#999999" stroke-width="2.0" stroke-linecap="butt" d="m186.52042 63.71727l9.076202 -3.303463l-9.076202 -3.3034668z" fill-rule="evenodd"/><path fill="#000000" fill-opacity="0.0" d="m68.82598 60.38189l14.605682 0l0 0.062992096l7.3785706 0" fill-rule="evenodd"/><path stroke="#999999" stroke-width="2.0" stroke-linejoin="round" stroke-linecap="butt" d="m68.82598 60.38189l9.984421 0" fill-rule="evenodd"/><path fill="#999999" stroke="#999999" stroke-width="2.0" stroke-linecap="butt" d="m78.79306 63.68531l9.093407 -3.2557755l-9.058723 -3.3510628z" fill-rule="evenodd"/><path fill="#000000" fill-opacity="0.0" d="m356.65353 17.21785l26.28714 0l0 43.11811l26.279785 0" fill-rule="evenodd"/><path stroke="#999999" stroke-width="2.0" stroke-linejoin="round" stroke-linecap="butt" d="m356.65353 17.21785l26.28717 0l0 43.118107l14.279755 0" fill-rule="evenodd"/><path fill="#999999" stroke="#999999" stroke-width="2.0" stroke-linecap="butt" d="m397.22046 63.639423l9.076202 -3.3034668l-9.076202 -3.303463z" fill-rule="evenodd"/><path fill="#000000" fill-opacity="0.0" d="m356.65353 45.430443l26.28714 0l0 14.929134l26.279785 0" fill-rule="evenodd"/><path stroke="#999999" stroke-width="2.0" stroke-linejoin="round" stroke-linecap="butt" d="m356.65353 45.430443l26.28714 0l0 14.929134l26.279785 0" fill-rule="evenodd"/><path fill="#000000" fill-opacity="0.0" d="m356.65353 74.125984l26.28714 0l0 -13.763779l26.279785 0" fill-rule="evenodd"/><path stroke="#999999" stroke-width="2.0" stroke-linejoin="round" stroke-linecap="butt" d="m356.65353 74.125984l26.28714 0l0 -13.763779l26.279785 0" fill-rule="evenodd"/><path fill="#000000" fill-opacity="0.0" d="m356.65353 103.48687l26.28714 0l0 -43.149605l26.279785 0" fill-rule="evenodd"/><path stroke="#999999" stroke-width="2.0" stroke-linejoin="round" stroke-linecap="butt" d="m356.65353 103.48687l26.28714 0l0 -43.149605l26.279785 0" fill-rule="evenodd"/><path fill="#000000" fill-opacity="0.0" d="m156.92914 34.07874l46.960632 0l0 18.58268l-46.960632 0z" fill-rule="evenodd"/><path fill="#efefef" d="m167.71414 47.40208l0 -7.265625l1.109375 0l0 1.03125q0.328125 -0.546875 0.890625 -0.859375q0.578125 -0.328125 1.296875 -0.328125q0.8125 0 1.328125 0.34375q0.515625 0.328125 0.734375 0.921875q0.859375 -1.265625 2.234375 -1.265625q1.078125 0 1.65625 0.59375q0.59375 0.59375 0.59375 1.84375l0 4.984375l-1.234375 0l0 -4.578125q0 -0.734375 -0.125 -1.0625q-0.109375 -0.328125 -0.421875 -0.515625q-0.3125 -0.203125 -0.734375 -0.203125q-0.765625 0 -1.28125 0.515625q-0.5 0.5 -0.5 1.625l0 4.21875l-1.234375 0l0 -4.71875q0 -0.8125 -0.296875 -1.21875q-0.296875 -0.421875 -0.984375 -0.421875q-0.515625 0 -0.96875 0.28125q-0.4375 0.265625 -0.640625 0.796875q-0.1875 0.515625 -0.1875 1.515625l0 3.765625l-1.234375 0zm16.396484 -0.890625q-0.671875 0.578125 -1.3125 0.828125q-0.625 0.234375 -1.359375 0.234375q-1.1875 0 -1.84375 -0.578125q-0.640625 -0.59375 -0.640625 -1.515625q0 -0.53125 0.234375 -0.96875q0.25 -0.4375 0.640625 -0.703125q0.40625 -0.265625 0.890625 -0.40625q0.359375 -0.09375 1.09375 -0.1875q1.5 -0.171875 2.203125 -0.421875q0 -0.25 0 -0.3125q0 -0.765625 -0.34375 -1.0625q-0.46875 -0.421875 -1.40625 -0.421875q-0.859375 0 -1.28125 0.3125q-0.40625 0.296875 -0.609375 1.0625l-1.203125 -0.15625q0.15625 -0.78125 0.53125 -1.25q0.390625 -0.46875 1.09375 -0.71875q0.71875 -0.265625 1.65625 -0.265625q0.921875 0 1.5 0.21875q0.578125 0.21875 0.84375 0.546875q0.28125 0.328125 0.390625 0.84375q0.0625 0.3125 0.0625 1.125l0 1.640625q0 1.71875 0.078125 2.171875q0.078125 0.453125 0.3125 0.875l-1.28125 0q-0.1875 -0.390625 -0.25 -0.890625zm-0.09375 -2.75q-0.671875 0.265625 -2.015625 0.46875q-0.75 0.109375 -1.078125 0.25q-0.3125 0.125 -0.484375 0.390625q-0.171875 0.265625 -0.171875 0.578125q0 0.5 0.375 0.828125q0.375 0.328125 1.09375 0.328125q0.71875 0 1.265625 -0.3125q0.546875 -0.3125 0.8125 -0.859375q0.203125 -0.40625 0.203125 -1.21875l0 -0.453125zm3.1455078 6.421871l0 -10.046871l1.125 0l0 0.953125q0.390625 -0.5625 0.890625 -0.828125q0.5 -0.28125 1.21875 -0.28125q0.921875 0 1.625 0.484375q0.71875 0.46875 1.078125 1.34375q0.359375 0.875 0.359375 1.90625q0 1.109375 -0.40625 2.015625q-0.390625 0.890625 -1.15625 1.375q-0.75 0.46875 -1.59375 0.46875q-0.609375 0 -1.109375 -0.265625q-0.484375 -0.265625 -0.796875 -0.65625l0 3.5312462l-1.234375 0zm1.109375 -6.374996q0 1.40625 0.5625 2.078125q0.578125 0.671875 1.390625 0.671875q0.8125 0 1.390625 -0.6875q0.59375 -0.703125 0.59375 -2.15625q0 -1.390625 -0.578125 -2.078125q-0.5625 -0.6875 -1.359375 -0.6875q-0.78125 0 -1.390625 0.734375q-0.609375 0.734375 -0.609375 2.125z" fill-rule="nonzero"/><path fill="#cccccc" d="m10.196851 165.4056l0 0c0 -2.1714935 1.7603436 -3.931839 3.931837 -3.931839l458.0576 0c1.0427856 0 2.0428467 0.4142456 2.7802124 1.1516113c0.7373657 0.73735046 1.1516113 1.737442 1.1516113 2.7802277l0 15.726868c0 2.1714935 -1.7603455 3.931839 -3.9318237 3.931839l-458.0576 0l0 0c-2.1714935 0 -3.931837 -1.7603455 -3.931837 -3.931839z" fill-rule="evenodd"/><path stroke="#666666" stroke-width="1.0" stroke-linejoin="round" stroke-linecap="butt" d="m10.196851 165.4056l0 0c0 -2.1714935 1.7603436 -3.931839 3.931837 -3.931839l458.0576 0c1.0427856 0 2.0428467 0.4142456 2.7802124 1.1516113c0.7373657 0.73735046 1.1516113 1.737442 1.1516113 2.7802277l0 15.726868c0 2.1714935 -1.7603455 3.931839 -3.9318237 3.931839l-458.0576 0l0 0c-2.1714935 0 -3.931837 -1.7603455 -3.931837 -3.931839z" fill-rule="evenodd"/><path fill="#000000" fill-opacity="0.0" d="m13.377953 165.91557l456.0315 0l0 14.708664l-456.0315 0z" fill-rule="evenodd"/><path fill="#434343" d="m25.846703 168.86678l-1.75 -0.125l0 -0.796875l2.9375 0l0 9.1875l2.28125 0.140625l0 0.796875l-5.71875 0l0 -0.796875l2.25 -0.140625l0 -8.265625zm8.654434 -0.890625q0.6875 0 0.6875 0.75q0 0.375 -0.203125 0.5625q-0.203125 0.1875 -0.484375 0.1875q-0.703125 0 -0.703125 -0.75q0 -0.75 0.703125 -0.75zm-0.609375 3.890625l-1.75 -0.140625l0 -0.796875l2.9375 0l0 6.203125l2.296875 0.140625l0 0.796875l-5.71875 0l0 -0.796875l2.234375 -0.140625l0 -5.265625zm5.810684 5.890625l0 -1.09375q1.25 0.5625 2.40625 0.5625q1.78125 0 1.78125 -1.046875q0 -0.375 -0.328125 -0.640625q-0.3125 -0.28125 -1.453125 -0.703125q-1.515625 -0.5625 -1.921875 -1.03125q-0.390625 -0.46875 -0.390625 -1.109375q0 -0.890625 0.71875 -1.390625q0.734375 -0.515625 2.015625 -0.515625q1.296875 0 2.40625 0.484375l-0.390625 0.96875q-1.1875 -0.46875 -2.078125 -0.46875q-1.53125 0 -1.53125 0.875q0 0.390625 0.328125 0.625q0.328125 0.234375 1.515625 0.671875q1.359375 0.5 1.8125 0.984375q0.453125 0.484375 0.453125 1.1875q0 0.96875 -0.765625 1.53125q-0.75 0.546875 -2.140625 0.546875q-1.625 0 -2.4375 -0.4375zm13.310684 -0.65625l0 0.890625q-0.84375 0.203125 -1.640625 0.203125q-2.359375 0 -2.359375 -2.234375l0 -4.140625l-1.734375 0l0 -0.609375l1.734375 -0.328125l0.5 -1.859375l0.6875 0l0 1.90625l2.84375 0l0 0.890625l-2.84375 0l0 4.140625q0 1.265625 1.25 1.265625q0.609375 0 1.5625 -0.125zm5.357559 -0.984375q0.984375 0 0.984375 1.078125q0 1.078125 -0.984375 1.078125q-0.984375 0 -0.984375 -1.078125q0 -1.078125 0.984375 -1.078125zm29.320862 1.640625l0 -1.09375q1.25 0.5625 2.40625 0.5625q1.78125 0 1.78125 -1.046875q0 -0.375 -0.328125 -0.640625q-0.3125 -0.28125 -1.453125 -0.703125q-1.515625 -0.5625 -1.921875 -1.03125q-0.390625 -0.46875 -0.390625 -1.109375q0 -0.890625 0.71875 -1.390625q0.734375 -0.515625 2.015625 -0.515625q1.296875 0 2.40625 0.484375l-0.390625 0.96875q-1.1875 -0.46875 -2.078125 -0.46875q-1.53125 0 -1.53125 0.875q0 0.390625 0.328125 0.625q0.328125 0.234375 1.515625 0.671875q1.359375 0.5 1.8125 0.984375q0.453125 0.484375 0.453125 1.1875q0 0.96875 -0.765625 1.53125q-0.75 0.546875 -2.140625 0.546875q-1.625 0 -2.4375 -0.4375zm13.310684 -0.65625l0 0.890625q-0.84375 0.203125 -1.640625 0.203125q-2.359375 0 -2.359375 -2.234375l0 -4.140625l-1.734375 0l0 -0.609375l1.734375 -0.328125l0.5 -1.859375l0.6875 0l0 1.90625l2.84375 0l0 0.890625l-2.84375 0l0 4.140625q0 1.265625 1.25 1.265625q0.609375 0 1.5625 -0.125zm8.248184 -6.015625l-0.3125 1.078125q-0.8125 -0.296875 -1.46875 -0.296875q-1.0625 0 -1.640625 0.609375q-0.5625 0.609375 -0.5625 1.734375l0 3.859375l-1.1875 0l0 -7.140625l0.96875 0l0.140625 1.296875l0.046875 0q0.5 -0.765625 1.0625 -1.09375q0.5625 -0.34375 1.390625 -0.34375q0.765625 0 1.5625 0.296875zm8.232559 3.640625l-5.03125 0q0.046875 2.4375 2.234375 2.4375q1.28125 0 2.40625 -0.5l0 1.046875q-1.078125 0.484375 -2.359375 0.484375q-1.59375 0 -2.5625 -0.96875q-0.953125 -0.96875 -0.953125 -2.671875q0 -1.734375 0.875 -2.75q0.890625 -1.015625 2.375 -1.015625q1.375 0 2.1875 0.875q0.828125 0.875 0.828125 2.328125l0 0.734375zm-5.0 -0.96875l3.71875 0q0 -1.984375 -1.765625 -1.984375q-1.78125 0 -1.953125 1.984375zm11.701309 4.3125l-0.25 -0.984375l-0.046875 0q-0.5 0.625 -1.03125 0.875q-0.53125 0.234375 -1.359375 0.234375q-1.0625 0 -1.671875 -0.546875q-0.59375 -0.5625 -0.59375 -1.578125q0 -2.15625 3.328125 -2.265625l1.3125 -0.046875l0 -0.4375q0 -1.546875 -1.578125 -1.546875q-0.96875 0 -2.140625 0.53125l-0.40625 -0.890625q1.265625 -0.625 2.484375 -0.625q1.484375 0 2.140625 0.578125q0.65625 0.5625 0.65625 1.8125l0 4.890625l-0.84375 0zm-0.328125 -3.5l-1.046875 0.046875q-1.28125 0.0625 -1.8125 0.40625q-0.53125 0.34375 -0.53125 1.0625q0 1.15625 1.296875 1.15625q0.953125 0 1.515625 -0.53125q0.578125 -0.53125 0.578125 -1.484375l0 -0.65625zm8.857567 3.5l0 -4.59375q0 -0.953125 -0.171875 -1.328125q-0.171875 -0.375 -0.578125 -0.375q-0.5625 0 -0.828125 0.546875q-0.25 0.53125 -0.25 1.8125l0 3.9375l-1.046875 0l0 -4.59375q0 -1.703125 -0.8125 -1.703125q-0.546875 0 -0.78125 0.515625q-0.234375 0.515625 -0.234375 2.078125l0 3.703125l-1.0625076 0l0 -7.140625l0.828125 0l0.171875 0.953125l0.07813263 0q0.4375 -1.09375 1.296875 -1.09375q1.0625 0 1.390625 1.1875l0.046875 0q0.484375 -1.1875 1.421875 -1.1875q0.828125 0 1.203125 0.609375q0.375 0.59375 0.375 2.0l0 4.671875l-1.046875 0zm6.451309 -9.515625l1.25 0q-2.921875 2.453125 -2.921875 5.8125q0 3.390625 2.90625 5.8125l-1.234375 0q-2.890625 -2.296875 -2.890625 -5.796875q0 -3.46875 2.890625 -5.828125zm6.373184 11.625l-1.234375 0q2.890625 -2.421875 2.890625 -5.8125q0 -3.375 -2.90625 -5.8125l1.25 0q2.890625 2.34375 2.890625 5.828125q0 3.515625 -2.890625 5.796875zm8.810684 -4.0625q0.984375 0 0.984375 1.078125q0 1.078125 -0.984375 1.078125q-0.984375 0 -0.984375 -1.078125q0 -1.078125 0.984375 -1.078125zm6.216934 1.046875l-0.078125 0q0.078125 0.84375 0.078125 1.0625l0 3.046875l-1.1875 0l0 -10.34375l0.953125 0l0.171875 0.953125l0.0625 0q0.703125 -1.09375 2.09375 -1.09375q1.296875 0 2.046875 0.984375q0.75 0.96875 0.75 2.71875q0 1.75 -0.75 2.734375q-0.75 0.96875 -2.046875 0.96875q-1.34375 0 -2.09375 -1.03125zm0 -2.953125l0 0.28125q0 1.46875 0.453125 2.09375q0.453125 0.625 1.4375 0.625q1.765625 0 1.765625 -2.734375q0 -2.703125 -1.78125 -2.703125q-0.984375 0 -1.421875 0.578125q-0.4375 0.578125 -0.453125 1.859375zm11.607559 3.859375l-0.25 -0.984375l-0.046875 0q-0.5 0.625 -1.03125 0.875q-0.53125 0.234375 -1.359375 0.234375q-1.0625 0 -1.671875 -0.546875q-0.59375 -0.5625 -0.59375 -1.578125q0 -2.15625 3.328125 -2.265625l1.3125 -0.046875l0 -0.4375q0 -1.546875 -1.578125 -1.546875q-0.96875 0 -2.140625 0.53125l-0.40625 -0.890625q1.265625 -0.625 2.484375 -0.625q1.484375 0 2.140625 0.578125q0.65625 0.5625 0.65625 1.8125l0 4.890625l-0.84375 0zm-0.328125 -3.5l-1.046875 0.046875q-1.28125 0.0625 -1.8125 0.40625q-0.53125 0.34375 -0.53125 1.0625q0 1.15625 1.296875 1.15625q0.953125 0 1.515625 -0.53125q0.578125 -0.53125 0.578125 -1.484375l0 -0.65625zm9.388809 -3.484375l-0.3125 1.078125q-0.8125 -0.296875 -1.46875 -0.296875q-1.0625 0 -1.640625 0.609375q-0.5625 0.609375 -0.5625 1.734375l0 3.859375l-1.1875 0l0 -7.140625l0.96875 0l0.140625 1.296875l0.046875 0q0.5 -0.765625 1.0625 -1.09375q0.5625 -0.34375 1.390625 -0.34375q0.765625 0 1.5625 0.296875zm6.935684 6.984375l-0.25 -0.984375l-0.046875 0q-0.5 0.625 -1.03125 0.875q-0.53125 0.234375 -1.359375 0.234375q-1.0625 0 -1.671875 -0.546875q-0.59375 -0.5625 -0.59375 -1.578125q0 -2.15625 3.328125 -2.265625l1.3125 -0.046875l0 -0.4375q0 -1.546875 -1.578125 -1.546875q-0.96875 0 -2.140625 0.53125l-0.40625 -0.890625q1.265625 -0.625 2.484375 -0.625q1.484375 0 2.140625 0.578125q0.65625 0.5625 0.65625 1.8125l0 4.890625l-0.84375 0zm-0.328125 -3.5l-1.046875 0.046875q-1.28125 0.0625 -1.8125 0.40625q-0.53125 0.34375 -0.53125 1.0625q0 1.15625 1.296875 1.15625q0.953125 0 1.515625 -0.53125q0.578125 -0.53125 0.578125 -1.484375l0 -0.65625zm5.966934 -5.703125l-1.75 -0.125l0 -0.796875l2.9375 0l0 9.1875l2.28125 0.140625l0 0.796875l-5.71875 0l0 -0.796875l2.25 -0.140625l0 -8.265625zm7.998184 0l-1.75 -0.125l0 -0.796875l2.9375 0l0 9.1875l2.28125 0.140625l0 0.796875l-5.71875 0l0 -0.796875l2.25 -0.140625l0 -8.265625zm11.654434 5.859375l-5.03125 0q0.046875 2.4375 2.234375 2.4375q1.28125 0 2.40625 -0.5l0 1.046875q-1.078125 0.484375 -2.359375 0.484375q-1.59375 0 -2.5625 -0.96875q-0.953125 -0.96875 -0.953125 -2.671875q0 -1.734375 0.875 -2.75q0.890625 -1.015625 2.375 -1.015625q1.375 0 2.1875 0.875q0.828125 0.875 0.828125 2.328125l0 0.734375zm-5.0 -0.96875l3.71875 0q0 -1.984375 -1.765625 -1.984375q-1.78125 0 -1.953125 1.984375zm9.341934 -4.890625l-1.75 -0.125l0 -0.796875l2.9375 0l0 9.1875l2.28125 0.140625l0 0.796875l-5.71875 0l0 -0.796875l2.25 -0.140625l0 -8.265625zm9.341934 -0.3125l1.25 0q-2.921875 2.453125 -2.921875 5.8125q0 3.390625 2.90625 5.8125l-1.234375 0q-2.890625 -2.296875 -2.890625 -5.796875q0 -3.46875 2.890625 -5.828125zm6.373184 11.625l-1.234375 0q2.890625 -2.421875 2.890625 -5.8125q0 -3.375 -2.90625 -5.8125l1.25 0q2.890625 2.34375 2.890625 5.828125q0 3.515625 -2.890625 5.796875zm8.810684 -4.0625q0.984375 0 0.984375 1.078125q0 1.078125 -0.984375 1.078125q-0.984375 0 -0.984375 -1.078125q0 -1.078125 0.984375 -1.078125zm10.795059 -4.296875l-2.53125 0l0 6.25l-1.1875 0l0 -6.25l-2.0625 0l0 -0.71875l2.0625 -0.21875l0 -0.625q0 -1.25 0.578125 -1.8125q0.59375 -0.578125 1.953125 -0.578125q0.84375 0 1.640625 0.234375l-0.265625 0.921875q-0.671875 -0.171875 -1.34375 -0.171875q-0.8125 0 -1.09375 0.328125q-0.28125 0.3125 -0.28125 1.0625l0 0.6875l2.53125 0l0 0.890625zm5.326294 -3.84375q0.6875 0 0.6875 0.75q0 0.375 -0.203125 0.5625q-0.203125 0.1875 -0.484375 0.1875q-0.703125 0 -0.703125 -0.75q0 -0.75 0.703125 -0.75zm-0.609375 3.890625l-1.75 -0.140625l0 -0.796875l2.9375 0l0 6.203125l2.296875 0.140625l0 0.796875l-5.7187347 0l0 -0.796875l2.2343597 -0.140625l0 -5.265625zm7.9513245 -3.0l-1.75 -0.125l0 -0.796875l2.9375 0l0 9.1875l2.28125 0.140625l0 0.796875l-5.71875 0l0 -0.796875l2.25 -0.140625l0 -8.265625zm11.170074 8.234375l0 0.890625q-0.84375 0.203125 -1.640625 0.203125q-2.359375 0 -2.359375 -2.234375l0 -4.140625l-1.734375 0l0 -0.609375l1.734375 -0.328125l0.5 -1.859375l0.6875 0l0 1.90625l2.84375 0l0 0.890625l-2.84375 0l0 4.140625q0 1.265625 1.25 1.265625q0.609375 0 1.5625 -0.125zm8.482544 -2.375l-5.03125 0q0.046875 2.4375 2.234375 2.4375q1.28125 0 2.40625 -0.5l0 1.046875q-1.078125 0.484375 -2.359375 0.484375q-1.59375 0 -2.5625 -0.96875q-0.953125 -0.96875 -0.953125 -2.671875q0 -1.734375 0.875 -2.75q0.890625 -1.015625 2.375 -1.015625q1.375 0 2.1875 0.875q0.828125 0.875 0.828125 2.328125l0 0.734375zm-5.0 -0.96875l3.71875 0q0 -1.984375 -1.765625 -1.984375q-1.78125 0 -1.953125 1.984375zm12.763794 -2.671875l-0.3125 1.078125q-0.8125 -0.296875 -1.46875 -0.296875q-1.0625 0 -1.640625 0.609375q-0.5625 0.609375 -0.5625 1.734375l0 3.859375l-1.1875 0l0 -7.140625l0.96875 0l0.140625 1.296875l0.046875 0q0.5 -0.765625 1.0625 -1.09375q0.5625 -0.34375 1.390625 -0.34375q0.765625 0 1.5625 0.296875zm5.920044 -2.53125l1.25 0q-2.921875 2.453125 -2.921875 5.8125q0 3.390625 2.90625 5.8125l-1.234375 0q-2.890625 -2.296875 -2.890625 -5.796875q0 -3.46875 2.890625 -5.828125zm10.310669 6.171875l-5.03125 0q0.046875 2.4375 2.234375 2.4375q1.28125 0 2.40625 -0.5l0 1.046875q-1.078125 0.484375 -2.359375 0.484375q-1.59375 0 -2.5625 -0.96875q-0.953125 -0.96875 -0.953125 -2.671875q0 -1.734375 0.875 -2.75q0.890625 -1.015625 2.375 -1.015625q1.375 0 2.1875 0.875q0.828125 0.875 0.828125 2.328125l0 0.734375zm-5.0 -0.96875l3.71875 0q0 -1.984375 -1.765625 -1.984375q-1.78125 0 -1.953125 1.984375zm7.732544 1.28125l0 -1.09375l4.28125 0l0 1.09375l-4.28125 0zm7.123169 0.546875l4.65625 -2.21875l-4.65625 -2.234375l0 -1.03125l6.015625 2.9375l0 0.65625l-6.015625 2.9375l0 -1.046875zm22.136963 -0.859375l-5.03125 0q0.046875 2.4375 2.234375 2.4375q1.28125 0 2.40625 -0.5l0 1.046875q-1.078125 0.484375 -2.359375 0.484375q-1.59375 0 -2.5625 -0.96875q-0.953125 -0.96875 -0.953125 -2.671875q0 -1.734375 0.875 -2.75q0.890625 -1.015625 2.375 -1.015625q1.375 0 2.1875 0.875q0.828125 0.875 0.828125 2.328125l0 0.734375zm-5.0 -0.96875l3.71875 0q0 -1.984375 -1.765625 -1.984375q-1.78125 0 -1.953125 1.984375zm14.855713 1.828125l4.65625 -2.21875l-4.65625 -2.234375l0 -1.03125l6.015625 2.9375l0 0.65625l-6.015625 2.9375l0 -1.046875zm19.949463 2.484375l-1.15625 0l0 -5.9375q0 -0.796875 0.0625 -2.359375q-0.265625 0.28125 -0.796875 0.734375l-0.953125 0.796875l-0.625 -0.796875l2.484375 -1.953125l0.984375 0l0 9.515625zm7.045044 0.125q-1.484375 0 -2.265625 -1.25q-0.765625 -1.265625 -0.765625 -3.640625q0 -4.90625 3.03125 -4.90625q1.515625 0 2.28125 1.265625q0.765625 1.265625 0.765625 3.640625q0 4.890625 -3.046875 4.890625zm0 -1.0q0.953125 0 1.40625 -0.90625q0.453125 -0.921875 0.453125 -2.984375q0 -2.046875 -0.453125 -2.96875q-0.453125 -0.921875 -1.40625 -0.921875q-0.9375 0 -1.390625 0.921875q-0.4375 0.90625 -0.4375 2.96875q0 2.0625 0.4375 2.984375q0.453125 0.90625 1.390625 0.90625zm7.201294 2.984375l-1.234375 0q2.890625 -2.421875 2.890625 -5.8125q0 -3.375 -2.90625 -5.8125l1.25 0q2.890625 2.34375 2.890625 5.828125q0 3.515625 -2.890625 5.796875zm8.810669 -4.0625q0.984375 0 0.984375 1.078125q0 1.078125 -0.984375 1.078125q-0.984375 0 -0.984375 -1.078125q0 -1.078125 0.984375 -1.078125zm10.904419 -4.9375l-0.40625 1.03125q-0.96875 -0.375 -1.75 -0.375q-2.40625 0 -2.40625 2.6875q0 2.640625 2.34375 2.640625q1.03125 0 2.09375 -0.40625l0 1.046875q-0.875 0.390625 -2.140625 0.390625q-1.671875 0 -2.59375 -0.9375q-0.921875 -0.953125 -0.921875 -2.71875q0 -1.828125 0.9375 -2.78125q0.9375 -0.96875 2.65625 -0.96875q1.15625 0 2.1875 0.390625zm5.060669 7.015625q-1.40625 0 -2.3125 -1.0q-0.90625 -1.015625 -0.90625 -2.703125q0 -1.71875 0.875 -2.703125q0.890625 -1.0 2.390625 -1.0q1.40625 0 2.3125 1.015625q0.90625 1.0 0.90625 2.6875q0 1.71875 -0.890625 2.71875q-0.890625 0.984375 -2.375 0.984375zm0.03125 -0.984375q2.015625 0 2.015625 -2.71875q0 -2.71875 -2.03125 -2.71875q-2.015625 0 -2.015625 2.71875q0 2.71875 2.03125 2.71875zm9.998169 0.859375l-0.171875 -0.953125l-0.0625 0q-0.6875 1.078125 -2.1875 1.078125q-2.53125 0 -2.53125 -2.609375l0 -4.65625l1.171875 0l0 4.59375q0 1.6875 1.546875 1.6875q1.046875 0 1.515625 -0.59375q0.484375 -0.609375 0.484375 -1.984375l0 -3.703125l1.1875 0l0 7.140625l-0.953125 0zm7.763794 0l0 -4.59375q0 -1.703125 -1.546875 -1.703125q-2.0 0 -2.0 2.59375l0 3.703125l-1.171875 0l0 -7.140625l0.953125 0l0.171875 0.953125l0.0625 0q0.671875 -1.09375 2.1875 -1.09375q2.53125 0 2.53125 2.609375l0 4.671875l-1.1875 0zm8.873169 -0.96875l0 0.890625q-0.84375 0.203125 -1.640625 0.203125q-2.359375 0 -2.359375 -2.234375l0 -4.140625l-1.734375 0l0 -0.609375l1.734375 -0.328125l0.5 -1.859375l0.6875 0l0 1.90625l2.84375 0l0 0.890625l-2.84375 0l0 4.140625q0 1.265625 1.25 1.265625q0.609375 0 1.5625 -0.125zm6.170044 -8.546875l1.25 0q-2.921875 2.453125 -2.921875 5.8125q0 3.390625 2.90625 5.8125l-1.234375 0q-2.890625 -2.296875 -2.890625 -5.796875q0 -3.46875 2.890625 -5.828125zm6.373169 11.625l-1.234375 0q2.890625 -2.421875 2.890625 -5.8125q0 -3.375 -2.90625 -5.8125l1.25 0q2.890625 2.34375 2.890625 5.828125q0 3.515625 -2.890625 5.796875z" fill-rule="nonzero"/><path fill="#000000" fill-opacity="0.0" d="m126.56074 161.30923l0 -90.67716" fill-rule="evenodd"/><path stroke="#e06666" stroke-width="1.0" stroke-linejoin="round" stroke-linecap="butt" stroke-dasharray="4.0,3.0" d="m126.56074 161.30923l0 -84.67716" fill-rule="evenodd"/><path stroke="#e06666" stroke-width="1.0" stroke-linecap="butt" d="m128.21246 76.63207l-1.6517258 -4.5380936l-1.6517334 4.5380936z" fill-rule="evenodd"/><path fill="#000000" fill-opacity="0.0" d="m32.777428 160.72835l-0.03149414 -91.05512" fill-rule="evenodd"/><path stroke="#e06666" stroke-width="1.0" stroke-linejoin="round" stroke-linecap="butt" stroke-dasharray="4.0,3.0" d="m32.777428 160.72835l-0.029418945 -85.05512" fill-rule="evenodd"/><path stroke="#e06666" stroke-width="1.0" stroke-linecap="butt" d="m34.39974 75.67265l-1.6533012 -4.5375214l-1.6501617 4.538666z" fill-rule="evenodd"/><path fill="#000000" fill-opacity="0.0" d="m180.09186 161.26772l0.69291687 -65.92126" fill-rule="evenodd"/><path stroke="#e06666" stroke-width="1.0" stroke-linejoin="round" stroke-linecap="butt" stroke-dasharray="4.0,3.0" d="m180.09186 161.26772l0.69291687 -65.92126" fill-rule="evenodd"/><path fill="#000000" fill-opacity="0.0" d="m180.78477 96.04068l20.094498 -27.937004" fill-rule="evenodd"/><path stroke="#e06666" stroke-width="1.0" stroke-linejoin="round" stroke-linecap="butt" stroke-dasharray="4.0,3.0" d="m180.78477 96.04068l16.590988 -23.066132" fill-rule="evenodd"/><path stroke="#e06666" stroke-width="1.0" stroke-linecap="butt" d="m198.71664 73.939026l1.3089905 -4.6485596l-3.9907837 2.7196045z" fill-rule="evenodd"/><path fill="#000000" fill-opacity="0.0" d="m305.0538 162.08267l0 -48.314964" fill-rule="evenodd"/><path stroke="#e06666" stroke-width="1.0" stroke-linejoin="round" stroke-linecap="butt" stroke-dasharray="4.0,3.0" d="m305.0538 162.08267l0 -42.314964" fill-rule="evenodd"/><path stroke="#e06666" stroke-width="1.0" stroke-linecap="butt" d="m306.70554 119.76771l-1.6517334 -4.538101l-1.6517334 4.538101z" fill-rule="evenodd"/><path fill="#000000" fill-opacity="0.0" d="m440.90945 161.74913l0 -91.11812" fill-rule="evenodd"/><path stroke="#e06666" stroke-width="1.0" stroke-linejoin="round" stroke-linecap="butt" stroke-dasharray="4.0,3.0" d="m440.90945 161.74913l0 -85.11811" fill-rule="evenodd"/><path stroke="#e06666" stroke-width="1.0" stroke-linecap="butt" d="m442.5612 76.63102l-1.6517334 -4.538101l-1.6517334 4.538101z" fill-rule="evenodd"/></g></svg>