<svg version="1.1" viewBox="0.0 0.0 430.5459317585302 471.2729658792651" fill="none" stroke="none" stroke-linecap="square" stroke-miterlimit="10" xmlns:xlink="http://www.w3.org/1999/xlink" xmlns="http://www.w3.org/2000/svg"><clipPath id="p.0"><path d="m0 0l430.54593 0l0 471.27298l-430.54593 0l0 -471.27298z" clip-rule="nonzero"/></clipPath><g clip-path="url(#p.0)"><path fill="#000000" fill-opacity="0.0" d="m0 0l430.54593 0l0 471.27298l-430.54593 0z" fill-rule="evenodd"/><path fill="#434343" d="m0.0131233595 -1.7454069l430.55118 0l0 480.0l-430.55118 0z" fill-rule="evenodd"/><path fill="#fff2cc" d="m92.09593 228.63744l0 0c0 -71.71434 60.767654 -129.85031 135.72835 -129.85031l0 0c35.997406 0 70.52045 13.680618 95.97446 38.03228c25.45398 24.351654 39.753906 57.379578 39.753906 91.81802l0 0c0 71.71434 -60.76767 129.8503 -135.72836 129.8503l0 0c-74.96069 0 -135.72835 -58.135956 -135.72835 -129.8503zm64.925156 0c0 35.857162 31.699677 64.925156 70.80319 64.925156c39.103546 0 70.80319 -29.067993 70.80319 -64.925156c0 -35.857162 -31.699646 -64.925156 -70.80319 -64.925156l0 0c-39.103516 0 -70.80319 29.067993 -70.80319 64.925156z" fill-rule="evenodd"/><path stroke="#e69138" stroke-width="2.0" stroke-linejoin="round" stroke-linecap="butt" d="m92.09593 228.63744l0 0c0 -71.71434 60.767654 -129.85031 135.72835 -129.85031l0 0c35.997406 0 70.52045 13.680618 95.97446 38.03228c25.45398 24.351654 39.753906 57.379578 39.753906 91.81802l0 0c0 71.71434 -60.76767 129.8503 -135.72836 129.8503l0 0c-74.96069 0 -135.72835 -58.135956 -135.72835 -129.8503zm64.925156 0c0 35.857162 31.699677 64.925156 70.80319 64.925156c39.103546 0 70.80319 -29.067993 70.80319 -64.925156c0 -35.857162 -31.699646 -64.925156 -70.80319 -64.925156l0 0c-39.103516 0 -70.80319 29.067993 -70.80319 64.925156z" fill-rule="evenodd"/><path fill="#c9daf8" d="m99.92323 232.73389l0 0c0 -13.085815 10.792648 -23.693985 24.106049 -23.693985l0 0c6.393326 0 12.524796 2.4963226 17.045563 6.9398193c4.520752 4.4434814 7.060486 10.470139 7.060486 16.754166l0 0c0 13.085831 -10.792648 23.694 -24.106049 23.694l0 0c-13.3134 0 -24.106049 -10.60817 -24.106049 -23.694z" fill-rule="evenodd"/><path stroke="#76a5af" stroke-width="2.0" stroke-linejoin="round" stroke-linecap="butt" d="m99.92323 232.73389l0 0c0 -13.085815 10.792648 -23.693985 24.106049 -23.693985l0 0c6.393326 0 12.524796 2.4963226 17.045563 6.9398193c4.520752 4.4434814 7.060486 10.470139 7.060486 16.754166l0 0c0 13.085831 -10.792648 23.694 -24.106049 23.694l0 0c-13.3134 0 -24.106049 -10.60817 -24.106049 -23.694z" fill-rule="evenodd"/><path fill="#000000" d="m131.64053 240.2139l-3.34375 0l-1.328125 -3.46875l-6.109375 0l-1.265625 3.46875l-3.265625 0l5.953125 -15.265625l3.25 0l6.109375 15.265625zm-5.671875 -6.046875l-2.09375 -5.65625l-2.0625 5.65625l4.15625 0z" fill-rule="nonzero"/><path fill="#ea9999" d="m304.8741 228.09206l0 0c0 -13.085831 10.792633 -23.693985 24.106049 -23.693985l0 0c6.3933105 0 12.52478 2.4963226 17.045532 6.939804c4.5207825 4.4434814 7.0605164 10.470139 7.0605164 16.75418l0 0c0 13.085815 -10.792664 23.693985 -24.106049 23.693985l0 0c-13.313416 0 -24.106049 -10.60817 -24.106049 -23.693985z" fill-rule="evenodd"/><path stroke="#e69138" stroke-width="2.0" stroke-linejoin="round" stroke-linecap="butt" d="m304.8741 228.09206l0 0c0 -13.085831 10.792633 -23.693985 24.106049 -23.693985l0 0c6.3933105 0 12.52478 2.4963226 17.045532 6.939804c4.5207825 4.4434814 7.0605164 10.470139 7.0605164 16.75418l0 0c0 13.085815 -10.792664 23.693985 -24.106049 23.693985l0 0c-13.313416 0 -24.106049 -10.60817 -24.106049 -23.693985z" fill-rule="evenodd"/><path fill="#000000" d="m324.04425 235.57205l0 -15.265625l10.453125 0l0 2.578125l-7.375 0l0 3.609375l6.375 0l0 2.59375l-6.375 0l0 6.484375l-3.078125 0z" fill-rule="nonzero"/><path fill="#c9daf8" d="m133.38379 299.7339l0 0c0 -13.085815 10.792648 -23.694 24.106064 -23.694l0 0c6.3933105 0 12.52478 2.496338 17.045547 6.9398193c4.520767 4.4434814 7.060501 10.470154 7.060501 16.75418l0 0c0 13.085815 -10.792648 23.69397 -24.106049 23.69397l0 0c-13.313416 0 -24.106064 -10.608154 -24.106064 -23.69397z" fill-rule="evenodd"/><path stroke="#76a5af" stroke-width="2.0" stroke-linejoin="round" stroke-linecap="butt" d="m133.38379 299.7339l0 0c0 -13.085815 10.792648 -23.694 24.106064 -23.694l0 0c6.3933105 0 12.52478 2.496338 17.045547 6.9398193c4.520767 4.4434814 7.060501 10.470154 7.060501 16.75418l0 0c0 13.085815 -10.792648 23.69397 -24.106049 23.69397l0 0c-13.313416 0 -24.106064 -10.608154 -24.106064 -23.69397z" fill-rule="evenodd"/><path fill="#000000" d="m151.3511 291.94824l6.109375 0q1.8125 0 2.6875 0.15625q0.890625 0.140625 1.59375 0.625q0.703125 0.484375 1.171875 1.28125q0.46875 0.796875 0.46875 1.78125q0 1.0625 -0.578125 1.96875q-0.578125 0.890625 -1.5625 1.34375q1.390625 0.40625 2.140625 1.390625q0.75 0.96875 0.75 2.296875q0 1.03125 -0.484375 2.015625q-0.484375 0.984375 -1.328125 1.578125q-0.828125 0.59375 -2.046875 0.71875q-0.78125 0.09375 -3.71875 0.109375l-5.203125 0l0 -15.265625zm3.078125 2.546875l0 3.515625l2.03125 0q1.796875 0 2.234375 -0.046875q0.796875 -0.09375 1.25 -0.546875q0.453125 -0.453125 0.453125 -1.1875q0 -0.703125 -0.390625 -1.140625q-0.390625 -0.453125 -1.171875 -0.546875q-0.453125 -0.046875 -2.625 -0.046875l-1.78125 0zm0 6.0625l0 4.078125l2.859375 0q1.671875 0 2.109375 -0.09375q0.6875 -0.125 1.109375 -0.609375q0.4375 -0.484375 0.4375 -1.296875q0 -0.6875 -0.328125 -1.15625q-0.328125 -0.484375 -0.96875 -0.703125q-0.625 -0.21875 -2.71875 -0.21875l-2.5 0z" fill-rule="nonzero"/><path fill="#ff0000" d="m184.09346 132.08868c-1.059433 0 -2.0529175 0.14353943 -2.9804535 0.43060303c-0.9232788 0.28266907 -1.6529694 0.629364 -2.1890717 1.0401001c-0.714798 0.5299835 -1.2806854 1.1968842 -1.6976471 2.0006866c-0.41270447 0.7993927 -0.61906433 1.6694489 -0.61906433 2.6101685c0 1.0334778 0.25102234 1.9786072 0.75309753 2.8354187c0.50631714 0.8523865 1.2466431 1.5214844 2.2209778 2.007309c0.9785919 0.48139954 2.7315521 1.0533447 5.2588806 1.7158203c1.8763428 0.49023438 3.0506592 0.89434814 3.522934 1.2123413c0.6764984 0.46372986 1.0147552 1.0997162 1.0147552 1.9079437c0 0.90097046 -0.3829193 1.6871185 -1.1487885 2.358429c-0.7658539 0.6668854 -1.940155 1.0003357 -3.522934 1.0003357c-1.5700073 0 -2.7932434 -0.37760925 -3.6697235 -1.1328278c-0.8722229 -0.75523376 -1.404068 -1.8417053 -1.5955353 -3.2593994l-3.4080505 0.5564728c0.3829193 2.2391815 1.2657776 3.9285126 2.6485748 5.067978c1.3870544 1.1394653 3.4016876 1.709198 6.0438843 1.709198c1.5955353 0 3.0251312 -0.28707886 4.288788 -0.8612366c1.2636719 -0.57855225 2.2294922 -1.3934021 2.8974915 -2.4445496c0.67225647 -1.055542 1.0083771 -2.1795502 1.0083771 -3.3720093c0 -1.2189636 -0.27442932 -2.2391815 -0.82328796 -3.060669c-0.5488739 -0.82147217 -1.3062134 -1.4464111 -2.272049 -1.8748169c-0.9615631 -0.43281555 -2.6613464 -0.98709106 -5.0993195 -1.6628113c-1.6848755 -0.47698975 -2.699646 -0.7817383 -3.044281 -0.91423035c-0.59991455 -0.2517395 -1.0402832 -0.56973267 -1.3210907 -0.95396423c-0.28082275 -0.37098694 -0.42123413 -0.7883606 -0.42123413 -1.2520905c0 -0.72872925 0.33825684 -1.3647156 1.0147705 -1.9079437c0.6764984 -0.54322815 1.8061371 -0.81484985 3.3889008 -0.81484985c1.3402557 0 2.3762817 0.30474854 3.1081085 0.91423035c0.7360687 0.6094818 1.1806946 1.4574432 1.3338623 2.5439148l3.3697662 -0.47698975c-0.21699524 -1.3647003 -0.61268616 -2.4533844 -1.1870728 -3.2660217c-0.57440186 -0.8170624 -1.4657593 -1.4640808 -2.674118 -1.9410706c-1.2040863 -0.4769745 -2.6039124 -0.71546936 -4.1994476 -0.71546936z" fill-rule="evenodd"/><path fill="#ff0000" d="m194.5474 132.56567l6.22258 21.106598l3.599533 0l4.1164703 -16.237381l0.78500366 3.5972748l3.2357483 12.640106l3.580368 0l6.356613 -21.106598l-3.3506317 0l-3.4846344 12.202866l-1.1679382 4.0742493l-1.0147552 -4.0345l-3.044281 -12.242615l-3.5420837 0l-3.235733 12.361862c-0.6509857 2.676422 -1.0019989 4.1272583 -1.0530548 4.3524933l-1.2062225 -4.531357l-3.2357483 -12.182999z" fill-rule="evenodd"/><path fill="#ff0000" d="m225.35396 124.536415l0 4.113991l3.44635 0l0 -4.113991zm0 8.029259l0 21.106598l3.44635 0l0 -21.106598z" fill-rule="evenodd"/><path fill="#ff0000" d="m238.10545 125.19227l-3.4272003 2.1464386l0 5.226967l-2.5273285 0l0 2.7824097l2.5273285 0l0 12.1432495c0 2.1464386 0.14041138 3.555313 0.42121887 4.2266235c0.28082275 0.66690063 0.7658539 1.205719 1.4551239 1.6164551c0.68927 0.41073608 1.6593628 0.6161041 2.910263 0.6161041c0.7658539 0 1.6338196 -0.10600281 2.6039124 -0.31799316l-0.497818 -3.1600342c-0.6254425 0.09275818 -1.1296387 0.13912964 -1.512558 0.13912964c-0.51057434 0 -0.9041443 -0.086120605 -1.1806946 -0.25837708c-0.27230835 -0.17224121 -0.4701538 -0.40411377 -0.5935364 -0.6956024c-0.119140625 -0.29148865 -0.17871094 -0.9473419 -0.17871094 -1.9675598l0 -12.341995l3.4654999 0l0 -2.7824097l-3.4654999 0l0 -7.3734055z" fill-rule="evenodd"/><path fill="#ff0000" d="m253.15453 132.08868c-1.748703 0 -3.36763 0.42840576 -4.8567963 1.285202c-1.484909 0.85240173 -2.5911407 2.133194 -3.3187103 3.842392c-0.7275696 1.709198 -1.0913391 3.7032623 -1.0913391 5.982193c0 3.5243835 0.8445587 6.23172 2.5337067 8.121994c1.6933899 1.8858643 3.9313812 2.8287964 6.7140045 2.8287964c2.2209778 0 4.0930634 -0.6845703 5.6162567 -2.0536957c1.5274658 -1.3735352 2.4762878 -3.272644 2.8464355 -5.6973267l-3.388916 -0.45710754c-0.24249268 1.7886963 -0.81689453 3.1136627 -1.723175 3.974884c-0.90625 0.8612213 -2.0358887 1.2918243 -3.3889008 1.2918243c-1.6848755 0 -3.0506592 -0.6425934 -4.097336 -1.9278107c-1.0466614 -1.2852173 -1.5699921 -3.34552 -1.5699921 -6.1809387c0 -2.7956543 0.54248047 -4.8383026 1.6274414 -6.1279297c1.0849609 -1.2940521 2.495407 -1.9410706 4.2313538 -1.9410706c1.1487885 0 2.1273804 0.3577423 2.9357758 1.0732117c0.8126526 0.7154846 1.37854 1.782074 1.6976624 3.1997833l3.3506165 -0.53660583c-0.39569092 -2.133194 -1.2955933 -3.7783508 -2.699646 -4.9354706c-1.4040833 -1.1615448 -3.2102203 -1.7423248 -5.418442 -1.7423248z" fill-rule="evenodd"/><path fill="#ff0000" d="m264.54663 124.536415l0 29.135857l3.44635 0l0 -11.547028c0 -1.656189 0.19146729 -2.9546509 0.57440186 -3.8953705c0.38293457 -0.9407196 1.0232849 -1.684906 1.9210205 -2.2325592c0.90200806 -0.552063 1.8635864 -0.8280945 2.884735 -0.8280945c1.3657837 0 2.4209595 0.40852356 3.1655273 1.2255859c0.74884033 0.8126373 1.1232605 2.1133118 1.1232605 3.9019928l0 13.375473l3.44635 0l0 -13.375473c0 -2.066925 -0.24038696 -3.643631 -0.7211914 -4.7301025c-0.47653198 -1.0864563 -1.2700195 -1.9366455 -2.3805237 -2.550537c-1.1105042 -0.61831665 -2.4188232 -0.927475 -3.9250183 -0.927475c-2.4507446 0 -4.480255 0.9672241 -6.088562 2.901657l0 -10.453926z" fill-rule="evenodd"/><path stroke="#e69138" stroke-width="1.0" stroke-linejoin="round" stroke-linecap="butt" d="m184.09346 132.08868c-1.059433 0 -2.0529175 0.14353943 -2.9804535 0.43060303c-0.9232788 0.28266907 -1.6529694 0.629364 -2.1890717 1.0401001c-0.714798 0.5299835 -1.2806854 1.1968842 -1.6976471 2.0006866c-0.41270447 0.7993927 -0.61906433 1.6694489 -0.61906433 2.6101685c0 1.0334778 0.25102234 1.9786072 0.75309753 2.8354187c0.50631714 0.8523865 1.2466431 1.5214844 2.2209778 2.007309c0.9785919 0.48139954 2.7315521 1.0533447 5.2588806 1.7158203c1.8763428 0.49023438 3.0506592 0.89434814 3.522934 1.2123413c0.6764984 0.46372986 1.0147552 1.0997162 1.0147552 1.9079437c0 0.90097046 -0.3829193 1.6871185 -1.1487885 2.358429c-0.7658539 0.6668854 -1.940155 1.0003357 -3.522934 1.0003357c-1.5700073 0 -2.7932434 -0.37760925 -3.6697235 -1.1328278c-0.8722229 -0.75523376 -1.404068 -1.8417053 -1.5955353 -3.2593994l-3.4080505 0.5564728c0.3829193 2.2391815 1.2657776 3.9285126 2.6485748 5.067978c1.3870544 1.1394653 3.4016876 1.709198 6.0438843 1.709198c1.5955353 0 3.0251312 -0.28707886 4.288788 -0.8612366c1.2636719 -0.57855225 2.2294922 -1.3934021 2.8974915 -2.4445496c0.67225647 -1.055542 1.0083771 -2.1795502 1.0083771 -3.3720093c0 -1.2189636 -0.27442932 -2.2391815 -0.82328796 -3.060669c-0.5488739 -0.82147217 -1.3062134 -1.4464111 -2.272049 -1.8748169c-0.9615631 -0.43281555 -2.6613464 -0.98709106 -5.0993195 -1.6628113c-1.6848755 -0.47698975 -2.699646 -0.7817383 -3.044281 -0.91423035c-0.59991455 -0.2517395 -1.0402832 -0.56973267 -1.3210907 -0.95396423c-0.28082275 -0.37098694 -0.42123413 -0.7883606 -0.42123413 -1.2520905c0 -0.72872925 0.33825684 -1.3647156 1.0147705 -1.9079437c0.6764984 -0.54322815 1.8061371 -0.81484985 3.3889008 -0.81484985c1.3402557 0 2.3762817 0.30474854 3.1081085 0.91423035c0.7360687 0.6094818 1.1806946 1.4574432 1.3338623 2.5439148l3.3697662 -0.47698975c-0.21699524 -1.3647003 -0.61268616 -2.4533844 -1.1870728 -3.2660217c-0.57440186 -0.8170624 -1.4657593 -1.4640808 -2.674118 -1.9410706c-1.2040863 -0.4769745 -2.6039124 -0.71546936 -4.1994476 -0.71546936z" fill-rule="evenodd"/><path stroke="#e69138" stroke-width="1.0" stroke-linejoin="round" stroke-linecap="butt" d="m194.5474 132.56567l6.22258 21.106598l3.599533 0l4.1164703 -16.237381l0.78500366 3.5972748l3.2357483 12.640106l3.580368 0l6.356613 -21.106598l-3.3506317 0l-3.4846344 12.202866l-1.1679382 4.0742493l-1.0147552 -4.0345l-3.044281 -12.242615l-3.5420837 0l-3.235733 12.361862c-0.6509857 2.676422 -1.0019989 4.1272583 -1.0530548 4.3524933l-1.2062225 -4.531357l-3.2357483 -12.182999z" fill-rule="evenodd"/><path stroke="#e69138" stroke-width="1.0" stroke-linejoin="round" stroke-linecap="butt" d="m225.35396 124.536415l0 4.113991l3.44635 0l0 -4.113991zm0 8.029259l0 21.106598l3.44635 0l0 -21.106598z" fill-rule="evenodd"/><path stroke="#e69138" stroke-width="1.0" stroke-linejoin="round" stroke-linecap="butt" d="m238.10545 125.19227l-3.4272003 2.1464386l0 5.226967l-2.5273285 0l0 2.7824097l2.5273285 0l0 12.1432495c0 2.1464386 0.14041138 3.555313 0.42121887 4.2266235c0.28082275 0.66690063 0.7658539 1.205719 1.4551239 1.6164551c0.68927 0.41073608 1.6593628 0.6161041 2.910263 0.6161041c0.7658539 0 1.6338196 -0.10600281 2.6039124 -0.31799316l-0.497818 -3.1600342c-0.6254425 0.09275818 -1.1296387 0.13912964 -1.512558 0.13912964c-0.51057434 0 -0.9041443 -0.086120605 -1.1806946 -0.25837708c-0.27230835 -0.17224121 -0.4701538 -0.40411377 -0.5935364 -0.6956024c-0.119140625 -0.29148865 -0.17871094 -0.9473419 -0.17871094 -1.9675598l0 -12.341995l3.4654999 0l0 -2.7824097l-3.4654999 0l0 -7.3734055z" fill-rule="evenodd"/><path stroke="#e69138" stroke-width="1.0" stroke-linejoin="round" stroke-linecap="butt" d="m253.15453 132.08868c-1.748703 0 -3.36763 0.42840576 -4.8567963 1.285202c-1.484909 0.85240173 -2.5911407 2.133194 -3.3187103 3.842392c-0.7275696 1.709198 -1.0913391 3.7032623 -1.0913391 5.982193c0 3.5243835 0.8445587 6.23172 2.5337067 8.121994c1.6933899 1.8858643 3.9313812 2.8287964 6.7140045 2.8287964c2.2209778 0 4.0930634 -0.6845703 5.6162567 -2.0536957c1.5274658 -1.3735352 2.4762878 -3.272644 2.8464355 -5.6973267l-3.388916 -0.45710754c-0.24249268 1.7886963 -0.81689453 3.1136627 -1.723175 3.974884c-0.90625 0.8612213 -2.0358887 1.2918243 -3.3889008 1.2918243c-1.6848755 0 -3.0506592 -0.6425934 -4.097336 -1.9278107c-1.0466614 -1.2852173 -1.5699921 -3.34552 -1.5699921 -6.1809387c0 -2.7956543 0.54248047 -4.8383026 1.6274414 -6.1279297c1.0849609 -1.2940521 2.495407 -1.9410706 4.2313538 -1.9410706c1.1487885 0 2.1273804 0.3577423 2.9357758 1.0732117c0.8126526 0.7154846 1.37854 1.782074 1.6976624 3.1997833l3.3506165 -0.53660583c-0.39569092 -2.133194 -1.2955933 -3.7783508 -2.699646 -4.9354706c-1.4040833 -1.1615448 -3.2102203 -1.7423248 -5.418442 -1.7423248z" fill-rule="evenodd"/><path stroke="#e69138" stroke-width="1.0" stroke-linejoin="round" stroke-linecap="butt" d="m264.54663 124.536415l0 29.135857l3.44635 0l0 -11.547028c0 -1.656189 0.19146729 -2.9546509 0.57440186 -3.8953705c0.38293457 -0.9407196 1.0232849 -1.684906 1.9210205 -2.2325592c0.90200806 -0.552063 1.8635864 -0.8280945 2.884735 -0.8280945c1.3657837 0 2.4209595 0.40852356 3.1655273 1.2255859c0.74884033 0.8126373 1.1232605 2.1133118 1.1232605 3.9019928l0 13.375473l3.44635 0l0 -13.375473c0 -2.066925 -0.24038696 -3.643631 -0.7211914 -4.7301025c-0.47653198 -1.0864563 -1.2700195 -1.9366455 -2.3805237 -2.550537c-1.1105042 -0.61831665 -2.4188232 -0.927475 -3.9250183 -0.927475c-2.4507446 0 -4.480255 0.9672241 -6.088562 2.901657l0 -10.453926z" fill-rule="evenodd"/><path fill="#c9daf8" d="m203.71823 327.82355l0 0c0 -13.085815 10.792648 -23.69397 24.106049 -23.69397l0 0c6.393326 0 12.524796 2.4963074 17.045563 6.939789c4.520752 4.443512 7.060501 10.470154 7.060501 16.75418l0 0c0 13.085846 -10.792648 23.694 -24.106064 23.694l0 0c-13.3134 0 -24.106049 -10.608154 -24.106049 -23.694z" fill-rule="evenodd"/><path stroke="#76a5af" stroke-width="2.0" stroke-linejoin="round" stroke-linecap="butt" d="m203.71823 327.82355l0 0c0 -13.085815 10.792648 -23.69397 24.106049 -23.69397l0 0c6.393326 0 12.524796 2.4963074 17.045563 6.939789c4.520752 4.443512 7.060501 10.470154 7.060501 16.75418l0 0c0 13.085846 -10.792648 23.694 -24.106064 23.694l0 0c-13.3134 0 -24.106049 -10.608154 -24.106049 -23.694z" fill-rule="evenodd"/><path fill="#000000" d="m231.43553 329.69418l3.0 0.9375q-0.6875 2.5 -2.296875 3.71875q-1.59375 1.21875 -4.046875 1.21875q-3.046875 0 -5.0 -2.078125q-1.953125 -2.078125 -1.953125 -5.6875q0 -3.8125 1.96875 -5.921875q1.96875 -2.109375 5.171875 -2.109375q2.796875 0 4.546875 1.65625q1.046875 0.984375 1.5625 2.8125l-3.046875 0.734375q-0.28125 -1.1875 -1.140625 -1.875q-0.84375 -0.6875 -2.078125 -0.6875q-1.703125 0 -2.765625 1.21875q-1.046875 1.21875 -1.046875 3.9375q0 2.90625 1.03125 4.140625q1.046875 1.21875 2.71875 1.21875q1.234375 0 2.109375 -0.78125q0.890625 -0.78125 1.265625 -2.453125z" fill-rule="nonzero"/><path fill="#c9daf8" d="m277.15588 295.28415l0 0c0 -13.085815 10.792664 -23.69397 24.10608 -23.69397l0 0c6.3933105 0 12.52478 2.4963074 17.045532 6.939789c4.5207825 4.4434814 7.0605164 10.470154 7.0605164 16.75418l0 0c0 13.085815 -10.792664 23.694 -24.106049 23.694l0 0c-13.313416 0 -24.10608 -10.608185 -24.10608 -23.694z" fill-rule="evenodd"/><path stroke="#76a5af" stroke-width="2.0" stroke-linejoin="round" stroke-linecap="butt" d="m277.15588 295.28415l0 0c0 -13.085815 10.792664 -23.69397 24.10608 -23.69397l0 0c6.3933105 0 12.52478 2.4963074 17.045532 6.939789c4.5207825 4.4434814 7.0605164 10.470154 7.0605164 16.75418l0 0c0 13.085815 -10.792664 23.694 -24.106049 23.694l0 0c-13.313416 0 -24.10608 -10.608185 -24.10608 -23.694z" fill-rule="evenodd"/><path fill="#000000" d="m295.10757 287.49854l5.625 0q1.90625 0 2.90625 0.296875q1.34375 0.390625 2.296875 1.40625q0.96875 1.0 1.46875 2.46875q0.5 1.453125 0.5 3.609375q0 1.875 -0.46875 3.25q-0.578125 1.65625 -1.640625 2.6875q-0.796875 0.78125 -2.15625 1.21875q-1.03125 0.328125 -2.734375 0.328125l-5.796875 0l0 -15.265625zm3.078125 2.578125l0 10.109375l2.296875 0q1.296875 0 1.875 -0.140625q0.75 -0.1875 1.234375 -0.625q0.5 -0.453125 0.8125 -1.484375q0.3125 -1.03125 0.3125 -2.796875q0 -1.765625 -0.3125 -2.703125q-0.3125 -0.953125 -0.875 -1.484375q-0.5625 -0.53125 -1.421875 -0.71875q-0.65625 -0.15625 -2.53125 -0.15625l-1.390625 0z" fill-rule="nonzero"/><path fill="#cfe2f3" d="m141.88979 16.76903l171.84251 0l0 39.590553l-171.84251 0z" fill-rule="evenodd"/><path stroke="#3c78d8" stroke-width="2.0" stroke-linejoin="round" stroke-linecap="butt" d="m141.88979 16.76903l171.84251 0l0 39.590553l-171.84251 0z" fill-rule="evenodd"/><path fill="#000000" d="m176.62744 36.580555l-2.171875 0.390625q-0.109375 -0.65625 -0.5 -0.984375q-0.375 -0.328125 -1.0 -0.328125q-0.8125 0 -1.3125 0.578125q-0.484375 0.5625 -0.484375 1.890625q0 1.46875 0.5 2.078125q0.5 0.609375 1.328125 0.609375q0.625 0 1.015625 -0.34375q0.40625 -0.359375 0.578125 -1.234375l2.15625 0.375q-0.34375 1.484375 -1.296875 2.25q-0.953125 0.75 -2.546875 0.75q-1.828125 0 -2.90625 -1.140625q-1.078125 -1.15625 -1.078125 -3.1875q0 -2.0625 1.078125 -3.203125q1.09375 -1.140625 2.9375 -1.140625q1.515625 0 2.40625 0.65625q0.90625 0.640625 1.296875 1.984375zm1.1484375 1.578125q0 -1.09375 0.53125 -2.109375q0.546875 -1.03125 1.53125 -1.5625q1.0 -0.546875 2.21875 -0.546875q1.875 0 3.078125 1.21875q1.203125 1.21875 1.203125 3.09375q0 1.875 -1.21875 3.125q-1.203125 1.234375 -3.046875 1.234375q-1.140625 0 -2.1875 -0.515625q-1.03125 -0.515625 -1.578125 -1.515625q-0.53125 -1.0 -0.53125 -2.421875zm2.25 0.109375q0 1.234375 0.578125 1.890625q0.59375 0.65625 1.453125 0.65625q0.859375 0 1.4375 -0.65625q0.59375 -0.65625 0.59375 -1.90625q0 -1.21875 -0.59375 -1.875q-0.578125 -0.65625 -1.4375 -0.65625q-0.859375 0 -1.453125 0.65625q-0.578125 0.65625 -0.578125 1.890625zm15.5859375 4.15625l-2.203125 0l0 -4.234375q0 -1.34375 -0.140625 -1.734375q-0.140625 -0.40625 -0.453125 -0.625q-0.3125 -0.21875 -0.765625 -0.21875q-0.5625 0 -1.015625 0.3125q-0.453125 0.3125 -0.625 0.828125q-0.171875 0.515625 -0.171875 1.90625l0 3.765625l-2.1875 0l0 -8.296875l2.03125 0l0 1.21875q1.09375 -1.40625 2.734375 -1.40625q0.734375 0 1.328125 0.265625q0.609375 0.25 0.90625 0.65625q0.3125 0.40625 0.4375 0.921875q0.125 0.515625 0.125 1.484375l0 5.15625zm6.0234375 -8.296875l0 1.75l-1.5 0l0 3.34375q0 1.015625 0.046875 1.1875q0.046875 0.15625 0.1875 0.265625q0.15625 0.109375 0.375 0.109375q0.3125 0 0.890625 -0.203125l0.1875 1.703125q-0.765625 0.328125 -1.734375 0.328125q-0.59375 0 -1.078125 -0.203125q-0.46875 -0.203125 -0.703125 -0.515625q-0.21875 -0.3125 -0.296875 -0.859375q-0.078125 -0.375 -0.078125 -1.546875l0 -3.609375l-1.0 0l0 -1.75l1.0 0l0 -1.65625l2.203125 -1.28125l0 2.9375l1.5 0zm3.625 8.296875l-2.1875 0l0 -8.296875l2.03125 0l0 1.171875q0.53125 -0.828125 0.9375 -1.09375q0.421875 -0.265625 0.953125 -0.265625q0.75 0 1.453125 0.40625l-0.6875 1.921875q-0.546875 -0.359375 -1.03125 -0.359375q-0.453125 0 -0.78125 0.25q-0.3125 0.25 -0.5 0.921875q-0.1875 0.65625 -0.1875 2.78125l0 2.5625zm3.6171875 -4.265625q0 -1.09375 0.53125 -2.109375q0.546875 -1.03125 1.53125 -1.5625q1.0 -0.546875 2.21875 -0.546875q1.875 0 3.078125 1.21875q1.203125 1.21875 1.203125 3.09375q0 1.875 -1.21875 3.125q-1.203125 1.234375 -3.046875 1.234375q-1.140625 0 -2.1875 -0.515625q-1.03125 -0.515625 -1.578125 -1.515625q-0.53125 -1.0 -0.53125 -2.421875zm2.25 0.109375q0 1.234375 0.578125 1.890625q0.59375 0.65625 1.453125 0.65625q0.859375 0 1.4375 -0.65625q0.59375 -0.65625 0.59375 -1.90625q0 -1.21875 -0.59375 -1.875q-0.578125 -0.65625 -1.4375 -0.65625q-0.859375 0 -1.453125 0.65625q-0.578125 0.65625 -0.578125 1.890625zm8.0390625 4.15625l0 -11.453125l2.1875 0l0 11.453125l-2.1875 0zm11.171875 0l-3.34375 -8.296875l2.296875 0l1.5625 4.234375l0.453125 1.40625q0.1875 -0.53125 0.234375 -0.703125q0.109375 -0.359375 0.234375 -0.703125l1.578125 -4.234375l2.25 0l-3.296875 8.296875l-1.96875 0zm8.2578125 -5.765625l-2.0 -0.359375q0.34375 -1.203125 1.15625 -1.78125q0.828125 -0.578125 2.4375 -0.578125q1.46875 0 2.1875 0.34375q0.71875 0.34375 1.015625 0.890625q0.296875 0.53125 0.296875 1.953125l-0.03125 2.5625q0 1.09375 0.109375 1.625q0.109375 0.515625 0.390625 1.109375l-2.171875 0q-0.078125 -0.21875 -0.203125 -0.65625q-0.0625 -0.1875 -0.078125 -0.25q-0.5625 0.546875 -1.203125 0.828125q-0.640625 0.265625 -1.375 0.265625q-1.28125 0 -2.015625 -0.6875q-0.734375 -0.703125 -0.734375 -1.765625q0 -0.703125 0.328125 -1.25q0.34375 -0.5625 0.9375 -0.84375q0.609375 -0.296875 1.75 -0.515625q1.546875 -0.296875 2.140625 -0.546875l0 -0.21875q0 -0.625 -0.3125 -0.890625q-0.3125 -0.28125 -1.1875 -0.28125q-0.578125 0 -0.90625 0.234375q-0.328125 0.234375 -0.53125 0.8125zm2.9375 1.78125q-0.421875 0.140625 -1.34375 0.34375q-0.90625 0.1875 -1.1875 0.375q-0.4375 0.296875 -0.4375 0.765625q0 0.46875 0.34375 0.8125q0.34375 0.328125 0.875 0.328125q0.59375 0 1.140625 -0.390625q0.390625 -0.296875 0.515625 -0.734375q0.09375 -0.28125 0.09375 -1.0625l0 -0.4375zm6.4140625 3.984375l-2.1875 0l0 -8.296875l2.03125 0l0 1.171875q0.53125 -0.828125 0.9375 -1.09375q0.421875 -0.265625 0.953125 -0.265625q0.75 0 1.453125 0.40625l-0.6875 1.921875q-0.546875 -0.359375 -1.03125 -0.359375q-0.453125 0 -0.78125 0.25q-0.3125 0.25 -0.5 0.921875q-0.1875 0.65625 -0.1875 2.78125l0 2.5625zm4.1328125 -9.421875l0 -2.03125l2.1875 0l0 2.03125l-2.1875 0zm0 9.421875l0 -8.296875l2.1875 0l0 8.296875l-2.1875 0zm6.0859375 -5.765625l-2.0 -0.359375q0.34375 -1.203125 1.15625 -1.78125q0.828125 -0.578125 2.4375 -0.578125q1.46875 0 2.1875 0.34375q0.71875 0.34375 1.015625 0.890625q0.296875 0.53125 0.296875 1.953125l-0.03125 2.5625q0 1.09375 0.109375 1.625q0.109375 0.515625 0.390625 1.109375l-2.171875 0q-0.078125 -0.21875 -0.203125 -0.65625q-0.0625 -0.1875 -0.078125 -0.25q-0.5625 0.546875 -1.203125 0.828125q-0.640625 0.265625 -1.375 0.265625q-1.28125 0 -2.015625 -0.6875q-0.734375 -0.703125 -0.734375 -1.765625q0 -0.703125 0.328125 -1.25q0.34375 -0.5625 0.9375 -0.84375q0.609375 -0.296875 1.75 -0.515625q1.546875 -0.296875 2.140625 -0.546875l0 -0.21875q0 -0.625 -0.3125 -0.890625q-0.3125 -0.28125 -1.1875 -0.28125q-0.578125 0 -0.90625 0.234375q-0.328125 0.234375 -0.53125 0.8125zm2.9375 1.78125q-0.421875 0.140625 -1.34375 0.34375q-0.90625 0.1875 -1.1875 0.375q-0.4375 0.296875 -0.4375 0.765625q0 0.46875 0.34375 0.8125q0.34375 0.328125 0.875 0.328125q0.59375 0 1.140625 -0.390625q0.390625 -0.296875 0.515625 -0.734375q0.09375 -0.28125 0.09375 -1.0625l0 -0.4375zm4.2265625 3.984375l0 -11.453125l2.1875 0l0 4.125q1.015625 -1.15625 2.40625 -1.15625q1.515625 0 2.5 1.09375q1.0 1.09375 1.0 3.15625q0 2.125 -1.015625 3.28125q-1.0 1.140625 -2.453125 1.140625q-0.703125 0 -1.40625 -0.359375q-0.6875 -0.359375 -1.1875 -1.046875l0 1.21875l-2.03125 0zm2.171875 -4.328125q0 1.28125 0.40625 1.90625q0.578125 0.875 1.515625 0.875q0.734375 0 1.234375 -0.625q0.515625 -0.625 0.515625 -1.953125q0 -1.421875 -0.515625 -2.046875q-0.515625 -0.640625 -1.3125 -0.640625q-0.796875 0 -1.328125 0.625q-0.515625 0.609375 -0.515625 1.859375zm7.6953125 4.328125l0 -11.453125l2.1875 0l0 11.453125l-2.1875 0zm9.2421875 -2.640625l2.1875 0.359375q-0.421875 1.203125 -1.328125 1.84375q-0.90625 0.625 -2.28125 0.625q-2.15625 0 -3.203125 -1.421875q-0.8125 -1.125 -0.8125 -2.859375q0 -2.0625 1.078125 -3.21875q1.078125 -1.171875 2.71875 -1.171875q1.859375 0 2.921875 1.21875q1.078125 1.21875 1.03125 3.75l-5.5 0q0.015625 0.96875 0.515625 1.515625q0.515625 0.546875 1.28125 0.546875q0.515625 0 0.859375 -0.28125q0.359375 -0.28125 0.53125 -0.90625zm0.125 -2.21875q-0.015625 -0.953125 -0.484375 -1.453125q-0.46875 -0.5 -1.140625 -0.5q-0.71875 0 -1.1875 0.53125q-0.46875 0.515625 -0.46875 1.421875l3.28125 0z" fill-rule="nonzero"/><path fill="#000000" fill-opacity="0.0" d="m227.81104 56.35958l0 42.425194" fill-rule="evenodd"/><path stroke="#d9d9d9" stroke-width="2.0" stroke-linejoin="round" stroke-linecap="butt" d="m227.81105 56.35958l0 30.425194" fill-rule="evenodd"/><path fill="#d9d9d9" stroke="#d9d9d9" stroke-width="2.0" stroke-linecap="butt" d="m224.50758 86.784775l3.3034668 9.076195l3.3034515 -9.076195z" fill-rule="evenodd"/><path fill="#cfe2f3" d="m163.93706 423.6404l128.53545 0l0 39.590546l-128.53545 0z" fill-rule="evenodd"/><path stroke="#3c78d8" stroke-width="2.0" stroke-linejoin="round" stroke-linecap="butt" d="m163.93706 423.6404l128.53545 0l0 39.590546l-128.53545 0z" fill-rule="evenodd"/><path fill="#000000" d="m203.26337 443.45193l-2.171875 0.390625q-0.109375 -0.65625 -0.5 -0.984375q-0.375 -0.328125 -1.0 -0.328125q-0.8125 0 -1.3125 0.578125q-0.484375 0.5625 -0.484375 1.890625q0 1.46875 0.5 2.078125q0.5 0.609375 1.328125 0.609375q0.625 0 1.015625 -0.34375q0.40625 -0.359375 0.578125 -1.234375l2.15625 0.375q-0.34375 1.484375 -1.296875 2.25q-0.953125 0.75 -2.546875 0.75q-1.828125 0 -2.90625 -1.140625q-1.078125 -1.15625 -1.078125 -3.1875q0 -2.0625 1.078125 -3.203125q1.09375 -1.140625 2.9375 -1.140625q1.515625 0 2.40625 0.65625q0.90625 0.640625 1.296875 1.984375zm1.1484375 1.578125q0 -1.09375 0.53125 -2.109375q0.546875 -1.03125 1.53125 -1.5625q1.0 -0.546875 2.21875 -0.546875q1.875 0 3.078125 1.21875q1.203125 1.21875 1.203125 3.09375q0 1.875 -1.21875 3.125q-1.203125 1.234375 -3.046875 1.234375q-1.140625 0 -2.1875 -0.515625q-1.03125 -0.515625 -1.578125 -1.515625q-0.53125 -1.0 -0.53125 -2.421875zm2.25 0.109375q0 1.234375 0.578125 1.890625q0.59375 0.65625 1.453125 0.65625q0.859375 0 1.4375 -0.65625q0.59375 -0.65625 0.59375 -1.90625q0 -1.21875 -0.59375 -1.875q-0.578125 -0.65625 -1.4375 -0.65625q-0.859375 0 -1.453125 0.65625q-0.578125 0.65625 -0.578125 1.890625zm15.5859375 4.15625l-2.203125 0l0 -4.234375q0 -1.34375 -0.140625 -1.734375q-0.140625 -0.40625 -0.453125 -0.625q-0.3125 -0.21875 -0.765625 -0.21875q-0.5625 0 -1.015625 0.3125q-0.453125 0.3125 -0.625 0.828125q-0.171875 0.515625 -0.171875 1.90625l0 3.765625l-2.1875 0l0 -8.296875l2.03125 0l0 1.21875q1.09375 -1.40625 2.734375 -1.40625q0.734375 0 1.328125 0.265625q0.609375 0.25 0.90625 0.65625q0.3125 0.40625 0.4375 0.921875q0.125 0.515625 0.125 1.484375l0 5.15625zm6.0234375 -8.296875l0 1.75l-1.5 0l0 3.34375q0 1.015625 0.046875 1.1875q0.046875 0.15625 0.1875 0.265625q0.15625 0.109375 0.375 0.109375q0.3125 0 0.890625 -0.203125l0.1875 1.703125q-0.765625 0.328125 -1.734375 0.328125q-0.59375 0 -1.078125 -0.203125q-0.46875 -0.203125 -0.703125 -0.515625q-0.21875 -0.3125 -0.296875 -0.859375q-0.078125 -0.375 -0.078125 -1.546875l0 -3.609375l-1.0 0l0 -1.75l1.0 0l0 -1.65625l2.203125 -1.28125l0 2.9375l1.5 0zm1.53125 -1.125l0 -2.03125l2.1875 0l0 2.03125l-2.1875 0zm0 9.421875l0 -8.296875l2.1875 0l0 8.296875l-2.1875 0zm11.9921875 0l-2.203125 0l0 -4.234375q0 -1.34375 -0.140625 -1.734375q-0.140625 -0.40625 -0.453125 -0.625q-0.3125 -0.21875 -0.765625 -0.21875q-0.5625 0 -1.015625 0.3125q-0.453125 0.3125 -0.625 0.828125q-0.171875 0.515625 -0.171875 1.90625l0 3.765625l-2.1875 0l0 -8.296875l2.03125 0l0 1.21875q1.09375 -1.40625 2.734375 -1.40625q0.734375 0 1.328125 0.265625q0.609375 0.25 0.90625 0.65625q0.3125 0.40625 0.4375 0.921875q0.125 0.515625 0.125 1.484375l0 5.15625zm7.6796875 0l0 -1.25q-0.453125 0.671875 -1.1875 1.0625q-0.734375 0.375 -1.5625 0.375q-0.828125 0 -1.5 -0.359375q-0.65625 -0.375 -0.953125 -1.03125q-0.296875 -0.671875 -0.296875 -1.84375l0 -5.25l2.1875 0l0 3.8125q0 1.75 0.125 2.140625q0.125 0.390625 0.4375 0.625q0.328125 0.234375 0.8125 0.234375q0.5625 0 1.0 -0.3125q0.453125 -0.3125 0.609375 -0.765625q0.171875 -0.453125 0.171875 -2.234375l0 -3.5l2.203125 0l0 8.296875l-2.046875 0zm9.1171875 -2.640625l2.1875 0.359375q-0.421875 1.203125 -1.328125 1.84375q-0.90625 0.625 -2.28125 0.625q-2.15625 0 -3.203125 -1.421875q-0.8125 -1.125 -0.8125 -2.859375q0 -2.0625 1.078125 -3.21875q1.078125 -1.171875 2.71875 -1.171875q1.859375 0 2.921875 1.21875q1.078125 1.21875 1.03125 3.75l-5.5 0q0.015625 0.96875 0.515625 1.515625q0.515625 0.546875 1.28125 0.546875q0.515625 0 0.859375 -0.28125q0.359375 -0.28125 0.53125 -0.90625zm0.125 -2.21875q-0.015625 -0.953125 -0.484375 -1.453125q-0.46875 -0.5 -1.140625 -0.5q-0.71875 0 -1.1875 0.53125q-0.46875 0.515625 -0.46875 1.421875l3.28125 0z" fill-rule="nonzero"/><path fill="#000000" fill-opacity="0.0" d="m353.0862 228.09206l24.999878 0l0 215.33858l-85.5983 0" fill-rule="evenodd"/><path stroke="#cc0000" stroke-width="2.0" stroke-linejoin="round" stroke-linecap="butt" stroke-dasharray="16.0,6.0" d="m353.0862 228.09204l24.999878 0l0 215.33862l-73.5983 0" fill-rule="evenodd"/><path fill="#cc0000" stroke="#cc0000" stroke-width="2.0" stroke-linecap="butt" d="m304.4878 440.1272l-9.076202 3.3034668l9.076202 3.3034668z" fill-rule="evenodd"/><g filter="url(#shadowFilter-p.1)"><use xlink:href="#p.1" transform="matrix(1.0 0.0 0.0 1.0 0.0 2.0)"/></g><defs><filter id="shadowFilter-p.1" filterUnits="userSpaceOnUse"><feGaussianBlur in="SourceAlpha" stdDeviation="2.0" result="blur"/><feComponentTransfer in="blur" color-interpolation-filters="sRGB"><feFuncR type="linear" slope="0" intercept="0.0"/><feFuncG type="linear" slope="0" intercept="0.0"/><feFuncB type="linear" slope="0" intercept="0.0"/><feFuncA type="linear" slope="0.5" intercept="0"/></feComponentTransfer></filter></defs><g id="p.1"><path fill="#e69138" d="m170.0315 228.74518l34.850403 -34.850403l0 17.425201l75.38583 0l0 34.850388l-75.38583 0l0 17.425217z" fill-rule="evenodd"/><path stroke="#b45f06" stroke-width="2.0" stroke-linejoin="round" stroke-linecap="butt" d="m170.0315 228.74518l34.850403 -34.850403l0 17.425201l75.38583 0l0 34.850388l-75.38583 0l0 17.425217z" fill-rule="evenodd"/><path fill="#990000" d="m222.89201 228.85268l-2.53125 0.453125q-0.125 -0.75 -0.578125 -1.125q-0.453125 -0.390625 -1.171875 -0.390625q-0.953125 0 -1.53125 0.65625q-0.5625 0.65625 -0.5625 2.203125q0 1.734375 0.578125 2.4375q0.578125 0.703125 1.546875 0.703125q0.734375 0 1.203125 -0.40625q0.46875 -0.421875 0.65625 -1.421875l2.515625 0.421875q-0.390625 1.734375 -1.515625 2.625q-1.109375 0.875 -2.96875 0.875q-2.125 0 -3.390625 -1.328125q-1.25 -1.34375 -1.25 -3.71875q0 -2.390625 1.265625 -3.71875q1.265625 -1.34375 3.421875 -1.34375q1.765625 0 2.796875 0.765625q1.046875 0.75 1.515625 2.3125zm3.8444672 0.09375l-2.328125 -0.421875q0.40625 -1.40625 1.359375 -2.078125q0.953125 -0.671875 2.84375 -0.671875q1.703125 0 2.546875 0.40625q0.84375 0.40625 1.171875 1.03125q0.34375 0.625 0.34375 2.28125l-0.015625 3.0q0 1.265625 0.109375 1.875q0.125 0.609375 0.46875 1.296875l-2.53125 0q-0.109375 -0.25 -0.25 -0.75q-0.0625 -0.234375 -0.09375 -0.3125q-0.65625 0.640625 -1.40625 0.96875q-0.734375 0.3125 -1.59375 0.3125q-1.484375 0 -2.34375 -0.8125q-0.859375 -0.8125 -0.859375 -2.046875q0 -0.828125 0.390625 -1.46875q0.390625 -0.640625 1.09375 -0.96875q0.703125 -0.34375 2.03125 -0.609375q1.796875 -0.328125 2.484375 -0.625l0 -0.25q0 -0.75 -0.359375 -1.0625q-0.359375 -0.3125 -1.375 -0.3125q-0.6875 0 -1.078125 0.28125q-0.375 0.265625 -0.609375 0.9375zm3.421875 2.078125q-0.484375 0.15625 -1.5625 0.390625q-1.0625 0.21875 -1.390625 0.4375q-0.5 0.359375 -0.5 0.90625q0 0.53125 0.40625 0.9375q0.40625 0.390625 1.015625 0.390625q0.703125 0 1.328125 -0.46875q0.46875 -0.34375 0.609375 -0.84375q0.09375 -0.328125 0.09375 -1.25l0 -0.5zm4.141342 1.875l2.5625 -0.390625q0.171875 0.75 0.671875 1.140625q0.5 0.390625 1.40625 0.390625q0.984375 0 1.484375 -0.375q0.34375 -0.25 0.34375 -0.671875q0 -0.296875 -0.1875 -0.484375q-0.1875 -0.1875 -0.859375 -0.34375q-3.09375 -0.6875 -3.921875 -1.25q-1.140625 -0.78125 -1.140625 -2.171875q0 -1.265625 0.984375 -2.109375q1.0 -0.859375 3.078125 -0.859375q1.984375 0 2.953125 0.65625q0.96875 0.640625 1.328125 1.90625l-2.40625 0.4375q-0.15625 -0.5625 -0.59375 -0.859375q-0.421875 -0.296875 -1.234375 -0.296875q-1.0 0 -1.4375 0.28125q-0.296875 0.203125 -0.296875 0.515625q0 0.265625 0.25 0.46875q0.34375 0.25 2.390625 0.71875q2.046875 0.453125 2.859375 1.140625q0.796875 0.671875 0.796875 1.890625q0 1.34375 -1.109375 2.296875q-1.109375 0.953125 -3.28125 0.953125q-1.984375 0 -3.140625 -0.796875q-1.140625 -0.8125 -1.5 -2.1875zm16.875717 -0.3125l2.546875 0.421875q-0.484375 1.40625 -1.546875 2.140625q-1.0625 0.734375 -2.65625 0.734375q-2.515625 0 -3.734375 -1.65625q-0.953125 -1.3125 -0.953125 -3.328125q0 -2.40625 1.25 -3.765625q1.265625 -1.359375 3.1875 -1.359375q2.15625 0 3.40625 1.421875q1.25 1.421875 1.1875 4.375l-6.40625 0q0.03125 1.140625 0.609375 1.78125q0.59375 0.625 1.484375 0.625q0.59375 0 1.0 -0.328125q0.421875 -0.328125 0.625 -1.0625zm0.15625 -2.59375q-0.03125 -1.109375 -0.578125 -1.6875q-0.546875 -0.578125 -1.328125 -0.578125q-0.84375 0 -1.390625 0.609375q-0.546875 0.609375 -0.53125 1.65625l3.828125 0z" fill-rule="nonzero"/></g><path fill="#000000" fill-opacity="0.0" d="m99.92323 232.73389l-25.00032 0l0 210.70868l89.00032 0" fill-rule="evenodd"/><path stroke="#6aa84f" stroke-width="2.0" stroke-linejoin="round" stroke-linecap="butt" d="m99.923225 232.73389l-25.000313 0l0 210.70865l77.00032 0" fill-rule="evenodd"/><path fill="#6aa84f" stroke="#6aa84f" stroke-width="2.0" stroke-linecap="butt" d="m151.92323 446.746l9.076187 -3.3034668l-9.076187 -3.3034668z" fill-rule="evenodd"/><path fill="#000000" fill-opacity="0.0" d="m157.48985 323.42786l0 50.10623l70.70865 0l0 50.114258" fill-rule="evenodd"/><path stroke="#6aa84f" stroke-width="2.0" stroke-linejoin="round" stroke-linecap="butt" stroke-dasharray="8.0,6.0" d="m157.48985 323.42786l0 50.10623l70.70865 0l0 50.114258" fill-rule="evenodd"/><path fill="#000000" fill-opacity="0.0" d="m227.82428 351.51755l0 36.061554l0.3779602 0l0 36.064423" fill-rule="evenodd"/><path stroke="#6aa84f" stroke-width="2.0" stroke-linejoin="round" stroke-linecap="butt" stroke-dasharray="8.0,6.0" d="m227.8243 351.51755l0 36.061554l0.37794495 0l0 24.064423" fill-rule="evenodd"/><path fill="#6aa84f" stroke="#6aa84f" stroke-width="2.0" stroke-linecap="butt" d="m224.89877 411.64352l3.3034668 9.076202l3.3034668 -9.076202z" fill-rule="evenodd"/><path fill="#000000" fill-opacity="0.0" d="m301.26196 318.97815l0 52.33069l-73.07088 0l0 52.33072" fill-rule="evenodd"/><path stroke="#6aa84f" stroke-width="2.0" stroke-linejoin="round" stroke-linecap="butt" stroke-dasharray="8.0,6.0" d="m301.26196 318.97815l0 52.33069l-73.07088 0l0 52.33072" fill-rule="evenodd"/><path fill="#000000" fill-opacity="0.0" d="m354.3385 116.502106l-25.35434 87.9055" fill-rule="evenodd"/><path stroke="#ff0000" stroke-width="2.0" stroke-linejoin="round" stroke-linecap="butt" d="m354.3385 116.5021l-22.028778 76.37554" fill-rule="evenodd"/><path fill="#ff0000" stroke="#ff0000" stroke-width="2.0" stroke-linecap="butt" d="m329.13565 191.96214l0.65878296 9.6362l5.6893616 -7.8052216z" fill-rule="evenodd"/><path fill="#000000" fill-opacity="0.0" d="m309.37787 82.1084l89.921265 0l0 34.393707l-89.921265 0z" fill-rule="evenodd"/><path fill="#f4cccc" d="m336.88147 106.4684l-2.046875 0l0 -1.21875q-0.5 0.703125 -1.203125 1.0625q-0.6875 0.34375 -1.390625 0.34375q-1.421875 0 -2.453125 -1.15625q-1.015625 -1.15625 -1.015625 -3.21875q0 -2.109375 0.984375 -3.203125q1.0 -1.09375 2.515625 -1.09375q1.390625 0 2.40625 1.15625l0 -4.125l2.203125 0l0 11.453125zm-5.859375 -4.328125q0 1.328125 0.359375 1.921875q0.53125 0.859375 1.484375 0.859375q0.765625 0 1.296875 -0.640625q0.53125 -0.65625 0.53125 -1.9375q0 -1.421875 -0.515625 -2.046875q-0.515625 -0.640625 -1.328125 -0.640625q-0.78125 0 -1.3125 0.625q-0.515625 0.625 -0.515625 1.859375zm12.8203125 1.6875l2.1875 0.359375q-0.421875 1.203125 -1.328125 1.84375q-0.90625 0.625 -2.28125 0.625q-2.15625 0 -3.203125 -1.421875q-0.8125 -1.125 -0.8125 -2.859375q0 -2.0625 1.078125 -3.21875q1.078125 -1.171875 2.71875 -1.171875q1.859375 0 2.921875 1.21875q1.078125 1.21875 1.03125 3.75l-5.5 0q0.015625 0.96875 0.515625 1.515625q0.515625 0.546875 1.28125 0.546875q0.515625 0 0.859375 -0.28125q0.359375 -0.28125 0.53125 -0.90625zm0.125 -2.21875q-0.015625 -0.953125 -0.484375 -1.453125q-0.46875 -0.5 -1.140625 -0.5q-0.71875 0 -1.1875 0.53125q-0.46875 0.515625 -0.46875 1.421875l3.28125 0zm3.0078125 -3.4375l1.21875 0l0 -0.625q0 -1.046875 0.21875 -1.5625q0.234375 -0.515625 0.828125 -0.84375q0.59375 -0.328125 1.515625 -0.328125q0.9375 0 1.828125 0.28125l-0.296875 1.53125q-0.515625 -0.125 -1.0 -0.125q-0.484375 0 -0.6875 0.234375q-0.203125 0.21875 -0.203125 0.84375l0 0.59375l1.640625 0l0 1.71875l-1.640625 0l0 6.578125l-2.203125 0l0 -6.578125l-1.21875 0l0 -1.71875zm7.9375 2.53125l-2.0 -0.359375q0.34375 -1.203125 1.15625 -1.78125q0.828125 -0.578125 2.4375 -0.578125q1.46875 0 2.1875 0.34375q0.71875 0.34375 1.015625 0.890625q0.296875 0.53125 0.296875 1.953125l-0.03125 2.5625q0 1.09375 0.109375 1.625q0.109375 0.515625 0.390625 1.109375l-2.171875 0q-0.078125 -0.21875 -0.203125 -0.65625q-0.0625 -0.1875 -0.078125 -0.25q-0.5625 0.546875 -1.203125 0.828125q-0.640625 0.265625 -1.375 0.265625q-1.28125 0 -2.015625 -0.6875q-0.734375 -0.703125 -0.734375 -1.765625q0 -0.703125 0.328125 -1.25q0.34375 -0.5625 0.9375 -0.84375q0.609375 -0.296875 1.75 -0.515625q1.546875 -0.296875 2.140625 -0.546875l0 -0.21875q0 -0.625 -0.3125 -0.890625q-0.3125 -0.28125 -1.1875 -0.28125q-0.578125 0 -0.90625 0.234375q-0.328125 0.234375 -0.53125 0.8125zm2.9375 1.78125q-0.421875 0.140625 -1.34375 0.34375q-0.90625 0.1875 -1.1875 0.375q-0.4375 0.296875 -0.4375 0.765625q0 0.46875 0.34375 0.8125q0.34375 0.328125 0.875 0.328125q0.59375 0 1.140625 -0.390625q0.390625 -0.296875 0.515625 -0.734375q0.09375 -0.28125 0.09375 -1.0625l0 -0.4375zm9.7734375 3.984375l0 -1.25q-0.453125 0.671875 -1.1875 1.0625q-0.734375 0.375 -1.5625 0.375q-0.828125 0 -1.5 -0.359375q-0.65625 -0.375 -0.953125 -1.03125q-0.296875 -0.671875 -0.296875 -1.84375l0 -5.25l2.1875 0l0 3.8125q0 1.75 0.125 2.140625q0.125 0.390625 0.4375 0.625q0.328125 0.234375 0.8125 0.234375q0.5625 0 1.0 -0.3125q0.453125 -0.3125 0.609375 -0.765625q0.171875 -0.453125 0.171875 -2.234375l0 -3.5l2.203125 0l0 8.296875l-2.046875 0zm4.3203125 0l0 -11.453125l2.1875 0l0 11.453125l-2.1875 0zm8.2421875 -8.296875l0 1.75l-1.5 0l0 3.34375q0 1.015625 0.046875 1.1875q0.046875 0.15625 0.1875 0.265625q0.15625 0.109375 0.375 0.109375q0.3125 0 0.890625 -0.203125l0.1875 1.703125q-0.765625 0.328125 -1.734375 0.328125q-0.59375 0 -1.078125 -0.203125q-0.46875 -0.203125 -0.703125 -0.515625q-0.21875 -0.3125 -0.296875 -0.859375q-0.078125 -0.375 -0.078125 -1.546875l0 -3.609375l-1.0 0l0 -1.75l1.0 0l0 -1.65625l2.203125 -1.28125l0 2.9375l1.5 0z" fill-rule="nonzero"/></g></svg>