<svg version="1.1" viewBox="0.0 0.0 708.9107611548557 290.6430446194226" fill="none" stroke="none" stroke-linecap="square" stroke-miterlimit="10" xmlns:xlink="http://www.w3.org/1999/xlink" xmlns="http://www.w3.org/2000/svg"><clipPath id="p.0"><path d="m0 0l708.91077 0l0 290.64304l-708.91077 0l0 -290.64304z" clip-rule="nonzero"/></clipPath><g clip-path="url(#p.0)"><path fill="#000000" fill-opacity="0.0" d="m0 0l708.91077 0l0 290.64304l-708.91077 0z" fill-rule="evenodd"/><path fill="#434343" d="m-1.1732284 -0.46981627l710.07874 0l0 290.64566l-710.07874 0z" fill-rule="evenodd"/><path fill="#ffe599" d="m25.984291 204.71355l0 28.143768l2.7604809 0l0 -11.153839c0 -1.5998077 0.15336037 -2.8540497 0.4600811 -3.762741c0.30671883 -0.9086914 0.8196163 -1.627533 1.5387115 -2.15654c0.7224903 -0.53326416 1.4927063 -0.79989624 2.3106232 -0.79989624c1.0939713 0 1.939148 0.39460754 2.535553 1.1838531c0.5998039 0.78497314 0.8997154 2.0413513 0.8997154 3.7691345l0 12.920029l2.760479 0l0 -12.920029c0 -1.9965515 -0.19255829 -3.519577 -0.5776558 -4.569046c-0.38170242 -1.049469 -1.0172882 -1.870697 -1.9067764 -2.4636993c-0.8894882 -0.5972595 -1.9374504 -0.8958893 -3.1438828 -0.8958893c-1.963007 0 -3.588623 0.93429565 -4.876848 2.8028564l0 -10.097961z" fill-rule="evenodd"/><path fill="#ffe599" d="m46.70323 205.34706l-2.745144 2.073349l0 5.0489807l-2.024353 0l0 2.687683l2.024353 0l0 11.729767c0 2.073349 0.112464905 3.4342499 0.3373947 4.0827026c0.224926 0.6441803 0.61343765 1.1646576 1.165535 1.5614014c0.5520973 0.39675903 1.3291206 0.59513855 2.3310738 0.59513855c0.61343765 0 1.30867 -0.10240173 2.0856934 -0.30717468l-0.39873505 -3.0524292c-0.50097656 0.08959961 -0.9048233 0.13438416 -1.211544 0.13438416c-0.40895844 0 -0.724205 -0.08319092 -0.9457207 -0.2495575c-0.21811676 -0.16638184 -0.37659073 -0.3903656 -0.47541428 -0.6719208c-0.09543228 -0.28157043 -0.14313889 -0.91508484 -0.14313889 -1.9005737l0 -11.921738l2.7758179 0l0 -2.687683l-2.7758179 0l0 -7.1223297z" fill-rule="evenodd"/><path fill="#ffe599" d="m55.42942 205.34706l-2.745144 2.073349l0 5.0489807l-2.024353 0l0 2.687683l2.024353 0l0 11.729767c0 2.073349 0.11246109 3.4342499 0.3373909 4.0827026c0.22492981 0.6441803 0.61344147 1.1646576 1.165535 1.5614014c0.5520973 0.39675903 1.3291206 0.59513855 2.3310738 0.59513855c0.61344147 0 1.3086739 -0.10240173 2.0856972 -0.30717468l-0.39873505 -3.0524292c-0.50097656 0.08959961 -0.9048271 0.13438416 -1.211544 0.13438416c-0.40896225 0 -0.72420883 -0.08319092 -0.9457207 -0.2495575c-0.21812057 -0.16638184 -0.37659073 -0.3903656 -0.4754181 -0.6719208c-0.09542847 -0.28157043 -0.14313507 -0.91508484 -0.14313507 -1.9005737l0 -11.921738l2.7758179 0l0 -2.687683l-2.7758179 0l0 -7.1223297z" fill-rule="evenodd"/><path fill="#ffe599" d="m67.882256 214.71553c1.1859818 0 2.2049713 0.6463165 3.0569763 1.9389496c0.8554001 1.2926483 1.2831116 3.2380066 1.2831116 5.83609c0 2.7260742 -0.43793488 4.739685 -1.3137817 6.040863c-0.8724594 1.2969055 -1.9221115 1.9453735 -3.1489944 1.9453735c-1.2064285 0 -2.2339401 -0.62713623 -3.0825348 -1.8813782c-0.84859467 -1.254242 -1.2728882 -3.1932068 -1.2728882 -5.8168945c0 -2.6236725 0.45155334 -4.62236 1.3546753 -5.996063c0.90652466 -1.3779602 1.9476776 -2.0669403 3.123436 -2.0669403zm0.26071167 -2.7068787c-1.0632935 0 -1.9681168 0.26023865 -2.71447 0.7807007c-0.74635315 0.51620483 -1.4160233 1.2926483 -2.009018 2.3293152l0 -2.6492767l-2.5151062 0l0 28.20137l2.7604828 0l0 -9.925201c0.4703064 0.7423096 1.0701065 1.3566437 1.7994232 1.8429871c0.7327118 0.48632812 1.5591583 0.72950745 2.4793243 0.72950745c1.2575455 0 2.455452 -0.4436798 3.5937347 -1.3310394c1.1416702 -0.8916321 2.0107117 -2.171463 2.6071167 -3.8395233c0.59980774 -1.6723328 0.8997116 -3.5515747 0.8997116 -5.637726c0 -1.9453583 -0.27093506 -3.7328644 -0.8128052 -5.3625336c-0.5418701 -1.6339417 -1.3444595 -2.8988495 -2.407753 -3.7947388c-1.0632935 -0.8958893 -2.2901764 -1.3438416 -3.6806412 -1.3438416z" fill-rule="evenodd"/><path fill="#ffe599" d="m83.72435 212.00865c-0.84859467 0 -1.644371 0.13865662 -2.3873062 0.4159546c-0.7395401 0.2730255 -1.3240051 0.6079254 -1.753418 1.0046692c-0.5725403 0.51194763 -1.0258102 1.1561279 -1.359787 1.9325714c-0.3305893 0.772171 -0.49586487 1.6125946 -0.49586487 2.521286c0 0.99827576 0.20106506 1.9112396 0.60321045 2.7388763c0.4055481 0.82336426 0.9985428 1.4696808 1.7789764 1.9389496c0.78383636 0.4650116 2.1879425 1.0174866 4.2122955 1.6574097c1.502922 0.47354126 2.4435349 0.8638916 2.8218231 1.171051c0.5418701 0.44795227 0.8128052 1.0622711 0.8128052 1.8429718c0 0.8703003 -0.30671692 1.6296692 -0.9201584 2.278122c-0.61344147 0.64419556 -1.5540466 0.96629333 -2.8218231 0.96629333c-1.2575531 0 -2.237358 -0.36476135 -2.9393997 -1.0942688c-0.69864655 -0.7295227 -1.1246414 -1.7789917 -1.2780075 -3.1484222l-2.729805 0.5375366c0.30671692 2.1629333 1.0138702 3.7947388 2.1214828 4.895401c1.1110001 1.1006622 2.7246933 1.651001 4.8410645 1.651001c1.2779999 0 2.423088 -0.27729797 3.4352646 -0.8318939c1.0121765 -0.5588684 1.7857819 -1.3459778 2.3208466 -2.3613129c0.5384598 -1.0196075 0.8077011 -2.1053467 0.8077011 -3.2572021c0 -1.1774597 -0.21981812 -2.1629333 -0.65945435 -2.9564514c-0.4396286 -0.7935028 -1.046257 -1.3971558 -1.81987 -1.8109741c-0.7702179 -0.41807556 -2.1317062 -0.95347595 -4.084488 -1.6062012c-1.3495712 -0.46073914 -2.1623764 -0.7551117 -2.4384232 -0.88308716c-0.4805298 -0.24317932 -0.8332596 -0.55033875 -1.0581894 -0.92149353c-0.22492218 -0.35835266 -0.33738708 -0.7615051 -0.33738708 -1.2094574c0 -0.7039032 0.27093506 -1.3182373 0.8128052 -1.8429718c0.5418701 -0.5247345 1.4466934 -0.7870941 2.71447 -0.7870941c1.0735245 0 1.9033661 0.2943573 2.4895477 0.88308716c0.5895767 0.58872986 0.94571686 1.4078217 1.0684052 2.4572906l2.6991425 -0.46073914c-0.17381287 -1.3182373 -0.49075317 -2.3698425 -0.9508362 -3.1548157c-0.46007538 -0.78923035 -1.1740646 -1.4142303 -2.1419296 -1.8749695c-0.9644699 -0.46073914 -2.0856934 -0.69111633 -3.3636932 -0.69111633z" fill-rule="evenodd"/><path fill="#ffe599" d="m94.84295 212.46939l0 3.9355316l3.1438828 0l0 -3.9355316zm0 16.452393l0 3.9355316l3.1438828 0l0 -3.9355316z" fill-rule="evenodd"/><path fill="#ffe599" d="m107.24978 204.2336l-6.5177994 29.103653l2.2237167 0l6.502472 -29.103653zm8.726189 0l-6.5177994 29.103653l2.2237167 0l6.5024643 -29.103653z" fill-rule="evenodd"/><path fill="#ffe599" d="m125.60698 212.00865c-0.84859467 0 -1.644371 0.13865662 -2.3873062 0.4159546c-0.7395401 0.2730255 -1.3240051 0.6079254 -1.753418 1.0046692c-0.5725403 0.51194763 -1.0258102 1.1561279 -1.3597946 1.9325714c-0.33058167 0.772171 -0.49585724 1.6125946 -0.49585724 2.521286c0 0.99827576 0.20106506 1.9112396 0.60321045 2.7388763c0.4055481 0.82336426 0.9985428 1.4696808 1.7789764 1.9389496c0.78383636 0.4650116 2.1879425 1.0174866 4.212288 1.6574097c1.5029297 0.47354126 2.4435425 0.8638916 2.8218231 1.171051c0.5418701 0.44795227 0.81282043 1.0622711 0.81282043 1.8429718c0 0.8703003 -0.30673218 1.6296692 -0.920166 2.278122c-0.61343384 0.64419556 -1.5540466 0.96629333 -2.8218231 0.96629333c-1.2575531 0 -2.2373657 -0.36476135 -2.9394073 -1.0942688c-0.69864655 -0.7295227 -1.1246338 -1.7789917 -1.2779999 -3.1484222l-2.729805 0.5375366c0.30671692 2.1629333 1.0138702 3.7947388 2.1214828 4.895401c1.1110001 1.1006622 2.7246933 1.651001 4.8410645 1.651001c1.2779999 0 2.4230804 -0.27729797 3.435257 -0.8318939c1.0121765 -0.5588684 1.7857971 -1.3459778 2.3208618 -2.3613129c0.53845215 -1.0196075 0.8076935 -2.1053467 0.8076935 -3.2572021c0 -1.1774597 -0.21981812 -2.1629333 -0.65945435 -2.9564514c-0.43963623 -0.7935028 -1.0462646 -1.3971558 -1.81987 -1.8109741c-0.7702179 -0.41807556 -2.1316986 -0.95347595 -4.084488 -1.6062012c-1.3495712 -0.46073914 -2.1623764 -0.7551117 -2.4384232 -0.88308716c-0.4805298 -0.24317932 -0.8332596 -0.55033875 -1.0581894 -0.92149353c-0.22492981 -0.35835266 -0.33738708 -0.7615051 -0.33738708 -1.2094574c0 -0.7039032 0.27093506 -1.3182373 0.8128052 -1.8429718c0.5418701 -0.5247345 1.4466934 -0.7870941 2.71447 -0.7870941c1.0735245 0 1.9033661 0.2943573 2.48954 0.88308716c0.58958435 0.58872986 0.9457245 1.4078217 1.0684204 2.4572906l2.6991272 -0.46073914c-0.1737976 -1.3182373 -0.49075317 -2.3698425 -0.9508209 -3.1548157c-0.460083 -0.78923035 -1.1740723 -1.4142303 -2.1419373 -1.8749695c-0.9644623 -0.46073914 -2.0856934 -0.69111633 -3.3636932 -0.69111633z" fill-rule="evenodd"/><path fill="#ffe599" d="m146.3566 222.62495l0 1.2670441c0 1.5230255 -0.1482544 2.674881 -0.44474792 3.4555817c-0.3885193 1.0110779 -0.99684143 1.8088531 -1.8249817 2.3933105c-0.8281555 0.5802002 -1.7738647 0.87028503 -2.8371735 0.87028503c-1.0735168 0 -1.88974 -0.30715942 -2.448639 -0.9214783c-0.5555115 -0.6143341 -0.83325195 -1.3822327 -0.83325195 -2.3037262c0 -0.6015167 0.12779236 -1.147583 0.38339233 -1.6381989c0.25559998 -0.49487305 0.61854553 -0.87028503 1.0888519 -1.1262512c0.4703064 -0.25598145 1.2728882 -0.48634338 2.4077606 -0.69111633c2.0039062 -0.35836792 3.506836 -0.7935028 4.508789 -1.3054504zm-3.5119476 -10.6163025c-1.4006958 0 -2.6326904 0.24104309 -3.695984 0.723114c-1.0632935 0.47781372 -1.8760986 1.1625214 -2.4384155 2.0541534c-0.56233215 0.8873596 -0.96617126 2.0541382 -1.2115479 3.5003662l2.6991272 0.46073914c0.2965088 -1.4462128 0.7531738 -2.4530334 1.3700256 -3.0204163c0.6202545 -0.57167053 1.5796051 -0.85749817 2.8780518 -0.85749817c1.3904724 0 2.4384308 0.39035034 3.1438904 1.171051c0.52142334 0.57592773 0.782135 1.56781 0.782135 2.9756317c0 0.12799072 -0.0051116943 0.4287567 -0.015335083 0.902298c-1.0530853 0.46073914 -2.6940308 0.85749817 -4.922867 1.1902466c-1.0939636 0.16638184 -1.9118805 0.3391571 -2.4537506 0.51834106c-0.73612976 0.2559662 -1.3990021 0.63352966 -1.9885712 1.1326599c-0.58618164 0.4991455 -1.0615997 1.1625214 -1.4262543 1.9901581c-0.36125183 0.82336426 -0.5418701 1.7341919 -0.5418701 2.7324677c0 1.7021942 0.4805298 3.1014862 1.4415894 4.197891c0.9610443 1.0921326 2.3361816 1.6381989 4.1253815 1.6381989c1.0837402 0 2.0976105 -0.2239685 3.0416412 -0.6719208c0.9474182 -0.447937 1.9323273 -1.2158508 2.9547272 -2.303711c0.08180237 0.9598694 0.26583862 1.798172 0.55210876 2.5148926l2.8831635 0c-0.34761047 -0.78071594 -0.58106995 -1.5955505 -0.7003479 -2.4445038c-0.115875244 -0.85324097 -0.1737976 -2.8860474 -0.1737976 -6.098465l0 -4.607437c0 -1.5358124 -0.046020508 -2.5980835 -0.138031 -3.186798c-0.16358948 -0.9470978 -0.44985962 -1.7299347 -0.8588104 -2.348526c-0.40896606 -0.6228485 -1.0479584 -1.1390533 -1.9170074 -1.5485992c-0.8690338 -0.40956116 -1.9987946 -0.6143341 -3.3892517 -0.6143341z" fill-rule="evenodd"/><path fill="#ffe599" d="m159.62224 214.86911c1.2473297 0 2.312317 0.6335144 3.194992 1.9005585c0.8860779 1.2670441 1.3291321 3.1484222 1.3291321 5.6441193c0 2.6108704 -0.42941284 4.5285034 -1.2882233 5.752899c-0.8588257 1.220108 -1.9221191 1.8301697 -3.1898956 1.8301697c-1.2779999 0 -2.3412933 -0.61431885 -3.1898956 -1.8429718c-0.84858704 -1.228653 -1.2728882 -3.18042 -1.2728882 -5.8552856c0 -2.457306 0.42941284 -4.3088074 1.2882385 -5.5545197c0.8588104 -1.2499847 1.9016571 -1.8749695 3.12854 -1.8749695zm-0.19937134 -2.8604584c-1.4415894 0 -2.6974335 0.44795227 -3.7675476 1.3438416c-1.0667114 0.8958893 -1.8812103 2.1672058 -2.4435272 3.8139343c-0.56233215 1.6424713 -0.8434906 3.4363708 -0.8434906 5.3817444c0 2.8284454 0.6134491 5.2537537 1.840332 7.2759094c1.2268677 2.0221558 2.9598389 3.0332336 5.1988983 3.0332336c1.7994232 0 3.302353 -0.88949585 4.508789 -2.6684875l0 0c0.010223389 2.252533 -0.056228638 3.7307587 -0.19937134 4.434662c-0.24537659 1.1518707 -0.715683 2.04776 -1.4109192 2.687683c-0.69522095 0.63990784 -1.681839 0.9598694 -2.9598389 0.9598694c-1.1859894 0 -2.1214905 -0.31996155 -2.806488 -0.9598694c-0.51119995 -0.47355652 -0.8230438 -1.228653 -0.9355011 -2.265335l-2.6838074 -0.49913025l0 0c-0.040893555 2.2013245 0.5367737 3.848053 1.7329712 4.9401855c1.1962128 1.096405 2.7655945 1.6446075 4.7081604 1.6446075c1.6358337 0 3.0126648 -0.3839569 4.130493 -1.1518555c1.1212311 -0.7679138 1.939148 -1.8152466 2.4537659 -3.1420288c0.5180054 -1.3224945 0.7770233 -3.570755 0.7770233 -6.744766l0 -17.623459l-2.5457764 0l0 2.457306c-1.2473297 -1.9453583 -2.8320465 -2.918045 -4.7541656 -2.918045z" fill-rule="evenodd"/><path fill="#ffe599" d="m177.61137 214.84991c1.4006805 0 2.5406647 0.6655121 3.4199219 1.9965515c0.5725403 0.85749817 0.920166 2.1437378 1.0428467 3.8587341l-9.094254 0c0.09202576 -1.7789917 0.5691376 -3.1996155 1.431366 -4.2618866c0.8656311 -1.0622711 1.9323425 -1.593399 3.200119 -1.593399zm-0.030670166 -2.8412628c-2.2492828 0 -4.0793915 0.9470825 -5.4902954 2.8412628c-1.4109192 1.894165 -2.1163635 4.556244 -2.1163635 7.9862213c0 3.3147888 0.69692993 5.8915405 2.090805 7.730255c1.3972778 1.8344421 3.2870178 2.7516632 5.6692047 2.7516632c1.891449 0 3.4454956 -0.57592773 4.662155 -1.7277832c1.2166443 -1.1518707 2.0499115 -2.770874 2.4997559 -4.85701l-2.8524933 -0.44154358c-0.41918945 1.4590149 -0.98661804 2.521286 -1.702301 3.186798c-0.7156677 0.66552734 -1.5796051 0.998291 -2.5917816 0.998291c-1.359787 0 -2.4946594 -0.59513855 -3.4045868 -1.7853851c-0.9099426 -1.1902618 -1.4160309 -2.905243 -1.5182648 -5.1449738l12.146118 0c0.010223389 -0.4095459 0.015335083 -0.7167206 0.015335083 -0.92149353c0 -3.365982 -0.6901245 -5.9768677 -2.0703583 -7.8326416c-1.380249 -1.8557739 -3.1592255 -2.783661 -5.3369293 -2.783661z" fill-rule="evenodd"/><path fill="#ffe599" d="m194.94106 212.00865c-1.4006958 0 -2.6974335 0.41381836 -3.8902283 1.2414551c-1.1893921 0.82336426 -2.0754852 2.0605469 -2.658249 3.7115479c-0.5827637 1.651001 -0.8741455 3.5771637 -0.8741455 5.778488c0 3.4043884 0.67648315 6.0195312 2.0294647 7.8454437c1.3563843 1.82164 3.1489868 2.7324677 5.377823 2.7324677c1.7789764 0 3.2785034 -0.6612549 4.4985657 -1.9837646c1.223465 -1.326767 1.9834442 -3.161209 2.279953 -5.5033264l-2.7144775 -0.44154358c-0.19425964 1.7277832 -0.65434265 3.0076294 -1.380249 3.8395386c-0.7258911 0.8318939 -1.630722 1.2478485 -2.7144623 1.2478485c-1.3495789 0 -2.4435425 -0.62072754 -3.2819061 -1.8621826c-0.83836365 -1.2414398 -1.2575531 -3.231598 -1.2575531 -5.9704742c0 -2.70047 0.43452454 -4.6735535 1.3035583 -5.9192657c0.8690338 -1.2499847 1.9987946 -1.8749695 3.3892517 -1.8749695c0.920166 0 1.70401 0.34555054 2.351532 1.0366669c0.6509247 0.69111633 1.104187 1.7213898 1.359787 3.0908203l2.6838074 -0.51834106c-0.31695557 -2.0605469 -1.0377502 -3.6496735 -2.162384 -4.7674103c-1.1246338 -1.121994 -2.5713348 -1.6829987 -4.340088 -1.6829987z" fill-rule="evenodd"/><path fill="#ffe599" d="m210.6758 214.86911c1.359787 0 2.4963684 0.650589 3.4096985 1.9517517c0.9167633 1.2969208 1.3751373 3.206009 1.3751373 5.72731c0 2.6748657 -0.4549713 4.665024 -1.364914 5.9704742c-0.90992737 1.3054352 -2.0499115 1.9581604 -3.4199219 1.9581604c-1.380249 0 -2.5253296 -0.648468 -3.4352722 -1.9453735c-0.90992737 -1.301178 -1.3648987 -3.2572021 -1.3648987 -5.8680725c0 -2.6108856 0.4549713 -4.5626526 1.3648987 -5.8552856c0.9099426 -1.2926483 2.0550232 -1.9389648 3.4352722 -1.9389648zm0 -2.8604584c-2.0141296 0 -3.7215424 0.7551117 -5.122223 2.2653198c-1.6767426 1.8173828 -2.5151062 4.613846 -2.5151062 8.389389c0 3.4427795 0.7020416 6.079254 2.1061401 7.909424c1.4075165 1.8301849 3.251236 2.7452698 5.531189 2.7452698c1.4211273 0 2.7315216 -0.4159546 3.9311218 -1.2478485c1.2030334 -0.8318939 2.1180878 -1.9986877 2.7451477 -3.5003662c0.63049316 -1.5059509 0.9457245 -3.5707703 0.9457245 -6.194458c0 -3.2379913 -0.7105713 -5.7742157 -2.1316986 -7.608658c-1.4211426 -1.8387146 -3.251236 -2.758072 -5.4902954 -2.758072z" fill-rule="evenodd"/><path fill="#ffe599" d="m227.68343 214.86911c1.2575531 0 2.3157349 0.65270996 3.1745453 1.9581604c0.8588257 1.3054352 1.2882233 3.35318 1.2882233 6.1432495c0 2.5340881 -0.4225769 4.4197235 -1.2677765 5.656906c-0.84176636 1.2329102 -1.8658752 1.8493805 -3.0723114 1.8493805c-1.1961975 0 -2.2339325 -0.6463318 -3.113205 -1.9389648c-0.8792572 -1.2926483 -1.3188934 -3.2444153 -1.3188934 -5.8552856c0 -2.70047 0.4106598 -4.677841 1.2319946 -5.932083c0.82473755 -1.254242 1.8505402 -1.8813629 3.077423 -1.8813629zm4.2327423 -10.155563l0 10.097961c-0.4805298 -0.8318939 -1.1042023 -1.5059509 -1.8710022 -2.0221558c-0.7667999 -0.52046204 -1.6409454 -0.7807007 -2.6224518 -0.7807007c-1.3393402 0 -2.550888 0.44154358 -3.6346283 1.324646c-1.0837555 0.88308716 -1.8965607 2.1544037 -2.4384308 3.8139343c-0.5418701 1.6552582 -0.8128052 3.5003662 -0.8128052 5.535324c0 2.0861359 0.2982025 3.9333801 0.8945923 5.5417175c0.599823 1.604065 1.4432983 2.8540497 2.5304413 3.749939c1.0905609 0.8958893 2.2850647 1.3438416 3.5835114 1.3438416c2.0039062 0 3.522171 -1.0110779 4.5547943 -3.0332336l0 2.5724945l2.5611115 0l0 -28.143768z" fill-rule="evenodd"/><path fill="#ffe599" d="m245.71857 214.84991c1.4006805 0 2.5406647 0.6655121 3.4199219 1.9965515c0.57255554 0.85749817 0.920166 2.1437378 1.0428467 3.8587341l-9.094238 0c0.0920105 -1.7789917 0.5691376 -3.1996155 1.4313507 -4.2618866c0.86564636 -1.0622711 1.9323425 -1.593399 3.200119 -1.593399zm-0.030670166 -2.8412628c-2.2492828 0 -4.079376 0.9470825 -5.4902954 2.8412628c-1.4109039 1.894165 -2.1163635 4.556244 -2.1163635 7.9862213c0 3.3147888 0.69692993 5.8915405 2.090805 7.730255c1.3972778 1.8344421 3.2870178 2.7516632 5.6692047 2.7516632c1.891449 0 3.4454956 -0.57592773 4.662155 -1.7277832c1.2166595 -1.1518707 2.0499115 -2.770874 2.499771 -4.85701l-2.8525085 -0.44154358c-0.4191742 1.4590149 -0.98661804 2.521286 -1.7022858 3.186798c-0.715683 0.66552734 -1.5796204 0.998291 -2.5917969 0.998291c-1.359787 0 -2.4946442 -0.59513855 -3.4045868 -1.7853851c-0.9099426 -1.1902618 -1.4160309 -2.905243 -1.5182648 -5.1449738l12.146118 0c0.010223389 -0.4095459 0.015335083 -0.7167206 0.015335083 -0.92149353c0 -3.365982 -0.6901245 -5.9768677 -2.0703583 -7.8326416c-1.380249 -1.8557739 -3.1592255 -2.783661 -5.3369293 -2.783661z" fill-rule="evenodd"/><path fill="#ffe599" d="m257.25125 228.92178l0 3.9355316l3.1438599 0l0 -3.9355316z" fill-rule="evenodd"/><path fill="#ffe599" d="m272.86328 212.00865c-2.259491 0 -3.9873352 1.119873 -5.183563 3.3595886l0 -2.8988495l-2.484436 0l0 20.387924l2.760498 0l0 -11.134644c0 -2.6108856 0.42599487 -4.3834686 1.2779846 -5.317749c0.8554077 -0.93429565 1.8710022 -1.4014282 3.046753 -1.4014282c0.736145 0 1.376831 0.20903015 1.9221191 0.627121c0.54867554 0.41381836 0.9303894 0.97055054 1.1450806 1.6701965c0.21472168 0.69537354 0.322052 1.7469788 0.322052 3.1548157l0 12.401688l2.760498 0l0 -12.536072c0 -1.5998077 -0.051116943 -2.7196655 -0.15335083 -3.3595886c-0.16360474 -0.9854889 -0.44985962 -1.8365784 -0.8588257 -2.553299c-0.40896606 -0.7167053 -1.0258179 -1.2947693 -1.8505554 -1.7341766c-0.8213196 -0.4436798 -1.7227478 -0.66552734 -2.7042542 -0.66552734z" fill-rule="evenodd"/><path fill="#ffe599" d="m289.38016 214.84991c1.4006958 0 2.54068 0.6655121 3.4199524 1.9965515c0.5725403 0.85749817 0.9201355 2.1437378 1.0428467 3.8587341l-9.094269 0c0.0920105 -1.7789917 0.56915283 -3.1996155 1.431366 -4.2618866c0.8656311 -1.0622711 1.9323425 -1.593399 3.2001038 -1.593399zm-0.030670166 -2.8412628c-2.2492676 0 -4.079376 0.9470825 -5.490265 2.8412628c-1.4109192 1.894165 -2.116394 4.556244 -2.116394 7.9862213c0 3.3147888 0.69696045 5.8915405 2.0908203 7.730255c1.3972778 1.8344421 3.2870178 2.7516632 5.66922 2.7516632c1.8914185 0 3.445465 -0.57592773 4.66214 -1.7277832c1.2166443 -1.1518707 2.0498962 -2.770874 2.4997559 -4.85701l-2.852478 -0.44154358c-0.41918945 1.4590149 -0.9866333 2.521286 -1.702301 3.186798c-0.71569824 0.66552734 -1.5796204 0.998291 -2.5917969 0.998291c-1.3597717 0 -2.4946594 -0.59513855 -3.404602 -1.7853851c-0.9099121 -1.1902618 -1.4160156 -2.905243 -1.5182495 -5.1449738l12.146118 0c0.010223389 -0.4095459 0.015319824 -0.7167206 0.015319824 -0.92149353c0 -3.365982 -0.690094 -5.9768677 -2.070343 -7.8326416c-1.380249 -1.8557739 -3.1592102 -2.783661 -5.3369446 -2.783661z" fill-rule="evenodd"/><path fill="#ffe599" d="m303.38196 205.34706l-2.7451477 2.073349l0 5.0489807l-2.024353 0l0 2.687683l2.024353 0l0 11.729767c0 2.073349 0.112457275 3.4342499 0.33737183 4.0827026c0.22494507 0.6441803 0.61343384 1.1646576 1.1655579 1.5614014c0.5520935 0.39675903 1.3291016 0.59513855 2.3310547 0.59513855c0.61343384 0 1.3086853 -0.10240173 2.0856934 -0.30717468l-0.39874268 -3.0524292c-0.50097656 0.08959961 -0.9048157 0.13438416 -1.2115173 0.13438416c-0.40896606 0 -0.72421265 -0.08319092 -0.94573975 -0.2495575c-0.21810913 -0.16638184 -0.3765869 -0.3903656 -0.47540283 -0.6719208c-0.09542847 -0.28157043 -0.14312744 -0.91508484 -0.14312744 -1.9005737l0 -11.921738l2.7757874 0l0 -2.687683l-2.7757874 0l0 -7.1223297z" fill-rule="evenodd"/><path fill="#ffe599" d="m309.6237 212.46939l0 3.9355316l3.1438904 0l0 -3.9355316zm0 16.452393l0 3.9355316l3.1438904 0l0 -3.9355316z" fill-rule="evenodd"/><path fill="#ffe599" d="m324.17755 207.4396c1.0428772 0 1.9136047 0.43301392 2.6122437 1.2990417c0.7020569 0.86177063 1.0530701 1.926178 1.0530701 3.193222c0 1.2158508 -0.3407898 2.243988 -1.0223999 3.0844116c-0.67819214 0.8361664 -1.5489197 1.2542572 -2.6122131 1.2542572c-1.0939941 0 -1.9834595 -0.42234802 -2.6684875 -1.2670441c-0.68499756 -0.84469604 -1.0274963 -1.9325714 -1.0274963 -3.2636108c0 -1.1774597 0.3475952 -2.1885223 1.0428467 -3.0332184c0.69522095 -0.8447113 1.5693665 -1.2670593 2.6224365 -1.2670593zm-0.04598999 11.652985c1.3291016 0 2.435028 0.54393005 3.317688 1.6318054c0.8860779 1.0878601 1.3291321 2.4636993 1.3291321 4.127487c0 1.6381989 -0.42941284 2.9884338 -1.2882385 4.050705c-0.8588257 1.0622711 -1.9476624 1.5934143 -3.266571 1.5934143c-0.8486023 0 -1.6409607 -0.25170898 -2.3770752 -0.7551117c-0.736145 -0.5076752 -1.291626 -1.2222443 -1.6665039 -2.1437378c-0.37149048 -0.92149353 -0.55722046 -1.8749695 -0.55722046 -2.8604584c0 -1.6125946 0.42599487 -2.9564362 1.2779846 -4.031494c0.85543823 -1.0750732 1.9323425 -1.6126099 3.2308044 -1.6126099zm0.015319824 -14.494232c-1.9527588 0 -3.5170593 0.69750977 -4.69281 2.0925446c-1.1757507 1.3950348 -1.7636414 3.1164246 -1.7636414 5.1641693c0 1.3566284 0.276062 2.521286 0.8281555 3.4939728c0.5520935 0.97268677 1.4006958 1.7213898 2.5457764 2.2461243c-1.3700256 0.44795227 -2.4265137 1.2905121 -3.1694336 2.5276947c-0.739563 1.2329102 -1.109314 2.7644653 -1.109314 4.594635c0 2.457306 0.6799011 4.509323 2.0396729 6.1560516c1.3598022 1.6424713 3.1490173 2.4636993 5.3676147 2.4636993c2.2185974 0 4.0078125 -0.81910706 5.3676147 -2.457306c1.3597717 -1.6381989 2.0396729 -3.6603394 2.0396729 -6.066452c0 -1.7405853 -0.36123657 -3.2380066 -1.0837402 -4.4922485c-0.7190857 -1.2542572 -1.7687683 -2.1629333 -3.1489868 -2.7260742c1.1144104 -0.5247345 1.9442444 -1.2691803 2.4895325 -2.2333221c0.54870605 -0.9684143 0.82302856 -2.1053467 0.82302856 -3.4107819c0 -2.04776 -0.5980835 -3.7840729 -1.7943115 -5.208969c-1.1961975 -1.4291534 -2.7758179 -2.1437378 -4.7388306 -2.1437378z" fill-rule="evenodd"/><path fill="#ffe599" d="m341.58392 207.45882c1.2882385 0 2.3634644 0.7615051 3.2256775 2.2845154c0.8656311 1.5230103 1.2984619 4.6010437 1.2984619 9.23407c0 4.607437 -0.4328308 7.679062 -1.2984619 9.214874c-0.86221313 1.5358124 -1.9272156 2.3037262 -3.1950073 2.3037262c-1.2677612 0 -2.3344727 -0.76364136 -3.2001038 -2.290924c-0.86221313 -1.5315552 -1.293335 -4.607437 -1.293335 -9.227676c0 -4.6202393 0.47540283 -7.787842 1.426239 -9.502838c0.7565918 -1.3438416 1.7687683 -2.015747 3.0365295 -2.015747zm0.030670166 -2.8604584c-1.6358337 0 -2.993927 0.55033875 -4.0742493 1.651001c-1.0769348 1.1006622 -1.88974 2.666336 -2.438446 4.6970215c-0.54525757 2.0264282 -0.8179016 4.70343 -0.8179016 8.031021c0 5.2857513 0.74124146 9.099686 2.2237244 11.441803c1.2370911 1.9453583 2.939392 2.918045 5.1068726 2.918045c1.6460876 0 3.0075684 -0.5524597 4.084503 -1.6573944c1.0803223 -1.1092072 1.891449 -2.6770172 2.433319 -4.70343c0.5418701 -2.0306854 0.8128052 -4.6970215 0.8128052 -7.9990234c0 -2.7900543 -0.16870117 -5.006317 -0.5061035 -6.6487885c-0.33737183 -1.6467285 -0.8025818 -3.0417633 -1.3955688 -4.185089c-0.59298706 -1.1475983 -1.3444519 -2.0242767 -2.2543945 -2.6300812c-0.9099426 -0.61006165 -1.9681091 -0.91508484 -3.1745605 -0.91508484z" fill-rule="evenodd"/><path fill="#ffe599" d="m361.22934 204.71355l0 4.012314l2.760498 0l0 -4.012314zm-4.263397 -0.47994995l-6.5177917 29.103653l2.2237244 0l6.5024414 -29.103653zm4.263397 8.235794l0 21.424591c0 1.868576 -0.13800049 3.0353699 -0.4140625 3.5003662c-0.2760315 0.46928406 -0.69522095 0.70391846 -1.2575378 0.70391846c-0.31695557 0 -0.75146484 -0.08958435 -1.3035583 -0.2687683l-0.52142334 2.9372406c0.69522095 0.24317932 1.4160156 0.36476135 2.1623535 0.36476135c1.5438232 0 2.6480408 -0.6399231 3.3125916 -1.9197693c0.52142334 -0.98547363 0.782135 -2.7324677 0.782135 -5.2409515l0 -21.501389z" fill-rule="evenodd"/><path fill="#ffe599" d="m378.6204 222.62495l0 1.2670441c0 1.5230255 -0.1482544 2.674881 -0.44476318 3.4555817c-0.38848877 1.0110779 -0.9968262 1.8088531 -1.8249817 2.3933105c-0.828125 0.5802002 -1.7738647 0.87028503 -2.8371582 0.87028503c-1.0735168 0 -1.88974 -0.30715942 -2.448639 -0.9214783c-0.5555115 -0.6143341 -0.83325195 -1.3822327 -0.83325195 -2.3037262c0 -0.6015167 0.1277771 -1.147583 0.38339233 -1.6381989c0.25558472 -0.49487305 0.6185608 -0.87028503 1.0888672 -1.1262512c0.47027588 -0.25598145 1.2728882 -0.48634338 2.4077454 -0.69111633c2.0039062 -0.35836792 3.506836 -0.7935028 4.508789 -1.3054504zm-3.511963 -10.6163025c-1.4006958 0 -2.63266 0.24104309 -3.695984 0.723114c-1.0632935 0.47781372 -1.8760986 1.1625214 -2.4384155 2.0541534c-0.5623169 0.8873596 -0.966156 2.0541382 -1.2115479 3.5003662l2.6991577 0.46073914c0.29647827 -1.4462128 0.7531433 -2.4530334 1.3699951 -3.0204163c0.6202698 -0.57167053 1.5796204 -0.85749817 2.8780518 -0.85749817c1.3904724 0 2.438446 0.39035034 3.1438904 1.171051c0.52142334 0.57592773 0.782135 1.56781 0.782135 2.9756317c0 0.12799072 -0.0050964355 0.4287567 -0.015319824 0.902298c-1.0530701 0.46073914 -2.6940308 0.85749817 -4.922882 1.1902466c-1.0939636 0.16638184 -1.9118652 0.3391571 -2.4537354 0.51834106c-0.736145 0.2559662 -1.3989868 0.63352966 -1.9885864 1.1326599c-0.58618164 0.4991455 -1.0615845 1.1625214 -1.426239 1.9901581c-0.36123657 0.82336426 -0.5418701 1.7341919 -0.5418701 2.7324677c0 1.7021942 0.4805298 3.1014862 1.4415894 4.197891c0.9610596 1.0921326 2.3361816 1.6381989 4.125366 1.6381989c1.0837402 0 2.0976257 -0.2239685 3.0416565 -0.6719208c0.9474182 -0.447937 1.9323425 -1.2158508 2.9547424 -2.303711c0.08178711 0.9598694 0.2658081 1.798172 0.5520935 2.5148926l2.8831482 0c-0.3475952 -0.78071594 -0.5810547 -1.5955505 -0.7003479 -2.4445038c-0.11584473 -0.85324097 -0.1737976 -2.8860474 -0.1737976 -6.098465l0 -4.607437c0 -1.5358124 -0.04598999 -2.5980835 -0.138031 -3.186798c-0.16357422 -0.9470978 -0.44985962 -1.7299347 -0.85879517 -2.348526c-0.40896606 -0.6228485 -1.0479736 -1.1390533 -1.9170227 -1.5485992c-0.86901855 -0.40956116 -1.9987793 -0.6143341 -3.3892517 -0.6143341z" fill-rule="evenodd"/><path fill="#ffe599" d="m384.01865 212.46939l6.1957397 20.387924l2.576477 0l6.1650696 -20.387924l-2.8371582 0l-3.6193237 12.440094c-0.4396057 1.5102081 -0.782135 2.8028564 -1.0274963 3.8779144c-0.31695557 -1.4206238 -0.6645508 -2.7900543 -1.0428467 -4.1082916l-3.4966125 -12.209717z" fill-rule="evenodd"/><path fill="#ffe599" d="m411.79214 222.62495l0 1.2670441c0 1.5230255 -0.14822388 2.674881 -0.44473267 3.4555817c-0.3885193 1.0110779 -0.9968262 1.8088531 -1.8249817 2.3933105c-0.8281555 0.5802002 -1.7738647 0.87028503 -2.8371582 0.87028503c-1.0735168 0 -1.88974 -0.30715942 -2.448639 -0.9214783c-0.5555115 -0.6143341 -0.8332825 -1.3822327 -0.8332825 -2.3037262c0 -0.6015167 0.12780762 -1.147583 0.38342285 -1.6381989c0.25558472 -0.49487305 0.6185303 -0.87028503 1.0888367 -1.1262512c0.4703064 -0.25598145 1.2728882 -0.48634338 2.4077759 -0.69111633c2.0039062 -0.35836792 3.506836 -0.7935028 4.5087585 -1.3054504zm-3.5119324 -10.6163025c-1.4006958 0 -2.6326904 0.24104309 -3.695984 0.723114c-1.0632935 0.47781372 -1.8760986 1.1625214 -2.4384155 2.0541534c-0.5623169 0.8873596 -0.966156 2.0541382 -1.2115479 3.5003662l2.6991272 0.46073914c0.2965088 -1.4462128 0.7531738 -2.4530334 1.3700256 -3.0204163c0.6202698 -0.57167053 1.5796204 -0.85749817 2.8780518 -0.85749817c1.3904724 0 2.438446 0.39035034 3.1438904 1.171051c0.52142334 0.57592773 0.782135 1.56781 0.782135 2.9756317c0 0.12799072 -0.005126953 0.4287567 -0.015350342 0.902298c-1.0530701 0.46073914 -2.6940002 0.85749817 -4.9228516 1.1902466c-1.0939636 0.16638184 -1.9118652 0.3391571 -2.4537659 0.51834106c-0.7361145 0.2559662 -1.3989868 0.63352966 -1.9885559 1.1326599c-0.58618164 0.4991455 -1.0615845 1.1625214 -1.426239 1.9901581c-0.3612671 0.82336426 -0.5418701 1.7341919 -0.5418701 2.7324677c0 1.7021942 0.4805298 3.1014862 1.4415894 4.197891c0.96102905 1.0921326 2.3361816 1.6381989 4.125366 1.6381989c1.0837402 0 2.0976257 -0.2239685 3.0416565 -0.6719208c0.9474182 -0.447937 1.932312 -1.2158508 2.954712 -2.303711c0.08181763 0.9598694 0.26583862 1.798172 0.552124 2.5148926l2.8831482 0c-0.3475952 -0.78071594 -0.5810547 -1.5955505 -0.7003479 -2.4445038c-0.115875244 -0.85324097 -0.1737976 -2.8860474 -0.1737976 -6.098465l0 -4.607437c0 -1.5358124 -0.046020508 -2.5980835 -0.138031 -3.186798c-0.16357422 -0.9470978 -0.44985962 -1.7299347 -0.85879517 -2.348526c-0.40896606 -0.6228485 -1.0479736 -1.1390533 -1.9170227 -1.5485992c-0.86901855 -0.40956116 -1.9987793 -0.6143341 -3.3892517 -0.6143341z" fill-rule="evenodd"/><path fill="#ffe599" d="m424.21432 212.00865c-0.8486023 0 -1.6443787 0.13865662 -2.3872986 0.4159546c-0.7395325 0.2730255 -1.3240051 0.6079254 -1.753418 1.0046692c-0.5725403 0.51194763 -1.0258179 1.1561279 -1.3598022 1.9325714c-0.3305664 0.772171 -0.4958496 1.6125946 -0.4958496 2.521286c0 0.99827576 0.2010498 1.9112396 0.60321045 2.7388763c0.4055481 0.82336426 0.99853516 1.4696808 1.7789612 1.9389496c0.783844 0.4650116 2.1879578 1.0174866 4.212311 1.6574097c1.5029297 0.47354126 2.443512 0.8638916 2.8218079 1.171051c0.5418701 0.44795227 0.8128052 1.0622711 0.8128052 1.8429718c0 0.8703003 -0.30670166 1.6296692 -0.920166 2.278122c-0.61343384 0.64419556 -1.5540466 0.96629333 -2.8218079 0.96629333c-1.2575684 0 -2.2373657 -0.36476135 -2.939392 -1.0942688c-0.6986389 -0.7295227 -1.1246643 -1.7789917 -1.2780151 -3.1484222l-2.7297974 0.5375366c0.30670166 2.1629333 1.0138855 3.7947388 2.12146 4.895401c1.111023 1.1006622 2.724701 1.651001 4.8410645 1.651001c1.2780151 0 2.4230957 -0.27729797 3.4352722 -0.8318939c1.0121765 -0.5588684 1.7857971 -1.3459778 2.3208618 -2.3613129c0.53845215 -1.0196075 0.8076782 -2.1053467 0.8076782 -3.2572021c0 -1.1774597 -0.21981812 -2.1629333 -0.6594238 -2.9564514c-0.43963623 -0.7935028 -1.0462646 -1.3971558 -1.8198853 -1.8109741c-0.77020264 -0.41807556 -2.1317139 -0.95347595 -4.084503 -1.6062012c-1.3495483 -0.46073914 -2.1623535 -0.7551117 -2.4384155 -0.88308716c-0.4805298 -0.24317932 -0.83325195 -0.55033875 -1.0581665 -0.92149353c-0.22494507 -0.35835266 -0.33740234 -0.7615051 -0.33740234 -1.2094574c0 -0.7039032 0.27093506 -1.3182373 0.8128052 -1.8429718c0.5418701 -0.5247345 1.4466858 -0.7870941 2.7144775 -0.7870941c1.0735168 0 1.9033508 0.2943573 2.4895325 0.88308716c0.5895996 0.58872986 0.94573975 1.4078217 1.0684204 2.4572906l2.6991272 -0.46073914c-0.1737976 -1.3182373 -0.49075317 -2.3698425 -0.9508362 -3.1548157c-0.460083 -0.78923035 -1.1740417 -1.4142303 -2.1419067 -1.8749695c-0.96447754 -0.46073914 -2.0857239 -0.69111633 -3.3637085 -0.69111633z" fill-rule="evenodd"/><path fill="#ffe599" d="m441.14526 212.00865c-1.4006653 0 -2.6974182 0.41381836 -3.8902283 1.2414551c-1.1893921 0.82336426 -2.07547 2.0605469 -2.6582336 3.7115479c-0.5827637 1.651001 -0.8741455 3.5771637 -0.8741455 5.778488c0 3.4043884 0.67648315 6.0195312 2.0294495 7.8454437c1.3563843 1.82164 3.1489868 2.7324677 5.377838 2.7324677c1.7789612 0 3.2785034 -0.6612549 4.4985657 -1.9837646c1.2234497 -1.326767 1.9834595 -3.161209 2.2799377 -5.5033264l-2.7144775 -0.44154358c-0.19424438 1.7277832 -0.6543274 3.0076294 -1.3802185 3.8395386c-0.72592163 0.8318939 -1.6307373 1.2478485 -2.7144775 1.2478485c-1.3495789 0 -2.4435425 -0.62072754 -3.2819214 -1.8621826c-0.8383484 -1.2414398 -1.2575378 -3.231598 -1.2575378 -5.9704742c0 -2.70047 0.43450928 -4.6735535 1.3035583 -5.9192657c0.8690491 -1.2499847 1.9987793 -1.8749695 3.3892517 -1.8749695c0.920166 0 1.70401 0.34555054 2.351532 1.0366669c0.6509094 0.69111633 1.104187 1.7213898 1.3597717 3.0908203l2.6838074 -0.51834106c-0.31695557 -2.0605469 -1.0377197 -3.6496735 -2.162384 -4.7674103c-1.1246338 -1.121994 -2.5713196 -1.6829987 -4.340088 -1.6829987z" fill-rule="evenodd"/><path fill="#ffe599" d="m456.25125 212.00865c-0.6441345 0 -1.2354126 0.2303772 -1.7738647 0.69111633c-0.5350647 0.46073914 -1.1195374 1.4142303 -1.753418 2.8604584l0 -3.0908356l-2.484436 0l0 20.387924l2.7604675 0l0 -10.673904c0 -1.4590149 0.15335083 -2.8028564 0.460083 -4.0315094c0.20446777 -0.80630493 0.5469971 -1.4355469 1.0275269 -1.8877716c0.4805298 -0.45646667 1.0223999 -0.68470764 1.6256104 -0.68470764c0.67477417 0 1.3495483 0.24957275 2.024353 0.748703l0.9508362 -3.206009c-0.9610596 -0.7423096 -1.9067993 -1.1134644 -2.8371582 -1.1134644z" fill-rule="evenodd"/><path fill="#ffe599" d="m460.7447 204.71355l0 3.9739075l2.7604675 0l0 -3.9739075zm0 7.755844l0 20.387924l2.7604675 0l0 -20.387924z" fill-rule="evenodd"/><path fill="#ffe599" d="m474.68512 214.71553c1.1859741 0 2.2049866 0.6463165 3.0569763 1.9389496c0.8554077 1.2926483 1.2831116 3.2380066 1.2831116 5.83609c0 2.7260742 -0.43792725 4.739685 -1.3137817 6.040863c-0.8724365 1.2969055 -1.9221191 1.9453735 -3.1489868 1.9453735c-1.2064514 0 -2.2339478 -0.62713623 -3.08255 -1.8813782c-0.8486023 -1.254242 -1.2728882 -3.1932068 -1.2728882 -5.8168945c0 -2.6236725 0.4515686 -4.62236 1.3546753 -5.996063c0.90652466 -1.3779602 1.9476929 -2.0669403 3.1234436 -2.0669403zm0.26071167 -2.7068787c-1.0632935 0 -1.9681396 0.26023865 -2.7144775 0.7807007c-0.7463379 0.51620483 -1.4160156 1.2926483 -2.0090027 2.3293152l0 -2.6492767l-2.5151062 0l0 28.20137l2.7604675 0l0 -9.925201c0.4703064 0.7423096 1.0701294 1.3566437 1.7994385 1.8429871c0.73269653 0.48632812 1.5591431 0.72950745 2.479309 0.72950745c1.2575378 0 2.4554749 -0.4436798 3.59375 -1.3310394c1.1416626 -0.8916321 2.0107117 -2.171463 2.6071167 -3.8395233c0.5997925 -1.6723328 0.8996887 -3.5515747 0.8996887 -5.637726c0 -1.9453583 -0.27093506 -3.7328644 -0.8128052 -5.3625336c-0.5418701 -1.6339417 -1.3444519 -2.8988495 -2.4077454 -3.7947388c-1.0632935 -0.8958893 -2.2901611 -1.3438416 -3.6806335 -1.3438416z" fill-rule="evenodd"/><path fill="#ffe599" d="m500.64896 212.46939l4.9842224 20.387924l2.8831482 0l3.2972412 -15.684494l0.6288147 3.4747772l2.5917358 12.209717l2.867859 0l5.0915527 -20.387924l-2.6837769 0l-2.7911987 11.787369l-0.93548584 3.9355164l-0.8128052 -3.8971252l-2.4384155 -11.82576l-2.8371582 0l-2.5917969 11.9409485c-0.52142334 2.5852814 -0.8025818 3.9867096 -0.84347534 4.2042847l-0.966156 -4.37706l-2.5917969 -11.768173zm-12.222778 -7.1223297l-2.7451477 2.073349l0 5.0489807l-2.024353 0l0 2.687683l2.024353 0l0 11.729767c0 2.073349 0.112457275 3.4342499 0.33740234 4.0827026c0.22491455 0.6441803 0.61343384 1.1646576 1.1655273 1.5614014c0.5520935 0.39675903 1.3291321 0.59513855 2.3310852 0.59513855c0.61343384 0 1.3086548 -0.10240173 2.0856934 -0.30717468l-0.39874268 -3.0524292c-0.50097656 0.08959961 -0.9048157 0.13438416 -1.2115479 0.13438416c-0.40896606 0 -0.72421265 -0.08319092 -0.9457092 -0.2495575c-0.21810913 -0.16638184 -0.3765869 -0.3903656 -0.47543335 -0.6719208c-0.09542847 -0.28157043 -0.14312744 -0.91508484 -0.14312744 -1.9005737l0 -11.921738l2.7758179 0l0 -2.687683l-2.7758179 0l0 -7.1223297zm9.922394 -1.1134644l-6.5177917 29.103653l2.2236938 0l6.502472 -29.103653z" fill-rule="evenodd"/><path fill="#ffe599" d="m532.0264 214.84991c1.4006958 0 2.5406494 0.6655121 3.4199219 1.9965515c0.5725708 0.85749817 0.920166 2.1437378 1.0428467 3.8587341l-9.094238 0c0.092041016 -1.7789917 0.56915283 -3.1996155 1.4313354 -4.2618866c0.8656616 -1.0622711 1.932373 -1.593399 3.2001343 -1.593399zm-0.030639648 -2.8412628c-2.2493286 0 -4.0794067 0.9470825 -5.4902954 2.8412628c-1.4109497 1.894165 -2.116394 4.556244 -2.116394 7.9862213c0 3.3147888 0.69696045 5.8915405 2.0908203 7.730255c1.3972778 1.8344421 3.2869873 2.7516632 5.6691895 2.7516632c1.8914795 0 3.4454956 -0.57592773 4.6621704 -1.7277832c1.2166748 -1.1518707 2.0499268 -2.770874 2.4997559 -4.85701l-2.852478 -0.44154358c-0.41918945 1.4590149 -0.9866333 2.521286 -1.7023315 3.186798c-0.7156372 0.66552734 -1.5795898 0.998291 -2.5917358 0.998291c-1.3598022 0 -2.49469 -0.59513855 -3.404602 -1.7853851c-0.90997314 -1.1902618 -1.4160156 -2.905243 -1.5183105 -5.1449738l12.146118 0c0.010253906 -0.4095459 0.015380859 -0.7167206 0.015380859 -0.92149353c0 -3.365982 -0.6901245 -5.9768677 -2.0703735 -7.8326416c-1.380249 -1.8557739 -3.1592407 -2.783661 -5.336914 -2.783661z" fill-rule="evenodd"/><path fill="#ffe599" d="m549.7395 214.84991c1.196228 0 2.21521 0.6335144 3.0570068 1.9005585c0.8451538 1.2670441 1.2677612 3.2316132 1.2677612 5.8936768c0 2.5980835 -0.43963623 4.554123 -1.3189087 5.868088c-0.87927246 1.3097076 -1.9221191 1.9645691 -3.12854 1.9645691c-1.4824829 0 -2.6582031 -0.88949585 -3.5272827 -2.6684875c-0.5316162 -1.0878601 -0.79748535 -2.8540497 -0.79748535 -5.2985535c0 -2.482895 0.43963623 -4.379196 1.3189087 -5.688904c0.87927246 -1.3139648 1.9221191 -1.9709473 3.12854 -1.9709473zm-6.977844 -10.136368l0 28.143768l2.5610962 0l0 -2.553299c1.0939941 2.0093536 2.6019897 3.014038 4.524109 3.014038c1.932373 0 3.588623 -0.9534912 4.968872 -2.8604584c1.380249 -1.9069672 2.0703735 -4.607437 2.0703735 -8.10141c0 -1.471817 -0.16357422 -2.8540497 -0.4907837 -4.1466827c-0.32714844 -1.2926483 -0.7803955 -2.3954468 -1.3597412 -3.3083954c-0.57598877 -0.91722107 -1.3121338 -1.627533 -2.208435 -2.130951c-0.8928833 -0.5076599 -1.840271 -0.7615051 -2.8422241 -0.7615051c-1.8096924 0 -3.2972412 0.91508484 -4.4628296 2.7452698l0 -10.040375z" fill-rule="evenodd"/><path fill="#ffe599" d="m565.5969 212.00865c-0.8485718 0 -1.6443481 0.13865662 -2.387268 0.4159546c-0.739563 0.2730255 -1.3240356 0.6079254 -1.753418 1.0046692c-0.5725708 0.51194763 -1.0258179 1.1561279 -1.3598022 1.9325714c-0.3305664 0.772171 -0.4958496 1.6125946 -0.4958496 2.521286c0 0.99827576 0.2010498 1.9112396 0.60321045 2.7388763c0.40551758 0.82336426 0.99853516 1.4696808 1.7789917 1.9389496c0.7838135 0.4650116 2.1879272 1.0174866 4.2122803 1.6574097c1.5029297 0.47354126 2.4435425 0.8638916 2.8218384 1.171051c0.5418701 0.44795227 0.8128052 1.0622711 0.8128052 1.8429718c0 0.8703003 -0.3067627 1.6296692 -0.920166 2.278122c-0.61346436 0.64419556 -1.5540771 0.96629333 -2.8218384 0.96629333c-1.2575684 0 -2.2373657 -0.36476135 -2.939392 -1.0942688c-0.69866943 -0.7295227 -1.1246338 -1.7789917 -1.2780151 -3.1484222l-2.7297974 0.5375366c0.30670166 2.1629333 1.013855 3.7947388 2.12146 4.895401c1.111023 1.1006622 2.7247314 1.651001 4.8410645 1.651001c1.2780151 0 2.4230957 -0.27729797 3.4353027 -0.8318939c1.012146 -0.5588684 1.7857666 -1.3459778 2.3208008 -2.3613129c0.53845215 -1.0196075 0.80773926 -2.1053467 0.80773926 -3.2572021c0 -1.1774597 -0.21984863 -2.1629333 -0.65948486 -2.9564514c-0.43963623 -0.7935028 -1.0462646 -1.3971558 -1.8198853 -1.8109741c-0.77020264 -0.41807556 -2.1316528 -0.95347595 -4.0844727 -1.6062012c-1.3495483 -0.46073914 -2.1623535 -0.7551117 -2.4384155 -0.88308716c-0.4805298 -0.24317932 -0.83325195 -0.55033875 -1.0581665 -0.92149353c-0.22491455 -0.35835266 -0.33740234 -0.7615051 -0.33740234 -1.2094574c0 -0.7039032 0.27093506 -1.3182373 0.8128052 -1.8429718c0.5418701 -0.5247345 1.4467163 -0.7870941 2.7144775 -0.7870941c1.0734863 0 1.9033813 0.2943573 2.489563 0.88308716c0.5895386 0.58872986 0.9456787 1.4078217 1.0683594 2.4572906l2.6991577 -0.46073914c-0.17382812 -1.3182373 -0.49072266 -2.3698425 -0.95080566 -3.1548157c-0.460083 -0.78923035 -1.1740723 -1.4142303 -2.1419678 -1.8749695c-0.96447754 -0.46073914 -2.0856934 -0.69111633 -3.3637085 -0.69111633z" fill-rule="evenodd"/><path fill="#ffe599" d="m575.9641 204.71355l0 3.9739075l2.760437 0l0 -3.9739075zm0 7.755844l0 20.387924l2.760437 0l0 -20.387924z" fill-rule="evenodd"/><path fill="#ffe599" d="m586.17786 205.34706l-2.7451172 2.073349l0 5.0489807l-2.024353 0l0 2.687683l2.024353 0l0 11.729767c0 2.073349 0.11242676 3.4342499 0.33740234 4.0827026c0.22491455 0.6441803 0.6134033 1.1646576 1.1655273 1.5614014c0.552063 0.39675903 1.3291016 0.59513855 2.3310547 0.59513855c0.61346436 0 1.3086548 -0.10240173 2.0856934 -0.30717468l-0.39874268 -3.0524292c-0.50097656 0.08959961 -0.90478516 0.13438416 -1.2115479 0.13438416c-0.40893555 0 -0.7241821 -0.08319092 -0.9456787 -0.2495575c-0.21813965 -0.16638184 -0.37664795 -0.3903656 -0.47546387 -0.6719208c-0.09539795 -0.28157043 -0.14312744 -0.91508484 -0.14312744 -1.9005737l0 -11.921738l2.7758179 0l0 -2.687683l-2.7758179 0l0 -7.1223297z" fill-rule="evenodd"/><path fill="#ffe599" d="m598.37 214.84991c1.4006958 0 2.5406494 0.6655121 3.4199219 1.9965515c0.5725708 0.85749817 0.920166 2.1437378 1.0428467 3.8587341l-9.094238 0c0.09197998 -1.7789917 0.5690918 -3.1996155 1.4313354 -4.2618866c0.8656616 -1.0622711 1.932373 -1.593399 3.2001343 -1.593399zm-0.030700684 -2.8412628c-2.2492676 0 -4.0793457 0.9470825 -5.4902344 2.8412628c-1.4109497 1.894165 -2.116394 4.556244 -2.116394 7.9862213c0 3.3147888 0.6968994 5.8915405 2.0908203 7.730255c1.3972778 1.8344421 3.2869873 2.7516632 5.6691895 2.7516632c1.8914185 0 3.4454956 -0.57592773 4.6621704 -1.7277832c1.2166138 -1.1518707 2.0498657 -2.770874 2.4997559 -4.85701l-2.852478 -0.44154358c-0.41918945 1.4590149 -0.9866333 2.521286 -1.7023315 3.186798c-0.71569824 0.66552734 -1.5795898 0.998291 -2.5917969 0.998291c-1.3598022 0 -2.494629 -0.59513855 -3.404602 -1.7853851c-0.9099121 -1.1902618 -1.4160156 -2.905243 -1.5182495 -5.1449738l12.146118 0c0.010253906 -0.4095459 0.015319824 -0.7167206 0.015319824 -0.92149353c0 -3.365982 -0.6900635 -5.9768677 -2.0703125 -7.8326416c-1.380249 -1.8557739 -3.1592407 -2.783661 -5.336975 -2.783661z" fill-rule="evenodd"/><path fill="#ffe599" d="m609.90265 228.92178l0 3.9355316l3.143921 0l0 -3.9355316z" fill-rule="evenodd"/><path fill="#ffe599" d="m617.84674 204.71355l0 28.143768l2.760437 0l0 -11.153839c0 -1.5998077 0.15338135 -2.8540497 0.460083 -3.762741c0.3067627 -0.9086914 0.8196411 -1.627533 1.5387573 -2.15654c0.72247314 -0.53326416 1.4926758 -0.79989624 2.310608 -0.79989624c1.0939331 0 1.939148 0.39460754 2.5355225 1.1838531c0.5997925 0.78497314 0.89971924 2.0413513 0.89971924 3.7691345l0 12.920029l2.760498 0l0 -12.920029c0 -1.9965515 -0.19256592 -3.519577 -0.5776367 -4.569046c-0.38171387 -1.049469 -1.017334 -1.870697 -1.9067993 -2.4636993c-0.88946533 -0.5972595 -1.937439 -0.8958893 -3.1438599 -0.8958893c-1.9630127 0 -3.588623 0.93429565 -4.876892 2.8028564l0 -10.097961z" fill-rule="evenodd"/><path fill="#ffe599" d="m638.5657 205.34706l-2.7451782 2.073349l0 5.0489807l-2.024353 0l0 2.687683l2.024353 0l0 11.729767c0 2.073349 0.11248779 3.4342499 0.33740234 4.0827026c0.22491455 0.6441803 0.61346436 1.1646576 1.1655273 1.5614014c0.552124 0.39675903 1.3291626 0.59513855 2.3311157 0.59513855c0.6134033 0 1.3086548 -0.10240173 2.0856934 -0.30717468l-0.39874268 -3.0524292c-0.50097656 0.08959961 -0.9048462 0.13438416 -1.2115479 0.13438416c-0.40899658 0 -0.72424316 -0.08319092 -0.94573975 -0.2495575c-0.21813965 -0.16638184 -0.3765869 -0.3903656 -0.47540283 -0.6719208c-0.095458984 -0.28157043 -0.14312744 -0.91508484 -0.14312744 -1.9005737l0 -11.921738l2.7758179 0l0 -2.687683l-2.7758179 0l0 -7.1223297z" fill-rule="evenodd"/><path fill="#ffe599" d="m651.4479 212.00865c-1.0837402 0 -2.0498657 0.30503845 -2.8984985 0.91508484c-0.8485718 0.60580444 -1.5284424 1.4078369 -2.0396729 2.4061127l0 -2.8604584l-2.4691162 0l0 20.387924l2.760498 0l0 -10.577911c0 -1.8557739 0.1482544 -3.2763977 0.44476318 -4.2618866c0.2965088 -0.98547363 0.7736206 -1.7341919 1.4313354 -2.2461243c0.6611328 -0.5119324 1.380249 -0.76789856 2.1572876 -0.76789856c1.0223999 0 1.7585449 0.38394165 2.208374 1.1518555c0.4498291 0.76789856 0.6748047 1.9197693 0.6748047 3.4555817l0 13.246384l2.760437 0l0 -11.844955c0 -2.0989532 0.3782959 -3.6240997 1.1348877 -4.5754395c0.7565918 -0.95562744 1.7073975 -1.4334259 2.852478 -1.4334259c0.63391113 0 1.1859741 0.1855774 1.656311 0.5567322c0.47027588 0.3711548 0.7940674 0.8617554 0.97125244 1.471817c0.18066406 0.6057892 0.27093506 1.5998077 0.27093506 2.9820404l0 12.843231l2.7451782 0l0 -13.995102c0 -2.3293152 -0.43450928 -4.052826 -1.3035889 -5.1705627c-0.86901855 -1.121994 -2.111206 -1.6829987 -3.7266235 -1.6829987c-2.0652466 0 -3.7420044 1.1902618 -5.0302124 3.5707703c-0.31695557 -1.1262665 -0.86224365 -2.0029602 -1.6358643 -2.6300812c-0.77020264 -0.627121 -1.7584839 -0.9406891 -2.9649658 -0.9406891z" fill-rule="evenodd"/><path fill="#ffe599" d="m670.1425 204.71355l0 28.143768l2.760437 0l0 -28.143768z" fill-rule="evenodd"/><path fill="#000000" fill-opacity="0.0" d="m20.212599 62.30971l0 171.93701" fill-rule="evenodd"/><path stroke="#e69138" stroke-width="2.0" stroke-linejoin="round" stroke-linecap="butt" d="m20.212599 62.30971l0 171.93701" fill-rule="evenodd"/><path fill="#000000" fill-opacity="0.0" d="m679.05774 63.435696l0 171.937" fill-rule="evenodd"/><path stroke="#e69138" stroke-width="2.0" stroke-linejoin="round" stroke-linecap="butt" d="m679.05774 63.435696l0 171.937" fill-rule="evenodd"/><path fill="#000000" fill-opacity="0.0" d="m117.333336 148.26509l0 85.38583" fill-rule="evenodd"/><path stroke="#e69138" stroke-width="2.0" stroke-linejoin="round" stroke-linecap="butt" d="m117.333336 148.26509l0 85.38583" fill-rule="evenodd"/><path fill="#000000" fill-opacity="0.0" d="m306.3609 120.026245l1.1653442 114.20473" fill-rule="evenodd"/><path stroke="#e69138" stroke-width="2.0" stroke-linejoin="round" stroke-linecap="butt" d="m306.3609 120.026245l1.1653442 114.20473" fill-rule="evenodd"/><path fill="#000000" fill-opacity="0.0" d="m350.22308 118.64042l-0.25195312 113.32284" fill-rule="evenodd"/><path stroke="#e69138" stroke-width="2.0" stroke-linejoin="round" stroke-linecap="butt" d="m350.22308 118.64042l-0.25195312 113.32284" fill-rule="evenodd"/><path fill="#000000" fill-opacity="0.0" d="m499.06036 129.2336l0 107.87401" fill-rule="evenodd"/><path stroke="#e69138" stroke-width="2.0" stroke-linejoin="round" stroke-linecap="butt" d="m499.06036 129.2336l0 107.87401" fill-rule="evenodd"/><path fill="#000000" fill-opacity="0.0" d="m20.212599 91.15748l658.83466 0" fill-rule="evenodd"/><path stroke="#e69138" stroke-width="2.0" stroke-linejoin="round" stroke-linecap="butt" d="m32.212597 91.15748l634.83466 0" fill-rule="evenodd"/><path fill="#e69138" stroke="#e69138" stroke-width="2.0" stroke-linecap="butt" d="m32.212597 87.85402l-9.076195 3.3034592l9.076195 3.3034668z" fill-rule="evenodd"/><path fill="#e69138" stroke="#e69138" stroke-width="2.0" stroke-linecap="butt" d="m667.04724 94.460945l9.076172 -3.3034668l-9.076172 -3.3034592z" fill-rule="evenodd"/><path fill="#000000" fill-opacity="0.0" d="m92.902885 234.2336l0 -86.55118" fill-rule="evenodd"/><path stroke="#e69138" stroke-width="2.0" stroke-linejoin="round" stroke-linecap="butt" d="m92.902885 234.2336l0 -86.55118" fill-rule="evenodd"/><path fill="#000000" fill-opacity="0.0" d="m19.057743 169.61679l73.85826 0" fill-rule="evenodd"/><path stroke="#e69138" stroke-width="2.0" stroke-linejoin="round" stroke-linecap="butt" d="m31.057743 169.61679l49.858265 0" fill-rule="evenodd"/><path fill="#e69138" stroke="#e69138" stroke-width="2.0" stroke-linecap="butt" d="m31.057743 166.31334l-9.076195 3.3034515l9.076195 3.3034668z" fill-rule="evenodd"/><path fill="#e69138" stroke="#e69138" stroke-width="2.0" stroke-linecap="butt" d="m80.91601 172.92026l9.076195 -3.3034668l-9.076195 -3.3034515z" fill-rule="evenodd"/><path fill="#000000" fill-opacity="0.0" d="m118.91863 169.6273l186.2992 0" fill-rule="evenodd"/><path stroke="#e69138" stroke-width="2.0" stroke-linejoin="round" stroke-linecap="butt" d="m130.91864 169.6273l162.2992 0" fill-rule="evenodd"/><path fill="#e69138" stroke="#e69138" stroke-width="2.0" stroke-linecap="butt" d="m130.91864 166.32384l-9.076202 3.3034668l9.076202 3.3034515z" fill-rule="evenodd"/><path fill="#e69138" stroke="#e69138" stroke-width="2.0" stroke-linecap="butt" d="m293.21783 172.93076l9.076202 -3.3034515l-9.076202 -3.3034668z" fill-rule="evenodd"/><path fill="#000000" fill-opacity="0.0" d="m499.05774 168.46457l178.83466 0" fill-rule="evenodd"/><path stroke="#e69138" stroke-width="2.0" stroke-linejoin="round" stroke-linecap="butt" d="m511.05774 168.46457l154.83466 0" fill-rule="evenodd"/><path fill="#e69138" stroke="#e69138" stroke-width="2.0" stroke-linecap="butt" d="m511.05774 165.1611l-9.076202 3.3034668l9.076202 3.3034668z" fill-rule="evenodd"/><path fill="#e69138" stroke="#e69138" stroke-width="2.0" stroke-linecap="butt" d="m665.8924 171.76804l9.076172 -3.3034668l-9.076172 -3.3034668z" fill-rule="evenodd"/><path fill="#000000" fill-opacity="0.0" d="m350.6273 169.44357l146.11023 0.1889801" fill-rule="evenodd"/><path stroke="#e69138" stroke-width="2.0" stroke-linejoin="round" stroke-linecap="butt" d="m362.6273 169.45909l122.11023 0.15792847" fill-rule="evenodd"/><path fill="#e69138" stroke="#e69138" stroke-width="2.0" stroke-linecap="butt" d="m362.63156 166.15562l-9.080475 3.2917328l9.07193 3.3152008z" fill-rule="evenodd"/><path fill="#e69138" stroke="#e69138" stroke-width="2.0" stroke-linecap="butt" d="m484.73328 172.92049l9.080444 -3.2917175l-9.071899 -3.3152008z" fill-rule="evenodd"/><path fill="#000000" fill-opacity="0.0" d="m305.67847 169.61679l43.84253 0" fill-rule="evenodd"/><path stroke="#e69138" stroke-width="2.0" stroke-linejoin="round" stroke-linecap="butt" d="m317.67847 169.61679l19.84253 0" fill-rule="evenodd"/><path fill="#e69138" stroke="#e69138" stroke-width="2.0" stroke-linecap="butt" d="m317.67847 166.31334l-9.076172 3.3034515l9.076172 3.3034668z" fill-rule="evenodd"/><path fill="#e69138" stroke="#e69138" stroke-width="2.0" stroke-linecap="butt" d="m337.521 172.92026l9.076202 -3.3034668l-9.076202 -3.3034515z" fill-rule="evenodd"/><path fill="#efefef" d="m324.95834 154.95876c0 -0.837204 0.29626465 -1.5565186 0.88879395 -2.157959c0.5925293 -0.60383606 1.4842529 -0.9057617 2.6751404 -0.9057617c1.2495728 0 2.172577 0.30914307 2.7690125 0.92741394c0.5944824 0.61587524 0.89172363 1.356842 0.89172363 2.2229156c0 0.8516388 -0.28744507 1.5769653 -0.8623657 2.1759949c-0.5749512 0.5990448 -1.4637146 0.8985596 -2.6663513 0.8985596c-1.2026672 0 -2.118805 -0.31877136 -2.7485046 -0.95628357c-0.6316223 -0.63993835 -0.94744873 -1.3748932 -0.94744873 -2.2048798zm-1.2407532 -0.18403625c0 0.7505951 0.11929321 1.3893127 0.35784912 1.9161835c0.2366333 0.52685547 0.5925293 0.999588 1.0677185 1.4181824l-1.214386 0l0 1.7754517l12.926941 0l0 -1.9486694l-4.5494995 0c0.340271 -0.33198547 0.6218567 -0.7554016 0.8447876 -1.2702332c0.22293091 -0.5172272 0.3343811 -1.1006317 0.3343811 -1.7501831c0 -0.88772583 -0.20336914 -1.7333374 -0.6101074 -2.5368652c-0.40872192 -0.80592346 -0.9953613 -1.4193878 -1.7599792 -1.8403931c-0.7665405 -0.42341614 -1.6279602 -0.6351166 -2.584198 -0.6351166c-0.89172363 0 -1.7110901 0.19125366 -2.4580994 0.57377625c-0.7489624 0.38250732 -1.3287659 0.94906616 -1.7394409 1.6996613c-0.41064453 0.7505951 -0.6159668 1.6166534 -0.6159668 2.5982056z" fill-rule="evenodd"/><path fill="#efefef" d="m325.02875 142.88791c0 -0.9598999 0.29821777 -1.762207 0.8946533 -2.406952c0.5944824 -0.64715576 1.469574 -0.9707184 2.6252747 -0.9707184c1.2261353 0 2.1383667 0.321167 2.7367554 0.963501c0.5983887 0.642334 0.897583 1.447052 0.897583 2.4141693c0 0.9743347 -0.2972412 1.7826538 -0.89172363 2.4249878c-0.59643555 0.64234924 -1.493042 0.96351624 -2.6897888 0.96351624c-1.1967773 0 -2.0914307 -0.321167 -2.68396 -0.96351624c-0.5925293 -0.642334 -0.88879395 -1.4506531 -0.88879395 -2.4249878zm-1.3111572 0c0 1.4217987 0.34613037 2.6270752 1.0383606 3.6158447c0.83306885 1.1836243 2.1148987 1.7754364 3.8455505 1.7754364c1.5780945 0 2.7865906 -0.49557495 3.6255188 -1.4867554c0.8388977 -0.99357605 1.2583618 -2.2950745 1.2583618 -3.9045258c0 -1.0032043 -0.19064331 -1.9282074 -0.57199097 -2.7750397c-0.38131714 -0.8492279 -0.9161377 -1.495163 -1.6044922 -1.9378204c-0.6903076 -0.44506836 -1.6367798 -0.66760254 -2.8394165 -0.66760254c-1.4842224 0 -2.6467896 0.5016022 -3.487671 1.5047913c-0.84280396 1.0032043 -1.2642212 2.2950897 -1.2642212 3.8756714z" fill-rule="evenodd"/><path fill="#efefef" d="m323.7176 131.0011c0 0.4546814 0.10559082 0.8720856 0.31677246 1.2521973c0.21121216 0.3777008 0.6482544 0.7902832 1.3111877 1.2377472l-1.4167786 0l0 1.7537994l9.345428 0l0 -1.9486542l-4.8927 0c-0.6687927 0 -1.28479 -0.10826111 -1.8479614 -0.32478333c-0.3695984 -0.14434814 -0.65805054 -0.38612366 -0.8653259 -0.72532654c-0.20922852 -0.33921814 -0.3138733 -0.72172546 -0.3138733 -1.1475525c0 -0.47633362 0.1144104 -0.95266724 0.34320068 -1.4290161l-1.469574 -0.6712036c-0.34024048 0.678421 -0.510376 1.3460236 -0.510376 2.0027924zm-3.0535583 -5.4562454l0.9503784 1.9378357l2.3143616 0l0 1.4290085l1.2319946 0l0 -1.4290085l5.3766785 0c0.9503784 0 1.5741882 -0.07939148 1.8714294 -0.23817444c0.2952881 -0.15877533 0.5338745 -0.43302917 0.71572876 -0.82276154c0.18185425 -0.38973236 0.27279663 -0.93824005 0.27279663 -1.6455307c0 -0.4330368 -0.046936035 -0.92381287 -0.1408081 -1.4723206l-1.3991699 0.28147125c0.04107666 0.35364532 0.06161499 0.6387253 0.06161499 0.8552475c0 0.28868866 -0.038146973 0.5112152 -0.1144104 0.6675949c-0.07626343 0.15396118 -0.17892456 0.265831 -0.3079834 0.3356018c-0.12908936 0.067359924 -0.4194641 0.10103607 -0.8711853 0.10103607l-5.464691 0l0 -1.9594803l-1.2319946 0l0 1.9594803l-3.26474 0z" fill-rule="evenodd"/><path fill="#000000" fill-opacity="0.0" d="m296.76904 36.97638l67.49606 0l0 41.51181l-67.49606 0z" fill-rule="evenodd"/><path fill="#efefef" d="m307.1753 66.456375l0 -15.265621l1.875 0l0 5.46875q1.3125 -1.515625 3.3125 -1.515625q1.234375 0 2.140625 0.484375q0.90625 0.484375 1.296875 1.34375q0.390625 0.84375 0.390625 2.46875l0 7.015621l-1.875 0l0 -7.015621q0 -1.40625 -0.609375 -2.046875q-0.609375 -0.640625 -1.734375 -0.640625q-0.828125 0 -1.5625 0.4375q-0.734375 0.4375 -1.046875 1.171875q-0.3125 0.734375 -0.3125 2.046875l0 6.046871l-1.875 0zm11.846069 0l0 -11.062496l1.6875 0l0 1.671875q0.640625 -1.171875 1.1875 -1.546875q0.546875 -0.375 1.203125 -0.375q0.953125 0 1.921875 0.609375l-0.640625 1.734375q-0.6875 -0.40625 -1.375 -0.40625q-0.609375 0 -1.109375 0.375q-0.484375 0.359375 -0.6875 1.015625q-0.3125 1.0 -0.3125 2.1875l0 5.796871l-1.875 0zm14.696167 -3.5624962l1.921875 0.234375q-0.453125 1.7031212 -1.6875 2.6406212q-1.234375 0.9375 -3.171875 0.9375q-2.421875 0 -3.84375 -1.484375q-1.421875 -1.4999962 -1.421875 -4.203121q0 -2.796875 1.4375 -4.328125q1.4375 -1.546875 3.734375 -1.546875q2.21875 0 3.609375 1.515625q1.40625 1.5 1.40625 4.25q0 0.15625 0 0.5l-8.25 0q0.109375 1.8125 1.03125 2.7812462q0.921875 0.96875 2.3125 0.96875q1.03125 0 1.75 -0.53125q0.734375 -0.546875 1.171875 -1.7343712zm-6.15625 -3.03125l6.171875 0q-0.125 -1.390625 -0.703125 -2.09375q-0.90625 -1.078125 -2.328125 -1.078125q-1.296875 0 -2.171875 0.859375q-0.875 0.859375 -0.96875 2.3125zm10.892944 6.593746l0 -9.609371l-1.65625 0l0 -1.453125l1.65625 0l0 -1.171875q0 -1.109375 0.1875 -1.65625q0.28125 -0.734375 0.953125 -1.1875q0.6875 -0.453125 1.921875 -0.453125q0.78125 0 1.75 0.1875l-0.28125 1.640625q-0.59375 -0.109375 -1.109375 -0.109375q-0.859375 0 -1.21875 0.375q-0.34375 0.359375 -0.34375 1.359375l0 1.015625l2.15625 0l0 1.453125l-2.15625 0l0 9.609371l-1.859375 0z" fill-rule="nonzero"/><path fill="#000000" fill-opacity="0.0" d="m138.18898 126.93964l150.58269 0l0 41.51181l-150.58269 0z" fill-rule="evenodd"/><path fill="#efefef" d="m165.0914 156.41963l0 -15.265625l1.875 0l0 5.46875q1.3125 -1.515625 3.3125 -1.515625q1.234375 0 2.140625 0.484375q0.90625 0.484375 1.296875 1.34375q0.390625 0.84375 0.390625 2.46875l0 7.015625l-1.875 0l0 -7.015625q0 -1.40625 -0.609375 -2.046875q-0.609375 -0.640625 -1.734375 -0.640625q-0.828125 0 -1.5625 0.4375q-0.734375 0.4375 -1.046875 1.171875q-0.3125 0.734375 -0.3125 2.046875l0 6.046875l-1.875 0zm11.158569 -5.53125q0 -3.078125 1.71875 -4.546875q1.421875 -1.234375 3.46875 -1.234375q2.28125 0 3.71875 1.5q1.453125 1.484375 1.453125 4.125q0 2.140625 -0.640625 3.359375q-0.625 1.21875 -1.859375 1.90625q-1.21875 0.671875 -2.671875 0.671875q-2.3125 0 -3.75 -1.484375q-1.4375 -1.5 -1.4375 -4.296875zm1.9375 0q0 2.125 0.921875 3.1875q0.921875 1.046875 2.328125 1.046875q1.40625 0 2.328125 -1.0625q0.921875 -1.0625 0.921875 -3.234375q0 -2.046875 -0.9375 -3.109375q-0.921875 -1.0625 -2.3125 -1.0625q-1.40625 0 -2.328125 1.0625q-0.921875 1.046875 -0.921875 3.171875zm9.877319 2.234375l1.859375 -0.296875q0.15625 1.109375 0.859375 1.703125q0.71875 0.59375 2.0 0.59375q1.296875 0 1.921875 -0.515625q0.625 -0.53125 0.625 -1.234375q0 -0.640625 -0.5625 -1.0q-0.375 -0.25 -1.90625 -0.640625q-2.0625 -0.515625 -2.859375 -0.890625q-0.796875 -0.390625 -1.21875 -1.0625q-0.40625 -0.671875 -0.40625 -1.484375q0 -0.734375 0.328125 -1.359375q0.34375 -0.640625 0.9375 -1.0625q0.4375 -0.3125 1.1875 -0.53125q0.75 -0.234375 1.625 -0.234375q1.296875 0 2.28125 0.375q0.984375 0.375 1.453125 1.015625q0.46875 0.640625 0.640625 1.71875l-1.828125 0.25q-0.125 -0.859375 -0.734375 -1.328125q-0.59375 -0.484375 -1.6875 -0.484375q-1.28125 0 -1.84375 0.421875q-0.546875 0.421875 -0.546875 1.0q0 0.359375 0.234375 0.65625q0.21875 0.296875 0.71875 0.5q0.28125 0.109375 1.65625 0.484375q1.984375 0.53125 2.765625 0.875q0.796875 0.328125 1.234375 0.984375q0.453125 0.640625 0.453125 1.59375q0 0.9375 -0.546875 1.765625q-0.546875 0.828125 -1.578125 1.28125q-1.03125 0.453125 -2.328125 0.453125q-2.15625 0 -3.296875 -0.890625q-1.125 -0.90625 -1.4375 -2.65625zm15.5078125 1.625l0.265625 1.65625q-0.78125 0.15625 -1.40625 0.15625q-1.03125 0 -1.59375 -0.3125q-0.5625 -0.328125 -0.796875 -0.84375q-0.21875 -0.53125 -0.21875 -2.21875l0 -6.375l-1.375 0l0 -1.453125l1.375 0l0 -2.734375l1.859375 -1.125l0 3.859375l1.890625 0l0 1.453125l-1.890625 0l0 6.46875q0 0.8125 0.09375 1.046875q0.109375 0.21875 0.328125 0.359375q0.234375 0.125 0.640625 0.125q0.3125 0 0.828125 -0.0625zm7.757538 1.671875l0 -11.0625l1.6875 0l0 1.578125q1.21875 -1.828125 3.515625 -1.828125q1.0 0 1.84375 0.359375q0.84375 0.359375 1.25 0.953125q0.421875 0.578125 0.59375 1.375q0.09375 0.515625 0.09375 1.828125l0 6.796875l-1.875 0l0 -6.734375q0 -1.140625 -0.21875 -1.703125q-0.21875 -0.578125 -0.78125 -0.90625q-0.546875 -0.34375 -1.296875 -0.34375q-1.203125 0 -2.078125 0.765625q-0.859375 0.75 -0.859375 2.875l0 6.046875l-1.875 0zm19.080444 -1.359375q-1.046875 0.875 -2.015625 1.25q-0.953125 0.359375 -2.0625 0.359375q-1.8125 0 -2.796875 -0.890625q-0.984375 -0.890625 -0.984375 -2.28125q0 -0.8125 0.375 -1.484375q0.375 -0.671875 0.96875 -1.078125q0.59375 -0.40625 1.34375 -0.609375q0.5625 -0.140625 1.671875 -0.28125q2.265625 -0.265625 3.34375 -0.640625q0.015625 -0.390625 0.015625 -0.5q0 -1.140625 -0.53125 -1.609375q-0.71875 -0.640625 -2.140625 -0.640625q-1.328125 0 -1.953125 0.46875q-0.625 0.46875 -0.9375 1.640625l-1.828125 -0.25q0.25 -1.171875 0.8125 -1.890625q0.578125 -0.734375 1.65625 -1.125q1.09375 -0.390625 2.515625 -0.390625q1.421875 0 2.296875 0.34375q0.890625 0.328125 1.3125 0.828125q0.421875 0.5 0.578125 1.28125q0.09375 0.46875 0.09375 1.71875l0 2.5q0 2.625 0.125 3.3125q0.125 0.6875 0.46875 1.328125l-1.953125 0q-0.296875 -0.578125 -0.375 -1.359375zm-0.15625 -4.1875q-1.015625 0.40625 -3.0625 0.703125q-1.15625 0.171875 -1.640625 0.375q-0.46875 0.203125 -0.734375 0.609375q-0.265625 0.40625 -0.265625 0.890625q0 0.75 0.5625 1.25q0.578125 0.5 1.671875 0.5q1.078125 0 1.921875 -0.46875q0.84375 -0.484375 1.25 -1.296875q0.296875 -0.640625 0.296875 -1.875l0 -0.6875zm4.7991943 5.546875l0 -11.0625l1.671875 0l0 1.546875q0.53125 -0.8125 1.390625 -1.296875q0.859375 -0.5 1.96875 -0.5q1.234375 0 2.015625 0.515625q0.78125 0.5 1.109375 1.421875q1.3125 -1.9375 3.40625 -1.9375q1.65625 0 2.53125 0.921875q0.890625 0.90625 0.890625 2.796875l0 7.59375l-1.859375 0l0 -6.96875q0 -1.125 -0.1875 -1.609375q-0.1875 -0.5 -0.671875 -0.796875q-0.46875 -0.3125 -1.109375 -0.3125q-1.171875 0 -1.9375 0.78125q-0.765625 0.765625 -0.765625 2.484375l0 6.421875l-1.875 0l0 -7.1875q0 -1.25 -0.46875 -1.875q-0.453125 -0.625 -1.5 -0.625q-0.78125 0 -1.453125 0.421875q-0.671875 0.40625 -0.984375 1.21875q-0.296875 0.796875 -0.296875 2.3125l0 5.734375l-1.875 0zm25.344635 -3.5625l1.921875 0.234375q-0.453125 1.703125 -1.6875 2.640625q-1.234375 0.9375 -3.171875 0.9375q-2.4218903 0 -3.8437653 -1.484375q-1.421875 -1.5 -1.421875 -4.203125q0 -2.796875 1.4375 -4.328125q1.4375 -1.546875 3.7343903 -1.546875q2.21875 0 3.609375 1.515625q1.40625 1.5 1.40625 4.25q0 0.15625 0 0.5l-8.250015 0q0.109375 1.8125 1.03125 2.78125q0.92189026 0.96875 2.3125153 0.96875q1.03125 0 1.75 -0.53125q0.734375 -0.546875 1.171875 -1.734375zm-6.1562653 -3.03125l6.1718903 0q-0.125 -1.390625 -0.703125 -2.09375q-0.90625 -1.078125 -2.328125 -1.078125q-1.296875 0 -2.1718903 0.859375q-0.875 0.859375 -0.96875 2.3125z" fill-rule="nonzero"/><path fill="#000000" fill-opacity="0.0" d="m369.38058 121.15748l114.33069 0l0 47.30709l-114.33069 0z" fill-rule="evenodd"/><path fill="#efefef" d="m407.1968 154.87186l0 -15.296875l1.703125 0l0 1.4375q0.609375 -0.84375 1.359375 -1.265625q0.765625 -0.421875 1.859375 -0.421875q1.40625 0 2.484375 0.734375q1.09375 0.71875 1.640625 2.046875q0.546875 1.328125 0.546875 2.921875q0 1.6875 -0.609375 3.046875q-0.59375 1.359375 -1.765625 2.09375q-1.15625 0.71875 -2.4375 0.71875q-0.9375 0 -1.6875 -0.390625q-0.734375 -0.40625 -1.21875 -1.0l0 5.375l-1.875 0zm1.703125 -9.703125q0 2.140625 0.859375 3.15625q0.859375 1.015625 2.09375 1.015625q1.25 0 2.140625 -1.046875q0.890625 -1.0625 0.890625 -3.28125q0 -2.109375 -0.875 -3.15625q-0.859375 -1.0625 -2.078125 -1.0625q-1.1875 0 -2.109375 1.125q-0.921875 1.109375 -0.921875 3.25zm17.37732 4.109375q-1.046875 0.875 -2.015625 1.25q-0.953125 0.359375 -2.0625 0.359375q-1.8125 0 -2.796875 -0.890625q-0.984375 -0.890625 -0.984375 -2.28125q0 -0.8125 0.375 -1.484375q0.375 -0.671875 0.96875 -1.078125q0.59375 -0.40625 1.34375 -0.609375q0.5625 -0.140625 1.671875 -0.28125q2.265625 -0.265625 3.34375 -0.640625q0.015625 -0.390625 0.015625 -0.5q0 -1.140625 -0.53125 -1.609375q-0.71875 -0.640625 -2.140625 -0.640625q-1.328125 0 -1.953125 0.46875q-0.625 0.46875 -0.9375 1.640625l-1.828125 -0.25q0.25 -1.171875 0.8125 -1.890625q0.578125 -0.734375 1.65625 -1.125q1.09375 -0.390625 2.515625 -0.390625q1.421875 0 2.296875 0.34375q0.890625 0.328125 1.3125 0.828125q0.421875 0.5 0.578125 1.28125q0.09375 0.46875 0.09375 1.71875l0 2.5q0 2.625 0.125 3.3125q0.125 0.6875 0.46875 1.328125l-1.953125 0q-0.296875 -0.578125 -0.375 -1.359375zm-0.15625 -4.1875q-1.015625 0.40625 -3.0625 0.703125q-1.15625 0.171875 -1.640625 0.375q-0.46875 0.203125 -0.734375 0.609375q-0.265625 0.40625 -0.265625 0.890625q0 0.75 0.5625 1.25q0.578125 0.5 1.671875 0.5q1.078125 0 1.921875 -0.46875q0.84375 -0.484375 1.25 -1.296875q0.296875 -0.640625 0.296875 -1.875l0 -0.6875zm8.892944 3.875l0.265625 1.65625q-0.78125 0.15625 -1.40625 0.15625q-1.03125 0 -1.59375 -0.3125q-0.5625 -0.328125 -0.796875 -0.84375q-0.21875 -0.53125 -0.21875 -2.21875l0 -6.375l-1.375 0l0 -1.453125l1.375 0l0 -2.734375l1.859375 -1.125l0 3.859375l1.890625 0l0 1.453125l-1.890625 0l0 6.46875q0 0.8125 0.09375 1.046875q0.109375 0.21875 0.328125 0.359375q0.234375 0.125 0.640625 0.125q0.3125 0 0.828125 -0.0625zm1.8319092 1.671875l0 -15.265625l1.875 0l0 5.46875q1.3125 -1.515625 3.3125 -1.515625q1.234375 0 2.140625 0.484375q0.90625 0.484375 1.296875 1.34375q0.390625 0.84375 0.390625 2.46875l0 7.015625l-1.875 0l0 -7.015625q0 -1.40625 -0.609375 -2.046875q-0.609375 -0.640625 -1.734375 -0.640625q-0.828125 0 -1.5625 0.4375q-0.734375 0.4375 -1.046875 1.171875q-0.3125 0.734375 -0.3125 2.046875l0 6.046875l-1.875 0z" fill-rule="nonzero"/><path fill="#000000" fill-opacity="0.0" d="m511.80972 126.938324l150.58267 0l0 41.51181l-150.58267 0z" fill-rule="evenodd"/><path fill="#efefef" d="m545.6897 156.41832l0 -9.609375l-1.65625 0l0 -1.453125l1.65625 0l0 -1.171875q0 -1.109375 0.1875 -1.65625q0.28125 -0.734375 0.953125 -1.1875q0.6875 -0.453125 1.921875 -0.453125q0.78125 0 1.75 0.1875l-0.28125 1.640625q-0.59375 -0.109375 -1.109375 -0.109375q-0.859375 0 -1.21875 0.375q-0.34375 0.359375 -0.34375 1.359375l0 1.015625l2.15625 0l0 1.453125l-2.15625 0l0 9.609375l-1.859375 0zm5.488159 -13.109375l0 -2.15625l1.875 0l0 2.15625l-1.875 0zm0 13.109375l0 -11.0625l1.875 0l0 11.0625l-1.875 0zm4.6759033 0l0 -15.265625l1.875 0l0 15.265625l-1.875 0zm12.363464 -3.5625l1.921875 0.234375q-0.453125 1.703125 -1.6875 2.640625q-1.234375 0.9375 -3.171875 0.9375q-2.421875 0 -3.84375 -1.484375q-1.421875 -1.5 -1.421875 -4.203125q0 -2.796875 1.4375 -4.328125q1.4375 -1.546875 3.734375 -1.546875q2.21875 0 3.609375 1.515625q1.40625 1.5 1.40625 4.25q0 0.15625 0 0.5l-8.25 0q0.109375 1.8125 1.03125 2.78125q0.921875 0.96875 2.3125 0.96875q1.03125 0 1.75 -0.53125q0.734375 -0.546875 1.171875 -1.734375zm-6.15625 -3.03125l6.171875 0q-0.125 -1.390625 -0.703125 -2.09375q-0.90625 -1.078125 -2.328125 -1.078125q-1.296875 0 -2.171875 0.859375q-0.875 0.859375 -0.96875 2.3125zm16.365479 6.59375l0 -11.0625l1.6875 0l0 1.578125q1.21875 -1.828125 3.515625 -1.828125q1.0 0 1.84375 0.359375q0.84375 0.359375 1.25 0.953125q0.421875 0.578125 0.59375 1.375q0.09375 0.515625 0.09375 1.828125l0 6.796875l-1.875 0l0 -6.734375q0 -1.140625 -0.21875 -1.703125q-0.21875 -0.578125 -0.78125 -0.90625q-0.546875 -0.34375 -1.296875 -0.34375q-1.203125 0 -2.078125 0.765625q-0.859375 0.75 -0.859375 2.875l0 6.046875l-1.875 0zm19.080444 -1.359375q-1.046875 0.875 -2.015625 1.25q-0.953125 0.359375 -2.0625 0.359375q-1.8125 0 -2.796875 -0.890625q-0.984375 -0.890625 -0.984375 -2.28125q0 -0.8125 0.375 -1.484375q0.375 -0.671875 0.96875 -1.078125q0.59375 -0.40625 1.34375 -0.609375q0.5625 -0.140625 1.671875 -0.28125q2.265625 -0.265625 3.34375 -0.640625q0.015625 -0.390625 0.015625 -0.5q0 -1.140625 -0.53125 -1.609375q-0.71875 -0.640625 -2.140625 -0.640625q-1.328125 0 -1.953125 0.46875q-0.625 0.46875 -0.9375 1.640625l-1.828125 -0.25q0.25 -1.171875 0.8125 -1.890625q0.578125 -0.734375 1.65625 -1.125q1.09375 -0.390625 2.515625 -0.390625q1.421875 0 2.296875 0.34375q0.890625 0.328125 1.3125 0.828125q0.421875 0.5 0.578125 1.28125q0.09375 0.46875 0.09375 1.71875l0 2.5q0 2.625 0.125 3.3125q0.125 0.6875 0.46875 1.328125l-1.953125 0q-0.296875 -0.578125 -0.375 -1.359375zm-0.15625 -4.1875q-1.015625 0.40625 -3.0625 0.703125q-1.15625 0.171875 -1.640625 0.375q-0.46875 0.203125 -0.734375 0.609375q-0.265625 0.40625 -0.265625 0.890625q0 0.75 0.5625 1.25q0.578125 0.5 1.671875 0.5q1.078125 0 1.921875 -0.46875q0.84375 -0.484375 1.25 -1.296875q0.296875 -0.640625 0.296875 -1.875l0 -0.6875zm4.7991943 5.546875l0 -11.0625l1.671875 0l0 1.546875q0.53125 -0.8125 1.390625 -1.296875q0.859375 -0.5 1.96875 -0.5q1.234375 0 2.015625 0.515625q0.78125 0.5 1.109375 1.421875q1.3125 -1.9375 3.40625 -1.9375q1.65625 0 2.53125 0.921875q0.890625 0.90625 0.890625 2.796875l0 7.59375l-1.859375 0l0 -6.96875q0 -1.125 -0.1875 -1.609375q-0.1875 -0.5 -0.671875 -0.796875q-0.46875 -0.3125 -1.109375 -0.3125q-1.171875 0 -1.9375 0.78125q-0.765625 0.765625 -0.765625 2.484375l0 6.421875l-1.875 0l0 -7.1875q0 -1.25 -0.46875 -1.875q-0.453125 -0.625 -1.5 -0.625q-0.78125 0 -1.453125 0.421875q-0.671875 0.40625 -0.984375 1.21875q-0.296875 0.796875 -0.296875 2.3125l0 5.734375l-1.875 0zm25.344604 -3.5625l1.921875 0.234375q-0.453125 1.703125 -1.6875 2.640625q-1.234375 0.9375 -3.171875 0.9375q-2.421875 0 -3.84375 -1.484375q-1.421875 -1.5 -1.421875 -4.203125q0 -2.796875 1.4375 -4.328125q1.4375 -1.546875 3.734375 -1.546875q2.21875 0 3.609375 1.515625q1.40625 1.5 1.40625 4.25q0 0.15625 0 0.5l-8.25 0q0.109375 1.8125 1.03125 2.78125q0.921875 0.96875 2.3125 0.96875q1.03125 0 1.75 -0.53125q0.734375 -0.546875 1.171875 -1.734375zm-6.15625 -3.03125l6.171875 0q-0.125 -1.390625 -0.703125 -2.09375q-0.90625 -1.078125 -2.328125 -1.078125q-1.296875 0 -2.171875 0.859375q-0.875 0.859375 -0.96875 2.3125z" fill-rule="nonzero"/><path fill="#efefef" d="m27.17863 146.86705c0.7450104 0 1.3851185 0.3509674 1.9203281 1.0529175c0.5373478 0.7019348 0.80602264 1.7583313 0.80602264 3.169159c0 1.4803314 -0.2750969 2.5737762 -0.8252907 3.2803497c-0.54805565 0.7042694 -1.2074299 1.0563965 -1.9781303 1.0563965c-0.75785446 0 -1.4033165 -0.34054565 -1.9363842 -1.021637c-0.5330677 -0.6810913 -0.7996006 -1.7340088 -0.7996006 -3.1587372c0 -1.4247284 0.28365898 -2.5100708 0.85098076 -3.2560425c0.5694599 -0.7482605 1.223486 -1.122406 1.9620743 -1.122406zm0.16377258 -1.4699097c-0.66794014 0 -1.23633 0.1413269 -1.7051735 0.4239502c-0.46884155 0.2803192 -0.88951683 0.7019348 -1.2620201 1.2648773l0 -1.4386292l-1.579937 0l0 15.314133l1.7340755 0l0 -5.3896484c0.29543495 0.40309143 0.67222214 0.7366791 1.1303616 1.0007782c0.46027756 0.26409912 0.97943115 0.39614868 1.5574551 0.39614868c0.7899685 0 1.542469 -0.24093628 2.2575092 -0.7227936c0.71717834 -0.48417664 1.2630901 -1.1791687 1.6377373 -2.0849762c0.3767872 -0.9081116 0.5651798 -1.9285889 0.5651798 -3.061432c0 -1.0563812 -0.17019463 -2.0270538 -0.5105877 -2.9120178c-0.34039307 -0.88726807 -0.8445587 -1.5741425 -1.5124989 -2.0606384c-0.66794014 -0.48649597 -1.4386406 -0.7297516 -2.3121014 -0.7297516z" fill-rule="evenodd"/><path fill="#efefef" d="m37.52528 145.39714c-0.4046173 0 -0.7760544 0.12510681 -1.1143036 0.37530518c-0.33611298 0.25019836 -0.70326614 0.7679596 -1.1014595 1.553299l0 -1.6784058l-1.560669 0l0 11.071213l1.7340775 0l0 -5.796219c0 -0.79229736 0.096336365 -1.5220337 0.2890091 -2.1892242c0.1284523 -0.43785095 0.34360504 -0.7795563 0.64546204 -1.025116c0.301857 -0.24787903 0.64225006 -0.37182617 1.0211792 -0.37182617c0.42388535 0 0.8477707 0.13552856 1.271656 0.40657043l0.59729004 -1.7409515c-0.603714 -0.40309143 -1.1977959 -0.6046448 -1.7822418 -0.6046448z" fill-rule="evenodd"/><path fill="#efefef" d="m44.490482 146.95045c0.8541908 0 1.5681572 0.35328674 2.141903 1.0598602c0.57588196 0.70425415 0.86382675 1.7409515 0.86382675 3.110077c0 1.4525452 -0.28580093 2.533249 -0.8574066 3.2421417c-0.57160187 0.7088928 -1.2877083 1.0633392 -2.148323 1.0633392c-0.8670387 0 -1.5863609 -0.35212708 -2.1579628 -1.0563965c-0.57160187 -0.7065735 -0.8574028 -1.768753 -0.8574028 -3.1865234c0 -1.4177856 0.28580093 -2.4776459 0.8574028 -3.179596c0.57160187 -0.7019348 1.2909241 -1.0529022 2.1579628 -1.0529022zm0 -1.5533142c-1.2652359 0 -2.3377914 0.41004944 -3.2176743 1.230133c-1.0532913 0.9868927 -1.579937 2.5054474 -1.579937 4.5556793c0 1.8695221 0.44101334 3.3012085 1.3230362 4.295044c0.8841667 0.99383545 2.0423546 1.4907532 3.474575 1.4907532c0.8927269 0 1.7158775 -0.22587585 2.469448 -0.6776123c0.7557144 -0.4517517 1.3305283 -1.0853424 1.7244415 -1.9008026c0.39605713 -0.81777954 0.5940819 -1.9390259 0.5940819 -3.3637543c0 -1.7583313 -0.44636154 -3.1355743 -1.3390884 -4.131729c-0.8927307 -0.9984741 -2.0423584 -1.4977112 -3.448883 -1.4977112z" fill-rule="evenodd"/><path fill="#efefef" d="m53.35353 141.77971l-1.7244415 1.1259003l0 2.7417297l-1.271656 0l0 1.4594879l1.271656 0l0 6.3695984c0 1.125885 0.07064819 1.8648834 0.21194458 2.2170105c0.14129257 0.349823 0.38534927 0.6324463 0.7321625 0.8479004c0.34681702 0.21543884 0.8349266 0.3231659 1.4643326 0.3231659c0.38534927 0 0.8220787 -0.055603027 1.3101883 -0.16679382l-0.25047684 -1.6575623c-0.31470108 0.04866028 -0.5683899 0.07298279 -0.76106644 0.07298279c-0.2569008 0 -0.45492554 -0.045181274 -0.5940819 -0.13552856c-0.13701248 -0.09034729 -0.23656082 -0.2119751 -0.29864502 -0.36486816c-0.059944153 -0.15289307 -0.08991623 -0.49691772 -0.08991623 -1.0320587l0 -6.4738464l1.7437096 0l0 -1.4594879l-1.7437096 0l0 -3.86763z" fill-rule="evenodd"/><path fill="#efefef" d="m60.944927 146.95045c0.85419464 0 1.568161 0.35328674 2.141903 1.0598602c0.5758858 0.70425415 0.86382675 1.7409515 0.86382675 3.110077c0 1.4525452 -0.28580093 2.533249 -0.8574028 3.2421417c-0.57160187 0.7088928 -1.2877121 1.0633392 -2.1483269 1.0633392c-0.8670387 0 -1.5863571 -0.35212708 -2.157959 -1.0563965c-0.57160187 -0.7065735 -0.8574066 -1.768753 -0.8574066 -3.1865234c0 -1.4177856 0.28580475 -2.4776459 0.8574066 -3.179596c0.57160187 -0.7019348 1.2909203 -1.0529022 2.157959 -1.0529022zm0 -1.5533142c-1.2652321 0 -2.3377914 0.41004944 -3.2176743 1.230133c-1.0532875 0.9868927 -1.5799332 2.5054474 -1.5799332 4.5556793c0 1.8695221 0.44100952 3.3012085 1.3230362 4.295044c0.8841629 0.99383545 2.0423546 1.4907532 3.4745712 1.4907532c0.8927269 0 1.7158775 -0.22587585 2.469452 -0.6776123c0.7557106 -0.4517517 1.3305244 -1.0853424 1.7244377 -1.9008026c0.39605713 -0.81777954 0.5940857 -1.9390259 0.5940857 -3.3637543c0 -1.7583313 -0.44636536 -3.1355743 -1.3390961 -4.131729c-0.8927231 -0.9984741 -2.0423508 -1.4977112 -3.4488792 -1.4977112z" fill-rule="evenodd"/><path fill="#efefef" d="m71.8985 145.39714c-0.8798752 0 -1.6944656 0.22471619 -2.443756 0.67414856c-0.74715424 0.44711304 -1.303772 1.118927 -1.6698532 2.0154724c-0.36608124 0.8965454 -0.5491257 1.9425049 -0.5491257 3.1378937c0 1.8486633 0.42495728 3.2687683 1.2748718 4.2602844c0.8520508 0.98921204 1.9781265 1.4838104 3.3782349 1.4838104c1.1175156 0 2.0594788 -0.35908508 2.8258972 -1.07724c0.7685623 -0.72047424 1.245964 -1.716629 1.4322205 -2.9884644l-1.7051773 -0.23976135c-0.122024536 0.9382324 -0.41104126 1.6332245 -0.8670349 2.0849762c-0.45600128 0.45173645 -1.0243912 0.6776123 -1.7051773 0.6776123c-0.8477707 0 -1.5349731 -0.33706665 -2.0616226 -1.0112152c-0.52664185 -0.67414856 -0.78996277 -1.7548523 -0.78996277 -3.2421417c0 -1.4664307 0.27295685 -2.5378723 0.8188629 -3.214325c0.5459137 -0.678772 1.2556 -1.018158 2.1290588 -1.018158c0.5780258 0 1.0704193 0.18763733 1.4771805 0.5629425c0.4088974 0.37528992 0.6936264 0.9347534 0.85419464 1.6783905l1.6859055 -0.28146362c-0.19909668 -1.1189423 -0.651886 -1.9818878 -1.3583603 -2.5888367c-0.7064743 -0.60928345 -1.6152573 -0.9139252 -2.7263565 -0.9139252z" fill-rule="evenodd"/><path fill="#efefef" d="m81.78273 146.95045c0.85419464 0 1.568161 0.35328674 2.1419067 1.0598602c0.57588196 0.70425415 0.86382294 1.7409515 0.86382294 3.110077c0 1.4525452 -0.28579712 2.533249 -0.857399 3.2421417c-0.5716095 0.7088928 -1.2877121 1.0633392 -2.1483307 1.0633392c-0.8670349 0 -1.5863571 -0.35212708 -2.157959 -1.0563965c-0.57160187 -0.7065735 -0.8574066 -1.768753 -0.8574066 -3.1865234c0 -1.4177856 0.28580475 -2.4776459 0.8574066 -3.179596c0.57160187 -0.7019348 1.2909241 -1.0529022 2.157959 -1.0529022zm0 -1.5533142c-1.2652359 0 -2.3377914 0.41004944 -3.2176743 1.230133c-1.0532913 0.9868927 -1.5799332 2.5054474 -1.5799332 4.5556793c0 1.8695221 0.44100952 3.3012085 1.3230362 4.295044c0.8841629 0.99383545 2.0423508 1.4907532 3.4745712 1.4907532c0.8927307 0 1.7158737 -0.22587585 2.469452 -0.6776123c0.7557144 -0.4517517 1.3305283 -1.0853424 1.7244415 -1.9008026c0.3960495 -0.81777954 0.59407806 -1.9390259 0.59407806 -3.3637543c0 -1.7583313 -0.44635773 -3.1355743 -1.3390884 -4.131729c-0.8927307 -0.9984741 -2.0423584 -1.4977112 -3.448883 -1.4977112z" fill-rule="evenodd"/><path fill="#efefef" d="m88.56489 141.4357l0 15.282852l1.7340775 0l0 -15.282852z" fill-rule="evenodd"/></g></svg>