<svg version="1.1" viewBox="0.0 0.0 608.8713910761155 292.4225721784777" fill="none" stroke="none" stroke-linecap="square" stroke-miterlimit="10" xmlns:xlink="http://www.w3.org/1999/xlink" xmlns="http://www.w3.org/2000/svg"><clipPath id="p.0"><path d="m0 0l608.8714 0l0 292.42258l-608.8714 0l0 -292.42258z" clip-rule="nonzero"/></clipPath><g clip-path="url(#p.0)"><path fill="#000000" fill-opacity="0.0" d="m0 0l608.8714 0l0 292.42258l-608.8714 0z" fill-rule="evenodd"/><path fill="#000000" fill-opacity="0.0" d="m303.45532 56.952755l0 34.005444l152.50394 0l0 33.99456" fill-rule="evenodd"/><path stroke="#c2c2c2" stroke-width="2.0" stroke-miterlimit="8.0" stroke-linecap="butt" d="m303.45532 56.952755l0 34.005444l152.50394 0l0 33.99456" fill-rule="evenodd"/><path fill="#000000" fill-opacity="0.0" d="m150.993 124.96326l0 -34.00544l152.47243 0l0 -33.994564" fill-rule="evenodd"/><path stroke="#c2c2c2" stroke-width="2.0" stroke-miterlimit="8.0" stroke-linecap="butt" d="m150.993 124.96326l0 -34.00544l152.47243 0l0 -33.994564" fill-rule="evenodd"/><path fill="#000000" fill-opacity="0.0" d="m150.993 163.41995l0 36.0l72.81889 0l0 36.0" fill-rule="evenodd"/><path stroke="#c2c2c2" stroke-width="2.0" stroke-miterlimit="8.0" stroke-linecap="butt" d="m150.993 163.41995l0 36.0l72.81889 0l0 36.0" fill-rule="evenodd"/><path fill="#000000" fill-opacity="0.0" d="m78.18635 235.41995l0 -36.0l72.8189 0l0 -36.0" fill-rule="evenodd"/><path stroke="#c2c2c2" stroke-width="2.0" stroke-miterlimit="8.0" stroke-linecap="butt" d="m78.18635 235.41995l0 -36.0l72.8189 0l0 -36.0" fill-rule="evenodd"/><path fill="#000000" fill-opacity="0.0" d="m455.9669 163.41995l0 36.0l72.81888 0l0 36.0" fill-rule="evenodd"/><path stroke="#c2c2c2" stroke-width="2.0" stroke-miterlimit="8.0" stroke-linecap="butt" d="m455.9669 163.41995l0 36.0l72.81888 0l0 36.0" fill-rule="evenodd"/><path fill="#000000" fill-opacity="0.0" d="m383.16025 235.41995l0 -36.0l72.81891 0l0 -36.0" fill-rule="evenodd"/><path stroke="#c2c2c2" stroke-width="2.0" stroke-miterlimit="8.0" stroke-linecap="butt" d="m383.16025 235.41995l0 -36.0l72.81891 0l0 -36.0" fill-rule="evenodd"/><path fill="#fce5cd" d="m237.1246 18.496063l132.6614 0l0 38.45669l-132.6614 0z" fill-rule="evenodd"/><path stroke="#a72a1e" stroke-width="2.0" stroke-linejoin="round" stroke-linecap="butt" d="m237.1246 18.496063l132.6614 0l0 38.45669l-132.6614 0z" fill-rule="evenodd"/><path fill="#a72a1e" d="m292.66733 38.008785q0 1.390625 -0.5 2.453125q-0.484375 1.046875 -1.40625 1.625q-0.921875 0.5625 -2.109375 0.5625q-1.1875 0 -2.109375 -0.5625q-0.921875 -0.5625 -1.4375 -1.609375q-0.5 -1.0625 -0.5 -2.421875l0 -0.46875q0 -1.40625 0.5 -2.46875q0.5 -1.0625 1.421875 -1.625q0.921875 -0.578125 2.109375 -0.578125q1.1875 0 2.109375 0.578125q0.921875 0.5625 1.421875 1.625q0.5 1.0625 0.5 2.453125l0 0.4375zm-1.96875 -0.4375q0 -1.484375 -0.546875 -2.25q-0.53125 -0.78125 -1.515625 -0.78125q-0.984375 0 -1.515625 0.765625q-0.53125 0.75 -0.546875 2.234375l0 0.46875q0 1.4375 0.53125 2.25q0.546875 0.796875 1.546875 0.796875q0.984375 0 1.5 -0.765625q0.53125 -0.78125 0.546875 -2.25l0 -0.46875zm9.608368 1.5q0 1.6875 -0.71875 2.640625q-0.71875 0.9375 -2.015625 0.9375q-1.140625 0 -1.828125 -0.875l-0.078125 0.75l-1.703125 0l0 -10.0l1.890625 0l0 3.59375q0.640625 -0.765625 1.703125 -0.765625q1.296875 0 2.015625 0.953125q0.734375 0.9375 0.734375 2.65625l0 0.109375zm-1.875 -0.140625q0 -1.0625 -0.34375 -1.546875q-0.328125 -0.5 -1.0 -0.5q-0.90625 0 -1.234375 0.734375l0 2.78125q0.34375 0.734375 1.25 0.734375q0.90625 0 1.1875 -0.890625q0.140625 -0.4375 0.140625 -1.3125zm5.034851 -3.453125l0 7.4375q0 1.15625 -0.625 1.796875q-0.609375 0.65625 -1.78125 0.65625q-0.484375 0 -0.9375 -0.109375l0 -1.484375q0.34375 0.046875 0.59375 0.046875q0.859375 0 0.859375 -0.90625l0 -7.4375l1.890625 0zm-2.046875 -1.8125q0 -0.421875 0.28125 -0.6875q0.296875 -0.28125 0.78125 -0.28125q0.484375 0 0.765625 0.28125q0.28125 0.265625 0.28125 0.6875q0 0.421875 -0.296875 0.703125q-0.28125 0.265625 -0.765625 0.265625q-0.46875 0 -0.765625 -0.265625q-0.28125 -0.28125 -0.28125 -0.703125zm6.7590637 8.984375q-1.546875 0 -2.53125 -0.9375q-0.96875 -0.953125 -0.96875 -2.53125l0 -0.1875q0 -1.0625 0.40625 -1.890625q0.40625 -0.84375 1.15625 -1.296875q0.765625 -0.453125 1.71875 -0.453125q1.453125 0 2.28125 0.921875q0.828125 0.90625 0.828125 2.578125l0 0.765625l-4.484375 0q0.09375 0.6875 0.546875 1.109375q0.46875 0.40625 1.171875 0.40625q1.078125 0 1.6875 -0.78125l0.921875 1.03125q-0.421875 0.59375 -1.140625 0.9375q-0.71875 0.328125 -1.59375 0.328125zm-0.21875 -5.78125q-0.5625 0 -0.90625 0.390625q-0.34375 0.375 -0.453125 1.078125l2.625 0l0 -0.15625q-0.015625 -0.625 -0.34375 -0.96875q-0.328125 -0.34375 -0.921875 -0.34375zm7.1104736 4.265625q0.515625 0 0.84375 -0.28125q0.328125 -0.28125 0.328125 -0.765625l1.765625 0q0 0.71875 -0.390625 1.3125q-0.375 0.59375 -1.046875 0.921875q-0.671875 0.328125 -1.46875 0.328125q-1.515625 0 -2.390625 -0.953125q-0.875 -0.96875 -0.875 -2.65625l0 -0.125q0 -1.625 0.859375 -2.59375q0.875 -0.96875 2.390625 -0.96875q1.3125 0 2.109375 0.75q0.8125 0.75 0.8125 2.0l-1.765625 0q0 -0.546875 -0.328125 -0.890625q-0.328125 -0.34375 -0.859375 -0.34375q-0.65625 0 -1.0 0.484375q-0.328125 0.484375 -0.328125 1.546875l0 0.203125q0 1.078125 0.328125 1.5625q0.328125 0.46875 1.015625 0.46875zm6.262909 -7.375l0 1.71875l1.203125 0l0 1.390625l-1.203125 0l0 3.515625q0 0.390625 0.15625 0.5625q0.15625 0.15625 0.578125 0.15625q0.3125 0 0.546875 -0.046875l0 1.4375q-0.546875 0.15625 -1.140625 0.15625q-1.984375 0 -2.015625 -2.0l0 -3.78125l-1.03125 0l0 -1.390625l1.03125 0l0 -1.71875l1.875 0z" fill-rule="nonzero"/><path fill="#c9daf8" d="m84.74102 124.96326l132.50394 0l0 38.456696l-132.50394 0z" fill-rule="evenodd"/><path stroke="#a72a1e" stroke-width="2.0" stroke-linejoin="round" stroke-linecap="butt" d="m84.74102 124.96326l132.50394 0l0 38.456696l-132.50394 0z" fill-rule="evenodd"/><path fill="#a72a1e" d="m118.77021 148.99161l0 -9.46875l3.328125 0q1.71875 0 2.609375 0.65625q0.890625 0.65625 0.890625 1.9375q0 0.6875 -0.359375 1.21875q-0.359375 0.53125 -1.0 0.78125q0.734375 0.1875 1.15625 0.75q0.421875 0.546875 0.421875 1.34375q0 1.359375 -0.875 2.0625q-0.875 0.703125 -2.484375 0.71875l-3.6875 0zm1.953125 -4.125l0 2.5625l1.671875 0q0.6875 0 1.078125 -0.328125q0.390625 -0.328125 0.390625 -0.921875q0 -1.296875 -1.34375 -1.3125l-1.796875 0zm0 -1.375l1.453125 0q1.46875 -0.03125 1.46875 -1.1875q0 -0.640625 -0.375 -0.921875q-0.375 -0.28125 -1.171875 -0.28125l-1.375 0l0 2.390625zm10.505806 5.5q-0.125 -0.25 -0.1875 -0.625q-0.671875 0.75 -1.765625 0.75q-1.046875 0 -1.7343826 -0.59375q-0.671875 -0.59375 -0.671875 -1.515625q0 -1.109375 0.828125 -1.703125q0.8437576 -0.609375 2.4062576 -0.609375l0.859375 0l0 -0.40625q0 -0.484375 -0.25 -0.78125q-0.25 -0.296875 -0.78125 -0.296875q-0.484375 0 -0.75 0.234375q-0.265625 0.21875 -0.265625 0.625l-1.8906326 0q0 -0.609375 0.375 -1.125q0.390625 -0.53125 1.0781326 -0.828125q0.6875 -0.296875 1.546875 -0.296875q1.296875 0 2.0625 0.65625q0.765625 0.65625 0.765625 1.84375l0 3.046875q0.015625 1.0 0.28125 1.515625l0 0.109375l-1.90625 0zm-1.546875 -1.3125q0.40625 0 0.75 -0.171875q0.359375 -0.1875 0.53125 -0.5l0 -1.21875l-0.703125 0q-1.40625 0 -1.5 0.984375l0 0.109375q0 0.34375 0.234375 0.578125q0.25 0.21875 0.6875 0.21875zm8.426895 -0.640625q0 -0.34375 -0.34375 -0.53125q-0.328125 -0.203125 -1.09375 -0.359375q-2.515625 -0.53125 -2.515625 -2.140625q0 -0.9375 0.78125 -1.5625q0.78125 -0.625 2.03125 -0.625q1.34375 0 2.140625 0.640625q0.8125 0.625 0.8125 1.625l-1.875 0q0 -0.390625 -0.265625 -0.65625q-0.265625 -0.265625 -0.8125 -0.265625q-0.46875 0 -0.734375 0.21875q-0.265625 0.203125 -0.265625 0.546875q0 0.3125 0.296875 0.5q0.296875 0.1875 1.0 0.328125q0.703125 0.140625 1.1875 0.3125q1.484375 0.546875 1.484375 1.890625q0 0.96875 -0.828125 1.5625q-0.8125 0.59375 -2.125 0.59375q-0.890625 0 -1.578125 -0.3125q-0.6875 -0.3125 -1.078125 -0.859375q-0.390625 -0.546875 -0.390625 -1.1875l1.78125 0q0.03125 0.5 0.375 0.765625q0.34375 0.265625 0.921875 0.265625q0.546875 0 0.8125 -0.203125q0.28125 -0.203125 0.28125 -0.546875zm6.2902985 2.078125q-1.546875 0 -2.53125 -0.9375q-0.96875 -0.953125 -0.96875 -2.53125l0 -0.1875q0 -1.0625 0.40625 -1.890625q0.40625 -0.84375 1.15625 -1.296875q0.765625 -0.453125 1.71875 -0.453125q1.453125 0 2.28125 0.921875q0.828125 0.90625 0.828125 2.578125l0 0.765625l-4.484375 0q0.09375 0.6875 0.546875 1.109375q0.46875 0.40625 1.171875 0.40625q1.078125 0 1.6875 -0.78125l0.921875 1.03125q-0.421875 0.59375 -1.140625 0.9375q-0.71875 0.328125 -1.59375 0.328125zm-0.21875 -5.78125q-0.5625 0 -0.90625 0.390625q-0.34375 0.375 -0.453125 1.078125l2.625 0l0 -0.15625q-0.015625 -0.625 -0.34375 -0.96875q-0.328125 -0.34375 -0.921875 -0.34375zm15.054489 2.5q-0.109375 1.53125 -1.125 2.40625q-1.015625 0.875 -2.6875 0.875q-1.8125 0 -2.859375 -1.21875q-1.046875 -1.234375 -1.046875 -3.375l0 -0.578125q0 -1.359375 0.46875 -2.40625q0.484375 -1.046875 1.375 -1.59375q0.90625 -0.5625 2.09375 -0.5625q1.640625 0 2.640625 0.890625q1.0 0.875 1.15625 2.453125l-1.953125 0q-0.0625 -0.90625 -0.515625 -1.3125q-0.4375 -0.421875 -1.328125 -0.421875q-0.984375 0 -1.46875 0.703125q-0.484375 0.6875 -0.5 2.15625l0 0.71875q0 1.53125 0.46875 2.25q0.46875 0.703125 1.46875 0.703125q0.90625 0 1.34375 -0.40625q0.453125 -0.421875 0.515625 -1.28125l1.953125 0zm3.1424255 3.15625l-1.890625 0l0 -10.0l1.890625 0l0 10.0zm5.627533 0q-0.125 -0.25 -0.1875 -0.625q-0.671875 0.75 -1.765625 0.75q-1.046875 0 -1.734375 -0.59375q-0.671875 -0.59375 -0.671875 -1.515625q0 -1.109375 0.828125 -1.703125q0.84375 -0.609375 2.40625 -0.609375l0.859375 0l0 -0.40625q0 -0.484375 -0.25 -0.78125q-0.25 -0.296875 -0.78125 -0.296875q-0.484375 0 -0.75 0.234375q-0.265625 0.21875 -0.265625 0.625l-1.890625 0q0 -0.609375 0.375 -1.125q0.390625 -0.53125 1.078125 -0.828125q0.6875 -0.296875 1.546875 -0.296875q1.296875 0 2.0625 0.65625q0.765625 0.65625 0.765625 1.84375l0 3.046875q0.015625 1.0 0.28125 1.515625l0 0.109375l-1.90625 0zm-1.546875 -1.3125q0.40625 0 0.75 -0.171875q0.359375 -0.1875 0.53125 -0.5l0 -1.21875l-0.703125 0q-1.40625 0 -1.5 0.984375l0 0.109375q0 0.34375 0.234375 0.578125q0.25 0.21875 0.6875 0.21875zm8.426895 -0.640625q0 -0.34375 -0.34375 -0.53125q-0.328125 -0.203125 -1.09375 -0.359375q-2.515625 -0.53125 -2.515625 -2.140625q0 -0.9375 0.78125 -1.5625q0.78125 -0.625 2.03125 -0.625q1.34375 0 2.140625 0.640625q0.8125 0.625 0.8125 1.625l-1.875 0q0 -0.390625 -0.265625 -0.65625q-0.265625 -0.265625 -0.8125 -0.265625q-0.46875 0 -0.734375 0.21875q-0.265625 0.203125 -0.265625 0.546875q0 0.3125 0.296875 0.5q0.296875 0.1875 1.0 0.328125q0.703125 0.140625 1.1875 0.3125q1.484375 0.546875 1.484375 1.890625q0 0.96875 -0.828125 1.5625q-0.8125 0.59375 -2.125 0.59375q-0.890625 0 -1.578125 -0.3125q-0.6875 -0.3125 -1.078125 -0.859375q-0.390625 -0.546875 -0.390625 -1.1875l1.78125 0q0.03125 0.5 0.375 0.765625q0.34375 0.265625 0.921875 0.265625q0.546875 0 0.8125 -0.203125q0.28125 -0.203125 0.28125 -0.546875zm6.8527985 0q0 -0.34375 -0.34375 -0.53125q-0.328125 -0.203125 -1.09375 -0.359375q-2.515625 -0.53125 -2.515625 -2.140625q0 -0.9375 0.78125 -1.5625q0.78125 -0.625 2.03125 -0.625q1.34375 0 2.140625 0.640625q0.8125 0.625 0.8125 1.625l-1.875 0q0 -0.390625 -0.265625 -0.65625q-0.265625 -0.265625 -0.8125 -0.265625q-0.46875 0 -0.734375 0.21875q-0.265625 0.203125 -0.265625 0.546875q0 0.3125 0.296875 0.5q0.296875 0.1875 1.0 0.328125q0.703125 0.140625 1.1875 0.3125q1.484375 0.546875 1.484375 1.890625q0 0.96875 -0.828125 1.5625q-0.8125 0.59375 -2.125 0.59375q-0.890625 0 -1.578125 -0.3125q-0.6875 -0.3125 -1.078125 -0.859375q-0.390625 -0.546875 -0.390625 -1.1875l1.78125 0q0.03125 0.5 0.375 0.765625q0.34375 0.265625 0.921875 0.265625q0.546875 0 0.8125 -0.203125q0.28125 -0.203125 0.28125 -0.546875z" fill-rule="nonzero"/><path fill="#c9daf8" d="m389.7149 124.96326l132.50397 0l0 38.456696l-132.50397 0z" fill-rule="evenodd"/><path stroke="#a72a1e" stroke-width="2.0" stroke-linejoin="round" stroke-linecap="butt" d="m389.7149 124.96326l132.50397 0l0 38.456696l-132.50397 0z" fill-rule="evenodd"/><path fill="#a72a1e" d="m423.22232 146.50723q0 -0.5625 -0.390625 -0.84375q-0.390625 -0.296875 -1.40625 -0.625q-1.015625 -0.328125 -1.609375 -0.65625q-1.625 -0.875 -1.625 -2.34375q0 -0.765625 0.4375 -1.359375q0.4375 -0.609375 1.25 -0.953125q0.8125 -0.34375 1.8125 -0.34375q1.015625 0 1.8125 0.375q0.796875 0.359375 1.234375 1.03125q0.4375 0.671875 0.4375 1.53125l-1.953125 0q0 -0.65625 -0.40625 -1.015625q-0.40625 -0.359375 -1.15625 -0.359375q-0.71875 0 -1.125 0.3125q-0.390625 0.296875 -0.390625 0.78125q0 0.46875 0.46875 0.78125q0.46875 0.3125 1.375 0.578125q1.671875 0.5 2.421875 1.25q0.765625 0.734375 0.765625 1.84375q0 1.234375 -0.9375 1.9375q-0.921875 0.6875 -2.5 0.6875q-1.09375 0 -2.0 -0.390625q-0.890625 -0.40625 -1.359375 -1.09375q-0.46875 -0.703125 -0.46875 -1.625l1.953125 0q0 1.578125 1.875 1.578125q0.703125 0 1.09375 -0.28125q0.390625 -0.296875 0.390625 -0.796875zm5.7715454 -0.171875l1.3125 -4.390625l2.015625 0l-2.828125 8.140625l-0.15625 0.375q-0.640625 1.375 -2.09375 1.375q-0.40625 0 -0.828125 -0.125l0 -1.421875l0.28125 0q0.546875 0 0.796875 -0.171875q0.265625 -0.15625 0.421875 -0.53125l0.21875 -0.578125l-2.46875 -7.0625l2.03125 0l1.296875 4.390625zm7.877594 0.703125q0 -0.34375 -0.34375 -0.53125q-0.328125 -0.203125 -1.09375 -0.359375q-2.515625 -0.53125 -2.515625 -2.140625q0 -0.9375 0.78125 -1.5625q0.78125 -0.625 2.03125 -0.625q1.34375 0 2.140625 0.640625q0.8125 0.625 0.8125 1.625l-1.875 0q0 -0.390625 -0.265625 -0.65625q-0.265625 -0.265625 -0.8125 -0.265625q-0.46875 0 -0.734375 0.21875q-0.265625 0.203125 -0.265625 0.546875q0 0.3125 0.296875 0.5q0.296875 0.1875 1.0 0.328125q0.703125 0.140625 1.1875 0.3125q1.484375 0.546875 1.484375 1.890625q0 0.96875 -0.828125 1.5625q-0.8125 0.59375 -2.125 0.59375q-0.890625 0 -1.578125 -0.3125q-0.6875 -0.3125 -1.078125 -0.859375q-0.390625 -0.546875 -0.390625 -1.1875l1.78125 0q0.03125 0.5 0.375 0.765625q0.34375 0.265625 0.921875 0.265625q0.546875 0 0.8125 -0.203125q0.28125 -0.203125 0.28125 -0.546875zm5.2903137 -6.8125l0 1.71875l1.203125 0l0 1.390625l-1.203125 0l0 3.515625q0 0.390625 0.15625 0.5625q0.15625 0.15625 0.578125 0.15625q0.3125 0 0.546875 -0.046875l0 1.4375q-0.546875 0.15625 -1.140625 0.15625q-1.984375 0 -2.015625 -2.0l0 -3.78125l-1.03125 0l0 -1.390625l1.03125 0l0 -1.71875l1.875 0zm5.5034485 8.890625q-1.546875 0 -2.53125 -0.9375q-0.96875 -0.953125 -0.96875 -2.53125l0 -0.1875q0 -1.0625 0.40625 -1.890625q0.40625 -0.84375 1.15625 -1.296875q0.765625 -0.453125 1.71875 -0.453125q1.453125 0 2.28125 0.921875q0.828125 0.90625 0.828125 2.578125l0 0.765625l-4.484375 0q0.09375 0.6875 0.546875 1.109375q0.46875 0.40625 1.171875 0.40625q1.078125 0 1.6875 -0.78125l0.921875 1.03125q-0.421875 0.59375 -1.140625 0.9375q-0.71875 0.328125 -1.59375 0.328125zm-0.21875 -5.78125q-0.5625 0 -0.90625 0.390625q-0.34375 0.375 -0.453125 1.078125l2.625 0l0 -0.15625q-0.015625 -0.625 -0.34375 -0.96875q-0.328125 -0.34375 -0.921875 -0.34375zm5.9385986 -1.390625l0.0625 0.796875q0.75 -0.921875 2.015625 -0.921875q1.359375 0 1.875 1.078125q0.734375 -1.078125 2.109375 -1.078125q1.15625 0 1.703125 0.671875q0.5625 0.65625 0.5625 2.0l0 4.5l-1.890625 0l0 -4.484375q0 -0.609375 -0.234375 -0.875q-0.234375 -0.28125 -0.8125 -0.28125q-0.859375 0 -1.171875 0.8125l0 4.828125l-1.875 0l0 -4.484375q0 -0.609375 -0.25 -0.875q-0.234375 -0.28125 -0.8125 -0.28125q-0.796875 0 -1.15625 0.65625l0 4.984375l-1.890625 0l0 -7.046875l1.765625 0zm19.966858 -0.84375l-2.90625 0l0 7.890625l-1.953125 0l0 -7.890625l-2.859375 0l0 -1.578125l7.71875 0l0 1.578125zm3.070984 5.234375l1.3125 -4.390625l2.015625 0l-2.828125 8.140625l-0.15625 0.375q-0.640625 1.375 -2.09375 1.375q-0.40625 0 -0.828125 -0.125l0 -1.421875l0.28125 0q0.546875 0 0.796875 -0.171875q0.265625 -0.15625 0.421875 -0.53125l0.21875 -0.578125l-2.46875 -7.0625l2.03125 0l1.296875 4.390625zm10.408844 -0.796875q0 1.625 -0.75 2.609375q-0.734375 0.96875 -1.984375 0.96875q-1.0625 0 -1.71875 -0.734375l0 3.3125l-1.890625 0l0 -9.75l1.75 0l0.0625 0.6875q0.6875 -0.8125 1.78125 -0.8125q1.296875 0 2.015625 0.96875q0.734375 0.953125 0.734375 2.65625l0 0.09375zm-1.875 -0.140625q0 -0.984375 -0.359375 -1.515625q-0.34375 -0.53125 -1.015625 -0.53125q-0.875 0 -1.203125 0.671875l0 2.890625q0.34375 0.6875 1.21875 0.6875q1.359375 0 1.359375 -2.203125zm6.284851 3.71875q-1.546875 0 -2.53125 -0.9375q-0.96875 -0.953125 -0.96875 -2.53125l0 -0.1875q0 -1.0625 0.40625 -1.890625q0.40625 -0.84375 1.15625 -1.296875q0.765625 -0.453125 1.71875 -0.453125q1.453125 0 2.28125 0.921875q0.828125 0.90625 0.828125 2.578125l0 0.765625l-4.484375 0q0.09375 0.6875 0.546875 1.109375q0.46875 0.40625 1.171875 0.40625q1.078125 0 1.6875 -0.78125l0.921875 1.03125q-0.421875 0.59375 -1.140625 0.9375q-0.71875 0.328125 -1.59375 0.328125zm-0.21875 -5.78125q-0.5625 0 -0.90625 0.390625q-0.34375 0.375 -0.453125 1.078125l2.625 0l0 -0.15625q-0.015625 -0.625 -0.34375 -0.96875q-0.328125 -0.34375 -0.921875 -0.34375z" fill-rule="nonzero"/><path fill="#d9ead3" d="m462.52155 235.41995l132.50397 0l0 38.456696l-132.50397 0z" fill-rule="evenodd"/><path stroke="#a72a1e" stroke-width="2.0" stroke-linejoin="round" stroke-linecap="butt" d="m462.52155 235.41995l132.50397 0l0 38.456696l-132.50397 0z" fill-rule="evenodd"/><path fill="#a72a1e" d="m490.77744 256.29205q-0.109375 1.53125 -1.125 2.40625q-1.015625 0.875 -2.6875 0.875q-1.8125 0 -2.859375 -1.21875q-1.046875 -1.234375 -1.046875 -3.3750153l0 -0.578125q0 -1.359375 0.46875 -2.40625q0.484375 -1.046875 1.375 -1.59375q0.90625 -0.5625 2.09375 -0.5625q1.640625 0 2.640625 0.890625q1.0 0.875 1.15625 2.453125l-1.953125 0q-0.0625 -0.90625 -0.515625 -1.3125q-0.4375 -0.421875 -1.328125 -0.421875q-0.984375 0 -1.46875 0.703125q-0.484375 0.6875 -0.5 2.15625l0 0.71875q0 1.5312653 0.46875 2.2500153q0.46875 0.703125 1.46875 0.703125q0.90625 0 1.34375 -0.40625q0.453125 -0.421875 0.515625 -1.28125l1.953125 0zm0.86117554 -0.42189026q0 -1.0625 0.40625 -1.875q0.40625 -0.828125 1.15625 -1.265625q0.765625 -0.453125 1.765625 -0.453125q1.4375 0 2.328125 0.875q0.90625 0.875 1.015625 2.359375l0 0.484375q0 1.6250153 -0.90625 2.6093903q-0.890625 0.96875 -2.421875 0.96875q-1.515625 0 -2.4375 -0.96875q-0.90625 -0.984375 -0.90625 -2.6562653l0 -0.078125zm1.890625 0.125q0 1.0000153 0.375 1.5312653q0.375 0.53125 1.078125 0.53125q0.6875 0 1.0625 -0.515625q0.390625 -0.53125 0.390625 -1.6718903q0 -0.984375 -0.390625 -1.53125q-0.375 -0.546875 -1.078125 -0.546875q-0.6875 0 -1.0625 0.546875q-0.375 0.53125 -0.375 1.65625zm7.926758 3.4531403l-1.890625 0l0 -10.000015l1.890625 0l0 10.000015zm3.533783 0l-1.890625 0l0 -10.000015l1.890625 0l0 10.000015zm4.799408 0.125q-1.546875 0 -2.53125 -0.9375q-0.96875 -0.953125 -0.96875 -2.53125l0 -0.18751526q0 -1.0625 0.40625 -1.890625q0.40625 -0.84375 1.15625 -1.296875q0.765625 -0.453125 1.71875 -0.453125q1.453125 0 2.28125 0.921875q0.828125 0.90625 0.828125 2.578125l0 0.76564026l-4.484375 0q0.09375 0.6875 0.546875 1.109375q0.46875 0.40625 1.171875 0.40625q1.078125 0 1.6875 -0.78125l0.921875 1.03125q-0.421875 0.59375 -1.140625 0.9375q-0.71875 0.328125 -1.59375 0.328125zm-0.21875 -5.7812653q-0.5625 0 -0.90625 0.390625q-0.34375 0.375 -0.453125 1.078125l2.625 0l0 -0.15625q-0.015625 -0.625 -0.34375 -0.96875q-0.328125 -0.34375 -0.921875 -0.34375zm7.1104736 4.2656403q0.515625 0 0.84375 -0.28125q0.328125 -0.28125 0.328125 -0.765625l1.765625 0q0 0.71875 -0.390625 1.3125q-0.375 0.59375 -1.046875 0.921875q-0.671875 0.328125 -1.46875 0.328125q-1.515625 0 -2.390625 -0.953125q-0.875 -0.96875 -0.875 -2.6562653l0 -0.125q0 -1.625 0.859375 -2.59375q0.875 -0.96875 2.390625 -0.96875q1.3125 0 2.109375 0.75q0.8125 0.75 0.8125 2.0l-1.765625 0q0 -0.546875 -0.328125 -0.890625q-0.328125 -0.34375 -0.859375 -0.34375q-0.65625 0 -1.0 0.484375q-0.328125 0.484375 -0.328125 1.546875l0 0.20314026q0 1.078125 0.328125 1.5625q0.328125 0.46875 1.015625 0.46875zm6.2628784 -7.3750153l0 1.71875l1.203125 0l0 1.390625l-1.203125 0l0 3.5156403q0 0.390625 0.15625 0.5625q0.15625 0.15625 0.578125 0.15625q0.3125 0 0.546875 -0.046875l0 1.4375q-0.546875 0.15625 -1.140625 0.15625q-1.984375 0 -2.015625 -2.0l0 -3.7812653l-1.03125 0l0 -1.390625l1.03125 0l0 -1.71875l1.875 0zm4.237854 8.76564l-1.890625 0l0 -7.0468903l1.890625 0l0 7.0468903zm-2.0 -8.85939q0 -0.421875 0.28125 -0.6875q0.296875 -0.28125 0.78125 -0.28125q0.484375 0 0.765625 0.28125q0.28125 0.265625 0.28125 0.6875q0 0.421875 -0.296875 0.703125q-0.28125 0.265625 -0.765625 0.265625q-0.46875 0 -0.765625 -0.265625q-0.28125 -0.28125 -0.28125 -0.703125zm3.2525024 5.28125q0 -1.0625 0.40625 -1.875q0.40625 -0.828125 1.15625 -1.265625q0.765625 -0.453125 1.765625 -0.453125q1.4375 0 2.328125 0.875q0.90625 0.875 1.015625 2.359375l0 0.484375q0 1.6250153 -0.90625 2.6093903q-0.890625 0.96875 -2.421875 0.96875q-1.515625 0 -2.4375 -0.96875q-0.90625 -0.984375 -0.90625 -2.6562653l0 -0.078125zm1.890625 0.125q0 1.0000153 0.375 1.5312653q0.375 0.53125 1.078125 0.53125q0.6875 0 1.0625 -0.515625q0.390625 -0.53125 0.390625 -1.6718903q0 -0.984375 -0.390625 -1.53125q-0.375 -0.546875 -1.078125 -0.546875q-0.6875 0 -1.0625 0.546875q-0.375 0.53125 -0.375 1.65625zm7.676758 -3.59375l0.0625 0.8125q0.75 -0.9375 2.015625 -0.9375q1.125 0 1.671875 0.65625q0.546875 0.65625 0.5625 1.96875l0 4.5468903l-1.890625 0l0 -4.5000153q0 -0.609375 -0.265625 -0.875q-0.25 -0.265625 -0.859375 -0.265625q-0.78125 0 -1.1875 0.671875l0 4.9687653l-1.875 0l0 -7.0468903l1.765625 0zm15.924194 -0.84375l-2.90625 0l0 7.8906403l-1.953125 0l0 -7.8906403l-2.859375 0l0 -1.578125l7.71875 0l0 1.578125zm3.070984 5.2343903l1.3125 -4.3906403l2.015625 0l-2.828125 8.14064l-0.15625 0.375q-0.640625 1.375 -2.09375 1.375q-0.40625 0 -0.828125 -0.125l0 -1.421875l0.28125 0q0.546875 0 0.796875 -0.171875q0.265625 -0.15625 0.421875 -0.53125l0.21875 -0.578125l-2.46875 -7.0625153l2.03125 0l1.296875 4.3906403zm10.4088745 -0.79689026q0 1.6250153 -0.75 2.6093903q-0.734375 0.96875 -1.984375 0.96875q-1.0625 0 -1.71875 -0.734375l0 3.3125l-1.890625 0l0 -9.750015l1.75 0l0.0625 0.6875q0.6875 -0.8125 1.78125 -0.8125q1.296875 0 2.015625 0.96875q0.734375 0.953125 0.734375 2.65625l0 0.09375zm-1.875 -0.140625q0 -0.984375 -0.359375 -1.515625q-0.34375 -0.53125 -1.015625 -0.53125q-0.875 0 -1.203125 0.671875l0 2.8906403q0.34375 0.6875 1.21875 0.6875q1.359375 0 1.359375 -2.2031403zm6.28479 3.7187653q-1.546875 0 -2.53125 -0.9375q-0.96875 -0.953125 -0.96875 -2.53125l0 -0.18751526q0 -1.0625 0.40625 -1.890625q0.40625 -0.84375 1.15625 -1.296875q0.765625 -0.453125 1.71875 -0.453125q1.453125 0 2.28125 0.921875q0.828125 0.90625 0.828125 2.578125l0 0.76564026l-4.484375 0q0.09375 0.6875 0.546875 1.109375q0.46875 0.40625 1.171875 0.40625q1.078125 0 1.6875 -0.78125l0.921875 1.03125q-0.421875 0.59375 -1.140625 0.9375q-0.71875 0.328125 -1.59375 0.328125zm-0.21875 -5.7812653q-0.5625 0 -0.90625 0.390625q-0.34375 0.375 -0.453125 1.078125l2.625 0l0 -0.15625q-0.015625 -0.625 -0.34375 -0.96875q-0.328125 -0.34375 -0.921875 -0.34375z" fill-rule="nonzero"/><path fill="#d9ead3" d="m316.90826 235.41995l132.50394 0l0 38.456696l-132.50394 0z" fill-rule="evenodd"/><path stroke="#a72a1e" stroke-width="2.0" stroke-linejoin="round" stroke-linecap="butt" d="m316.90826 235.41995l132.50394 0l0 38.456696l-132.50394 0z" fill-rule="evenodd"/><path fill="#a72a1e" d="m334.62466 255.57329l-3.75 0l0 3.8750153l-1.953125 0l0 -9.468765l6.171875 0l0 1.578125l-4.21875 0l0 2.4375l3.75 0l0 1.578125zm5.549225 3.1562653q-0.6875 0.84375 -1.921875 0.84375q-1.140625 0 -1.734375 -0.640625q-0.59375 -0.65625 -0.609375 -1.90625l0 -4.6250153l1.890625 0l0 4.5468903q0 1.109375 1.0 1.109375q0.953125 0 1.3125 -0.671875l0 -4.9843903l1.890625 0l0 7.0468903l-1.78125 0l-0.046875 -0.71875zm4.973633 -6.3281403l0.0625 0.8125q0.75 -0.9375 2.015625 -0.9375q1.125 0 1.671875 0.65625q0.546875 0.65625 0.5625 1.96875l0 4.5468903l-1.890625 0l0 -4.5000153q0 -0.609375 -0.265625 -0.875q-0.25 -0.265625 -0.859375 -0.265625q-0.78125 0 -1.1875 0.671875l0 4.9687653l-1.875 0l0 -7.0468903l1.765625 0zm5.4332886 3.46875q0 -1.640625 0.734375 -2.609375q0.75 -0.984375 2.03125 -0.984375q1.03125 0 1.703125 0.765625l0 -3.59375l1.890625 0l0 10.000015l-1.703125 0l-0.09375 -0.75q-0.703125 0.875 -1.8125 0.875q-1.234375 0 -2.0 -0.96875q-0.75 -0.984375 -0.75 -2.7343903zm1.890625 0.14064026q0 0.984375 0.34375 1.515625q0.34375 0.53125 1.0 0.53125q0.875 0 1.234375 -0.734375l0 -2.7812653q-0.359375 -0.734375 -1.21875 -0.734375q-1.359375 0 -1.359375 2.2031403zm9.994476 3.4375q-0.125 -0.25 -0.1875 -0.625q-0.671875 0.75 -1.765625 0.75q-1.046875 0 -1.734375 -0.59375q-0.671875 -0.59375 -0.671875 -1.515625q0 -1.109375 0.828125 -1.7031403q0.84375 -0.609375 2.40625 -0.609375l0.859375 0l0 -0.40625q0 -0.484375 -0.25 -0.78125q-0.25 -0.296875 -0.78125 -0.296875q-0.484375 0 -0.75 0.234375q-0.265625 0.21875 -0.265625 0.625l-1.890625 0q0 -0.609375 0.375 -1.125q0.390625 -0.53125 1.078125 -0.828125q0.6875 -0.296875 1.546875 -0.296875q1.296875 0 2.0625 0.65625q0.765625 0.65625 0.765625 1.84375l0 3.0468903q0.015625 1.0 0.28125 1.515625l0 0.109375l-1.90625 0zm-1.546875 -1.3125q0.40625 0 0.75 -0.171875q0.359375 -0.1875 0.53125 -0.5l0 -1.21875l-0.703125 0q-1.40625 0 -1.5 0.984375l0 0.109375q0 0.34375 0.234375 0.578125q0.25 0.21875 0.6875 0.21875zm6.380005 -5.7343903l0.0625 0.796875q0.75 -0.921875 2.015625 -0.921875q1.359375 0 1.875 1.078125q0.734375 -1.078125 2.109375 -1.078125q1.15625 0 1.703125 0.671875q0.5625 0.65625 0.5625 2.0l0 4.5000153l-1.890625 0l0 -4.4843903q0 -0.609375 -0.234375 -0.875q-0.234375 -0.28125 -0.8125 -0.28125q-0.859375 0 -1.171875 0.8125l0 4.8281403l-1.875 0l0 -4.4843903q0 -0.609375 -0.25 -0.875q-0.234375 -0.28125 -0.8125 -0.28125q-0.796875 0 -1.15625 0.65625l0 4.9843903l-1.890625 0l0 -7.0468903l1.765625 0zm13.022858 7.1718903q-1.546875 0 -2.53125 -0.9375q-0.96875 -0.953125 -0.96875 -2.53125l0 -0.18751526q0 -1.0625 0.40625 -1.890625q0.40625 -0.84375 1.15625 -1.296875q0.765625 -0.453125 1.71875 -0.453125q1.453125 0 2.28125 0.921875q0.828125 0.90625 0.828125 2.578125l0 0.76564026l-4.484375 0q0.09375 0.6875 0.546875 1.109375q0.46875 0.40625 1.171875 0.40625q1.078125 0 1.6875 -0.78125l0.921875 1.03125q-0.421875 0.59375 -1.140625 0.9375q-0.71875 0.328125 -1.59375 0.328125zm-0.21875 -5.7812653q-0.5625 0 -0.90625 0.390625q-0.34375 0.375 -0.453125 1.078125l2.625 0l0 -0.15625q-0.015625 -0.625 -0.34375 -0.96875q-0.328125 -0.34375 -0.921875 -0.34375zm5.9073486 -1.390625l0.0625 0.8125q0.75 -0.9375 2.015625 -0.9375q1.125 0 1.671875 0.65625q0.546875 0.65625 0.5625 1.96875l0 4.5468903l-1.890625 0l0 -4.5000153q0 -0.609375 -0.265625 -0.875q-0.25 -0.265625 -0.859375 -0.265625q-0.78125 0 -1.1875 0.671875l0 4.9687653l-1.875 0l0 -7.0468903l1.765625 0zm7.9801636 -1.71875l0 1.71875l1.203125 0l0 1.390625l-1.203125 0l0 3.5156403q0 0.390625 0.15625 0.5625q0.15625 0.15625 0.578125 0.15625q0.3125 0 0.546875 -0.046875l0 1.4375q-0.546875 0.15625 -1.140625 0.15625q-1.984375 0 -2.015625 -2.0l0 -3.7812653l-1.03125 0l0 -1.390625l1.03125 0l0 -1.71875l1.875 0zm6.3315735 8.76564q-0.125 -0.25 -0.1875 -0.625q-0.671875 0.75 -1.765625 0.75q-1.046875 0 -1.734375 -0.59375q-0.671875 -0.59375 -0.671875 -1.515625q0 -1.109375 0.828125 -1.7031403q0.84375 -0.609375 2.40625 -0.609375l0.859375 0l0 -0.40625q0 -0.484375 -0.25 -0.78125q-0.25 -0.296875 -0.78125 -0.296875q-0.484375 0 -0.75 0.234375q-0.265625 0.21875 -0.265625 0.625l-1.890625 0q0 -0.609375 0.375 -1.125q0.390625 -0.53125 1.078125 -0.828125q0.6875 -0.296875 1.546875 -0.296875q1.296875 0 2.0625 0.65625q0.765625 0.65625 0.765625 1.84375l0 3.0468903q0.015625 1.0 0.28125 1.515625l0 0.109375l-1.90625 0zm-1.546875 -1.3125q0.40625 0 0.75 -0.171875q0.359375 -0.1875 0.53125 -0.5l0 -1.21875l-0.703125 0q-1.40625 0 -1.5 0.984375l0 0.109375q0 0.34375 0.234375 0.578125q0.25 0.21875 0.6875 0.21875zm6.598755 1.3125l-1.890625 0l0 -10.000015l1.890625 0l0 10.000015zm11.743439 -7.8906403l-2.90625 0l0 7.8906403l-1.953125 0l0 -7.8906403l-2.859375 0l0 -1.578125l7.71875 0l0 1.578125zm3.070984 5.2343903l1.3125 -4.3906403l2.015625 0l-2.828125 8.14064l-0.15625 0.375q-0.640625 1.375 -2.09375 1.375q-0.40625 0 -0.828125 -0.125l0 -1.421875l0.28125 0q0.546875 0 0.796875 -0.171875q0.265625 -0.15625 0.421875 -0.53125l0.21875 -0.578125l-2.46875 -7.0625153l2.03125 0l1.296875 4.3906403zm10.408844 -0.79689026q0 1.6250153 -0.75 2.6093903q-0.734375 0.96875 -1.984375 0.96875q-1.0625 0 -1.71875 -0.734375l0 3.3125l-1.890625 0l0 -9.750015l1.75 0l0.0625 0.6875q0.6875 -0.8125 1.78125 -0.8125q1.296875 0 2.015625 0.96875q0.734375 0.953125 0.734375 2.65625l0 0.09375zm-1.875 -0.140625q0 -0.984375 -0.359375 -1.515625q-0.34375 -0.53125 -1.015625 -0.53125q-0.875 0 -1.203125 0.671875l0 2.8906403q0.34375 0.6875 1.21875 0.6875q1.359375 0 1.359375 -2.2031403zm6.284851 3.7187653q-1.546875 0 -2.53125 -0.9375q-0.96875 -0.953125 -0.96875 -2.53125l0 -0.18751526q0 -1.0625 0.40625 -1.890625q0.40625 -0.84375 1.15625 -1.296875q0.765625 -0.453125 1.71875 -0.453125q1.453125 0 2.28125 0.921875q0.828125 0.90625 0.828125 2.578125l0 0.76564026l-4.484375 0q0.09375 0.6875 0.546875 1.109375q0.46875 0.40625 1.171875 0.40625q1.078125 0 1.6875 -0.78125l0.921875 1.03125q-0.421875 0.59375 -1.140625 0.9375q-0.71875 0.328125 -1.59375 0.328125zm-0.21875 -5.7812653q-0.5625 0 -0.90625 0.390625q-0.34375 0.375 -0.453125 1.078125l2.625 0l0 -0.15625q-0.015625 -0.625 -0.34375 -0.96875q-0.328125 -0.34375 -0.921875 -0.34375z" fill-rule="nonzero"/><path fill="#d9ead3" d="m157.54765 235.41995l132.50395 0l0 38.456696l-132.50395 0z" fill-rule="evenodd"/><path stroke="#a72a1e" stroke-width="2.0" stroke-linejoin="round" stroke-linecap="butt" d="m157.54765 235.41995l132.50395 0l0 38.456696l-132.50395 0z" fill-rule="evenodd"/><path fill="#a72a1e" d="m181.69675 259.4483l-1.953125 0l0 -9.468765l1.953125 0l0 9.468765zm3.4164581 -7.0468903l0.0625 0.8125q0.75 -0.9375 2.015625 -0.9375q1.125 0 1.671875 0.65625q0.546875 0.65625 0.5625 1.96875l0 4.5468903l-1.890625 0l0 -4.5000153q0 -0.609375 -0.265625 -0.875q-0.25 -0.265625 -0.859375 -0.265625q-0.78125 0 -1.1875 0.671875l0 4.9687653l-1.875 0l0 -7.0468903l1.765625 0zm7.5739136 0.765625q0.75 -0.890625 1.875 -0.890625q2.296875 0 2.328125 2.65625l0 4.5156403l-1.890625 0l0 -4.4531403q0 -0.609375 -0.265625 -0.890625q-0.25 -0.296875 -0.859375 -0.296875q-0.828125 0 -1.1875 0.640625l0 5.0000153l-1.890625 0l0 -10.000015l1.890625 0l0 3.71875zm8.864273 6.4062653q-1.546875 0 -2.53125 -0.9375q-0.96875 -0.953125 -0.96875 -2.53125l0 -0.18751526q0 -1.0625 0.40625 -1.890625q0.40625 -0.84375 1.15625 -1.296875q0.765625 -0.453125 1.71875 -0.453125q1.453125 0 2.28125 0.921875q0.828125 0.90625 0.828125 2.578125l0 0.76564026l-4.484375 0q0.09375 0.6875 0.546875 1.109375q0.46875 0.40625 1.171875 0.40625q1.078125 0 1.6875 -0.78125l0.921875 1.03125q-0.421875 0.59375 -1.140625 0.9375q-0.71875 0.328125 -1.59375 0.328125zm-0.21875 -5.7812653q-0.5625 0 -0.90625 0.390625q-0.34375 0.375 -0.453125 1.078125l2.625 0l0 -0.15625q-0.015625 -0.625 -0.34375 -0.96875q-0.328125 -0.34375 -0.921875 -0.34375zm8.126099 0.375q-0.375 -0.046875 -0.671875 -0.046875q-1.0625 0 -1.390625 0.71875l0 4.6093903l-1.890625 0l0 -7.0468903l1.78125 0l0.046875 0.84375q0.578125 -0.96875 1.578125 -0.96875q0.3125 0 0.578125 0.078125l-0.03125 1.8125zm2.8926392 5.2812653l-1.890625 0l0 -7.0468903l1.890625 0l0 7.0468903zm-2.0 -8.85939q0 -0.421875 0.28125 -0.6875q0.296875 -0.28125 0.78125 -0.28125q0.484375 0 0.765625 0.28125q0.28125 0.265625 0.28125 0.6875q0 0.421875 -0.296875 0.703125q-0.28125 0.265625 -0.765625 0.265625q-0.46875 0 -0.765625 -0.265625q-0.28125 -0.28125 -0.28125 -0.703125zm5.799408 0.09375l0 1.71875l1.203125 0l0 1.390625l-1.203125 0l0 3.5156403q0 0.390625 0.15625 0.5625q0.15625 0.15625 0.578125 0.15625q0.3125 0 0.546875 -0.046875l0 1.4375q-0.546875 0.15625 -1.140625 0.15625q-1.984375 0 -2.015625 -2.0l0 -3.7812653l-1.03125 0l0 -1.390625l1.03125 0l0 -1.71875l1.875 0zm5.5034485 8.89064q-1.546875 0 -2.53125 -0.9375q-0.96875 -0.953125 -0.96875 -2.53125l0 -0.18751526q0 -1.0625 0.40625 -1.890625q0.40625 -0.84375 1.15625 -1.296875q0.765625 -0.453125 1.71875 -0.453125q1.453125 0 2.28125 0.921875q0.828125 0.90625 0.828125 2.578125l0 0.76564026l-4.484375 0q0.09375 0.6875 0.546875 1.109375q0.46875 0.40625 1.171875 0.40625q1.078125 0 1.6875 -0.78125l0.921875 1.03125q-0.421875 0.59375 -1.140625 0.9375q-0.71875 0.328125 -1.59375 0.328125zm-0.21875 -5.7812653q-0.5625 0 -0.90625 0.390625q-0.34375 0.375 -0.453125 1.078125l2.625 0l0 -0.15625q-0.015625 -0.625 -0.34375 -0.96875q-0.328125 -0.34375 -0.921875 -0.34375zm3.8760986 2.078125q0 -1.640625 0.734375 -2.609375q0.75 -0.984375 2.03125 -0.984375q1.03125 0 1.703125 0.765625l0 -3.59375l1.890625 0l0 10.000015l-1.703125 0l-0.09375 -0.75q-0.703125 0.875 -1.8125 0.875q-1.234375 0 -2.0 -0.96875q-0.75 -0.984375 -0.75 -2.7343903zm1.890625 0.14064026q0 0.984375 0.34375 1.515625q0.34375 0.53125 1.0 0.53125q0.875 0 1.234375 -0.734375l0 -2.7812653q-0.359375 -0.734375 -1.21875 -0.734375q-1.359375 0 -1.359375 2.2031403zm16.797852 0.28125q-0.109375 1.53125 -1.125 2.40625q-1.015625 0.875 -2.6875 0.875q-1.8125 0 -2.859375 -1.21875q-1.046875 -1.234375 -1.046875 -3.3750153l0 -0.578125q0 -1.359375 0.46875 -2.40625q0.484375 -1.046875 1.375 -1.59375q0.90625 -0.5625 2.09375 -0.5625q1.640625 0 2.640625 0.890625q1.0 0.875 1.15625 2.453125l-1.953125 0q-0.0625 -0.90625 -0.515625 -1.3125q-0.4375 -0.421875 -1.328125 -0.421875q-0.984375 0 -1.46875 0.703125q-0.484375 0.6875 -0.5 2.15625l0 0.71875q0 1.5312653 0.46875 2.2500153q0.46875 0.703125 1.46875 0.703125q0.90625 0 1.34375 -0.40625q0.453125 -0.421875 0.515625 -1.28125l1.953125 0zm3.1424255 3.15625l-1.890625 0l0 -10.000015l1.890625 0l0 10.000015zm5.627533 0q-0.125 -0.25 -0.1875 -0.625q-0.671875 0.75 -1.765625 0.75q-1.046875 0 -1.734375 -0.59375q-0.671875 -0.59375 -0.671875 -1.515625q0 -1.109375 0.828125 -1.7031403q0.84375 -0.609375 2.40625 -0.609375l0.859375 0l0 -0.40625q0 -0.484375 -0.25 -0.78125q-0.25 -0.296875 -0.78125 -0.296875q-0.484375 0 -0.75 0.234375q-0.265625 0.21875 -0.265625 0.625l-1.890625 0q0 -0.609375 0.375 -1.125q0.390625 -0.53125 1.078125 -0.828125q0.6875 -0.296875 1.546875 -0.296875q1.296875 0 2.0625 0.65625q0.765625 0.65625 0.765625 1.84375l0 3.0468903q0.015625 1.0 0.28125 1.515625l0 0.109375l-1.90625 0zm-1.546875 -1.3125q0.40625 0 0.75 -0.171875q0.359375 -0.1875 0.53125 -0.5l0 -1.21875l-0.703125 0q-1.40625 0 -1.5 0.984375l0 0.109375q0 0.34375 0.234375 0.578125q0.25 0.21875 0.6875 0.21875zm8.42688 -0.640625q0 -0.34375 -0.34375 -0.53125q-0.328125 -0.203125 -1.09375 -0.359375q-2.5156097 -0.53125 -2.5156097 -2.1406403q0 -0.9375 0.78123474 -1.5625q0.78125 -0.625 2.03125 -0.625q1.34375 0 2.140625 0.640625q0.8125 0.625 0.8125 1.625l-1.875 0q0 -0.390625 -0.265625 -0.65625q-0.265625 -0.265625 -0.8125 -0.265625q-0.46875 0 -0.734375 0.21875q-0.265625 0.203125 -0.265625 0.546875q0 0.3125 0.296875 0.5q0.296875 0.1875 1.0 0.328125q0.703125 0.140625 1.1875 0.3125q1.484375 0.54689026 1.484375 1.8906403q0 0.96875 -0.828125 1.5625q-0.8125 0.59375 -2.125 0.59375q-0.890625 0 -1.578125 -0.3125q-0.6875 -0.3125 -1.0781097 -0.859375q-0.390625 -0.546875 -0.390625 -1.1875l1.7812347 0q0.03125 0.5 0.375 0.765625q0.34375 0.265625 0.921875 0.265625q0.546875 0 0.8125 -0.203125q0.28125 -0.203125 0.28125 -0.546875zm6.8528137 0q0 -0.34375 -0.34375 -0.53125q-0.328125 -0.203125 -1.09375 -0.359375q-2.515625 -0.53125 -2.515625 -2.1406403q0 -0.9375 0.78125 -1.5625q0.78125 -0.625 2.03125 -0.625q1.34375 0 2.140625 0.640625q0.8125 0.625 0.8125 1.625l-1.875 0q0 -0.390625 -0.265625 -0.65625q-0.265625 -0.265625 -0.8125 -0.265625q-0.46875 0 -0.734375 0.21875q-0.265625 0.203125 -0.265625 0.546875q0 0.3125 0.296875 0.5q0.296875 0.1875 1.0 0.328125q0.703125 0.140625 1.1875 0.3125q1.484375 0.54689026 1.484375 1.8906403q0 0.96875 -0.828125 1.5625q-0.8125 0.59375 -2.125 0.59375q-0.890625 0 -1.578125 -0.3125q-0.6875 -0.3125 -1.078125 -0.859375q-0.390625 -0.546875 -0.390625 -1.1875l1.78125 0q0.03125 0.5 0.375 0.765625q0.34375 0.265625 0.921875 0.265625q0.546875 0 0.8125 -0.203125q0.28125 -0.203125 0.28125 -0.546875z" fill-rule="nonzero"/><path fill="#d9ead3" d="m11.934383 235.41995l132.50394 0l0 38.456696l-132.50394 0z" fill-rule="evenodd"/><path stroke="#a72a1e" stroke-width="2.0" stroke-linejoin="round" stroke-linecap="butt" d="m11.934383 235.41995l132.50394 0l0 38.456696l-132.50394 0z" fill-rule="evenodd"/><path fill="#a72a1e" d="m36.08347 259.4483l-1.953125 0l0 -9.468765l1.953125 0l0 9.468765zm3.4164581 -7.0468903l0.0625 0.8125q0.75 -0.9375 2.015625 -0.9375q1.125 0 1.671875 0.65625q0.546875 0.65625 0.5625 1.96875l0 4.5468903l-1.890625 0l0 -4.5000153q0 -0.609375 -0.265625 -0.875q-0.25 -0.265625 -0.859375 -0.265625q-0.78125 0 -1.1875 0.671875l0 4.9687653l-1.875 0l0 -7.0468903l1.765625 0zm7.5739136 0.765625q0.75 -0.890625 1.875 -0.890625q2.296875 0 2.328125 2.65625l0 4.5156403l-1.890625 0l0 -4.4531403q0 -0.609375 -0.265625 -0.890625q-0.25 -0.296875 -0.859375 -0.296875q-0.828125 0 -1.1875 0.640625l0 5.0000153l-1.890625 0l0 -10.000015l1.890625 0l0 3.71875zm8.864273 6.4062653q-1.546875 0 -2.53125 -0.9375q-0.96875 -0.953125 -0.96875 -2.53125l0 -0.18751526q0 -1.0625 0.40625 -1.890625q0.40625 -0.84375 1.15625 -1.296875q0.765625 -0.453125 1.71875 -0.453125q1.453125 0 2.28125 0.921875q0.828125 0.90625 0.828125 2.578125l0 0.76564026l-4.484375 0q0.09375 0.6875 0.546875 1.109375q0.46875 0.40625 1.171875 0.40625q1.078125 0 1.6875 -0.78125l0.921875 1.03125q-0.421875 0.59375 -1.140625 0.9375q-0.71875 0.328125 -1.59375 0.328125zm-0.21875 -5.7812653q-0.5625 0 -0.90625 0.390625q-0.34375 0.375 -0.453125 1.078125l2.625 0l0 -0.15625q-0.015625 -0.625 -0.34375 -0.96875q-0.328125 -0.34375 -0.921875 -0.34375zm8.126099 0.375q-0.375 -0.046875 -0.671875 -0.046875q-1.0625 0 -1.390625 0.71875l0 4.6093903l-1.890625 0l0 -7.0468903l1.78125 0l0.046875 0.84375q0.578125 -0.96875 1.578125 -0.96875q0.3125 0 0.578125 0.078125l-0.03125 1.8125zm2.8926353 5.2812653l-1.890625 0l0 -7.0468903l1.890625 0l0 7.0468903zm-2.0 -8.85939q0 -0.421875 0.28125 -0.6875q0.296875 -0.28125 0.78125 -0.28125q0.484375 0 0.765625 0.28125q0.28125 0.265625 0.28125 0.6875q0 0.421875 -0.296875 0.703125q-0.28125 0.265625 -0.765625 0.265625q-0.46875 0 -0.765625 -0.265625q-0.28125 -0.28125 -0.28125 -0.703125zm5.799408 0.09375l0 1.71875l1.203125 0l0 1.390625l-1.203125 0l0 3.5156403q0 0.390625 0.15625 0.5625q0.15625 0.15625 0.578125 0.15625q0.3125 0 0.546875 -0.046875l0 1.4375q-0.546875 0.15625 -1.140625 0.15625q-1.984375 0 -2.015625 -2.0l0 -3.7812653l-1.03125 0l0 -1.390625l1.03125 0l0 -1.71875l1.875 0zm5.5034485 8.89064q-1.546875 0 -2.53125 -0.9375q-0.96875 -0.953125 -0.96875 -2.53125l0 -0.18751526q0 -1.0625 0.40625 -1.890625q0.40625 -0.84375 1.15625 -1.296875q0.765625 -0.453125 1.71875 -0.453125q1.453125 0 2.28125 0.921875q0.828125 0.90625 0.828125 2.578125l0 0.76564026l-4.484375 0q0.09375 0.6875 0.546875 1.109375q0.46875 0.40625 1.171875 0.40625q1.078125 0 1.6875 -0.78125l0.921875 1.03125q-0.421875 0.59375 -1.140625 0.9375q-0.71875 0.328125 -1.59375 0.328125zm-0.21875 -5.7812653q-0.5625 0 -0.90625 0.390625q-0.34375 0.375 -0.453125 1.078125l2.625 0l0 -0.15625q-0.015625 -0.625 -0.34375 -0.96875q-0.328125 -0.34375 -0.921875 -0.34375zm3.8760986 2.078125q0 -1.640625 0.734375 -2.609375q0.75 -0.984375 2.03125 -0.984375q1.03125 0 1.703125 0.765625l0 -3.59375l1.890625 0l0 10.000015l-1.703125 0l-0.09375 -0.75q-0.703125 0.875 -1.8125 0.875q-1.234375 0 -2.0 -0.96875q-0.75 -0.984375 -0.75 -2.7343903zm1.890625 0.14064026q0 0.984375 0.34375 1.515625q0.34375 0.53125 1.0 0.53125q0.875 0 1.234375 -0.734375l0 -2.7812653q-0.359375 -0.734375 -1.21875 -0.734375q-1.359375 0 -1.359375 2.2031403zm16.797852 0.28125q-0.109375 1.53125 -1.125 2.40625q-1.015625 0.875 -2.6875 0.875q-1.8125 0 -2.859375 -1.21875q-1.046875 -1.234375 -1.046875 -3.3750153l0 -0.578125q0 -1.359375 0.46875 -2.40625q0.484375 -1.046875 1.375 -1.59375q0.90625 -0.5625 2.09375 -0.5625q1.640625 0 2.640625 0.890625q1.0 0.875 1.15625 2.453125l-1.953125 0q-0.0625 -0.90625 -0.515625 -1.3125q-0.4375 -0.421875 -1.328125 -0.421875q-0.984375 0 -1.46875 0.703125q-0.484375 0.6875 -0.5 2.15625l0 0.71875q0 1.5312653 0.46875 2.2500153q0.46875 0.703125 1.46875 0.703125q0.90625 0 1.34375 -0.40625q0.453125 -0.421875 0.515625 -1.28125l1.953125 0zm3.1424255 3.15625l-1.890625 0l0 -10.000015l1.890625 0l0 10.000015zm5.627533 0q-0.125 -0.25 -0.1875 -0.625q-0.671875 0.75 -1.765625 0.75q-1.046875 0 -1.734375 -0.59375q-0.671875 -0.59375 -0.671875 -1.515625q0 -1.109375 0.828125 -1.7031403q0.84375 -0.609375 2.40625 -0.609375l0.859375 0l0 -0.40625q0 -0.484375 -0.25 -0.78125q-0.25 -0.296875 -0.78125 -0.296875q-0.484375 0 -0.75 0.234375q-0.265625 0.21875 -0.265625 0.625l-1.890625 0q0 -0.609375 0.375 -1.125q0.390625 -0.53125 1.078125 -0.828125q0.6875 -0.296875 1.546875 -0.296875q1.296875 0 2.0625 0.65625q0.765625 0.65625 0.765625 1.84375l0 3.0468903q0.015625 1.0 0.28125 1.515625l0 0.109375l-1.90625 0zm-1.546875 -1.3125q0.40625 0 0.75 -0.171875q0.359375 -0.1875 0.53125 -0.5l0 -1.21875l-0.703125 0q-1.40625 0 -1.5 0.984375l0 0.109375q0 0.34375 0.234375 0.578125q0.25 0.21875 0.6875 0.21875zm8.426895 -0.640625q0 -0.34375 -0.34375 -0.53125q-0.328125 -0.203125 -1.09375 -0.359375q-2.515625 -0.53125 -2.515625 -2.1406403q0 -0.9375 0.78125 -1.5625q0.78125 -0.625 2.03125 -0.625q1.34375 0 2.140625 0.640625q0.8125 0.625 0.8125 1.625l-1.875 0q0 -0.390625 -0.265625 -0.65625q-0.265625 -0.265625 -0.8125 -0.265625q-0.46875 0 -0.734375 0.21875q-0.265625 0.203125 -0.265625 0.546875q0 0.3125 0.296875 0.5q0.296875 0.1875 1.0 0.328125q0.703125 0.140625 1.1875 0.3125q1.484375 0.54689026 1.484375 1.8906403q0 0.96875 -0.828125 1.5625q-0.8125 0.59375 -2.125 0.59375q-0.890625 0 -1.578125 -0.3125q-0.6875 -0.3125 -1.078125 -0.859375q-0.390625 -0.546875 -0.390625 -1.1875l1.78125 0q0.03125 0.5 0.375 0.765625q0.34375 0.265625 0.921875 0.265625q0.546875 0 0.8125 -0.203125q0.28125 -0.203125 0.28125 -0.546875zm6.8527985 0q0 -0.34375 -0.34375 -0.53125q-0.328125 -0.203125 -1.09375 -0.359375q-2.515625 -0.53125 -2.515625 -2.1406403q0 -0.9375 0.78125 -1.5625q0.78125 -0.625 2.03125 -0.625q1.34375 0 2.140625 0.640625q0.8125 0.625 0.8125 1.625l-1.875 0q0 -0.390625 -0.265625 -0.65625q-0.265625 -0.265625 -0.8125 -0.265625q-0.46875 0 -0.734375 0.21875q-0.265625 0.203125 -0.265625 0.546875q0 0.3125 0.296875 0.5q0.296875 0.1875 1.0 0.328125q0.703125 0.140625 1.1875 0.3125q1.484375 0.54689026 1.484375 1.8906403q0 0.96875 -0.828125 1.5625q-0.8125 0.59375 -2.125 0.59375q-0.890625 0 -1.578125 -0.3125q-0.6875 -0.3125 -1.078125 -0.859375q-0.390625 -0.546875 -0.390625 -1.1875l1.78125 0q0.03125 0.5 0.375 0.765625q0.34375 0.265625 0.921875 0.265625q0.546875 0 0.8125 -0.203125q0.28125 -0.203125 0.28125 -0.546875z" fill-rule="nonzero"/></g></svg>