<svg version="1.1" viewBox="0.0 0.0 667.8845144356956 628.1968503937007" fill="none" stroke="none" stroke-linecap="square" stroke-miterlimit="10" xmlns:xlink="http://www.w3.org/1999/xlink" xmlns="http://www.w3.org/2000/svg"><clipPath id="p.0"><path d="m0 0l667.8845 0l0 628.19684l-667.8845 0l0 -628.19684z" clip-rule="nonzero"/></clipPath><g clip-path="url(#p.0)"><path fill="#000000" fill-opacity="0.0" d="m0 0l667.8845 0l0 628.19684l-667.8845 0z" fill-rule="evenodd"/><path fill="#f1c232" d="m205.06822 448.542l135.49605 -48.094482l135.49606 48.094482l-135.49606 48.094482z" fill-rule="evenodd"/><path stroke="#000000" stroke-width="2.0" stroke-linejoin="round" stroke-linecap="butt" d="m205.06822 448.542l135.49605 -48.094482l135.49606 48.094482l-135.49606 48.094482z" fill-rule="evenodd"/><path fill="#000000" d="m313.51392 443.022l0 -15.265625l2.921875 0l0 5.5q1.359375 -1.546875 3.21875 -1.546875q2.015625 0 3.328125 1.46875q1.328125 1.453125 1.328125 4.203125q0 2.828125 -1.34375 4.359375q-1.34375 1.53125 -3.28125 1.53125q-0.9375 0 -1.859375 -0.46875q-0.921875 -0.484375 -1.59375 -1.40625l0 1.625l-2.71875 0zm2.90625 -5.765625q0 1.71875 0.546875 2.53125q0.75 1.171875 2.015625 1.171875q0.96875 0 1.640625 -0.828125q0.6875 -0.828125 0.6875 -2.609375q0 -1.890625 -0.6875 -2.734375q-0.6875 -0.84375 -1.75 -0.84375q-1.0625 0 -1.765625 0.828125q-0.6875 0.8125 -0.6875 2.484375zm13.043701 5.765625l-2.921875 0l0 -11.0625l2.71875 0l0 1.578125q0.703125 -1.125 1.25 -1.46875q0.5625 -0.359375 1.265625 -0.359375q1.0 0 1.9375 0.5625l-0.90625 2.546875q-0.75 -0.484375 -1.375 -0.484375q-0.625 0 -1.046875 0.34375q-0.421875 0.328125 -0.671875 1.21875q-0.25 0.890625 -0.25 3.703125l0 3.421875zm11.909454 -3.515625l2.90625 0.484375q-0.546875 1.609375 -1.765625 2.453125q-1.21875 0.828125 -3.03125 0.828125q-2.890625 0 -4.28125 -1.890625q-1.09375 -1.5 -1.09375 -3.8125q0 -2.75 1.4375 -4.296875q1.4375 -1.5625 3.640625 -1.5625q2.46875 0 3.890625 1.640625q1.421875 1.625 1.359375 4.984375l-7.328125 0q0.03125 1.296875 0.703125 2.03125q0.6875 0.71875 1.703125 0.71875q0.6875 0 1.15625 -0.375q0.46875 -0.375 0.703125 -1.203125zm0.171875 -2.96875q-0.03125 -1.265625 -0.65625 -1.921875q-0.625 -0.671875 -1.53125 -0.671875q-0.953125 0 -1.578125 0.703125q-0.625 0.703125 -0.609375 1.890625l4.375 0zm7.4710693 -1.203125l-2.65625 -0.484375q0.453125 -1.59375 1.546875 -2.359375q1.09375 -0.78125 3.25 -0.78125q1.953125 0 2.90625 0.46875q0.96875 0.453125 1.359375 1.171875q0.390625 0.71875 0.390625 2.625l-0.03125 3.40625q0 1.46875 0.125 2.15625q0.140625 0.6875 0.53125 1.484375l-2.890625 0q-0.109375 -0.296875 -0.28125 -0.859375q-0.078125 -0.265625 -0.109375 -0.34375q-0.75 0.71875 -1.609375 1.09375q-0.84375 0.359375 -1.8125 0.359375q-1.703125 0 -2.6875 -0.921875q-0.984375 -0.9375 -0.984375 -2.34375q0 -0.9375 0.4375 -1.671875q0.453125 -0.734375 1.25 -1.125q0.8125 -0.390625 2.34375 -0.6875q2.046875 -0.390625 2.84375 -0.71875l0 -0.296875q0 -0.84375 -0.421875 -1.203125q-0.421875 -0.359375 -1.578125 -0.359375q-0.78125 0 -1.21875 0.3125q-0.4375 0.3125 -0.703125 1.078125zm3.921875 2.375q-0.5625 0.1875 -1.78125 0.453125q-1.21875 0.25 -1.59375 0.5q-0.578125 0.40625 -0.578125 1.03125q0 0.625 0.453125 1.078125q0.46875 0.4375 1.171875 0.4375q0.796875 0 1.515625 -0.515625q0.53125 -0.40625 0.6875 -0.96875q0.125 -0.375 0.125 -1.4375l0 -0.578125zm5.6429443 5.3125l0 -15.265625l2.9375 0l0 8.09375l3.421875 -3.890625l3.59375 0l-3.765625 4.046875l4.046875 7.015625l-3.15625 0l-2.78125 -4.96875l-1.359375 1.421875l0 3.546875l-2.9375 0z" fill-rule="nonzero"/><path fill="#000000" d="m341.87836 465.0845l-2.65625 0q-0.015625 -0.578125 -0.015625 -0.703125q0 -1.28125 0.421875 -2.109375q0.4375 -0.84375 1.71875 -1.875q1.28125 -1.046875 1.53125 -1.375q0.375 -0.515625 0.375 -1.125q0 -0.84375 -0.6875 -1.453125q-0.671875 -0.609375 -1.828125 -0.609375q-1.109375 0 -1.859375 0.640625q-0.75 0.625 -1.03125 1.921875l-2.6875 -0.328125q0.109375 -1.859375 1.578125 -3.15625q1.484375 -1.3125 3.875 -1.3125q2.515625 0 4.0 1.328125q1.5 1.3125 1.5 3.0625q0 0.953125 -0.546875 1.828125q-0.546875 0.859375 -2.34375 2.34375q-0.921875 0.78125 -1.15625 1.25q-0.21875 0.46875 -0.1875 1.671875zm-2.65625 3.9375l0 -2.921875l2.921875 0l0 2.921875l-2.921875 0z" fill-rule="nonzero"/><path fill="#434343" d="m48.575397 249.71942c0 0.56874084 0.16921234 1.0908356 0.5076294 1.5662842c0.33842087 0.47244263 1.0387611 0.9885254 2.1010246 1.548233l-2.2702332 0l0 2.1937103l14.975071 0l0 -2.4374542l-7.8400574 0c-1.0716591 0 -2.0587196 -0.1354065 -2.9611702 -0.40623474c-0.59223557 -0.18055725 -1.0544281 -0.48298645 -1.3865814 -0.90727234c-0.3352852 -0.42430115 -0.5029297 -0.902771 -0.5029297 -1.4353943c0 -0.5958252 0.18331146 -1.1916504 0.5499344 -1.7874603l-2.3548393 -0.8395691c-0.54523087 0.84858704 -0.8178482 1.6836395 -0.8178482 2.5051575z" fill-rule="evenodd"/><path fill="#434343" d="m50.66232 239.83418c0 -1.2367706 0.48883057 -2.2433472 1.4664879 -3.0197296c0.6298332 -0.50553894 1.5745888 -0.81248474 2.8342628 -0.9208069l0 8.030045c-1.306675 -0.08123779 -2.3501358 -0.50253296 -3.1303825 -1.263855c-0.7802429 -0.76434326 -1.1703682 -1.7062225 -1.1703682 -2.825653zm-2.0869217 0.02708435c0 1.986084 0.69564056 3.6020203 2.0869217 4.847824c1.3912811 1.2458191 3.3465958 1.8687286 5.865944 1.8687286c2.4347382 0 4.327381 -0.61538696 5.677929 -1.8461456c1.3474083 -1.2337799 2.0211182 -2.9023895 2.0211182 -5.0058136c0 -1.670105 -0.42302704 -3.0423126 -1.2690735 -4.1165924c-0.84605026 -1.0742798 -2.035221 -1.8100281 -3.5675087 -2.2072449l-0.32431793 2.518692c1.0716629 0.37013245 1.8519058 0.87117004 2.3407364 1.5030975c0.48882675 0.63194275 0.73324203 1.3947754 0.73324203 2.288498c0 1.2006836 -0.43712616 2.2027435 -1.3113785 3.006195c-0.8742485 0.8034668 -2.1339226 1.2503357 -3.7790184 1.3406067l0 -10.7247925c-0.30081558 -0.009033203 -0.52643204 -0.013549805 -0.6768379 -0.013549805c-2.4723434 0 -4.3900566 0.60935974 -5.7531357 1.8280945c-1.3630791 1.2187195 -2.0446205 2.7895355 -2.0446205 4.7124023z" fill-rule="evenodd"/><path fill="#434343" d="m50.563614 224.18031c0 -1.0471954 0.47472763 -1.9469452 1.4241829 -2.6992493c0.94945526 -0.75531006 2.3783379 -1.1329651 4.2866516 -1.1329651c2.0023155 0 3.4813347 0.38668823 4.4370575 1.1600494c0.9525871 0.7703552 1.4288826 1.6971893 1.4288826 2.7805023c0 1.0652618 -0.4606285 1.9725342 -1.3818817 2.721817c-0.9212532 0.7492981 -2.345436 1.1239471 -4.2725487 1.1239471c-1.9271126 0 -3.3951645 -0.39872742 -4.4041557 -1.196167c-1.0121231 -0.80044556 -1.5181885 -1.7197571 -1.5181885 -2.7579346zm-1.9882164 -0.23019409c0 0.9388733 0.19114685 1.7378082 0.57343674 2.39682c0.3791542 0.6590271 0.94945145 1.2503357 1.7108994 1.7739258l-1.9459152 0l0 2.2207947l20.714104 0l0 -2.4374542l-7.290123 0c0.54523087 -0.41526794 0.99645615 -0.94488525 1.3536797 -1.5888519c0.3572197 -0.6469879 0.53583145 -1.376709 0.53583145 -2.1891937c0 -1.1103973 -0.3258896 -2.1681366 -0.9776573 -3.1732025c-0.6549072 -1.0080872 -1.5949593 -1.7754364 -2.8201637 -2.3020477c-1.2283401 -0.5296173 -2.608654 -0.7944336 -4.1409416 -0.7944336c-1.4288826 0 -2.741825 0.23924255 -3.9388275 0.71769714c-1.2001381 0.47846985 -2.1292267 1.1871338 -2.787262 2.126007c-0.6580391 0.9388733 -0.98706055 2.0221863 -0.98706055 3.249939z" fill-rule="evenodd"/><path fill="#434343" d="m50.66232 208.98686c0 -1.2367859 0.48883057 -2.2433624 1.4664879 -3.0197449c0.6298332 -0.50553894 1.5745888 -0.81248474 2.8342628 -0.9208069l0 8.030045c-1.306675 -0.08123779 -2.3501358 -0.50253296 -3.1303825 -1.263855c-0.7802429 -0.76434326 -1.1703682 -1.7062225 -1.1703682 -2.8256378zm-2.0869217 0.02708435c0 1.9860687 0.69564056 3.602005 2.0869217 4.847824c1.3912811 1.2458038 3.3465958 1.8687134 5.865944 1.8687134c2.4347382 0 4.327381 -0.61538696 5.677929 -1.8461456c1.3474083 -1.2337799 2.0211182 -2.9023743 2.0211182 -5.0058136c0 -1.670105 -0.42302704 -3.0422974 -1.2690735 -4.1165924c-0.84605026 -1.0742798 -2.035221 -1.8100281 -3.5675087 -2.2072449l-0.32431793 2.5187073c1.0716629 0.37013245 1.8519058 0.8711548 2.3407364 1.5030975c0.48882675 0.6319275 0.73324203 1.3947601 0.73324203 2.288498c0 1.2006683 -0.43712616 2.2027283 -1.3113785 3.0061798c-0.8742485 0.8034668 -2.1339226 1.2503357 -3.7790184 1.3406067l0 -10.7247925c-0.30081558 -0.009033203 -0.52643204 -0.013549805 -0.6768379 -0.013549805c-2.4723434 0 -4.3900566 0.60935974 -5.7531357 1.8280945c-1.3630791 1.2187195 -2.0446205 2.7895355 -2.0446205 4.7124176z" fill-rule="evenodd"/><path fill="#434343" d="m56.373154 190.31325l0.9306526 0c1.1186638 0 1.964714 0.13090515 2.538147 0.3927002c0.74264526 0.3430481 1.3286095 0.88020325 1.757904 1.6114349c0.4261551 0.7312317 0.63923645 1.5662842 0.63923645 2.5051575c0 0.9479065 -0.22561264 1.6686096 -0.67684174 2.1621094c-0.45122528 0.49050903 -1.0152588 0.7357483 -1.6920967 0.7357483c-0.44182587 0 -0.8429146 -0.112838745 -1.20327 -0.3385315c-0.36348724 -0.22569275 -0.63923645 -0.5461731 -0.8272476 -0.96144104c-0.18801117 -0.41526794 -0.3572197 -1.1239319 -0.5076294 -2.126007c-0.2632141 -1.7694092 -0.58283234 -3.096466 -0.9588547 -3.9811707zm-7.797756 3.1009827c0 1.2367859 0.17704391 2.3246155 0.53113174 3.2634888c0.35095596 0.9388733 0.85388565 1.6565552 1.5087891 2.1530762c0.65177155 0.496521 1.5087852 0.8531189 2.5710487 1.0697784l0.33842087 -2.3832855c-1.0622635 -0.2618103 -1.8017731 -0.66503906 -2.2185287 -1.2097015c-0.41989136 -0.5476837 -0.62983704 -1.3947754 -0.62983704 -2.541275c0 -1.2277527 0.28671646 -2.1530914 0.8601494 -2.7759857c0.42302322 -0.4604187 1.1515656 -0.6906128 2.185627 -0.6906128c0.094005585 0 0.31491852 0.0045166016 0.6627388 0.013534546c0.33842087 0.9298401 0.62983704 2.3787842 0.8742485 4.3468018c0.12220764 0.9659424 0.24911499 1.6881561 0.38072205 2.166626c0.18801117 0.64997864 0.46532822 1.2352753 0.83195114 1.7558594c0.3666191 0.5175934 0.85388184 0.9373779 1.4617844 1.2593536c0.60476685 0.318985 1.2737732 0.47846985 2.0070152 0.47846985c1.2502747 0 2.2780647 -0.42430115 3.0833817 -1.2729034c0.8021774 -0.84858704 1.20327 -2.0628052 1.20327 -3.6426392c0 -0.95692444 -0.16451263 -1.8521576 -0.49353027 -2.6857147c-0.32901764 -0.83654785 -0.89305115 -1.7062073 -1.6920967 -2.6089783c0.70504 -0.07221985 1.3207741 -0.2347107 1.8472061 -0.4874878l0 -2.5457764c-0.5734329 0.30693054 -1.171936 0.5130615 -1.7955055 0.61839294c-0.62670135 0.10231018 -2.1198235 0.15345764 -4.4793587 0.15345764l-3.3841972 0c-1.128067 0 -1.9083099 0.040634155 -2.3407364 0.12187195c-0.69564056 0.14445496 -1.2706413 0.3972168 -1.7249985 0.7583313c-0.45749283 0.36109924 -0.83665085 0.9253235 -1.1374664 1.6926727c-0.3008194 0.76734924 -0.4512291 1.7648926 -0.4512291 2.9926453z" fill-rule="evenodd"/><path fill="#434343" d="m43.682415 181.19987l1.5228882 2.4239197l3.7085152 0l0 1.7874603l1.9741135 0l0 -1.7874603l8.615601 0c1.522892 0 2.52248 -0.0993042 2.9987755 -0.2979126c0.4731598 -0.1986084 0.8554497 -0.5416565 1.1468658 -1.0291443c0.29141998 -0.4874878 0.43712997 -1.173584 0.43712997 -2.0583038c0 -0.54164124 -0.07521057 -1.1555328 -0.22561646 -1.841629l-2.242031 0.3520813c0.06580353 0.4423523 0.09870529 0.7989502 0.09870529 1.0697784c0 0.36109924 -0.06110382 0.6394501 -0.18330765 0.8350525c-0.12220764 0.19258118 -0.28671646 0.33250427 -0.49353027 0.41978455c-0.20681381 0.084243774 -0.6721382 0.12637329 -1.3959808 0.12637329l-8.756611 0l0 -2.4509888l-1.9741135 0l0 2.4509888l-5.2314034 0z" fill-rule="evenodd"/><path fill="#f1c232" d="m204.56429 296.35303l135.99998 -48.094498l136.0 48.094498l-136.0 48.094482z" fill-rule="evenodd"/><path stroke="#000000" stroke-width="2.0" stroke-linejoin="round" stroke-linecap="butt" d="m204.56429 296.35303l135.99998 -48.094498l136.0 48.094498l-136.0 48.094482z" fill-rule="evenodd"/><path fill="#000000" d="m312.88458 290.833l-2.921875 0l0 -11.0625l2.71875 0l0 1.578125q0.703125 -1.125 1.25 -1.46875q0.5625 -0.359375 1.265625 -0.359375q1.0 0 1.9375 0.5625l-0.90625 2.546875q-0.75 -0.484375 -1.375 -0.484375q-0.625 0 -1.046875 0.34375q-0.421875 0.328125 -0.671875 1.21875q-0.25 0.890625 -0.25 3.703125l0 3.421875zm11.909424 -3.515625l2.90625 0.484375q-0.546875 1.609375 -1.765625 2.453125q-1.21875 0.828125 -3.03125 0.828125q-2.890625 0 -4.28125 -1.890625q-1.09375 -1.5 -1.09375 -3.8125q0 -2.75 1.4375 -4.296875q1.4375 -1.5625 3.640625 -1.5625q2.46875 0 3.890625 1.640625q1.421875 1.625 1.359375 4.984375l-7.328125 0q0.03125 1.296875 0.703125 2.03125q0.6875 0.71875 1.703125 0.71875q0.6875 0 1.15625 -0.375q0.46875 -0.375 0.703125 -1.203125zm0.171875 -2.96875q-0.03125 -1.265625 -0.65625 -1.921875q-0.625 -0.671875 -1.53125 -0.671875q-0.953125 0 -1.578125 0.703125q-0.625 0.703125 -0.609375 1.890625l4.375 0zm5.2054443 -4.578125l2.71875 0l0 1.625q0.53125 -0.828125 1.4375 -1.34375q0.90625 -0.53125 2.015625 -0.53125q1.921875 0 3.265625 1.515625q1.34375 1.5 1.34375 4.203125q0 2.765625 -1.359375 4.3125q-1.34375 1.53125 -3.265625 1.53125q-0.921875 0 -1.671875 -0.359375q-0.734375 -0.375 -1.5625 -1.25l0 5.5625l-2.921875 0l0 -15.265625zm2.890625 5.34375q0 1.859375 0.734375 2.75q0.75 0.890625 1.8125 0.890625q1.015625 0 1.6875 -0.8125q0.6875 -0.8125 0.6875 -2.6875q0 -1.734375 -0.703125 -2.578125q-0.703125 -0.84375 -1.734375 -0.84375q-1.0625 0 -1.78125 0.828125q-0.703125 0.828125 -0.703125 2.453125zm16.621826 2.203125l2.90625 0.484375q-0.546875 1.609375 -1.765625 2.453125q-1.21875 0.828125 -3.03125 0.828125q-2.890625 0 -4.28125 -1.890625q-1.09375 -1.5 -1.09375 -3.8125q0 -2.75 1.4375 -4.296875q1.4375 -1.5625 3.640625 -1.5625q2.46875 0 3.890625 1.640625q1.421875 1.625 1.359375 4.984375l-7.328125 0q0.03125 1.296875 0.703125 2.03125q0.6875 0.71875 1.703125 0.71875q0.6875 0 1.15625 -0.375q0.46875 -0.375 0.703125 -1.203125zm0.171875 -2.96875q-0.03125 -1.265625 -0.65625 -1.921875q-0.625 -0.671875 -1.53125 -0.671875q-0.953125 0 -1.578125 0.703125q-0.625 0.703125 -0.609375 1.890625l4.375 0zm7.4710693 -1.203125l-2.65625 -0.484375q0.453125 -1.59375 1.546875 -2.359375q1.09375 -0.78125 3.25 -0.78125q1.953125 0 2.90625 0.46875q0.96875 0.453125 1.359375 1.171875q0.390625 0.71875 0.390625 2.625l-0.03125 3.40625q0 1.46875 0.125 2.15625q0.140625 0.6875 0.53125 1.484375l-2.890625 0q-0.109375 -0.296875 -0.28125 -0.859375q-0.078125 -0.265625 -0.109375 -0.34375q-0.75 0.71875 -1.609375 1.09375q-0.84375 0.359375 -1.8125 0.359375q-1.703125 0 -2.6875 -0.921875q-0.984375 -0.9375 -0.984375 -2.34375q0 -0.9375 0.4375 -1.671875q0.453125 -0.734375 1.25 -1.125q0.8125 -0.390625 2.34375 -0.6875q2.046875 -0.390625 2.84375 -0.71875l0 -0.296875q0 -0.84375 -0.421875 -1.203125q-0.421875 -0.359375 -1.578125 -0.359375q-0.78125 0 -1.21875 0.3125q-0.4375 0.3125 -0.703125 1.078125zm3.921875 2.375q-0.5625 0.1875 -1.78125 0.453125q-1.21875 0.25 -1.59375 0.5q-0.578125 0.40625 -0.578125 1.03125q0 0.625 0.453125 1.078125q0.46875 0.4375 1.171875 0.4375q0.796875 0 1.515625 -0.515625q0.53125 -0.40625 0.6875 -0.96875q0.125 -0.375 0.125 -1.4375l0 -0.578125zm10.830444 -5.75l0 2.328125l-2.0 0l0 4.46875q0 1.34375 0.046875 1.578125q0.0625 0.21875 0.265625 0.375q0.203125 0.140625 0.5 0.140625q0.40625 0 1.171875 -0.28125l0.25 2.265625q-1.015625 0.4375 -2.3125 0.4375q-0.796875 0 -1.4375 -0.265625q-0.625 -0.265625 -0.921875 -0.6875q-0.296875 -0.421875 -0.40625 -1.140625q-0.09375 -0.515625 -0.09375 -2.0625l0 -4.828125l-1.34375 0l0 -2.328125l1.34375 0l0 -2.1875l2.9375 -1.71875l0 3.90625l2.0 0z" fill-rule="nonzero"/><path fill="#000000" d="m341.87836 312.8955l-2.65625 0q-0.015625 -0.578125 -0.015625 -0.703125q0 -1.28125 0.421875 -2.109375q0.4375 -0.84375 1.71875 -1.875q1.28125 -1.046875 1.53125 -1.375q0.375 -0.515625 0.375 -1.125q0 -0.84375 -0.6875 -1.453125q-0.671875 -0.609375 -1.828125 -0.609375q-1.109375 0 -1.859375 0.640625q-0.75 0.625 -1.03125 1.921875l-2.6875 -0.328125q0.109375 -1.859375 1.578125 -3.15625q1.484375 -1.3125 3.875 -1.3125q2.515625 0 4.0 1.328125q1.5 1.3125 1.5 3.0625q0 0.953125 -0.546875 1.828125q-0.546875 0.859375 -2.34375 2.34375q-0.921875 0.78125 -1.15625 1.25q-0.21875 0.46875 -0.1875 1.671875zm-2.65625 3.9375l0 -2.921875l2.921875 0l0 2.921875l-2.921875 0z" fill-rule="nonzero"/><path fill="#cfe2f3" d="m284.3264 16.448818l110.42871 0l0 0c14.466461 0 26.193817 11.217701 26.193817 25.055435c0 13.83773 -11.727356 25.055431 -26.193817 25.055431l-110.42871 0l0 0c-14.466461 0 -26.193848 -11.217701 -26.193848 -25.055431c0 -13.837734 11.727386 -25.055435 26.193848 -25.055435z" fill-rule="evenodd"/><path stroke="#000000" stroke-width="2.0" stroke-linejoin="round" stroke-linecap="butt" d="m284.3264 16.448818l110.42871 0l0 0c14.466461 0 26.193817 11.217701 26.193817 25.055435c0 13.83773 -11.727356 25.055431 -26.193817 25.055431l-110.42871 0l0 0c-14.466461 0 -26.193848 -11.217701 -26.193848 -25.055431c0 -13.837734 11.727386 -25.055435 26.193848 -25.055435z" fill-rule="evenodd"/><path fill="#000000" d="m316.0102 44.015503l3.0 -0.296875q0.28125 1.515625 1.109375 2.234375q0.828125 0.703125 2.234375 0.703125q1.484375 0 2.234375 -0.625q0.765625 -0.640625 0.765625 -1.484375q0 -0.546875 -0.328125 -0.921875q-0.3125 -0.375 -1.109375 -0.65625q-0.53125 -0.1875 -2.46875 -0.671875q-2.46875 -0.609375 -3.46875 -1.515625q-1.40625 -1.25 -1.40625 -3.0625q0 -1.171875 0.65625 -2.1875q0.65625 -1.015625 1.90625 -1.546875q1.25 -0.53125 3.0 -0.53125q2.875 0 4.328125 1.265625q1.453125 1.265625 1.53125 3.359375l-3.078125 0.140625q-0.203125 -1.171875 -0.859375 -1.6875q-0.640625 -0.515625 -1.953125 -0.515625q-1.34375 0 -2.09375 0.546875q-0.5 0.359375 -0.5 0.953125q0 0.53125 0.46875 0.921875q0.578125 0.484375 2.828125 1.015625q2.25 0.53125 3.328125 1.109375q1.078125 0.5625 1.6875 1.546875q0.609375 0.984375 0.609375 2.421875q0 1.3125 -0.734375 2.46875q-0.734375 1.140625 -2.0625 1.703125q-1.328125 0.546875 -3.3125 0.546875q-2.90625 0 -4.453125 -1.328125q-1.546875 -1.34375 -1.859375 -3.90625zm20.069458 -6.09375l0 2.328125l-2.0 0l0 4.46875q0 1.34375 0.046875 1.578125q0.0625 0.21875 0.265625 0.375q0.203125 0.140625 0.5 0.140625q0.40625 0 1.171875 -0.28125l0.25 2.265625q-1.015625 0.4375 -2.3125 0.4375q-0.796875 0 -1.4375 -0.265625q-0.625 -0.265625 -0.921875 -0.6875q-0.296875 -0.421875 -0.40625 -1.140625q-0.09375 -0.515625 -0.09375 -2.0625l0 -4.828125l-1.34375 0l0 -2.328125l1.34375 0l0 -2.1875l2.9375 -1.71875l0 3.90625l2.0 0zm4.211792 3.375l-2.65625 -0.484375q0.453125 -1.59375 1.546875 -2.359375q1.09375 -0.78125 3.25 -0.78125q1.953125 0 2.90625 0.46875q0.96875 0.453125 1.359375 1.171875q0.390625 0.71875 0.390625 2.625l-0.03125 3.40625q0 1.46875 0.125 2.15625q0.140625 0.6875 0.53125 1.484375l-2.890625 0q-0.109375 -0.296875 -0.28125 -0.859375q-0.078125 -0.265625 -0.109375 -0.34375q-0.75 0.71875 -1.609375 1.09375q-0.84375 0.359375 -1.8125 0.359375q-1.703125 0 -2.6875 -0.921875q-0.984375 -0.9375 -0.984375 -2.34375q0 -0.9375 0.4375 -1.671875q0.453125 -0.734375 1.25 -1.125q0.8125 -0.390625 2.34375 -0.6875q2.046875 -0.390625 2.84375 -0.71875l0 -0.296875q0 -0.84375 -0.421875 -1.203125q-0.421875 -0.359375 -1.578125 -0.359375q-0.78125 0 -1.21875 0.3125q-0.4375 0.3125 -0.703125 1.078125zm3.921875 2.375q-0.5625 0.1875 -1.78125 0.453125q-1.21875 0.25 -1.59375 0.5q-0.578125 0.40625 -0.578125 1.03125q0 0.625 0.453125 1.078125q0.46875 0.4375 1.171875 0.4375q0.796875 0 1.515625 -0.515625q0.53125 -0.40625 0.6875 -0.96875q0.125 -0.375 0.125 -1.4375l0 -0.578125zm8.549194 5.3125l-2.921875 0l0 -11.0625l2.71875 0l0 1.578125q0.703125 -1.125 1.25 -1.46875q0.5625 -0.359375 1.265625 -0.359375q1.0 0 1.9375 0.5625l-0.90625 2.546875q-0.75 -0.484375 -1.375 -0.484375q-0.625 0 -1.046875 0.34375q-0.421875 0.328125 -0.671875 1.21875q-0.25 0.890625 -0.25 3.703125l0 3.421875zm10.581329 -11.0625l0 2.328125l-2.0 0l0 4.46875q0 1.34375 0.046875 1.578125q0.0625 0.21875 0.265625 0.375q0.203125 0.140625 0.5 0.140625q0.40625 0 1.171875 -0.28125l0.25 2.265625q-1.015625 0.4375 -2.3125 0.4375q-0.796875 0 -1.4375 -0.265625q-0.625 -0.265625 -0.921875 -0.6875q-0.296875 -0.421875 -0.40625 -1.140625q-0.09375 -0.515625 -0.09375 -2.0625l0 -4.828125l-1.34375 0l0 -2.328125l1.34375 0l0 -2.1875l2.9375 -1.71875l0 3.90625l2.0 0z" fill-rule="nonzero"/><path fill="#ff0000" d="m363.36823 511.4029l-9.15509 4.2945557c-0.16635132 -0.078186035 -0.2925415 -0.13500977 -0.37857056 -0.17053223c-0.61380005 -0.2699585 -0.9981079 -0.46533203 -1.1529846 -0.5860596c-0.20651245 -0.16345215 -0.36712646 -0.37298584 -0.48187256 -0.6287842c-0.114715576 -0.2557373 -0.17208862 -0.5967407 -0.17208862 -1.0230103c0 -0.31256104 0.045898438 -0.6784668 0.13769531 -1.0975952l0 0l-1.4541626 0.21313477c-0.12619019 0.45465088 -0.18930054 0.8666992 -0.18930054 1.236145c0 0.6109619 0.119506836 1.1366577 0.3585205 1.5771484c0.23712158 0.44049072 0.6109314 0.83117676 1.12146 1.1721802c0.37857056 0.25579834 1.0697937 0.614563 2.073639 1.076355l9.292755 4.305176l0 -1.9181519l-5.326111 -2.4190063c-0.6768799 -0.30548096 -1.3709717 -0.5683594 -2.0822754 -0.7885742c0.73999023 -0.24157715 1.4455261 -0.5150757 2.1166687 -0.82055664l5.2917175 -2.3551025z" fill-rule="evenodd"/><path fill="#ff0000" d="m362.30127 528.0696c0 0.9732666 -0.2982788 1.7654419 -0.89486694 2.3764038c-0.38430786 0.39782715 -0.9608154 0.63934326 -1.7294617 0.7246094l0 -6.319275c0.79733276 0.063964844 1.4340515 0.3955078 1.9101562 0.9946289c0.47610474 0.60150146 0.71417236 1.3427124 0.71417236 2.2236328zm1.2734375 -0.02130127c0 -1.5629883 -0.424469 -2.8346558 -1.2734375 -3.8150024c-0.8489685 -0.9804077 -2.0421143 -1.4706421 -3.5794373 -1.4706421c-1.4856873 0 -2.640564 0.48431396 -3.4646912 1.4528809c-0.8222046 0.97088623 -1.2332764 2.2839966 -1.2332764 3.939331c0 1.31427 0.25811768 2.394104 0.77438354 3.239563c0.51626587 0.84539795 1.2418823 1.4243774 2.1769104 1.7369995l0.1979065 -1.9821167c-0.65393066 -0.29125977 -1.1300659 -0.6855469 -1.4283447 -1.1828613c-0.2982788 -0.49731445 -0.4474182 -1.0975952 -0.4474182 -1.8009644c0 -0.94488525 0.26672363 -1.7334595 0.8002014 -2.3657227c0.5334778 -0.6322632 1.302124 -0.98394775 2.3059692 -1.0549927l0 8.439941c0.18356323 0.007080078 0.32122803 0.010620117 0.4130249 0.010620117c1.5086365 0 2.678833 -0.47955322 3.5105896 -1.4385986c0.8317566 -0.95910645 1.2476196 -2.1952515 1.2476196 -3.708435z" fill-rule="evenodd"/><path fill="#ff0000" d="m363.5747 539.25885c0 -0.58966064 -0.06213379 -1.1426392 -0.18640137 -1.6588745c-0.12237549 -0.513855 -0.27249146 -0.9199829 -0.45031738 -1.2183838c-0.22943115 -0.39782715 -0.51815796 -0.71276855 -0.8661804 -0.94488525c-0.34606934 -0.2296753 -0.7227478 -0.34454346 -1.1300354 -0.34454346c-0.4474182 0 -0.8565979 0.13970947 -1.2275391 0.41918945c-0.36904907 0.28179932 -0.6587219 0.69384766 -0.8690491 1.236145c-0.20843506 0.5446167 -0.4560547 1.5203247 -0.7428589 2.926941c-0.21224976 1.0443726 -0.38720703 1.697937 -0.5248718 1.9608154c-0.20074463 0.37652588 -0.47610474 0.5647583 -0.8260193 0.5647583c-0.39004517 0 -0.7304077 -0.21313477 -1.0210571 -0.63934326c-0.2887268 -0.42626953 -0.43307495 -1.079895 -0.43307495 -1.9608154c0 -0.87384033 0.16348267 -1.5546875 0.490448 -2.0424805c0.32696533 -0.48547363 0.79733276 -0.78149414 1.4111328 -0.8880615l-0.24093628 -1.8968506c-0.9694214 0.21313477 -1.7008057 0.7045288 -2.1941223 1.4741821c-0.49331665 0.77197266 -0.7399597 1.8932495 -0.7399597 3.3638916c0 0.8880005 0.12426758 1.6837158 0.37283325 2.387024c0.25048828 0.7033081 0.6032715 1.2409058 1.0583496 1.6126709c0.45700073 0.3741455 0.9436035 0.56121826 1.4598694 0.56121826c0.5277405 0 0.9694214 -0.15270996 1.3250732 -0.45819092c0.35565186 -0.30548096 0.6262207 -0.72698975 0.811676 -1.2645874c0.18740845 -0.53515625 0.42736816 -1.4812622 0.71990967 -2.8381348c0.20651245 -0.9378052 0.33843994 -1.5025635 0.395813 -1.694397c0.10897827 -0.33392334 0.24664307 -0.5789795 0.41299438 -0.7352905c0.16061401 -0.15631104 0.3413086 -0.23443604 0.54208374 -0.23443604c0.31549072 0 0.59085083 0.18823242 0.8260193 0.5647583c0.23519897 0.37652588 0.3527832 1.005249 0.3527832 1.8862305c0 0.74591064 -0.13192749 1.3225708 -0.395813 1.7298584c-0.26385498 0.409729 -0.63098145 0.6571655 -1.1013489 0.74243164l0.20651245 1.8755493c0.5908203 -0.120788574 1.0621643 -0.34100342 1.413971 -0.66070557c0.35375977 -0.31970215 0.6338806 -0.81585693 0.84036255 -1.4883423c0.20651245 -0.67022705 0.30975342 -1.4492798 0.30975342 -2.3373413z" fill-rule="evenodd"/><path fill="#f6b26b" d="m472.56427 344.98294l97.61133 0c2.805359 0 5.4958496 1.1144104 7.479553 3.098114c1.9837036 1.9837036 3.0980835 4.674164 3.0980835 7.4795227l0 52.886932l-108.188965 0z" fill-rule="evenodd"/><path stroke="#000000" stroke-width="2.0" stroke-linejoin="round" stroke-linecap="butt" d="m472.56427 344.98294l97.61133 0c2.805359 0 5.4958496 1.1144104 7.479553 3.098114c1.9837036 1.9837036 3.0980835 4.674164 3.0980835 7.4795227l0 52.886932l-108.188965 0z" fill-rule="evenodd"/><path fill="#000000" d="m492.09012 368.29147l2.625 -0.25q0.234375 1.3125 0.953125 1.9375q0.734375 0.609375 1.96875 0.609375q1.296875 0 1.953125 -0.546875q0.671875 -0.546875 0.671875 -1.28125q0 -0.484375 -0.28125 -0.8125q-0.28125 -0.328125 -0.96875 -0.578125q-0.484375 -0.15625 -2.171875 -0.578125q-2.15625 -0.546875 -3.03125 -1.328125q-1.234375 -1.09375 -1.234375 -2.6875q0 -1.015625 0.578125 -1.90625q0.578125 -0.890625 1.65625 -1.34375q1.09375 -0.46875 2.640625 -0.46875q2.515625 0 3.78125 1.109375q1.28125 1.09375 1.34375 2.9375l-2.703125 0.109375q-0.171875 -1.03125 -0.75 -1.46875q-0.5625 -0.453125 -1.703125 -0.453125q-1.171875 0 -1.84375 0.46875q-0.421875 0.3125 -0.421875 0.84375q0 0.46875 0.40625 0.796875q0.5 0.4375 2.46875 0.90625q1.96875 0.453125 2.90625 0.953125q0.953125 0.5 1.484375 1.359375q0.53125 0.859375 0.53125 2.125q0 1.15625 -0.640625 2.15625q-0.640625 1.0 -1.8125 1.484375q-1.15625 0.484375 -2.890625 0.484375q-2.53125 0 -3.890625 -1.171875q-1.359375 -1.171875 -1.625 -3.40625zm18.709198 1.265625l2.546875 0.421875q-0.484375 1.40625 -1.546875 2.140625q-1.0625 0.734375 -2.65625 0.734375q-2.515625 0 -3.734375 -1.65625q-0.953125 -1.3125 -0.953125 -3.328125q0 -2.40625 1.25 -3.765625q1.265625 -1.359375 3.1875 -1.359375q2.15625 0 3.40625 1.421875q1.25 1.421875 1.1875 4.375l-6.40625 0q0.03125 1.140625 0.609375 1.78125q0.59375 0.625 1.484375 0.625q0.59375 0 1.0 -0.328125q0.421875 -0.328125 0.625 -1.0625zm0.15625 -2.59375q-0.03125 -1.109375 -0.578125 -1.6875q-0.546875 -0.578125 -1.328125 -0.578125q-0.84375 0 -1.390625 0.609375q-0.546875 0.609375 -0.53125 1.65625l3.828125 0zm13.063232 -1.140625l-2.53125 0.453125q-0.125 -0.75 -0.578125 -1.125q-0.453125 -0.390625 -1.171875 -0.390625q-0.953125 0 -1.53125 0.65625q-0.5625 0.65625 -0.5625 2.203125q0 1.734375 0.578125 2.4375q0.578125 0.703125 1.546875 0.703125q0.734375 0 1.203125 -0.40625q0.46875 -0.421875 0.65625 -1.421875l2.515625 0.421875q-0.390625 1.734375 -1.515625 2.625q-1.109375 0.875 -2.96875 0.875q-2.125 0 -3.390625 -1.328125q-1.25 -1.34375 -1.25 -3.71875q0 -2.390625 1.265625 -3.71875q1.265625 -1.34375 3.421875 -1.34375q1.765625 0 2.796875 0.765625q1.046875 0.75 1.515625 2.3125zm1.3444824 1.84375q0 -1.28125 0.625 -2.46875q0.625 -1.203125 1.78125 -1.828125q1.15625 -0.625 2.578125 -0.625q2.1875 0 3.59375 1.421875q1.40625 1.421875 1.40625 3.609375q0 2.1875 -1.421875 3.640625q-1.421875 1.4375 -3.5625 1.4375q-1.328125 0 -2.546875 -0.59375q-1.203125 -0.609375 -1.828125 -1.765625q-0.625 -1.171875 -0.625 -2.828125zm2.625 0.125q0 1.453125 0.671875 2.21875q0.6875 0.75 1.6875 0.75q1.0 0 1.671875 -0.75q0.6875 -0.765625 0.6875 -2.234375q0 -1.421875 -0.6875 -2.1875q-0.671875 -0.765625 -1.671875 -0.765625q-1.0 0 -1.6875 0.765625q-0.671875 0.765625 -0.671875 2.203125zm18.16156 4.84375l-2.5625 0l0 -4.9375q0 -1.5625 -0.171875 -2.015625q-0.15625 -0.46875 -0.53125 -0.71875q-0.359375 -0.265625 -0.875 -0.265625q-0.671875 0 -1.203125 0.375q-0.53125 0.359375 -0.734375 0.96875q-0.1875 0.59375 -0.1875 2.21875l0 4.375l-2.546875 0l0 -9.671875l2.375 0l0 1.421875q1.265625 -1.640625 3.1875 -1.640625q0.84375 0 1.546875 0.3125q0.703125 0.296875 1.0625 0.78125q0.359375 0.46875 0.5 1.078125q0.140625 0.59375 0.140625 1.703125l0 6.015625zm11.474121 0l-2.390625 0l0 -1.421875q-0.59375 0.828125 -1.40625 1.234375q-0.796875 0.40625 -1.609375 0.40625q-1.671875 0 -2.859375 -1.34375q-1.1875 -1.34375 -1.1875 -3.75q0 -2.453125 1.15625 -3.734375q1.15625 -1.28125 2.921875 -1.28125q1.625 0 2.8125 1.34375l0 -4.8125l2.5625 0l0 13.359375zm-6.84375 -5.046875q0 1.546875 0.4375 2.234375q0.609375 1.015625 1.71875 1.015625q0.890625 0 1.5 -0.75q0.625 -0.765625 0.625 -2.25q0 -1.671875 -0.609375 -2.40625q-0.59375 -0.734375 -1.53125 -0.734375q-0.90625 0 -1.53125 0.734375q-0.609375 0.71875 -0.609375 2.15625z" fill-rule="nonzero"/><path fill="#000000" d="m501.06726 381.27585l5.34375 0q1.59375 0 2.359375 0.140625q0.78125 0.125 1.390625 0.546875q0.625 0.421875 1.03125 1.125q0.40625 0.6875 0.40625 1.546875q0 0.9375 -0.5 1.734375q-0.5 0.78125 -1.375 1.171875q1.21875 0.359375 1.875 1.21875q0.65625 0.84375 0.65625 2.0q0 0.921875 -0.421875 1.78125q-0.421875 0.859375 -1.15625 1.375q-0.734375 0.515625 -1.796875 0.625q-0.6875 0.078125 -3.265625 0.09375l-4.546875 0l0 -13.359375zm2.703125 2.234375l0 3.078125l1.765625 0q1.578125 0 1.953125 -0.046875q0.703125 -0.078125 1.09375 -0.46875q0.40625 -0.40625 0.40625 -1.046875q0 -0.625 -0.34375 -1.0q-0.34375 -0.390625 -1.015625 -0.484375q-0.40625 -0.03125 -2.3125 -0.03125l-1.546875 0zm0 5.296875l0 3.578125l2.5 0q1.453125 0 1.84375 -0.078125q0.609375 -0.109375 0.984375 -0.53125q0.375 -0.421875 0.375 -1.140625q0 -0.59375 -0.296875 -1.015625q-0.28125 -0.421875 -0.84375 -0.609375q-0.546875 -0.203125 -2.390625 -0.203125l-2.171875 0zm10.754211 5.828125l0 -13.359375l2.5625 0l0 13.359375l-2.5625 0zm4.5895386 -4.96875q0 -1.28125 0.625 -2.46875q0.625 -1.203125 1.78125 -1.828125q1.15625 -0.625 2.578125 -0.625q2.1875 0 3.59375 1.421875q1.40625 1.421875 1.40625 3.609375q0 2.1875 -1.421875 3.640625q-1.421875 1.4375 -3.5625 1.4375q-1.328125 0 -2.546875 -0.59375q-1.203125 -0.609375 -1.828125 -1.765625q-0.625 -1.171875 -0.625 -2.828125zm2.625 0.125q0 1.453125 0.671875 2.21875q0.6875 0.75 1.6875 0.75q1.0 0 1.671875 -0.75q0.6875 -0.765625 0.6875 -2.234375q0 -1.421875 -0.6875 -2.1875q-0.671875 -0.765625 -1.671875 -0.765625q-1.0 0 -1.6875 0.765625q-0.671875 0.765625 -0.671875 2.203125zm17.802246 -1.96875l-2.53125 0.453125q-0.125 -0.75 -0.578125 -1.125q-0.453125 -0.390625 -1.171875 -0.390625q-0.953125 0 -1.53125 0.65625q-0.5625 0.65625 -0.5625 2.203125q0 1.734375 0.578125 2.4375q0.578125 0.703125 1.546875 0.703125q0.734375 0 1.203125 -0.40625q0.46875 -0.421875 0.65625 -1.421875l2.515625 0.421875q-0.390625 1.734375 -1.515625 2.625q-1.109375 0.875 -2.96875 0.875q-2.125 0 -3.390625 -1.328125q-1.25 -1.34375 -1.25 -3.71875q0 -2.390625 1.265625 -3.71875q1.265625 -1.34375 3.421875 -1.34375q1.765625 0 2.796875 0.765625q1.046875 0.75 1.515625 2.3125zm1.8444824 6.8125l0 -13.359375l2.5625 0l0 7.09375l3.0 -3.40625l3.140625 0l-3.296875 3.53125l3.53125 6.140625l-2.75 0l-2.4375 -4.34375l-1.1875 1.25l0 3.09375l-2.5625 0z" fill-rule="nonzero"/><path fill="#f6b26b" d="m472.56427 184.98294l93.42236 0c2.805359 0 5.4958496 1.1144257 7.479553 3.098114c1.9836426 1.9836884 3.0980835 4.674164 3.0980835 7.4795227l0 52.886932l-104.0 0z" fill-rule="evenodd"/><path stroke="#000000" stroke-width="2.0" stroke-linejoin="round" stroke-linecap="butt" d="m472.56427 184.98294l93.42236 0c2.805359 0 5.4958496 1.1144257 7.479553 3.098114c1.9836426 1.9836884 3.0980835 4.674164 3.0980835 7.4795227l0 52.886932l-104.0 0z" fill-rule="evenodd"/><path fill="#000000" d="m504.17627 212.63522l0 -13.359375l9.15625 0l0 2.265625l-6.453125 0l0 3.15625l5.5625 0l0 2.265625l-5.5625 0l0 5.671875l-2.703125 0zm11.364746 -10.984375l0 -2.375l2.5625 0l0 2.375l-2.5625 0zm0 10.984375l0 -9.671875l2.5625 0l0 9.671875l-2.5625 0zm7.6364136 0l-2.5625 0l0 -9.671875l2.375 0l0 1.375q0.609375 -0.984375 1.09375 -1.28125q0.484375 -0.3125 1.109375 -0.3125q0.875 0 1.6875 0.484375l-0.796875 2.234375q-0.640625 -0.421875 -1.203125 -0.421875q-0.53125 0 -0.90625 0.296875q-0.375 0.296875 -0.59375 1.078125q-0.203125 0.765625 -0.203125 3.234375l0 2.984375zm3.900879 -2.765625l2.5625 -0.390625q0.171875 0.75 0.671875 1.140625q0.5 0.390625 1.40625 0.390625q0.984375 0 1.484375 -0.375q0.34375 -0.25 0.34375 -0.671875q0 -0.296875 -0.1875 -0.484375q-0.1875 -0.1875 -0.859375 -0.34375q-3.09375 -0.6875 -3.921875 -1.25q-1.140625 -0.78125 -1.140625 -2.171875q0 -1.265625 0.984375 -2.109375q1.0 -0.859375 3.078125 -0.859375q1.984375 0 2.953125 0.65625q0.96875 0.640625 1.328125 1.90625l-2.40625 0.4375q-0.15625 -0.5625 -0.59375 -0.859375q-0.421875 -0.296875 -1.234375 -0.296875q-1.0 0 -1.4375 0.28125q-0.296875 0.203125 -0.296875 0.515625q0 0.265625 0.25 0.46875q0.34375 0.25 2.390625 0.71875q2.046875 0.453125 2.859375 1.140625q0.796875 0.671875 0.796875 1.890625q0 1.34375 -1.109375 2.296875q-1.109375 0.953125 -3.28125 0.953125q-1.984375 0 -3.140625 -0.796875q-1.140625 -0.8125 -1.5 -2.1875zm15.719482 -6.90625l0 2.03125l-1.75 0l0 3.90625q0 1.1875 0.046875 1.390625q0.046875 0.1875 0.21875 0.3125q0.1875 0.125 0.4375 0.125q0.359375 0 1.03125 -0.25l0.21875 2.0q-0.890625 0.375 -2.015625 0.375q-0.703125 0 -1.265625 -0.234375q-0.546875 -0.234375 -0.8125 -0.59375q-0.25 -0.375 -0.34375 -1.0q-0.09375 -0.453125 -0.09375 -1.8125l0 -4.21875l-1.171875 0l0 -2.03125l1.171875 0l0 -1.921875l2.578125 -1.5l0 3.421875l1.75 0z" fill-rule="nonzero"/><path fill="#000000" d="m498.97278 221.27585l5.34375 0q1.59375 0 2.359375 0.140625q0.78125 0.125 1.390625 0.546875q0.625 0.421875 1.03125 1.125q0.40625 0.6875 0.40625 1.546875q0 0.9375 -0.5 1.734375q-0.5 0.78125 -1.375 1.171875q1.21875 0.359375 1.875 1.21875q0.65625 0.84375 0.65625 2.0q0 0.921875 -0.421875 1.78125q-0.421875 0.859375 -1.15625 1.375q-0.734375 0.515625 -1.796875 0.625q-0.6875 0.078125 -3.265625 0.09375l-4.546875 0l0 -13.359375zm2.703125 2.234375l0 3.078125l1.765625 0q1.578125 0 1.953125 -0.046875q0.703125 -0.078125 1.09375 -0.46875q0.40625 -0.40625 0.40625 -1.046875q0 -0.625 -0.34375 -1.0q-0.34375 -0.390625 -1.015625 -0.484375q-0.40625 -0.03125 -2.3125 -0.03125l-1.546875 0zm0 5.296875l0 3.578125l2.5 0q1.453125 0 1.84375 -0.078125q0.609375 -0.109375 0.984375 -0.53125q0.375 -0.421875 0.375 -1.140625q0 -0.59375 -0.296875 -1.015625q-0.28125 -0.421875 -0.84375 -0.609375q-0.546875 -0.203125 -2.390625 -0.203125l-2.171875 0zm10.754211 5.828125l0 -13.359375l2.5625 0l0 13.359375l-2.5625 0zm4.5895386 -4.96875q0 -1.28125 0.625 -2.46875q0.625 -1.203125 1.78125 -1.828125q1.15625 -0.625 2.578125 -0.625q2.1875 0 3.59375 1.421875q1.40625 1.421875 1.40625 3.609375q0 2.1875 -1.421875 3.640625q-1.421875 1.4375 -3.5625 1.4375q-1.328125 0 -2.546875 -0.59375q-1.203125 -0.609375 -1.828125 -1.765625q-0.625 -1.171875 -0.625 -2.828125zm2.625 0.125q0 1.453125 0.671875 2.21875q0.6875 0.75 1.6875 0.75q1.0 0 1.671875 -0.75q0.6875 -0.765625 0.6875 -2.234375q0 -1.421875 -0.6875 -2.1875q-0.671875 -0.765625 -1.671875 -0.765625q-1.0 0 -1.6875 0.765625q-0.671875 0.765625 -0.671875 2.203125zm17.802246 -1.96875l-2.53125 0.453125q-0.125 -0.75 -0.578125 -1.125q-0.453125 -0.390625 -1.171875 -0.390625q-0.953125 0 -1.53125 0.65625q-0.5625 0.65625 -0.5625 2.203125q0 1.734375 0.578125 2.4375q0.578125 0.703125 1.546875 0.703125q0.734375 0 1.203125 -0.40625q0.46875 -0.421875 0.65625 -1.421875l2.515625 0.421875q-0.390625 1.734375 -1.515625 2.625q-1.109375 0.875 -2.96875 0.875q-2.125 0 -3.390625 -1.328125q-1.25 -1.34375 -1.25 -3.71875q0 -2.390625 1.265625 -3.71875q1.265625 -1.34375 3.421875 -1.34375q1.765625 0 2.796875 0.765625q1.046875 0.75 1.515625 2.3125zm1.8444824 6.8125l0 -13.359375l2.5625 0l0 7.09375l3.0 -3.40625l3.140625 0l-3.296875 3.53125l3.53125 6.140625l-2.75 0l-2.4375 -4.34375l-1.1875 1.25l0 3.09375l-2.5625 0z" fill-rule="nonzero"/><path fill="#000000" fill-opacity="0.0" d="m204.56429 296.35303l-55.54886 0l0 0.06298828l-55.537758 0" fill-rule="evenodd"/><path stroke="#434343" stroke-width="3.0" stroke-linejoin="round" stroke-linecap="butt" d="m204.56429 296.35303l-55.54886 0l0 0.06298828l-37.537758 0" fill-rule="evenodd"/><path fill="#434343" stroke="#434343" stroke-width="3.0" stroke-linecap="butt" d="m111.47767 291.46082l-13.614288 4.9552l13.614288 4.9552z" fill-rule="evenodd"/><path fill="#000000" fill-opacity="0.0" d="m339.54068 176.44751l0 40.283463l133.00787 0" fill-rule="evenodd"/><path stroke="#434343" stroke-width="3.0" stroke-linejoin="round" stroke-linecap="butt" d="m339.54065 176.44751l0 40.283463l115.007904 0" fill-rule="evenodd"/><path fill="#434343" stroke="#434343" stroke-width="3.0" stroke-linecap="butt" d="m454.54855 221.68617l13.614288 -4.9552l-13.614288 -4.9552z" fill-rule="evenodd"/><path fill="#000000" fill-opacity="0.0" d="m340.56427 344.4475l0 32.283447l132.0 0" fill-rule="evenodd"/><path stroke="#434343" stroke-width="3.0" stroke-linejoin="round" stroke-linecap="butt" d="m340.56427 344.4475l0 32.283447l114.0 0" fill-rule="evenodd"/><path fill="#434343" stroke="#434343" stroke-width="3.0" stroke-linecap="butt" d="m454.56427 381.68616l13.614288 -4.9552l-13.614288 -4.9551697z" fill-rule="evenodd"/><path fill="#000000" fill-opacity="0.0" d="m524.5643 248.44751l0 47.905518l-48.0 0" fill-rule="evenodd"/><path stroke="#434343" stroke-width="3.0" stroke-linejoin="round" stroke-linecap="butt" d="m524.5643 248.44751l0 47.905518l-30.0 0" fill-rule="evenodd"/><path fill="#434343" stroke="#434343" stroke-width="3.0" stroke-linecap="butt" d="m494.56427 291.39783l-13.614288 4.9552l13.614288 4.9552z" fill-rule="evenodd"/><path fill="#f6b26b" d="m22.459297 416.80972l97.611336 0c2.8053665 0 5.4958267 1.1144104 7.4795227 3.098114c1.9836884 1.9836731 3.098114 4.674164 3.098114 7.4795227l0 52.886932l-108.18897 0z" fill-rule="evenodd"/><path stroke="#000000" stroke-width="2.0" stroke-linejoin="round" stroke-linecap="butt" d="m22.459297 416.80972l97.611336 0c2.8053665 0 5.4958267 1.1144104 7.4795227 3.098114c1.9836884 1.9836731 3.098114 4.674164 3.098114 7.4795227l0 52.886932l-108.18897 0z" fill-rule="evenodd"/><path fill="#000000" d="m56.04836 444.462l0 -11.09375l-3.953125 0l0 -2.265625l10.609375 0l0 2.265625l-3.953125 0l0 11.09375l-2.703125 0zm10.927227 -13.359375l0 4.921875q1.234375 -1.453125 2.953125 -1.453125q0.890625 0 1.59375 0.328125q0.71875 0.328125 1.078125 0.84375q0.359375 0.5 0.484375 1.125q0.140625 0.609375 0.140625 1.921875l0 5.671875l-2.5625 0l0 -5.109375q0 -1.515625 -0.15625 -1.921875q-0.140625 -0.421875 -0.515625 -0.65625q-0.359375 -0.25 -0.90625 -0.25q-0.640625 0 -1.140625 0.3125q-0.5 0.3125 -0.734375 0.9375q-0.234375 0.625 -0.234375 1.84375l0 4.84375l-2.5625 0l0 -13.359375l2.5625 0zm8.849106 2.375l0 -2.375l2.5625 0l0 2.375l-2.5625 0zm0 10.984375l0 -9.671875l2.5625 0l0 9.671875l-2.5625 0zm7.636429 0l-2.5625 0l0 -9.671875l2.375 0l0 1.375q0.609375 -0.984375 1.09375 -1.28125q0.484375 -0.3125 1.109375 -0.3125q0.875 0 1.6875076 0.484375l-0.7968826 2.234375q-0.640625 -0.421875 -1.203125 -0.421875q-0.53125 0 -0.90625 0.296875q-0.375 0.296875 -0.59375 1.078125q-0.203125 0.765625 -0.203125 3.234375l0 2.984375zm13.682152 0l-2.390625 0l0 -1.421875q-0.59375 0.828125 -1.40625 1.234375q-0.796875 0.40625 -1.609375 0.40625q-1.671875 0 -2.859375 -1.34375q-1.1875 -1.34375 -1.1875 -3.75q0 -2.453125 1.15625 -3.734375q1.15625 -1.28125 2.921875 -1.28125q1.625 0 2.8125 1.34375l0 -4.8125l2.5625 0l0 13.359375zm-6.84375 -5.046875q0 1.546875 0.4375 2.234375q0.609375 1.015625 1.71875 1.015625q0.890625 0 1.5 -0.75q0.625 -0.765625 0.625 -2.25q0 -1.671875 -0.609375 -2.40625q-0.59375 -0.734375 -1.53125 -0.734375q-0.90625 0 -1.53125 0.734375q-0.609375 0.71875 -0.609375 2.15625z" fill-rule="nonzero"/><path fill="#000000" d="m50.962284 453.10263l5.34375 0q1.59375 0 2.359375 0.140625q0.78125 0.125 1.390625 0.546875q0.625 0.421875 1.03125 1.125q0.40625 0.6875 0.40625 1.546875q0 0.9375 -0.5 1.734375q-0.5 0.78125 -1.375 1.171875q1.21875 0.359375 1.875 1.21875q0.65625 0.84375 0.65625 2.0q0 0.921875 -0.421875 1.78125q-0.421875 0.859375 -1.15625 1.375q-0.734375 0.515625 -1.796875 0.625q-0.6875 0.078125 -3.265625 0.09375l-4.546875 0l0 -13.359375zm2.703125 2.234375l0 3.078125l1.765625 0q1.578125 0 1.953125 -0.046875q0.703125 -0.078125 1.09375 -0.46875q0.40625 -0.40625 0.40625 -1.046875q0 -0.625 -0.34375 -1.0q-0.34375 -0.390625 -1.015625 -0.484375q-0.40625 -0.03125 -2.3125 -0.03125l-1.546875 0zm0 5.296875l0 3.578125l2.5 0q1.453125 0 1.84375 -0.078125q0.609375 -0.109375 0.984375 -0.53125q0.375 -0.421875 0.375 -1.140625q0 -0.59375 -0.296875 -1.015625q-0.28125 -0.421875 -0.84375 -0.609375q-0.546875 -0.203125 -2.390625 -0.203125l-2.171875 0zm10.754192 5.828125l0 -13.359375l2.5625 0l0 13.359375l-2.5625 0zm4.589554 -4.96875q0 -1.28125 0.625 -2.46875q0.625 -1.203125 1.78125 -1.828125q1.15625 -0.625 2.578125 -0.625q2.1875 0 3.59375 1.421875q1.40625 1.421875 1.40625 3.609375q0 2.1875 -1.421875 3.640625q-1.421875 1.4375 -3.5625 1.4375q-1.328125 0 -2.546875 -0.59375q-1.203125 -0.609375 -1.828125 -1.765625q-0.625 -1.171875 -0.625 -2.828125zm2.625 0.125q0 1.453125 0.671875 2.21875q0.6875 0.75 1.6875 0.75q1.0 0 1.671875 -0.75q0.6875 -0.765625 0.6875 -2.234375q0 -1.421875 -0.6875 -2.1875q-0.671875 -0.765625 -1.671875 -0.765625q-1.0 0 -1.6875 0.765625q-0.671875 0.765625 -0.671875 2.203125zm17.802238 -1.96875l-2.53125 0.453125q-0.125 -0.75 -0.5781326 -1.125q-0.453125 -0.390625 -1.171875 -0.390625q-0.953125 0 -1.53125 0.65625q-0.5625 0.65625 -0.5625 2.203125q0 1.734375 0.578125 2.4375q0.578125 0.703125 1.546875 0.703125q0.734375 0 1.203125 -0.40625q0.46875763 -0.421875 0.6562576 -1.421875l2.515625 0.421875q-0.390625 1.734375 -1.515625 2.625q-1.109375 0.875 -2.9687576 0.875q-2.125 0 -3.390625 -1.328125q-1.25 -1.34375 -1.25 -3.71875q0 -2.390625 1.265625 -3.71875q1.265625 -1.34375 3.421875 -1.34375q1.7656326 0 2.7968826 0.765625q1.046875 0.75 1.515625 2.3125zm1.8444672 6.8125l0 -13.359375l2.5625 0l0 7.09375l3.0 -3.40625l3.140625 0l-3.296875 3.53125l3.53125 6.140625l-2.75 0l-2.4375 -4.34375l-1.1875 1.25l0 3.09375l-2.5625 0z" fill-rule="nonzero"/><path fill="#000000" fill-opacity="0.0" d="m76.55379 416.80972l0 -52.023193l0.5354309 0l0 -52.039825" fill-rule="evenodd"/><path stroke="#434343" stroke-width="3.0" stroke-linejoin="round" stroke-linecap="butt" d="m76.55379 416.80972l0 -52.023193l0.5354309 0l0 -34.039825" fill-rule="evenodd"/><path fill="#434343" stroke="#434343" stroke-width="3.0" stroke-linecap="butt" d="m82.04442 330.7467l-4.9552 -13.614288l-4.9552 13.614288z" fill-rule="evenodd"/><path fill="#000000" fill-opacity="0.0" d="m340.56427 496.63647l0 71.653564" fill-rule="evenodd"/><path stroke="#ff0000" stroke-width="3.0" stroke-linejoin="round" stroke-linecap="butt" d="m340.56427 496.63647l0 53.653564" fill-rule="evenodd"/><path fill="#ff0000" stroke="#ff0000" stroke-width="3.0" stroke-linecap="butt" d="m335.6091 550.29004l4.9551697 13.614258l4.9552 -13.614258z" fill-rule="evenodd"/><path fill="#000000" fill-opacity="0.0" d="m205.06822 448.542l-37.209625 0l0 0.06298828l-37.215576 0" fill-rule="evenodd"/><path stroke="#434343" stroke-width="3.0" stroke-linejoin="round" stroke-linecap="butt" d="m205.06822 448.542l-37.209625 0l0 0.06298828l-19.215576 0" fill-rule="evenodd"/><path fill="#434343" stroke="#434343" stroke-width="3.0" stroke-linecap="butt" d="m148.64302 443.64978l-13.614288 4.9552l13.614288 4.9552z" fill-rule="evenodd"/><path fill="#000000" fill-opacity="0.0" d="m339.54074 66.559685l0 18.943748l0.06298828 0l0 18.946014" fill-rule="evenodd"/><path stroke="#000000" stroke-width="3.0" stroke-linejoin="round" stroke-linecap="butt" d="m339.54074 66.559685l0 18.943748l0.06298828 0l0 0.9460144" fill-rule="evenodd"/><path fill="#000000" stroke="#000000" stroke-width="3.0" stroke-linecap="butt" d="m334.64853 86.44945l4.9552 13.614288l4.9552 -13.614288z" fill-rule="evenodd"/><path fill="#000000" fill-opacity="0.0" d="m526.65875 408.4475l0 40.094482l-50.614166 0" fill-rule="evenodd"/><path stroke="#434343" stroke-width="3.0" stroke-linejoin="round" stroke-linecap="butt" d="m526.65875 408.4475l0 40.094482l-32.614166 0" fill-rule="evenodd"/><path fill="#434343" stroke="#434343" stroke-width="3.0" stroke-linecap="butt" d="m494.0446 443.5868l-13.614288 4.9552l13.614288 4.9552z" fill-rule="evenodd"/><path fill="#f1c232" d="m223.54066 140.44751l46.40001 -36.0l139.20001 0l46.399994 36.0l-46.399994 36.0l-139.20001 0z" fill-rule="evenodd"/><path stroke="#000000" stroke-width="2.0" stroke-linejoin="round" stroke-linecap="butt" d="m223.54066 140.44751l46.40001 -36.0l139.20001 0l46.399994 36.0l-46.399994 36.0l-139.20001 0z" fill-rule="evenodd"/><path fill="#000000" d="m294.18198 136.865l1.625 0l0 -0.828125q0 -1.390625 0.296875 -2.078125q0.296875 -0.6875 1.09375 -1.125q0.796875 -0.4375 2.015625 -0.4375q1.25 0 2.453125 0.375l-0.40625 2.046875q-0.6875 -0.171875 -1.34375 -0.171875q-0.625 0 -0.90625 0.296875q-0.28125 0.296875 -0.28125 1.140625l0 0.78125l2.1875 0l0 2.296875l-2.1875 0l0 8.765625l-2.921875 0l0 -8.765625l-1.625 0l0 -2.296875zm7.7118225 5.375q0 -1.453125 0.71875 -2.8125q0.71875 -1.375 2.03125 -2.09375q1.3125 -0.71875 2.9375 -0.71875q2.515625 0 4.109375 1.640625q1.609375 1.625 1.609375 4.109375q0 2.515625 -1.625 4.171875q-1.609375 1.640625 -4.0625 1.640625q-1.53125 0 -2.90625 -0.6875q-1.375 -0.6875 -2.09375 -2.015625q-0.71875 -1.328125 -0.71875 -3.234375zm3.0 0.15625q0 1.640625 0.78125 2.515625q0.78125 0.875 1.921875 0.875q1.140625 0 1.921875 -0.875q0.78125 -0.875 0.78125 -2.53125q0 -1.625 -0.78125 -2.5q-0.78125 -0.875 -1.921875 -0.875q-1.140625 0 -1.921875 0.875q-0.78125 0.875 -0.78125 2.515625zm13.496826 5.53125l-2.921875 0l0 -11.0625l2.71875 0l0 1.578125q0.703125 -1.125 1.25 -1.46875q0.5625 -0.359375 1.265625 -0.359375q1.0 0 1.9375 0.5625l-0.90625 2.546875q-0.75 -0.484375 -1.375 -0.484375q-0.625 0 -1.046875 0.34375q-0.421875 0.328125 -0.671875 1.21875q-0.25 0.890625 -0.25 3.703125l0 3.421875zm9.866333 0.265625l3.78125 -15.796875l2.203125 0l-3.828125 15.796875l-2.15625 0zm13.413788 -0.265625l0 -15.265625l2.921875 0l0 15.265625l-2.921875 0zm5.2537537 -5.6875q0 -1.453125 0.71875 -2.8125q0.71875 -1.375 2.03125 -2.09375q1.3125 -0.71875 2.9375 -0.71875q2.515625 0 4.109375 1.640625q1.609375 1.625 1.609375 4.109375q0 2.515625 -1.625 4.171875q-1.609375 1.640625 -4.0625 1.640625q-1.53125 0 -2.90625 -0.6875q-1.375 -0.6875 -2.09375 -2.015625q-0.71875 -1.328125 -0.71875 -3.234375zm3.0 0.15625q0 1.640625 0.78125 2.515625q0.78125 0.875 1.921875 0.875q1.140625 0 1.921875 -0.875q0.78125 -0.875 0.78125 -2.53125q0 -1.625 -0.78125 -2.5q-0.78125 -0.875 -1.921875 -0.875q-1.140625 0 -1.921875 0.875q-0.78125 0.875 -0.78125 2.515625zm10.028076 -0.15625q0 -1.453125 0.71875 -2.8125q0.71875 -1.375 2.03125 -2.09375q1.3125 -0.71875 2.9375 -0.71875q2.515625 0 4.109375 1.640625q1.609375 1.625 1.609375 4.109375q0 2.515625 -1.625 4.171875q-1.609375 1.640625 -4.0625 1.640625q-1.53125 0 -2.90625 -0.6875q-1.375 -0.6875 -2.09375 -2.015625q-0.71875 -1.328125 -0.71875 -3.234375zm3.0 0.15625q0 1.640625 0.78125 2.515625q0.78125 0.875 1.921875 0.875q1.140625 0 1.921875 -0.875q0.78125 -0.875 0.78125 -2.53125q0 -1.625 -0.78125 -2.5q-0.78125 -0.875 -1.921875 -0.875q-1.140625 0 -1.921875 0.875q-0.78125 0.875 -0.78125 2.515625zm10.621826 -5.53125l2.71875 0l0 1.625q0.53125 -0.828125 1.4375 -1.34375q0.90625 -0.53125 2.015625 -0.53125q1.921875 0 3.265625 1.515625q1.34375 1.5 1.34375 4.203125q0 2.765625 -1.359375 4.3125q-1.34375 1.53125 -3.265625 1.53125q-0.921875 0 -1.671875 -0.359375q-0.734375 -0.375 -1.5625 -1.25l0 5.5625l-2.921875 0l0 -15.265625zm2.890625 5.34375q0 1.859375 0.734375 2.75q0.75 0.890625 1.8125 0.890625q1.015625 0 1.6875 -0.8125q0.6875 -0.8125 0.6875 -2.6875q0 -1.734375 -0.703125 -2.578125q-0.703125 -0.84375 -1.734375 -0.84375q-1.0625 0 -1.78125 0.828125q-0.703125 0.828125 -0.703125 2.453125z" fill-rule="nonzero"/><path fill="#000000" fill-opacity="0.0" d="m455.54068 140.44751l145.66928 0l0 435.24408" fill-rule="evenodd"/><path stroke="#ff0000" stroke-width="3.0" stroke-linejoin="round" stroke-linecap="butt" d="m455.54068 140.44751l145.66928 0l0 417.24408" fill-rule="evenodd"/><path fill="#ff0000" stroke="#ff0000" stroke-width="3.0" stroke-linecap="butt" d="m596.25476 557.6916l4.9552 13.614319l4.9552 -13.614319z" fill-rule="evenodd"/><path fill="#ff0000" d="m638.7337 280.3507c0 1.2351685 -0.48254395 2.2675476 -1.4476929 3.0971985c-0.9619751 0.83270264 -2.3779907 1.2490845 -4.248108 1.2490845c-1.9840698 0 -3.460205 -0.41326904 -4.428467 -1.2398071c-0.96832275 -0.8265381 -1.4524536 -1.86203 -1.4524536 -3.1064758c0 -1.2537231 0.48095703 -2.2938538 1.4429321 -3.1203918c0.9651489 -0.8265381 2.4159546 -1.2398071 4.352539 -1.2398071c1.9365845 0 3.3842773 0.41326904 4.3430786 1.2398071c0.95874023 0.8265381 1.4381714 1.8666687 1.4381714 3.1203918zm2.121643 0c0 -1.8295288 -0.5600586 -3.3804321 -1.6802368 -4.6527405c-1.3480225 -1.5230713 -3.4222412 -2.2845764 -6.2226562 -2.2845764c-2.5535889 0 -4.5091553 0.6376953 -5.866638 1.9130859c-1.357544 1.2785034 -2.036255 2.953247 -2.036255 5.024231c0 1.2908936 0.3085327 2.4811401 0.9255371 3.5708313c0.6170654 1.0927429 1.4824829 1.9239197 2.5963745 2.4935303c1.1170044 0.5726929 2.6484985 0.8590393 4.5946045 0.8590393c2.4016724 0 4.282898 -0.6454468 5.6435547 -1.9363403c1.3638306 -1.290863 2.0457153 -2.9532166 2.0457153 -4.9870605z" fill-rule="evenodd"/><path fill="#ff0000" d="m640.5136 290.15768l-9.369568 0c-1.0916748 0 -1.8890991 0.051086426 -2.392212 0.15322876c-0.74993896 0.14859009 -1.3843994 0.4055481 -1.9033813 0.770813c-0.5157471 0.3683777 -0.94451904 0.9302368 -1.2862549 1.6855774c-0.34179688 0.75842285 -0.5126343 1.5741272 -0.5126343 2.447113c0 1.9781189 0.8543701 3.5429382 2.5631104 4.694519l-2.2213745 0l0 2.2427979l15.122314 0l0 -2.5074768l-8.102234 0c-1.2910767 0 -2.2767334 -0.13775635 -2.9570923 -0.41326904c-0.67718506 -0.2723999 -1.213501 -0.73828125 -1.6090698 -1.3976746c-0.39233398 -0.6593628 -0.588562 -1.3651733 -0.588562 -2.1174011c0 -0.7522583 0.19146729 -1.3837585 0.5743408 -1.8945312c0.38604736 -0.5107727 0.91607666 -0.8451233 1.5900879 -1.0029907c0.46514893 -0.102142334 1.3670044 -0.15322876 2.7055054 -0.15322876l8.387024 0z" fill-rule="evenodd"/><path fill="#ff0000" d="m645.79645 309.03333l-1.5378418 -2.4935303l-3.744995 0l0 -1.8388062l-1.9935303 0l0 1.8388062l-8.700317 0c-1.5378418 0 -2.5473022 0.10217285 -3.0282593 0.30648804c-0.4777832 0.20431519 -0.86383057 0.55718994 -1.1581421 1.0586853c-0.2942505 0.50149536 -0.44140625 1.2073059 -0.44140625 2.1174316c0 0.55722046 0.075927734 1.1887207 0.22784424 1.8945312l2.264038 -0.36218262c-0.066467285 -0.45507812 -0.09967041 -0.8218994 -0.09967041 -1.1005249c0 -0.37145996 0.061706543 -0.6578064 0.18511963 -0.8590393c0.123413086 -0.19812012 0.28955078 -0.34207153 0.49835205 -0.43182373c0.2088623 -0.08666992 0.678772 -0.1300354 1.409729 -0.1300354l8.842712 0l0 2.5214233l1.9935303 0l0 -2.5214233l5.282837 0z" fill-rule="evenodd"/><path fill="#ff0000" d="m638.7337 327.93686c0 1.2351379 -0.48254395 2.2675476 -1.4476929 3.097168c-0.9619751 0.83273315 -2.3779907 1.2490845 -4.248108 1.2490845c-1.9840698 0 -3.460205 -0.41323853 -4.428467 -1.2397766c-0.96832275 -0.8265381 -1.4524536 -1.86203 -1.4524536 -3.1064758c0 -1.2537537 0.48095703 -2.2938843 1.4429321 -3.1204224c0.9651489 -0.8265381 2.4159546 -1.2397766 4.352539 -1.2397766c1.9365845 0 3.3842773 0.41323853 4.3430786 1.2397766c0.95874023 0.8265381 1.4381714 1.8666687 1.4381714 3.1204224zm2.121643 0c0 -1.8295288 -0.5600586 -3.3804321 -1.6802368 -4.6527405c-1.3480225 -1.5230713 -3.4222412 -2.284607 -6.2226562 -2.284607c-2.5535889 0 -4.5091553 0.63772583 -5.866638 1.9131165c-1.357544 1.2785034 -2.036255 2.953247 -2.036255 5.024231c0 1.290863 0.3085327 2.4811401 0.9255371 3.5708008c0.6170654 1.0927734 1.4824829 1.9239502 2.5963745 2.4935303c1.1170044 0.5726929 2.6484985 0.8590393 4.5946045 0.8590393c2.4016724 0 4.282898 -0.64541626 5.6435547 -1.9363098c1.3638306 -1.290863 2.0457153 -2.953247 2.0457153 -4.9870605z" fill-rule="evenodd"/><path fill="#ff0000" d="m646.6224 342.49408c0 -1.0958557 -0.20727539 -1.9487 -0.6218262 -2.5585327c-0.41131592 -0.6067505 -0.9492798 -1.0308533 -1.6137695 -1.2723083c-0.49365234 -0.17645264 -1.248352 -0.26467896 -2.2640991 -0.26467896l-1.6090698 0l0 -2.2149353l-1.9935303 0l0 2.2149353l-13.128784 0l0 2.4935303l13.128784 0l0 2.883606l1.9935303 0l0 -2.883606l1.3955078 0c0.9113159 0 1.533081 0.15786743 1.8653564 0.4736328c0.3322754 0.31576538 0.49835205 0.85440063 0.49835205 1.6159363c0 0.46432495 -0.047424316 0.95654297 -0.14239502 1.4766235l2.2355957 0.37609863c0.17089844 -0.85440063 0.25634766 -1.634491 0.25634766 -2.3403015z" fill-rule="evenodd"/><path fill="#ff0000" d="m640.85535 359.08514c0 -0.5850525 -0.1708374 -1.1221619 -0.51257324 -1.6112671c-0.34179688 -0.48602295 -1.0490112 -1.0169067 -2.121704 -1.5927124l2.2925415 0l0 -2.2567139l-15.122314 0l0 2.5074768l7.9171753 0c1.0821533 0 2.0789185 0.13928223 2.9902954 0.4179077c0.59802246 0.18572998 1.0647583 0.4968567 1.4002075 0.9333191c0.338562 0.43649292 0.50787354 0.92871094 0.50787354 1.4766235c0 0.61294556 -0.18511963 1.2258911 -0.5553589 1.8388062l2.3779907 0.863678c0.55059814 -0.8729553 0.8258667 -1.7319946 0.8258667 -2.577118z" fill-rule="evenodd"/><path fill="#ff0000" d="m632.98096 372.59763l-0.93981934 0c-1.1296997 0 -1.9840698 -0.13467407 -2.5631104 -0.4039917c-0.74993896 -0.35290527 -1.3416748 -0.90548706 -1.7752075 -1.6577148c-0.4303589 -0.7522278 -0.6455078 -1.6112671 -0.6455078 -2.577118c0 -0.9751282 0.22784424 -1.7165222 0.6834717 -2.2242126c0.45568848 -0.50457764 1.0252686 -0.756897 1.7087402 -0.756897c0.446167 0 0.8512573 0.11608887 1.2151489 0.3482666c0.36706543 0.23217773 0.6455078 0.56185913 0.8353882 0.9890747c0.18981934 0.42718506 0.36071777 1.1562195 0.51257324 2.1870422c0.2658081 1.8202515 0.588562 3.1854248 0.96832275 4.0955505zm7.8743896 -3.1900635c0 -1.2723083 -0.17877197 -2.391388 -0.5363159 -3.3572083c-0.35443115 -0.96585083 -0.8623047 -1.7041626 -1.5236206 -2.2149353c-0.6582031 -0.5107727 -1.5236206 -0.8776245 -2.5963745 -1.1004944l-0.34173584 2.4517212c1.0727539 0.26934814 1.819519 0.68414307 2.2403564 1.2444458c0.42401123 0.5634155 0.63604736 1.434845 0.63604736 2.6142883c0 1.2630005 -0.28955078 2.2149353 -0.8685913 2.855713c-0.42718506 0.4736328 -1.1629028 0.7104492 -2.2071533 0.7104492c-0.09490967 0 -0.31799316 -0.004638672 -0.6692505 -0.013916016c-0.34173584 -0.9565735 -0.63604736 -2.447113 -0.88287354 -4.471649c-0.123413086 -0.9937134 -0.25152588 -1.7366638 -0.38446045 -2.2288818c-0.18981934 -0.66864014 -0.46990967 -1.270752 -0.8400879 -1.8063049c-0.37023926 -0.5324402 -0.8623047 -0.9642639 -1.4761963 -1.2955017c-0.6107178 -0.32815552 -1.2863159 -0.49221802 -2.0267334 -0.49221802c-1.2625732 0 -2.300476 0.43649292 -3.1137085 1.3094482c-0.8100586 0.87298584 -1.2150879 2.1220703 -1.2150879 3.747284c0 0.9844055 0.1661377 1.905365 0.49835205 2.762848c0.3322754 0.8605957 0.90185547 1.7552185 1.7087402 2.6839294c-0.7119751 0.074279785 -1.3337402 0.24145508 -1.8653564 0.50149536l0 2.6188965c0.5790405 -0.31576538 1.1834717 -0.5278015 1.8131714 -0.6361389c0.63287354 -0.10525513 2.140686 -0.15789795 4.5233765 -0.15789795l3.4174805 0c1.1391602 0 1.927063 -0.041778564 2.3637695 -0.12536621c0.7024536 -0.14859009 1.2831421 -0.40863037 1.7419434 -0.78009033c0.46203613 -0.37149048 0.84490967 -0.9519043 1.1486816 -1.7413025c0.30377197 -0.7893982 0.45562744 -1.8155823 0.45562744 -3.0786133z" fill-rule="evenodd"/><path fill="#ff0000" d="m640.85535 385.9847c0 -2.0524292 -0.83062744 -3.6219177 -2.4918823 -4.7084656l2.1501465 0l0 -2.2567139l-15.122314 0l0 2.5074463l8.258911 0c1.9365845 0 3.2513428 0.3869629 3.944336 1.1608582c0.69299316 0.77700806 1.0394897 1.6995239 1.0394897 2.767517c0 0.66864014 -0.15509033 1.2506409 -0.46514893 1.7459412c-0.3069458 0.49838257 -0.71990967 0.8450928 -1.2388306 1.0401306c-0.5158081 0.19500732 -1.2958374 0.2925415 -2.3400269 0.2925415l-9.19873 0l0 2.5074463l9.298401 0c1.1865845 0 2.017212 -0.046417236 2.4918823 -0.13928223c0.73095703 -0.14859009 1.3622437 -0.40863037 1.8938599 -0.78012085c0.5316162 -0.37145996 0.9603882 -0.9317627 1.2863159 -1.6809082c0.32910156 -0.74606323 0.4935913 -1.5648499 0.4935913 -2.4563904z" fill-rule="evenodd"/><path fill="#ff0000" d="m638.7337 400.51407c0 1.1330261 -0.46990967 2.1004028 -1.409729 2.9021606c-0.93981934 0.8048706 -2.335266 1.2073059 -4.1864014 1.2073059c-1.9365845 0 -3.3589478 -0.39004517 -4.26709 -1.1701355c-0.9050293 -0.78012085 -1.3574829 -1.7459412 -1.3574829 -2.897522c0 -1.1608887 0.45562744 -2.126709 1.3669434 -2.897522c0.91137695 -0.770813 2.3590088 -1.1562195 4.3430786 -1.1562195c1.8226318 0 3.195984 0.39004517 4.119934 1.1701355c0.92718506 0.78012085 1.3907471 1.7273865 1.3907471 2.8417969zm2.121643 -0.18109131c0 -1.3094482 -0.33221436 -2.4501953 -0.99676514 -3.4222107c-0.66448975 -0.9689331 -1.6074219 -1.7088013 -2.8288574 -2.219574c-1.2182617 -0.5108032 -2.5488892 -0.7661743 -3.9918213 -0.7661743c-2.0979614 0 -3.8968506 0.55722046 -5.3967896 1.6716309c-1.4998779 1.1144409 -2.249817 2.688568 -2.249817 4.722412c0 1.634491 0.659729 2.9996643 1.9793091 4.09552l0 0c-1.6707764 0.009277344 -2.767212 -0.051086426 -3.2893677 -0.18109131c-0.8543701 -0.22290039 -1.5188599 -0.65008545 -1.9935303 -1.2815857c-0.47460938 -0.63153076 -0.7119751 -1.52771 -0.7119751 -2.688568c0 -1.077301 0.23736572 -1.9270325 0.7119751 -2.5492554c0.35125732 -0.46435547 0.91137695 -0.7476196 1.6802979 -0.84976196l0.37023926 -2.4378052l0 0c-1.6328125 -0.03717041 -2.854248 0.48754883 -3.6643066 1.5741272c-0.8132324 1.0865784 -1.2198486 2.5121155 -1.2198486 4.2766113c0 1.4859009 0.28479004 2.7365417 0.8543701 3.7519226c0.5695801 1.0184631 1.3464355 1.7614136 2.3305054 2.2288513c0.98095703 0.47055054 2.6485596 0.70581055 5.0028076 0.70581055l13.071838 0l0 -2.312439l-1.8226318 0c1.4429321 -1.1329956 2.1643677 -2.5724792 2.1643677 -4.3184204z" fill-rule="evenodd"/><path fill="#ff0000" d="m638.7479 416.8544c0 1.2723083 -0.49365234 2.3078003 -1.480896 3.1064758c-0.63604736 0.52005005 -1.5900879 0.8358154 -2.8621216 0.9472656l0 -8.260712c1.319519 0.08358765 2.37323 0.5169678 3.1611328 1.3001709c0.78790283 0.7862854 1.1818848 1.7552185 1.1818848 2.9067993zm2.1074219 -0.027862549c0 -2.0431213 -0.7024536 -3.7054749 -2.1074219 -4.9870605c-1.4049683 -1.2816162 -3.3795166 -1.9223938 -5.923645 -1.9223938c-2.4586792 0 -4.369934 0.63305664 -5.7337646 1.8991699c-1.3606567 1.2691956 -2.0409546 2.9857483 -2.0409546 5.149597c0 1.7180786 0.42718506 3.1296692 1.2815552 4.234833c0.8543701 1.105133 2.0552368 1.86203 3.6026 2.27063l0.3274536 -2.591034c-1.0821533 -0.38076782 -1.8701172 -0.8961792 -2.3637085 -1.5462646c-0.49365234 -0.65008545 -0.7404785 -1.434845 -0.7404785 -2.354248c0 -1.2351379 0.44140625 -2.2659912 1.3242798 -3.0925293c0.88287354 -0.8265381 2.1549072 -1.2862549 3.816162 -1.3791199l0 11.032867c0.30377197 0.009277344 0.5316162 0.013916016 0.6835327 0.013916016c2.496643 0 4.4332275 -0.6268616 5.8096924 -1.8805847c1.3764648 -1.2537537 2.0646973 -2.8696594 2.0646973 -4.8477783z" fill-rule="evenodd"/><path fill="#ff0000" d="m386.22192 354.07742c-1.5487671 0 -2.7331543 0.48971558 -3.5531006 1.4691467l0 -1.2676697l-1.7029724 0l0 8.915619l1.8921814 0l0 -4.869171c0 -1.1417236 0.2920227 -1.9168701 0.8760376 -2.3254395c0.5863342 -0.40856934 1.2824707 -0.612854 2.0884094 -0.612854c0.50457764 0 0.9437561 0.091430664 1.3175049 0.27426147c0.37609863 0.18093872 0.63775635 0.42440796 0.7849121 0.7303772c0.14718628 0.30407715 0.22076416 0.76394653 0.22076416 1.3795776l0 5.4232483l1.8921814 0l0 -5.482025c0 -0.69958496 -0.03503418 -1.1893005 -0.10513306 -1.4691162c-0.11212158 -0.43096924 -0.3083496 -0.8031311 -0.5886841 -1.1165466c-0.28030396 -0.31344604 -0.703125 -0.56622314 -1.2684631 -0.7583618c-0.56295776 -0.19403076 -1.1808472 -0.29104614 -1.8536377 -0.29104614z" fill-rule="evenodd"/><path fill="#ff0000" d="m397.46994 355.3283c0.9320679 0 1.7111206 0.28448486 2.3371887 0.8534851c0.62838745 0.5671387 0.94259644 1.4019775 0.94259644 2.504547c0 1.1697083 -0.31185913 2.0400085 -0.9355774 2.6108704c-0.62371826 0.5708618 -1.4051208 0.85632324 -2.3442078 0.85632324c-0.94610596 0 -1.7310181 -0.28356934 -2.3547363 -0.850708c-0.62371826 -0.56900024 -0.9355774 -1.4243774 -0.9355774 -2.566101c0 -1.1417542 0.31185913 -1.9952393 0.9355774 -2.5605164c0.62371826 -0.5652771 1.4086304 -0.8479004 2.3547363 -0.8479004zm0 -1.250885c-1.3806152 0 -2.5509644 0.3302002 -3.511078 0.9906311c-1.1493225 0.79473877 -1.7239685 2.0176086 -1.7239685 3.6686707c0 1.5055237 0.48120117 2.6584473 1.4436646 3.4587708c0.9647827 0.8003235 2.2285767 1.2005005 3.7913818 1.2005005c0.9741211 0 1.8723145 -0.18188477 2.6946106 -0.5456848c0.8246155 -0.36380005 1.4518433 -0.87402344 1.8816528 -1.5307007c0.43218994 -0.65856934 0.6482544 -1.5614929 0.6482544 -2.7088318c0 -1.4159546 -0.48706055 -2.525055 -1.4611816 -3.32724c-0.9741211 -0.80407715 -2.2285767 -1.2061157 -3.7633362 -1.2061157z" fill-rule="evenodd"/><path fill="#cfe2f3" d="m293.6106 568.3018l93.90613 0l0 0c12.301941 0 22.274658 11.217712 22.274658 25.055481c0 13.8377075 -9.972717 25.05542 -22.274658 25.05542l-93.90613 0l0 0c-12.301941 0 -22.274658 -11.217712 -22.274658 -25.05542c0 -13.837769 9.972717 -25.055481 22.274658 -25.055481z" fill-rule="evenodd"/><path stroke="#000000" stroke-width="2.0" stroke-linejoin="round" stroke-linecap="butt" d="m293.6106 568.3018l93.90613 0l0 0c12.301941 0 22.274658 11.217712 22.274658 25.055481c0 13.8377075 -9.972717 25.05542 -22.274658 25.05542l-93.90613 0l0 0c-12.301941 0 -22.274658 -11.217712 -22.274658 -25.05542c0 -13.837769 9.972717 -25.055481 22.274658 -25.055481z" fill-rule="evenodd"/><path fill="#000000" d="m329.54224 597.32166l2.90625 0.484375q-0.546875 1.609375 -1.765625 2.453125q-1.21875 0.828125 -3.03125 0.828125q-2.890625 0 -4.28125 -1.890625q-1.09375 -1.5 -1.09375 -3.8125q0 -2.75 1.4375 -4.296875q1.4375 -1.5625 3.640625 -1.5625q2.46875 0 3.890625 1.640625q1.421875 1.625 1.359375 4.984375l-7.328125 0q0.03125 1.296875 0.703125 2.03125q0.6875 0.71875 1.703125 0.71875q0.6875 0 1.15625 -0.375q0.46875 -0.375 0.703125 -1.203125zm0.171875 -2.96875q-0.03125 -1.265625 -0.65625 -1.921875q-0.625 -0.671875 -1.53125 -0.671875q-0.953125 0 -1.578125 0.703125q-0.625 0.703125 -0.609375 1.890625l4.375 0zm15.346069 6.484375l-2.921875 0l0 -5.640625q0 -1.796875 -0.1875 -2.3125q-0.1875 -0.53125 -0.609375 -0.828125q-0.421875 -0.296875 -1.015625 -0.296875q-0.765625 0 -1.375 0.421875q-0.59375 0.421875 -0.828125 1.109375q-0.21875 0.6875 -0.21875 2.53125l0 5.015625l-2.921875 0l0 -11.0625l2.71875 0l0 1.625q1.4375 -1.875 3.640625 -1.875q0.96875 0 1.765625 0.359375q0.8125 0.34375 1.21875 0.890625q0.40625 0.53125 0.5625 1.21875q0.171875 0.6875 0.171875 1.96875l0 6.875zm13.106201 0l-2.71875 0l0 -1.625q-0.671875 0.953125 -1.59375 1.421875q-0.921875 0.453125 -1.859375 0.453125q-1.90625 0 -3.265625 -1.53125q-1.359375 -1.546875 -1.359375 -4.296875q0 -2.8125 1.3125 -4.265625q1.328125 -1.46875 3.359375 -1.46875q1.84375 0 3.203125 1.546875l0 -5.5l2.921875 0l0 15.265625zm-7.8125 -5.765625q0 1.765625 0.5 2.5625q0.703125 1.140625 1.96875 1.140625q1.015625 0 1.71875 -0.859375q0.71875 -0.859375 0.71875 -2.5625q0 -1.90625 -0.6875 -2.75q-0.6875 -0.84375 -1.765625 -0.84375q-1.046875 0 -1.75 0.828125q-0.703125 0.828125 -0.703125 2.484375z" fill-rule="nonzero"/><path fill="#dd7e6b" d="m584.83203 592.06433l0 0c0 -9.045349 7.3326416 -16.37799 16.37793 -16.37799l0 0c4.343689 0 8.5095215 1.7255249 11.580994 4.796997c3.0714722 3.0714722 4.796997 7.2372437 4.796997 11.580994l0 0c0 9.045288 -7.3327026 16.37793 -16.37799 16.37793l0 0c-9.045288 0 -16.37793 -7.3326416 -16.37793 -16.37793z" fill-rule="evenodd"/><path stroke="#cc0000" stroke-width="3.0" stroke-linejoin="round" stroke-linecap="butt" d="m584.83203 592.06433l0 0c0 -9.045349 7.3326416 -16.37799 16.37793 -16.37799l0 0c4.343689 0 8.5095215 1.7255249 11.580994 4.796997c3.0714722 3.0714722 4.796997 7.2372437 4.796997 11.580994l0 0c0 9.045288 -7.3327026 16.37793 -16.37799 16.37793l0 0c-9.045288 0 -16.37793 -7.3326416 -16.37793 -16.37793z" fill-rule="evenodd"/><path fill="#000000" fill-opacity="0.0" d="m584.83203 592.06433l-175.05511 1.2913208" fill-rule="evenodd"/><path stroke="#ff0000" stroke-width="3.0" stroke-linejoin="round" stroke-linecap="butt" d="m584.83203 592.06433l-157.05563 1.1585083" fill-rule="evenodd"/><path fill="#ff0000" stroke="#ff0000" stroke-width="3.0" stroke-linecap="butt" d="m427.73987 588.2678l-13.577393 5.055481l13.650482 4.8546143z" fill-rule="evenodd"/><path fill="#ff0000" d="m162.17596 423.72043c-1.5700531 0 -2.770691 0.5019226 -3.601883 1.5057678l0 -1.2992554l-1.7263489 0l0 9.137848l1.9181671 0l0 -4.9905396c0 -1.1701965 0.29600525 -1.9646606 0.888031 -2.3834229c0.59439087 -0.4187317 1.3000793 -0.6281128 2.1170807 -0.6281128c0.5115051 0 0.9567108 0.093688965 1.3356171 0.2810669c0.3812561 0.18548584 0.6464844 0.43499756 0.79566956 0.7485962c0.14920044 0.31167603 0.2237854 0.7829895 0.2237854 1.413971l0 5.558441l1.9181671 0l0 -5.6186523c0 -0.717041 -0.03552246 -1.2189636 -0.10656738 -1.5057678c-0.11366272 -0.44171143 -0.31259155 -0.82315063 -0.596756 -1.1443787c-0.2841797 -0.32125854 -0.7127991 -0.58032227 -1.2858887 -0.7772827c-0.5707092 -0.19885254 -1.1970673 -0.2982788 -1.8790741 -0.2982788z" fill-rule="evenodd"/><path fill="#ff0000" d="m173.57835 425.00247c0.94487 0 1.7346344 0.29159546 2.3692932 0.8747864c0.63700867 0.5812683 0.95552063 1.4369202 0.95552063 2.566986c0 1.198883 -0.3161316 2.0908508 -0.9484253 2.6759644c-0.63227844 0.585083 -1.424408 0.8776245 -2.3763885 0.8776245c-0.9590759 0 -1.7547607 -0.2906189 -2.3870392 -0.8718872c-0.63227844 -0.5831909 -0.9484253 -1.4598999 -0.9484253 -2.6300964c0 -1.1701965 0.31614685 -2.0449524 0.9484253 -2.6243286c0.63227844 -0.5793457 1.4279633 -0.8690491 2.3870392 -0.8690491zm0 -1.2820435c-1.3995361 0 -2.5859528 0.33843994 -3.5592499 1.0153198c-1.1651001 0.8145447 -1.7476501 2.0679321 -1.7476501 3.7601013c0 1.5430603 0.4878235 2.7247314 1.4634857 3.5450134c0.9780121 0.820282 2.2591553 1.2304382 3.8434143 1.2304382c0.98750305 0 1.8980408 -0.18643188 2.7316132 -0.55929565c0.8359375 -0.37286377 1.4717712 -0.895813 1.9075012 -1.5688477c0.4380951 -0.6749878 0.65715027 -1.6004333 0.65715027 -2.7763672c0 -1.4512634 -0.49375916 -2.5880127 -1.481247 -3.4101868c-0.98750305 -0.8241272 -2.2591705 -1.2361755 -3.8150177 -1.2361755z" fill-rule="evenodd"/><path fill="#ff0000" d="m144.90285 273.61984l4.2945557 9.15506c-0.07815552 0.16635132 -0.13497925 0.29257202 -0.17050171 0.37860107c-0.26997375 0.61376953 -0.46533203 0.9981079 -0.58610535 1.1529846c-0.16340637 0.20651245 -0.37298584 0.36712646 -0.6287384 0.48184204c-0.25575256 0.114746094 -0.596756 0.17208862 -1.0230103 0.17208862c-0.31259155 0 -0.6784668 -0.04586792 -1.0976257 -0.1376648l0 0l0.21313477 1.4541321c0.4546814 0.1262207 0.86672974 0.18930054 1.236145 0.18930054c0.6109772 0 1.1366882 -0.119506836 1.5771637 -0.3585205c0.4404602 -0.23709106 0.831192 -0.6109009 1.1722107 -1.1214294c0.25575256 -0.37860107 0.6145172 -1.0697937 1.076294 -2.073639l4.3052063 -9.292755l-1.9181671 0l-2.4190063 5.326111c-0.30548096 0.6768799 -0.5683441 1.3709717 -0.7885742 2.0822754c-0.24154663 -0.73999023 -0.5150604 -1.4455566 -0.82055664 -2.1166992l-2.355072 -5.291687z" fill-rule="evenodd"/><path fill="#ff0000" d="m161.56953 274.6868c0.9732971 0 1.7654266 0.2982788 2.3763885 0.8948364c0.3978424 0.38433838 0.63938904 0.96084595 0.7246399 1.7294922l-6.319275 0c0.063934326 -0.79733276 0.3954773 -1.4340515 0.9945984 -1.9101868c0.60150146 -0.47610474 1.3427124 -0.71414185 2.223648 -0.71414185zm-0.02130127 -1.273468c-1.5629578 0 -2.8346252 0.4244995 -3.8150177 1.273468c-0.98039246 0.8489685 -1.4705963 2.0421143 -1.4705963 3.5794067c0 1.4856873 0.48428345 2.6405945 1.4528351 3.4647217c0.97091675 0.8221741 2.284027 1.2332764 3.939331 1.2332764c1.3143005 0 2.3941498 -0.25811768 3.239563 -0.77438354c0.8454132 -0.51626587 1.424408 -1.2419128 1.7369995 -2.1769104l-1.9821014 -0.1979065c-0.29127502 0.65393066 -0.68556213 1.1300354 -1.1828613 1.4283447c-0.4972992 0.2982788 -1.0976105 0.4474182 -1.8009338 0.4474182c-0.94487 0 -1.7334595 -0.26675415 -2.365738 -0.8002014c-0.63227844 -0.5334778 -0.98394775 -1.3021545 -1.0549927 -2.3059998l8.439911 0c0.0071105957 -0.18353271 0.010665894 -0.32122803 0.010665894 -0.41299438c0 -1.5086365 -0.47955322 -2.678833 -1.4386292 -3.5105896c-0.9590759 -0.8317566 -2.195221 -1.2476501 -3.708435 -1.2476501z" fill-rule="evenodd"/><path fill="#ff0000" d="m172.7588 273.41333c-0.5896454 0 -1.1426086 0.062164307 -1.658844 0.18643188c-0.5138855 0.12237549 -0.9200134 0.27249146 -1.2183838 0.45031738c-0.3978424 0.22943115 -0.7127991 0.51815796 -0.94488525 0.8661499c-0.22970581 0.34609985 -0.34455872 0.7227783 -0.34455872 1.1300659c0 0.4474182 0.13972473 0.8565979 0.41915894 1.2275391c0.28179932 0.36904907 0.69384766 0.6587219 1.236145 0.8690491c0.5446625 0.20840454 1.5203247 0.45602417 2.9269714 0.7428589c1.044342 0.21221924 1.697937 0.3871765 1.9607849 0.5248413c0.37654114 0.20077515 0.5648041 0.47613525 0.5648041 0.8260498c0 0.39004517 -0.21313477 0.7304077 -0.63938904 1.0210266c-0.42625427 0.2887268 -1.0798645 0.43310547 -1.9607849 0.43310547c-0.87384033 0 -1.554657 -0.16348267 -2.0424957 -0.490448c-0.48545837 -0.32696533 -0.7814636 -0.79733276 -0.888031 -1.4111328l-1.8968506 0.24093628c0.21313477 0.9694214 0.70451355 1.7008057 1.4741364 2.1941223c0.7720032 0.49331665 1.8932953 0.7399597 3.3638916 0.7399597c0.888031 0 1.6837158 -0.12426758 2.3870392 -0.37286377c0.7033386 -0.25045776 1.2408905 -0.60324097 1.6126862 -1.0583191c0.37416077 -0.45700073 0.5612335 -0.94363403 0.5612335 -1.4598694c0 -0.5277405 -0.15274048 -0.9694519 -0.45822144 -1.3251038c-0.30548096 -0.35562134 -0.727005 -0.6261902 -1.2645721 -0.811676c-0.53518677 -0.18737793 -1.481247 -0.42733765 -2.8381653 -0.71987915c-0.9377594 -0.20651245 -1.5025635 -0.33843994 -1.6943817 -0.395813c-0.33389282 -0.10897827 -0.57899475 -0.24667358 -0.7352905 -0.4130249c-0.15629578 -0.16061401 -0.23443604 -0.3413086 -0.23443604 -0.5420532c0 -0.31549072 0.18826294 -0.59085083 0.5647888 -0.8260193c0.37652588 -0.23519897 1.0052643 -0.3527832 1.8861847 -0.3527832c0.7459564 0 1.322586 0.13192749 1.7299042 0.39578247c0.40968323 0.2638855 0.65715027 0.63101196 0.7424011 1.1013794l1.875534 -0.20651245c-0.120773315 -0.5908203 -0.34100342 -1.0621643 -0.66070557 -1.4140015c-0.3196869 -0.35372925 -0.81581116 -0.6338501 -1.4883423 -0.84036255c-0.6701813 -0.20648193 -1.4492798 -0.30975342 -2.337326 -0.30975342z" fill-rule="evenodd"/><path fill="#cfe2f3" d="m60.711285 296.35303l0 0c0 -9.045288 7.3326607 -16.37796 16.377956 -16.37796l0 0c4.343704 0 8.509499 1.7255249 11.5809555 4.796997c3.0714645 3.0714417 4.796997 7.2372437 4.796997 11.580963l0 0c0 9.045288 -7.3326645 16.37793 -16.377953 16.37793l0 0c-9.045296 0 -16.377956 -7.3326416 -16.377956 -16.37793z" fill-rule="evenodd"/><path stroke="#434343" stroke-width="3.0" stroke-linejoin="round" stroke-linecap="butt" d="m60.711285 296.35303l0 0c0 -9.045288 7.3326607 -16.37796 16.377956 -16.37796l0 0c4.343704 0 8.509499 1.7255249 11.5809555 4.796997c3.0714645 3.0714417 4.796997 7.2372437 4.796997 11.580963l0 0c0 9.045288 -7.3326645 16.37793 -16.377953 16.37793l0 0c-9.045296 0 -16.377956 -7.3326416 -16.377956 -16.37793z" fill-rule="evenodd"/><path fill="#000000" fill-opacity="0.0" d="m77.08924 279.97507l0 -139.52756l146.4567 0" fill-rule="evenodd"/><path stroke="#434343" stroke-width="3.0" stroke-linejoin="round" stroke-linecap="butt" d="m77.08924 279.97507l0 -139.52756l128.4567 0" fill-rule="evenodd"/><path fill="#434343" stroke="#434343" stroke-width="3.0" stroke-linecap="butt" d="m205.54593 145.40271l13.614288 -4.9552l-13.614288 -4.9552z" fill-rule="evenodd"/></g></svg>